<?xml version="1.0" encoding="UTF-8" standalone="no"?>
<!DOCTYPE svg PUBLIC "-//W3C//DTD SVG 1.1//EN"
 "http://www.w3.org/Graphics/SVG/1.1/DTD/svg11.dtd">
<!-- Generated by graphviz version 2.43.0 (0)
 -->
<!-- Title: %3 Pages: 1 -->
<svg width="387pt" height="188pt"
 viewBox="0.00 0.00 387.19 188.00" xmlns="http://www.w3.org/2000/svg" xmlns:xlink="http://www.w3.org/1999/xlink">
<g id="graph0" class="graph" transform="scale(1 1) rotate(0) translate(4 184)">
<title>%3</title>
<polygon fill="white" stroke="transparent" points="-4,4 -4,-184 383.19,-184 383.19,4 -4,4"/>
<!-- SRC -->
<g id="node1" class="node">
<title>SRC</title>
<ellipse fill="lightgray" stroke="black" cx="146.2" cy="-162" rx="30.59" ry="18"/>
<text text-anchor="middle" x="146.2" y="-158.3" font-family="Times,serif" font-size="14.00">SRC</text>
</g>
<!-- PTK2 -->
<g id="node2" class="node">
<title>PTK2</title>
<ellipse fill="lightgray" stroke="black" cx="73.2" cy="-90" rx="36" ry="18"/>
<text text-anchor="middle" x="73.2" y="-86.3" font-family="Times,serif" font-size="14.00">PTK2</text>
</g>
<!-- SRC&#45;&gt;PTK2 -->
<g id="edge1" class="edge">
<title>SRC&#45;&gt;PTK2</title>
<path fill="none" stroke="green" d="M130.71,-146.15C120.79,-136.63 107.71,-124.09 96.53,-113.38"/>
<polygon fill="green" stroke="green" points="98.8,-110.7 89.16,-106.31 93.96,-115.76 98.8,-110.7"/>
</g>
<!-- DAB1 -->
<g id="node3" class="node">
<title>DAB1</title>
<ellipse fill="lightgray" stroke="black" cx="220.2" cy="-90" rx="37.09" ry="18"/>
<text text-anchor="middle" x="220.2" y="-86.3" font-family="Times,serif" font-size="14.00">DAB1</text>
</g>
<!-- SRC&#45;&gt;DAB1 -->
<g id="edge2" class="edge">
<title>SRC&#45;&gt;DAB1</title>
<path fill="none" stroke="green" d="M161.89,-146.15C171.96,-136.63 185.21,-124.09 196.54,-113.38"/>
<polygon fill="green" stroke="green" points="199.15,-115.72 204.01,-106.31 194.34,-110.64 199.15,-115.72"/>
</g>
<!-- CTNNB1 -->
<g id="node5" class="node">
<title>CTNNB1</title>
<ellipse fill="lightgray" stroke="black" cx="327.2" cy="-90" rx="51.99" ry="18"/>
<text text-anchor="middle" x="327.2" y="-86.3" font-family="Times,serif" font-size="14.00">CTNNB1</text>
</g>
<!-- SRC&#45;&gt;CTNNB1 -->
<g id="edge4" class="edge">
<title>SRC&#45;&gt;CTNNB1</title>
<path fill="none" stroke="darkorange" d="M170.98,-151.41C200.1,-140.15 248.9,-121.28 284.22,-107.62"/>
<polygon fill="darkorange" stroke="darkorange" points="292.36,-100.18 295.24,-107.65 287.78,-110.53 284.9,-103.07 292.36,-100.18"/>
<polyline fill="none" stroke="darkorange" points="286.34,-106.8 284.47,-107.52 "/>
</g>
<!-- ITGB4 -->
<g id="node7" class="node">
<title>ITGB4</title>
<ellipse fill="lightgray" stroke="black" cx="146.2" cy="-18" rx="40.09" ry="18"/>
<text text-anchor="middle" x="146.2" y="-14.3" font-family="Times,serif" font-size="14.00">ITGB4</text>
</g>
<!-- SRC&#45;&gt;ITGB4 -->
<g id="edge10" class="edge">
<title>SRC&#45;&gt;ITGB4</title>
<path fill="none" stroke="green" d="M141.64,-144.15C139.06,-120.05 138.75,-75.45 140.73,-46.51"/>
<polygon fill="green" stroke="green" points="144.24,-46.53 141.6,-36.27 137.27,-45.94 144.24,-46.53"/>
</g>
<!-- PTPRH -->
<g id="node6" class="node">
<title>PTPRH</title>
<ellipse fill="lightgray" stroke="black" cx="44.2" cy="-18" rx="44.39" ry="18"/>
<text text-anchor="middle" x="44.2" y="-14.3" font-family="Times,serif" font-size="14.00">PTPRH</text>
</g>
<!-- PTK2&#45;&gt;PTPRH -->
<g id="edge6" class="edge">
<title>PTK2&#45;&gt;PTPRH</title>
<path fill="none" stroke="red" d="M60.67,-72.76C55.7,-63.32 50.54,-51.3 47,-41.01"/>
<polygon fill="red" stroke="red" points="40.95,-38.63 50.46,-35.52 51.08,-37.42 41.58,-40.53 40.95,-38.63"/>
<polyline fill="none" stroke="red" points="45.39,-36.12 46.95,-40.87 "/>
</g>
<!-- PTK2&#45;&gt;ITGB4 -->
<g id="edge8" class="edge">
<title>PTK2&#45;&gt;ITGB4</title>
<path fill="none" stroke="green" d="M84.33,-72.76C93.31,-63.12 106.03,-50.77 117.67,-40.34"/>
<polygon fill="green" stroke="green" points="120.28,-42.7 125.5,-33.48 115.67,-37.44 120.28,-42.7"/>
</g>
<!-- NOTCH1 -->
<g id="node4" class="node">
<title>NOTCH1</title>
<ellipse fill="lightgray" stroke="black" cx="291.2" cy="-18" rx="51.99" ry="18"/>
<text text-anchor="middle" x="291.2" y="-14.3" font-family="Times,serif" font-size="14.00">NOTCH1</text>
</g>
<!-- DAB1&#45;&gt;NOTCH1 -->
<g id="edge3" class="edge">
<title>DAB1&#45;&gt;NOTCH1</title>
<path fill="none" stroke="green" d="M235.95,-73.46C245.16,-64.39 256.96,-52.75 267.29,-42.57"/>
<polygon fill="green" stroke="green" points="269.83,-44.98 274.49,-35.47 264.92,-40 269.83,-44.98"/>
</g>
<!-- CTNNB1&#45;&gt;NOTCH1 -->
<g id="edge5" class="edge">
<title>CTNNB1&#45;&gt;NOTCH1</title>
<path fill="none" stroke="green" d="M318.48,-72.05C314.28,-63.89 309.15,-53.91 304.48,-44.82"/>
<polygon fill="green" stroke="green" points="307.52,-43.08 299.83,-35.79 301.29,-46.28 307.52,-43.08"/>
</g>
<!-- PTPRH&#45;&gt;SRC -->
<g id="edge7" class="edge">
<title>PTPRH&#45;&gt;SRC</title>
<path fill="none" stroke="red" d="M34.57,-35.81C25.1,-54.82 13.95,-85.99 28.2,-108 46.52,-136.31 83.94,-149.64 111.76,-155.83"/>
<polygon fill="red" stroke="red" points="116.89,-151.81 114.82,-161.59 112.86,-161.17 114.93,-151.39 116.89,-151.81"/>
<polyline fill="none" stroke="red" points="116.83,-156.9 111.94,-155.87 "/>
</g>
<!-- PTPRH&#45;&gt;PTK2 -->
<g id="edge11" class="edge">
<title>PTPRH&#45;&gt;PTK2</title>
<path fill="none" stroke="red" d="M56.93,-35.62C61.82,-44.97 66.86,-56.76 70.36,-66.88"/>
<polygon fill="red" stroke="red" points="76.38,-69.18 66.88,-72.31 66.26,-70.41 75.75,-67.28 76.38,-69.18"/>
<polyline fill="none" stroke="red" points="71.94,-71.7 70.38,-66.95 "/>
</g>
<!-- ITGB4&#45;&gt;SRC -->
<g id="edge9" class="edge">
<title>ITGB4&#45;&gt;SRC</title>
<path fill="none" stroke="green" d="M150.8,-36.27C153.35,-60.61 153.63,-105.24 151.63,-133.99"/>
<polygon fill="green" stroke="green" points="148.12,-133.89 150.75,-144.15 155.1,-134.49 148.12,-133.89"/>
</g>
<!-- ITGB4&#45;&gt;PTK2 -->
<g id="edge12" class="edge">
<title>ITGB4&#45;&gt;PTK2</title>
<path fill="none" stroke="green" d="M134.96,-35.35C125.89,-45.08 113.06,-57.52 101.37,-67.97"/>
<polygon fill="green" stroke="green" points="98.75,-65.62 93.52,-74.83 103.35,-70.89 98.75,-65.62"/>
</g>
</g>
</svg>
