<?xml version="1.0" encoding="UTF-8" standalone="no"?>
<!DOCTYPE svg PUBLIC "-//W3C//DTD SVG 1.1//EN"
 "http://www.w3.org/Graphics/SVG/1.1/DTD/svg11.dtd">
<!-- Generated by graphviz version 2.43.0 (0)
 -->
<!-- Title: %3 Pages: 1 -->
<svg width="1096pt" height="188pt"
 viewBox="0.00 0.00 1095.89 188.00" xmlns="http://www.w3.org/2000/svg" xmlns:xlink="http://www.w3.org/1999/xlink">
<g id="graph0" class="graph" transform="scale(1 1) rotate(0) translate(4 184)">
<title>%3</title>
<polygon fill="white" stroke="transparent" points="-4,4 -4,-184 1091.89,-184 1091.89,4 -4,4"/>
<!-- SRC -->
<g id="node1" class="node">
<title>SRC</title>
<ellipse fill="lightgray" stroke="black" cx="529.75" cy="-90" rx="30.59" ry="18"/>
<text text-anchor="middle" x="529.75" y="-86.3" font-family="Times,serif" font-size="14.00">SRC</text>
</g>
<!-- PTK2 -->
<g id="node2" class="node">
<title>PTK2</title>
<ellipse fill="none" stroke="black" cx="35.75" cy="-18" rx="36" ry="18"/>
<text text-anchor="middle" x="35.75" y="-14.3" font-family="Times,serif" font-size="14.00">PTK2</text>
</g>
<!-- SRC&#45;&gt;PTK2 -->
<g id="edge1" class="edge">
<title>SRC&#45;&gt;PTK2</title>
<path fill="none" stroke="green" d="M499.35,-87.96C426.23,-84.91 235.16,-73.68 80.75,-36 77.93,-35.31 75.05,-34.5 72.18,-33.61"/>
<polygon fill="green" stroke="green" points="73.13,-30.23 62.54,-30.34 70.88,-36.86 73.13,-30.23"/>
</g>
<!-- CDH2 -->
<g id="node4" class="node">
<title>CDH2</title>
<ellipse fill="none" stroke="black" cx="127.75" cy="-18" rx="38.19" ry="18"/>
<text text-anchor="middle" x="127.75" y="-14.3" font-family="Times,serif" font-size="14.00">CDH2</text>
</g>
<!-- SRC&#45;&gt;CDH2 -->
<g id="edge3" class="edge">
<title>SRC&#45;&gt;CDH2</title>
<path fill="none" stroke="red" d="M499.53,-86.45C437.91,-80.81 293.62,-65.41 175.75,-36 170.99,-34.81 166.03,-33.34 161.2,-31.76"/>
<polygon fill="red" stroke="red" points="155.77,-35.22 158.95,-25.74 160.84,-26.37 157.66,-35.85 155.77,-35.22"/>
<polyline fill="none" stroke="red" points="156.41,-30.16 161.15,-31.75 "/>
</g>
<!-- PTK2B -->
<g id="node5" class="node">
<title>PTK2B</title>
<ellipse fill="none" stroke="black" cx="226.75" cy="-18" rx="42.49" ry="18"/>
<text text-anchor="middle" x="226.75" y="-14.3" font-family="Times,serif" font-size="14.00">PTK2B</text>
</g>
<!-- SRC&#45;&gt;PTK2B -->
<g id="edge4" class="edge">
<title>SRC&#45;&gt;PTK2B</title>
<path fill="none" stroke="green" d="M500.77,-84.02C453.63,-75.67 357.58,-57.62 277.75,-36 274.55,-35.13 271.26,-34.18 267.96,-33.18"/>
<polygon fill="green" stroke="green" points="268.72,-29.75 258.13,-30.09 266.62,-36.43 268.72,-29.75"/>
</g>
<!-- PTEN -->
<g id="node6" class="node">
<title>PTEN</title>
<ellipse fill="none" stroke="black" cx="324.75" cy="-18" rx="37.89" ry="18"/>
<text text-anchor="middle" x="324.75" y="-14.3" font-family="Times,serif" font-size="14.00">PTEN</text>
</g>
<!-- SRC&#45;&gt;PTEN -->
<g id="edge5" class="edge">
<title>SRC&#45;&gt;PTEN</title>
<path fill="none" stroke="red" d="M503.49,-80.54C471.9,-70.28 417.28,-52.35 370.75,-36 366.71,-34.58 362.48,-33.06 358.29,-31.54"/>
<polygon fill="red" stroke="red" points="352.63,-34.79 356.06,-25.4 357.94,-26.09 354.51,-35.48 352.63,-34.79"/>
<polyline fill="none" stroke="red" points="353.4,-29.75 358.1,-31.47 "/>
</g>
<!-- GFRA1 -->
<g id="node8" class="node">
<title>GFRA1</title>
<ellipse fill="none" stroke="black" cx="423.75" cy="-18" rx="43.59" ry="18"/>
<text text-anchor="middle" x="423.75" y="-14.3" font-family="Times,serif" font-size="14.00">GFRA1</text>
</g>
<!-- SRC&#45;&gt;GFRA1 -->
<g id="edge7" class="edge">
<title>SRC&#45;&gt;GFRA1</title>
<path fill="none" stroke="green" d="M509.81,-75.83C494.14,-65.49 472.06,-50.9 454.18,-39.1"/>
<polygon fill="green" stroke="green" points="456.06,-36.15 445.79,-33.56 452.21,-41.99 456.06,-36.15"/>
</g>
<!-- PRKD1 -->
<g id="node9" class="node">
<title>PRKD1</title>
<ellipse fill="none" stroke="black" cx="529.75" cy="-18" rx="44.39" ry="18"/>
<text text-anchor="middle" x="529.75" y="-14.3" font-family="Times,serif" font-size="14.00">PRKD1</text>
</g>
<!-- SRC&#45;&gt;PRKD1 -->
<g id="edge8" class="edge">
<title>SRC&#45;&gt;PRKD1</title>
<path fill="none" stroke="green" d="M529.75,-71.7C529.75,-63.98 529.75,-54.71 529.75,-46.11"/>
<polygon fill="green" stroke="green" points="533.25,-46.1 529.75,-36.1 526.25,-46.1 533.25,-46.1"/>
</g>
<!-- NCK1 -->
<g id="node10" class="node">
<title>NCK1</title>
<ellipse fill="none" stroke="black" cx="630.75" cy="-18" rx="38.19" ry="18"/>
<text text-anchor="middle" x="630.75" y="-14.3" font-family="Times,serif" font-size="14.00">NCK1</text>
</g>
<!-- SRC&#45;&gt;NCK1 -->
<g id="edge9" class="edge">
<title>SRC&#45;&gt;NCK1</title>
<path fill="none" stroke="green" d="M548.74,-75.83C563.63,-65.51 584.61,-50.98 601.62,-39.19"/>
<polygon fill="green" stroke="green" points="603.87,-41.89 610.1,-33.31 599.88,-36.13 603.87,-41.89"/>
</g>
<!-- CTNNB1 -->
<g id="node14" class="node">
<title>CTNNB1</title>
<ellipse fill="none" stroke="black" cx="738.75" cy="-18" rx="51.99" ry="18"/>
<text text-anchor="middle" x="738.75" y="-14.3" font-family="Times,serif" font-size="14.00">CTNNB1</text>
</g>
<!-- SRC&#45;&gt;CTNNB1 -->
<g id="edge13" class="edge">
<title>SRC&#45;&gt;CTNNB1</title>
<path fill="none" stroke="purple" d="M555.79,-80.28C589.53,-68.98 648.97,-49.07 690.93,-35.02"/>
<polygon fill="purple" stroke="purple" points="691.16,-34.94 695.57,-29.24 702.53,-31.13 698.11,-36.83 691.16,-34.94"/>
</g>
<!-- RHOA -->
<g id="node15" class="node">
<title>RHOA</title>
<ellipse fill="none" stroke="black" cx="847.75" cy="-18" rx="38.99" ry="18"/>
<text text-anchor="middle" x="847.75" y="-14.3" font-family="Times,serif" font-size="14.00">RHOA</text>
</g>
<!-- SRC&#45;&gt;RHOA -->
<g id="edge14" class="edge">
<title>SRC&#45;&gt;RHOA</title>
<path fill="none" stroke="purple" d="M559.24,-84.66C609.23,-76.99 713.59,-59.58 799.75,-36 802.15,-35.34 804.6,-34.63 807.06,-33.87"/>
<polygon fill="purple" stroke="purple" points="807.11,-33.85 811.57,-28.18 818.52,-30.12 814.06,-35.79 807.11,-33.85"/>
</g>
<!-- RAC1 -->
<g id="node16" class="node">
<title>RAC1</title>
<ellipse fill="none" stroke="black" cx="940.75" cy="-18" rx="36.29" ry="18"/>
<text text-anchor="middle" x="940.75" y="-14.3" font-family="Times,serif" font-size="14.00">RAC1</text>
</g>
<!-- SRC&#45;&gt;RAC1 -->
<g id="edge15" class="edge">
<title>SRC&#45;&gt;RAC1</title>
<path fill="none" stroke="green" d="M560.07,-86.85C623.32,-81.88 773.59,-67.52 895.75,-36 898.55,-35.28 901.42,-34.44 904.29,-33.53"/>
<polygon fill="green" stroke="green" points="905.6,-36.78 913.93,-30.22 903.33,-30.15 905.6,-36.78"/>
</g>
<!-- PIK3CA -->
<g id="node17" class="node">
<title>PIK3CA</title>
<ellipse fill="none" stroke="black" cx="1041.75" cy="-18" rx="46.29" ry="18"/>
<text text-anchor="middle" x="1041.75" y="-14.3" font-family="Times,serif" font-size="14.00">PIK3CA</text>
</g>
<!-- SRC&#45;&gt;PIK3CA -->
<g id="edge16" class="edge">
<title>SRC&#45;&gt;PIK3CA</title>
<path fill="none" stroke="green" d="M560.19,-87.35C633.91,-82.94 827.55,-68.93 985.75,-36 989.83,-35.15 994.05,-34.13 998.24,-33.03"/>
<polygon fill="green" stroke="green" points="999.25,-36.38 1007.94,-30.32 997.37,-29.64 999.25,-36.38"/>
</g>
<!-- CDH1 -->
<g id="node3" class="node">
<title>CDH1</title>
<ellipse fill="none" stroke="black" cx="338.75" cy="-162" rx="38.19" ry="18"/>
<text text-anchor="middle" x="338.75" y="-158.3" font-family="Times,serif" font-size="14.00">CDH1</text>
</g>
<!-- CDH1&#45;&gt;SRC -->
<g id="edge2" class="edge">
<title>CDH1&#45;&gt;SRC</title>
<path fill="none" stroke="green" d="M368.17,-150.22C402.32,-137.7 458.57,-117.08 494.88,-103.78"/>
<polygon fill="green" stroke="green" points="496.37,-106.96 504.56,-100.23 493.97,-100.39 496.37,-106.96"/>
</g>
<!-- ACTN3 -->
<g id="node7" class="node">
<title>ACTN3</title>
<ellipse fill="none" stroke="black" cx="438.75" cy="-162" rx="43.59" ry="18"/>
<text text-anchor="middle" x="438.75" y="-158.3" font-family="Times,serif" font-size="14.00">ACTN3</text>
</g>
<!-- ACTN3&#45;&gt;SRC -->
<g id="edge6" class="edge">
<title>ACTN3&#45;&gt;SRC</title>
<path fill="none" stroke="green" d="M458.49,-145.81C471.78,-135.59 489.43,-122.02 503.84,-110.93"/>
<polygon fill="green" stroke="green" points="506.1,-113.61 511.89,-104.74 501.83,-108.06 506.1,-113.61"/>
</g>
<!-- ZYX -->
<g id="node11" class="node">
<title>ZYX</title>
<ellipse fill="none" stroke="black" cx="529.75" cy="-162" rx="29.5" ry="18"/>
<text text-anchor="middle" x="529.75" y="-158.3" font-family="Times,serif" font-size="14.00">ZYX</text>
</g>
<!-- ZYX&#45;&gt;SRC -->
<g id="edge10" class="edge">
<title>ZYX&#45;&gt;SRC</title>
<path fill="none" stroke="green" d="M529.75,-143.7C529.75,-135.98 529.75,-126.71 529.75,-118.11"/>
<polygon fill="green" stroke="green" points="533.25,-118.1 529.75,-108.1 526.25,-118.1 533.25,-118.1"/>
</g>
<!-- AMOTL2 -->
<g id="node12" class="node">
<title>AMOTL2</title>
<ellipse fill="none" stroke="black" cx="628.75" cy="-162" rx="51.19" ry="18"/>
<text text-anchor="middle" x="628.75" y="-158.3" font-family="Times,serif" font-size="14.00">AMOTL2</text>
</g>
<!-- AMOTL2&#45;&gt;SRC -->
<g id="edge11" class="edge">
<title>AMOTL2&#45;&gt;SRC</title>
<path fill="none" stroke="green" d="M606.78,-145.46C592.07,-135.07 572.61,-121.3 556.92,-110.22"/>
<polygon fill="green" stroke="green" points="558.84,-107.29 548.66,-104.37 554.8,-113 558.84,-107.29"/>
</g>
<!-- MAPK8 -->
<g id="node13" class="node">
<title>MAPK8</title>
<ellipse fill="none" stroke="black" cx="743.75" cy="-162" rx="45.49" ry="18"/>
<text text-anchor="middle" x="743.75" y="-158.3" font-family="Times,serif" font-size="14.00">MAPK8</text>
</g>
<!-- MAPK8&#45;&gt;SRC -->
<g id="edge12" class="edge">
<title>MAPK8&#45;&gt;SRC</title>
<path fill="none" stroke="green" d="M709.84,-149.91C670.4,-137.01 605.58,-115.81 565.41,-102.66"/>
<polygon fill="green" stroke="green" points="566.35,-99.29 555.76,-99.51 564.17,-105.94 566.35,-99.29"/>
</g>
</g>
</svg>
