<?xml version="1.0" encoding="UTF-8" standalone="no"?>
<!DOCTYPE svg PUBLIC "-//W3C//DTD SVG 1.1//EN"
 "http://www.w3.org/Graphics/SVG/1.1/DTD/svg11.dtd">
<!-- Generated by graphviz version 2.43.0 (0)
 -->
<!-- Title: %3 Pages: 1 -->
<svg width="710pt" height="116pt"
 viewBox="0.00 0.00 710.14 116.00" xmlns="http://www.w3.org/2000/svg" xmlns:xlink="http://www.w3.org/1999/xlink">
<g id="graph0" class="graph" transform="scale(1 1) rotate(0) translate(4 112)">
<title>%3</title>
<polygon fill="white" stroke="transparent" points="-4,4 -4,-112 706.14,-112 706.14,4 -4,4"/>
<!-- FOXL2 -->
<g id="node1" class="node">
<title>FOXL2</title>
<ellipse fill="lightgray" stroke="black" cx="42.25" cy="-90" rx="42.49" ry="18"/>
<text text-anchor="middle" x="42.25" y="-86.3" font-family="Times,serif" font-size="14.00">FOXL2</text>
</g>
<!-- LATS1 -->
<g id="node2" class="node">
<title>LATS1</title>
<ellipse fill="lightgray" stroke="black" cx="94.25" cy="-18" rx="40.89" ry="18"/>
<text text-anchor="middle" x="94.25" y="-14.3" font-family="Times,serif" font-size="14.00">LATS1</text>
</g>
<!-- FOXL2&#45;&gt;LATS1 -->
<g id="edge1" class="edge">
<title>FOXL2&#45;&gt;LATS1</title>
<path fill="none" stroke="green" d="M54.57,-72.41C60.92,-63.87 68.78,-53.28 75.83,-43.79"/>
<polygon fill="green" stroke="green" points="78.86,-45.58 82.01,-35.47 73.24,-41.41 78.86,-45.58"/>
</g>
<!-- ZBED1 -->
<g id="node3" class="node">
<title>ZBED1</title>
<ellipse fill="lightgray" stroke="black" cx="146.25" cy="-90" rx="44.39" ry="18"/>
<text text-anchor="middle" x="146.25" y="-86.3" font-family="Times,serif" font-size="14.00">ZBED1</text>
</g>
<!-- ZBED1&#45;&gt;LATS1 -->
<g id="edge2" class="edge">
<title>ZBED1&#45;&gt;LATS1</title>
<path fill="none" stroke="green" d="M133.92,-72.41C127.58,-63.87 119.71,-53.28 112.66,-43.79"/>
<polygon fill="green" stroke="green" points="115.25,-41.41 106.48,-35.47 109.63,-45.58 115.25,-41.41"/>
</g>
<!-- AR -->
<g id="node4" class="node">
<title>AR</title>
<ellipse fill="lightgray" stroke="black" cx="437.25" cy="-90" rx="27" ry="18"/>
<text text-anchor="middle" x="437.25" y="-86.3" font-family="Times,serif" font-size="14.00">AR</text>
</g>
<!-- SRC -->
<g id="node5" class="node">
<title>SRC</title>
<ellipse fill="lightgray" stroke="black" cx="183.25" cy="-18" rx="30.59" ry="18"/>
<text text-anchor="middle" x="183.25" y="-14.3" font-family="Times,serif" font-size="14.00">SRC</text>
</g>
<!-- AR&#45;&gt;SRC -->
<g id="edge3" class="edge">
<title>AR&#45;&gt;SRC</title>
<path fill="none" stroke="green" d="M411.69,-84.16C371,-76.14 289.25,-58.68 222.25,-36 220.14,-35.29 218,-34.51 215.84,-33.69"/>
<polygon fill="green" stroke="green" points="217.09,-30.42 206.5,-29.9 214.46,-36.9 217.09,-30.42"/>
</g>
<!-- LATS2 -->
<g id="node6" class="node">
<title>LATS2</title>
<ellipse fill="lightgray" stroke="black" cx="272.25" cy="-18" rx="40.89" ry="18"/>
<text text-anchor="middle" x="272.25" y="-14.3" font-family="Times,serif" font-size="14.00">LATS2</text>
</g>
<!-- AR&#45;&gt;LATS2 -->
<g id="edge4" class="edge">
<title>AR&#45;&gt;LATS2</title>
<path fill="none" stroke="green" d="M414.99,-79.56C388.21,-68.2 342.79,-48.93 310.38,-35.18"/>
<polygon fill="green" stroke="green" points="311.35,-31.79 300.78,-31.1 308.61,-38.23 311.35,-31.79"/>
</g>
<!-- NOTCH1 -->
<g id="node7" class="node">
<title>NOTCH1</title>
<ellipse fill="lightgray" stroke="black" cx="383.25" cy="-18" rx="51.99" ry="18"/>
<text text-anchor="middle" x="383.25" y="-14.3" font-family="Times,serif" font-size="14.00">NOTCH1</text>
</g>
<!-- AR&#45;&gt;NOTCH1 -->
<g id="edge5" class="edge">
<title>AR&#45;&gt;NOTCH1</title>
<path fill="none" stroke="green" d="M425.26,-73.46C418.46,-64.65 409.81,-53.43 402.12,-43.46"/>
<polygon fill="green" stroke="green" points="404.83,-41.25 395.95,-35.47 399.29,-45.52 404.83,-41.25"/>
</g>
<!-- CDH1 -->
<g id="node8" class="node">
<title>CDH1</title>
<ellipse fill="lightgray" stroke="black" cx="491.25" cy="-18" rx="38.19" ry="18"/>
<text text-anchor="middle" x="491.25" y="-14.3" font-family="Times,serif" font-size="14.00">CDH1</text>
</g>
<!-- AR&#45;&gt;CDH1 -->
<g id="edge6" class="edge">
<title>AR&#45;&gt;CDH1</title>
<path fill="none" stroke="red" d="M449.23,-73.46C456.91,-63.51 466.97,-50.47 475.32,-39.65"/>
<polygon fill="red" stroke="red" points="473.97,-33.2 481.89,-39.31 480.67,-40.9 472.75,-34.79 473.97,-33.2"/>
<polyline fill="none" stroke="red" points="478.54,-35.47 475.49,-39.43 "/>
</g>
<!-- CDH2 -->
<g id="node9" class="node">
<title>CDH2</title>
<ellipse fill="lightgray" stroke="black" cx="586.25" cy="-18" rx="38.19" ry="18"/>
<text text-anchor="middle" x="586.25" y="-14.3" font-family="Times,serif" font-size="14.00">CDH2</text>
</g>
<!-- AR&#45;&gt;CDH2 -->
<g id="edge7" class="edge">
<title>AR&#45;&gt;CDH2</title>
<path fill="none" stroke="green" d="M458.59,-78.97C482.67,-67.66 522.19,-49.09 550.89,-35.61"/>
<polygon fill="green" stroke="green" points="552.61,-38.67 560.17,-31.25 549.63,-32.33 552.61,-38.67"/>
</g>
<!-- VIM -->
<g id="node10" class="node">
<title>VIM</title>
<ellipse fill="lightgray" stroke="black" cx="672.25" cy="-18" rx="29.8" ry="18"/>
<text text-anchor="middle" x="672.25" y="-14.3" font-family="Times,serif" font-size="14.00">VIM</text>
</g>
<!-- AR&#45;&gt;VIM -->
<g id="edge8" class="edge">
<title>AR&#45;&gt;VIM</title>
<path fill="none" stroke="red" d="M462.67,-83.39C500.4,-74.78 573.21,-57.07 633.25,-36 636.97,-34.69 640.84,-33.19 644.63,-31.63"/>
<polygon fill="red" stroke="red" points="646.51,-25.42 650.39,-34.63 648.55,-35.41 644.67,-26.19 646.51,-25.42"/>
<polyline fill="none" stroke="red" points="649.37,-29.64 644.76,-31.58 "/>
</g>
</g>
</svg>
