<?xml version="1.0" encoding="UTF-8" standalone="no"?>
<!DOCTYPE svg PUBLIC "-//W3C//DTD SVG 1.1//EN"
 "http://www.w3.org/Graphics/SVG/1.1/DTD/svg11.dtd">
<!-- Generated by graphviz version 2.43.0 (0)
 -->
<!-- Title: %3 Pages: 1 -->
<svg width="1675pt" height="980pt"
 viewBox="0.00 0.00 1674.69 980.00" xmlns="http://www.w3.org/2000/svg" xmlns:xlink="http://www.w3.org/1999/xlink">
<g id="graph0" class="graph" transform="scale(1 1) rotate(0) translate(4 976)">
<title>%3</title>
<polygon fill="white" stroke="transparent" points="-4,4 -4,-976 1670.69,-976 1670.69,4 -4,4"/>
<!-- AKT1_S473 -->
<g id="node1" class="node">
<title>AKT1_S473</title>
<ellipse fill="lightgray" stroke="black" cx="1603" cy="-954" rx="63.89" ry="18"/>
<text text-anchor="middle" x="1603" y="-950.3" font-family="Times,serif" font-size="14.00">AKT1_S473</text>
</g>
<!-- AKT1 -->
<g id="node2" class="node">
<title>AKT1</title>
<ellipse fill="lightgray" stroke="black" cx="988" cy="-882" rx="36" ry="18"/>
<text text-anchor="middle" x="988" y="-878.3" font-family="Times,serif" font-size="14.00">AKT1</text>
</g>
<!-- AKT1_S473&#45;&gt;AKT1 -->
<g id="edge1" class="edge">
<title>AKT1_S473&#45;&gt;AKT1</title>
<path fill="none" stroke="darkorange" d="M1545.14,-946.41C1423.19,-932.53 1142.01,-900.53 1032.65,-888.08"/>
<polygon fill="darkorange" stroke="darkorange" points="1022.16,-890.91 1023.07,-882.97 1031.01,-883.87 1030.11,-891.82 1022.16,-890.91"/>
<polyline fill="none" stroke="darkorange" points="1030.56,-887.84 1032.55,-888.07 "/>
</g>
<!-- AKT1S1_T246 -->
<g id="node3" class="node">
<title>AKT1S1_T246</title>
<ellipse fill="lightgray" stroke="black" cx="1334" cy="-810" rx="75.29" ry="18"/>
<text text-anchor="middle" x="1334" y="-806.3" font-family="Times,serif" font-size="14.00">AKT1S1_T246</text>
</g>
<!-- AKT1&#45;&gt;AKT1S1_T246 -->
<g id="edge2" class="edge">
<title>AKT1&#45;&gt;AKT1S1_T246</title>
<path fill="none" stroke="darkorange" d="M1020.55,-874.41C1077.03,-862.99 1194.2,-839.28 1268.19,-824.31"/>
<polygon fill="darkorange" stroke="darkorange" points="1277.54,-818.34 1279.13,-826.18 1271.29,-827.77 1269.7,-819.93 1277.54,-818.34"/>
<polyline fill="none" stroke="darkorange" points="1270.5,-823.85 1268.54,-824.24 "/>
</g>
<!-- MTOR_S2448 -->
<g id="node4" class="node">
<title>MTOR_S2448</title>
<ellipse fill="lightgray" stroke="black" cx="1501" cy="-810" rx="74.19" ry="18"/>
<text text-anchor="middle" x="1501" y="-806.3" font-family="Times,serif" font-size="14.00">MTOR_S2448</text>
</g>
<!-- AKT1&#45;&gt;MTOR_S2448 -->
<g id="edge48" class="edge">
<title>AKT1&#45;&gt;MTOR_S2448</title>
<path fill="none" stroke="green" d="M1022.97,-877.64C1096.41,-870.38 1271.95,-851.92 1418,-828 1424.29,-826.97 1430.82,-825.8 1437.34,-824.57"/>
<polygon fill="green" stroke="green" points="1438.38,-827.94 1447.54,-822.6 1437.05,-821.06 1438.38,-827.94"/>
</g>
<!-- GSK3B_S9 -->
<g id="node7" class="node">
<title>GSK3B_S9</title>
<ellipse fill="lightgray" stroke="black" cx="527" cy="-234" rx="60.39" ry="18"/>
<text text-anchor="middle" x="527" y="-230.3" font-family="Times,serif" font-size="14.00">GSK3B_S9</text>
</g>
<!-- AKT1&#45;&gt;GSK3B_S9 -->
<g id="edge7" class="edge">
<title>AKT1&#45;&gt;GSK3B_S9</title>
<path fill="none" stroke="red" d="M952.25,-879.71C775.12,-872.85 0,-837.23 0,-739 0,-739 0,-739 0,-377 0,-282.1 322.62,-248.77 463.01,-238.76"/>
<polygon fill="red" stroke="red" points="466.99,-233.47 467.69,-243.45 465.69,-243.59 464.99,-233.61 466.99,-233.47"/>
<polyline fill="none" stroke="red" points="468.33,-238.39 463.35,-238.74 "/>
</g>
<!-- HSPB1_S82 -->
<g id="node25" class="node">
<title>HSPB1_S82</title>
<ellipse fill="lightgray" stroke="black" cx="361" cy="-810" rx="66.09" ry="18"/>
<text text-anchor="middle" x="361" y="-806.3" font-family="Times,serif" font-size="14.00">HSPB1_S82</text>
</g>
<!-- AKT1&#45;&gt;HSPB1_S82 -->
<g id="edge29" class="edge">
<title>AKT1&#45;&gt;HSPB1_S82</title>
<path fill="none" stroke="green" d="M952.68,-879.13C864.97,-874.15 630.37,-858.8 437,-828 431.1,-827.06 424.97,-825.94 418.87,-824.72"/>
<polygon fill="green" stroke="green" points="419.17,-821.21 408.67,-822.61 417.75,-828.07 419.17,-821.21"/>
</g>
<!-- MAP2K4_S80 -->
<g id="node26" class="node">
<title>MAP2K4_S80</title>
<ellipse fill="lightgray" stroke="black" cx="519" cy="-810" rx="73.39" ry="18"/>
<text text-anchor="middle" x="519" y="-806.3" font-family="Times,serif" font-size="14.00">MAP2K4_S80</text>
</g>
<!-- AKT1&#45;&gt;MAP2K4_S80 -->
<g id="edge30" class="edge">
<title>AKT1&#45;&gt;MAP2K4_S80</title>
<path fill="none" stroke="red" d="M953.54,-877.04C885.93,-869.09 731.19,-850.07 602,-828 594.08,-826.65 585.75,-825.1 577.56,-823.49"/>
<polygon fill="red" stroke="red" points="572.49,-827.59 574.43,-817.78 576.39,-818.17 574.46,-827.98 572.49,-827.59"/>
<polyline fill="none" stroke="red" points="572.48,-822.49 577.39,-823.46 "/>
</g>
<!-- MAP3K5_S83 -->
<g id="node28" class="node">
<title>MAP3K5_S83</title>
<ellipse fill="lightgray" stroke="black" cx="684" cy="-810" rx="73.39" ry="18"/>
<text text-anchor="middle" x="684" y="-806.3" font-family="Times,serif" font-size="14.00">MAP3K5_S83</text>
</g>
<!-- AKT1&#45;&gt;MAP3K5_S83 -->
<g id="edge33" class="edge">
<title>AKT1&#45;&gt;MAP3K5_S83</title>
<path fill="none" stroke="darkorange" d="M956.04,-873.64C906.26,-862.18 809.33,-839.86 745.63,-825.19"/>
<polygon fill="darkorange" stroke="darkorange" points="734.81,-826.8 736.61,-819.01 744.4,-820.8 742.61,-828.6 734.81,-826.8"/>
<polyline fill="none" stroke="darkorange" points="743.51,-824.7 745.45,-825.15 "/>
</g>
<!-- RAF1_S259 -->
<g id="node30" class="node">
<title>RAF1_S259</title>
<ellipse fill="lightgray" stroke="black" cx="840" cy="-810" rx="64.19" ry="18"/>
<text text-anchor="middle" x="840" y="-806.3" font-family="Times,serif" font-size="14.00">RAF1_S259</text>
</g>
<!-- AKT1&#45;&gt;RAF1_S259 -->
<g id="edge38" class="edge">
<title>AKT1&#45;&gt;RAF1_S259</title>
<path fill="none" stroke="red" d="M962.89,-869.13C939.04,-857.84 902.91,-840.76 875.99,-828.02"/>
<polygon fill="red" stroke="red" points="870.18,-830.81 874.46,-821.77 876.27,-822.62 871.99,-831.66 870.18,-830.81"/>
<polyline fill="none" stroke="red" points="871.42,-825.86 875.94,-828 "/>
</g>
<!-- BRAF_S429 -->
<g id="node32" class="node">
<title>BRAF_S429</title>
<ellipse fill="lightgray" stroke="black" cx="988" cy="-810" rx="65.79" ry="18"/>
<text text-anchor="middle" x="988" y="-806.3" font-family="Times,serif" font-size="14.00">BRAF_S429</text>
</g>
<!-- AKT1&#45;&gt;BRAF_S429 -->
<g id="edge41" class="edge">
<title>AKT1&#45;&gt;BRAF_S429</title>
<path fill="none" stroke="red" d="M988,-863.7C988,-854.46 988,-842.98 988,-833.11"/>
<polygon fill="red" stroke="red" points="983,-829.1 993,-829.1 993,-831.1 983,-831.1 983,-829.1"/>
<polyline fill="none" stroke="red" points="988,-828.1 988,-833.1 "/>
</g>
<!-- BRAF_S365 -->
<g id="node34" class="node">
<title>BRAF_S365</title>
<ellipse fill="lightgray" stroke="black" cx="1137" cy="-810" rx="65.79" ry="18"/>
<text text-anchor="middle" x="1137" y="-806.3" font-family="Times,serif" font-size="14.00">BRAF_S365</text>
</g>
<!-- AKT1&#45;&gt;BRAF_S365 -->
<g id="edge44" class="edge">
<title>AKT1&#45;&gt;BRAF_S365</title>
<path fill="none" stroke="red" d="M1013.28,-869.13C1037.29,-857.84 1073.66,-840.76 1100.76,-828.02"/>
<polygon fill="red" stroke="red" points="1102.34,-821.76 1106.59,-830.81 1104.78,-831.66 1100.53,-822.61 1102.34,-821.76"/>
<polyline fill="none" stroke="red" points="1105.37,-825.86 1100.84,-827.99 "/>
</g>
<!-- MTOR -->
<g id="node5" class="node">
<title>MTOR</title>
<ellipse fill="lightgray" stroke="black" cx="1501" cy="-738" rx="40.09" ry="18"/>
<text text-anchor="middle" x="1501" y="-734.3" font-family="Times,serif" font-size="14.00">MTOR</text>
</g>
<!-- MTOR_S2448&#45;&gt;MTOR -->
<g id="edge3" class="edge">
<title>MTOR_S2448&#45;&gt;MTOR</title>
<path fill="none" stroke="green" d="M1501,-791.7C1501,-783.98 1501,-774.71 1501,-766.11"/>
<polygon fill="green" stroke="green" points="1504.5,-766.1 1501,-756.1 1497.5,-766.1 1504.5,-766.1"/>
</g>
<!-- MTOR&#45;&gt;AKT1_S473 -->
<g id="edge4" class="edge">
<title>MTOR&#45;&gt;AKT1_S473</title>
<path fill="none" stroke="darkorange" d="M1530.88,-750.22C1549.33,-758.78 1571.74,-772.44 1584,-792 1609.77,-833.1 1609.45,-891.83 1606.49,-925.83"/>
<polygon fill="darkorange" stroke="darkorange" points="1609.45,-936.34 1601.49,-935.54 1602.3,-927.58 1610.26,-928.38 1609.45,-936.34"/>
<polyline fill="none" stroke="darkorange" points="1606.28,-927.98 1606.48,-925.99 "/>
</g>
<!-- AKT1_T450 -->
<g id="node6" class="node">
<title>AKT1_T450</title>
<ellipse fill="lightgray" stroke="black" cx="1399" cy="-666" rx="63.89" ry="18"/>
<text text-anchor="middle" x="1399" y="-662.3" font-family="Times,serif" font-size="14.00">AKT1_T450</text>
</g>
<!-- MTOR&#45;&gt;AKT1_T450 -->
<g id="edge5" class="edge">
<title>MTOR&#45;&gt;AKT1_T450</title>
<path fill="none" stroke="darkorange" d="M1479.87,-722.5C1465.69,-712.76 1446.75,-699.77 1430.77,-688.8"/>
<polygon fill="darkorange" stroke="darkorange" points="1419.98,-686.25 1424.5,-679.65 1431.1,-684.18 1426.57,-690.77 1419.98,-686.25"/>
<polyline fill="none" stroke="darkorange" points="1428.84,-687.48 1430.49,-688.61 "/>
</g>
<!-- AKT1_T450&#45;&gt;AKT1 -->
<g id="edge6" class="edge">
<title>AKT1_T450&#45;&gt;AKT1</title>
<path fill="none" stroke="darkorange" d="M1378.91,-683.21C1349.98,-706.69 1295.11,-751.78 1250,-792 1232.64,-807.48 1232.47,-816.94 1212,-828 1155.12,-858.73 1080.69,-871.79 1033.59,-877.23"/>
<polygon fill="darkorange" stroke="darkorange" points="1023.83,-882.32 1022.96,-874.37 1030.91,-873.5 1031.78,-881.45 1023.83,-882.32"/>
<polyline fill="none" stroke="darkorange" points="1031.35,-877.48 1033.34,-877.26 "/>
</g>
<!-- GSK3B -->
<g id="node8" class="node">
<title>GSK3B</title>
<ellipse fill="lightgray" stroke="black" cx="707" cy="-162" rx="44.39" ry="18"/>
<text text-anchor="middle" x="707" y="-158.3" font-family="Times,serif" font-size="14.00">GSK3B</text>
</g>
<!-- GSK3B_S9&#45;&gt;GSK3B -->
<g id="edge8" class="edge">
<title>GSK3B_S9&#45;&gt;GSK3B</title>
<path fill="none" stroke="red" d="M558.7,-218.5C589.57,-205.86 636.28,-187.73 669.09,-175.67"/>
<polygon fill="red" stroke="red" points="671.17,-169.58 674.6,-178.97 672.73,-179.66 669.29,-170.27 671.17,-169.58"/>
<polyline fill="none" stroke="red" points="673.82,-173.93 669.13,-175.65 "/>
</g>
<!-- GSK3B&#45;&gt;GSK3B_S9 -->
<g id="edge15" class="edge">
<title>GSK3B&#45;&gt;GSK3B_S9</title>
<path fill="none" stroke="red" d="M678.83,-176.05C649.8,-188.01 604.37,-205.71 570.7,-218.19"/>
<polygon fill="red" stroke="red" points="568.49,-224.34 565.03,-214.96 566.9,-214.27 570.37,-223.65 568.49,-224.34"/>
<polyline fill="none" stroke="red" points="565.82,-220 570.51,-218.26 "/>
</g>
<!-- TBK1_S172 -->
<g id="node9" class="node">
<title>TBK1_S172</title>
<ellipse fill="lightgray" stroke="black" cx="1113" cy="-90" rx="64.19" ry="18"/>
<text text-anchor="middle" x="1113" y="-86.3" font-family="Times,serif" font-size="14.00">TBK1_S172</text>
</g>
<!-- GSK3B&#45;&gt;TBK1_S172 -->
<g id="edge9" class="edge">
<title>GSK3B&#45;&gt;TBK1_S172</title>
<path fill="none" stroke="green" d="M747.04,-154.1C817.69,-141.92 964.98,-116.52 1049.58,-101.94"/>
<polygon fill="green" stroke="green" points="1050.31,-105.36 1059.57,-100.21 1049.12,-98.46 1050.31,-105.36"/>
</g>
<!-- TBK1 -->
<g id="node10" class="node">
<title>TBK1</title>
<ellipse fill="lightgray" stroke="black" cx="1159" cy="-18" rx="36.29" ry="18"/>
<text text-anchor="middle" x="1159" y="-14.3" font-family="Times,serif" font-size="14.00">TBK1</text>
</g>
<!-- TBK1_S172&#45;&gt;TBK1 -->
<g id="edge10" class="edge">
<title>TBK1_S172&#45;&gt;TBK1</title>
<path fill="none" stroke="green" d="M1124.14,-72.05C1129.7,-63.59 1136.53,-53.19 1142.67,-43.84"/>
<polygon fill="green" stroke="green" points="1145.72,-45.59 1148.28,-35.31 1139.87,-41.74 1145.72,-45.59"/>
</g>
<!-- TBK1&#45;&gt;AKT1_S473 -->
<g id="edge11" class="edge">
<title>TBK1&#45;&gt;AKT1_S473</title>
<path fill="none" stroke="darkorange" d="M1194.83,-21.78C1306.54,-31.4 1641,-67.98 1641,-161 1641,-811 1641,-811 1641,-811 1641,-852.37 1625.77,-898.28 1614.59,-926.39"/>
<polygon fill="darkorange" stroke="darkorange" points="1614.39,-937.42 1606.99,-934.39 1610.02,-926.99 1617.42,-930.02 1614.39,-937.42"/>
<polyline fill="none" stroke="darkorange" points="1613.72,-928.5 1614.48,-926.65 "/>
</g>
<!-- MAPK14_T180 -->
<g id="node11" class="node">
<title>MAPK14_T180</title>
<ellipse fill="lightgray" stroke="black" cx="690" cy="-666" rx="79.09" ry="18"/>
<text text-anchor="middle" x="690" y="-662.3" font-family="Times,serif" font-size="14.00">MAPK14_T180</text>
</g>
<!-- MAPK14 -->
<g id="node12" class="node">
<title>MAPK14</title>
<ellipse fill="lightgray" stroke="black" cx="529" cy="-594" rx="51.19" ry="18"/>
<text text-anchor="middle" x="529" y="-590.3" font-family="Times,serif" font-size="14.00">MAPK14</text>
</g>
<!-- MAPK14_T180&#45;&gt;MAPK14 -->
<g id="edge12" class="edge">
<title>MAPK14_T180&#45;&gt;MAPK14</title>
<path fill="none" stroke="green" d="M655.07,-649.81C629.86,-638.85 595.77,-624.03 569.39,-612.56"/>
<polygon fill="green" stroke="green" points="570.62,-609.28 560.06,-608.5 567.83,-615.7 570.62,-609.28"/>
</g>
<!-- GSK3B_T390 -->
<g id="node13" class="node">
<title>GSK3B_T390</title>
<ellipse fill="lightgray" stroke="black" cx="642" cy="-306" rx="71.49" ry="18"/>
<text text-anchor="middle" x="642" y="-302.3" font-family="Times,serif" font-size="14.00">GSK3B_T390</text>
</g>
<!-- MAPK14&#45;&gt;GSK3B_T390 -->
<g id="edge13" class="edge">
<title>MAPK14&#45;&gt;GSK3B_T390</title>
<path fill="none" stroke="green" d="M569.41,-582.73C591.53,-574.87 617.18,-561.6 631,-540 672.02,-475.92 658.76,-380.41 648.79,-334.11"/>
<polygon fill="green" stroke="green" points="652.18,-333.2 646.55,-324.23 645.35,-334.75 652.18,-333.2"/>
</g>
<!-- GSK3B_T43 -->
<g id="node14" class="node">
<title>GSK3B_T43</title>
<ellipse fill="lightgray" stroke="black" cx="741" cy="-378" rx="65.79" ry="18"/>
<text text-anchor="middle" x="741" y="-374.3" font-family="Times,serif" font-size="14.00">GSK3B_T43</text>
</g>
<!-- MAPK14&#45;&gt;GSK3B_T43 -->
<g id="edge16" class="edge">
<title>MAPK14&#45;&gt;GSK3B_T43</title>
<path fill="none" stroke="green" d="M573.02,-584.52C601.86,-577.02 638.75,-563.5 664,-540 703.67,-503.08 725.08,-441.46 734.66,-406.12"/>
<polygon fill="green" stroke="green" points="738.15,-406.61 737.26,-396.05 731.37,-404.86 738.15,-406.61"/>
</g>
<!-- MAPKAPK2_T222 -->
<g id="node35" class="node">
<title>MAPKAPK2_T222</title>
<ellipse fill="lightgray" stroke="black" cx="529" cy="-522" rx="92.88" ry="18"/>
<text text-anchor="middle" x="529" y="-518.3" font-family="Times,serif" font-size="14.00">MAPKAPK2_T222</text>
</g>
<!-- MAPK14&#45;&gt;MAPKAPK2_T222 -->
<g id="edge49" class="edge">
<title>MAPK14&#45;&gt;MAPKAPK2_T222</title>
<path fill="none" stroke="green" d="M529,-575.7C529,-567.98 529,-558.71 529,-550.11"/>
<polygon fill="green" stroke="green" points="532.5,-550.1 529,-540.1 525.5,-550.1 532.5,-550.1"/>
</g>
<!-- MAPKAPK2_S272 -->
<g id="node38" class="node">
<title>MAPKAPK2_S272</title>
<ellipse fill="lightgray" stroke="black" cx="121" cy="-522" rx="92.88" ry="18"/>
<text text-anchor="middle" x="121" y="-518.3" font-family="Times,serif" font-size="14.00">MAPKAPK2_S272</text>
</g>
<!-- MAPK14&#45;&gt;MAPKAPK2_S272 -->
<g id="edge52" class="edge">
<title>MAPK14&#45;&gt;MAPKAPK2_S272</title>
<path fill="none" stroke="green" d="M483.78,-585.24C414.8,-573.41 282.42,-550.69 198.08,-536.22"/>
<polygon fill="green" stroke="green" points="198.49,-532.74 188.04,-534.5 197.3,-539.64 198.49,-532.74"/>
</g>
<!-- MAPKAPK2_T334 -->
<g id="node39" class="node">
<title>MAPKAPK2_T334</title>
<ellipse fill="lightgray" stroke="black" cx="325" cy="-522" rx="92.88" ry="18"/>
<text text-anchor="middle" x="325" y="-518.3" font-family="Times,serif" font-size="14.00">MAPKAPK2_T334</text>
</g>
<!-- MAPK14&#45;&gt;MAPKAPK2_T334 -->
<g id="edge54" class="edge">
<title>MAPK14&#45;&gt;MAPKAPK2_T334</title>
<path fill="none" stroke="green" d="M493.47,-580.81C461.61,-569.88 414.43,-553.69 378.1,-541.22"/>
<polygon fill="green" stroke="green" points="379.23,-537.91 368.64,-537.97 376.96,-544.53 379.23,-537.91"/>
</g>
<!-- GSK3B_T390&#45;&gt;GSK3B -->
<g id="edge14" class="edge">
<title>GSK3B_T390&#45;&gt;GSK3B</title>
<path fill="none" stroke="green" d="M649.84,-287.87C661.08,-263.33 681.85,-217.94 695.02,-189.17"/>
<polygon fill="green" stroke="green" points="698.35,-190.3 699.33,-179.75 691.99,-187.38 698.35,-190.3"/>
</g>
<!-- GSK3B_T43&#45;&gt;GSK3B -->
<g id="edge17" class="edge">
<title>GSK3B_T43&#45;&gt;GSK3B</title>
<path fill="none" stroke="green" d="M738.28,-359.85C732.39,-322.83 718.47,-235.18 711.35,-190.39"/>
<polygon fill="green" stroke="green" points="714.76,-189.56 709.74,-180.23 707.85,-190.66 714.76,-189.56"/>
</g>
<!-- MAPK14_Y182 -->
<g id="node15" class="node">
<title>MAPK14_Y182</title>
<ellipse fill="lightgray" stroke="black" cx="513" cy="-666" rx="79.09" ry="18"/>
<text text-anchor="middle" x="513" y="-662.3" font-family="Times,serif" font-size="14.00">MAPK14_Y182</text>
</g>
<!-- MAPK14_Y182&#45;&gt;MAPK14 -->
<g id="edge18" class="edge">
<title>MAPK14_Y182&#45;&gt;MAPK14</title>
<path fill="none" stroke="green" d="M516.96,-647.7C518.72,-639.98 520.84,-630.71 522.8,-622.11"/>
<polygon fill="green" stroke="green" points="526.27,-622.63 525.09,-612.1 519.45,-621.07 526.27,-622.63"/>
</g>
<!-- MAP2K1_S218 -->
<g id="node16" class="node">
<title>MAP2K1_S218</title>
<ellipse fill="lightgray" stroke="black" cx="1135" cy="-666" rx="79.09" ry="18"/>
<text text-anchor="middle" x="1135" y="-662.3" font-family="Times,serif" font-size="14.00">MAP2K1_S218</text>
</g>
<!-- MAP2K1 -->
<g id="node17" class="node">
<title>MAP2K1</title>
<ellipse fill="lightgray" stroke="black" cx="1135" cy="-594" rx="51.19" ry="18"/>
<text text-anchor="middle" x="1135" y="-590.3" font-family="Times,serif" font-size="14.00">MAP2K1</text>
</g>
<!-- MAP2K1_S218&#45;&gt;MAP2K1 -->
<g id="edge19" class="edge">
<title>MAP2K1_S218&#45;&gt;MAP2K1</title>
<path fill="none" stroke="green" d="M1135,-647.7C1135,-639.98 1135,-630.71 1135,-622.11"/>
<polygon fill="green" stroke="green" points="1138.5,-622.1 1135,-612.1 1131.5,-622.1 1138.5,-622.1"/>
</g>
<!-- GSK3B_Y216 -->
<g id="node18" class="node">
<title>GSK3B_Y216</title>
<ellipse fill="lightgray" stroke="black" cx="840" cy="-234" rx="71.49" ry="18"/>
<text text-anchor="middle" x="840" y="-230.3" font-family="Times,serif" font-size="14.00">GSK3B_Y216</text>
</g>
<!-- MAP2K1&#45;&gt;GSK3B_Y216 -->
<g id="edge20" class="edge">
<title>MAP2K1&#45;&gt;GSK3B_Y216</title>
<path fill="none" stroke="green" d="M1084.98,-589.82C1016.8,-584.38 899.98,-570.75 872,-540 800.83,-461.78 820.84,-321.32 833.38,-262.3"/>
<polygon fill="green" stroke="green" points="836.86,-262.78 835.61,-252.26 830.02,-261.26 836.86,-262.78"/>
</g>
<!-- MAPK3_T202 -->
<g id="node22" class="node">
<title>MAPK3_T202</title>
<ellipse fill="lightgray" stroke="black" cx="1135" cy="-522" rx="73.39" ry="18"/>
<text text-anchor="middle" x="1135" y="-518.3" font-family="Times,serif" font-size="14.00">MAPK3_T202</text>
</g>
<!-- MAP2K1&#45;&gt;MAPK3_T202 -->
<g id="edge58" class="edge">
<title>MAP2K1&#45;&gt;MAPK3_T202</title>
<path fill="none" stroke="green" d="M1135,-575.7C1135,-567.98 1135,-558.71 1135,-550.11"/>
<polygon fill="green" stroke="green" points="1138.5,-550.1 1135,-540.1 1131.5,-550.1 1138.5,-550.1"/>
</g>
<!-- MAPK3_Y204 -->
<g id="node24" class="node">
<title>MAPK3_Y204</title>
<ellipse fill="lightgray" stroke="black" cx="1132" cy="-378" rx="73.39" ry="18"/>
<text text-anchor="middle" x="1132" y="-374.3" font-family="Times,serif" font-size="14.00">MAPK3_Y204</text>
</g>
<!-- MAP2K1&#45;&gt;MAPK3_Y204 -->
<g id="edge57" class="edge">
<title>MAP2K1&#45;&gt;MAPK3_Y204</title>
<path fill="none" stroke="green" d="M1169.06,-580.39C1186.76,-571.89 1206.79,-558.76 1217,-540 1224.65,-525.95 1220.23,-519.67 1217,-504 1209.97,-469.88 1205.69,-460.74 1186,-432 1178.63,-421.25 1168.87,-410.87 1159.66,-402.19"/>
<polygon fill="green" stroke="green" points="1161.88,-399.48 1152.13,-395.33 1157.17,-404.65 1161.88,-399.48"/>
</g>
<!-- MAPK3_T207 -->
<g id="node40" class="node">
<title>MAPK3_T207</title>
<ellipse fill="lightgray" stroke="black" cx="970" cy="-522" rx="73.39" ry="18"/>
<text text-anchor="middle" x="970" y="-518.3" font-family="Times,serif" font-size="14.00">MAPK3_T207</text>
</g>
<!-- MAP2K1&#45;&gt;MAPK3_T207 -->
<g id="edge59" class="edge">
<title>MAP2K1&#45;&gt;MAPK3_T207</title>
<path fill="none" stroke="red" d="M1103.58,-579.67C1076.97,-568.38 1038.68,-552.14 1009.91,-539.93"/>
<polygon fill="red" stroke="red" points="1003.99,-542.85 1007.89,-533.64 1009.73,-534.43 1005.83,-543.63 1003.99,-542.85"/>
<polyline fill="none" stroke="red" points="1005.02,-537.86 1009.62,-539.81 "/>
</g>
<!-- MAPK1_T185 -->
<g id="node41" class="node">
<title>MAPK1_T185</title>
<ellipse fill="lightgray" stroke="black" cx="1502" cy="-522" rx="73.39" ry="18"/>
<text text-anchor="middle" x="1502" y="-518.3" font-family="Times,serif" font-size="14.00">MAPK1_T185</text>
</g>
<!-- MAP2K1&#45;&gt;MAPK1_T185 -->
<g id="edge61" class="edge">
<title>MAP2K1&#45;&gt;MAPK1_T185</title>
<path fill="none" stroke="green" d="M1179.81,-584.89C1235.81,-574.69 1334.58,-556.52 1419,-540 1425.16,-538.79 1431.57,-537.52 1437.97,-536.23"/>
<polygon fill="green" stroke="green" points="1438.9,-539.62 1448,-534.2 1437.51,-532.75 1438.9,-539.62"/>
</g>
<!-- MAPK1_Y187 -->
<g id="node44" class="node">
<title>MAPK1_Y187</title>
<ellipse fill="lightgray" stroke="black" cx="1337" cy="-522" rx="73.39" ry="18"/>
<text text-anchor="middle" x="1337" y="-518.3" font-family="Times,serif" font-size="14.00">MAPK1_Y187</text>
</g>
<!-- MAP2K1&#45;&gt;MAPK1_Y187 -->
<g id="edge64" class="edge">
<title>MAP2K1&#45;&gt;MAPK1_Y187</title>
<path fill="none" stroke="green" d="M1170.19,-580.81C1202.32,-569.67 1250.19,-553.08 1286.42,-540.53"/>
<polygon fill="green" stroke="green" points="1288.01,-543.68 1296.31,-537.1 1285.72,-537.07 1288.01,-543.68"/>
</g>
<!-- GSK3B_Y216&#45;&gt;GSK3B -->
<g id="edge21" class="edge">
<title>GSK3B_Y216&#45;&gt;GSK3B</title>
<path fill="none" stroke="green" d="M810.48,-217.46C790.35,-206.87 763.59,-192.78 742.32,-181.59"/>
<polygon fill="green" stroke="green" points="743.76,-178.39 733.28,-176.83 740.5,-184.59 743.76,-178.39"/>
</g>
<!-- MAP2K1_S222 -->
<g id="node19" class="node">
<title>MAP2K1_S222</title>
<ellipse fill="lightgray" stroke="black" cx="958" cy="-666" rx="79.09" ry="18"/>
<text text-anchor="middle" x="958" y="-662.3" font-family="Times,serif" font-size="14.00">MAP2K1_S222</text>
</g>
<!-- MAP2K1_S222&#45;&gt;MAP2K1 -->
<g id="edge22" class="edge">
<title>MAP2K1_S222&#45;&gt;MAP2K1</title>
<path fill="none" stroke="green" d="M995.97,-649.98C1024.35,-638.76 1063.16,-623.41 1092.57,-611.78"/>
<polygon fill="green" stroke="green" points="1094.14,-614.92 1102.15,-607.99 1091.56,-608.41 1094.14,-614.92"/>
</g>
<!-- RPS6KA1_S380 -->
<g id="node20" class="node">
<title>RPS6KA1_S380</title>
<ellipse fill="lightgray" stroke="black" cx="497" cy="-378" rx="83.39" ry="18"/>
<text text-anchor="middle" x="497" y="-374.3" font-family="Times,serif" font-size="14.00">RPS6KA1_S380</text>
</g>
<!-- RPS6KA1 -->
<g id="node21" class="node">
<title>RPS6KA1</title>
<ellipse fill="lightgray" stroke="black" cx="497" cy="-306" rx="55.49" ry="18"/>
<text text-anchor="middle" x="497" y="-302.3" font-family="Times,serif" font-size="14.00">RPS6KA1</text>
</g>
<!-- RPS6KA1_S380&#45;&gt;RPS6KA1 -->
<g id="edge23" class="edge">
<title>RPS6KA1_S380&#45;&gt;RPS6KA1</title>
<path fill="none" stroke="green" d="M497,-359.7C497,-351.98 497,-342.71 497,-334.11"/>
<polygon fill="green" stroke="green" points="500.5,-334.1 497,-324.1 493.5,-334.1 500.5,-334.1"/>
</g>
<!-- RPS6KA1&#45;&gt;GSK3B_S9 -->
<g id="edge24" class="edge">
<title>RPS6KA1&#45;&gt;GSK3B_S9</title>
<path fill="none" stroke="red" d="M504.26,-288.05C508.26,-278.74 513.26,-267.07 517.55,-257.04"/>
<polygon fill="red" stroke="red" points="514.61,-251.22 523.8,-255.16 523.01,-257 513.82,-253.06 514.61,-251.22"/>
<polyline fill="none" stroke="red" points="519.6,-252.28 517.63,-256.87 "/>
</g>
<!-- MAPK3 -->
<g id="node23" class="node">
<title>MAPK3</title>
<ellipse fill="lightgray" stroke="black" cx="1132" cy="-450" rx="45.49" ry="18"/>
<text text-anchor="middle" x="1132" y="-446.3" font-family="Times,serif" font-size="14.00">MAPK3</text>
</g>
<!-- MAPK3_T202&#45;&gt;MAPK3 -->
<g id="edge25" class="edge">
<title>MAPK3_T202&#45;&gt;MAPK3</title>
<path fill="none" stroke="green" d="M1134.26,-503.7C1133.93,-495.98 1133.53,-486.71 1133.16,-478.11"/>
<polygon fill="green" stroke="green" points="1136.66,-477.95 1132.73,-468.1 1129.66,-478.25 1136.66,-477.95"/>
</g>
<!-- MAPK3&#45;&gt;GSK3B_T43 -->
<g id="edge27" class="edge">
<title>MAPK3&#45;&gt;GSK3B_T43</title>
<path fill="none" stroke="green" d="M1091.26,-441.71C1023.08,-429.5 885.38,-404.85 804.43,-390.35"/>
<polygon fill="green" stroke="green" points="804.82,-386.87 794.36,-388.55 803.59,-393.76 804.82,-386.87"/>
</g>
<!-- MAPK3&#45;&gt;RPS6KA1_S380 -->
<g id="edge26" class="edge">
<title>MAPK3&#45;&gt;RPS6KA1_S380</title>
<path fill="none" stroke="green" d="M1088.85,-444.24C984.28,-432.72 715.88,-403.13 579.37,-388.08"/>
<polygon fill="green" stroke="green" points="579.7,-384.6 569.38,-386.98 578.93,-391.55 579.7,-384.6"/>
</g>
<!-- MAPK3&#45;&gt;MAPK3_Y204 -->
<g id="edge71" class="edge">
<title>MAPK3&#45;&gt;MAPK3_Y204</title>
<path fill="none" stroke="green" d="M1126.12,-432.05C1125.3,-424.35 1125.06,-415.03 1125.39,-406.36"/>
<polygon fill="green" stroke="green" points="1128.89,-406.49 1126.09,-396.28 1121.91,-406.01 1128.89,-406.49"/>
</g>
<!-- JUN_S63 -->
<g id="node43" class="node">
<title>JUN_S63</title>
<ellipse fill="lightgray" stroke="black" cx="1308" cy="-378" rx="51.99" ry="18"/>
<text text-anchor="middle" x="1308" y="-374.3" font-family="Times,serif" font-size="14.00">JUN_S63</text>
</g>
<!-- MAPK3&#45;&gt;JUN_S63 -->
<g id="edge66" class="edge">
<title>MAPK3&#45;&gt;JUN_S63</title>
<path fill="none" stroke="green" d="M1163.06,-436.65C1191.59,-425.3 1234.11,-408.39 1265.73,-395.81"/>
<polygon fill="green" stroke="green" points="1267.16,-399.01 1275.16,-392.06 1264.58,-392.5 1267.16,-399.01"/>
</g>
<!-- MAP2K1_T292 -->
<g id="node45" class="node">
<title>MAP2K1_T292</title>
<ellipse fill="lightgray" stroke="black" cx="1496" cy="-378" rx="79.09" ry="18"/>
<text text-anchor="middle" x="1496" y="-374.3" font-family="Times,serif" font-size="14.00">MAP2K1_T292</text>
</g>
<!-- MAPK3&#45;&gt;MAP2K1_T292 -->
<g id="edge67" class="edge">
<title>MAPK3&#45;&gt;MAP2K1_T292</title>
<path fill="none" stroke="red" d="M1172,-441.31C1234.85,-429.22 1357.3,-405.67 1432.35,-391.24"/>
<polygon fill="red" stroke="red" points="1435.74,-385.5 1437.63,-395.32 1435.67,-395.69 1433.78,-385.87 1435.74,-385.5"/>
<polyline fill="none" stroke="red" points="1437.67,-390.22 1432.76,-391.16 "/>
</g>
<!-- MAP2K1_T286 -->
<g id="node46" class="node">
<title>MAP2K1_T286</title>
<ellipse fill="lightgray" stroke="black" cx="955" cy="-378" rx="79.09" ry="18"/>
<text text-anchor="middle" x="955" y="-374.3" font-family="Times,serif" font-size="14.00">MAP2K1_T286</text>
</g>
<!-- MAPK3&#45;&gt;MAP2K1_T286 -->
<g id="edge69" class="edge">
<title>MAPK3&#45;&gt;MAP2K1_T286</title>
<path fill="none" stroke="red" d="M1100.76,-436.65C1072.13,-425.32 1029.47,-408.45 997.69,-395.88"/>
<polygon fill="red" stroke="red" points="991.78,-398.92 995.45,-389.62 997.31,-390.36 993.64,-399.66 991.78,-398.92"/>
<polyline fill="none" stroke="red" points="992.69,-393.9 997.34,-395.74 "/>
</g>
<!-- MAPK3_Y204&#45;&gt;MAPK3 -->
<g id="edge28" class="edge">
<title>MAPK3_Y204&#45;&gt;MAPK3</title>
<path fill="none" stroke="green" d="M1137.91,-396.28C1138.71,-404.03 1138.94,-413.36 1138.59,-422.01"/>
<polygon fill="green" stroke="green" points="1135.09,-421.83 1137.88,-432.05 1142.08,-422.33 1135.09,-421.83"/>
</g>
<!-- MAP2K4 -->
<g id="node27" class="node">
<title>MAP2K4</title>
<ellipse fill="lightgray" stroke="black" cx="519" cy="-738" rx="51.19" ry="18"/>
<text text-anchor="middle" x="519" y="-734.3" font-family="Times,serif" font-size="14.00">MAP2K4</text>
</g>
<!-- MAP2K4_S80&#45;&gt;MAP2K4 -->
<g id="edge31" class="edge">
<title>MAP2K4_S80&#45;&gt;MAP2K4</title>
<path fill="none" stroke="red" d="M519,-791.7C519,-782.46 519,-770.98 519,-761.11"/>
<polygon fill="red" stroke="red" points="514,-757.1 524,-757.1 524,-759.1 514,-759.1 514,-757.1"/>
<polyline fill="none" stroke="red" points="519,-756.1 519,-761.1 "/>
</g>
<!-- MAP2K4&#45;&gt;MAPK14_T180 -->
<g id="edge32" class="edge">
<title>MAP2K4&#45;&gt;MAPK14_T180</title>
<path fill="none" stroke="green" d="M551.16,-723.83C577.24,-713.16 614.34,-697.97 643.63,-685.98"/>
<polygon fill="green" stroke="green" points="645.3,-689.08 653.23,-682.05 642.65,-682.6 645.3,-689.08"/>
</g>
<!-- MAP2K4&#45;&gt;MAPK14_Y182 -->
<g id="edge36" class="edge">
<title>MAP2K4&#45;&gt;MAPK14_Y182</title>
<path fill="none" stroke="green" d="M517.52,-719.7C516.86,-711.98 516.06,-702.71 515.32,-694.11"/>
<polygon fill="green" stroke="green" points="518.81,-693.77 514.47,-684.1 511.83,-694.37 518.81,-693.77"/>
</g>
<!-- MAP3K5 -->
<g id="node29" class="node">
<title>MAP3K5</title>
<ellipse fill="lightgray" stroke="black" cx="684" cy="-738" rx="51.19" ry="18"/>
<text text-anchor="middle" x="684" y="-734.3" font-family="Times,serif" font-size="14.00">MAP3K5</text>
</g>
<!-- MAP3K5_S83&#45;&gt;MAP3K5 -->
<g id="edge34" class="edge">
<title>MAP3K5_S83&#45;&gt;MAP3K5</title>
<path fill="none" stroke="darkorange" d="M684,-791.7C684,-783.98 684,-774.71 684,-766.11"/>
<polygon fill="darkorange" stroke="darkorange" points="680,-756.1 688,-756.1 688,-764.1 680,-764.1 680,-756.1"/>
<polyline fill="none" stroke="darkorange" points="684,-764.1 684,-766.1 "/>
</g>
<!-- MAP3K5&#45;&gt;MAPK14_T180 -->
<g id="edge35" class="edge">
<title>MAP3K5&#45;&gt;MAPK14_T180</title>
<path fill="none" stroke="green" d="M685.48,-719.7C686.14,-711.98 686.94,-702.71 687.68,-694.11"/>
<polygon fill="green" stroke="green" points="691.17,-694.37 688.53,-684.1 684.19,-693.77 691.17,-694.37"/>
</g>
<!-- MAP3K5&#45;&gt;MAPK14_Y182 -->
<g id="edge37" class="edge">
<title>MAP3K5&#45;&gt;MAPK14_Y182</title>
<path fill="none" stroke="green" d="M651.84,-723.83C625.76,-713.16 588.66,-697.97 559.37,-685.98"/>
<polygon fill="green" stroke="green" points="560.35,-682.6 549.77,-682.05 557.7,-689.08 560.35,-682.6"/>
</g>
<!-- RAF1 -->
<g id="node31" class="node">
<title>RAF1</title>
<ellipse fill="lightgray" stroke="black" cx="958" cy="-738" rx="36.29" ry="18"/>
<text text-anchor="middle" x="958" y="-734.3" font-family="Times,serif" font-size="14.00">RAF1</text>
</g>
<!-- RAF1_S259&#45;&gt;RAF1 -->
<g id="edge39" class="edge">
<title>RAF1_S259&#45;&gt;RAF1</title>
<path fill="none" stroke="red" d="M866.19,-793.46C885.34,-782.1 911.26,-766.73 930.67,-755.21"/>
<polygon fill="red" stroke="red" points="932.05,-748.58 937.15,-757.18 935.43,-758.2 930.33,-749.6 932.05,-748.58"/>
<polyline fill="none" stroke="red" points="935.46,-752.37 931.16,-754.92 "/>
</g>
<!-- RAF1&#45;&gt;MAP2K1_S218 -->
<g id="edge40" class="edge">
<title>RAF1&#45;&gt;MAP2K1_S218</title>
<path fill="none" stroke="green" d="M985.66,-726.06C1013,-715.25 1055.37,-698.49 1088,-685.59"/>
<polygon fill="green" stroke="green" points="1089.34,-688.82 1097.35,-681.89 1086.77,-682.31 1089.34,-688.82"/>
</g>
<!-- RAF1&#45;&gt;MAP2K1_S222 -->
<g id="edge46" class="edge">
<title>RAF1&#45;&gt;MAP2K1_S222</title>
<path fill="none" stroke="green" d="M958,-719.7C958,-711.98 958,-702.71 958,-694.11"/>
<polygon fill="green" stroke="green" points="961.5,-694.1 958,-684.1 954.5,-694.1 961.5,-694.1"/>
</g>
<!-- BRAF -->
<g id="node33" class="node">
<title>BRAF</title>
<ellipse fill="lightgray" stroke="black" cx="1092" cy="-738" rx="37.09" ry="18"/>
<text text-anchor="middle" x="1092" y="-734.3" font-family="Times,serif" font-size="14.00">BRAF</text>
</g>
<!-- BRAF_S429&#45;&gt;BRAF -->
<g id="edge42" class="edge">
<title>BRAF_S429&#45;&gt;BRAF</title>
<path fill="none" stroke="red" d="M1011.6,-793.12C1028.06,-782.03 1050.01,-767.26 1066.81,-755.96"/>
<polygon fill="red" stroke="red" points="1067.34,-749.57 1072.93,-757.87 1071.27,-758.98 1065.68,-750.69 1067.34,-749.57"/>
<polyline fill="none" stroke="red" points="1070.96,-753.16 1066.82,-755.95 "/>
</g>
<!-- BRAF&#45;&gt;MAP2K1_S218 -->
<g id="edge43" class="edge">
<title>BRAF&#45;&gt;MAP2K1_S218</title>
<path fill="none" stroke="green" d="M1102.19,-720.41C1107.31,-712.08 1113.62,-701.8 1119.34,-692.49"/>
<polygon fill="green" stroke="green" points="1122.33,-694.31 1124.58,-683.96 1116.37,-690.65 1122.33,-694.31"/>
</g>
<!-- BRAF&#45;&gt;MAP2K1_S222 -->
<g id="edge47" class="edge">
<title>BRAF&#45;&gt;MAP2K1_S222</title>
<path fill="none" stroke="green" d="M1067.73,-724.32C1048.11,-714.07 1020.1,-699.44 997.29,-687.52"/>
<polygon fill="green" stroke="green" points="998.68,-684.3 988.19,-682.77 995.44,-690.5 998.68,-684.3"/>
</g>
<!-- BRAF_S365&#45;&gt;BRAF -->
<g id="edge45" class="edge">
<title>BRAF_S365&#45;&gt;BRAF</title>
<path fill="none" stroke="red" d="M1126.11,-792.05C1119.82,-782.28 1111.88,-769.93 1105.24,-759.6"/>
<polygon fill="red" stroke="red" points="1098.82,-758.85 1107.23,-753.44 1108.31,-755.13 1099.9,-760.53 1098.82,-758.85"/>
<polyline fill="none" stroke="red" points="1102.48,-755.31 1105.19,-759.51 "/>
</g>
<!-- MAPKAPK2 -->
<g id="node36" class="node">
<title>MAPKAPK2</title>
<ellipse fill="lightgray" stroke="black" cx="326" cy="-450" rx="64.99" ry="18"/>
<text text-anchor="middle" x="326" y="-446.3" font-family="Times,serif" font-size="14.00">MAPKAPK2</text>
</g>
<!-- MAPKAPK2_T222&#45;&gt;MAPKAPK2 -->
<g id="edge50" class="edge">
<title>MAPKAPK2_T222&#45;&gt;MAPKAPK2</title>
<path fill="none" stroke="green" d="M485.45,-505.98C452.9,-494.76 408.39,-479.41 374.66,-467.78"/>
<polygon fill="green" stroke="green" points="375.61,-464.4 365.02,-464.45 373.33,-471.02 375.61,-464.4"/>
</g>
<!-- MAPKAPK2&#45;&gt;RPS6KA1_S380 -->
<g id="edge56" class="edge">
<title>MAPKAPK2&#45;&gt;RPS6KA1_S380</title>
<path fill="none" stroke="green" d="M361.02,-434.67C386.91,-424.06 422.44,-409.52 450.68,-397.96"/>
<polygon fill="green" stroke="green" points="452.03,-401.19 459.96,-394.16 449.38,-394.71 452.03,-401.19"/>
</g>
<!-- HSPB1_S78 -->
<g id="node37" class="node">
<title>HSPB1_S78</title>
<ellipse fill="lightgray" stroke="black" cx="326" cy="-378" rx="66.09" ry="18"/>
<text text-anchor="middle" x="326" y="-374.3" font-family="Times,serif" font-size="14.00">HSPB1_S78</text>
</g>
<!-- MAPKAPK2&#45;&gt;HSPB1_S78 -->
<g id="edge51" class="edge">
<title>MAPKAPK2&#45;&gt;HSPB1_S78</title>
<path fill="none" stroke="green" d="M326,-431.7C326,-423.98 326,-414.71 326,-406.11"/>
<polygon fill="green" stroke="green" points="329.5,-406.1 326,-396.1 322.5,-406.1 329.5,-406.1"/>
</g>
<!-- MAPKAPK2_S272&#45;&gt;MAPKAPK2 -->
<g id="edge53" class="edge">
<title>MAPKAPK2_S272&#45;&gt;MAPKAPK2</title>
<path fill="none" stroke="green" d="M164.73,-506.07C197.69,-494.81 242.9,-479.37 277.07,-467.71"/>
<polygon fill="green" stroke="green" points="278.51,-470.91 286.84,-464.37 276.25,-464.29 278.51,-470.91"/>
</g>
<!-- MAPKAPK2_T334&#45;&gt;MAPKAPK2 -->
<g id="edge55" class="edge">
<title>MAPKAPK2_T334&#45;&gt;MAPKAPK2</title>
<path fill="none" stroke="green" d="M325.25,-503.7C325.36,-495.98 325.49,-486.71 325.61,-478.11"/>
<polygon fill="green" stroke="green" points="329.11,-478.15 325.76,-468.1 322.11,-478.05 329.11,-478.15"/>
</g>
<!-- MAPK3_T207&#45;&gt;MAPK3 -->
<g id="edge60" class="edge">
<title>MAPK3_T207&#45;&gt;MAPK3</title>
<path fill="none" stroke="red" d="M1004.75,-505.98C1032.26,-494.1 1070.47,-477.59 1097.83,-465.77"/>
<polygon fill="red" stroke="red" points="1099.56,-459.57 1103.53,-468.75 1101.69,-469.54 1097.73,-460.36 1099.56,-459.57"/>
<polyline fill="none" stroke="red" points="1102.46,-463.76 1097.87,-465.75 "/>
</g>
<!-- MAPK1 -->
<g id="node42" class="node">
<title>MAPK1</title>
<ellipse fill="lightgray" stroke="black" cx="1337" cy="-450" rx="45.49" ry="18"/>
<text text-anchor="middle" x="1337" y="-446.3" font-family="Times,serif" font-size="14.00">MAPK1</text>
</g>
<!-- MAPK1_T185&#45;&gt;MAPK1 -->
<g id="edge62" class="edge">
<title>MAPK1_T185&#45;&gt;MAPK1</title>
<path fill="none" stroke="green" d="M1467.01,-506.15C1440.44,-494.88 1403.89,-479.38 1376.31,-467.68"/>
<polygon fill="green" stroke="green" points="1377.54,-464.4 1366.96,-463.71 1374.8,-470.84 1377.54,-464.4"/>
</g>
<!-- MAPK1&#45;&gt;JUN_S63 -->
<g id="edge63" class="edge">
<title>MAPK1&#45;&gt;JUN_S63</title>
<path fill="none" stroke="green" d="M1329.98,-432.05C1326.72,-424.18 1322.76,-414.62 1319.1,-405.79"/>
<polygon fill="green" stroke="green" points="1322.22,-404.17 1315.16,-396.28 1315.75,-406.85 1322.22,-404.17"/>
</g>
<!-- MAPK1_Y187&#45;&gt;MAPK1 -->
<g id="edge65" class="edge">
<title>MAPK1_Y187&#45;&gt;MAPK1</title>
<path fill="none" stroke="green" d="M1337,-503.7C1337,-495.98 1337,-486.71 1337,-478.11"/>
<polygon fill="green" stroke="green" points="1340.5,-478.1 1337,-468.1 1333.5,-478.1 1340.5,-478.1"/>
</g>
<!-- MAP2K1_T292&#45;&gt;MAP2K1 -->
<g id="edge68" class="edge">
<title>MAP2K1_T292&#45;&gt;MAP2K1</title>
<path fill="none" stroke="red" d="M1517.37,-395.59C1554.82,-426.58 1624.63,-494.29 1584,-540 1558.28,-568.94 1305.46,-584.75 1190.91,-590.48"/>
<polygon fill="red" stroke="red" points="1187.14,-595.68 1186.64,-585.69 1188.64,-585.59 1189.14,-595.58 1187.14,-595.68"/>
<polyline fill="none" stroke="red" points="1185.89,-590.73 1190.89,-590.48 "/>
</g>
<!-- MAP2K1_T286&#45;&gt;MAP2K1 -->
<g id="edge70" class="edge">
<title>MAP2K1_T286&#45;&gt;MAP2K1</title>
<path fill="none" stroke="red" d="M937.68,-395.68C907.42,-426.83 851.46,-494.79 888,-540 911.68,-569.3 1014.79,-583.14 1080.07,-589.08"/>
<polygon fill="red" stroke="red" points="1084.54,-584.46 1083.66,-594.42 1081.66,-594.24 1082.55,-584.28 1084.54,-584.46"/>
<polyline fill="none" stroke="red" points="1085.1,-589.53 1080.12,-589.08 "/>
</g>
</g>
</svg>
