<?xml version="1.0" encoding="UTF-8" standalone="no"?>
<!DOCTYPE svg PUBLIC "-//W3C//DTD SVG 1.1//EN"
 "http://www.w3.org/Graphics/SVG/1.1/DTD/svg11.dtd">
<!-- Generated by graphviz version 2.43.0 (0)
 -->
<!-- Title: %3 Pages: 1 -->
<svg width="422pt" height="116pt"
 viewBox="0.00 0.00 421.69 116.00" xmlns="http://www.w3.org/2000/svg" xmlns:xlink="http://www.w3.org/1999/xlink">
<g id="graph0" class="graph" transform="scale(1 1) rotate(0) translate(4 112)">
<title>%3</title>
<polygon fill="white" stroke="transparent" points="-4,4 -4,-112 417.69,-112 417.69,4 -4,4"/>
<!-- GSK3B -->
<g id="node1" class="node">
<title>GSK3B</title>
<ellipse fill="none" stroke="black" cx="44.2" cy="-90" rx="44.39" ry="18"/>
<text text-anchor="middle" x="44.2" y="-86.3" font-family="Times,serif" font-size="14.00">GSK3B</text>
</g>
<!-- CCND1 -->
<g id="node2" class="node">
<title>CCND1</title>
<ellipse fill="lightgray" stroke="black" cx="218.2" cy="-18" rx="45.49" ry="18"/>
<text text-anchor="middle" x="218.2" y="-14.3" font-family="Times,serif" font-size="14.00">CCND1</text>
</g>
<!-- GSK3B&#45;&gt;CCND1 -->
<g id="edge1" class="edge">
<title>GSK3B&#45;&gt;CCND1</title>
<path fill="none" stroke="red" d="M74.5,-76.81C104.54,-64.72 150.55,-46.21 182.38,-33.41"/>
<polygon fill="red" stroke="red" points="184.56,-27.14 188.3,-36.42 186.44,-37.16 182.71,-27.89 184.56,-27.14"/>
<polyline fill="none" stroke="red" points="187.36,-31.41 182.72,-33.27 "/>
</g>
<!-- CTNNB1 -->
<g id="node3" class="node">
<title>CTNNB1</title>
<ellipse fill="none" stroke="black" cx="158.2" cy="-90" rx="51.99" ry="18"/>
<text text-anchor="middle" x="158.2" y="-86.3" font-family="Times,serif" font-size="14.00">CTNNB1</text>
</g>
<!-- CTNNB1&#45;&gt;CCND1 -->
<g id="edge2" class="edge">
<title>CTNNB1&#45;&gt;CCND1</title>
<path fill="none" stroke="green" d="M172.42,-72.41C179.89,-63.69 189.19,-52.85 197.45,-43.21"/>
<polygon fill="green" stroke="green" points="200.23,-45.34 204.08,-35.47 194.91,-40.78 200.23,-45.34"/>
</g>
<!-- MAPK14 -->
<g id="node4" class="node">
<title>MAPK14</title>
<ellipse fill="none" stroke="black" cx="279.2" cy="-90" rx="51.19" ry="18"/>
<text text-anchor="middle" x="279.2" y="-86.3" font-family="Times,serif" font-size="14.00">MAPK14</text>
</g>
<!-- MAPK14&#45;&gt;CCND1 -->
<g id="edge3" class="edge">
<title>MAPK14&#45;&gt;CCND1</title>
<path fill="none" stroke="red" d="M264.74,-72.41C256.08,-62.47 245.01,-49.77 235.83,-39.24"/>
<polygon fill="red" stroke="red" points="229.44,-39.51 236.98,-32.94 238.29,-34.45 230.75,-41.02 229.44,-39.51"/>
<polyline fill="none" stroke="red" points="232.55,-35.47 235.83,-39.24 "/>
</g>
<!-- MYC -->
<g id="node5" class="node">
<title>MYC</title>
<ellipse fill="none" stroke="black" cx="381.2" cy="-90" rx="32.49" ry="18"/>
<text text-anchor="middle" x="381.2" y="-86.3" font-family="Times,serif" font-size="14.00">MYC</text>
</g>
<!-- MYC&#45;&gt;CCND1 -->
<g id="edge4" class="edge">
<title>MYC&#45;&gt;CCND1</title>
<path fill="none" stroke="green" d="M356.08,-78.22C329.73,-66.9 287.96,-48.96 257.29,-35.79"/>
<polygon fill="green" stroke="green" points="258.33,-32.42 247.76,-31.69 255.56,-38.86 258.33,-32.42"/>
</g>
</g>
</svg>
