<?xml version="1.0" encoding="UTF-8" standalone="no"?>
<!DOCTYPE svg PUBLIC "-//W3C//DTD SVG 1.1//EN"
 "http://www.w3.org/Graphics/SVG/1.1/DTD/svg11.dtd">
<!-- Generated by graphviz version 2.43.0 (0)
 -->
<!-- Title: %3 Pages: 1 -->
<svg width="705pt" height="188pt"
 viewBox="0.00 0.00 704.74 188.00" xmlns="http://www.w3.org/2000/svg" xmlns:xlink="http://www.w3.org/1999/xlink">
<g id="graph0" class="graph" transform="scale(1 1) rotate(0) translate(4 184)">
<title>%3</title>
<polygon fill="white" stroke="transparent" points="-4,4 -4,-184 700.74,-184 700.74,4 -4,4"/>
<!-- SRC -->
<g id="node1" class="node">
<title>SRC</title>
<ellipse fill="lightgray" stroke="black" cx="51.8" cy="-162" rx="30.59" ry="18"/>
<text text-anchor="middle" x="51.8" y="-158.3" font-family="Times,serif" font-size="14.00">SRC</text>
</g>
<!-- PTK2 -->
<g id="node2" class="node">
<title>PTK2</title>
<ellipse fill="lightgray" stroke="black" cx="67.8" cy="-18" rx="36" ry="18"/>
<text text-anchor="middle" x="67.8" y="-14.3" font-family="Times,serif" font-size="14.00">PTK2</text>
</g>
<!-- SRC&#45;&gt;PTK2 -->
<g id="edge1" class="edge">
<title>SRC&#45;&gt;PTK2</title>
<path fill="none" stroke="green" d="M33.93,-146.86C23.25,-137.21 10.64,-123.41 4.8,-108 -0.88,-93.04 -1.96,-86.51 4.8,-72 11.35,-57.92 23.68,-46.25 35.72,-37.47"/>
<polygon fill="green" stroke="green" points="38.04,-40.13 44.34,-31.6 34.1,-34.34 38.04,-40.13"/>
</g>
<!-- CDH2 -->
<g id="node3" class="node">
<title>CDH2</title>
<ellipse fill="lightgray" stroke="black" cx="51.8" cy="-90" rx="38.19" ry="18"/>
<text text-anchor="middle" x="51.8" y="-86.3" font-family="Times,serif" font-size="14.00">CDH2</text>
</g>
<!-- SRC&#45;&gt;CDH2 -->
<g id="edge2" class="edge">
<title>SRC&#45;&gt;CDH2</title>
<path fill="none" stroke="red" d="M51.8,-143.7C51.8,-134.46 51.8,-122.98 51.8,-113.11"/>
<polygon fill="red" stroke="red" points="46.8,-109.1 56.8,-109.1 56.8,-111.1 46.8,-111.1 46.8,-109.1"/>
<polyline fill="none" stroke="red" points="51.8,-108.1 51.8,-113.1 "/>
</g>
<!-- PTK2B -->
<g id="node4" class="node">
<title>PTK2B</title>
<ellipse fill="lightgray" stroke="black" cx="150.8" cy="-90" rx="42.49" ry="18"/>
<text text-anchor="middle" x="150.8" y="-86.3" font-family="Times,serif" font-size="14.00">PTK2B</text>
</g>
<!-- SRC&#45;&gt;PTK2B -->
<g id="edge3" class="edge">
<title>SRC&#45;&gt;PTK2B</title>
<path fill="none" stroke="green" d="M70.88,-147.5C85.24,-137.35 105.16,-123.27 121.53,-111.7"/>
<polygon fill="green" stroke="green" points="123.56,-114.54 129.71,-105.91 119.52,-108.83 123.56,-114.54"/>
</g>
<!-- PTK2B&#45;&gt;PTK2 -->
<g id="edge4" class="edge">
<title>PTK2B&#45;&gt;PTK2</title>
<path fill="none" stroke="green" d="M132.38,-73.46C120.86,-63.75 105.86,-51.1 93.22,-40.44"/>
<polygon fill="green" stroke="green" points="95.21,-37.54 85.31,-33.77 90.7,-42.9 95.21,-37.54"/>
</g>
<!-- NOTCH1 -->
<g id="node5" class="node">
<title>NOTCH1</title>
<ellipse fill="lightgray" stroke="black" cx="152.8" cy="-162" rx="51.99" ry="18"/>
<text text-anchor="middle" x="152.8" y="-158.3" font-family="Times,serif" font-size="14.00">NOTCH1</text>
</g>
<!-- CDH1 -->
<g id="node6" class="node">
<title>CDH1</title>
<ellipse fill="lightgray" stroke="black" cx="260.8" cy="-162" rx="38.19" ry="18"/>
<text text-anchor="middle" x="260.8" y="-158.3" font-family="Times,serif" font-size="14.00">CDH1</text>
</g>
<!-- VIM -->
<g id="node7" class="node">
<title>VIM</title>
<ellipse fill="lightgray" stroke="black" cx="346.8" cy="-162" rx="29.8" ry="18"/>
<text text-anchor="middle" x="346.8" y="-158.3" font-family="Times,serif" font-size="14.00">VIM</text>
</g>
<!-- MAP4K4 -->
<g id="node8" class="node">
<title>MAP4K4</title>
<ellipse fill="lightgray" stroke="black" cx="445.8" cy="-162" rx="51.19" ry="18"/>
<text text-anchor="middle" x="445.8" y="-158.3" font-family="Times,serif" font-size="14.00">MAP4K4</text>
</g>
<!-- LATS1 -->
<g id="node9" class="node">
<title>LATS1</title>
<ellipse fill="lightgray" stroke="black" cx="555.8" cy="-162" rx="40.89" ry="18"/>
<text text-anchor="middle" x="555.8" y="-158.3" font-family="Times,serif" font-size="14.00">LATS1</text>
</g>
<!-- LATS2 -->
<g id="node10" class="node">
<title>LATS2</title>
<ellipse fill="lightgray" stroke="black" cx="655.8" cy="-162" rx="40.89" ry="18"/>
<text text-anchor="middle" x="655.8" y="-158.3" font-family="Times,serif" font-size="14.00">LATS2</text>
</g>
</g>
</svg>
