<?xml version="1.0" encoding="UTF-8" standalone="no"?>
<!DOCTYPE svg PUBLIC "-//W3C//DTD SVG 1.1//EN"
 "http://www.w3.org/Graphics/SVG/1.1/DTD/svg11.dtd">
<!-- Generated by graphviz version 2.43.0 (0)
 -->
<!-- Title: %3 Pages: 1 -->
<svg width="1596pt" height="1196pt"
 viewBox="0.00 0.00 1596.14 1196.00" xmlns="http://www.w3.org/2000/svg" xmlns:xlink="http://www.w3.org/1999/xlink">
<g id="graph0" class="graph" transform="scale(1 1) rotate(0) translate(4 1192)">
<title>%3</title>
<polygon fill="white" stroke="transparent" points="-4,4 -4,-1192 1592.14,-1192 1592.14,4 -4,4"/>
<!-- GSK3B_S9 -->
<g id="node1" class="node">
<title>GSK3B_S9</title>
<ellipse fill="lightgray" stroke="black" cx="1527.69" cy="-1170" rx="60.39" ry="18"/>
<text text-anchor="middle" x="1527.69" y="-1166.3" font-family="Times,serif" font-size="14.00">GSK3B_S9</text>
</g>
<!-- GSK3B -->
<g id="node2" class="node">
<title>GSK3B</title>
<ellipse fill="lightgray" stroke="black" cx="1320.69" cy="-1098" rx="44.39" ry="18"/>
<text text-anchor="middle" x="1320.69" y="-1094.3" font-family="Times,serif" font-size="14.00">GSK3B</text>
</g>
<!-- GSK3B_S9&#45;&gt;GSK3B -->
<g id="edge1" class="edge">
<title>GSK3B_S9&#45;&gt;GSK3B</title>
<path fill="none" stroke="red" d="M1489.24,-1156C1451.87,-1143.36 1395.47,-1124.29 1358.36,-1111.74"/>
<polygon fill="red" stroke="red" points="1352.83,-1115.15 1356.03,-1105.67 1357.93,-1106.31 1354.73,-1115.79 1352.83,-1115.15"/>
<polyline fill="none" stroke="red" points="1353.49,-1110.09 1358.22,-1111.69 "/>
</g>
<!-- TBK1_S172 -->
<g id="node3" class="node">
<title>TBK1_S172</title>
<ellipse fill="lightgray" stroke="black" cx="641.69" cy="-1026" rx="64.19" ry="18"/>
<text text-anchor="middle" x="641.69" y="-1022.3" font-family="Times,serif" font-size="14.00">TBK1_S172</text>
</g>
<!-- GSK3B&#45;&gt;TBK1_S172 -->
<g id="edge2" class="edge">
<title>GSK3B&#45;&gt;TBK1_S172</title>
<path fill="none" stroke="green" d="M1278.48,-1092.65C1164.78,-1080.93 851.28,-1048.61 711.06,-1034.15"/>
<polygon fill="green" stroke="green" points="711.17,-1030.64 700.86,-1033.1 710.45,-1037.61 711.17,-1030.64"/>
</g>
<!-- SRC_S51 -->
<g id="node30" class="node">
<title>SRC_S51</title>
<ellipse fill="lightgray" stroke="black" cx="1049.69" cy="-1026" rx="53.09" ry="18"/>
<text text-anchor="middle" x="1049.69" y="-1022.3" font-family="Times,serif" font-size="14.00">SRC_S51</text>
</g>
<!-- GSK3B&#45;&gt;SRC_S51 -->
<g id="edge31" class="edge">
<title>GSK3B&#45;&gt;SRC_S51</title>
<path fill="none" stroke="purple" d="M1284.43,-1087.63C1237.63,-1075.54 1155.88,-1054.43 1102.27,-1040.58"/>
<polygon fill="purple" stroke="purple" points="1102.23,-1040.57 1095.42,-1042.94 1090.61,-1037.57 1097.42,-1035.2 1102.23,-1040.57"/>
</g>
<!-- MAP3K11_S789 -->
<g id="node40" class="node">
<title>MAP3K11_S789</title>
<ellipse fill="lightgray" stroke="black" cx="1376.69" cy="-1026" rx="85.29" ry="18"/>
<text text-anchor="middle" x="1376.69" y="-1022.3" font-family="Times,serif" font-size="14.00">MAP3K11_S789</text>
</g>
<!-- GSK3B&#45;&gt;MAP3K11_S789 -->
<g id="edge41" class="edge">
<title>GSK3B&#45;&gt;MAP3K11_S789</title>
<path fill="none" stroke="green" d="M1333.68,-1080.76C1340.48,-1072.27 1348.95,-1061.68 1356.58,-1052.15"/>
<polygon fill="green" stroke="green" points="1359.48,-1054.12 1363,-1044.12 1354.02,-1049.75 1359.48,-1054.12"/>
</g>
<!-- TBK1 -->
<g id="node4" class="node">
<title>TBK1</title>
<ellipse fill="lightgray" stroke="black" cx="206.69" cy="-810" rx="36.29" ry="18"/>
<text text-anchor="middle" x="206.69" y="-806.3" font-family="Times,serif" font-size="14.00">TBK1</text>
</g>
<!-- TBK1_S172&#45;&gt;TBK1 -->
<g id="edge3" class="edge">
<title>TBK1_S172&#45;&gt;TBK1</title>
<path fill="none" stroke="green" d="M611.11,-1009.95C532.5,-971.28 323.81,-868.62 241.13,-827.94"/>
<polygon fill="green" stroke="green" points="242.21,-824.57 231.69,-823.3 239.12,-830.85 242.21,-824.57"/>
</g>
<!-- AKT1_T308 -->
<g id="node5" class="node">
<title>AKT1_T308</title>
<ellipse fill="lightgray" stroke="black" cx="63.69" cy="-378" rx="63.89" ry="18"/>
<text text-anchor="middle" x="63.69" y="-374.3" font-family="Times,serif" font-size="14.00">AKT1_T308</text>
</g>
<!-- TBK1&#45;&gt;AKT1_T308 -->
<g id="edge4" class="edge">
<title>TBK1&#45;&gt;AKT1_T308</title>
<path fill="none" stroke="green" d="M184.33,-795.52C150.62,-773.3 90.69,-725.57 90.69,-667 90.69,-667 90.69,-667 90.69,-521 90.69,-480.5 79.96,-434.63 72.03,-406.26"/>
<polygon fill="green" stroke="green" points="75.29,-404.93 69.16,-396.29 68.57,-406.87 75.29,-404.93"/>
</g>
<!-- AKT1_S473 -->
<g id="node8" class="node">
<title>AKT1_S473</title>
<ellipse fill="lightgray" stroke="black" cx="252.69" cy="-162" rx="63.89" ry="18"/>
<text text-anchor="middle" x="252.69" y="-158.3" font-family="Times,serif" font-size="14.00">AKT1_S473</text>
</g>
<!-- TBK1&#45;&gt;AKT1_S473 -->
<g id="edge30" class="edge">
<title>TBK1&#45;&gt;AKT1_S473</title>
<path fill="none" stroke="purple" d="M194.81,-792.56C188.01,-782.46 179.84,-768.99 174.69,-756 159.81,-718.39 155.69,-707.45 155.69,-667 155.69,-667 155.69,-667 155.69,-449 155.69,-355.63 200.29,-340.95 228.69,-252 235.04,-232.13 241.15,-209.42 245.61,-191.91"/>
<polygon fill="purple" stroke="purple" points="245.63,-191.84 243.21,-185.04 248.55,-180.2 250.97,-186.99 245.63,-191.84"/>
</g>
<!-- MTOR_S2159 -->
<g id="node48" class="node">
<title>MTOR_S2159</title>
<ellipse fill="lightgray" stroke="black" cx="257.69" cy="-738" rx="74.19" ry="18"/>
<text text-anchor="middle" x="257.69" y="-734.3" font-family="Times,serif" font-size="14.00">MTOR_S2159</text>
</g>
<!-- TBK1&#45;&gt;MTOR_S2159 -->
<g id="edge55" class="edge">
<title>TBK1&#45;&gt;MTOR_S2159</title>
<path fill="none" stroke="green" d="M218.52,-792.76C224.65,-784.35 232.27,-773.89 239.16,-764.44"/>
<polygon fill="green" stroke="green" points="242.16,-766.27 245.22,-756.12 236.5,-762.15 242.16,-766.27"/>
</g>
<!-- AKT1 -->
<g id="node6" class="node">
<title>AKT1</title>
<ellipse fill="lightgray" stroke="black" cx="252.69" cy="-90" rx="36" ry="18"/>
<text text-anchor="middle" x="252.69" y="-86.3" font-family="Times,serif" font-size="14.00">AKT1</text>
</g>
<!-- AKT1_T308&#45;&gt;AKT1 -->
<g id="edge5" class="edge">
<title>AKT1_T308&#45;&gt;AKT1</title>
<path fill="none" stroke="green" d="M61.99,-359.91C59.71,-329.25 58.41,-263.64 82.69,-216 110.57,-161.31 174.79,-124.66 215.83,-105.87"/>
<polygon fill="green" stroke="green" points="217.51,-108.95 225.22,-101.69 214.66,-102.55 217.51,-108.95"/>
</g>
<!-- AKT1&#45;&gt;GSK3B_S9 -->
<g id="edge29" class="edge">
<title>AKT1&#45;&gt;GSK3B_S9</title>
<path fill="none" stroke="red" d="M288.67,-90.87C453.11,-90.56 1133.97,-92.47 1339.69,-144 1429.37,-166.46 1527.69,-140.55 1527.69,-233 1527.69,-1027 1527.69,-1027 1527.69,-1027 1527.69,-1069.29 1527.69,-1118.68 1527.69,-1146.65"/>
<polygon fill="red" stroke="red" points="1532.69,-1150.95 1522.69,-1150.95 1522.69,-1148.95 1532.69,-1148.95 1532.69,-1150.95"/>
<polyline fill="none" stroke="red" points="1527.69,-1151.95 1527.69,-1146.95 "/>
</g>
<!-- AKT1S1_T246 -->
<g id="node7" class="node">
<title>AKT1S1_T246</title>
<ellipse fill="lightgray" stroke="black" cx="252.69" cy="-18" rx="75.29" ry="18"/>
<text text-anchor="middle" x="252.69" y="-14.3" font-family="Times,serif" font-size="14.00">AKT1S1_T246</text>
</g>
<!-- AKT1&#45;&gt;AKT1S1_T246 -->
<g id="edge6" class="edge">
<title>AKT1&#45;&gt;AKT1S1_T246</title>
<path fill="none" stroke="purple" d="M252.69,-71.7C252.69,-64.58 252.69,-56.13 252.69,-48.11"/>
<polygon fill="purple" stroke="purple" points="252.69,-48.1 248.69,-42.1 252.69,-36.1 256.69,-42.1 252.69,-48.1"/>
</g>
<!-- AKT1_S473&#45;&gt;AKT1 -->
<g id="edge7" class="edge">
<title>AKT1_S473&#45;&gt;AKT1</title>
<path fill="none" stroke="purple" d="M252.69,-143.7C252.69,-136.58 252.69,-128.13 252.69,-120.11"/>
<polygon fill="purple" stroke="purple" points="252.69,-120.1 248.69,-114.1 252.69,-108.1 256.69,-114.1 252.69,-120.1"/>
</g>
<!-- MAPK14_T180 -->
<g id="node9" class="node">
<title>MAPK14_T180</title>
<ellipse fill="lightgray" stroke="black" cx="1382.69" cy="-450" rx="79.09" ry="18"/>
<text text-anchor="middle" x="1382.69" y="-446.3" font-family="Times,serif" font-size="14.00">MAPK14_T180</text>
</g>
<!-- MAPK14 -->
<g id="node10" class="node">
<title>MAPK14</title>
<ellipse fill="lightgray" stroke="black" cx="1130.69" cy="-378" rx="51.19" ry="18"/>
<text text-anchor="middle" x="1130.69" y="-374.3" font-family="Times,serif" font-size="14.00">MAPK14</text>
</g>
<!-- MAPK14_T180&#45;&gt;MAPK14 -->
<g id="edge8" class="edge">
<title>MAPK14_T180&#45;&gt;MAPK14</title>
<path fill="none" stroke="green" d="M1334.7,-435.67C1290.23,-423.31 1224.37,-405.02 1179.61,-392.59"/>
<polygon fill="green" stroke="green" points="1180.4,-389.17 1169.83,-389.87 1178.53,-395.92 1180.4,-389.17"/>
</g>
<!-- MAPKAPK2_S272 -->
<g id="node11" class="node">
<title>MAPKAPK2_S272</title>
<ellipse fill="lightgray" stroke="black" cx="559.69" cy="-306" rx="92.88" ry="18"/>
<text text-anchor="middle" x="559.69" y="-302.3" font-family="Times,serif" font-size="14.00">MAPKAPK2_S272</text>
</g>
<!-- MAPK14&#45;&gt;MAPKAPK2_S272 -->
<g id="edge9" class="edge">
<title>MAPK14&#45;&gt;MAPKAPK2_S272</title>
<path fill="none" stroke="green" d="M1082.65,-371.6C965.15,-358.4 672.07,-325.45 661.69,-324 653.45,-322.85 644.85,-321.56 636.29,-320.21"/>
<polygon fill="green" stroke="green" points="636.71,-316.73 626.28,-318.62 635.6,-323.65 636.71,-316.73"/>
</g>
<!-- GSK3B_T390 -->
<g id="node58" class="node">
<title>GSK3B_T390</title>
<ellipse fill="lightgray" stroke="black" cx="1139.69" cy="-306" rx="71.49" ry="18"/>
<text text-anchor="middle" x="1139.69" y="-302.3" font-family="Times,serif" font-size="14.00">GSK3B_T390</text>
</g>
<!-- MAPK14&#45;&gt;GSK3B_T390 -->
<g id="edge72" class="edge">
<title>MAPK14&#45;&gt;GSK3B_T390</title>
<path fill="none" stroke="green" d="M1132.92,-359.7C1133.91,-351.98 1135.1,-342.71 1136.21,-334.11"/>
<polygon fill="green" stroke="green" points="1139.69,-334.47 1137.5,-324.1 1132.75,-333.58 1139.69,-334.47"/>
</g>
<!-- MAPKAPK2 -->
<g id="node12" class="node">
<title>MAPKAPK2</title>
<ellipse fill="lightgray" stroke="black" cx="559.69" cy="-234" rx="64.19" ry="18"/>
<text text-anchor="middle" x="559.69" y="-230.3" font-family="Times,serif" font-size="14.00">MAPKAPK2</text>
</g>
<!-- MAPKAPK2_S272&#45;&gt;MAPKAPK2 -->
<g id="edge10" class="edge">
<title>MAPKAPK2_S272&#45;&gt;MAPKAPK2</title>
<path fill="none" stroke="green" d="M559.69,-287.7C559.69,-279.98 559.69,-270.71 559.69,-262.11"/>
<polygon fill="green" stroke="green" points="563.19,-262.1 559.69,-252.1 556.19,-262.1 563.19,-262.1"/>
</g>
<!-- MAPKAPK2&#45;&gt;AKT1_S473 -->
<g id="edge11" class="edge">
<title>MAPKAPK2&#45;&gt;AKT1_S473</title>
<path fill="none" stroke="purple" d="M511.39,-221.99C457.63,-209.73 370.71,-189.91 312.65,-176.67"/>
<polygon fill="purple" stroke="purple" points="312.42,-176.62 305.68,-179.18 300.72,-173.95 307.46,-171.38 312.42,-176.62"/>
</g>
<!-- RPS6KA1_S380 -->
<g id="node19" class="node">
<title>RPS6KA1_S380</title>
<ellipse fill="lightgray" stroke="black" cx="1247.69" cy="-162" rx="83.39" ry="18"/>
<text text-anchor="middle" x="1247.69" y="-158.3" font-family="Times,serif" font-size="14.00">RPS6KA1_S380</text>
</g>
<!-- MAPKAPK2&#45;&gt;RPS6KA1_S380 -->
<g id="edge76" class="edge">
<title>MAPKAPK2&#45;&gt;RPS6KA1_S380</title>
<path fill="none" stroke="green" d="M618.95,-226.97C741.45,-214.51 1022.91,-185.87 1163.94,-171.52"/>
<polygon fill="green" stroke="green" points="1164.67,-174.97 1174.26,-170.47 1163.96,-168 1164.67,-174.97"/>
</g>
<!-- HSPB1_S78 -->
<g id="node36" class="node">
<title>HSPB1_S78</title>
<ellipse fill="lightgray" stroke="black" cx="622.69" cy="-162" rx="66.09" ry="18"/>
<text text-anchor="middle" x="622.69" y="-158.3" font-family="Times,serif" font-size="14.00">HSPB1_S78</text>
</g>
<!-- MAPKAPK2&#45;&gt;HSPB1_S78 -->
<g id="edge62" class="edge">
<title>MAPKAPK2&#45;&gt;HSPB1_S78</title>
<path fill="none" stroke="green" d="M574.62,-216.41C582.36,-207.82 591.95,-197.16 600.53,-187.63"/>
<polygon fill="green" stroke="green" points="603.35,-189.73 607.43,-179.96 598.14,-185.05 603.35,-189.73"/>
</g>
<!-- HSPB1_S82 -->
<g id="node39" class="node">
<title>HSPB1_S82</title>
<ellipse fill="lightgray" stroke="black" cx="468.69" cy="-162" rx="66.09" ry="18"/>
<text text-anchor="middle" x="468.69" y="-158.3" font-family="Times,serif" font-size="14.00">HSPB1_S82</text>
</g>
<!-- MAPKAPK2&#45;&gt;HSPB1_S82 -->
<g id="edge71" class="edge">
<title>MAPKAPK2&#45;&gt;HSPB1_S82</title>
<path fill="none" stroke="green" d="M538.59,-216.76C526.41,-207.4 510.93,-195.49 497.63,-185.26"/>
<polygon fill="green" stroke="green" points="499.75,-182.47 489.69,-179.15 495.48,-188.02 499.75,-182.47"/>
</g>
<!-- MAPK14_Y182 -->
<g id="node13" class="node">
<title>MAPK14_Y182</title>
<ellipse fill="lightgray" stroke="black" cx="1322.69" cy="-522" rx="79.09" ry="18"/>
<text text-anchor="middle" x="1322.69" y="-518.3" font-family="Times,serif" font-size="14.00">MAPK14_Y182</text>
</g>
<!-- MAPK14_Y182&#45;&gt;MAPK14 -->
<g id="edge12" class="edge">
<title>MAPK14_Y182&#45;&gt;MAPK14</title>
<path fill="none" stroke="green" d="M1305.03,-504.29C1284.92,-485.65 1250.69,-455.08 1218.69,-432 1201.98,-419.94 1182.41,-407.96 1165.98,-398.46"/>
<polygon fill="green" stroke="green" points="1167.63,-395.37 1157.22,-393.44 1164.16,-401.45 1167.63,-395.37"/>
</g>
<!-- MAP2K1_S218 -->
<g id="node14" class="node">
<title>MAP2K1_S218</title>
<ellipse fill="lightgray" stroke="black" cx="816.69" cy="-738" rx="79.09" ry="18"/>
<text text-anchor="middle" x="816.69" y="-734.3" font-family="Times,serif" font-size="14.00">MAP2K1_S218</text>
</g>
<!-- MAP2K1 -->
<g id="node15" class="node">
<title>MAP2K1</title>
<ellipse fill="lightgray" stroke="black" cx="807.69" cy="-666" rx="51.19" ry="18"/>
<text text-anchor="middle" x="807.69" y="-662.3" font-family="Times,serif" font-size="14.00">MAP2K1</text>
</g>
<!-- MAP2K1_S218&#45;&gt;MAP2K1 -->
<g id="edge13" class="edge">
<title>MAP2K1_S218&#45;&gt;MAP2K1</title>
<path fill="none" stroke="green" d="M814.47,-719.7C813.48,-711.98 812.29,-702.71 811.18,-694.11"/>
<polygon fill="green" stroke="green" points="814.64,-693.58 809.89,-684.1 807.7,-694.47 814.64,-693.58"/>
</g>
<!-- MAPK1_T185 -->
<g id="node16" class="node">
<title>MAPK1_T185</title>
<ellipse fill="lightgray" stroke="black" cx="619.69" cy="-522" rx="73.39" ry="18"/>
<text text-anchor="middle" x="619.69" y="-518.3" font-family="Times,serif" font-size="14.00">MAPK1_T185</text>
</g>
<!-- MAP2K1&#45;&gt;MAPK1_T185 -->
<g id="edge14" class="edge">
<title>MAP2K1&#45;&gt;MAPK1_T185</title>
<path fill="none" stroke="green" d="M786.86,-649.26C753.44,-624.02 687.73,-574.39 649.4,-545.44"/>
<polygon fill="green" stroke="green" points="651.29,-542.48 641.2,-539.25 647.07,-548.07 651.29,-542.48"/>
</g>
<!-- GSK3B_Y216 -->
<g id="node59" class="node">
<title>GSK3B_Y216</title>
<ellipse fill="lightgray" stroke="black" cx="831.69" cy="-594" rx="71.49" ry="18"/>
<text text-anchor="middle" x="831.69" y="-590.3" font-family="Times,serif" font-size="14.00">GSK3B_Y216</text>
</g>
<!-- MAP2K1&#45;&gt;GSK3B_Y216 -->
<g id="edge74" class="edge">
<title>MAP2K1&#45;&gt;GSK3B_Y216</title>
<path fill="none" stroke="green" d="M813.5,-648.05C816.21,-640.18 819.48,-630.62 822.51,-621.79"/>
<polygon fill="green" stroke="green" points="825.84,-622.87 825.77,-612.28 819.22,-620.6 825.84,-622.87"/>
</g>
<!-- MAPK1 -->
<g id="node17" class="node">
<title>MAPK1</title>
<ellipse fill="lightgray" stroke="black" cx="559.69" cy="-378" rx="45.49" ry="18"/>
<text text-anchor="middle" x="559.69" y="-374.3" font-family="Times,serif" font-size="14.00">MAPK1</text>
</g>
<!-- MAPK1_T185&#45;&gt;MAPK1 -->
<g id="edge15" class="edge">
<title>MAPK1_T185&#45;&gt;MAPK1</title>
<path fill="none" stroke="green" d="M612.46,-503.87C602.14,-479.46 583.11,-434.43 570.95,-405.64"/>
<polygon fill="green" stroke="green" points="574.07,-404.04 566.96,-396.19 567.63,-406.76 574.07,-404.04"/>
</g>
<!-- MAPK1&#45;&gt;MAPKAPK2_S272 -->
<g id="edge16" class="edge">
<title>MAPK1&#45;&gt;MAPKAPK2_S272</title>
<path fill="none" stroke="green" d="M559.69,-359.7C559.69,-351.98 559.69,-342.71 559.69,-334.11"/>
<polygon fill="green" stroke="green" points="563.19,-334.1 559.69,-324.1 556.19,-334.1 563.19,-334.1"/>
</g>
<!-- MAP2K1_S222 -->
<g id="node18" class="node">
<title>MAP2K1_S222</title>
<ellipse fill="lightgray" stroke="black" cx="639.69" cy="-738" rx="79.09" ry="18"/>
<text text-anchor="middle" x="639.69" y="-734.3" font-family="Times,serif" font-size="14.00">MAP2K1_S222</text>
</g>
<!-- MAP2K1_S222&#45;&gt;MAP2K1 -->
<g id="edge17" class="edge">
<title>MAP2K1_S222&#45;&gt;MAP2K1</title>
<path fill="none" stroke="green" d="M676.15,-721.81C702.74,-710.73 738.8,-695.71 766.44,-684.19"/>
<polygon fill="green" stroke="green" points="767.96,-687.35 775.84,-680.27 765.26,-680.89 767.96,-687.35"/>
</g>
<!-- RPS6KA1 -->
<g id="node20" class="node">
<title>RPS6KA1</title>
<ellipse fill="lightgray" stroke="black" cx="1406.69" cy="-90" rx="54.69" ry="18"/>
<text text-anchor="middle" x="1406.69" y="-86.3" font-family="Times,serif" font-size="14.00">RPS6KA1</text>
</g>
<!-- RPS6KA1_S380&#45;&gt;RPS6KA1 -->
<g id="edge18" class="edge">
<title>RPS6KA1_S380&#45;&gt;RPS6KA1</title>
<path fill="none" stroke="green" d="M1282.59,-145.64C1307.26,-134.78 1340.4,-120.19 1366.23,-108.82"/>
<polygon fill="green" stroke="green" points="1367.64,-112.02 1375.38,-104.78 1364.82,-105.61 1367.64,-112.02"/>
</g>
<!-- RPS6KA1&#45;&gt;GSK3B_S9 -->
<g id="edge19" class="edge">
<title>RPS6KA1&#45;&gt;GSK3B_S9</title>
<path fill="none" stroke="red" d="M1454.77,-98.67C1483.8,-105.72 1519.36,-119.05 1541.69,-144 1569.02,-174.53 1565.69,-192.03 1565.69,-233 1565.69,-1027 1565.69,-1027 1565.69,-1027 1565.69,-1070.73 1548.67,-1119.53 1537.41,-1147.03"/>
<polygon fill="red" stroke="red" points="1540.38,-1152.9 1531.15,-1149.06 1531.92,-1147.22 1541.15,-1151.06 1540.38,-1152.9"/>
<polyline fill="none" stroke="red" points="1535.38,-1151.91 1537.3,-1147.29 "/>
</g>
<!-- MTOR_S2448 -->
<g id="node21" class="node">
<title>MTOR_S2448</title>
<ellipse fill="lightgray" stroke="black" cx="295.69" cy="-594" rx="74.19" ry="18"/>
<text text-anchor="middle" x="295.69" y="-590.3" font-family="Times,serif" font-size="14.00">MTOR_S2448</text>
</g>
<!-- MTOR -->
<g id="node22" class="node">
<title>MTOR</title>
<ellipse fill="lightgray" stroke="black" cx="295.69" cy="-666" rx="40.09" ry="18"/>
<text text-anchor="middle" x="295.69" y="-662.3" font-family="Times,serif" font-size="14.00">MTOR</text>
</g>
<!-- MTOR_S2448&#45;&gt;MTOR -->
<g id="edge20" class="edge">
<title>MTOR_S2448&#45;&gt;MTOR</title>
<path fill="none" stroke="green" d="M301.61,-612.28C302.41,-620.03 302.63,-629.36 302.28,-638.01"/>
<polygon fill="green" stroke="green" points="298.79,-637.83 301.57,-648.05 305.77,-638.33 298.79,-637.83"/>
</g>
<!-- MTOR&#45;&gt;MTOR_S2448 -->
<g id="edge57" class="edge">
<title>MTOR&#45;&gt;MTOR_S2448</title>
<path fill="none" stroke="green" d="M289.82,-648.05C289,-640.35 288.76,-631.03 289.09,-622.36"/>
<polygon fill="green" stroke="green" points="292.59,-622.49 289.78,-612.28 285.61,-622.01 292.59,-622.49"/>
</g>
<!-- AKT1_T450 -->
<g id="node23" class="node">
<title>AKT1_T450</title>
<ellipse fill="lightgray" stroke="black" cx="155.69" cy="-234" rx="63.89" ry="18"/>
<text text-anchor="middle" x="155.69" y="-230.3" font-family="Times,serif" font-size="14.00">AKT1_T450</text>
</g>
<!-- MTOR&#45;&gt;AKT1_T450 -->
<g id="edge21" class="edge">
<title>MTOR&#45;&gt;AKT1_T450</title>
<path fill="none" stroke="purple" d="M266.41,-653.38C248.21,-644.67 225.85,-630.97 212.69,-612 189.64,-578.76 193.69,-563.45 193.69,-523 193.69,-523 193.69,-523 193.69,-377 193.69,-336.54 179.12,-291.73 168.02,-263.48"/>
<polygon fill="purple" stroke="purple" points="167.91,-263.21 161.94,-259.16 163.38,-252.09 169.35,-256.14 167.91,-263.21"/>
</g>
<!-- SGK1_S422 -->
<g id="node52" class="node">
<title>SGK1_S422</title>
<ellipse fill="lightgray" stroke="black" cx="491.69" cy="-594" rx="65.79" ry="18"/>
<text text-anchor="middle" x="491.69" y="-590.3" font-family="Times,serif" font-size="14.00">SGK1_S422</text>
</g>
<!-- MTOR&#45;&gt;SGK1_S422 -->
<g id="edge63" class="edge">
<title>MTOR&#45;&gt;SGK1_S422</title>
<path fill="none" stroke="green" d="M326.32,-654.06C357.75,-642.84 407.1,-625.21 443.72,-612.14"/>
<polygon fill="green" stroke="green" points="444.96,-615.41 453.2,-608.75 442.61,-608.81 444.96,-615.41"/>
</g>
<!-- AKT1_T450&#45;&gt;AKT1 -->
<g id="edge22" class="edge">
<title>AKT1_T450&#45;&gt;AKT1</title>
<path fill="none" stroke="purple" d="M156.92,-215.85C159.01,-196.81 164.63,-165.88 179.69,-144 189.3,-130.06 203.81,-118.44 217.37,-109.67"/>
<polygon fill="purple" stroke="purple" points="217.67,-109.48 220.72,-102.95 227.93,-103.25 224.87,-109.79 217.67,-109.48"/>
</g>
<!-- MAPK3_T202 -->
<g id="node24" class="node">
<title>MAPK3_T202</title>
<ellipse fill="lightgray" stroke="black" cx="987.69" cy="-738" rx="73.39" ry="18"/>
<text text-anchor="middle" x="987.69" y="-734.3" font-family="Times,serif" font-size="14.00">MAPK3_T202</text>
</g>
<!-- MAPK3 -->
<g id="node25" class="node">
<title>MAPK3</title>
<ellipse fill="lightgray" stroke="black" cx="1166.69" cy="-666" rx="45.49" ry="18"/>
<text text-anchor="middle" x="1166.69" y="-662.3" font-family="Times,serif" font-size="14.00">MAPK3</text>
</g>
<!-- MAPK3_T202&#45;&gt;MAPK3 -->
<g id="edge23" class="edge">
<title>MAPK3_T202&#45;&gt;MAPK3</title>
<path fill="none" stroke="green" d="M1025.22,-722.33C1054.73,-710.79 1095.77,-694.73 1126.06,-682.89"/>
<polygon fill="green" stroke="green" points="1127.44,-686.11 1135.48,-679.21 1124.89,-679.59 1127.44,-686.11"/>
</g>
<!-- MAPK3&#45;&gt;RPS6KA1_S380 -->
<g id="edge54" class="edge">
<title>MAPK3&#45;&gt;RPS6KA1_S380</title>
<path fill="none" stroke="green" d="M1178.07,-648.56C1184.53,-638.45 1192.2,-624.99 1196.69,-612 1249.45,-459.65 1250.37,-262.56 1248.68,-190.73"/>
<polygon fill="green" stroke="green" points="1252.17,-190.21 1248.4,-180.31 1245.17,-190.4 1252.17,-190.21"/>
</g>
<!-- CDK2_T160 -->
<g id="node26" class="node">
<title>CDK2_T160</title>
<ellipse fill="lightgray" stroke="black" cx="998.69" cy="-594" rx="65.79" ry="18"/>
<text text-anchor="middle" x="998.69" y="-590.3" font-family="Times,serif" font-size="14.00">CDK2_T160</text>
</g>
<!-- MAPK3&#45;&gt;CDK2_T160 -->
<g id="edge24" class="edge">
<title>MAPK3&#45;&gt;CDK2_T160</title>
<path fill="none" stroke="green" d="M1136.27,-652.32C1110.08,-641.41 1071.95,-625.52 1042.48,-613.24"/>
<polygon fill="green" stroke="green" points="1043.81,-610.01 1033.24,-609.39 1041.12,-616.47 1043.81,-610.01"/>
</g>
<!-- LCK_S59 -->
<g id="node55" class="node">
<title>LCK_S59</title>
<ellipse fill="lightgray" stroke="black" cx="1134.69" cy="-594" rx="52.79" ry="18"/>
<text text-anchor="middle" x="1134.69" y="-590.3" font-family="Times,serif" font-size="14.00">LCK_S59</text>
</g>
<!-- MAPK3&#45;&gt;LCK_S59 -->
<g id="edge67" class="edge">
<title>MAPK3&#45;&gt;LCK_S59</title>
<path fill="none" stroke="red" d="M1158.95,-648.05C1154.69,-638.74 1149.35,-627.07 1144.77,-617.04"/>
<polygon fill="red" stroke="red" points="1138.46,-615.26 1147.55,-611.11 1148.39,-612.92 1139.29,-617.08 1138.46,-615.26"/>
<polyline fill="none" stroke="red" points="1142.59,-612.28 1144.67,-616.82 "/>
</g>
<!-- CDK2 -->
<g id="node27" class="node">
<title>CDK2</title>
<ellipse fill="lightgray" stroke="black" cx="998.69" cy="-522" rx="37.89" ry="18"/>
<text text-anchor="middle" x="998.69" y="-518.3" font-family="Times,serif" font-size="14.00">CDK2</text>
</g>
<!-- CDK2_T160&#45;&gt;CDK2 -->
<g id="edge25" class="edge">
<title>CDK2_T160&#45;&gt;CDK2</title>
<path fill="none" stroke="green" d="M998.69,-575.7C998.69,-567.98 998.69,-558.71 998.69,-550.11"/>
<polygon fill="green" stroke="green" points="1002.19,-550.1 998.69,-540.1 995.19,-550.1 1002.19,-550.1"/>
</g>
<!-- AKT1_S477 -->
<g id="node28" class="node">
<title>AKT1_S477</title>
<ellipse fill="lightgray" stroke="black" cx="905.69" cy="-378" rx="63.89" ry="18"/>
<text text-anchor="middle" x="905.69" y="-374.3" font-family="Times,serif" font-size="14.00">AKT1_S477</text>
</g>
<!-- CDK2&#45;&gt;AKT1_S477 -->
<g id="edge26" class="edge">
<title>CDK2&#45;&gt;AKT1_S477</title>
<path fill="none" stroke="green" d="M988.03,-504.71C971.94,-480.15 941.34,-433.43 922.32,-404.38"/>
<polygon fill="green" stroke="green" points="925.22,-402.43 916.81,-395.98 919.37,-406.26 925.22,-402.43"/>
</g>
<!-- AKT1_S477&#45;&gt;AKT1 -->
<g id="edge27" class="edge">
<title>AKT1_S477&#45;&gt;AKT1</title>
<path fill="none" stroke="green" d="M896.51,-360.04C871.44,-315.61 797,-195.74 697.69,-144 628.97,-108.2 397.76,-96.02 298.54,-92.38"/>
<polygon fill="green" stroke="green" points="298.64,-88.88 288.52,-92.03 298.39,-95.88 298.64,-88.88"/>
</g>
<!-- MAPK3_Y204 -->
<g id="node29" class="node">
<title>MAPK3_Y204</title>
<ellipse fill="lightgray" stroke="black" cx="1152.69" cy="-738" rx="73.39" ry="18"/>
<text text-anchor="middle" x="1152.69" y="-734.3" font-family="Times,serif" font-size="14.00">MAPK3_Y204</text>
</g>
<!-- MAPK3_Y204&#45;&gt;MAPK3 -->
<g id="edge28" class="edge">
<title>MAPK3_Y204&#45;&gt;MAPK3</title>
<path fill="none" stroke="green" d="M1156.16,-719.7C1157.7,-711.98 1159.55,-702.71 1161.27,-694.11"/>
<polygon fill="green" stroke="green" points="1164.74,-694.6 1163.27,-684.1 1157.88,-693.22 1164.74,-694.6"/>
</g>
<!-- SRC -->
<g id="node31" class="node">
<title>SRC</title>
<ellipse fill="lightgray" stroke="black" cx="962.69" cy="-954" rx="30.59" ry="18"/>
<text text-anchor="middle" x="962.69" y="-950.3" font-family="Times,serif" font-size="14.00">SRC</text>
</g>
<!-- SRC_S51&#45;&gt;SRC -->
<g id="edge32" class="edge">
<title>SRC_S51&#45;&gt;SRC</title>
<path fill="none" stroke="purple" d="M1029.95,-1009.12C1017.97,-999.47 1002.51,-987.04 989.44,-976.52"/>
<polygon fill="purple" stroke="purple" points="989.35,-976.45 982.17,-975.8 980,-968.93 987.19,-969.57 989.35,-976.45"/>
</g>
<!-- PDPK1_Y373 -->
<g id="node32" class="node">
<title>PDPK1_Y373</title>
<ellipse fill="lightgray" stroke="black" cx="701.69" cy="-882" rx="71.49" ry="18"/>
<text text-anchor="middle" x="701.69" y="-878.3" font-family="Times,serif" font-size="14.00">PDPK1_Y373</text>
</g>
<!-- SRC&#45;&gt;PDPK1_Y373 -->
<g id="edge33" class="edge">
<title>SRC&#45;&gt;PDPK1_Y373</title>
<path fill="none" stroke="green" d="M935.26,-945.64C893.61,-934.47 813.52,-912.99 758.85,-898.33"/>
<polygon fill="green" stroke="green" points="759.52,-894.89 748.96,-895.68 757.71,-901.65 759.52,-894.89"/>
</g>
<!-- PRKD1_Y463 -->
<g id="node37" class="node">
<title>PRKD1_Y463</title>
<ellipse fill="lightgray" stroke="black" cx="479.69" cy="-882" rx="71.49" ry="18"/>
<text text-anchor="middle" x="479.69" y="-878.3" font-family="Times,serif" font-size="14.00">PRKD1_Y463</text>
</g>
<!-- SRC&#45;&gt;PRKD1_Y463 -->
<g id="edge38" class="edge">
<title>SRC&#45;&gt;PRKD1_Y463</title>
<path fill="none" stroke="green" d="M933.21,-948.73C858.01,-937.83 657.45,-908.76 549.99,-893.19"/>
<polygon fill="green" stroke="green" points="550.29,-889.69 539.89,-891.72 549.28,-896.62 550.29,-889.69"/>
</g>
<!-- RET_Y905 -->
<g id="node44" class="node">
<title>RET_Y905</title>
<ellipse fill="lightgray" stroke="black" cx="1040.69" cy="-882" rx="57.69" ry="18"/>
<text text-anchor="middle" x="1040.69" y="-878.3" font-family="Times,serif" font-size="14.00">RET_Y905</text>
</g>
<!-- SRC&#45;&gt;RET_Y905 -->
<g id="edge46" class="edge">
<title>SRC&#45;&gt;RET_Y905</title>
<path fill="none" stroke="green" d="M978.86,-938.5C989.32,-929.1 1003.18,-916.66 1015.13,-905.94"/>
<polygon fill="green" stroke="green" points="1017.54,-908.48 1022.64,-899.2 1012.86,-903.27 1017.54,-908.48"/>
</g>
<!-- ARAF_Y302 -->
<g id="node46" class="node">
<title>ARAF_Y302</title>
<ellipse fill="lightgray" stroke="black" cx="885.69" cy="-882" rx="64.19" ry="18"/>
<text text-anchor="middle" x="885.69" y="-878.3" font-family="Times,serif" font-size="14.00">ARAF_Y302</text>
</g>
<!-- SRC&#45;&gt;ARAF_Y302 -->
<g id="edge49" class="edge">
<title>SRC&#45;&gt;ARAF_Y302</title>
<path fill="none" stroke="green" d="M946.74,-938.5C936.58,-929.26 923.17,-917.07 911.52,-906.47"/>
<polygon fill="green" stroke="green" points="913.54,-903.58 903.79,-899.45 908.83,-908.76 913.54,-903.58"/>
</g>
<!-- PBK_Y272 -->
<g id="node49" class="node">
<title>PBK_Y272</title>
<ellipse fill="lightgray" stroke="black" cx="1182.69" cy="-882" rx="58.49" ry="18"/>
<text text-anchor="middle" x="1182.69" y="-878.3" font-family="Times,serif" font-size="14.00">PBK_Y272</text>
</g>
<!-- SRC&#45;&gt;PBK_Y272 -->
<g id="edge58" class="edge">
<title>SRC&#45;&gt;PBK_Y272</title>
<path fill="none" stroke="green" d="M989.23,-944.56C1024.93,-933.2 1089.08,-912.79 1133.68,-898.6"/>
<polygon fill="green" stroke="green" points="1134.97,-901.86 1143.44,-895.49 1132.85,-895.19 1134.97,-901.86"/>
</g>
<!-- PDPK1 -->
<g id="node33" class="node">
<title>PDPK1</title>
<ellipse fill="lightgray" stroke="black" cx="639.69" cy="-810" rx="43.59" ry="18"/>
<text text-anchor="middle" x="639.69" y="-806.3" font-family="Times,serif" font-size="14.00">PDPK1</text>
</g>
<!-- PDPK1_Y373&#45;&gt;PDPK1 -->
<g id="edge34" class="edge">
<title>PDPK1_Y373&#45;&gt;PDPK1</title>
<path fill="none" stroke="green" d="M686.69,-864.05C678.96,-855.33 669.41,-844.54 660.93,-834.98"/>
<polygon fill="green" stroke="green" points="663.39,-832.47 654.14,-827.31 658.15,-837.11 663.39,-832.47"/>
</g>
<!-- PDPK1&#45;&gt;MAP2K1_S222 -->
<g id="edge52" class="edge">
<title>PDPK1&#45;&gt;MAP2K1_S222</title>
<path fill="none" stroke="green" d="M639.69,-791.7C639.69,-783.98 639.69,-774.71 639.69,-766.11"/>
<polygon fill="green" stroke="green" points="643.19,-766.1 639.69,-756.1 636.19,-766.1 643.19,-766.1"/>
</g>
<!-- PRKACA_T198 -->
<g id="node34" class="node">
<title>PRKACA_T198</title>
<ellipse fill="lightgray" stroke="black" cx="464.69" cy="-738" rx="77.19" ry="18"/>
<text text-anchor="middle" x="464.69" y="-734.3" font-family="Times,serif" font-size="14.00">PRKACA_T198</text>
</g>
<!-- PDPK1&#45;&gt;PRKACA_T198 -->
<g id="edge35" class="edge">
<title>PDPK1&#45;&gt;PRKACA_T198</title>
<path fill="none" stroke="green" d="M609.61,-796.97C582.6,-786.16 542.52,-770.13 511.35,-757.66"/>
<polygon fill="green" stroke="green" points="512.57,-754.38 501.99,-753.92 509.97,-760.88 512.57,-754.38"/>
</g>
<!-- PRKACA -->
<g id="node35" class="node">
<title>PRKACA</title>
<ellipse fill="lightgray" stroke="black" cx="720.69" cy="-306" rx="50.09" ry="18"/>
<text text-anchor="middle" x="720.69" y="-302.3" font-family="Times,serif" font-size="14.00">PRKACA</text>
</g>
<!-- PRKACA_T198&#45;&gt;PRKACA -->
<g id="edge36" class="edge">
<title>PRKACA_T198&#45;&gt;PRKACA</title>
<path fill="none" stroke="green" d="M507.54,-722.98C580.42,-697.83 720.69,-643.16 720.69,-595 720.69,-595 720.69,-595 720.69,-449 720.69,-409 720.69,-362.65 720.69,-334.08"/>
<polygon fill="green" stroke="green" points="724.19,-334.05 720.69,-324.05 717.19,-334.05 724.19,-334.05"/>
</g>
<!-- PRKACA&#45;&gt;HSPB1_S78 -->
<g id="edge37" class="edge">
<title>PRKACA&#45;&gt;HSPB1_S78</title>
<path fill="none" stroke="green" d="M709.26,-288.43C692.24,-263.77 660.1,-217.2 640.13,-188.27"/>
<polygon fill="green" stroke="green" points="642.92,-186.14 634.36,-179.9 637.16,-190.12 642.92,-186.14"/>
</g>
<!-- PRKD1 -->
<g id="node38" class="node">
<title>PRKD1</title>
<ellipse fill="lightgray" stroke="black" cx="402.69" cy="-234" rx="44.39" ry="18"/>
<text text-anchor="middle" x="402.69" y="-230.3" font-family="Times,serif" font-size="14.00">PRKD1</text>
</g>
<!-- PRKD1_Y463&#45;&gt;PRKD1 -->
<g id="edge39" class="edge">
<title>PRKD1_Y463&#45;&gt;PRKD1</title>
<path fill="none" stroke="green" d="M459.8,-864.45C435.25,-842.59 394.78,-801.51 378.69,-756 373.36,-740.91 377.93,-735.98 378.69,-720 382.92,-632.14 397.69,-610.96 397.69,-523 397.69,-523 397.69,-523 397.69,-377 397.69,-336.97 399.7,-290.63 401.17,-262.07"/>
<polygon fill="green" stroke="green" points="404.67,-262.21 401.71,-252.04 397.68,-261.84 404.67,-262.21"/>
</g>
<!-- PRKD1&#45;&gt;HSPB1_S82 -->
<g id="edge40" class="edge">
<title>PRKD1&#45;&gt;HSPB1_S82</title>
<path fill="none" stroke="green" d="M418,-216.76C426.3,-207.97 436.7,-196.93 445.93,-187.14"/>
<polygon fill="green" stroke="green" points="448.7,-189.31 453.01,-179.63 443.6,-184.51 448.7,-189.31"/>
</g>
<!-- MAP3K11 -->
<g id="node41" class="node">
<title>MAP3K11</title>
<ellipse fill="lightgray" stroke="black" cx="1378.69" cy="-954" rx="57.39" ry="18"/>
<text text-anchor="middle" x="1378.69" y="-950.3" font-family="Times,serif" font-size="14.00">MAP3K11</text>
</g>
<!-- MAP3K11_S789&#45;&gt;MAP3K11 -->
<g id="edge42" class="edge">
<title>MAP3K11_S789&#45;&gt;MAP3K11</title>
<path fill="none" stroke="green" d="M1377.19,-1007.7C1377.41,-999.98 1377.67,-990.71 1377.92,-982.11"/>
<polygon fill="green" stroke="green" points="1381.42,-982.2 1378.21,-972.1 1374.42,-982 1381.42,-982.2"/>
</g>
<!-- MAP2K3_S218 -->
<g id="node42" class="node">
<title>MAP2K3_S218</title>
<ellipse fill="lightgray" stroke="black" cx="1381.69" cy="-882" rx="79.09" ry="18"/>
<text text-anchor="middle" x="1381.69" y="-878.3" font-family="Times,serif" font-size="14.00">MAP2K3_S218</text>
</g>
<!-- MAP3K11&#45;&gt;MAP2K3_S218 -->
<g id="edge43" class="edge">
<title>MAP3K11&#45;&gt;MAP2K3_S218</title>
<path fill="none" stroke="green" d="M1379.44,-935.7C1379.77,-927.98 1380.16,-918.71 1380.53,-910.11"/>
<polygon fill="green" stroke="green" points="1384.03,-910.25 1380.96,-900.1 1377.04,-909.95 1384.03,-910.25"/>
</g>
<!-- MAP2K3 -->
<g id="node43" class="node">
<title>MAP2K3</title>
<ellipse fill="lightgray" stroke="black" cx="1396.69" cy="-810" rx="51.19" ry="18"/>
<text text-anchor="middle" x="1396.69" y="-806.3" font-family="Times,serif" font-size="14.00">MAP2K3</text>
</g>
<!-- MAP2K3_S218&#45;&gt;MAP2K3 -->
<g id="edge44" class="edge">
<title>MAP2K3_S218&#45;&gt;MAP2K3</title>
<path fill="none" stroke="green" d="M1385.4,-863.7C1387.06,-855.98 1389.04,-846.71 1390.88,-838.11"/>
<polygon fill="green" stroke="green" points="1394.36,-838.62 1393.03,-828.1 1387.51,-837.15 1394.36,-838.62"/>
</g>
<!-- MAP2K3&#45;&gt;MAPK14_T180 -->
<g id="edge45" class="edge">
<title>MAP2K3&#45;&gt;MAPK14_T180</title>
<path fill="none" stroke="green" d="M1407.82,-792.33C1423.9,-766.59 1451.69,-715.12 1451.69,-667 1451.69,-667 1451.69,-667 1451.69,-593 1451.69,-548.48 1423.92,-503.29 1403.61,-476.2"/>
<polygon fill="green" stroke="green" points="1406.21,-473.84 1397.33,-468.07 1400.67,-478.12 1406.21,-473.84"/>
</g>
<!-- RET -->
<g id="node45" class="node">
<title>RET</title>
<ellipse fill="lightgray" stroke="black" cx="1071.69" cy="-810" rx="30.59" ry="18"/>
<text text-anchor="middle" x="1071.69" y="-806.3" font-family="Times,serif" font-size="14.00">RET</text>
</g>
<!-- RET_Y905&#45;&gt;RET -->
<g id="edge47" class="edge">
<title>RET_Y905&#45;&gt;RET</title>
<path fill="none" stroke="green" d="M1048.2,-864.05C1051.78,-855.97 1056.14,-846.12 1060.13,-837.11"/>
<polygon fill="green" stroke="green" points="1063.41,-838.35 1064.26,-827.79 1057.01,-835.52 1063.41,-838.35"/>
</g>
<!-- RET&#45;&gt;MAPK14_Y182 -->
<g id="edge48" class="edge">
<title>RET&#45;&gt;MAPK14_Y182</title>
<path fill="none" stroke="green" d="M1100.11,-802.88C1141.39,-793.49 1215.16,-774.64 1234.69,-756 1294.17,-699.24 1313.84,-598.28 1320.03,-550.07"/>
<polygon fill="green" stroke="green" points="1323.51,-550.43 1321.21,-540.08 1316.56,-549.6 1323.51,-550.43"/>
</g>
<!-- RET&#45;&gt;MAPK3_T202 -->
<g id="edge61" class="edge">
<title>RET&#45;&gt;MAPK3_T202</title>
<path fill="none" stroke="green" d="M1054.7,-794.83C1043.34,-785.37 1028.15,-772.72 1015.11,-761.85"/>
<polygon fill="green" stroke="green" points="1017.24,-759.07 1007.32,-755.35 1012.76,-764.44 1017.24,-759.07"/>
</g>
<!-- RET&#45;&gt;MAPK3_Y204 -->
<g id="edge53" class="edge">
<title>RET&#45;&gt;MAPK3_Y204</title>
<path fill="none" stroke="green" d="M1088.48,-794.5C1099.27,-785.17 1113.54,-772.84 1125.88,-762.17"/>
<polygon fill="green" stroke="green" points="1128.38,-764.63 1133.66,-755.45 1123.81,-759.34 1128.38,-764.63"/>
</g>
<!-- ARAF -->
<g id="node47" class="node">
<title>ARAF</title>
<ellipse fill="lightgray" stroke="black" cx="851.69" cy="-810" rx="36.29" ry="18"/>
<text text-anchor="middle" x="851.69" y="-806.3" font-family="Times,serif" font-size="14.00">ARAF</text>
</g>
<!-- ARAF_Y302&#45;&gt;ARAF -->
<g id="edge50" class="edge">
<title>ARAF_Y302&#45;&gt;ARAF</title>
<path fill="none" stroke="green" d="M877.46,-864.05C873.5,-855.89 868.65,-845.91 864.24,-836.82"/>
<polygon fill="green" stroke="green" points="867.37,-835.25 859.85,-827.79 861.07,-838.31 867.37,-835.25"/>
</g>
<!-- ARAF&#45;&gt;MAP2K1_S218 -->
<g id="edge51" class="edge">
<title>ARAF&#45;&gt;MAP2K1_S218</title>
<path fill="none" stroke="green" d="M843.4,-792.41C839.32,-784.25 834.3,-774.22 829.73,-765.07"/>
<polygon fill="green" stroke="green" points="832.78,-763.34 825.17,-755.96 826.51,-766.47 832.78,-763.34"/>
</g>
<!-- MTOR_S2159&#45;&gt;MTOR -->
<g id="edge56" class="edge">
<title>MTOR_S2159&#45;&gt;MTOR</title>
<path fill="none" stroke="green" d="M266.89,-720.05C271.33,-711.89 276.74,-701.91 281.68,-692.82"/>
<polygon fill="green" stroke="green" points="284.89,-694.25 286.58,-683.79 278.73,-690.91 284.89,-694.25"/>
</g>
<!-- PBK -->
<g id="node50" class="node">
<title>PBK</title>
<ellipse fill="lightgray" stroke="black" cx="1208.69" cy="-810" rx="30.59" ry="18"/>
<text text-anchor="middle" x="1208.69" y="-806.3" font-family="Times,serif" font-size="14.00">PBK</text>
</g>
<!-- PBK_Y272&#45;&gt;PBK -->
<g id="edge59" class="edge">
<title>PBK_Y272&#45;&gt;PBK</title>
<path fill="none" stroke="green" d="M1188.99,-864.05C1191.96,-856.06 1195.57,-846.33 1198.89,-837.4"/>
<polygon fill="green" stroke="green" points="1202.26,-838.38 1202.46,-827.79 1195.7,-835.94 1202.26,-838.38"/>
</g>
<!-- JUN_S63 -->
<g id="node51" class="node">
<title>JUN_S63</title>
<ellipse fill="lightgray" stroke="black" cx="1333.69" cy="-738" rx="51.99" ry="18"/>
<text text-anchor="middle" x="1333.69" y="-734.3" font-family="Times,serif" font-size="14.00">JUN_S63</text>
</g>
<!-- PBK&#45;&gt;JUN_S63 -->
<g id="edge60" class="edge">
<title>PBK&#45;&gt;JUN_S63</title>
<path fill="none" stroke="green" d="M1230.18,-796.97C1248.96,-786.45 1276.57,-770.99 1298.55,-758.68"/>
<polygon fill="green" stroke="green" points="1300.27,-761.73 1307.28,-753.79 1296.85,-755.62 1300.27,-761.73"/>
</g>
<!-- SGK1 -->
<g id="node53" class="node">
<title>SGK1</title>
<ellipse fill="lightgray" stroke="black" cx="491.69" cy="-522" rx="37.09" ry="18"/>
<text text-anchor="middle" x="491.69" y="-518.3" font-family="Times,serif" font-size="14.00">SGK1</text>
</g>
<!-- SGK1_S422&#45;&gt;SGK1 -->
<g id="edge64" class="edge">
<title>SGK1_S422&#45;&gt;SGK1</title>
<path fill="none" stroke="green" d="M491.69,-575.7C491.69,-567.98 491.69,-558.71 491.69,-550.11"/>
<polygon fill="green" stroke="green" points="495.19,-550.1 491.69,-540.1 488.19,-550.1 495.19,-550.1"/>
</g>
<!-- MAPK1_S29 -->
<g id="node54" class="node">
<title>MAPK1_S29</title>
<ellipse fill="lightgray" stroke="black" cx="501.69" cy="-450" rx="67.69" ry="18"/>
<text text-anchor="middle" x="501.69" y="-446.3" font-family="Times,serif" font-size="14.00">MAPK1_S29</text>
</g>
<!-- SGK1&#45;&gt;MAPK1_S29 -->
<g id="edge65" class="edge">
<title>SGK1&#45;&gt;MAPK1_S29</title>
<path fill="none" stroke="green" d="M494.17,-503.7C495.27,-495.98 496.59,-486.71 497.82,-478.11"/>
<polygon fill="green" stroke="green" points="501.3,-478.5 499.25,-468.1 494.37,-477.51 501.3,-478.5"/>
</g>
<!-- MAPK1_S29&#45;&gt;MAPK1 -->
<g id="edge66" class="edge">
<title>MAPK1_S29&#45;&gt;MAPK1</title>
<path fill="none" stroke="green" d="M515.73,-432.05C522.89,-423.42 531.72,-412.76 539.59,-403.27"/>
<polygon fill="green" stroke="green" points="542.5,-405.24 546.18,-395.31 537.11,-400.77 542.5,-405.24"/>
</g>
<!-- LCK -->
<g id="node56" class="node">
<title>LCK</title>
<ellipse fill="lightgray" stroke="black" cx="1132.69" cy="-522" rx="30.59" ry="18"/>
<text text-anchor="middle" x="1132.69" y="-518.3" font-family="Times,serif" font-size="14.00">LCK</text>
</g>
<!-- LCK_S59&#45;&gt;LCK -->
<g id="edge68" class="edge">
<title>LCK_S59&#45;&gt;LCK</title>
<path fill="none" stroke="red" d="M1134.2,-575.7C1133.94,-566.46 1133.61,-554.98 1133.33,-545.11"/>
<polygon fill="red" stroke="red" points="1128.21,-541.25 1138.21,-540.96 1138.27,-542.96 1128.27,-543.25 1128.21,-541.25"/>
<polyline fill="none" stroke="red" points="1133.18,-540.1 1133.33,-545.1 "/>
</g>
<!-- MAPK14_Y323 -->
<g id="node57" class="node">
<title>MAPK14_Y323</title>
<ellipse fill="lightgray" stroke="black" cx="1130.69" cy="-450" rx="79.09" ry="18"/>
<text text-anchor="middle" x="1130.69" y="-446.3" font-family="Times,serif" font-size="14.00">MAPK14_Y323</text>
</g>
<!-- LCK&#45;&gt;MAPK14_Y323 -->
<g id="edge69" class="edge">
<title>LCK&#45;&gt;MAPK14_Y323</title>
<path fill="none" stroke="green" d="M1132.2,-503.7C1131.98,-495.98 1131.71,-486.71 1131.47,-478.11"/>
<polygon fill="green" stroke="green" points="1134.97,-478 1131.18,-468.1 1127.97,-478.2 1134.97,-478"/>
</g>
<!-- MAPK14_Y323&#45;&gt;MAPK14 -->
<g id="edge70" class="edge">
<title>MAPK14_Y323&#45;&gt;MAPK14</title>
<path fill="none" stroke="green" d="M1130.69,-431.7C1130.69,-423.98 1130.69,-414.71 1130.69,-406.11"/>
<polygon fill="green" stroke="green" points="1134.19,-406.1 1130.69,-396.1 1127.19,-406.1 1134.19,-406.1"/>
</g>
<!-- GSK3B_T390&#45;&gt;GSK3B -->
<g id="edge73" class="edge">
<title>GSK3B_T390&#45;&gt;GSK3B</title>
<path fill="none" stroke="green" d="M1205.29,-313.27C1280.81,-324.1 1403.13,-353.39 1470.69,-432 1497.06,-462.67 1489.69,-480.55 1489.69,-521 1489.69,-955 1489.69,-955 1489.69,-955 1489.69,-995.45 1497.39,-1013.61 1470.69,-1044 1446.16,-1071.93 1405.97,-1085.14 1373.36,-1091.39"/>
<polygon fill="green" stroke="green" points="1372.76,-1087.94 1363.51,-1093.11 1373.97,-1094.84 1372.76,-1087.94"/>
</g>
<!-- GSK3B_Y216&#45;&gt;GSK3B -->
<g id="edge75" class="edge">
<title>GSK3B_Y216&#45;&gt;GSK3B</title>
<path fill="none" stroke="green" d="M869.73,-609.46C923.2,-629.23 1023.99,-664.46 1112.69,-684 1174.39,-697.59 1352.95,-672.58 1394.69,-720 1405.27,-732.01 1402.47,-742.02 1394.69,-756 1379.95,-782.51 1357.96,-770.36 1336.69,-792 1310.57,-818.58 1304.97,-828.47 1293.69,-864 1262.92,-960.96 1271.06,-1007.82 1282.69,-1044 1286.02,-1054.35 1292.2,-1064.39 1298.62,-1072.9"/>
<polygon fill="green" stroke="green" points="1296.02,-1075.26 1305.02,-1080.85 1301.47,-1070.86 1296.02,-1075.26"/>
</g>
</g>
</svg>
