<?xml version="1.0" encoding="UTF-8" standalone="no"?>
<!DOCTYPE svg PUBLIC "-//W3C//DTD SVG 1.1//EN"
 "http://www.w3.org/Graphics/SVG/1.1/DTD/svg11.dtd">
<!-- Generated by graphviz version 2.43.0 (0)
 -->
<!-- Title: %3 Pages: 1 -->
<svg width="462pt" height="260pt"
 viewBox="0.00 0.00 462.19 260.00" xmlns="http://www.w3.org/2000/svg" xmlns:xlink="http://www.w3.org/1999/xlink">
<g id="graph0" class="graph" transform="scale(1 1) rotate(0) translate(4 256)">
<title>%3</title>
<polygon fill="white" stroke="transparent" points="-4,4 -4,-256 458.19,-256 458.19,4 -4,4"/>
<!-- TNMD -->
<g id="node1" class="node">
<title>TNMD</title>
<ellipse fill="lightgray" stroke="black" cx="150.95" cy="-234" rx="40.89" ry="18"/>
<text text-anchor="middle" x="150.95" y="-230.3" font-family="Times,serif" font-size="14.00">TNMD</text>
</g>
<!-- BNIP3 -->
<g id="node2" class="node">
<title>BNIP3</title>
<ellipse fill="lightgray" stroke="black" cx="40.95" cy="-162" rx="40.89" ry="18"/>
<text text-anchor="middle" x="40.95" y="-158.3" font-family="Times,serif" font-size="14.00">BNIP3</text>
</g>
<!-- TNMD&#45;&gt;BNIP3 -->
<g id="edge1" class="edge">
<title>TNMD&#45;&gt;BNIP3</title>
<path fill="none" stroke="black" d="M128.69,-218.83C109.6,-206.69 82.25,-189.28 63.17,-177.14"/>
</g>
<!-- AMIGO1 -->
<g id="node3" class="node">
<title>AMIGO1</title>
<ellipse fill="lightgray" stroke="black" cx="180.95" cy="-18" rx="50.09" ry="18"/>
<text text-anchor="middle" x="180.95" y="-14.3" font-family="Times,serif" font-size="14.00">AMIGO1</text>
</g>
<!-- TNMD&#45;&gt;AMIGO1 -->
<g id="edge2" class="edge">
<title>TNMD&#45;&gt;AMIGO1</title>
<path fill="none" stroke="black" d="M142.04,-216.35C137.11,-206.17 131.48,-192.7 128.95,-180 125.82,-164.31 125.81,-159.69 128.95,-144 137.09,-103.2 158.83,-59.07 171.47,-35.71"/>
</g>
<!-- TMEM79 -->
<g id="node4" class="node">
<title>TMEM79</title>
<ellipse fill="lightgray" stroke="black" cx="191.95" cy="-162" rx="53.89" ry="18"/>
<text text-anchor="middle" x="191.95" y="-158.3" font-family="Times,serif" font-size="14.00">TMEM79</text>
</g>
<!-- TNMD&#45;&gt;TMEM79 -->
<g id="edge3" class="edge">
<title>TNMD&#45;&gt;TMEM79</title>
<path fill="none" stroke="black" d="M160.66,-216.41C167.1,-205.41 175.53,-191.03 182.01,-179.96"/>
</g>
<!-- CD33 -->
<g id="node5" class="node">
<title>CD33</title>
<ellipse fill="lightgray" stroke="black" cx="305.95" cy="-162" rx="36.29" ry="18"/>
<text text-anchor="middle" x="305.95" y="-158.3" font-family="Times,serif" font-size="14.00">CD33</text>
</g>
<!-- TNMD&#45;&gt;CD33 -->
<g id="edge4" class="edge">
<title>TNMD&#45;&gt;CD33</title>
<path fill="none" stroke="black" d="M178.66,-220.49C207.39,-207.51 251.96,-187.38 280.02,-174.71"/>
</g>
<!-- BNIP3&#45;&gt;AMIGO1 -->
<g id="edge9" class="edge">
<title>BNIP3&#45;&gt;AMIGO1</title>
<path fill="none" stroke="black" d="M48.51,-144C57.66,-124.82 74.54,-93.49 95.95,-72 112.15,-55.74 134.24,-42.15 151.84,-32.81"/>
</g>
<!-- TMEM79&#45;&gt;AMIGO1 -->
<g id="edge8" class="edge">
<title>TMEM79&#45;&gt;AMIGO1</title>
<path fill="none" stroke="black" d="M181.58,-144.03C176.04,-133.96 169.79,-120.71 166.95,-108 161.37,-83.12 168.57,-53.84 174.54,-35.85"/>
</g>
<!-- TTMP -->
<g id="node6" class="node">
<title>TTMP</title>
<ellipse fill="lightgray" stroke="black" cx="213.95" cy="-90" rx="38.19" ry="18"/>
<text text-anchor="middle" x="213.95" y="-86.3" font-family="Times,serif" font-size="14.00">TTMP</text>
</g>
<!-- CD33&#45;&gt;TTMP -->
<g id="edge5" class="edge">
<title>CD33&#45;&gt;TTMP</title>
<path fill="none" stroke="black" d="M286.88,-146.5C271.2,-134.56 249.06,-117.72 233.3,-105.73"/>
</g>
<!-- RPRM -->
<g id="node7" class="node">
<title>RPRM</title>
<ellipse fill="lightgray" stroke="black" cx="310.95" cy="-90" rx="40.09" ry="18"/>
<text text-anchor="middle" x="310.95" y="-86.3" font-family="Times,serif" font-size="14.00">RPRM</text>
</g>
<!-- CD33&#45;&gt;RPRM -->
<g id="edge6" class="edge">
<title>CD33&#45;&gt;RPRM</title>
<path fill="none" stroke="black" d="M307.18,-143.7C307.96,-132.85 308.95,-118.92 309.72,-108.1"/>
</g>
<!-- CXCL9 -->
<g id="node8" class="node">
<title>CXCL9</title>
<ellipse fill="lightgray" stroke="black" cx="411.95" cy="-90" rx="42.49" ry="18"/>
<text text-anchor="middle" x="411.95" y="-86.3" font-family="Times,serif" font-size="14.00">CXCL9</text>
</g>
<!-- CD33&#45;&gt;CXCL9 -->
<g id="edge7" class="edge">
<title>CD33&#45;&gt;CXCL9</title>
<path fill="none" stroke="black" d="M326.89,-147.17C345.11,-135.14 371.43,-117.76 389.95,-105.52"/>
</g>
<!-- TTMP&#45;&gt;AMIGO1 -->
<g id="edge10" class="edge">
<title>TTMP&#45;&gt;AMIGO1</title>
<path fill="none" stroke="black" d="M205.96,-72.05C200.77,-61.05 194.03,-46.76 188.86,-35.79"/>
</g>
<!-- RPRM&#45;&gt;AMIGO1 -->
<g id="edge11" class="edge">
<title>RPRM&#45;&gt;AMIGO1</title>
<path fill="none" stroke="black" d="M286.19,-75.67C263.79,-63.61 230.89,-45.89 207.85,-33.49"/>
</g>
<!-- CXCL9&#45;&gt;AMIGO1 -->
<g id="edge12" class="edge">
<title>CXCL9&#45;&gt;AMIGO1</title>
<path fill="none" stroke="black" d="M379.54,-78.25C373.06,-76.14 366.29,-73.98 359.95,-72 311.36,-56.87 255.05,-40.36 218.75,-29.86"/>
</g>
</g>
</svg>
