<?xml version="1.0" encoding="UTF-8" standalone="no"?>
<!DOCTYPE svg PUBLIC "-//W3C//DTD SVG 1.1//EN"
 "http://www.w3.org/Graphics/SVG/1.1/DTD/svg11.dtd">
<!-- Generated by graphviz version 2.43.0 (0)
 -->
<!-- Title: %3 Pages: 1 -->
<svg width="494pt" height="260pt"
 viewBox="0.00 0.00 494.28 260.00" xmlns="http://www.w3.org/2000/svg" xmlns:xlink="http://www.w3.org/1999/xlink">
<g id="graph0" class="graph" transform="scale(1 1) rotate(0) translate(4 256)">
<title>%3</title>
<polygon fill="white" stroke="transparent" points="-4,4 -4,-256 490.28,-256 490.28,4 -4,4"/>
<!-- DAB1 -->
<g id="node1" class="node">
<title>DAB1</title>
<ellipse fill="lightgray" stroke="black" cx="139.23" cy="-162" rx="37.09" ry="18"/>
<text text-anchor="middle" x="139.23" y="-158.3" font-family="Times,serif" font-size="14.00">DAB1</text>
</g>
<!-- NOTCH1 -->
<g id="node2" class="node">
<title>NOTCH1</title>
<ellipse fill="lightgray" stroke="black" cx="166.23" cy="-90" rx="51.99" ry="18"/>
<text text-anchor="middle" x="166.23" y="-86.3" font-family="Times,serif" font-size="14.00">NOTCH1</text>
</g>
<!-- DAB1&#45;&gt;NOTCH1 -->
<g id="edge1" class="edge">
<title>DAB1&#45;&gt;NOTCH1</title>
<path fill="none" stroke="green" d="M145.77,-144.05C148.81,-136.18 152.5,-126.62 155.9,-117.79"/>
<polygon fill="green" stroke="green" points="159.24,-118.86 159.57,-108.28 152.71,-116.35 159.24,-118.86"/>
</g>
<!-- epithelial_to_mesenchymal_transition -->
<g id="node7" class="node">
<title>epithelial_to_mesenchymal_transition</title>
<ellipse fill="lightgray" stroke="black" cx="185.23" cy="-18" rx="185.47" ry="18"/>
<text text-anchor="middle" x="185.23" y="-14.3" font-family="Times,serif" font-size="14.00">epithelial_to_mesenchymal_transition</text>
</g>
<!-- NOTCH1&#45;&gt;epithelial_to_mesenchymal_transition -->
<g id="edge11" class="edge">
<title>NOTCH1&#45;&gt;epithelial_to_mesenchymal_transition</title>
<path fill="none" stroke="green" d="M170.83,-72.05C172.95,-64.26 175.51,-54.82 177.88,-46.08"/>
<polygon fill="green" stroke="green" points="181.3,-46.84 180.54,-36.28 174.55,-45.01 181.3,-46.84"/>
</g>
<!-- SRC -->
<g id="node3" class="node">
<title>SRC</title>
<ellipse fill="lightgray" stroke="black" cx="364.23" cy="-234" rx="30.59" ry="18"/>
<text text-anchor="middle" x="364.23" y="-230.3" font-family="Times,serif" font-size="14.00">SRC</text>
</g>
<!-- SRC&#45;&gt;DAB1 -->
<g id="edge2" class="edge">
<title>SRC&#45;&gt;DAB1</title>
<path fill="none" stroke="green" d="M337.07,-225.56C301.84,-215.78 238.59,-197.74 185.23,-180 182.51,-179.09 179.7,-178.13 176.88,-177.14"/>
<polygon fill="green" stroke="green" points="177.94,-173.81 167.35,-173.73 175.58,-180.39 177.94,-173.81"/>
</g>
<!-- ITGB4 -->
<g id="node4" class="node">
<title>ITGB4</title>
<ellipse fill="lightgray" stroke="black" cx="432.23" cy="-162" rx="40.09" ry="18"/>
<text text-anchor="middle" x="432.23" y="-158.3" font-family="Times,serif" font-size="14.00">ITGB4</text>
</g>
<!-- SRC&#45;&gt;ITGB4 -->
<g id="edge3" class="edge">
<title>SRC&#45;&gt;ITGB4</title>
<path fill="none" stroke="green" d="M374.2,-216.76C382.44,-207.18 394.17,-194.94 405.01,-184.55"/>
<polygon fill="green" stroke="green" points="407.41,-187.1 412.32,-177.72 402.62,-181.99 407.41,-187.1"/>
</g>
<!-- CTNNB1 -->
<g id="node5" class="node">
<title>CTNNB1</title>
<ellipse fill="lightgray" stroke="black" cx="246.23" cy="-162" rx="51.99" ry="18"/>
<text text-anchor="middle" x="246.23" y="-158.3" font-family="Times,serif" font-size="14.00">CTNNB1</text>
</g>
<!-- SRC&#45;&gt;CTNNB1 -->
<g id="edge4" class="edge">
<title>SRC&#45;&gt;CTNNB1</title>
<path fill="none" stroke="darkorange" d="M343.41,-220.65C325.89,-210.25 300.5,-195.19 280.06,-183.07"/>
<polygon fill="darkorange" stroke="darkorange" points="269.32,-181.34 273.4,-174.46 280.28,-178.55 276.2,-185.43 269.32,-181.34"/>
<polyline fill="none" stroke="darkorange" points="278.24,-181.99 279.96,-183.01 "/>
</g>
<!-- PTK2 -->
<g id="node6" class="node">
<title>PTK2</title>
<ellipse fill="lightgray" stroke="black" cx="432.23" cy="-90" rx="36" ry="18"/>
<text text-anchor="middle" x="432.23" y="-86.3" font-family="Times,serif" font-size="14.00">PTK2</text>
</g>
<!-- SRC&#45;&gt;PTK2 -->
<g id="edge5" class="edge">
<title>SRC&#45;&gt;PTK2</title>
<path fill="none" stroke="green" d="M393.62,-228.77C421.54,-223.03 462.02,-209.8 481.23,-180 495.45,-157.95 476.6,-131.48 458.31,-113.16"/>
<polygon fill="green" stroke="green" points="460.27,-110.2 450.61,-105.85 455.45,-115.27 460.27,-110.2"/>
</g>
<!-- SRC&#45;&gt;epithelial_to_mesenchymal_transition -->
<g id="edge6" class="edge">
<title>SRC&#45;&gt;epithelial_to_mesenchymal_transition</title>
<path fill="none" stroke="green" d="M354.73,-216.85C343.86,-198.7 325.23,-168.57 307.23,-144 282.62,-110.4 276.5,-101.64 247.23,-72 237.16,-61.8 225.37,-51.39 214.78,-42.51"/>
<polygon fill="green" stroke="green" points="216.91,-39.73 206.97,-36.06 212.45,-45.13 216.91,-39.73"/>
</g>
<!-- ITGB4&#45;&gt;SRC -->
<g id="edge7" class="edge">
<title>ITGB4&#45;&gt;SRC</title>
<path fill="none" stroke="green" d="M421.89,-179.67C413.35,-189.56 401.22,-202.17 390.2,-212.65"/>
<polygon fill="green" stroke="green" points="387.76,-210.14 382.8,-219.5 392.52,-215.27 387.76,-210.14"/>
</g>
<!-- ITGB4&#45;&gt;PTK2 -->
<g id="edge8" class="edge">
<title>ITGB4&#45;&gt;PTK2</title>
<path fill="none" stroke="green" d="M426.36,-144.05C425.53,-136.23 425.29,-126.75 425.64,-117.98"/>
<polygon fill="green" stroke="green" points="429.15,-118.01 426.37,-107.79 422.17,-117.51 429.15,-118.01"/>
</g>
<!-- CTNNB1&#45;&gt;NOTCH1 -->
<g id="edge9" class="edge">
<title>CTNNB1&#45;&gt;NOTCH1</title>
<path fill="none" stroke="green" d="M228.08,-145.12C217.52,-135.87 204.02,-124.07 192.34,-113.84"/>
<polygon fill="green" stroke="green" points="194.42,-111.01 184.59,-107.06 189.81,-116.28 194.42,-111.01"/>
</g>
<!-- CTNNB1&#45;&gt;epithelial_to_mesenchymal_transition -->
<g id="edge10" class="edge">
<title>CTNNB1&#45;&gt;epithelial_to_mesenchymal_transition</title>
<path fill="none" stroke="darkorange" d="M244.91,-143.86C242.97,-125.37 238.28,-95.44 227.23,-72 222.58,-62.12 215.77,-52.43 208.97,-44.08"/>
<polygon fill="darkorange" stroke="darkorange" points="199.23,-38.84 205.31,-33.64 210.51,-39.72 204.42,-44.92 199.23,-38.84"/>
<polyline fill="none" stroke="darkorange" points="207.47,-42.32 208.76,-43.84 "/>
</g>
<!-- PTK2&#45;&gt;ITGB4 -->
<g id="edge12" class="edge">
<title>PTK2&#45;&gt;ITGB4</title>
<path fill="none" stroke="green" d="M438.1,-107.79C438.93,-115.59 439.18,-125.07 438.83,-133.85"/>
<polygon fill="green" stroke="green" points="435.32,-133.83 438.11,-144.05 442.31,-134.33 435.32,-133.83"/>
</g>
<!-- PTPRH -->
<g id="node8" class="node">
<title>PTPRH</title>
<ellipse fill="lightgray" stroke="black" cx="432.23" cy="-18" rx="44.39" ry="18"/>
<text text-anchor="middle" x="432.23" y="-14.3" font-family="Times,serif" font-size="14.00">PTPRH</text>
</g>
<!-- PTK2&#45;&gt;PTPRH -->
<g id="edge13" class="edge">
<title>PTK2&#45;&gt;PTPRH</title>
<path fill="none" stroke="red" d="M426.36,-72.05C425.38,-62.82 425.22,-51.28 425.89,-41.32"/>
<polygon fill="red" stroke="red" points="421.25,-36.85 431.22,-37.69 431.05,-39.69 421.09,-38.84 421.25,-36.85"/>
<polyline fill="none" stroke="red" points="426.32,-36.28 425.9,-41.26 "/>
</g>
<!-- PTPRH&#45;&gt;SRC -->
<g id="edge14" class="edge">
<title>PTPRH&#45;&gt;SRC</title>
<path fill="none" stroke="red" d="M414.49,-34.93C404.82,-44.66 393.57,-57.91 387.23,-72 366.53,-118 363.52,-178.21 363.59,-210.39"/>
<polygon fill="red" stroke="red" points="368.63,-214.65 358.63,-214.73 358.61,-212.73 368.61,-212.65 368.63,-214.65"/>
<polyline fill="none" stroke="red" points="363.63,-215.69 363.6,-210.69 "/>
</g>
<!-- PTPRH&#45;&gt;PTK2 -->
<g id="edge15" class="edge">
<title>PTPRH&#45;&gt;PTK2</title>
<path fill="none" stroke="red" d="M438.15,-36.28C439.11,-45.56 439.24,-57.12 438.55,-67.04"/>
<polygon fill="red" stroke="red" points="443.18,-71.49 433.22,-70.62 433.39,-68.63 443.35,-69.5 443.18,-71.49"/>
<polyline fill="none" stroke="red" points="438.11,-72.05 438.55,-67.07 "/>
</g>
</g>
</svg>
