<?xml version="1.0" encoding="UTF-8" standalone="no"?>
<!DOCTYPE svg PUBLIC "-//W3C//DTD SVG 1.1//EN"
 "http://www.w3.org/Graphics/SVG/1.1/DTD/svg11.dtd">
<!-- Generated by graphviz version 2.43.0 (0)
 -->
<!-- Title: %3 Pages: 1 -->
<svg width="378pt" height="188pt"
 viewBox="0.00 0.00 378.47 188.00" xmlns="http://www.w3.org/2000/svg" xmlns:xlink="http://www.w3.org/1999/xlink">
<g id="graph0" class="graph" transform="scale(1 1) rotate(0) translate(4 184)">
<title>%3</title>
<polygon fill="white" stroke="transparent" points="-4,4 -4,-184 374.47,-184 374.47,4 -4,4"/>
<!-- SRC -->
<g id="node1" class="node">
<title>SRC</title>
<ellipse fill="lightgray" stroke="black" cx="113.23" cy="-162" rx="30.59" ry="18"/>
<text text-anchor="middle" x="113.23" y="-158.3" font-family="Times,serif" font-size="14.00">SRC</text>
</g>
<!-- PTK2 -->
<g id="node2" class="node">
<title>PTK2</title>
<ellipse fill="lightgray" stroke="black" cx="81.23" cy="-90" rx="36" ry="18"/>
<text text-anchor="middle" x="81.23" y="-86.3" font-family="Times,serif" font-size="14.00">PTK2</text>
</g>
<!-- SRC&#45;&gt;PTK2 -->
<g id="edge1" class="edge">
<title>SRC&#45;&gt;PTK2</title>
<path fill="none" stroke="green" d="M105.65,-144.41C101.92,-136.25 97.33,-126.22 93.15,-117.07"/>
<polygon fill="green" stroke="green" points="96.33,-115.6 88.98,-107.96 89.96,-118.51 96.33,-115.6"/>
</g>
<!-- epithelial_to_mesenchymal_transition -->
<g id="node3" class="node">
<title>epithelial_to_mesenchymal_transition</title>
<ellipse fill="lightgray" stroke="black" cx="185.23" cy="-18" rx="185.47" ry="18"/>
<text text-anchor="middle" x="185.23" y="-14.3" font-family="Times,serif" font-size="14.00">epithelial_to_mesenchymal_transition</text>
</g>
<!-- SRC&#45;&gt;epithelial_to_mesenchymal_transition -->
<g id="edge2" class="edge">
<title>SRC&#45;&gt;epithelial_to_mesenchymal_transition</title>
<path fill="none" stroke="red" d="M121.63,-144.43C134.61,-118.84 159.54,-69.68 174.03,-41.09"/>
<polygon fill="red" stroke="red" points="171.53,-34.98 180.45,-39.5 179.54,-41.28 170.62,-36.76 171.53,-34.98"/>
<polyline fill="none" stroke="red" points="176.44,-36.35 174.18,-40.81 "/>
</g>
<!-- PTK2&#45;&gt;epithelial_to_mesenchymal_transition -->
<g id="edge4" class="edge">
<title>PTK2&#45;&gt;epithelial_to_mesenchymal_transition</title>
<path fill="none" stroke="purple" d="M101.78,-75.17C115.47,-65.95 133.83,-53.6 149.84,-42.82"/>
<polygon fill="purple" stroke="purple" points="149.99,-42.72 152.74,-36.05 159.95,-36.02 157.2,-42.69 149.99,-42.72"/>
</g>
<!-- NOTCH1 -->
<g id="node4" class="node">
<title>NOTCH1</title>
<ellipse fill="lightgray" stroke="black" cx="225.23" cy="-90" rx="51.99" ry="18"/>
<text text-anchor="middle" x="225.23" y="-86.3" font-family="Times,serif" font-size="14.00">NOTCH1</text>
</g>
<!-- NOTCH1&#45;&gt;epithelial_to_mesenchymal_transition -->
<g id="edge3" class="edge">
<title>NOTCH1&#45;&gt;epithelial_to_mesenchymal_transition</title>
<path fill="none" stroke="green" d="M210.16,-72.76C204.58,-64.61 198.57,-54.53 193.7,-45.31"/>
<polygon fill="green" stroke="green" points="196.72,-43.51 189.12,-36.12 190.46,-46.63 196.72,-43.51"/>
</g>
<!-- NOTCH1&#45;&gt;epithelial_to_mesenchymal_transition -->
<g id="edge5" class="edge">
<title>NOTCH1&#45;&gt;epithelial_to_mesenchymal_transition</title>
<path fill="none" stroke="green" d="M221.26,-71.7C217.45,-63.56 212.02,-53.69 206.45,-44.7"/>
<polygon fill="green" stroke="green" points="209.27,-42.61 200.9,-36.1 203.39,-46.4 209.27,-42.61"/>
</g>
</g>
</svg>
