<?xml version="1.0" encoding="UTF-8" standalone="no"?>
<!DOCTYPE svg PUBLIC "-//W3C//DTD SVG 1.1//EN"
 "http://www.w3.org/Graphics/SVG/1.1/DTD/svg11.dtd">
<!-- Generated by graphviz version 2.43.0 (0)
 -->
<!-- Title: %3 Pages: 1 -->
<svg width="422pt" height="116pt"
 viewBox="0.00 0.00 421.69 116.00" xmlns="http://www.w3.org/2000/svg" xmlns:xlink="http://www.w3.org/1999/xlink">
<g id="graph0" class="graph" transform="scale(1 1) rotate(0) translate(4 112)">
<title>%3</title>
<polygon fill="white" stroke="transparent" points="-4,4 -4,-112 417.69,-112 417.69,4 -4,4"/>
<!-- MYC -->
<g id="node1" class="node">
<title>MYC</title>
<ellipse fill="none" stroke="black" cx="32.5" cy="-90" rx="32.49" ry="18"/>
<text text-anchor="middle" x="32.5" y="-86.3" font-family="Times,serif" font-size="14.00">MYC</text>
</g>
<!-- CCND1 -->
<g id="node2" class="node">
<title>CCND1</title>
<ellipse fill="lightgray" stroke="black" cx="194.5" cy="-18" rx="45.49" ry="18"/>
<text text-anchor="middle" x="194.5" y="-14.3" font-family="Times,serif" font-size="14.00">CCND1</text>
</g>
<!-- MYC&#45;&gt;CCND1 -->
<g id="edge1" class="edge">
<title>MYC&#45;&gt;CCND1</title>
<path fill="none" stroke="green" d="M57.45,-78.22C83.56,-66.93 124.91,-49.07 155.36,-35.91"/>
<polygon fill="green" stroke="green" points="157.04,-39 164.84,-31.82 154.27,-32.57 157.04,-39"/>
</g>
<!-- CTNNB1 -->
<g id="node3" class="node">
<title>CTNNB1</title>
<ellipse fill="none" stroke="black" cx="134.5" cy="-90" rx="51.99" ry="18"/>
<text text-anchor="middle" x="134.5" y="-86.3" font-family="Times,serif" font-size="14.00">CTNNB1</text>
</g>
<!-- CTNNB1&#45;&gt;CCND1 -->
<g id="edge2" class="edge">
<title>CTNNB1&#45;&gt;CCND1</title>
<path fill="none" stroke="green" d="M148.72,-72.41C156.19,-63.69 165.49,-52.85 173.75,-43.21"/>
<polygon fill="green" stroke="green" points="176.53,-45.34 180.38,-35.47 171.21,-40.78 176.53,-45.34"/>
</g>
<!-- MAPK14 -->
<g id="node4" class="node">
<title>MAPK14</title>
<ellipse fill="none" stroke="black" cx="255.5" cy="-90" rx="51.19" ry="18"/>
<text text-anchor="middle" x="255.5" y="-86.3" font-family="Times,serif" font-size="14.00">MAPK14</text>
</g>
<!-- MAPK14&#45;&gt;CCND1 -->
<g id="edge3" class="edge">
<title>MAPK14&#45;&gt;CCND1</title>
<path fill="none" stroke="red" d="M241.04,-72.41C232.38,-62.47 221.31,-49.77 212.13,-39.24"/>
<polygon fill="red" stroke="red" points="205.74,-39.51 213.28,-32.94 214.59,-34.45 207.05,-41.02 205.74,-39.51"/>
<polyline fill="none" stroke="red" points="208.85,-35.47 212.13,-39.24 "/>
</g>
<!-- GSK3B -->
<g id="node5" class="node">
<title>GSK3B</title>
<ellipse fill="none" stroke="black" cx="369.5" cy="-90" rx="44.39" ry="18"/>
<text text-anchor="middle" x="369.5" y="-86.3" font-family="Times,serif" font-size="14.00">GSK3B</text>
</g>
<!-- GSK3B&#45;&gt;CCND1 -->
<g id="edge4" class="edge">
<title>GSK3B&#45;&gt;CCND1</title>
<path fill="none" stroke="red" d="M339.01,-76.81C308.71,-64.69 262.25,-46.1 230.23,-33.29"/>
<polygon fill="red" stroke="red" points="224.29,-36.3 228,-27.02 229.86,-27.76 226.15,-37.04 224.29,-36.3"/>
<polyline fill="none" stroke="red" points="225.22,-31.29 229.86,-33.15 "/>
</g>
</g>
</svg>
