<?xml version="1.0" encoding="UTF-8" standalone="no"?>
<!DOCTYPE svg PUBLIC "-//W3C//DTD SVG 1.1//EN"
 "http://www.w3.org/Graphics/SVG/1.1/DTD/svg11.dtd">
<!-- Generated by graphviz version 2.43.0 (0)
 -->
<!-- Title: %3 Pages: 1 -->
<svg width="2960pt" height="1916pt"
 viewBox="0.00 0.00 2960.00 1916.00" xmlns="http://www.w3.org/2000/svg" xmlns:xlink="http://www.w3.org/1999/xlink">
<g id="graph0" class="graph" transform="scale(1 1) rotate(0) translate(4 1912)">
<title>%3</title>
<polygon fill="white" stroke="transparent" points="-4,4 -4,-1912 2956,-1912 2956,4 -4,4"/>
<!-- NOTCH1 -->
<g id="node1" class="node">
<title>NOTCH1</title>
<ellipse fill="lightgray" stroke="black" cx="2642" cy="-1890" rx="51.99" ry="18"/>
<text text-anchor="middle" x="2642" y="-1886.3" font-family="Times,serif" font-size="14.00">NOTCH1</text>
</g>
<!-- FLT4 -->
<g id="node2" class="node">
<title>FLT4</title>
<ellipse fill="lightgray" stroke="black" cx="260" cy="-1818" rx="34.39" ry="18"/>
<text text-anchor="middle" x="260" y="-1814.3" font-family="Times,serif" font-size="14.00">FLT4</text>
</g>
<!-- NOTCH1&#45;&gt;FLT4 -->
<g id="edge1" class="edge">
<title>NOTCH1&#45;&gt;FLT4</title>
<path fill="none" stroke="green" d="M2590.31,-1887.48C2273.81,-1878.18 601.37,-1829.03 304.93,-1820.32"/>
<polygon fill="green" stroke="green" points="304.68,-1816.81 294.58,-1820.02 304.47,-1823.81 304.68,-1816.81"/>
</g>
<!-- TP53 -->
<g id="node17" class="node">
<title>TP53</title>
<ellipse fill="lightgray" stroke="black" cx="2525" cy="-234" rx="34.39" ry="18"/>
<text text-anchor="middle" x="2525" y="-230.3" font-family="Times,serif" font-size="14.00">TP53</text>
</g>
<!-- NOTCH1&#45;&gt;TP53 -->
<g id="edge36" class="edge">
<title>NOTCH1&#45;&gt;TP53</title>
<path fill="none" stroke="red" d="M2693.89,-1887.94C2782.14,-1883.09 2952,-1859.18 2952,-1747 2952,-1747 2952,-1747 2952,-521 2952,-401.09 2922.58,-342.94 2816,-288 2733.81,-245.63 2623.27,-236.65 2564.93,-235.04"/>
<polygon fill="red" stroke="red" points="2560.67,-239.94 2560.91,-229.94 2562.91,-229.99 2562.66,-239.99 2560.67,-239.94"/>
<polyline fill="none" stroke="red" points="2559.79,-234.91 2564.79,-235.04 "/>
</g>
<!-- FOS -->
<g id="node22" class="node">
<title>FOS</title>
<ellipse fill="lightgray" stroke="black" cx="2686" cy="-306" rx="30.59" ry="18"/>
<text text-anchor="middle" x="2686" y="-302.3" font-family="Times,serif" font-size="14.00">FOS</text>
</g>
<!-- NOTCH1&#45;&gt;FOS -->
<g id="edge48" class="edge">
<title>NOTCH1&#45;&gt;FOS</title>
<path fill="none" stroke="red" d="M2685.51,-1880.09C2747.02,-1864.66 2852,-1826.66 2852,-1747 2852,-1747 2852,-1747 2852,-1241 2852,-1145.69 2838,-1122.31 2838,-1027 2838,-1027 2838,-1027 2838,-593 2838,-482.92 2818.62,-449.12 2754,-360 2742.77,-344.52 2725.81,-331.28 2711.64,-321.92"/>
<polygon fill="red" stroke="red" points="2705.46,-323.87 2710.89,-315.48 2712.57,-316.56 2707.14,-324.96 2705.46,-323.87"/>
<polyline fill="none" stroke="red" points="2707.34,-319.13 2711.54,-321.85 "/>
</g>
<!-- PTK2 -->
<g id="node3" class="node">
<title>PTK2</title>
<ellipse fill="lightgray" stroke="black" cx="1161" cy="-1746" rx="36" ry="18"/>
<text text-anchor="middle" x="1161" y="-1742.3" font-family="Times,serif" font-size="14.00">PTK2</text>
</g>
<!-- FLT4&#45;&gt;PTK2 -->
<g id="edge2" class="edge">
<title>FLT4&#45;&gt;PTK2</title>
<path fill="none" stroke="green" d="M293.95,-1814.36C432.72,-1803.58 957.02,-1762.85 1115.41,-1750.54"/>
<polygon fill="green" stroke="green" points="1116.04,-1754 1125.74,-1749.74 1115.5,-1747.02 1116.04,-1754"/>
</g>
<!-- PRKCA -->
<g id="node11" class="node">
<title>PRKCA</title>
<ellipse fill="lightgray" stroke="black" cx="1601" cy="-954" rx="43.59" ry="18"/>
<text text-anchor="middle" x="1601" y="-950.3" font-family="Times,serif" font-size="14.00">PRKCA</text>
</g>
<!-- FLT4&#45;&gt;PRKCA -->
<g id="edge18" class="edge">
<title>FLT4&#45;&gt;PRKCA</title>
<path fill="none" stroke="green" d="M294.33,-1816C541.53,-1808.66 2042.03,-1761.29 2106,-1692 2116.85,-1680.24 2111.75,-1670.93 2106,-1656 2036.23,-1474.82 1922.33,-1492.44 1813,-1332 1722.45,-1199.12 1744.6,-1139.46 1652,-1008 1644.42,-997.23 1634.67,-986.54 1625.73,-977.61"/>
<polygon fill="green" stroke="green" points="1628.08,-975.02 1618.47,-970.56 1623.2,-980.04 1628.08,-975.02"/>
</g>
<!-- SRC -->
<g id="node28" class="node">
<title>SRC</title>
<ellipse fill="lightgray" stroke="black" cx="799" cy="-378" rx="30.59" ry="18"/>
<text text-anchor="middle" x="799" y="-374.3" font-family="Times,serif" font-size="14.00">SRC</text>
</g>
<!-- FLT4&#45;&gt;SRC -->
<g id="edge126" class="edge">
<title>FLT4&#45;&gt;SRC</title>
<path fill="none" stroke="green" d="M227.32,-1811.99C165.42,-1799.82 38,-1763 38,-1675 38,-1675 38,-1675 38,-1169 38,-1065.12 132,-1058.88 132,-955 132,-955 132,-955 132,-881 132,-621.28 262.58,-522.56 506,-432 592.08,-399.98 700.31,-386.65 758.26,-381.66"/>
<polygon fill="green" stroke="green" points="758.8,-385.12 768.48,-380.82 758.23,-378.15 758.8,-385.12"/>
</g>
<!-- SHC1 -->
<g id="node32" class="node">
<title>SHC1</title>
<ellipse fill="lightgray" stroke="black" cx="799" cy="-162" rx="37.89" ry="18"/>
<text text-anchor="middle" x="799" y="-158.3" font-family="Times,serif" font-size="14.00">SHC1</text>
</g>
<!-- FLT4&#45;&gt;SHC1 -->
<g id="edge128" class="edge">
<title>FLT4&#45;&gt;SHC1</title>
<path fill="none" stroke="green" d="M226.28,-1814.15C155.93,-1806.16 0,-1776.96 0,-1675 0,-1675 0,-1675 0,-809 0,-637.35 337.44,-284.12 495,-216 580.3,-179.12 689.58,-167.89 751.18,-164.48"/>
<polygon fill="green" stroke="green" points="751.57,-167.96 761.38,-163.96 751.21,-160.97 751.57,-167.96"/>
</g>
<!-- GRB2 -->
<g id="node33" class="node">
<title>GRB2</title>
<ellipse fill="lightgray" stroke="black" cx="1552" cy="-234" rx="37.89" ry="18"/>
<text text-anchor="middle" x="1552" y="-230.3" font-family="Times,serif" font-size="14.00">GRB2</text>
</g>
<!-- FLT4&#45;&gt;GRB2 -->
<g id="edge129" class="edge">
<title>FLT4&#45;&gt;GRB2</title>
<path fill="none" stroke="green" d="M294.63,-1816.53C567.15,-1812.62 2356,-1782.82 2356,-1675 2356,-1675 2356,-1675 2356,-1385 2356,-1240.98 2304,-883.02 2304,-739 2304,-739 2304,-739 2304,-665 2304,-410.84 2110.84,-380.23 1874,-288 1781.23,-251.87 1664.11,-240.37 1599.77,-236.71"/>
<polygon fill="green" stroke="green" points="1599.7,-233.2 1589.53,-236.17 1599.33,-240.19 1599.7,-233.2"/>
</g>
<!-- PLCG1 -->
<g id="node34" class="node">
<title>PLCG1</title>
<ellipse fill="lightgray" stroke="black" cx="1081" cy="-882" rx="42.79" ry="18"/>
<text text-anchor="middle" x="1081" y="-878.3" font-family="Times,serif" font-size="14.00">PLCG1</text>
</g>
<!-- FLT4&#45;&gt;PLCG1 -->
<g id="edge130" class="edge">
<title>FLT4&#45;&gt;PLCG1</title>
<path fill="none" stroke="green" d="M262.58,-1800.01C270.27,-1752.44 295.73,-1614.73 347,-1512 467.83,-1269.89 558.97,-1241.6 776,-1080 863.56,-1014.8 881.65,-992.6 975,-936 996.97,-922.68 1022.73,-909.74 1043.35,-899.99"/>
<polygon fill="green" stroke="green" points="1044.86,-903.15 1052.43,-895.74 1041.89,-896.8 1044.86,-903.15"/>
</g>
<!-- BCAR1 -->
<g id="node35" class="node">
<title>BCAR1</title>
<ellipse fill="lightgray" stroke="black" cx="577" cy="-1602" rx="43.59" ry="18"/>
<text text-anchor="middle" x="577" y="-1598.3" font-family="Times,serif" font-size="14.00">BCAR1</text>
</g>
<!-- FLT4&#45;&gt;BCAR1 -->
<g id="edge131" class="edge">
<title>FLT4&#45;&gt;BCAR1</title>
<path fill="none" stroke="green" d="M280.31,-1803.29C334.47,-1766.72 482.58,-1666.74 546.72,-1623.44"/>
<polygon fill="green" stroke="green" points="548.86,-1626.22 555.19,-1617.72 544.95,-1620.41 548.86,-1626.22"/>
</g>
<!-- EPHA2 -->
<g id="node6" class="node">
<title>EPHA2</title>
<ellipse fill="lightgray" stroke="black" cx="1161" cy="-1674" rx="44.39" ry="18"/>
<text text-anchor="middle" x="1161" y="-1670.3" font-family="Times,serif" font-size="14.00">EPHA2</text>
</g>
<!-- PTK2&#45;&gt;EPHA2 -->
<g id="edge7" class="edge">
<title>PTK2&#45;&gt;EPHA2</title>
<path fill="none" stroke="green" d="M1155.12,-1728.05C1154.3,-1720.35 1154.06,-1711.03 1154.39,-1702.36"/>
<polygon fill="green" stroke="green" points="1157.89,-1702.49 1155.09,-1692.28 1150.91,-1702.01 1157.89,-1702.49"/>
</g>
<!-- CDC42 -->
<g id="node7" class="node">
<title>CDC42</title>
<ellipse fill="lightgray" stroke="black" cx="1350" cy="-810" rx="43.59" ry="18"/>
<text text-anchor="middle" x="1350" y="-806.3" font-family="Times,serif" font-size="14.00">CDC42</text>
</g>
<!-- PTK2&#45;&gt;CDC42 -->
<g id="edge8" class="edge">
<title>PTK2&#45;&gt;CDC42</title>
<path fill="none" stroke="green" d="M1195.19,-1740.4C1292.16,-1726.42 1562,-1680.55 1562,-1603 1562,-1603 1562,-1603 1562,-1313 1562,-1165.13 1392,-1174.87 1392,-1027 1392,-1027 1392,-1027 1392,-953 1392,-911.15 1375.01,-865.1 1362.65,-837.11"/>
<polygon fill="green" stroke="green" points="1365.83,-835.66 1358.5,-828.01 1359.46,-838.56 1365.83,-835.66"/>
</g>
<!-- PTK2&#45;&gt;PRKCA -->
<g id="edge16" class="edge">
<title>PTK2&#45;&gt;PRKCA</title>
<path fill="none" stroke="green" d="M1196.81,-1743.52C1319.44,-1737.69 1714,-1710.93 1714,-1603 1714,-1603 1714,-1603 1714,-1457 1714,-1270.64 1633.63,-1056.1 1608.17,-981.89"/>
<polygon fill="green" stroke="green" points="1611.34,-980.33 1604.82,-971.97 1604.7,-982.57 1611.34,-980.33"/>
</g>
<!-- INSR -->
<g id="node12" class="node">
<title>INSR</title>
<ellipse fill="lightgray" stroke="black" cx="197" cy="-90" rx="35.19" ry="18"/>
<text text-anchor="middle" x="197" y="-86.3" font-family="Times,serif" font-size="14.00">INSR</text>
</g>
<!-- PTK2&#45;&gt;INSR -->
<g id="edge21" class="edge">
<title>PTK2&#45;&gt;INSR</title>
<path fill="none" stroke="green" d="M1125.14,-1744.06C987.76,-1740.09 496.13,-1723.43 344,-1692 228.5,-1668.13 94,-1720.94 94,-1603 94,-1603 94,-1603 94,-1169 94,-1070.69 38,-1053.31 38,-955 38,-955 38,-955 38,-809 38,-681.89 38,-650.11 38,-523 38,-523 38,-523 38,-305 38,-219.36 119.54,-143.67 165.99,-109.81"/>
<polygon fill="green" stroke="green" points="168.09,-112.62 174.23,-103.99 164.05,-106.91 168.09,-112.62"/>
</g>
<!-- ITGB1 -->
<g id="node13" class="node">
<title>ITGB1</title>
<ellipse fill="lightgray" stroke="black" cx="1234" cy="-306" rx="40.09" ry="18"/>
<text text-anchor="middle" x="1234" y="-302.3" font-family="Times,serif" font-size="14.00">ITGB1</text>
</g>
<!-- PTK2&#45;&gt;ITGB1 -->
<g id="edge28" class="edge">
<title>PTK2&#45;&gt;ITGB1</title>
<path fill="none" stroke="green" d="M1196.61,-1743.66C1295.8,-1739.73 1572.67,-1726.26 1657,-1692 1716.23,-1667.94 1770,-1666.93 1770,-1603 1770,-1603 1770,-1603 1770,-1313 1770,-1191.4 1808.84,-1165.09 1820,-1044 1835.64,-874.3 1750,-837.42 1750,-667 1750,-667 1750,-667 1750,-593 1750,-463.76 1688.08,-424.36 1576,-360 1526.73,-331.71 1366.38,-316.68 1283.86,-310.48"/>
<polygon fill="green" stroke="green" points="1283.94,-306.98 1273.71,-309.73 1283.43,-313.96 1283.94,-306.98"/>
</g>
<!-- PTK2&#45;&gt;SRC -->
<g id="edge80" class="edge">
<title>PTK2&#45;&gt;SRC</title>
<path fill="none" stroke="green" d="M1125.09,-1744.11C984.37,-1740.23 476.01,-1723.64 412,-1692 261.23,-1617.47 188,-1555.19 188,-1387 188,-1387 188,-1387 188,-1097 188,-803.22 297.22,-733.99 480,-504 509.35,-467.07 516.26,-454 558,-432 622.49,-398.01 708.3,-385.7 758.35,-381.33"/>
<polygon fill="green" stroke="green" points="758.78,-384.8 768.46,-380.51 758.21,-377.83 758.78,-384.8"/>
</g>
<!-- RAC1 -->
<g id="node29" class="node">
<title>RAC1</title>
<ellipse fill="lightgray" stroke="black" cx="1334" cy="-450" rx="36.29" ry="18"/>
<text text-anchor="middle" x="1334" y="-446.3" font-family="Times,serif" font-size="14.00">RAC1</text>
</g>
<!-- PTK2&#45;&gt;RAC1 -->
<g id="edge102" class="edge">
<title>PTK2&#45;&gt;RAC1</title>
<path fill="none" stroke="green" d="M1125.19,-1744.54C1017.34,-1742.68 697.2,-1733.72 603,-1692 493.97,-1643.72 470,-1578.24 470,-1459 470,-1459 470,-1459 470,-1385 470,-1255.48 526,-1228.52 526,-1099 526,-1099 526,-1099 526,-1025 526,-646.41 1122.83,-494.59 1290.6,-459.39"/>
<polygon fill="green" stroke="green" points="1291.48,-462.79 1300.56,-457.34 1290.06,-455.93 1291.48,-462.79"/>
</g>
<!-- RHOA -->
<g id="node30" class="node">
<title>RHOA</title>
<ellipse fill="lightgray" stroke="black" cx="931" cy="-1458" rx="38.99" ry="18"/>
<text text-anchor="middle" x="931" y="-1454.3" font-family="Times,serif" font-size="14.00">RHOA</text>
</g>
<!-- PTK2&#45;&gt;RHOA -->
<g id="edge103" class="edge">
<title>PTK2&#45;&gt;RHOA</title>
<path fill="none" stroke="green" d="M1139.61,-1731.56C1127.11,-1721.02 1111.81,-1705.86 1099,-1692 1041.86,-1630.19 1025.32,-1616.2 976,-1548 961.43,-1527.86 946.93,-1503.67 938.03,-1485.6"/>
<polygon fill="green" stroke="green" points="941.07,-1483.85 933.69,-1476.25 934.72,-1486.8 941.07,-1483.85"/>
</g>
<!-- PTK2&#45;&gt;SHC1 -->
<g id="edge105" class="edge">
<title>PTK2&#45;&gt;SHC1</title>
<path fill="none" stroke="green" d="M1196.51,-1743.21C1364.94,-1734.57 2074,-1693.9 2074,-1603 2074,-1603 2074,-1603 2074,-1457 2074,-1327.83 2152.09,-1313.16 2184,-1188 2209.74,-1087.03 2210,-1059.2 2210,-955 2210,-955 2210,-955 2210,-881 2210,-784.4 2172,-763.6 2172,-667 2172,-667 2172,-667 2172,-521 2172,-349.71 2019.04,-362.91 1865,-288 1751.38,-232.75 1714.71,-236.27 1590,-216 1310.99,-170.65 971.21,-163.9 847.15,-163.04"/>
<polygon fill="green" stroke="green" points="846.88,-159.54 836.86,-162.98 846.83,-166.54 846.88,-159.54"/>
</g>
<!-- PTK2&#45;&gt;GRB2 -->
<g id="edge107" class="edge">
<title>PTK2&#45;&gt;GRB2</title>
<path fill="none" stroke="green" d="M1196.49,-1743.14C1366.41,-1734.59 2087.92,-1699.13 2097,-1692 2182.15,-1625.15 2168,-1567.26 2168,-1459 2168,-1459 2168,-1459 2168,-1385 2168,-1193.79 2154,-1146.21 2154,-955 2154,-955 2154,-955 2154,-881 2154,-729.54 1952.03,-358.54 1818,-288 1747.87,-251.09 1655.56,-239.7 1600.07,-236.29"/>
<polygon fill="green" stroke="green" points="1599.99,-232.78 1589.82,-235.72 1599.61,-239.77 1599.99,-232.78"/>
</g>
<!-- PTK2&#45;&gt;PLCG1 -->
<g id="edge109" class="edge">
<title>PTK2&#45;&gt;PLCG1</title>
<path fill="none" stroke="green" d="M1128.82,-1737.91C1057.45,-1720.24 886.81,-1666.86 818,-1548 809.98,-1534.15 816.08,-1527.88 818,-1512 832.77,-1389.79 884,-1366.1 884,-1243 884,-1243 884,-1243 884,-1169 884,-1051.72 997.73,-947.55 1052.37,-904.27"/>
<polygon fill="green" stroke="green" points="1054.56,-907.01 1060.29,-898.1 1050.25,-901.48 1054.56,-907.01"/>
</g>
<!-- PTK2&#45;&gt;BCAR1 -->
<g id="edge110" class="edge">
<title>PTK2&#45;&gt;BCAR1</title>
<path fill="none" stroke="green" d="M1125.28,-1744.99C1022.25,-1744.41 726.6,-1738.62 644,-1692 618.73,-1677.74 600.07,-1649.63 588.95,-1628.8"/>
<polygon fill="green" stroke="green" points="592.03,-1627.14 584.37,-1619.81 585.79,-1630.31 592.03,-1627.14"/>
</g>
<!-- GSK3B -->
<g id="node4" class="node">
<title>GSK3B</title>
<ellipse fill="lightgray" stroke="black" cx="1866" cy="-1314" rx="44.39" ry="18"/>
<text text-anchor="middle" x="1866" y="-1310.3" font-family="Times,serif" font-size="14.00">GSK3B</text>
</g>
<!-- GSK3B&#45;&gt;NOTCH1 -->
<g id="edge3" class="edge">
<title>GSK3B&#45;&gt;NOTCH1</title>
<path fill="none" stroke="green" d="M1907.16,-1320.73C2037.41,-1341.38 2432,-1424.47 2432,-1673 2432,-1747 2432,-1747 2432,-1747 2432,-1822.61 2526.59,-1860.69 2588.8,-1877.56"/>
<polygon fill="green" stroke="green" points="2587.93,-1880.95 2598.49,-1880.09 2589.7,-1874.18 2587.93,-1880.95"/>
</g>
<!-- CDH1 -->
<g id="node5" class="node">
<title>CDH1</title>
<ellipse fill="lightgray" stroke="black" cx="1340" cy="-522" rx="38.19" ry="18"/>
<text text-anchor="middle" x="1340" y="-518.3" font-family="Times,serif" font-size="14.00">CDH1</text>
</g>
<!-- GSK3B&#45;&gt;CDH1 -->
<g id="edge4" class="edge">
<title>GSK3B&#45;&gt;CDH1</title>
<path fill="none" stroke="green" d="M1867.26,-1295.92C1870.09,-1248.13 1873.58,-1109.89 1829,-1008 1816.38,-979.15 1487.29,-594.76 1462,-576 1437.6,-557.9 1406.07,-544.41 1381.17,-535.57"/>
<polygon fill="green" stroke="green" points="1382.23,-532.23 1371.64,-532.29 1379.96,-538.85 1382.23,-532.23"/>
</g>
<!-- GSK3B&#45;&gt;TP53 -->
<g id="edge39" class="edge">
<title>GSK3B&#45;&gt;TP53</title>
<path fill="none" stroke="purple" d="M1909.65,-1310.7C2054.51,-1302.93 2511.6,-1277.16 2538,-1260 2728.04,-1136.43 2610,-889.86 2610,-523 2610,-523 2610,-523 2610,-377 2610,-329.92 2575.17,-284.92 2550.1,-258.64"/>
<polygon fill="purple" stroke="purple" points="2549.83,-258.36 2542.76,-256.91 2541.39,-249.83 2548.45,-251.29 2549.83,-258.36"/>
</g>
<!-- MAP3K1 -->
<g id="node19" class="node">
<title>MAP3K1</title>
<ellipse fill="lightgray" stroke="black" cx="1847" cy="-738" rx="51.19" ry="18"/>
<text text-anchor="middle" x="1847" y="-734.3" font-family="Times,serif" font-size="14.00">MAP3K1</text>
</g>
<!-- GSK3B&#45;&gt;MAP3K1 -->
<g id="edge43" class="edge">
<title>GSK3B&#45;&gt;MAP3K1</title>
<path fill="none" stroke="green" d="M1872.56,-1295.87C1889.48,-1249.63 1932.3,-1118.27 1918,-1008 1906.22,-917.19 1872.95,-813.35 1856.48,-765.58"/>
<polygon fill="green" stroke="green" points="1859.73,-764.29 1853.14,-756 1853.12,-766.6 1859.73,-764.29"/>
</g>
<!-- CDK1 -->
<g id="node23" class="node">
<title>CDK1</title>
<ellipse fill="lightgray" stroke="black" cx="2491" cy="-1242" rx="37.89" ry="18"/>
<text text-anchor="middle" x="2491" y="-1238.3" font-family="Times,serif" font-size="14.00">CDK1</text>
</g>
<!-- GSK3B&#45;&gt;CDK1 -->
<g id="edge52" class="edge">
<title>GSK3B&#45;&gt;CDK1</title>
<path fill="none" stroke="red" d="M1907.98,-1308.3C2021.94,-1295.53 2336.15,-1260.34 2449.52,-1247.65"/>
<polygon fill="red" stroke="red" points="2453.22,-1242.2 2454.33,-1252.14 2452.34,-1252.36 2451.23,-1242.42 2453.22,-1242.2"/>
<polyline fill="none" stroke="red" points="2454.77,-1247.06 2449.8,-1247.61 "/>
</g>
<!-- CDH1&#45;&gt;EPHA2 -->
<g id="edge5" class="edge">
<title>CDH1&#45;&gt;EPHA2</title>
<path fill="none" stroke="green" d="M1365.64,-535.44C1381.09,-544.42 1399.55,-558.1 1409,-576 1461.29,-675.08 1433.85,-720.3 1403,-828 1365.72,-958.16 1260,-961.6 1260,-1097 1260,-1531 1260,-1531 1260,-1531 1260,-1580.72 1218.65,-1625.48 1189.4,-1650.93"/>
<polygon fill="green" stroke="green" points="1186.9,-1648.46 1181.51,-1657.58 1191.41,-1653.81 1186.9,-1648.46"/>
</g>
<!-- RAP1A -->
<g id="node25" class="node">
<title>RAP1A</title>
<ellipse fill="lightgray" stroke="black" cx="1340" cy="-594" rx="42.49" ry="18"/>
<text text-anchor="middle" x="1340" y="-590.3" font-family="Times,serif" font-size="14.00">RAP1A</text>
</g>
<!-- CDH1&#45;&gt;RAP1A -->
<g id="edge63" class="edge">
<title>CDH1&#45;&gt;RAP1A</title>
<path fill="none" stroke="green" d="M1345.86,-539.79C1346.7,-547.59 1346.94,-557.07 1346.6,-565.85"/>
<polygon fill="green" stroke="green" points="1343.09,-565.83 1345.88,-576.05 1350.07,-566.33 1343.09,-565.83"/>
</g>
<!-- CDH1&#45;&gt;SRC -->
<g id="edge94" class="edge">
<title>CDH1&#45;&gt;SRC</title>
<path fill="none" stroke="green" d="M1306.3,-513.09C1245.15,-497.35 1112.69,-461.09 1001,-432 943.04,-416.91 875.93,-400.18 835.38,-389.63"/>
<polygon fill="green" stroke="green" points="836.23,-386.23 825.67,-387.09 834.46,-393 836.23,-386.23"/>
</g>
<!-- CDH1&#45;&gt;RAC1 -->
<g id="edge96" class="edge">
<title>CDH1&#45;&gt;RAC1</title>
<path fill="none" stroke="green" d="M1332.67,-504.05C1331.19,-496.35 1330.15,-487.03 1329.74,-478.36"/>
<polygon fill="green" stroke="green" points="1333.24,-478.21 1329.57,-468.28 1326.24,-478.33 1333.24,-478.21"/>
</g>
<!-- CDH1&#45;&gt;RHOA -->
<g id="edge98" class="edge">
<title>CDH1&#45;&gt;RHOA</title>
<path fill="none" stroke="green" d="M1323.62,-538.57C1313.23,-548.8 1299.76,-562.7 1289,-576 1252.56,-621.04 1250.03,-637.11 1216,-684 1192.19,-716.81 1186.16,-725.03 1160,-756 1131.98,-789.16 1128.1,-801.13 1094,-828 1068.06,-848.44 1046.82,-836.2 1029,-864 968.38,-958.55 1024.97,-1004.68 1010,-1116 992.62,-1245.23 992.63,-1279.46 954,-1404 951.22,-1412.95 947.41,-1422.43 943.69,-1430.86"/>
<polygon fill="green" stroke="green" points="940.4,-1429.62 939.42,-1440.17 946.77,-1432.54 940.4,-1429.62"/>
</g>
<!-- EPHA2&#45;&gt;PTK2 -->
<g id="edge6" class="edge">
<title>EPHA2&#45;&gt;PTK2</title>
<path fill="none" stroke="red" d="M1166.91,-1692.28C1167.87,-1701.56 1168.01,-1713.12 1167.32,-1723.04"/>
<polygon fill="red" stroke="red" points="1171.95,-1727.49 1161.98,-1726.62 1162.16,-1724.63 1172.12,-1725.5 1171.95,-1727.49"/>
<polyline fill="none" stroke="red" points="1166.88,-1728.05 1167.31,-1723.07 "/>
</g>
<!-- EPHA2&#45;&gt;RAC1 -->
<g id="edge76" class="edge">
<title>EPHA2&#45;&gt;RAC1</title>
<path fill="none" stroke="red" d="M1205.17,-1673.17C1294.03,-1670.95 1486,-1652.15 1486,-1531 1486,-1531 1486,-1531 1486,-1457 1486,-1385.41 1493.21,-1367.56 1491,-1296 1482.11,-1007.59 1500.59,-932.25 1451,-648 1438.96,-579.01 1430.04,-559.25 1387,-504 1377.46,-491.75 1365.29,-479.4 1355.02,-469.71"/>
<polygon fill="red" stroke="red" points="1348.65,-470.6 1355.48,-463.3 1356.94,-464.66 1350.12,-471.97 1348.65,-470.6"/>
<polyline fill="none" stroke="red" points="1351.34,-466.27 1354.99,-469.68 "/>
</g>
<!-- EPHA2&#45;&gt;RHOA -->
<g id="edge78" class="edge">
<title>EPHA2&#45;&gt;RHOA</title>
<path fill="none" stroke="green" d="M1144.09,-1657.26C1103.78,-1619.76 1001.94,-1525.01 955.17,-1481.49"/>
<polygon fill="green" stroke="green" points="957.33,-1478.72 947.63,-1474.47 952.56,-1483.84 957.33,-1478.72"/>
</g>
<!-- RASA1 -->
<g id="node31" class="node">
<title>RASA1</title>
<ellipse fill="lightgray" stroke="black" cx="639" cy="-18" rx="42.49" ry="18"/>
<text text-anchor="middle" x="639" y="-14.3" font-family="Times,serif" font-size="14.00">RASA1</text>
</g>
<!-- EPHA2&#45;&gt;RASA1 -->
<g id="edge81" class="edge">
<title>EPHA2&#45;&gt;RASA1</title>
<path fill="none" stroke="green" d="M1116.82,-1673.2C974.62,-1673.32 530.33,-1669.63 397,-1620 255.57,-1567.35 150,-1537.91 150,-1387 150,-1387 150,-1387 150,-1169 150,-1070.69 94,-1053.31 94,-955 94,-955 94,-955 94,-737 94,-633.12 0,-626.88 0,-523 0,-523 0,-523 0,-161 0,-41.16 433.7,-22.4 586.5,-19.51"/>
<polygon fill="green" stroke="green" points="586.64,-23.01 596.58,-19.34 586.52,-16.01 586.64,-23.01"/>
</g>
<!-- EPHA2&#45;&gt;SHC1 -->
<g id="edge83" class="edge">
<title>EPHA2&#45;&gt;SHC1</title>
<path fill="none" stroke="green" d="M1117.22,-1671.09C992.52,-1665.36 637.19,-1647.06 524,-1620 441.4,-1600.25 412.28,-1602.32 347,-1548 281.7,-1493.67 244,-1471.95 244,-1387 244,-1387 244,-1387 244,-1313 244,-1214.69 300,-1197.31 300,-1099 300,-1099 300,-1099 300,-1025 300,-926.69 244,-909.31 244,-811 244,-811 244,-811 244,-737 244,-517.63 271.9,-417.46 449,-288 498.6,-251.75 510.09,-239.14 567,-216 628.86,-190.84 705.1,-176.33 752.89,-169.04"/>
<polygon fill="green" stroke="green" points="753.56,-172.48 762.93,-167.55 752.53,-165.56 753.56,-172.48"/>
</g>
<!-- EPHA2&#45;&gt;GRB2 -->
<g id="edge85" class="edge">
<title>EPHA2&#45;&gt;GRB2</title>
<path fill="none" stroke="green" d="M1204.63,-1670.51C1293.17,-1664.9 1490.65,-1649.41 1551,-1620 1612.88,-1589.85 1605.21,-1550.9 1662,-1512 1760.96,-1444.21 2130,-1362.96 2130,-1243 2130,-1243 2130,-1243 2130,-1169 2130,-1073.69 2116,-1050.31 2116,-955 2116,-955 2116,-955 2116,-881 2116,-730.51 1921.84,-358.72 1789,-288 1728.54,-255.82 1649.38,-243.14 1599.6,-238.17"/>
<polygon fill="green" stroke="green" points="1599.72,-234.66 1589.44,-237.22 1599.07,-241.63 1599.72,-234.66"/>
</g>
<!-- EPHA2&#45;&gt;PLCG1 -->
<g id="edge87" class="edge">
<title>EPHA2&#45;&gt;PLCG1</title>
<path fill="none" stroke="green" d="M1169.7,-1656.02C1182.27,-1629.87 1204,-1577.88 1204,-1531 1204,-1531 1204,-1531 1204,-1457 1204,-1294.34 1128,-1261.66 1128,-1099 1128,-1099 1128,-1099 1128,-1025 1128,-982.72 1108.99,-936.79 1095.15,-908.95"/>
<polygon fill="green" stroke="green" points="1098.19,-907.19 1090.51,-899.89 1091.96,-910.38 1098.19,-907.19"/>
</g>
<!-- EPHA2&#45;&gt;BCAR1 -->
<g id="edge89" class="edge">
<title>EPHA2&#45;&gt;BCAR1</title>
<path fill="none" stroke="green" d="M1119,-1667.97C1014.38,-1655.43 742.4,-1622.83 628.43,-1609.16"/>
<polygon fill="green" stroke="green" points="628.57,-1605.66 618.23,-1607.94 627.74,-1612.61 628.57,-1605.66"/>
</g>
<!-- CDC42&#45;&gt;GSK3B -->
<g id="edge11" class="edge">
<title>CDC42&#45;&gt;GSK3B</title>
<path fill="none" stroke="red" d="M1368.01,-826.42C1379.43,-836.59 1394.22,-850.47 1406,-864 1496.4,-967.79 1488.33,-1019.02 1586,-1116 1666.41,-1195.84 1782.34,-1266.02 1836.29,-1296.65"/>
<polygon fill="red" stroke="red" points="1842.28,-1294.29 1837.36,-1302.99 1835.62,-1302.01 1840.54,-1293.31 1842.28,-1294.29"/>
<polyline fill="none" stroke="red" points="1840.69,-1299.13 1836.34,-1296.67 "/>
</g>
<!-- CDC42&#45;&gt;CDH1 -->
<g id="edge9" class="edge">
<title>CDC42&#45;&gt;CDH1</title>
<path fill="none" stroke="red" d="M1358.99,-792.25C1378.77,-753.04 1421.94,-652.76 1391,-576 1385.43,-562.18 1374.35,-549.95 1363.93,-540.73"/>
<polygon fill="red" stroke="red" points="1357.63,-541.92 1364.15,-534.33 1365.66,-535.63 1359.15,-543.22 1357.63,-541.92"/>
<polyline fill="none" stroke="red" points="1360.13,-537.47 1363.93,-540.73 "/>
</g>
<!-- CDC42&#45;&gt;MAP3K1 -->
<g id="edge44" class="edge">
<title>CDC42&#45;&gt;MAP3K1</title>
<path fill="none" stroke="green" d="M1383.19,-798.25C1391.25,-795.93 1399.88,-793.67 1408,-792 1541.86,-764.5 1701.83,-749.62 1786.87,-743.1"/>
<polygon fill="green" stroke="green" points="1787.15,-746.59 1796.86,-742.35 1786.63,-739.61 1787.15,-746.59"/>
</g>
<!-- CDC42&#45;&gt;BCAR1 -->
<g id="edge139" class="edge">
<title>CDC42&#45;&gt;BCAR1</title>
<path fill="none" stroke="green" d="M1324.1,-824.59C1286.7,-846.31 1222,-892.59 1222,-953 1222,-1099 1222,-1099 1222,-1099 1222,-1242.53 1072,-1241.47 1072,-1385 1072,-1459 1072,-1459 1072,-1459 1072,-1550.2 757.63,-1586.22 629.95,-1597.09"/>
<polygon fill="green" stroke="green" points="629.31,-1593.63 619.63,-1597.95 629.89,-1600.61 629.31,-1593.63"/>
</g>
<!-- CDH2 -->
<g id="node8" class="node">
<title>CDH2</title>
<ellipse fill="lightgray" stroke="black" cx="564" cy="-306" rx="38.19" ry="18"/>
<text text-anchor="middle" x="564" y="-302.3" font-family="Times,serif" font-size="14.00">CDH2</text>
</g>
<!-- CDH2&#45;&gt;CDC42 -->
<g id="edge10" class="edge">
<title>CDH2&#45;&gt;CDC42</title>
<path fill="none" stroke="red" d="M580.66,-322.45C631.67,-369.33 791.16,-512.8 938,-612 1047.78,-686.16 1078.08,-701.87 1199,-756 1236.07,-772.59 1280.04,-787.52 1310.94,-797.27"/>
<polygon fill="red" stroke="red" points="1316.33,-793.72 1313.34,-803.26 1311.43,-802.66 1314.42,-793.12 1316.33,-793.72"/>
<polyline fill="none" stroke="red" points="1315.79,-798.79 1311.02,-797.29 "/>
</g>
<!-- CDH2&#45;&gt;RAC1 -->
<g id="edge123" class="edge">
<title>CDH2&#45;&gt;RAC1</title>
<path fill="none" stroke="green" d="M599.07,-313.47C724.64,-336.62 1151.62,-415.37 1290.19,-440.92"/>
<polygon fill="green" stroke="green" points="1289.95,-444.44 1300.42,-442.81 1291.22,-437.55 1289.95,-444.44"/>
</g>
<!-- CDH2&#45;&gt;RHOA -->
<g id="edge124" class="edge">
<title>CDH2&#45;&gt;RHOA</title>
<path fill="none" stroke="green" d="M562.77,-324.09C558.21,-389.47 542.97,-629.96 550,-828 553.11,-915.72 564,-937.22 564,-1025 564,-1099 564,-1099 564,-1099 564,-1266.14 650.54,-1303.39 784,-1404 813.97,-1426.6 854.49,-1440.25 885.39,-1448.02"/>
<polygon fill="green" stroke="green" points="884.93,-1451.51 895.47,-1450.44 886.57,-1444.71 884.93,-1451.51"/>
</g>
<!-- PTPN1 -->
<g id="node9" class="node">
<title>PTPN1</title>
<ellipse fill="lightgray" stroke="black" cx="399" cy="-1530" rx="42.79" ry="18"/>
<text text-anchor="middle" x="399" y="-1526.3" font-family="Times,serif" font-size="14.00">PTPN1</text>
</g>
<!-- PTPN1&#45;&gt;PTK2 -->
<g id="edge13" class="edge">
<title>PTPN1&#45;&gt;PTK2</title>
<path fill="none" stroke="red" d="M399.01,-1548.06C400.04,-1581.77 407.62,-1656.71 453,-1692 505.72,-1732.99 976.55,-1742.56 1119.82,-1744.53"/>
<polygon fill="red" stroke="red" points="1124.25,-1739.59 1124.12,-1749.59 1122.12,-1749.57 1122.25,-1739.57 1124.25,-1739.59"/>
<polyline fill="none" stroke="red" points="1125.18,-1744.61 1120.18,-1744.54 "/>
</g>
<!-- PTPN1&#45;&gt;CDH2 -->
<g id="edge12" class="edge">
<title>PTPN1&#45;&gt;CDH2</title>
<path fill="none" stroke="red" d="M386.66,-1512.51C368.83,-1487 338,-1435.83 338,-1387 338,-1387 338,-1387 338,-881 338,-676.56 339.22,-611 438,-432 463.26,-386.23 510.38,-346.23 539.29,-324.45"/>
<polygon fill="red" stroke="red" points="539.63,-317.96 545.6,-325.97 544,-327.17 538.02,-319.15 539.63,-317.96"/>
<polyline fill="none" stroke="red" points="543.42,-321.37 539.41,-324.36 "/>
</g>
<!-- PTPN1&#45;&gt;INSR -->
<g id="edge23" class="edge">
<title>PTPN1&#45;&gt;INSR</title>
<path fill="none" stroke="purple" d="M373.08,-1515.51C338.4,-1492.94 282,-1444.3 282,-1387 282,-1387 282,-1387 282,-1313 282,-952.08 94,-883.92 94,-523 94,-523 94,-523 94,-305 94,-230.87 141.86,-153.57 172.55,-115.37"/>
<polygon fill="purple" stroke="purple" points="172.62,-115.29 173.4,-108.12 180.32,-106.09 179.54,-113.26 172.62,-115.29"/>
</g>
<!-- PTPN1&#45;&gt;SRC -->
<g id="edge150" class="edge">
<title>PTPN1&#45;&gt;SRC</title>
<path fill="none" stroke="purple" d="M392.27,-1512.1C384.33,-1475.98 376,-1388.53 376,-1315 376,-1315 376,-1315 376,-1169 376,-1072.4 414,-1051.6 414,-955 414,-955 414,-955 414,-809 414,-618.7 452.6,-527.85 617,-432 661.08,-406.3 718.86,-391.88 757.52,-384.77"/>
<polygon fill="purple" stroke="purple" points="757.53,-384.76 762.76,-379.8 769.36,-382.71 764.13,-387.68 757.53,-384.76"/>
</g>
<!-- PTPN1&#45;&gt;RHOA -->
<g id="edge152" class="edge">
<title>PTPN1&#45;&gt;RHOA</title>
<path fill="none" stroke="red" d="M439.06,-1523.21C537.1,-1509.81 787.9,-1476.82 888.46,-1464.11"/>
<polygon fill="red" stroke="red" points="892.09,-1458.61 893.34,-1468.53 891.36,-1468.78 890.11,-1458.86 892.09,-1458.61"/>
<polyline fill="none" stroke="red" points="893.71,-1463.44 888.75,-1464.07 "/>
</g>
<!-- PTPN1&#45;&gt;BCAR1 -->
<g id="edge154" class="edge">
<title>PTPN1&#45;&gt;BCAR1</title>
<path fill="none" stroke="red" d="M431.68,-1541.87C463.77,-1553.69 512.23,-1572.66 544.32,-1585.92"/>
<polygon fill="red" stroke="red" points="550.32,-1583 546.48,-1592.23 544.64,-1591.47 548.47,-1582.23 550.32,-1583"/>
<polyline fill="none" stroke="red" points="549.32,-1588 544.71,-1586.08 "/>
</g>
<!-- VIM -->
<g id="node10" class="node">
<title>VIM</title>
<ellipse fill="lightgray" stroke="black" cx="1790" cy="-1026" rx="29.8" ry="18"/>
<text text-anchor="middle" x="1790" y="-1022.3" font-family="Times,serif" font-size="14.00">VIM</text>
</g>
<!-- VIM&#45;&gt;PRKCA -->
<g id="edge14" class="edge">
<title>VIM&#45;&gt;PRKCA</title>
<path fill="none" stroke="green" d="M1763.33,-1017.81C1754.74,-1014.75 1745.43,-1011.17 1737,-1008 1703.82,-995.53 1666.22,-981.8 1638.87,-971.44"/>
<polygon fill="green" stroke="green" points="1639.87,-968.07 1629.28,-967.78 1637.38,-974.61 1639.87,-968.07"/>
</g>
<!-- PRKCA&#45;&gt;PTK2 -->
<g id="edge15" class="edge">
<title>PRKCA&#45;&gt;PTK2</title>
<path fill="none" stroke="green" d="M1611.49,-971.54C1643.12,-1033.88 1732,-1261.03 1732,-1457 1732,-1603 1732,-1603 1732,-1603 1732,-1710.28 1342.23,-1737.36 1206.68,-1743.42"/>
<polygon fill="green" stroke="green" points="1206.46,-1739.92 1196.62,-1743.85 1206.76,-1746.92 1206.46,-1739.92"/>
</g>
<!-- PRKCA&#45;&gt;GSK3B -->
<g id="edge19" class="edge">
<title>PRKCA&#45;&gt;GSK3B</title>
<path fill="none" stroke="red" d="M1634.74,-965.44C1657.66,-973.92 1687.44,-987.81 1708,-1008 1752.68,-1051.88 1830.4,-1229.05 1856.87,-1291.27"/>
<polygon fill="red" stroke="red" points="1863.04,-1293.02 1853.84,-1296.93 1853.06,-1295.09 1862.26,-1291.18 1863.04,-1293.02"/>
<polyline fill="none" stroke="red" points="1858.83,-1295.9 1856.88,-1291.29 "/>
</g>
<!-- PRKCA&#45;&gt;EPHA2 -->
<g id="edge20" class="edge">
<title>PRKCA&#45;&gt;EPHA2</title>
<path fill="none" stroke="red" d="M1600.94,-972.34C1600.73,-1036.57 1600,-1267.01 1600,-1457 1600,-1531 1600,-1531 1600,-1531 1600,-1590.5 1553.8,-1594.59 1500,-1620 1404.59,-1665.06 1278.91,-1673.14 1210.53,-1673.84"/>
<polygon fill="red" stroke="red" points="1206.34,-1678.87 1206.26,-1668.87 1208.26,-1668.85 1208.34,-1678.85 1206.34,-1678.87"/>
<polyline fill="none" stroke="red" points="1205.3,-1673.88 1210.3,-1673.84 "/>
</g>
<!-- PRKCA&#45;&gt;VIM -->
<g id="edge17" class="edge">
<title>PRKCA&#45;&gt;VIM</title>
<path fill="none" stroke="purple" d="M1635.57,-965.01C1667.09,-975.56 1714.36,-992.72 1755,-1008 1755.69,-1008.26 1756.4,-1008.53 1757.1,-1008.79"/>
<polygon fill="purple" stroke="purple" points="1757.43,-1008.92 1764.46,-1007.34 1768.63,-1013.22 1761.59,-1014.8 1757.43,-1008.92"/>
</g>
<!-- PRKCA&#45;&gt;INSR -->
<g id="edge25" class="edge">
<title>PRKCA&#45;&gt;INSR</title>
<path fill="none" stroke="green" d="M1565.1,-943.77C1442.73,-909.76 1033.6,-784.37 729,-612 637.4,-560.16 619.01,-538.65 541,-468 404.85,-344.69 260.55,-177.31 212.94,-115.36"/>
<polygon fill="green" stroke="green" points="215.7,-113.2 206.88,-107.33 210.11,-117.42 215.7,-113.2"/>
</g>
<!-- PRKCA&#45;&gt;ITGB1 -->
<g id="edge30" class="edge">
<title>PRKCA&#45;&gt;ITGB1</title>
<path fill="none" stroke="green" d="M1603.98,-935.58C1608.56,-925.57 1614.91,-912.54 1618,-900 1633.34,-837.84 1620.89,-820.02 1622,-756 1625.13,-575.73 1676.93,-469.89 1534,-360 1495.21,-330.18 1358.49,-316.1 1283.65,-310.37"/>
<polygon fill="green" stroke="green" points="1283.75,-306.86 1273.52,-309.61 1283.23,-313.84 1283.75,-306.86"/>
</g>
<!-- PRKCA&#45;&gt;TP53 -->
<g id="edge41" class="edge">
<title>PRKCA&#45;&gt;TP53</title>
<path fill="none" stroke="green" d="M1643.14,-949.21C1709.26,-942.69 1841.07,-927.32 1950,-900 2135.7,-853.42 2217.96,-888.67 2356,-756 2408.63,-705.42 2478,-524 2478,-451 2478,-451 2478,-451 2478,-377 2478,-334.49 2497.22,-288.28 2511.08,-260.49"/>
<polygon fill="green" stroke="green" points="2514.26,-261.96 2515.71,-251.46 2508.03,-258.76 2514.26,-261.96"/>
</g>
<!-- PRKCA&#45;&gt;FOS -->
<g id="edge53" class="edge">
<title>PRKCA&#45;&gt;FOS</title>
<path fill="none" stroke="green" d="M1640.13,-945.93C1830.21,-910.53 2648,-745.29 2648,-523 2648,-523 2648,-523 2648,-449 2648,-407.41 2663.4,-361.22 2674.6,-333.14"/>
<polygon fill="green" stroke="green" points="2677.93,-334.24 2678.49,-323.66 2671.45,-331.58 2677.93,-334.24"/>
</g>
<!-- PRKCA&#45;&gt;SRC -->
<g id="edge112" class="edge">
<title>PRKCA&#45;&gt;SRC</title>
<path fill="none" stroke="purple" d="M1578.69,-938.46C1540.72,-909.83 1462.15,-844.38 1394,-792 1178.03,-626.01 1131.35,-572.52 898,-432 876.16,-418.85 850.6,-406.19 830.8,-396.55"/>
<polygon fill="purple" stroke="purple" points="830.68,-396.48 823.53,-397.46 819.88,-391.23 827.03,-390.26 830.68,-396.48"/>
</g>
<!-- PRKCA&#45;&gt;RAC1 -->
<g id="edge114" class="edge">
<title>PRKCA&#45;&gt;RAC1</title>
<path fill="none" stroke="green" d="M1597.47,-935.92C1594.84,-891.57 1600,-769.08 1600,-667 1600,-667 1600,-667 1600,-593 1600,-493.57 1456.31,-463.69 1380.06,-454.76"/>
<polygon fill="green" stroke="green" points="1380.1,-451.25 1369.77,-453.64 1379.34,-458.21 1380.1,-451.25"/>
</g>
<!-- PRKCA&#45;&gt;RHOA -->
<g id="edge116" class="edge">
<title>PRKCA&#45;&gt;RHOA</title>
<path fill="none" stroke="green" d="M1580.01,-969.97C1562.96,-979.95 1538.97,-993.8 1519,-1008 1298.58,-1164.7 1285.12,-1258.75 1057,-1404 1030.73,-1420.73 998.3,-1434.98 972.79,-1444.47"/>
<polygon fill="green" stroke="green" points="971.59,-1441.19 963.38,-1447.88 973.97,-1447.77 971.59,-1441.19"/>
</g>
<!-- PRKCA&#45;&gt;SHC1 -->
<g id="edge118" class="edge">
<title>PRKCA&#45;&gt;SHC1</title>
<path fill="none" stroke="green" d="M1635.56,-942.95C1702.46,-921.4 1848.22,-863.74 1907,-756 1981.45,-619.52 1786.57,-373.43 1770,-360 1663.48,-273.66 1304.69,-241.72 1170,-216 1054.05,-193.85 916.1,-176.48 845.58,-168.23"/>
<polygon fill="green" stroke="green" points="845.6,-164.71 835.26,-167.04 844.79,-171.67 845.6,-164.71"/>
</g>
<!-- PRKCA&#45;&gt;PLCG1 -->
<g id="edge119" class="edge">
<title>PRKCA&#45;&gt;PLCG1</title>
<path fill="none" stroke="purple" d="M1557.9,-950.91C1474.19,-946.05 1284.75,-931.88 1129,-900 1126.69,-899.53 1124.33,-899 1121.97,-898.44"/>
<polygon fill="purple" stroke="purple" points="1121.82,-898.4 1115.01,-900.75 1110.21,-895.37 1117.03,-893.01 1121.82,-898.4"/>
</g>
<!-- PRKCA&#45;&gt;BCAR1 -->
<g id="edge121" class="edge">
<title>PRKCA&#45;&gt;BCAR1</title>
<path fill="none" stroke="green" d="M1596.18,-972.12C1575.11,-1046.03 1489.16,-1337.04 1424,-1404 1310.12,-1521.02 1244.08,-1507.09 1086,-1548 923.92,-1589.95 724.67,-1598.86 630.78,-1600.64"/>
<polygon fill="green" stroke="green" points="630.61,-1597.14 620.67,-1600.81 630.73,-1604.14 630.61,-1597.14"/>
</g>
<!-- INSR&#45;&gt;PTK2 -->
<g id="edge22" class="edge">
<title>INSR&#45;&gt;PTK2</title>
<path fill="none" stroke="green" d="M181.1,-106.1C143.93,-137.87 56,-216.07 56,-305 56,-523 56,-523 56,-523 56,-650.11 56,-681.89 56,-809 56,-955 56,-955 56,-955 56,-1053.31 112,-1070.69 112,-1169 112,-1603 112,-1603 112,-1603 112,-1720.94 246.5,-1668.13 362,-1692 508.21,-1722.21 968.02,-1738.77 1115.26,-1743.54"/>
<polygon fill="green" stroke="green" points="1115.2,-1747.04 1125.31,-1743.86 1115.43,-1740.04 1115.2,-1747.04"/>
</g>
<!-- INSR&#45;&gt;PTPN1 -->
<g id="edge24" class="edge">
<title>INSR&#45;&gt;PTPN1</title>
<path fill="none" stroke="purple" d="M188.89,-107.65C167.1,-142.28 112,-225.47 112,-305 112,-523 112,-523 112,-523 112,-883.92 300,-952.08 300,-1313 300,-1387 300,-1387 300,-1387 300,-1436.81 342.62,-1480.08 372.08,-1505.37"/>
<polygon fill="purple" stroke="purple" points="372.29,-1505.53 379.45,-1506.32 381.49,-1513.24 374.32,-1512.45 372.29,-1505.53"/>
</g>
<!-- INSR&#45;&gt;PRKCA -->
<g id="edge26" class="edge">
<title>INSR&#45;&gt;PRKCA</title>
<path fill="none" stroke="green" d="M213.24,-106.21C262.83,-158.98 415.45,-337.99 559,-468 637.01,-538.65 655.4,-560.16 747,-612 1039.47,-777.51 1428.31,-899.7 1557.41,-939.28"/>
<polygon fill="green" stroke="green" points="1556.73,-942.73 1567.32,-942.31 1558.78,-936.04 1556.73,-942.73"/>
</g>
<!-- INSR&#45;&gt;RASA1 -->
<g id="edge156" class="edge">
<title>INSR&#45;&gt;RASA1</title>
<path fill="none" stroke="green" d="M229.62,-83.21C306.34,-70.49 498.1,-40.1 589.36,-26.18"/>
<polygon fill="green" stroke="green" points="590.09,-29.61 599.45,-24.65 589.04,-22.69 590.09,-29.61"/>
</g>
<!-- INSR&#45;&gt;SHC1 -->
<g id="edge158" class="edge">
<title>INSR&#45;&gt;SHC1</title>
<path fill="none" stroke="green" d="M231.26,-94.61C333.67,-106 636.86,-141.23 753.06,-155.2"/>
<polygon fill="green" stroke="green" points="752.71,-158.68 763.06,-156.41 753.55,-151.73 752.71,-158.68"/>
</g>
<!-- ITGB1&#45;&gt;PTK2 -->
<g id="edge27" class="edge">
<title>ITGB1&#45;&gt;PTK2</title>
<path fill="none" stroke="green" d="M1273.77,-309.07C1355.92,-314.19 1540.49,-329.27 1594,-360 1706.08,-424.36 1768,-463.76 1768,-593 1768,-667 1768,-667 1768,-667 1768,-837.42 1853.64,-874.3 1838,-1044 1826.84,-1165.09 1788,-1191.4 1788,-1313 1788,-1603 1788,-1603 1788,-1603 1788,-1666.93 1734.23,-1667.94 1675,-1692 1591.13,-1726.07 1316.81,-1739.59 1206.95,-1743.6"/>
<polygon fill="green" stroke="green" points="1206.71,-1740.1 1196.84,-1743.96 1206.96,-1747.1 1206.71,-1740.1"/>
</g>
<!-- ITGB1&#45;&gt;CDC42 -->
<g id="edge29" class="edge">
<title>ITGB1&#45;&gt;CDC42</title>
<path fill="none" stroke="green" d="M1274.55,-306.6C1362.3,-308.08 1562,-325.05 1562,-449 1562,-523 1562,-523 1562,-523 1562,-643.47 1439.1,-746.29 1380.45,-788.5"/>
<polygon fill="green" stroke="green" points="1378.42,-785.64 1372.29,-794.28 1382.47,-791.36 1378.42,-785.64"/>
</g>
<!-- ITGB1&#45;&gt;PRKCA -->
<g id="edge31" class="edge">
<title>ITGB1&#45;&gt;PRKCA</title>
<path fill="none" stroke="green" d="M1273.8,-308.94C1349.43,-313.55 1509.5,-327.32 1552,-360 1694.93,-469.89 1643.13,-575.73 1640,-756 1638.89,-820.02 1651.34,-837.84 1636,-900 1633.56,-909.9 1629.09,-920.1 1624.01,-928.88"/>
<polygon fill="green" stroke="green" points="1620.98,-927.13 1618.55,-937.45 1626.88,-930.89 1620.98,-927.13"/>
</g>
<!-- ITGB1&#45;&gt;SRC -->
<g id="edge140" class="edge">
<title>ITGB1&#45;&gt;SRC</title>
<path fill="none" stroke="green" d="M1197.16,-313.6C1115.85,-327.25 922.09,-358.42 838.43,-371.28"/>
<polygon fill="green" stroke="green" points="837.68,-367.86 828.32,-372.83 838.74,-374.78 837.68,-367.86"/>
</g>
<!-- ITGB1&#45;&gt;RAC1 -->
<g id="edge142" class="edge">
<title>ITGB1&#45;&gt;RAC1</title>
<path fill="none" stroke="green" d="M1249.69,-322.95C1269.6,-347.34 1302.84,-394.14 1321.27,-423.34"/>
<polygon fill="green" stroke="green" points="1318.47,-425.47 1326.69,-432.15 1324.43,-421.8 1318.47,-425.47"/>
</g>
<!-- ITGB1&#45;&gt;RHOA -->
<g id="edge144" class="edge">
<title>ITGB1&#45;&gt;RHOA</title>
<path fill="none" stroke="green" d="M1219.8,-322.93C1145.52,-399.9 808,-743.93 808,-1097 808,-1243 808,-1243 808,-1243 808,-1322.67 875.1,-1397.52 910.35,-1433.92"/>
<polygon fill="green" stroke="green" points="907.87,-1436.38 917.36,-1441.09 912.88,-1431.49 907.87,-1436.38"/>
</g>
<!-- ITGB1&#45;&gt;SHC1 -->
<g id="edge146" class="edge">
<title>ITGB1&#45;&gt;SHC1</title>
<path fill="none" stroke="purple" d="M1202.37,-294.67C1125.25,-269.5 927.55,-204.96 840.83,-176.65"/>
<polygon fill="purple" stroke="purple" points="840.76,-176.63 833.82,-178.57 829.35,-172.91 836.3,-170.97 840.76,-176.63"/>
</g>
<!-- ITGB1&#45;&gt;GRB2 -->
<g id="edge147" class="edge">
<title>ITGB1&#45;&gt;GRB2</title>
<path fill="none" stroke="green" d="M1269.25,-297.24C1327.76,-284.36 1444.8,-258.6 1508.41,-244.6"/>
<polygon fill="green" stroke="green" points="1509.5,-247.94 1518.52,-242.37 1508,-241.1 1509.5,-247.94"/>
</g>
<!-- PRKACA -->
<g id="node36" class="node">
<title>PRKACA</title>
<ellipse fill="lightgray" stroke="black" cx="1365" cy="-1386" rx="50.09" ry="18"/>
<text text-anchor="middle" x="1365" y="-1382.3" font-family="Times,serif" font-size="14.00">PRKACA</text>
</g>
<!-- ITGB1&#45;&gt;PRKACA -->
<g id="edge148" class="edge">
<title>ITGB1&#45;&gt;PRKACA</title>
<path fill="none" stroke="green" d="M1240.71,-324.08C1243.07,-342.01 1243.46,-371.01 1245,-396 1254.66,-552.28 1316,-940.43 1316,-1097 1316,-1171 1316,-1171 1316,-1171 1316,-1240.58 1344.92,-1318.6 1358.75,-1358.44"/>
<polygon fill="green" stroke="green" points="1355.45,-1359.61 1361.99,-1367.95 1362.07,-1357.36 1355.45,-1359.61"/>
</g>
<!-- NF2 -->
<g id="node14" class="node">
<title>NF2</title>
<ellipse fill="lightgray" stroke="black" cx="2195" cy="-234" rx="30.59" ry="18"/>
<text text-anchor="middle" x="2195" y="-230.3" font-family="Times,serif" font-size="14.00">NF2</text>
</g>
<!-- LATS1 -->
<g id="node15" class="node">
<title>LATS1</title>
<ellipse fill="lightgray" stroke="black" cx="2368" cy="-18" rx="40.09" ry="18"/>
<text text-anchor="middle" x="2368" y="-14.3" font-family="Times,serif" font-size="14.00">LATS1</text>
</g>
<!-- NF2&#45;&gt;LATS1 -->
<g id="edge32" class="edge">
<title>NF2&#45;&gt;LATS1</title>
<path fill="none" stroke="green" d="M2183.68,-216.96C2163.15,-185.7 2124.88,-115.85 2159,-72 2178.48,-46.97 2263.74,-31.85 2319.17,-24.49"/>
<polygon fill="green" stroke="green" points="2319.68,-27.96 2329.15,-23.21 2318.78,-21.01 2319.68,-27.96"/>
</g>
<!-- LATS2 -->
<g id="node16" class="node">
<title>LATS2</title>
<ellipse fill="lightgray" stroke="black" cx="2372" cy="-162" rx="40.09" ry="18"/>
<text text-anchor="middle" x="2372" y="-158.3" font-family="Times,serif" font-size="14.00">LATS2</text>
</g>
<!-- NF2&#45;&gt;LATS2 -->
<g id="edge33" class="edge">
<title>NF2&#45;&gt;LATS2</title>
<path fill="none" stroke="green" d="M2219.61,-223.27C2249.13,-211.59 2298.96,-191.89 2333.57,-178.2"/>
<polygon fill="green" stroke="green" points="2334.88,-181.44 2342.9,-174.51 2332.31,-174.93 2334.88,-181.44"/>
</g>
<!-- GADD45A -->
<g id="node26" class="node">
<title>GADD45A</title>
<ellipse fill="lightgray" stroke="black" cx="2525" cy="-162" rx="57.39" ry="18"/>
<text text-anchor="middle" x="2525" y="-158.3" font-family="Times,serif" font-size="14.00">GADD45A</text>
</g>
<!-- LATS1&#45;&gt;GADD45A -->
<g id="edge69" class="edge">
<title>LATS1&#45;&gt;GADD45A</title>
<path fill="none" stroke="green" d="M2394.04,-31.96C2411.97,-41.6 2435.75,-55.84 2454,-72 2475.33,-90.89 2495.15,-116.73 2508.4,-135.7"/>
<polygon fill="green" stroke="green" points="2505.64,-137.87 2514.18,-144.14 2511.42,-133.92 2505.64,-137.87"/>
</g>
<!-- LATS2&#45;&gt;TP53 -->
<g id="edge34" class="edge">
<title>LATS2&#45;&gt;TP53</title>
<path fill="none" stroke="green" d="M2401.72,-174.26C2428.1,-185.47 2466.32,-202.84 2493.28,-215.78"/>
<polygon fill="green" stroke="green" points="2491.78,-218.95 2502.3,-220.16 2494.83,-212.65 2491.78,-218.95"/>
</g>
<!-- TP53&#45;&gt;PTK2 -->
<g id="edge35" class="edge">
<title>TP53&#45;&gt;PTK2</title>
<path fill="none" stroke="red" d="M2558.52,-238.32C2604.75,-243.85 2689.86,-257.52 2756,-288 2816.31,-315.79 2876,-310.6 2876,-377 2876,-955 2876,-955 2876,-955 2876,-1051.6 2914,-1072.4 2914,-1169 2914,-1315 2914,-1315 2914,-1315 2914,-1694.84 2517.91,-1610.09 2147,-1692 1962.46,-1732.75 1364.42,-1742.62 1202.02,-1744.58"/>
<polygon fill="red" stroke="red" points="1197.94,-1749.62 1197.82,-1739.63 1199.82,-1739.6 1199.94,-1749.6 1197.94,-1749.62"/>
<polyline fill="none" stroke="red" points="1196.88,-1744.64 1201.88,-1744.58 "/>
</g>
<!-- TP53&#45;&gt;EPHA2 -->
<g id="edge40" class="edge">
<title>TP53&#45;&gt;EPHA2</title>
<path fill="none" stroke="green" d="M2559.62,-234.97C2603.57,-236.78 2679.29,-246.3 2726,-288 2830.05,-380.9 2800,-453.51 2800,-593 2800,-1027 2800,-1027 2800,-1027 2800,-1626.69 2174.29,-1493.96 1588,-1620 1455.28,-1648.53 1295.81,-1663.26 1214.46,-1669.41"/>
<polygon fill="green" stroke="green" points="1214.17,-1665.92 1204.45,-1670.15 1214.69,-1672.9 1214.17,-1665.92"/>
</g>
<!-- TP53&#45;&gt;LATS2 -->
<g id="edge38" class="edge">
<title>TP53&#45;&gt;LATS2</title>
<path fill="none" stroke="green" d="M2497.82,-222.82C2471.95,-211.9 2433.2,-194.33 2405.47,-181.06"/>
<polygon fill="green" stroke="green" points="2406.69,-177.76 2396.16,-176.56 2403.64,-184.06 2406.69,-177.76"/>
</g>
<!-- MAP4K4 -->
<g id="node18" class="node">
<title>MAP4K4</title>
<ellipse fill="lightgray" stroke="black" cx="2055" cy="-162" rx="51.19" ry="18"/>
<text text-anchor="middle" x="2055" y="-158.3" font-family="Times,serif" font-size="14.00">MAP4K4</text>
</g>
<!-- TP53&#45;&gt;MAP4K4 -->
<g id="edge37" class="edge">
<title>TP53&#45;&gt;MAP4K4</title>
<path fill="none" stroke="green" d="M2492.32,-228.13C2413.21,-216.35 2210.58,-186.17 2111.4,-171.4"/>
<polygon fill="green" stroke="green" points="2111.68,-167.9 2101.27,-169.89 2110.65,-174.83 2111.68,-167.9"/>
</g>
<!-- TP53&#45;&gt;CDK1 -->
<g id="edge55" class="edge">
<title>TP53&#45;&gt;CDK1</title>
<path fill="none" stroke="green" d="M2537.75,-250.81C2552.16,-276.65 2572,-329.79 2572,-377 2572,-523 2572,-523 2572,-523 2572,-746.2 2586,-801.8 2586,-1025 2586,-1099 2586,-1099 2586,-1099 2586,-1141.19 2575.77,-1152.49 2553,-1188 2545.03,-1200.43 2533.71,-1212.25 2522.8,-1221.56"/>
<polygon fill="green" stroke="green" points="2520.56,-1218.87 2514.98,-1227.87 2524.96,-1224.32 2520.56,-1218.87"/>
</g>
<!-- TP53&#45;&gt;GADD45A -->
<g id="edge73" class="edge">
<title>TP53&#45;&gt;GADD45A</title>
<path fill="none" stroke="green" d="M2525,-215.7C2525,-207.98 2525,-198.71 2525,-190.11"/>
<polygon fill="green" stroke="green" points="2528.5,-190.1 2525,-180.1 2521.5,-190.1 2528.5,-190.1"/>
</g>
<!-- TP53&#45;&gt;RAC1 -->
<g id="edge160" class="edge">
<title>TP53&#45;&gt;RAC1</title>
<path fill="none" stroke="red" d="M2498.14,-245.29C2414.79,-274.18 2153.99,-356.48 1931,-396 1724.77,-432.55 1473.13,-444.52 1375.39,-447.86"/>
<polygon fill="red" stroke="red" points="1371.46,-453 1371.13,-443 1373.13,-442.93 1373.46,-452.93 1371.46,-453"/>
<polyline fill="none" stroke="red" points="1370.3,-448.03 1375.29,-447.86 "/>
</g>
<!-- MAP4K4&#45;&gt;MAP3K1 -->
<g id="edge42" class="edge">
<title>MAP4K4&#45;&gt;MAP3K1</title>
<path fill="none" stroke="green" d="M2054.85,-180.23C2054.41,-198.28 2052.91,-227.38 2048,-252 2008.47,-450.06 2017.92,-515.21 1907,-684 1899.21,-695.85 1888.11,-706.67 1877.56,-715.4"/>
<polygon fill="green" stroke="green" points="1875.34,-712.7 1869.67,-721.65 1879.68,-718.18 1875.34,-712.7"/>
</g>
<!-- MAP3K7 -->
<g id="node24" class="node">
<title>MAP3K7</title>
<ellipse fill="lightgray" stroke="black" cx="1847" cy="-666" rx="51.19" ry="18"/>
<text text-anchor="middle" x="1847" y="-662.3" font-family="Times,serif" font-size="14.00">MAP3K7</text>
</g>
<!-- MAP4K4&#45;&gt;MAP3K7 -->
<g id="edge60" class="edge">
<title>MAP4K4&#45;&gt;MAP3K7</title>
<path fill="none" stroke="green" d="M2050.6,-180.02C2025.14,-254.2 1902.95,-549.54 1860.93,-639.11"/>
<polygon fill="green" stroke="green" points="1857.69,-637.76 1856.55,-648.3 1864.01,-640.78 1857.69,-637.76"/>
</g>
<!-- MAP3K1&#45;&gt;MAP3K7 -->
<g id="edge67" class="edge">
<title>MAP3K1&#45;&gt;MAP3K7</title>
<path fill="none" stroke="green" d="M1841.12,-720.05C1840.3,-712.35 1840.06,-703.03 1840.39,-694.36"/>
<polygon fill="green" stroke="green" points="1843.89,-694.49 1841.09,-684.28 1836.91,-694.01 1843.89,-694.49"/>
</g>
<!-- INCENP -->
<g id="node20" class="node">
<title>INCENP</title>
<ellipse fill="lightgray" stroke="black" cx="2452" cy="-1170" rx="50.09" ry="18"/>
<text text-anchor="middle" x="2452" y="-1166.3" font-family="Times,serif" font-size="14.00">INCENP</text>
</g>
<!-- PLK1 -->
<g id="node21" class="node">
<title>PLK1</title>
<ellipse fill="lightgray" stroke="black" cx="2382" cy="-1098" rx="36" ry="18"/>
<text text-anchor="middle" x="2382" y="-1094.3" font-family="Times,serif" font-size="14.00">PLK1</text>
</g>
<!-- INCENP&#45;&gt;PLK1 -->
<g id="edge45" class="edge">
<title>INCENP&#45;&gt;PLK1</title>
<path fill="none" stroke="green" d="M2435.76,-1152.76C2426.62,-1143.62 2415.06,-1132.06 2405,-1122"/>
<polygon fill="green" stroke="green" points="2407.21,-1119.26 2397.67,-1114.67 2402.26,-1124.21 2407.21,-1119.26"/>
</g>
<!-- PLK1&#45;&gt;VIM -->
<g id="edge46" class="edge">
<title>PLK1&#45;&gt;VIM</title>
<path fill="none" stroke="green" d="M2347.61,-1092.93C2244.56,-1080.75 1938.67,-1044.58 1829.37,-1031.66"/>
<polygon fill="green" stroke="green" points="1829.46,-1028.14 1819.12,-1030.44 1828.64,-1035.09 1829.46,-1028.14"/>
</g>
<!-- PLK1&#45;&gt;TP53 -->
<g id="edge47" class="edge">
<title>PLK1&#45;&gt;TP53</title>
<path fill="none" stroke="red" d="M2396.62,-1081.36C2418.19,-1056.58 2456,-1005.87 2456,-955 2456,-955 2456,-955 2456,-737 2456,-607.12 2516,-580.88 2516,-451 2516,-451 2516,-451 2516,-377 2516,-334.62 2520.04,-285.27 2522.71,-257.32"/>
<polygon fill="red" stroke="red" points="2518.15,-252.54 2528.1,-253.51 2527.91,-255.5 2517.96,-254.53 2518.15,-252.54"/>
<polyline fill="none" stroke="red" points="2523.22,-252.03 2522.74,-257 "/>
</g>
<!-- PLK1&#45;&gt;CDK1 -->
<g id="edge58" class="edge">
<title>PLK1&#45;&gt;CDK1</title>
<path fill="none" stroke="green" d="M2386.25,-1116.01C2387.13,-1135.2 2387.34,-1166.53 2402,-1188 2414.17,-1205.82 2434.34,-1218.17 2452.48,-1226.44"/>
<polygon fill="green" stroke="green" points="2451.16,-1229.68 2461.73,-1230.4 2453.92,-1223.25 2451.16,-1229.68"/>
</g>
<!-- PLK1&#45;&gt;PRKACA -->
<g id="edge91" class="edge">
<title>PLK1&#45;&gt;PRKACA</title>
<path fill="none" stroke="green" d="M2365.74,-1114.31C2318.47,-1157.77 2175.14,-1281.94 2030,-1332 2001.59,-1341.8 1581.92,-1370.56 1424.26,-1381.08"/>
<polygon fill="green" stroke="green" points="1423.57,-1377.62 1413.82,-1381.78 1424.03,-1384.61 1423.57,-1377.62"/>
</g>
<!-- FOS&#45;&gt;TP53 -->
<g id="edge54" class="edge">
<title>FOS&#45;&gt;TP53</title>
<path fill="none" stroke="red" d="M2662.24,-294.67C2633.93,-282.36 2586.56,-261.77 2555.55,-248.28"/>
<polygon fill="red" stroke="red" points="2549.64,-251.17 2553.63,-242 2555.46,-242.79 2551.48,-251.96 2549.64,-251.17"/>
<polyline fill="none" stroke="red" points="2550.72,-246.18 2555.3,-248.18 "/>
</g>
<!-- FOS&#45;&gt;CDK1 -->
<g id="edge49" class="edge">
<title>FOS&#45;&gt;CDK1</title>
<path fill="none" stroke="green" d="M2686,-324.05C2686,-350.71 2686,-403.89 2686,-449 2686,-523 2686,-523 2686,-523 2686,-618.14 2681,-641.86 2681,-737 2681,-811 2681,-811 2681,-811 2681,-982.38 2708.26,-1055.15 2600,-1188 2583.13,-1208.7 2556.21,-1221.9 2533.35,-1229.95"/>
<polygon fill="green" stroke="green" points="2532.23,-1226.63 2523.84,-1233.09 2534.43,-1233.27 2532.23,-1226.63"/>
</g>
<!-- CDK1&#45;&gt;VIM -->
<g id="edge51" class="edge">
<title>CDK1&#45;&gt;VIM</title>
<path fill="none" stroke="purple" d="M2459.97,-1231.53C2346.23,-1196.81 1952.28,-1076.54 1827.93,-1038.58"/>
<polygon fill="purple" stroke="purple" points="1827.57,-1038.47 1820.66,-1040.54 1816.09,-1034.96 1823,-1032.89 1827.57,-1038.47"/>
</g>
<!-- CDK1&#45;&gt;LATS1 -->
<g id="edge50" class="edge">
<title>CDK1&#45;&gt;LATS1</title>
<path fill="none" stroke="green" d="M2499.1,-1224.26C2503.58,-1214.05 2508.71,-1200.58 2511,-1188 2513.87,-1172.26 2511.81,-1167.98 2511,-1152 2503.1,-995.62 2440,-607.57 2440,-451 2440,-451 2440,-451 2440,-161 2440,-115.61 2410.37,-70.02 2389.12,-43.16"/>
<polygon fill="green" stroke="green" points="2391.6,-40.66 2382.57,-35.13 2386.18,-45.09 2391.6,-40.66"/>
</g>
<!-- CDK1&#45;&gt;TP53 -->
<g id="edge56" class="edge">
<title>CDK1&#45;&gt;TP53</title>
<path fill="none" stroke="green" d="M2503.35,-1224.56C2513.17,-1214.86 2526.15,-1201.8 2535,-1188 2557.77,-1152.49 2568,-1141.19 2568,-1099 2568,-1099 2568,-1099 2568,-1025 2568,-801.8 2554,-746.2 2554,-523 2554,-523 2554,-523 2554,-377 2554,-335.81 2538.9,-290.12 2529.99,-261.98"/>
<polygon fill="green" stroke="green" points="2533.23,-260.61 2526.92,-252.09 2526.54,-262.68 2533.23,-260.61"/>
</g>
<!-- CDK1&#45;&gt;INCENP -->
<g id="edge57" class="edge">
<title>CDK1&#45;&gt;INCENP</title>
<path fill="none" stroke="green" d="M2481.76,-1224.41C2477.16,-1216.16 2471.5,-1206.01 2466.36,-1196.78"/>
<polygon fill="green" stroke="green" points="2469.37,-1194.99 2461.45,-1187.96 2463.26,-1198.4 2469.37,-1194.99"/>
</g>
<!-- CDK1&#45;&gt;PLK1 -->
<g id="edge59" class="edge">
<title>CDK1&#45;&gt;PLK1</title>
<path fill="none" stroke="green" d="M2456.71,-1233.89C2432.02,-1226.41 2400.58,-1212.28 2384,-1188 2371.61,-1169.86 2369.54,-1144.68 2371.68,-1125.73"/>
<polygon fill="green" stroke="green" points="2375.17,-1126.09 2373.32,-1115.66 2368.26,-1124.97 2375.17,-1126.09"/>
</g>
<!-- MAP3K7&#45;&gt;MAP4K4 -->
<g id="edge64" class="edge">
<title>MAP3K7&#45;&gt;MAP4K4</title>
<path fill="none" stroke="green" d="M1851.39,-648.01C1876.83,-573.89 1999.02,-278.54 2041.06,-188.92"/>
<polygon fill="green" stroke="green" points="2044.29,-190.26 2045.44,-179.73 2037.97,-187.25 2044.29,-190.26"/>
</g>
<!-- MAP3K7&#45;&gt;MAP3K1 -->
<g id="edge68" class="edge">
<title>MAP3K7&#45;&gt;MAP3K1</title>
<path fill="none" stroke="green" d="M1852.91,-684.28C1853.71,-692.03 1853.94,-701.36 1853.59,-710.01"/>
<polygon fill="green" stroke="green" points="1850.09,-709.83 1852.88,-720.05 1857.08,-710.33 1850.09,-709.83"/>
</g>
<!-- MAP3K7&#45;&gt;RAP1A -->
<g id="edge61" class="edge">
<title>MAP3K7&#45;&gt;RAP1A</title>
<path fill="none" stroke="green" d="M1800.21,-658.54C1704.56,-645.33 1487.41,-615.35 1389.51,-601.84"/>
<polygon fill="green" stroke="green" points="1389.96,-598.36 1379.57,-600.46 1389,-605.3 1389.96,-598.36"/>
</g>
<!-- RAP1A&#45;&gt;CDH1 -->
<g id="edge62" class="edge">
<title>RAP1A&#45;&gt;CDH1</title>
<path fill="none" stroke="green" d="M1334.12,-576.05C1333.29,-568.23 1333.05,-558.75 1333.41,-549.98"/>
<polygon fill="green" stroke="green" points="1336.92,-550.01 1334.14,-539.79 1329.93,-549.51 1336.92,-550.01"/>
</g>
<!-- RAP1A&#45;&gt;CDC42 -->
<g id="edge65" class="edge">
<title>RAP1A&#45;&gt;CDC42</title>
<path fill="none" stroke="green" d="M1338.94,-612.44C1337.38,-642.04 1335.13,-703.96 1340,-756 1340.8,-764.52 1342.3,-773.72 1343.9,-782.01"/>
<polygon fill="green" stroke="green" points="1340.5,-782.84 1345.94,-791.93 1347.36,-781.43 1340.5,-782.84"/>
</g>
<!-- RAP1A&#45;&gt;ITGB1 -->
<g id="edge66" class="edge">
<title>RAP1A&#45;&gt;ITGB1</title>
<path fill="none" stroke="green" d="M1322.49,-577.39C1312.48,-567.58 1300.48,-554.13 1293,-540 1256.67,-471.34 1241.98,-379.34 1236.67,-334.24"/>
<polygon fill="green" stroke="green" points="1240.12,-333.63 1235.54,-324.08 1233.16,-334.4 1240.12,-333.63"/>
</g>
<!-- RAP1A&#45;&gt;RHOA -->
<g id="edge132" class="edge">
<title>RAP1A&#45;&gt;RHOA</title>
<path fill="none" stroke="red" d="M1316.53,-609.06C1233.51,-658.96 957.22,-826.62 930,-864 888.61,-920.83 846,-1098.7 846,-1169 846,-1243 846,-1243 846,-1243 846,-1318.68 892.48,-1399.45 916.7,-1436.4"/>
<polygon fill="red" stroke="red" points="923.15,-1437.09 914.82,-1442.62 913.71,-1440.95 922.05,-1435.43 923.15,-1437.09"/>
<polyline fill="none" stroke="red" points="919.54,-1440.69 916.78,-1436.52 "/>
</g>
<!-- GADD45A&#45;&gt;CDK1 -->
<g id="edge74" class="edge">
<title>GADD45A&#45;&gt;CDK1</title>
<path fill="none" stroke="red" d="M2581.88,-164.51C2664.16,-170.04 2814.76,-193.37 2890,-288 2954.79,-369.49 2914,-416.9 2914,-521 2914,-955 2914,-955 2914,-955 2914,-1138.72 2636.76,-1212.42 2531.17,-1233.82"/>
<polygon fill="red" stroke="red" points="2527.94,-1239.57 2525.98,-1229.76 2527.94,-1229.37 2529.9,-1239.18 2527.94,-1239.57"/>
<polyline fill="none" stroke="red" points="2525.98,-1234.86 2530.88,-1233.88 "/>
</g>
<!-- P06493_P14635 -->
<g id="node27" class="node">
<title>P06493_P14635</title>
<ellipse fill="lightgray" stroke="black" cx="2254" cy="-90" rx="86.38" ry="18"/>
<text text-anchor="middle" x="2254" y="-86.3" font-family="Times,serif" font-size="14.00">P06493_P14635</text>
</g>
<!-- GADD45A&#45;&gt;P06493_P14635 -->
<g id="edge70" class="edge">
<title>GADD45A&#45;&gt;P06493_P14635</title>
<path fill="none" stroke="red" d="M2482.36,-149.99C2436.15,-138.05 2362.18,-118.94 2311.01,-105.73"/>
<polygon fill="red" stroke="red" points="2305.85,-109.56 2308.35,-99.87 2310.29,-100.37 2307.79,-110.06 2305.85,-109.56"/>
<polyline fill="none" stroke="red" points="2306.13,-104.47 2310.97,-105.72 "/>
</g>
<!-- P06493_P14635&#45;&gt;CDH1 -->
<g id="edge71" class="edge">
<title>P06493_P14635&#45;&gt;CDH1</title>
<path fill="none" stroke="green" d="M2256.67,-108.19C2260.6,-139.59 2264.59,-207.12 2235,-252 2199.71,-305.53 2169.26,-299.53 2110,-324 1846.96,-432.61 1507.99,-494.08 1386.15,-513.88"/>
<polygon fill="green" stroke="green" points="1385.38,-510.45 1376.06,-515.5 1386.49,-517.37 1385.38,-510.45"/>
</g>
<!-- P06493_P14635&#45;&gt;LATS1 -->
<g id="edge72" class="edge">
<title>P06493_P14635&#45;&gt;LATS1</title>
<path fill="none" stroke="green" d="M2280.44,-72.76C2297.13,-62.52 2318.79,-49.22 2336.39,-38.41"/>
<polygon fill="green" stroke="green" points="2338.48,-41.23 2345.17,-33.02 2334.82,-35.27 2338.48,-41.23"/>
</g>
<!-- SRC&#45;&gt;FLT4 -->
<g id="edge127" class="edge">
<title>SRC&#45;&gt;FLT4</title>
<path fill="none" stroke="green" d="M768.74,-381.75C717.01,-386.81 609.56,-400.17 524,-432 280.58,-522.56 150,-621.28 150,-881 150,-955 150,-955 150,-955 150,-1058.88 56,-1065.12 56,-1169 56,-1675 56,-1675 56,-1675 56,-1754.19 159.2,-1791.94 218.9,-1807.57"/>
<polygon fill="green" stroke="green" points="218.24,-1811.01 228.79,-1810.06 219.95,-1804.22 218.24,-1811.01"/>
</g>
<!-- SRC&#45;&gt;PTK2 -->
<g id="edge101" class="edge">
<title>SRC&#45;&gt;PTK2</title>
<path fill="none" stroke="green" d="M768.97,-381.47C724.41,-385.97 639.78,-398.39 576,-432 534.26,-454 527.35,-467.07 498,-504 315.22,-733.99 206,-803.22 206,-1097 206,-1387 206,-1387 206,-1387 206,-1555.19 279.23,-1617.47 430,-1692 491.59,-1722.45 964.62,-1738.96 1115.21,-1743.61"/>
<polygon fill="green" stroke="green" points="1115.38,-1747.12 1125.48,-1743.93 1115.59,-1740.12 1115.38,-1747.12"/>
</g>
<!-- SRC&#45;&gt;CDH1 -->
<g id="edge95" class="edge">
<title>SRC&#45;&gt;CDH1</title>
<path fill="none" stroke="green" d="M827.66,-384.67C870,-394.23 950.83,-414.25 1019,-432 1120.24,-458.36 1238.55,-490.63 1299.46,-508.16"/>
<polygon fill="green" stroke="green" points="1298.86,-511.63 1309.44,-511.05 1300.81,-504.91 1298.86,-511.63"/>
</g>
<!-- SRC&#45;&gt;EPHA2 -->
<g id="edge75" class="edge">
<title>SRC&#45;&gt;EPHA2</title>
<path fill="none" stroke="purple" d="M783.18,-393.78C772.92,-403.9 759.69,-417.98 750,-432 729.65,-461.43 729.08,-471.56 714,-504 627.31,-690.51 602,-747.33 602,-953 602,-1099 602,-1099 602,-1099 602,-1396.1 991.1,-1597 1120.04,-1655.42"/>
<polygon fill="purple" stroke="purple" points="1120.39,-1655.57 1127.5,-1654.37 1131.34,-1660.47 1124.23,-1661.67 1120.39,-1655.57"/>
</g>
<!-- SRC&#45;&gt;CDC42 -->
<g id="edge137" class="edge">
<title>SRC&#45;&gt;CDC42</title>
<path fill="none" stroke="green" d="M820.4,-390.9C837.07,-400.72 860.27,-415.66 878,-432 923.12,-473.58 919.25,-498.02 964,-540 1081.16,-649.91 1246.12,-749.71 1316.29,-790.06"/>
<polygon fill="green" stroke="green" points="1314.74,-793.21 1325.16,-795.13 1318.21,-787.13 1314.74,-793.21"/>
</g>
<!-- SRC&#45;&gt;CDH2 -->
<g id="edge122" class="edge">
<title>SRC&#45;&gt;CDH2</title>
<path fill="none" stroke="red" d="M771.94,-369.47C736.15,-359.45 671.16,-341 616,-324 610.65,-322.35 605,-320.56 599.49,-318.78"/>
<polygon fill="red" stroke="red" points="593.88,-322.22 596.96,-312.7 598.86,-313.32 595.78,-322.83 593.88,-322.22"/>
<polyline fill="none" stroke="red" points="594.47,-317.15 599.22,-318.69 "/>
</g>
<!-- SRC&#45;&gt;PTPN1 -->
<g id="edge151" class="edge">
<title>SRC&#45;&gt;PTPN1</title>
<path fill="none" stroke="red" d="M770.66,-384.82C736.56,-391.95 678.96,-406.37 635,-432 470.6,-527.85 432,-618.7 432,-809 432,-955 432,-955 432,-955 432,-1051.6 394,-1072.4 394,-1169 394,-1315 394,-1315 394,-1315 394,-1384.91 401.53,-1467.39 402,-1506.39"/>
<polygon fill="red" stroke="red" points="407.01,-1510.81 397.01,-1510.84 397,-1508.84 407,-1508.81 407.01,-1510.81"/>
<polyline fill="none" stroke="red" points="402.01,-1511.83 402,-1506.83 "/>
</g>
<!-- SRC&#45;&gt;PRKCA -->
<g id="edge113" class="edge">
<title>SRC&#45;&gt;PRKCA</title>
<path fill="none" stroke="green" d="M825.19,-387.41C849.71,-397.14 886.3,-414.11 916,-432 1149.35,-572.52 1196.03,-626.01 1412,-792 1473.79,-839.49 1544.15,-897.73 1579.21,-929.52"/>
<polygon fill="green" stroke="green" points="1577.21,-932.44 1586.93,-936.64 1581.95,-927.29 1577.21,-932.44"/>
</g>
<!-- SRC&#45;&gt;ITGB1 -->
<g id="edge141" class="edge">
<title>SRC&#45;&gt;ITGB1</title>
<path fill="none" stroke="green" d="M827.92,-371.74C901.46,-359.29 1095.51,-328.04 1186.18,-314.01"/>
<polygon fill="green" stroke="green" points="1186.84,-317.45 1196.19,-312.47 1185.77,-310.53 1186.84,-317.45"/>
</g>
<!-- SRC&#45;&gt;FOS -->
<g id="edge134" class="edge">
<title>SRC&#45;&gt;FOS</title>
<path fill="none" stroke="green" d="M829.4,-375.87C1049.17,-367.72 2393.08,-317.87 2645.24,-308.51"/>
<polygon fill="green" stroke="green" points="2645.56,-312 2655.43,-308.13 2645.3,-305.01 2645.56,-312"/>
</g>
<!-- SRC&#45;&gt;RAC1 -->
<g id="edge162" class="edge">
<title>SRC&#45;&gt;RAC1</title>
<path fill="none" stroke="green" d="M828.71,-382.48C918,-393.57 1183.49,-428.27 1289.58,-442.65"/>
<polygon fill="green" stroke="green" points="1289.26,-446.14 1299.64,-444.02 1290.2,-439.21 1289.26,-446.14"/>
</g>
<!-- SRC&#45;&gt;RHOA -->
<g id="edge163" class="edge">
<title>SRC&#45;&gt;RHOA</title>
<path fill="none" stroke="purple" d="M793.32,-395.88C766.28,-456.54 658,-663.72 658,-737 658,-955 658,-955 658,-955 658,-1081.88 774.91,-1358.73 823,-1404 841.7,-1421.6 867.25,-1434.1 888.89,-1442.51"/>
<polygon fill="purple" stroke="purple" points="889.18,-1442.62 896.2,-1440.95 900.44,-1446.78 893.43,-1448.45 889.18,-1442.62"/>
</g>
<!-- SRC&#45;&gt;RASA1 -->
<g id="edge164" class="edge">
<title>SRC&#45;&gt;RASA1</title>
<path fill="none" stroke="purple" d="M772.16,-369.38C724.27,-352.59 630,-307.98 630,-235 630,-235 630,-235 630,-161 630,-122.05 630,-77.1 632.12,-48.38"/>
<polygon fill="purple" stroke="purple" points="632.15,-48 628.74,-41.64 633.29,-36.05 636.7,-42.4 632.15,-48"/>
</g>
<!-- SRC&#45;&gt;SHC1 -->
<g id="edge165" class="edge">
<title>SRC&#45;&gt;SHC1</title>
<path fill="none" stroke="green" d="M795.12,-359.85C791.58,-322.74 791.31,-234.75 794.33,-190.05"/>
<polygon fill="green" stroke="green" points="797.83,-190.18 795.14,-179.94 790.85,-189.62 797.83,-190.18"/>
</g>
<!-- SRC&#45;&gt;GRB2 -->
<g id="edge166" class="edge">
<title>SRC&#45;&gt;GRB2</title>
<path fill="none" stroke="green" d="M825.41,-368.84C886.83,-351.99 1043.17,-312.86 1176,-288 1293.61,-265.99 1433.89,-248 1505.38,-239.8"/>
<polygon fill="green" stroke="green" points="1505.87,-243.27 1515.41,-238.66 1505.08,-236.31 1505.87,-243.27"/>
</g>
<!-- SRC&#45;&gt;PLCG1 -->
<g id="edge167" class="edge">
<title>SRC&#45;&gt;PLCG1</title>
<path fill="none" stroke="green" d="M814.48,-393.87C821.04,-404.27 827.44,-418.62 831,-432 859.98,-540.9 806.2,-584.45 859,-684 903.41,-767.72 999.39,-831.02 1049.48,-861.29"/>
<polygon fill="green" stroke="green" points="1047.89,-864.42 1058.27,-866.55 1051.49,-858.41 1047.89,-864.42"/>
</g>
<!-- SRC&#45;&gt;BCAR1 -->
<g id="edge168" class="edge">
<title>SRC&#45;&gt;BCAR1</title>
<path fill="none" stroke="green" d="M773.7,-388.12C750.17,-396.41 715.57,-410.64 691,-432 547.36,-556.83 488,-618.7 488,-809 488,-1171 488,-1171 488,-1171 488,-1326.9 549.99,-1506.82 570.84,-1573.93"/>
<polygon fill="green" stroke="green" points="567.55,-1575.16 573.81,-1583.71 574.25,-1573.13 567.55,-1575.16"/>
</g>
<!-- SRC&#45;&gt;PRKACA -->
<g id="edge169" class="edge">
<title>SRC&#45;&gt;PRKACA</title>
<path fill="none" stroke="green" d="M798.77,-396.02C792.5,-432.01 770,-518.66 770,-593 770,-667 770,-667 770,-667 770,-738.87 754.9,-762.74 785,-828 915.83,-1111.7 1025.44,-1144.05 1275,-1332 1292.21,-1344.96 1313.02,-1356.61 1330.38,-1365.67"/>
<polygon fill="green" stroke="green" points="1329.13,-1368.96 1339.63,-1370.42 1332.33,-1362.74 1329.13,-1368.96"/>
</g>
<!-- RAC1&#45;&gt;CDH1 -->
<g id="edge97" class="edge">
<title>RAC1&#45;&gt;CDH1</title>
<path fill="none" stroke="red" d="M1341.3,-467.79C1343.11,-477.13 1344.27,-488.88 1344.43,-498.96"/>
<polygon fill="red" stroke="red" points="1349.43,-503.06 1339.43,-503.05 1339.43,-501.05 1349.43,-501.06 1349.43,-503.06"/>
<polyline fill="none" stroke="red" points="1344.43,-504.05 1344.43,-499.05 "/>
</g>
<!-- RAC1&#45;&gt;PRKCA -->
<g id="edge115" class="edge">
<title>RAC1&#45;&gt;PRKCA</title>
<path fill="none" stroke="green" d="M1370.12,-452.8C1446.78,-458.8 1618,-484.46 1618,-593 1618,-667 1618,-667 1618,-667 1618,-762.1 1613.53,-874.91 1607.5,-925.76"/>
<polygon fill="green" stroke="green" points="1604,-925.55 1606.16,-935.92 1610.94,-926.47 1604,-925.55"/>
</g>
<!-- RAC1&#45;&gt;ITGB1 -->
<g id="edge143" class="edge">
<title>RAC1&#45;&gt;ITGB1</title>
<path fill="none" stroke="green" d="M1318.71,-433.53C1298.84,-409.27 1265.25,-362.02 1246.71,-332.63"/>
<polygon fill="green" stroke="green" points="1249.48,-330.45 1241.26,-323.76 1243.52,-334.11 1249.48,-330.45"/>
</g>
<!-- RAC1&#45;&gt;TP53 -->
<g id="edge161" class="edge">
<title>RAC1&#45;&gt;TP53</title>
<path fill="none" stroke="green" d="M1370.34,-447.72C1462.12,-444.18 1709.64,-432.04 1913,-396 2133,-357.01 2389.81,-276.38 2486.1,-246.48"/>
<polygon fill="green" stroke="green" points="2487.2,-249.8 2495.71,-243.5 2485.13,-243.12 2487.2,-249.8"/>
</g>
<!-- RAC1&#45;&gt;MAP3K1 -->
<g id="edge100" class="edge">
<title>RAC1&#45;&gt;MAP3K1</title>
<path fill="none" stroke="green" d="M1369.38,-454.3C1438.27,-461.2 1587.54,-478.67 1632,-504 1723.73,-556.27 1712.82,-608.88 1787,-684 1797.35,-694.48 1809.41,-705.37 1820,-714.53"/>
<polygon fill="green" stroke="green" points="1817.88,-717.32 1827.75,-721.16 1822.43,-712 1817.88,-717.32"/>
</g>
<!-- RAC1&#45;&gt;SRC -->
<g id="edge77" class="edge">
<title>RAC1&#45;&gt;SRC</title>
<path fill="none" stroke="green" d="M1298.72,-444.83C1202.86,-432.85 938.67,-398.3 838.29,-384.65"/>
<polygon fill="green" stroke="green" points="838.64,-381.17 828.26,-383.28 837.7,-388.1 838.64,-381.17"/>
</g>
<!-- RAC1&#45;&gt;RHOA -->
<g id="edge171" class="edge">
<title>RAC1&#45;&gt;RHOA</title>
<path fill="none" stroke="purple" d="M1320.1,-467.06C1269.6,-518.64 1096.97,-687.03 1015,-864 943.2,-1019.02 940,-1070.16 940,-1241 940,-1315 940,-1315 940,-1315 940,-1353.95 940,-1398.9 937.88,-1427.62"/>
<polygon fill="purple" stroke="purple" points="937.85,-1428 941.26,-1434.36 936.71,-1439.95 933.3,-1433.6 937.85,-1428"/>
</g>
<!-- RAC1&#45;&gt;BCAR1 -->
<g id="edge176" class="edge">
<title>RAC1&#45;&gt;BCAR1</title>
<path fill="none" stroke="green" d="M1309.38,-463.29C1231.53,-500.26 989.71,-618.72 863,-792 669.85,-1056.16 603.95,-1465.21 583.62,-1573.78"/>
<polygon fill="green" stroke="green" points="580.13,-1573.41 581.69,-1583.89 587.01,-1574.73 580.13,-1573.41"/>
</g>
<!-- RHOA&#45;&gt;PTK2 -->
<g id="edge104" class="edge">
<title>RHOA&#45;&gt;PTK2</title>
<path fill="none" stroke="green" d="M946.13,-1474.92C958.72,-1493.12 976.31,-1523.54 994,-1548 1043.32,-1616.2 1059.86,-1630.19 1117,-1692 1125.88,-1701.61 1135.96,-1711.84 1144.38,-1720.73"/>
<polygon fill="green" stroke="green" points="1141.91,-1723.21 1151.29,-1728.15 1147.04,-1718.44 1141.91,-1723.21"/>
</g>
<!-- RHOA&#45;&gt;PTPN1 -->
<g id="edge153" class="edge">
<title>RHOA&#45;&gt;PTPN1</title>
<path fill="none" stroke="red" d="M894.45,-1464.31C800.02,-1477.25 548.63,-1510.33 444.77,-1523.48"/>
<polygon fill="red" stroke="red" points="441.26,-1528.97 440,-1519.05 441.99,-1518.8 443.24,-1528.72 441.26,-1528.97"/>
<polyline fill="none" stroke="red" points="439.64,-1524.13 444.6,-1523.51 "/>
</g>
<!-- RHOA&#45;&gt;PRKCA -->
<g id="edge117" class="edge">
<title>RHOA&#45;&gt;PRKCA</title>
<path fill="none" stroke="green" d="M957.55,-1444.54C980.14,-1435.05 1012.67,-1420.77 1039,-1404 1267.12,-1258.75 1280.58,-1164.7 1501,-1008 1519.95,-994.53 1542.53,-981.36 1561.57,-971.52"/>
<polygon fill="green" stroke="green" points="1563.24,-974.6 1570.59,-966.97 1560.09,-968.34 1563.24,-974.6"/>
</g>
<!-- RHOA&#45;&gt;ITGB1 -->
<g id="edge145" class="edge">
<title>RHOA&#45;&gt;ITGB1</title>
<path fill="none" stroke="green" d="M909.51,-1442.82C869.76,-1411 790,-1329.87 790,-1243 790,-1243 790,-1243 790,-1097 790,-752.45 1111.44,-416.49 1207.41,-328.96"/>
<polygon fill="green" stroke="green" points="1209.86,-331.46 1214.95,-322.18 1205.18,-326.26 1209.86,-331.46"/>
</g>
<!-- RHOA&#45;&gt;FOS -->
<g id="edge135" class="edge">
<title>RHOA&#45;&gt;FOS</title>
<path fill="none" stroke="green" d="M969.03,-1454.01C1064.68,-1446.41 1323,-1425.44 1538,-1404 2014.16,-1356.52 2193.22,-1503.76 2605,-1260 2658.25,-1228.48 2762,-1047.05 2762,-1027 2762,-1027 2762,-1027 2762,-449 2762,-402.37 2729.75,-356.24 2707.27,-329.74"/>
<polygon fill="green" stroke="green" points="2709.87,-327.4 2700.65,-322.17 2704.6,-332 2709.87,-327.4"/>
</g>
<!-- RHOA&#45;&gt;SRC -->
<g id="edge79" class="edge">
<title>RHOA&#45;&gt;SRC</title>
<path fill="none" stroke="red" d="M896.02,-1449.97C868.23,-1442.31 830.33,-1427.85 805,-1404 756.91,-1358.73 640,-1081.88 640,-955 640,-955 640,-955 640,-737 640,-664.94 744.69,-463.42 784.4,-399.04"/>
<polygon fill="red" stroke="red" points="782.37,-392.85 790.85,-398.15 789.79,-399.84 781.31,-394.55 782.37,-392.85"/>
<polyline fill="none" stroke="red" points="787.14,-394.65 784.49,-398.89 "/>
</g>
<!-- RHOA&#45;&gt;RAC1 -->
<g id="edge172" class="edge">
<title>RHOA&#45;&gt;RAC1</title>
<path fill="none" stroke="red" d="M925.29,-1439.95C922,-1413.29 922,-1360.11 922,-1315 922,-1315 922,-1315 922,-1241 922,-1070.16 925.2,-1019.02 997,-864 1078.15,-688.8 1248.16,-522.01 1310.61,-468.65"/>
<polygon fill="red" stroke="red" points="1310.57,-462.13 1317.03,-469.76 1315.51,-471.05 1309.04,-463.42 1310.57,-462.13"/>
<polyline fill="none" stroke="red" points="1314.57,-465.3 1310.75,-468.53 "/>
</g>
<!-- RHOA&#45;&gt;SHC1 -->
<g id="edge178" class="edge">
<title>RHOA&#45;&gt;SHC1</title>
<path fill="none" stroke="red" d="M894.18,-1451.82C852.98,-1444.99 785.05,-1430.6 732,-1404 504.35,-1289.84 376,-1209.67 376,-955 376,-955 376,-955 376,-881 376,-777.12 282,-770.88 282,-667 282,-667 282,-667 282,-593 282,-342.8 644.34,-210.15 762.34,-173.59"/>
<polygon fill="red" stroke="red" points="765.01,-167.54 767.95,-177.1 766.04,-177.68 763.1,-168.12 765.01,-167.54"/>
<polyline fill="none" stroke="red" points="767.44,-172.02 762.66,-173.49 "/>
</g>
<!-- RHOA&#45;&gt;GRB2 -->
<g id="edge179" class="edge">
<title>RHOA&#45;&gt;GRB2</title>
<path fill="none" stroke="red" d="M969.76,-1455.45C1053.49,-1451.54 1257.18,-1438.95 1424,-1404 1476,-1393.11 1485.82,-1378.01 1538,-1368 1591.83,-1357.68 1987.73,-1366.9 2030,-1332 2061.59,-1305.92 2054,-1283.97 2054,-1243 2054,-1243 2054,-1243 2054,-1169 2054,-1073.69 2040,-1050.31 2040,-955 2040,-955 2040,-955 2040,-737 2040,-618.46 1856.77,-343.45 1752,-288 1700.9,-260.95 1634.99,-246.97 1593.1,-240.31"/>
<polygon fill="red" stroke="red" points="1588.33,-244.63 1589.87,-234.74 1591.85,-235.05 1590.31,-244.93 1588.33,-244.63"/>
<polyline fill="none" stroke="red" points="1588.11,-239.53 1593.05,-240.3 "/>
</g>
<!-- RHOA&#45;&gt;PLCG1 -->
<g id="edge180" class="edge">
<title>RHOA&#45;&gt;PLCG1</title>
<path fill="none" stroke="green" d="M946.91,-1441.39C958.54,-1431.96 973.47,-1418.89 983,-1404 1002.04,-1374.27 1072,-1134.3 1072,-1099 1072,-1099 1072,-1099 1072,-1025 1072,-985 1072,-938.65 1074.29,-910.08"/>
<polygon fill="green" stroke="green" points="1077.78,-910.35 1075.29,-900.05 1070.82,-909.65 1077.78,-910.35"/>
</g>
<!-- RHOA&#45;&gt;PRKACA -->
<g id="edge183" class="edge">
<title>RHOA&#45;&gt;PRKACA</title>
<path fill="none" stroke="green" d="M966.57,-1450.6C1042.17,-1437.86 1218.86,-1409.34 1309.44,-1395.23"/>
<polygon fill="green" stroke="green" points="1310.18,-1398.66 1319.52,-1393.66 1309.1,-1391.74 1310.18,-1398.66"/>
</g>
<!-- RASA1&#45;&gt;INSR -->
<g id="edge157" class="edge">
<title>RASA1&#45;&gt;INSR</title>
<path fill="none" stroke="green" d="M600.51,-25.76C518.43,-39.31 327.11,-69.6 240.66,-82.73"/>
<polygon fill="green" stroke="green" points="240.01,-79.29 230.65,-84.24 241.06,-86.21 240.01,-79.29"/>
</g>
<!-- RASA1&#45;&gt;SRC -->
<g id="edge82" class="edge">
<title>RASA1&#45;&gt;SRC</title>
<path fill="none" stroke="green" d="M644.71,-36.05C648,-62.71 648,-115.89 648,-161 648,-235 648,-235 648,-235 648,-299.36 721.31,-341.65 765.89,-362.26"/>
<polygon fill="green" stroke="green" points="764.65,-365.54 775.2,-366.45 767.52,-359.16 764.65,-365.54"/>
</g>
<!-- RASA1&#45;&gt;RAC1 -->
<g id="edge173" class="edge">
<title>RASA1&#45;&gt;RAC1</title>
<path fill="none" stroke="red" d="M681.22,-19.19C901.41,-20.72 1908,-34.64 1908,-161 1908,-307 1908,-307 1908,-307 1908,-416.73 1507.69,-442.22 1375.68,-447.64"/>
<polygon fill="red" stroke="red" points="1371.54,-452.81 1371.14,-442.82 1373.14,-442.74 1373.54,-452.73 1371.54,-452.81"/>
<polyline fill="none" stroke="red" points="1370.34,-447.86 1375.34,-447.65 "/>
</g>
<!-- RASA1&#45;&gt;SHC1 -->
<g id="edge185" class="edge">
<title>RASA1&#45;&gt;SHC1</title>
<path fill="none" stroke="green" d="M656.48,-34.52C684.97,-59.79 741.47,-109.94 774.12,-138.92"/>
<polygon fill="green" stroke="green" points="772.07,-141.78 781.88,-145.8 776.72,-136.55 772.07,-141.78"/>
</g>
<!-- RASA1&#45;&gt;GRB2 -->
<g id="edge186" class="edge">
<title>RASA1&#45;&gt;GRB2</title>
<path fill="none" stroke="green" d="M676.65,-26.34C797.31,-50.12 1184.88,-128.64 1500,-216 1504.12,-217.14 1508.4,-218.41 1512.65,-219.72"/>
<polygon fill="green" stroke="green" points="1511.85,-223.14 1522.44,-222.82 1513.97,-216.46 1511.85,-223.14"/>
</g>
<!-- RASA1&#45;&gt;PLCG1 -->
<g id="edge187" class="edge">
<title>RASA1&#45;&gt;PLCG1</title>
<path fill="none" stroke="red" d="M596.85,-20.44C484.16,-24.73 182.43,-39.18 153,-72 99.22,-131.96 147.21,-176.04 174,-252 279.77,-551.94 393.73,-621.65 682,-756 806.17,-813.87 964.1,-854.35 1038.54,-871.63"/>
<polygon fill="red" stroke="red" points="1043.9,-867.74 1041.65,-877.48 1039.7,-877.03 1041.95,-867.29 1043.9,-867.74"/>
<polyline fill="none" stroke="red" points="1043.75,-872.83 1038.88,-871.71 "/>
</g>
<!-- SHC1&#45;&gt;PTK2 -->
<g id="edge106" class="edge">
<title>SHC1&#45;&gt;PTK2</title>
<path fill="none" stroke="green" d="M836.94,-162.95C953.34,-163.3 1314.33,-168.27 1608,-216 1732.71,-236.27 1769.38,-232.75 1883,-288 2037.04,-362.91 2190,-349.71 2190,-521 2190,-667 2190,-667 2190,-667 2190,-763.6 2228,-784.4 2228,-881 2228,-955 2228,-955 2228,-955 2228,-1059.2 2227.74,-1087.03 2202,-1188 2170.09,-1313.16 2092,-1327.83 2092,-1457 2092,-1603 2092,-1603 2092,-1603 2092,-1693.21 1393.71,-1733.95 1206.6,-1743"/>
<polygon fill="green" stroke="green" points="1206.36,-1739.51 1196.54,-1743.48 1206.7,-1746.5 1206.36,-1739.51"/>
</g>
<!-- SHC1&#45;&gt;INSR -->
<g id="edge159" class="edge">
<title>SHC1&#45;&gt;INSR</title>
<path fill="none" stroke="green" d="M762.48,-157.14C657.32,-145.42 354.76,-110.26 240.92,-96.56"/>
<polygon fill="green" stroke="green" points="241.17,-93.06 230.82,-95.34 240.33,-100.01 241.17,-93.06"/>
</g>
<!-- SHC1&#45;&gt;SRC -->
<g id="edge84" class="edge">
<title>SHC1&#45;&gt;SRC</title>
<path fill="none" stroke="green" d="M802.86,-179.94C806.41,-216.85 806.69,-304.83 803.69,-349.69"/>
<polygon fill="green" stroke="green" points="800.18,-349.6 802.88,-359.85 807.16,-350.16 800.18,-349.6"/>
</g>
<!-- SHC1&#45;&gt;RAC1 -->
<g id="edge174" class="edge">
<title>SHC1&#45;&gt;RAC1</title>
<path fill="none" stroke="green" d="M834.96,-167.7C935.67,-181.56 1217.38,-225.24 1283,-288 1320.16,-323.54 1330.34,-385.93 1333.07,-421.72"/>
<polygon fill="green" stroke="green" points="1329.59,-422.14 1333.7,-431.91 1336.57,-421.71 1329.59,-422.14"/>
</g>
<!-- SHC1&#45;&gt;GRB2 -->
<g id="edge188" class="edge">
<title>SHC1&#45;&gt;GRB2</title>
<path fill="none" stroke="green" d="M836.44,-164.48C963.83,-169.98 1378.81,-190.19 1509,-216 1511.66,-216.53 1514.37,-217.15 1517.08,-217.84"/>
<polygon fill="green" stroke="green" points="1516.2,-221.22 1526.77,-220.57 1518.1,-214.49 1516.2,-221.22"/>
</g>
<!-- GRB2&#45;&gt;PTK2 -->
<g id="edge108" class="edge">
<title>GRB2&#45;&gt;PTK2</title>
<path fill="none" stroke="green" d="M1590.04,-235.27C1647.06,-236.99 1755.97,-245.88 1836,-288 1970.03,-358.54 2172,-729.54 2172,-881 2172,-955 2172,-955 2172,-955 2172,-1146.21 2186,-1193.79 2186,-1385 2186,-1459 2186,-1459 2186,-1459 2186,-1567.26 2200.15,-1625.15 2115,-1692 2105.99,-1699.07 1395.39,-1734.05 1206.58,-1742.94"/>
<polygon fill="green" stroke="green" points="1206.26,-1739.45 1196.44,-1743.42 1206.59,-1746.44 1206.26,-1739.45"/>
</g>
<!-- GRB2&#45;&gt;SRC -->
<g id="edge86" class="edge">
<title>GRB2&#45;&gt;SRC</title>
<path fill="none" stroke="green" d="M1516.11,-239.85C1451.35,-248.07 1311.38,-266.03 1194,-288 1062.24,-312.66 907.35,-351.36 836.97,-368.43"/>
<polygon fill="green" stroke="green" points="836.11,-365.04 827.21,-370.78 837.75,-371.84 836.11,-365.04"/>
</g>
<!-- GRB2&#45;&gt;RAC1 -->
<g id="edge175" class="edge">
<title>GRB2&#45;&gt;RAC1</title>
<path fill="none" stroke="green" d="M1536.17,-250.54C1498.08,-287.93 1401.21,-383.02 1356.83,-426.59"/>
<polygon fill="green" stroke="green" points="1354.36,-424.11 1349.68,-433.61 1359.27,-429.1 1354.36,-424.11"/>
</g>
<!-- GRB2&#45;&gt;SHC1 -->
<g id="edge189" class="edge">
<title>GRB2&#45;&gt;SHC1</title>
<path fill="none" stroke="green" d="M1520.35,-224.08C1510.89,-221.03 1500.6,-217.9 1491,-216 1366.59,-191.34 982.15,-171.79 846.71,-165.3"/>
<polygon fill="green" stroke="green" points="846.79,-161.8 836.64,-164.82 846.46,-168.8 846.79,-161.8"/>
</g>
<!-- GRB2&#45;&gt;PLCG1 -->
<g id="edge190" class="edge">
<title>GRB2&#45;&gt;PLCG1</title>
<path fill="none" stroke="green" d="M1585.29,-242.47C1639.54,-256.32 1747.08,-291.07 1808,-360 1889.39,-452.08 1988.21,-661.58 1907,-756 1806.25,-873.15 1301,-881.88 1134.39,-881.52"/>
<polygon fill="green" stroke="green" points="1133.93,-878.01 1123.91,-881.48 1133.9,-885.01 1133.93,-878.01"/>
</g>
<!-- PLCG1&#45;&gt;CDC42 -->
<g id="edge138" class="edge">
<title>PLCG1&#45;&gt;CDC42</title>
<path fill="none" stroke="green" d="M1116.44,-871.78C1164.69,-859.22 1251.11,-836.73 1304.21,-822.91"/>
<polygon fill="green" stroke="green" points="1305.25,-826.26 1314.05,-820.36 1303.49,-819.49 1305.25,-826.26"/>
</g>
<!-- PLCG1&#45;&gt;PRKCA -->
<g id="edge120" class="edge">
<title>PLCG1&#45;&gt;PRKCA</title>
<path fill="none" stroke="green" d="M1116.5,-892.11C1126.41,-895 1137.09,-897.97 1147,-900 1290.62,-929.4 1462.88,-943.73 1548.1,-949.6"/>
<polygon fill="green" stroke="green" points="1548.09,-953.11 1558.3,-950.29 1548.56,-946.12 1548.09,-953.11"/>
</g>
<!-- PLCG1&#45;&gt;SRC -->
<g id="edge88" class="edge">
<title>PLCG1&#45;&gt;SRC</title>
<path fill="none" stroke="green" d="M1051.9,-868.65C999.1,-842.26 889.41,-775.26 841,-684 788.2,-584.45 841.98,-540.9 813,-432 810.65,-423.18 807.07,-413.93 803.83,-405.68"/>
<polygon fill="green" stroke="green" points="807.03,-404.25 800.15,-396.19 800.5,-406.78 807.03,-404.25"/>
</g>
<!-- PLCG1&#45;&gt;RHOA -->
<g id="edge181" class="edge">
<title>PLCG1&#45;&gt;RHOA</title>
<path fill="none" stroke="green" d="M1086.71,-900.05C1090,-926.71 1090,-979.89 1090,-1025 1090,-1099 1090,-1099 1090,-1099 1090,-1134.3 1020.04,-1374.27 1001,-1404 992.19,-1417.76 978.76,-1429.97 965.9,-1439.19"/>
<polygon fill="green" stroke="green" points="963.92,-1436.31 957.59,-1444.81 967.83,-1442.11 963.92,-1436.31"/>
</g>
<!-- PLCG1&#45;&gt;PRKACA -->
<g id="edge191" class="edge">
<title>PLCG1&#45;&gt;PRKACA</title>
<path fill="none" stroke="purple" d="M1108.18,-896.04C1122.87,-905.72 1139.9,-919.96 1151,-936 1175,-970.69 1184,-982.81 1184,-1025 1184,-1099 1184,-1099 1184,-1099 1184,-1212.45 1289,-1315.28 1339.19,-1360.58"/>
<polygon fill="purple" stroke="purple" points="1339.51,-1360.86 1346.65,-1361.88 1348.45,-1368.86 1341.31,-1367.84 1339.51,-1360.86"/>
</g>
<!-- BCAR1&#45;&gt;PTPN1 -->
<g id="edge155" class="edge">
<title>BCAR1&#45;&gt;PTPN1</title>
<path fill="none" stroke="red" d="M544.12,-1590.06C511.93,-1578.2 463.39,-1559.19 431.37,-1545.95"/>
<polygon fill="red" stroke="red" points="425.39,-1548.88 429.22,-1539.65 431.07,-1540.41 427.23,-1549.65 425.39,-1548.88"/>
<polyline fill="none" stroke="red" points="426.38,-1543.88 431,-1545.8 "/>
</g>
<!-- BCAR1&#45;&gt;SRC -->
<g id="edge90" class="edge">
<title>BCAR1&#45;&gt;SRC</title>
<path fill="none" stroke="green" d="M566.6,-1584.11C539.12,-1527.02 470,-1335.62 470,-1171 470,-1171 470,-1171 470,-809 470,-618.7 529.36,-556.83 673,-432 698.07,-410.21 733.58,-395.83 760.67,-387.62"/>
<polygon fill="green" stroke="green" points="761.95,-390.89 770.6,-384.77 760.02,-384.16 761.95,-390.89"/>
</g>
<!-- BCAR1&#45;&gt;RAC1 -->
<g id="edge177" class="edge">
<title>BCAR1&#45;&gt;RAC1</title>
<path fill="none" stroke="green" d="M576.4,-1583.89C581.58,-1493.48 645.21,-1065.23 845,-792 969.29,-622.02 1204.35,-504.8 1296.13,-465.49"/>
<polygon fill="green" stroke="green" points="1297.72,-468.62 1305.58,-461.51 1295,-462.17 1297.72,-468.62"/>
</g>
<!-- BCAR1&#45;&gt;RHOA -->
<g id="edge182" class="edge">
<title>BCAR1&#45;&gt;RHOA</title>
<path fill="none" stroke="purple" d="M607.18,-1588.89C671.01,-1563.29 819.68,-1503.66 891.18,-1474.97"/>
<polygon fill="purple" stroke="purple" points="891.24,-1474.95 895.32,-1469 902.38,-1470.48 898.3,-1476.43 891.24,-1474.95"/>
</g>
<!-- PRKACA&#45;&gt;GSK3B -->
<g id="edge111" class="edge">
<title>PRKACA&#45;&gt;GSK3B</title>
<path fill="none" stroke="purple" d="M1410.79,-1378.6C1503.68,-1365.62 1713.83,-1336.26 1812.69,-1322.45"/>
<polygon fill="purple" stroke="purple" points="1812.86,-1322.42 1818.25,-1317.63 1824.75,-1320.76 1819.36,-1325.56 1812.86,-1322.42"/>
</g>
<!-- PRKACA&#45;&gt;VIM -->
<g id="edge125" class="edge">
<title>PRKACA&#45;&gt;VIM</title>
<path fill="none" stroke="red" d="M1383.81,-1369.16C1453.43,-1310.51 1696.2,-1106.01 1769.13,-1044.58"/>
<polygon fill="red" stroke="red" points="1769.29,-1037.9 1775.74,-1045.55 1774.21,-1046.84 1767.76,-1039.19 1769.29,-1037.9"/>
<polyline fill="none" stroke="red" points="1773.28,-1041.08 1769.46,-1044.31 "/>
</g>
<!-- PRKACA&#45;&gt;ITGB1 -->
<g id="edge149" class="edge">
<title>PRKACA&#45;&gt;ITGB1</title>
<path fill="none" stroke="green" d="M1352.43,-1368.49C1332.52,-1333.12 1298,-1247.02 1298,-1171 1298,-1171 1298,-1171 1298,-1097 1298,-940.43 1236.66,-552.28 1227,-396 1225.72,-375.31 1225.23,-351.86 1226.35,-334.23"/>
<polygon fill="green" stroke="green" points="1229.86,-334.35 1227.27,-324.08 1222.89,-333.72 1229.86,-334.35"/>
</g>
<!-- PRKACA&#45;&gt;NF2 -->
<g id="edge92" class="edge">
<title>PRKACA&#45;&gt;NF2</title>
<path fill="none" stroke="purple" d="M1411.65,-1379.18C1440.06,-1375.73 1477.1,-1371.38 1510,-1368 1555.38,-1363.34 1884.51,-1361.86 1919,-1332 1949.73,-1305.4 1940,-1283.64 1940,-1243 1940,-1243 1940,-1243 1940,-1169 1940,-1058.62 1981.03,-1036.81 2026,-936 2092.94,-785.95 2162.79,-771.05 2204,-612 2236.73,-485.71 2213.05,-327.6 2200.95,-263.73"/>
<polygon fill="purple" stroke="purple" points="2200.94,-263.69 2195.86,-258.57 2198.64,-251.91 2203.72,-257.03 2200.94,-263.69"/>
</g>
<!-- PRKACA&#45;&gt;LATS1 -->
<g id="edge93" class="edge">
<title>PRKACA&#45;&gt;LATS1</title>
<path fill="none" stroke="green" d="M1399.61,-1372.98C1406.31,-1371.03 1413.32,-1369.25 1420,-1368 1534.53,-1346.66 1846.31,-1396.97 1943,-1332 2076.14,-1242.54 2024.84,-1148.63 2102,-1008 2169.36,-885.24 2266,-879.02 2266,-739 2266,-739 2266,-739 2266,-665 2266,-568.4 2304,-547.6 2304,-451 2304,-451 2304,-451 2304,-233 2304,-192.55 2306.58,-180.97 2323,-144 2331.01,-125.96 2340.99,-126.04 2349,-108 2357.75,-88.3 2362.57,-64.31 2365.16,-46.21"/>
<polygon fill="green" stroke="green" points="2368.67,-46.41 2366.48,-36.05 2361.72,-45.52 2368.67,-46.41"/>
</g>
<!-- PRKACA&#45;&gt;LATS2 -->
<g id="edge99" class="edge">
<title>PRKACA&#45;&gt;LATS2</title>
<path fill="none" stroke="green" d="M1399.6,-1372.94C1406.3,-1371 1413.32,-1369.23 1420,-1368 1545.27,-1345.03 1883.44,-1398.6 1992,-1332 2057.22,-1291.99 2342,-815.51 2342,-739 2342,-739 2342,-739 2342,-665 2342,-483.59 2361.76,-265.96 2369.21,-190.41"/>
<polygon fill="green" stroke="green" points="2372.7,-190.62 2370.21,-180.32 2365.74,-189.92 2372.7,-190.62"/>
</g>
<!-- PRKACA&#45;&gt;FOS -->
<g id="edge136" class="edge">
<title>PRKACA&#45;&gt;FOS</title>
<path fill="none" stroke="green" d="M1413.73,-1381.81C1564.63,-1371.89 2018.09,-1341.61 2084,-1332 2157.84,-1321.23 2174.37,-1308.12 2248,-1296 2391.4,-1272.39 2445.28,-1329.33 2573,-1260 2632.02,-1227.96 2724,-1030.81 2724,-1027 2724,-1027 2724,-1027 2724,-449 2724,-407.41 2708.6,-361.22 2697.4,-333.14"/>
<polygon fill="green" stroke="green" points="2700.55,-331.58 2693.51,-323.66 2694.07,-334.24 2700.55,-331.58"/>
</g>
<!-- PRKACA&#45;&gt;RAP1A -->
<g id="edge133" class="edge">
<title>PRKACA&#45;&gt;RAP1A</title>
<path fill="none" stroke="purple" d="M1373.72,-1367.83C1378.37,-1357.69 1383.62,-1344.44 1386,-1332 1389,-1316.28 1387.29,-1311.95 1386,-1296 1378.87,-1207.58 1354,-1187.7 1354,-1099 1354,-1099 1354,-1099 1354,-1025 1354,-918.39 1285.57,-897.99 1297,-792 1303.56,-731.18 1321.2,-661.6 1331.74,-623.56"/>
<polygon fill="purple" stroke="purple" points="1331.76,-623.48 1329.54,-616.62 1335.01,-611.92 1337.24,-618.78 1331.76,-623.48"/>
</g>
<!-- PRKACA&#45;&gt;SRC -->
<g id="edge170" class="edge">
<title>PRKACA&#45;&gt;SRC</title>
<path fill="none" stroke="green" d="M1329.75,-1372.94C1307.55,-1363.34 1279.27,-1348.77 1257,-1332 1007.44,-1144.05 897.83,-1111.7 767,-828 736.9,-762.74 752,-738.87 752,-667 752,-667 752,-667 752,-593 752,-524.1 771.33,-444.61 785.69,-404.69"/>
<polygon fill="green" stroke="green" points="789.01,-405.79 789.31,-395.2 782.47,-403.3 789.01,-405.79"/>
</g>
<!-- PRKACA&#45;&gt;RHOA -->
<g id="edge184" class="edge">
<title>PRKACA&#45;&gt;RHOA</title>
<path fill="none" stroke="purple" d="M1321.03,-1394.81C1239.28,-1408.5 1064.83,-1436.63 979.66,-1449.84"/>
<polygon fill="purple" stroke="purple" points="979.63,-1449.85 974.31,-1454.72 967.77,-1451.68 973.09,-1446.81 979.63,-1449.85"/>
</g>
<!-- PRKACA&#45;&gt;PLCG1 -->
<g id="edge192" class="edge">
<title>PRKACA&#45;&gt;PLCG1</title>
<path fill="none" stroke="red" d="M1341,-1370.02C1287.84,-1331.09 1166,-1221.2 1166,-1099 1166,-1099 1166,-1099 1166,-1025 1166,-982.81 1157,-970.69 1133,-936 1124.04,-923.05 1111.22,-911.27 1100.39,-902.12"/>
<polygon fill="red" stroke="red" points="1094.07,-903.35 1100.48,-895.68 1102.02,-896.96 1095.6,-904.64 1094.07,-903.35"/>
<polyline fill="none" stroke="red" points="1096.51,-898.88 1100.34,-902.08 "/>
</g>
</g>
</svg>
