<?xml version="1.0" encoding="UTF-8" standalone="no"?>
<!DOCTYPE svg PUBLIC "-//W3C//DTD SVG 1.1//EN"
 "http://www.w3.org/Graphics/SVG/1.1/DTD/svg11.dtd">
<!-- Generated by graphviz version 2.43.0 (0)
 -->
<!-- Title: %3 Pages: 1 -->
<svg width="911pt" height="980pt"
 viewBox="0.00 0.00 911.35 980.00" xmlns="http://www.w3.org/2000/svg" xmlns:xlink="http://www.w3.org/1999/xlink">
<g id="graph0" class="graph" transform="scale(1 1) rotate(0) translate(4 976)">
<title>%3</title>
<polygon fill="white" stroke="transparent" points="-4,4 -4,-976 907.35,-976 907.35,4 -4,4"/>
<!-- SRC -->
<g id="node1" class="node">
<title>SRC</title>
<ellipse fill="lightyellow" stroke="black" cx="365.35" cy="-954" rx="30.59" ry="18"/>
<text text-anchor="middle" x="365.35" y="-950.3" font-family="Times,serif" font-size="14.00">SRC</text>
</g>
<!-- PTK2 -->
<g id="node2" class="node">
<title>PTK2</title>
<ellipse fill="lightyellow" stroke="black" cx="805.35" cy="-882" rx="36" ry="18"/>
<text text-anchor="middle" x="805.35" y="-878.3" font-family="Times,serif" font-size="14.00">PTK2</text>
</g>
<!-- SRC&#45;&gt;PTK2 -->
<g id="edge1" class="edge">
<title>SRC&#45;&gt;PTK2</title>
<path fill="none" stroke="green" d="M395.55,-950.89C461.56,-945.84 623.32,-931.11 755.35,-900 759.46,-899.03 763.72,-897.86 767.93,-896.59"/>
<polygon fill="green" stroke="green" points="769.13,-899.88 777.59,-893.5 767,-893.21 769.13,-899.88"/>
</g>
<!-- CDH1 -->
<g id="node3" class="node">
<title>CDH1</title>
<ellipse fill="lightyellow" stroke="black" cx="60.35" cy="-882" rx="38.19" ry="18"/>
<text text-anchor="middle" x="60.35" y="-878.3" font-family="Times,serif" font-size="14.00">CDH1</text>
</g>
<!-- SRC&#45;&gt;CDH1 -->
<g id="edge2" class="edge">
<title>SRC&#45;&gt;CDH1</title>
<path fill="none" stroke="red" d="M336.4,-947.67C289.79,-938.9 195.31,-920.35 116.35,-900 109.76,-898.3 102.79,-896.33 96.09,-894.34"/>
<polygon fill="red" stroke="red" points="90.54,-897.9 93.42,-888.32 95.33,-888.9 92.46,-898.48 90.54,-897.9"/>
<polyline fill="none" stroke="red" points="91.02,-892.83 95.81,-894.26 "/>
</g>
<!-- CDH2 -->
<g id="node4" class="node">
<title>CDH2</title>
<ellipse fill="lightyellow" stroke="black" cx="588.35" cy="-882" rx="38.19" ry="18"/>
<text text-anchor="middle" x="588.35" y="-878.3" font-family="Times,serif" font-size="14.00">CDH2</text>
</g>
<!-- SRC&#45;&gt;CDH2 -->
<g id="edge3" class="edge">
<title>SRC&#45;&gt;CDH2</title>
<path fill="none" stroke="red" d="M391.8,-944.7C431.76,-932.15 507.61,-908.34 552.5,-894.25"/>
<polygon fill="red" stroke="red" points="554.83,-888.28 557.82,-897.82 555.91,-898.42 552.92,-888.88 554.83,-888.28"/>
<polyline fill="none" stroke="red" points="557.28,-892.75 552.51,-894.25 "/>
</g>
<!-- PTPN6 -->
<g id="node8" class="node">
<title>PTPN6</title>
<ellipse fill="lightgray" stroke="black" cx="139.35" cy="-594" rx="42.79" ry="18"/>
<text text-anchor="middle" x="139.35" y="-590.3" font-family="Times,serif" font-size="14.00">PTPN6</text>
</g>
<!-- SRC&#45;&gt;PTPN6 -->
<g id="edge34" class="edge">
<title>SRC&#45;&gt;PTPN6</title>
<path fill="none" stroke="green" d="M334.84,-951.23C295.17,-947.46 226.3,-935.78 181.35,-900 145.68,-871.61 130.35,-856.59 130.35,-811 130.35,-811 130.35,-811 130.35,-737 130.35,-697 130.35,-650.65 132.64,-622.08"/>
<polygon fill="green" stroke="green" points="136.13,-622.35 133.63,-612.05 129.16,-621.65 136.13,-622.35"/>
</g>
<!-- DAB1 -->
<g id="node9" class="node">
<title>DAB1</title>
<ellipse fill="lightgray" stroke="black" cx="236.35" cy="-882" rx="37.09" ry="18"/>
<text text-anchor="middle" x="236.35" y="-878.3" font-family="Times,serif" font-size="14.00">DAB1</text>
</g>
<!-- SRC&#45;&gt;DAB1 -->
<g id="edge8" class="edge">
<title>SRC&#45;&gt;DAB1</title>
<path fill="none" stroke="green" d="M343.46,-941.13C323.03,-930.04 292.27,-913.34 268.94,-900.69"/>
<polygon fill="green" stroke="green" points="270.55,-897.58 260.09,-895.88 267.21,-903.73 270.55,-897.58"/>
</g>
<!-- SIGNOR&#45;PF24 -->
<g id="node19" class="node">
<title>SIGNOR&#45;PF24</title>
<ellipse fill="lightgray" stroke="black" cx="451.35" cy="-594" rx="77.19" ry="18"/>
<text text-anchor="middle" x="451.35" y="-590.3" font-family="Times,serif" font-size="14.00">SIGNOR&#45;PF24</text>
</g>
<!-- SRC&#45;&gt;SIGNOR&#45;PF24 -->
<g id="edge22" class="edge">
<title>SRC&#45;&gt;SIGNOR&#45;PF24</title>
<path fill="none" stroke="green" d="M369.1,-936.05C374.64,-909.52 384.35,-856.52 384.35,-811 384.35,-811 384.35,-811 384.35,-737 384.35,-696.55 384.91,-684 403.35,-648 408.72,-637.51 416.7,-627.51 424.63,-619.08"/>
<polygon fill="green" stroke="green" points="427.27,-621.39 431.82,-611.81 422.3,-616.46 427.27,-621.39"/>
</g>
<!-- CDKN1B -->
<g id="node28" class="node">
<title>CDKN1B</title>
<ellipse fill="lightgray" stroke="black" cx="278.35" cy="-378" rx="51.99" ry="18"/>
<text text-anchor="middle" x="278.35" y="-374.3" font-family="Times,serif" font-size="14.00">CDKN1B</text>
</g>
<!-- SRC&#45;&gt;CDKN1B -->
<g id="edge31" class="edge">
<title>SRC&#45;&gt;CDKN1B</title>
<path fill="none" stroke="red" d="M357.83,-936.14C353.55,-925.88 348.44,-912.41 345.35,-900 298.25,-711.13 283.11,-475.04 279.38,-401.75"/>
<polygon fill="red" stroke="red" points="274.17,-397.61 284.16,-397.11 284.25,-399.11 274.27,-399.61 274.17,-397.61"/>
<polyline fill="none" stroke="red" points="279.11,-396.36 279.36,-401.35 "/>
</g>
<!-- TRIO -->
<g id="node10" class="node">
<title>TRIO</title>
<ellipse fill="lightgray" stroke="black" cx="841.35" cy="-810" rx="34.39" ry="18"/>
<text text-anchor="middle" x="841.35" y="-806.3" font-family="Times,serif" font-size="14.00">TRIO</text>
</g>
<!-- PTK2&#45;&gt;TRIO -->
<g id="edge10" class="edge">
<title>PTK2&#45;&gt;TRIO</title>
<path fill="none" stroke="green" d="M813.88,-864.41C818.18,-856.04 823.49,-845.71 828.3,-836.37"/>
<polygon fill="green" stroke="green" points="831.41,-837.96 832.88,-827.47 825.19,-834.76 831.41,-837.96"/>
</g>
<!-- CTNNA1 -->
<g id="node12" class="node">
<title>CTNNA1</title>
<ellipse fill="lightgray" stroke="black" cx="51.35" cy="-666" rx="51.19" ry="18"/>
<text text-anchor="middle" x="51.35" y="-662.3" font-family="Times,serif" font-size="14.00">CTNNA1</text>
</g>
<!-- CDH1&#45;&gt;CTNNA1 -->
<g id="edge13" class="edge">
<title>CDH1&#45;&gt;CTNNA1</title>
<path fill="none" stroke="green" d="M59.62,-863.85C58.07,-826.83 54.38,-739.18 52.5,-694.39"/>
<polygon fill="green" stroke="green" points="55.99,-694.08 52.07,-684.23 48.99,-694.37 55.99,-694.08"/>
</g>
<!-- SIGNOR&#45;C21 -->
<g id="node16" class="node">
<title>SIGNOR&#45;C21</title>
<ellipse fill="lightgray" stroke="black" cx="604.35" cy="-810" rx="71.49" ry="18"/>
<text text-anchor="middle" x="604.35" y="-806.3" font-family="Times,serif" font-size="14.00">SIGNOR&#45;C21</text>
</g>
<!-- CDH2&#45;&gt;SIGNOR&#45;C21 -->
<g id="edge18" class="edge">
<title>CDH2&#45;&gt;SIGNOR&#45;C21</title>
<path fill="none" stroke="green" d="M592.22,-864.05C594,-856.26 596.16,-846.82 598.16,-838.08"/>
<polygon fill="green" stroke="green" points="601.58,-838.8 600.4,-828.28 594.76,-837.24 601.58,-838.8"/>
</g>
<!-- NOTCH1 -->
<g id="node5" class="node">
<title>NOTCH1</title>
<ellipse fill="lightyellow" stroke="black" cx="228.35" cy="-810" rx="51.99" ry="18"/>
<text text-anchor="middle" x="228.35" y="-806.3" font-family="Times,serif" font-size="14.00">NOTCH1</text>
</g>
<!-- HES1 -->
<g id="node6" class="node">
<title>HES1</title>
<ellipse fill="lightgray" stroke="black" cx="229.35" cy="-738" rx="37.89" ry="18"/>
<text text-anchor="middle" x="229.35" y="-734.3" font-family="Times,serif" font-size="14.00">HES1</text>
</g>
<!-- NOTCH1&#45;&gt;HES1 -->
<g id="edge4" class="edge">
<title>NOTCH1&#45;&gt;HES1</title>
<path fill="none" stroke="green" d="M228.59,-791.7C228.7,-783.98 228.84,-774.71 228.96,-766.11"/>
<polygon fill="green" stroke="green" points="232.46,-766.15 229.1,-756.1 225.46,-766.05 232.46,-766.15"/>
</g>
<!-- FLT3 -->
<g id="node7" class="node">
<title>FLT3</title>
<ellipse fill="lightgray" stroke="black" cx="231.35" cy="-666" rx="34.39" ry="18"/>
<text text-anchor="middle" x="231.35" y="-662.3" font-family="Times,serif" font-size="14.00">FLT3</text>
</g>
<!-- HES1&#45;&gt;FLT3 -->
<g id="edge5" class="edge">
<title>HES1&#45;&gt;FLT3</title>
<path fill="none" stroke="red" d="M229.84,-719.7C230.1,-710.46 230.43,-698.98 230.71,-689.11"/>
<polygon fill="red" stroke="red" points="225.83,-684.96 235.83,-685.25 235.77,-687.25 225.77,-686.96 225.83,-684.96"/>
<polyline fill="none" stroke="red" points="230.86,-684.1 230.71,-689.1 "/>
</g>
<!-- FLT3&#45;&gt;PTPN6 -->
<g id="edge6" class="edge">
<title>FLT3&#45;&gt;PTPN6</title>
<path fill="none" stroke="red" d="M212.73,-650.83C198.52,-640.03 178.84,-625.05 163.43,-613.33"/>
<polygon fill="red" stroke="red" points="156.98,-614.7 163.03,-606.74 164.62,-607.95 158.57,-615.91 156.98,-614.7"/>
<polyline fill="none" stroke="red" points="159.21,-610.11 163.19,-613.14 "/>
</g>
<!-- FLT3&#45;&gt;SIGNOR&#45;PF24 -->
<g id="edge42" class="edge">
<title>FLT3&#45;&gt;SIGNOR&#45;PF24</title>
<path fill="none" stroke="green" d="M260.11,-655.85C294.97,-644.75 354.44,-625.83 397.83,-612.03"/>
<polygon fill="green" stroke="green" points="398.91,-615.36 407.38,-608.99 396.79,-608.69 398.91,-615.36"/>
</g>
<!-- FLT3&#45;&gt;CDKN1B -->
<g id="edge43" class="edge">
<title>FLT3&#45;&gt;CDKN1B</title>
<path fill="none" stroke="red" d="M232.28,-647.84C234.67,-608.98 242.11,-511.46 260.35,-432 262.75,-421.51 266.44,-410.19 269.86,-400.71"/>
<polygon fill="red" stroke="red" points="266.57,-395.15 275.96,-398.59 275.27,-400.47 265.88,-397.02 266.57,-395.15"/>
<polyline fill="none" stroke="red" points="271.61,-395.93 269.89,-400.62 "/>
</g>
<!-- PTPN6&#45;&gt;SRC -->
<g id="edge7" class="edge">
<title>PTPN6&#45;&gt;SRC</title>
<path fill="none" stroke="green" d="M145.06,-612.05C148.35,-638.71 148.35,-691.89 148.35,-737 148.35,-811 148.35,-811 148.35,-811 148.35,-856.59 163.68,-871.61 199.35,-900 236.19,-929.33 289.1,-942.46 325.34,-948.32"/>
<polygon fill="green" stroke="green" points="325.14,-951.83 335.55,-949.86 326.18,-944.91 325.14,-951.83"/>
</g>
<!-- DAB1&#45;&gt;NOTCH1 -->
<g id="edge9" class="edge">
<title>DAB1&#45;&gt;NOTCH1</title>
<path fill="none" stroke="green" d="M234.37,-863.7C233.49,-855.98 232.43,-846.71 231.44,-838.11"/>
<polygon fill="green" stroke="green" points="234.91,-837.64 230.3,-828.1 227.96,-838.44 234.91,-837.64"/>
</g>
<!-- DCC -->
<g id="node11" class="node">
<title>DCC</title>
<ellipse fill="lightgray" stroke="black" cx="779.35" cy="-738" rx="31.7" ry="18"/>
<text text-anchor="middle" x="779.35" y="-734.3" font-family="Times,serif" font-size="14.00">DCC</text>
</g>
<!-- TRIO&#45;&gt;DCC -->
<g id="edge11" class="edge">
<title>TRIO&#45;&gt;DCC</title>
<path fill="none" stroke="green" d="M827.59,-793.46C819.4,-784.22 808.86,-772.32 799.72,-762"/>
<polygon fill="green" stroke="green" points="802.32,-759.66 793.07,-754.49 797.08,-764.3 802.32,-759.66"/>
</g>
<!-- DCC&#45;&gt;SRC -->
<g id="edge12" class="edge">
<title>DCC&#45;&gt;SRC</title>
<path fill="none" stroke="green" d="M778.2,-756.1C774.96,-789.54 762.78,-863.53 717.35,-900 670.02,-937.98 488.14,-948.88 406.01,-951.9"/>
<polygon fill="green" stroke="green" points="405.68,-948.41 395.81,-952.25 405.92,-955.4 405.68,-948.41"/>
</g>
<!-- DCC&#45;&gt;PTK2 -->
<g id="edge35" class="edge">
<title>DCC&#45;&gt;PTK2</title>
<path fill="none" stroke="green" d="M782.49,-756.19C786.93,-780.42 795.07,-824.89 800.34,-853.68"/>
<polygon fill="green" stroke="green" points="796.97,-854.67 802.21,-863.87 803.85,-853.4 796.97,-854.67"/>
</g>
<!-- YAP1 -->
<g id="node13" class="node">
<title>YAP1</title>
<ellipse fill="lightgray" stroke="black" cx="160.35" cy="-522" rx="34.39" ry="18"/>
<text text-anchor="middle" x="160.35" y="-518.3" font-family="Times,serif" font-size="14.00">YAP1</text>
</g>
<!-- CTNNA1&#45;&gt;YAP1 -->
<g id="edge14" class="edge">
<title>CTNNA1&#45;&gt;YAP1</title>
<path fill="none" stroke="red" d="M55.25,-647.82C60.23,-628.75 70.3,-597.8 87.35,-576 99.5,-560.46 117.37,-547.38 132.38,-538.1"/>
<polygon fill="red" stroke="red" points="133.5,-531.58 138.67,-540.14 136.96,-541.18 131.79,-532.62 133.5,-531.58"/>
<polyline fill="none" stroke="red" points="136.94,-535.35 132.66,-537.93 "/>
</g>
<!-- SGK1 -->
<g id="node14" class="node">
<title>SGK1</title>
<ellipse fill="lightgray" stroke="black" cx="339.35" cy="-450" rx="37.09" ry="18"/>
<text text-anchor="middle" x="339.35" y="-446.3" font-family="Times,serif" font-size="14.00">SGK1</text>
</g>
<!-- YAP1&#45;&gt;SGK1 -->
<g id="edge15" class="edge">
<title>YAP1&#45;&gt;SGK1</title>
<path fill="none" stroke="green" d="M187.14,-510.52C217.59,-498.61 267.49,-479.1 301.81,-465.68"/>
<polygon fill="green" stroke="green" points="303.44,-468.8 311.48,-461.9 300.89,-462.28 303.44,-468.8"/>
</g>
<!-- SMO -->
<g id="node15" class="node">
<title>SMO</title>
<ellipse fill="lightgray" stroke="black" cx="393.35" cy="-378" rx="33.6" ry="18"/>
<text text-anchor="middle" x="393.35" y="-374.3" font-family="Times,serif" font-size="14.00">SMO</text>
</g>
<!-- SGK1&#45;&gt;SMO -->
<g id="edge16" class="edge">
<title>SGK1&#45;&gt;SMO</title>
<path fill="none" stroke="red" d="M351.87,-432.76C359.57,-422.78 369.5,-409.91 377.72,-399.26"/>
<polygon fill="red" stroke="red" points="376.32,-392.89 384.24,-398.99 383.02,-400.58 375.1,-394.47 376.32,-392.89"/>
<polyline fill="none" stroke="red" points="380.89,-395.15 377.83,-399.11 "/>
</g>
<!-- SGK1&#45;&gt;CDKN1B -->
<g id="edge47" class="edge">
<title>SGK1&#45;&gt;CDKN1B</title>
<path fill="none" stroke="red" d="M325.5,-433.12C316.86,-423.2 305.65,-410.33 296.32,-399.63"/>
<polygon fill="red" stroke="red" points="289.87,-399.84 297.41,-393.27 298.72,-394.77 291.18,-401.34 289.87,-399.84"/>
<polyline fill="none" stroke="red" points="292.98,-395.8 296.27,-399.57 "/>
</g>
<!-- SMO&#45;&gt;SRC -->
<g id="edge17" class="edge">
<title>SMO&#45;&gt;SRC</title>
<path fill="none" stroke="green" d="M392.35,-396.12C391.17,-414.09 388.92,-443.12 385.35,-468 372.67,-556.35 346.35,-575.75 346.35,-665 346.35,-811 346.35,-811 346.35,-811 346.35,-851.36 353.98,-897.61 359.57,-926.06"/>
<polygon fill="green" stroke="green" points="356.18,-926.94 361.59,-936.05 363.04,-925.55 356.18,-926.94"/>
</g>
<!-- MAPK14 -->
<g id="node17" class="node">
<title>MAPK14</title>
<ellipse fill="lightgray" stroke="black" cx="463.35" cy="-666" rx="51.19" ry="18"/>
<text text-anchor="middle" x="463.35" y="-662.3" font-family="Times,serif" font-size="14.00">MAPK14</text>
</g>
<!-- SIGNOR&#45;C21&#45;&gt;MAPK14 -->
<g id="edge19" class="edge">
<title>SIGNOR&#45;C21&#45;&gt;MAPK14</title>
<path fill="none" stroke="green" d="M589.94,-792.1C574.13,-773.81 547.75,-744.05 523.35,-720 512.85,-709.66 500.76,-698.8 490.2,-689.62"/>
<polygon fill="green" stroke="green" points="492.33,-686.84 482.47,-682.96 487.76,-692.14 492.33,-686.84"/>
</g>
<!-- KHSRP -->
<g id="node18" class="node">
<title>KHSRP</title>
<ellipse fill="lightgray" stroke="black" cx="556.35" cy="-522" rx="44.69" ry="18"/>
<text text-anchor="middle" x="556.35" y="-518.3" font-family="Times,serif" font-size="14.00">KHSRP</text>
</g>
<!-- MAPK14&#45;&gt;KHSRP -->
<g id="edge20" class="edge">
<title>MAPK14&#45;&gt;KHSRP</title>
<path fill="none" stroke="red" d="M492.4,-650.98C508.05,-641.96 526.35,-628.79 537.35,-612 550.48,-591.94 554.72,-564.4 555.99,-545.28"/>
<polygon fill="red" stroke="red" points="551.23,-540.85 561.22,-541.41 561.11,-543.4 551.12,-542.85 551.23,-540.85"/>
<polyline fill="none" stroke="red" points="556.28,-540.13 556,-545.12 "/>
</g>
<!-- MAPK14&#45;&gt;SIGNOR&#45;PF24 -->
<g id="edge48" class="edge">
<title>MAPK14&#45;&gt;SIGNOR&#45;PF24</title>
<path fill="none" stroke="purple" d="M454.56,-648.05C452.59,-640.94 450.87,-632.45 449.71,-624.37"/>
<polygon fill="purple" stroke="purple" points="449.69,-624.21 445.07,-618.67 448.39,-612.28 453.02,-617.81 449.69,-624.21"/>
</g>
<!-- KHSRP&#45;&gt;SRC -->
<g id="edge21" class="edge">
<title>KHSRP&#45;&gt;SRC</title>
<path fill="none" stroke="green" d="M586.09,-535.55C629.05,-555.89 703.35,-600.42 703.35,-665 703.35,-811 703.35,-811 703.35,-811 703.35,-938.65 495.89,-953.45 406.04,-953.87"/>
<polygon fill="green" stroke="green" points="405.94,-950.37 395.94,-953.85 405.93,-957.37 405.94,-950.37"/>
</g>
<!-- SIGNOR&#45;PF24&#45;&gt;YAP1 -->
<g id="edge44" class="edge">
<title>SIGNOR&#45;PF24&#45;&gt;YAP1</title>
<path fill="none" stroke="red" d="M399.66,-580.57C341.07,-566.47 247.13,-543.87 196.11,-531.6"/>
<polygon fill="red" stroke="red" points="190.81,-535.47 193.15,-525.75 195.1,-526.22 192.76,-535.94 190.81,-535.47"/>
<polyline fill="none" stroke="red" points="191.01,-530.38 195.87,-531.55 "/>
</g>
<!-- SIGNOR&#45;PF24&#45;&gt;MAPK14 -->
<g id="edge49" class="edge">
<title>SIGNOR&#45;PF24&#45;&gt;MAPK14</title>
<path fill="none" stroke="red" d="M460.17,-612.1C462.72,-621.31 464.83,-632.78 465.86,-642.68"/>
<polygon fill="red" stroke="red" points="471.19,-646.27 461.23,-647.13 461.05,-645.14 471.02,-644.27 471.19,-646.27"/>
<polyline fill="none" stroke="red" points="466.29,-647.7 465.86,-642.72 "/>
</g>
<!-- SIGNOR&#45;PF24&#45;&gt;KHSRP -->
<g id="edge50" class="edge">
<title>SIGNOR&#45;PF24&#45;&gt;KHSRP</title>
<path fill="none" stroke="red" d="M475.7,-576.76C491.87,-565.98 513.1,-551.83 529.71,-540.75"/>
<polygon fill="red" stroke="red" points="530.66,-534.11 536.21,-542.43 534.55,-543.54 529,-535.22 530.66,-534.11"/>
<polyline fill="none" stroke="red" points="534.27,-537.72 530.11,-540.49 "/>
</g>
<!-- VIM -->
<g id="node20" class="node">
<title>VIM</title>
<ellipse fill="lightyellow" stroke="black" cx="379.35" cy="-234" rx="29.8" ry="18"/>
<text text-anchor="middle" x="379.35" y="-230.3" font-family="Times,serif" font-size="14.00">VIM</text>
</g>
<!-- SIGNOR&#45;PF24&#45;&gt;VIM -->
<g id="edge23" class="edge">
<title>SIGNOR&#45;PF24&#45;&gt;VIM</title>
<path fill="none" stroke="green" d="M457.21,-575.74C465.69,-549.25 480.35,-496.79 480.35,-451 480.35,-451 480.35,-451 480.35,-377 480.35,-325.57 435.8,-279.82 405.87,-254.89"/>
<polygon fill="green" stroke="green" points="407.85,-251.99 397.87,-248.42 403.45,-257.43 407.85,-251.99"/>
</g>
<!-- SIGNOR&#45;PF24&#45;&gt;CDKN1B -->
<g id="edge51" class="edge">
<title>SIGNOR&#45;PF24&#45;&gt;CDKN1B</title>
<path fill="none" stroke="red" d="M448.45,-575.8C442.24,-543.78 424.88,-474.44 385.35,-432 368.07,-413.46 342.89,-400.54 321.3,-392.1"/>
<polygon fill="red" stroke="red" points="315.62,-395.29 319.18,-385.94 321.05,-386.65 317.49,-396 315.62,-395.29"/>
<polyline fill="none" stroke="red" points="316.47,-390.26 321.14,-392.04 "/>
</g>
<!-- MAP4K4 -->
<g id="node21" class="node">
<title>MAP4K4</title>
<ellipse fill="lightyellow" stroke="black" cx="463.35" cy="-882" rx="51.19" ry="18"/>
<text text-anchor="middle" x="463.35" y="-878.3" font-family="Times,serif" font-size="14.00">MAP4K4</text>
</g>
<!-- MAP3K7 -->
<g id="node22" class="node">
<title>MAP3K7</title>
<ellipse fill="lightgray" stroke="black" cx="463.35" cy="-810" rx="51.19" ry="18"/>
<text text-anchor="middle" x="463.35" y="-806.3" font-family="Times,serif" font-size="14.00">MAP3K7</text>
</g>
<!-- MAP4K4&#45;&gt;MAP3K7 -->
<g id="edge24" class="edge">
<title>MAP4K4&#45;&gt;MAP3K7</title>
<path fill="none" stroke="green" d="M463.35,-863.7C463.35,-855.98 463.35,-846.71 463.35,-838.11"/>
<polygon fill="green" stroke="green" points="466.85,-838.1 463.35,-828.1 459.85,-838.1 466.85,-838.1"/>
</g>
<!-- MAP2K3 -->
<g id="node23" class="node">
<title>MAP2K3</title>
<ellipse fill="lightgray" stroke="black" cx="463.35" cy="-738" rx="51.19" ry="18"/>
<text text-anchor="middle" x="463.35" y="-734.3" font-family="Times,serif" font-size="14.00">MAP2K3</text>
</g>
<!-- MAP3K7&#45;&gt;MAP2K3 -->
<g id="edge25" class="edge">
<title>MAP3K7&#45;&gt;MAP2K3</title>
<path fill="none" stroke="green" d="M463.35,-791.7C463.35,-783.98 463.35,-774.71 463.35,-766.11"/>
<polygon fill="green" stroke="green" points="466.85,-766.1 463.35,-756.1 459.85,-766.1 466.85,-766.1"/>
</g>
<!-- MAP2K3&#45;&gt;MAPK14 -->
<g id="edge26" class="edge">
<title>MAP2K3&#45;&gt;MAPK14</title>
<path fill="none" stroke="green" d="M463.35,-719.7C463.35,-711.98 463.35,-702.71 463.35,-694.11"/>
<polygon fill="green" stroke="green" points="466.85,-694.1 463.35,-684.1 459.85,-694.1 466.85,-694.1"/>
</g>
<!-- LATS1 -->
<g id="node24" class="node">
<title>LATS1</title>
<ellipse fill="lightyellow" stroke="black" cx="190.35" cy="-234" rx="40.09" ry="18"/>
<text text-anchor="middle" x="190.35" y="-230.3" font-family="Times,serif" font-size="14.00">LATS1</text>
</g>
<!-- LATS1&#45;&gt;YAP1 -->
<g id="edge37" class="edge">
<title>LATS1&#45;&gt;YAP1</title>
<path fill="none" stroke="red" d="M188.53,-252.31C183.34,-301.81 168.43,-443.95 162.66,-498.92"/>
<polygon fill="red" stroke="red" points="167.21,-503.49 157.26,-502.45 157.47,-500.46 167.42,-501.5 167.21,-503.49"/>
<polyline fill="none" stroke="red" points="162.13,-503.97 162.65,-498.99 "/>
</g>
<!-- VEPH1 -->
<g id="node25" class="node">
<title>VEPH1</title>
<ellipse fill="lightgray" stroke="black" cx="190.35" cy="-162" rx="44.39" ry="18"/>
<text text-anchor="middle" x="190.35" y="-158.3" font-family="Times,serif" font-size="14.00">VEPH1</text>
</g>
<!-- LATS1&#45;&gt;VEPH1 -->
<g id="edge27" class="edge">
<title>LATS1&#45;&gt;VEPH1</title>
<path fill="none" stroke="red" d="M184.47,-216.05C183.49,-206.82 183.33,-195.28 184.01,-185.32"/>
<polygon fill="red" stroke="red" points="179.37,-180.85 189.33,-181.69 189.16,-183.69 179.2,-182.84 179.37,-180.85"/>
<polyline fill="none" stroke="red" points="184.43,-180.28 184.01,-185.26 "/>
</g>
<!-- VEPH1&#45;&gt;YAP1 -->
<g id="edge45" class="edge">
<title>VEPH1&#45;&gt;YAP1</title>
<path fill="none" stroke="green" d="M171.87,-178.37C161.36,-188.1 148.84,-201.54 141.35,-216 122.73,-251.91 122.35,-264.55 122.35,-305 122.35,-379 122.35,-379 122.35,-379 122.35,-420.59 137.75,-466.78 148.94,-494.86"/>
<polygon fill="green" stroke="green" points="145.8,-496.42 152.84,-504.34 152.27,-493.76 145.8,-496.42"/>
</g>
<!-- VEPH1&#45;&gt;LATS1 -->
<g id="edge38" class="edge">
<title>VEPH1&#45;&gt;LATS1</title>
<path fill="none" stroke="red" d="M196.26,-180.28C197.22,-189.56 197.35,-201.12 196.66,-211.04"/>
<polygon fill="red" stroke="red" points="201.29,-215.49 191.33,-214.62 191.5,-212.63 201.47,-213.5 201.29,-215.49"/>
<polyline fill="none" stroke="red" points="196.22,-216.05 196.66,-211.07 "/>
</g>
<!-- LATS2 -->
<g id="node26" class="node">
<title>LATS2</title>
<ellipse fill="lightyellow" stroke="black" cx="190.35" cy="-90" rx="40.09" ry="18"/>
<text text-anchor="middle" x="190.35" y="-86.3" font-family="Times,serif" font-size="14.00">LATS2</text>
</g>
<!-- VEPH1&#45;&gt;LATS2 -->
<g id="edge28" class="edge">
<title>VEPH1&#45;&gt;LATS2</title>
<path fill="none" stroke="red" d="M184.47,-144.05C183.49,-134.82 183.33,-123.28 184.01,-113.32"/>
<polygon fill="red" stroke="red" points="179.37,-108.85 189.33,-109.69 189.16,-111.69 179.2,-110.84 179.37,-108.85"/>
<polyline fill="none" stroke="red" points="184.43,-108.28 184.01,-113.26 "/>
</g>
<!-- LATS2&#45;&gt;YAP1 -->
<g id="edge39" class="edge">
<title>LATS2&#45;&gt;YAP1</title>
<path fill="none" stroke="red" d="M169.15,-105.51C138.22,-128.59 84.35,-176.86 84.35,-233 84.35,-379 84.35,-379 84.35,-379 84.35,-427.57 119.34,-475.61 141.83,-501.47"/>
<polygon fill="red" stroke="red" points="148.42,-501.37 140.92,-507.99 139.6,-506.49 147.09,-499.87 148.42,-501.37"/>
<polyline fill="none" stroke="red" points="145.33,-505.43 142.02,-501.68 "/>
</g>
<!-- LATS2&#45;&gt;VEPH1 -->
<g id="edge40" class="edge">
<title>LATS2&#45;&gt;VEPH1</title>
<path fill="none" stroke="red" d="M196.26,-108.28C197.22,-117.56 197.35,-129.12 196.66,-139.04"/>
<polygon fill="red" stroke="red" points="201.29,-143.49 191.33,-142.62 191.5,-140.63 201.47,-141.5 201.29,-143.49"/>
<polyline fill="none" stroke="red" points="196.22,-144.05 196.66,-139.07 "/>
</g>
<!-- AMOTL2 -->
<g id="node27" class="node">
<title>AMOTL2</title>
<ellipse fill="lightgray" stroke="black" cx="190.35" cy="-18" rx="51.19" ry="18"/>
<text text-anchor="middle" x="190.35" y="-14.3" font-family="Times,serif" font-size="14.00">AMOTL2</text>
</g>
<!-- LATS2&#45;&gt;AMOTL2 -->
<g id="edge29" class="edge">
<title>LATS2&#45;&gt;AMOTL2</title>
<path fill="none" stroke="red" d="M184.47,-72.05C183.49,-62.82 183.33,-51.28 184.01,-41.32"/>
<polygon fill="red" stroke="red" points="179.37,-36.85 189.33,-37.69 189.16,-39.69 179.2,-38.84 179.37,-36.85"/>
<polyline fill="none" stroke="red" points="184.43,-36.28 184.01,-41.26 "/>
</g>
<!-- AMOTL2&#45;&gt;SRC -->
<g id="edge30" class="edge">
<title>AMOTL2&#45;&gt;SRC</title>
<path fill="none" stroke="green" d="M241.91,-18.31C405.69,-17.47 903.35,-26.03 903.35,-161 903.35,-811 903.35,-811 903.35,-811 903.35,-857.04 889.07,-875.11 850.35,-900 777.15,-947.05 509.08,-952.72 406.06,-953.12"/>
<polygon fill="green" stroke="green" points="406.03,-949.62 396.04,-953.14 406.05,-956.62 406.03,-949.62"/>
</g>
<!-- AMOTL2&#45;&gt;LATS2 -->
<g id="edge41" class="edge">
<title>AMOTL2&#45;&gt;LATS2</title>
<path fill="none" stroke="green" d="M196.26,-36.28C197.06,-44.03 197.29,-53.36 196.94,-62.01"/>
<polygon fill="green" stroke="green" points="193.44,-61.83 196.22,-72.05 200.42,-62.33 193.44,-61.83"/>
</g>
<!-- CDK1 -->
<g id="node29" class="node">
<title>CDK1</title>
<ellipse fill="lightgray" stroke="black" cx="278.35" cy="-306" rx="37.89" ry="18"/>
<text text-anchor="middle" x="278.35" y="-302.3" font-family="Times,serif" font-size="14.00">CDK1</text>
</g>
<!-- CDKN1B&#45;&gt;CDK1 -->
<g id="edge32" class="edge">
<title>CDKN1B&#45;&gt;CDK1</title>
<path fill="none" stroke="red" d="M272.47,-360.05C271.47,-350.68 271.33,-338.93 272.04,-328.87"/>
<polygon fill="red" stroke="red" points="267.42,-324.35 277.38,-325.22 277.2,-327.22 267.24,-326.34 267.42,-324.35"/>
<polyline fill="none" stroke="red" points="272.48,-323.79 272.05,-328.77 "/>
</g>
<!-- CDK1&#45;&gt;YAP1 -->
<g id="edge46" class="edge">
<title>CDK1&#45;&gt;YAP1</title>
<path fill="none" stroke="green" d="M257.2,-321.05C244.14,-330.67 227.93,-344.46 217.35,-360 202.14,-382.33 179.7,-454.44 168.03,-494.15"/>
<polygon fill="green" stroke="green" points="164.61,-493.38 165.17,-503.96 171.33,-495.34 164.61,-493.38"/>
</g>
<!-- CDK1&#45;&gt;VIM -->
<g id="edge36" class="edge">
<title>CDK1&#45;&gt;VIM</title>
<path fill="none" stroke="red" d="M298.78,-290.83C315.36,-279.34 338.74,-263.14 356.04,-251.15"/>
<polygon fill="red" stroke="red" points="356.63,-244.66 362.33,-252.88 360.69,-254.02 354.99,-245.8 356.63,-244.66"/>
<polyline fill="none" stroke="red" points="360.3,-248.2 356.19,-251.05 "/>
</g>
<!-- CDK1&#45;&gt;LATS1 -->
<g id="edge33" class="edge">
<title>CDK1&#45;&gt;LATS1</title>
<path fill="none" stroke="green" d="M259.68,-290.15C247.4,-280.38 231.12,-267.43 217.42,-256.54"/>
<polygon fill="green" stroke="green" points="219.29,-253.55 209.28,-250.07 214.93,-259.03 219.29,-253.55"/>
</g>
<!-- CDK1&#45;&gt;CDKN1B -->
<g id="edge52" class="edge">
<title>CDK1&#45;&gt;CDKN1B</title>
<path fill="none" stroke="red" d="M284.21,-323.79C285.21,-333.13 285.36,-344.88 284.67,-354.96"/>
<polygon fill="red" stroke="red" points="289.29,-359.49 279.33,-358.63 279.5,-356.63 289.46,-357.5 289.29,-359.49"/>
<polyline fill="none" stroke="red" points="284.22,-360.05 284.66,-355.07 "/>
</g>
</g>
</svg>
