<?xml version="1.0" encoding="UTF-8" standalone="no"?>
<!DOCTYPE svg PUBLIC "-//W3C//DTD SVG 1.1//EN"
 "http://www.w3.org/Graphics/SVG/1.1/DTD/svg11.dtd">
<!-- Generated by graphviz version 2.43.0 (0)
 -->
<!-- Title: %3 Pages: 1 -->
<svg width="1268pt" height="1340pt"
 viewBox="0.00 0.00 1268.30 1340.00" xmlns="http://www.w3.org/2000/svg" xmlns:xlink="http://www.w3.org/1999/xlink">
<g id="graph0" class="graph" transform="scale(1 1) rotate(0) translate(4 1336)">
<title>%3</title>
<polygon fill="white" stroke="transparent" points="-4,4 -4,-1336 1264.3,-1336 1264.3,4 -4,4"/>
<!-- SRC -->
<g id="node1" class="node">
<title>SRC</title>
<ellipse fill="lightyellow" stroke="black" cx="720.3" cy="-1314" rx="30.59" ry="18"/>
<text text-anchor="middle" x="720.3" y="-1310.3" font-family="Times,serif" font-size="14.00">SRC</text>
</g>
<!-- PTK2 -->
<g id="node2" class="node">
<title>PTK2</title>
<ellipse fill="lightyellow" stroke="black" cx="663.3" cy="-1242" rx="36" ry="18"/>
<text text-anchor="middle" x="663.3" y="-1238.3" font-family="Times,serif" font-size="14.00">PTK2</text>
</g>
<!-- SRC&#45;&gt;PTK2 -->
<g id="edge1" class="edge">
<title>SRC&#45;&gt;PTK2</title>
<path fill="none" stroke="green" d="M703.21,-1298.83C694.83,-1289.97 685.01,-1278.3 677.1,-1267.93"/>
<polygon fill="green" stroke="green" points="679.72,-1265.59 670.98,-1259.61 674.08,-1269.73 679.72,-1265.59"/>
</g>
<!-- CDH1 -->
<g id="node3" class="node">
<title>CDH1</title>
<ellipse fill="lightyellow" stroke="black" cx="762.3" cy="-90" rx="38.19" ry="18"/>
<text text-anchor="middle" x="762.3" y="-86.3" font-family="Times,serif" font-size="14.00">CDH1</text>
</g>
<!-- SRC&#45;&gt;CDH1 -->
<g id="edge3" class="edge">
<title>SRC&#45;&gt;CDH1</title>
<path fill="none" stroke="red" d="M750.66,-1311.51C833.55,-1307.07 1062.04,-1292.17 1129.3,-1260 1180.91,-1235.31 1222.3,-1228.21 1222.3,-1171 1222.3,-1171 1222.3,-1171 1222.3,-233 1222.3,-184.28 1200.08,-169.06 1158.3,-144 1099.53,-108.76 895.62,-96.35 805.59,-92.52"/>
<polygon fill="red" stroke="red" points="801.14,-97.33 801.56,-87.34 803.55,-87.43 803.14,-97.42 801.14,-97.33"/>
<polyline fill="none" stroke="red" points="800.35,-92.3 805.34,-92.51 "/>
</g>
<!-- CDH2 -->
<g id="node4" class="node">
<title>CDH2</title>
<ellipse fill="lightyellow" stroke="black" cx="1111.3" cy="-162" rx="38.19" ry="18"/>
<text text-anchor="middle" x="1111.3" y="-158.3" font-family="Times,serif" font-size="14.00">CDH2</text>
</g>
<!-- SRC&#45;&gt;CDH2 -->
<g id="edge4" class="edge">
<title>SRC&#45;&gt;CDH2</title>
<path fill="none" stroke="red" d="M751.15,-1313.71C814.53,-1314.06 962.81,-1309.05 1074.3,-1260 1131.86,-1234.68 1184.3,-1233.89 1184.3,-1171 1184.3,-1171 1184.3,-1171 1184.3,-305 1184.3,-256.85 1150.69,-208.66 1129.08,-182.66"/>
<polygon fill="red" stroke="red" points="1122.54,-182.67 1130.19,-176.22 1131.47,-177.75 1123.83,-184.2 1122.54,-182.67"/>
<polyline fill="none" stroke="red" points="1125.72,-178.68 1128.94,-182.5 "/>
</g>
<!-- PTEN -->
<g id="node7" class="node">
<title>PTEN</title>
<ellipse fill="lightgray" stroke="black" cx="493.3" cy="-666" rx="37.89" ry="18"/>
<text text-anchor="middle" x="493.3" y="-662.3" font-family="Times,serif" font-size="14.00">PTEN</text>
</g>
<!-- SRC&#45;&gt;PTEN -->
<g id="edge65" class="edge">
<title>SRC&#45;&gt;PTEN</title>
<path fill="none" stroke="green" d="M690.3,-1310.45C629.09,-1303.21 491.69,-1276.86 434.3,-1188 425.62,-1174.56 432.95,-1167.94 434.3,-1152 443.89,-1038.79 466.01,-1013.06 477.3,-900 484.71,-825.75 485.08,-737.59 488.06,-694.08"/>
<polygon fill="green" stroke="green" points="491.56,-694.26 488.88,-684.01 484.58,-693.69 491.56,-694.26"/>
</g>
<!-- RUNX3 -->
<g id="node8" class="node">
<title>RUNX3</title>
<ellipse fill="lightgray" stroke="black" cx="869.3" cy="-1026" rx="45.49" ry="18"/>
<text text-anchor="middle" x="869.3" y="-1022.3" font-family="Times,serif" font-size="14.00">RUNX3</text>
</g>
<!-- SRC&#45;&gt;RUNX3 -->
<g id="edge8" class="edge">
<title>SRC&#45;&gt;RUNX3</title>
<path fill="none" stroke="red" d="M750.06,-1309.51C780.09,-1304.28 825.21,-1291.39 848.3,-1260 895.35,-1196.01 882.77,-1093.83 874.21,-1049.14"/>
<polygon fill="red" stroke="red" points="868.48,-1045.93 878.29,-1043.99 878.67,-1045.95 868.86,-1047.89 868.48,-1045.93"/>
<polyline fill="none" stroke="red" points="873.19,-1043.98 874.16,-1048.88 "/>
</g>
<!-- PRKCI -->
<g id="node10" class="node">
<title>PRKCI</title>
<ellipse fill="lightgray" stroke="black" cx="40.3" cy="-1098" rx="40.09" ry="18"/>
<text text-anchor="middle" x="40.3" y="-1094.3" font-family="Times,serif" font-size="14.00">PRKCI</text>
</g>
<!-- SRC&#45;&gt;PRKCI -->
<g id="edge12" class="edge">
<title>SRC&#45;&gt;PRKCI</title>
<path fill="none" stroke="green" d="M689.46,-1313.24C586.46,-1313.54 255.64,-1310.47 164.3,-1260 108.74,-1229.3 70.02,-1162.23 51.92,-1125.07"/>
<polygon fill="green" stroke="green" points="55.01,-1123.41 47.56,-1115.88 48.68,-1126.41 55.01,-1123.41"/>
</g>
<!-- BDKRB2 -->
<g id="node12" class="node">
<title>BDKRB2</title>
<ellipse fill="lightgray" stroke="black" cx="224.3" cy="-1242" rx="51.19" ry="18"/>
<text text-anchor="middle" x="224.3" y="-1238.3" font-family="Times,serif" font-size="14.00">BDKRB2</text>
</g>
<!-- SRC&#45;&gt;BDKRB2 -->
<g id="edge14" class="edge">
<title>SRC&#45;&gt;BDKRB2</title>
<path fill="none" stroke="green" d="M690.38,-1309.93C622.2,-1302.77 450.09,-1283.75 307.3,-1260 297.39,-1258.35 286.87,-1256.38 276.76,-1254.36"/>
<polygon fill="green" stroke="green" points="277.33,-1250.9 266.83,-1252.35 275.94,-1257.77 277.33,-1250.9"/>
</g>
<!-- ABL1 -->
<g id="node16" class="node">
<title>ABL1</title>
<ellipse fill="lightgray" stroke="black" cx="860.3" cy="-810" rx="36" ry="18"/>
<text text-anchor="middle" x="860.3" y="-806.3" font-family="Times,serif" font-size="14.00">ABL1</text>
</g>
<!-- SRC&#45;&gt;ABL1 -->
<g id="edge66" class="edge">
<title>SRC&#45;&gt;ABL1</title>
<path fill="none" stroke="green" d="M749.78,-1308.3C810.16,-1296.81 942.3,-1261.36 942.3,-1171 942.3,-1171 942.3,-1171 942.3,-953 942.3,-905.79 907.88,-860.15 883.64,-833.86"/>
<polygon fill="green" stroke="green" points="885.92,-831.18 876.5,-826.35 880.85,-836.01 885.92,-831.18"/>
</g>
<!-- GSN -->
<g id="node18" class="node">
<title>GSN</title>
<ellipse fill="lightgray" stroke="black" cx="296.3" cy="-1170" rx="32.49" ry="18"/>
<text text-anchor="middle" x="296.3" y="-1166.3" font-family="Times,serif" font-size="14.00">GSN</text>
</g>
<!-- SRC&#45;&gt;GSN -->
<g id="edge20" class="edge">
<title>SRC&#45;&gt;GSN</title>
<path fill="none" stroke="green" d="M689.96,-1311.79C612.57,-1308.2 409.96,-1295.56 354.3,-1260 331.32,-1245.32 315.54,-1217.92 306.31,-1197.39"/>
<polygon fill="green" stroke="green" points="309.43,-1195.78 302.3,-1187.94 302.98,-1198.51 309.43,-1195.78"/>
</g>
<!-- CTNNB1 -->
<g id="node21" class="node">
<title>CTNNB1</title>
<ellipse fill="lightgray" stroke="black" cx="649.3" cy="-450" rx="51.99" ry="18"/>
<text text-anchor="middle" x="649.3" y="-446.3" font-family="Times,serif" font-size="14.00">CTNNB1</text>
</g>
<!-- SRC&#45;&gt;CTNNB1 -->
<g id="edge67" class="edge">
<title>SRC&#45;&gt;CTNNB1</title>
<path fill="none" stroke="green" d="M723.41,-1295.93C732.48,-1244.57 758.3,-1086.88 758.3,-955 758.3,-955 758.3,-955 758.3,-809 758.3,-750.5 706.73,-563.7 681.3,-504 677.34,-494.7 671.97,-485.09 666.76,-476.64"/>
<polygon fill="green" stroke="green" points="669.58,-474.55 661.25,-468.01 663.68,-478.32 669.58,-474.55"/>
</g>
<!-- CTNND2 -->
<g id="node24" class="node">
<title>CTNND2</title>
<ellipse fill="lightgray" stroke="black" cx="1031.3" cy="-234" rx="51.99" ry="18"/>
<text text-anchor="middle" x="1031.3" y="-230.3" font-family="Times,serif" font-size="14.00">CTNND2</text>
</g>
<!-- SRC&#45;&gt;CTNND2 -->
<g id="edge68" class="edge">
<title>SRC&#45;&gt;CTNND2</title>
<path fill="none" stroke="green" d="M750.25,-1309.61C847.22,-1297.8 1146.3,-1254.61 1146.3,-1171 1146.3,-1171 1146.3,-1171 1146.3,-377 1146.3,-324.36 1097.98,-280.3 1063.98,-255.81"/>
<polygon fill="green" stroke="green" points="1065.89,-252.87 1055.68,-250.02 1061.88,-258.61 1065.89,-252.87"/>
</g>
<!-- AKT1 -->
<g id="node33" class="node">
<title>AKT1</title>
<ellipse fill="lightgray" stroke="black" cx="568.3" cy="-522" rx="36" ry="18"/>
<text text-anchor="middle" x="568.3" y="-518.3" font-family="Times,serif" font-size="14.00">AKT1</text>
</g>
<!-- SRC&#45;&gt;AKT1 -->
<g id="edge69" class="edge">
<title>SRC&#45;&gt;AKT1</title>
<path fill="none" stroke="green" d="M719.07,-1295.96C716.16,-1257.37 708.1,-1160.35 695.3,-1080 677.28,-966.93 620.49,-685.88 588.3,-576 585.71,-567.18 582.35,-557.74 579.12,-549.3"/>
<polygon fill="green" stroke="green" points="582.37,-547.99 575.45,-539.96 575.85,-550.55 582.37,-547.99"/>
</g>
<!-- SIGNOR&#45;PF24 -->
<g id="node38" class="node">
<title>SIGNOR&#45;PF24</title>
<ellipse fill="lightgray" stroke="black" cx="437.3" cy="-522" rx="77.19" ry="18"/>
<text text-anchor="middle" x="437.3" y="-518.3" font-family="Times,serif" font-size="14.00">SIGNOR&#45;PF24</text>
</g>
<!-- SRC&#45;&gt;SIGNOR&#45;PF24 -->
<g id="edge70" class="edge">
<title>SRC&#45;&gt;SIGNOR&#45;PF24</title>
<path fill="none" stroke="green" d="M690.31,-1309.91C631.66,-1303.36 504.52,-1286.45 470.3,-1260 346.87,-1164.6 439.23,-1052.34 335.3,-936 312.51,-910.5 284.94,-929.3 267.3,-900 259.04,-886.29 263.97,-879.65 267.3,-864 270.93,-846.87 277.88,-844.65 283.3,-828 295.8,-789.53 302.3,-779.45 302.3,-739 302.3,-739 302.3,-739 302.3,-665 302.3,-609.5 357.13,-567.06 396.91,-543.58"/>
<polygon fill="green" stroke="green" points="398.7,-546.59 405.64,-538.58 395.23,-540.51 398.7,-546.59"/>
</g>
<!-- PTK2&#45;&gt;SRC -->
<g id="edge2" class="edge">
<title>PTK2&#45;&gt;SRC</title>
<path fill="none" stroke="green" d="M681.2,-1258.04C689.47,-1266.85 698.99,-1278.21 706.67,-1288.31"/>
<polygon fill="green" stroke="green" points="703.89,-1290.43 712.63,-1296.41 709.53,-1286.28 703.89,-1290.43"/>
</g>
<!-- ACTN1 -->
<g id="node34" class="node">
<title>ACTN1</title>
<ellipse fill="lightgray" stroke="black" cx="496.3" cy="-1170" rx="43.59" ry="18"/>
<text text-anchor="middle" x="496.3" y="-1166.3" font-family="Times,serif" font-size="14.00">ACTN1</text>
</g>
<!-- PTK2&#45;&gt;ACTN1 -->
<g id="edge47" class="edge">
<title>PTK2&#45;&gt;ACTN1</title>
<path fill="none" stroke="red" d="M634.47,-1230.97C604.58,-1219.34 558.27,-1200.05 527.54,-1186.49"/>
<polygon fill="red" stroke="red" points="521.63,-1189.34 525.68,-1180.2 527.51,-1181.01 523.46,-1190.15 521.63,-1189.34"/>
<polyline fill="none" stroke="red" points="522.74,-1184.36 527.31,-1186.39 "/>
</g>
<!-- SIGNOR&#45;C186 -->
<g id="node9" class="node">
<title>SIGNOR&#45;C186</title>
<ellipse fill="lightgray" stroke="black" cx="1010.3" cy="-18" rx="77.19" ry="18"/>
<text text-anchor="middle" x="1010.3" y="-14.3" font-family="Times,serif" font-size="14.00">SIGNOR&#45;C186</text>
</g>
<!-- CDH1&#45;&gt;SIGNOR&#45;C186 -->
<g id="edge10" class="edge">
<title>CDH1&#45;&gt;SIGNOR&#45;C186</title>
<path fill="none" stroke="green" d="M794.21,-79.99C834.23,-68.7 903.57,-49.12 952.91,-35.2"/>
<polygon fill="green" stroke="green" points="954.13,-38.49 962.8,-32.41 952.23,-31.75 954.13,-38.49"/>
</g>
<!-- CDH1&#45;&gt;CTNNB1 -->
<g id="edge25" class="edge">
<title>CDH1&#45;&gt;CTNNB1</title>
<path fill="none" stroke="green" d="M756.34,-107.89C741.53,-150.13 702.13,-263.88 673.3,-360 667.13,-380.56 660.83,-404.02 656.24,-421.68"/>
<polygon fill="green" stroke="green" points="652.72,-421.3 653.61,-431.86 659.5,-423.05 652.72,-421.3"/>
</g>
<!-- SIGNOR&#45;PF72 -->
<g id="node36" class="node">
<title>SIGNOR&#45;PF72</title>
<ellipse fill="lightgray" stroke="black" cx="569.3" cy="-18" rx="77.19" ry="18"/>
<text text-anchor="middle" x="569.3" y="-14.3" font-family="Times,serif" font-size="14.00">SIGNOR&#45;PF72</text>
</g>
<!-- CDH1&#45;&gt;SIGNOR&#45;PF72 -->
<g id="edge54" class="edge">
<title>CDH1&#45;&gt;SIGNOR&#45;PF72</title>
<path fill="none" stroke="green" d="M731.05,-79.41C699.55,-68.74 650.81,-51.21 615.01,-37.78"/>
<polygon fill="green" stroke="green" points="615.87,-34.36 605.28,-34.11 613.4,-40.91 615.87,-34.36"/>
</g>
<!-- CDH2&#45;&gt;CTNNB1 -->
<g id="edge29" class="edge">
<title>CDH2&#45;&gt;CTNNB1</title>
<path fill="none" stroke="green" d="M1111.91,-180.26C1111.7,-199.69 1108.57,-231.23 1092.3,-252 995.1,-376 803.2,-423.99 707.06,-440.83"/>
<polygon fill="green" stroke="green" points="706.21,-437.42 696.94,-442.55 707.38,-444.32 706.21,-437.42"/>
</g>
<!-- NOTCH1 -->
<g id="node5" class="node">
<title>NOTCH1</title>
<ellipse fill="lightyellow" stroke="black" cx="734.3" cy="-378" rx="51.99" ry="18"/>
<text text-anchor="middle" x="734.3" y="-374.3" font-family="Times,serif" font-size="14.00">NOTCH1</text>
</g>
<!-- PPARG -->
<g id="node6" class="node">
<title>PPARG</title>
<ellipse fill="lightgray" stroke="black" cx="687.3" cy="-738" rx="42.79" ry="18"/>
<text text-anchor="middle" x="687.3" y="-734.3" font-family="Times,serif" font-size="14.00">PPARG</text>
</g>
<!-- NOTCH1&#45;&gt;PPARG -->
<g id="edge5" class="edge">
<title>NOTCH1&#45;&gt;PPARG</title>
<path fill="none" stroke="green" d="M732.05,-396.09C724.53,-453.38 700.18,-638.9 690.92,-709.44"/>
<polygon fill="green" stroke="green" points="687.39,-709.36 689.56,-719.73 694.34,-710.27 687.39,-709.36"/>
</g>
<!-- ERBB2 -->
<g id="node20" class="node">
<title>ERBB2</title>
<ellipse fill="lightgray" stroke="black" cx="260.3" cy="-306" rx="44.39" ry="18"/>
<text text-anchor="middle" x="260.3" y="-302.3" font-family="Times,serif" font-size="14.00">ERBB2</text>
</g>
<!-- NOTCH1&#45;&gt;ERBB2 -->
<g id="edge23" class="edge">
<title>NOTCH1&#45;&gt;ERBB2</title>
<path fill="none" stroke="green" d="M687.55,-370.1C598.18,-356.9 403.74,-328.18 311.21,-314.52"/>
<polygon fill="green" stroke="green" points="311.65,-311.05 301.24,-313.05 310.63,-317.97 311.65,-311.05"/>
</g>
<!-- TCF3 -->
<g id="node22" class="node">
<title>TCF3</title>
<ellipse fill="lightgray" stroke="black" cx="756.3" cy="-306" rx="36" ry="18"/>
<text text-anchor="middle" x="756.3" y="-302.3" font-family="Times,serif" font-size="14.00">TCF3</text>
</g>
<!-- NOTCH1&#45;&gt;TCF3 -->
<g id="edge27" class="edge">
<title>NOTCH1&#45;&gt;TCF3</title>
<path fill="none" stroke="red" d="M733.82,-359.7C735.82,-350.23 739.41,-338.43 743.3,-328.39"/>
<polygon fill="red" stroke="red" points="740.22,-322.67 749.49,-326.42 748.74,-328.28 739.47,-324.53 740.22,-322.67"/>
<polyline fill="none" stroke="red" points="745.23,-323.62 743.35,-328.26 "/>
</g>
<!-- HES1 -->
<g id="node23" class="node">
<title>HES1</title>
<ellipse fill="lightgray" stroke="black" cx="847.3" cy="-306" rx="37.89" ry="18"/>
<text text-anchor="middle" x="847.3" y="-302.3" font-family="Times,serif" font-size="14.00">HES1</text>
</g>
<!-- NOTCH1&#45;&gt;HES1 -->
<g id="edge30" class="edge">
<title>NOTCH1&#45;&gt;HES1</title>
<path fill="none" stroke="green" d="M758.54,-361.98C775.48,-351.49 798.24,-337.39 816.47,-326.09"/>
<polygon fill="green" stroke="green" points="818.36,-329.05 825.01,-320.8 814.67,-323.09 818.36,-329.05"/>
</g>
<!-- PPARG&#45;&gt;PTEN -->
<g id="edge6" class="edge">
<title>PPARG&#45;&gt;PTEN</title>
<path fill="none" stroke="red" d="M655.7,-725.6C620.35,-712.84 563.31,-692.26 527.1,-679.2"/>
<polygon fill="red" stroke="red" points="521.59,-682.52 524.98,-673.12 526.87,-673.8 523.47,-683.2 521.59,-682.52"/>
<polyline fill="none" stroke="red" points="522.35,-677.48 527.05,-679.18 "/>
</g>
<!-- PPARG&#45;&gt;CTNNB1 -->
<g id="edge80" class="edge">
<title>PPARG&#45;&gt;CTNNB1</title>
<path fill="none" stroke="red" d="M681.62,-719.97C670.79,-670.8 651.76,-528.67 648.43,-473.38"/>
<polygon fill="red" stroke="red" points="643.22,-469.57 653.21,-469.04 653.31,-471.03 643.33,-471.57 643.22,-469.57"/>
<polyline fill="none" stroke="red" points="648.16,-468.31 648.43,-473.3 "/>
</g>
<!-- PTEN&#45;&gt;SRC -->
<g id="edge7" class="edge">
<title>PTEN&#45;&gt;SRC</title>
<path fill="none" stroke="red" d="M498.3,-684.01C503.09,-722.55 503.34,-819.46 495.3,-900 484.01,-1013.06 461.89,-1038.79 452.3,-1152 450.95,-1167.94 443.62,-1174.56 452.3,-1188 505.09,-1269.74 625.59,-1298.58 685.47,-1308.32"/>
<polygon fill="red" stroke="red" points="690.51,-1304.06 688.95,-1313.93 686.98,-1313.62 688.54,-1303.74 690.51,-1304.06"/>
<polyline fill="none" stroke="red" points="690.72,-1309.15 685.78,-1308.37 "/>
</g>
<!-- PTEN&#45;&gt;PTK2 -->
<g id="edge72" class="edge">
<title>PTEN&#45;&gt;PTK2</title>
<path fill="none" stroke="red" d="M501.51,-683.9C506.28,-694.17 512.14,-707.64 516.3,-720 584.49,-922.93 547.34,-990.64 630.3,-1188 635.03,-1199.26 642,-1210.89 648.31,-1220.37"/>
<polygon fill="red" stroke="red" points="654.73,-1220.93 646.45,-1226.54 645.33,-1224.88 653.61,-1219.27 654.73,-1220.93"/>
<polyline fill="none" stroke="red" points="651.15,-1224.56 648.35,-1220.42 "/>
</g>
<!-- PIK3CA -->
<g id="node32" class="node">
<title>PIK3CA</title>
<ellipse fill="lightgray" stroke="black" cx="414.3" cy="-594" rx="46.29" ry="18"/>
<text text-anchor="middle" x="414.3" y="-590.3" font-family="Times,serif" font-size="14.00">PIK3CA</text>
</g>
<!-- PTEN&#45;&gt;PIK3CA -->
<g id="edge85" class="edge">
<title>PTEN&#45;&gt;PIK3CA</title>
<path fill="none" stroke="red" d="M476.15,-649.81C464.31,-639.32 448.47,-625.28 435.78,-614.04"/>
<polygon fill="red" stroke="red" points="429.38,-615.05 436.02,-607.56 437.51,-608.89 430.88,-616.38 429.38,-615.05"/>
<polyline fill="none" stroke="red" points="431.95,-610.64 435.69,-613.96 "/>
</g>
<!-- PTEN&#45;&gt;AKT1 -->
<g id="edge86" class="edge">
<title>PTEN&#45;&gt;AKT1</title>
<path fill="none" stroke="red" d="M502.05,-648.43C515.71,-622.57 542.09,-572.61 557.11,-544.17"/>
<polygon fill="red" stroke="red" points="554.71,-538.01 563.56,-542.68 562.62,-544.45 553.78,-539.78 554.71,-538.01"/>
<polyline fill="none" stroke="red" points="559.6,-539.46 557.27,-543.88 "/>
</g>
<!-- PTEN&#45;&gt;SIGNOR&#45;PF24 -->
<g id="edge87" class="edge">
<title>PTEN&#45;&gt;SIGNOR&#45;PF24</title>
<path fill="none" stroke="red" d="M490.15,-647.8C486.46,-629.51 479.53,-599.99 469.3,-576 464.66,-565.13 458.1,-553.81 452.12,-544.44"/>
<polygon fill="red" stroke="red" points="445.6,-543.57 453.99,-538.13 455.07,-539.81 446.68,-545.25 445.6,-543.57"/>
<polyline fill="none" stroke="red" points="449.25,-540.01 451.97,-544.2 "/>
</g>
<!-- RUNX3&#45;&gt;NOTCH1 -->
<g id="edge9" class="edge">
<title>RUNX3&#45;&gt;NOTCH1</title>
<path fill="none" stroke="red" d="M863.98,-1008.03C853.49,-974.1 829.92,-895.41 815.3,-828 798.12,-748.81 800.43,-727.79 786.3,-648 770,-556 748.1,-446.81 738.79,-400.97"/>
<polygon fill="red" stroke="red" points="733.07,-397.94 742.87,-395.94 743.26,-397.9 733.46,-399.9 733.07,-397.94"/>
<polyline fill="none" stroke="red" points="737.77,-395.96 738.76,-400.86 "/>
</g>
<!-- SIGNOR&#45;C186&#45;&gt;PTK2 -->
<g id="edge11" class="edge">
<title>SIGNOR&#45;C186&#45;&gt;PTK2</title>
<path fill="none" stroke="green" d="M1075.98,-27.58C1150.05,-41.37 1260.3,-76.14 1260.3,-161 1260.3,-451 1260.3,-451 1260.3,-451 1260.3,-567.66 1108.3,-548.34 1108.3,-665 1108.3,-883 1108.3,-883 1108.3,-883 1108.3,-1089.49 813.82,-1196.93 703.97,-1229.83"/>
<polygon fill="green" stroke="green" points="702.84,-1226.52 694.23,-1232.7 704.82,-1233.23 702.84,-1226.52"/>
</g>
<!-- VIM -->
<g id="node11" class="node">
<title>VIM</title>
<ellipse fill="lightyellow" stroke="black" cx="446.3" cy="-90" rx="29.8" ry="18"/>
<text text-anchor="middle" x="446.3" y="-86.3" font-family="Times,serif" font-size="14.00">VIM</text>
</g>
<!-- PRKCI&#45;&gt;VIM -->
<g id="edge13" class="edge">
<title>PRKCI&#45;&gt;VIM</title>
<path fill="none" stroke="green" d="M39.51,-1079.96C38.34,-1053.3 36.3,-1000.13 36.3,-955 36.3,-955 36.3,-955 36.3,-665 36.3,-568.4 74.3,-547.6 74.3,-451 74.3,-451 74.3,-451 74.3,-233 74.3,-162.2 312.43,-113.79 407.64,-97.27"/>
<polygon fill="green" stroke="green" points="408.46,-100.68 417.72,-95.54 407.28,-93.78 408.46,-100.68"/>
</g>
<!-- GNA13 -->
<g id="node13" class="node">
<title>GNA13</title>
<ellipse fill="lightgray" stroke="black" cx="144.3" cy="-1098" rx="44.39" ry="18"/>
<text text-anchor="middle" x="144.3" y="-1094.3" font-family="Times,serif" font-size="14.00">GNA13</text>
</g>
<!-- BDKRB2&#45;&gt;GNA13 -->
<g id="edge15" class="edge">
<title>BDKRB2&#45;&gt;GNA13</title>
<path fill="none" stroke="green" d="M214.81,-1224.15C200.97,-1199.6 175.15,-1153.77 158.89,-1124.91"/>
<polygon fill="green" stroke="green" points="161.73,-1122.82 153.78,-1115.82 155.63,-1126.26 161.73,-1122.82"/>
</g>
<!-- LATS1 -->
<g id="node14" class="node">
<title>LATS1</title>
<ellipse fill="lightyellow" stroke="black" cx="246.3" cy="-1026" rx="40.09" ry="18"/>
<text text-anchor="middle" x="246.3" y="-1022.3" font-family="Times,serif" font-size="14.00">LATS1</text>
</g>
<!-- GNA13&#45;&gt;LATS1 -->
<g id="edge16" class="edge">
<title>GNA13&#45;&gt;LATS1</title>
<path fill="none" stroke="red" d="M165.93,-1082.15C181.99,-1071.13 203.96,-1056.06 220.86,-1044.45"/>
<polygon fill="red" stroke="red" points="221.39,-1038.03 227.05,-1046.27 225.4,-1047.4 219.74,-1039.16 221.39,-1038.03"/>
<polyline fill="none" stroke="red" points="225.05,-1041.58 220.92,-1044.41 "/>
</g>
<!-- WWTR1 -->
<g id="node29" class="node">
<title>WWTR1</title>
<ellipse fill="lightgray" stroke="black" cx="226.3" cy="-810" rx="48.19" ry="18"/>
<text text-anchor="middle" x="226.3" y="-806.3" font-family="Times,serif" font-size="14.00">WWTR1</text>
</g>
<!-- LATS1&#45;&gt;WWTR1 -->
<g id="edge38" class="edge">
<title>LATS1&#45;&gt;WWTR1</title>
<path fill="none" stroke="red" d="M239.49,-1008.13C235.71,-997.87 231.35,-984.39 229.3,-972 221.16,-922.99 222.87,-864.43 224.68,-833.21"/>
<polygon fill="red" stroke="red" points="219.95,-828.76 229.93,-829.37 229.81,-831.37 219.82,-830.76 219.95,-828.76"/>
<polyline fill="none" stroke="red" points="225,-828.07 224.69,-833.06 "/>
</g>
<!-- VEPH1 -->
<g id="node39" class="node">
<title>VEPH1</title>
<ellipse fill="lightgray" stroke="black" cx="282.3" cy="-954" rx="44.39" ry="18"/>
<text text-anchor="middle" x="282.3" y="-950.3" font-family="Times,serif" font-size="14.00">VEPH1</text>
</g>
<!-- LATS1&#45;&gt;VEPH1 -->
<g id="edge63" class="edge">
<title>LATS1&#45;&gt;VEPH1</title>
<path fill="none" stroke="red" d="M249.28,-1007.7C253.26,-998.01 259.41,-985.86 265.45,-975.67"/>
<polygon fill="red" stroke="red" points="263.41,-969.4 271.95,-974.6 270.91,-976.31 262.37,-971.11 263.41,-969.4"/>
<polyline fill="none" stroke="red" points="268.2,-971.14 265.6,-975.41 "/>
</g>
<!-- LATS2 -->
<g id="node15" class="node">
<title>LATS2</title>
<ellipse fill="lightyellow" stroke="black" cx="437.3" cy="-882" rx="40.09" ry="18"/>
<text text-anchor="middle" x="437.3" y="-878.3" font-family="Times,serif" font-size="14.00">LATS2</text>
</g>
<!-- LATS2&#45;&gt;ABL1 -->
<g id="edge17" class="edge">
<title>LATS2&#45;&gt;ABL1</title>
<path fill="none" stroke="red" d="M474.46,-874.85C554.16,-861.66 740.8,-830.77 821.73,-817.38"/>
<polygon fill="red" stroke="red" points="825.11,-811.76 826.74,-821.62 824.77,-821.95 823.13,-812.08 825.11,-811.76"/>
<polyline fill="none" stroke="red" points="826.91,-816.53 821.98,-817.34 "/>
</g>
<!-- LATS2&#45;&gt;WWTR1 -->
<g id="edge78" class="edge">
<title>LATS2&#45;&gt;WWTR1</title>
<path fill="none" stroke="red" d="M406.37,-870.43C400.06,-868.29 393.47,-866.07 387.3,-864 346.24,-850.26 299.19,-834.81 266.61,-824.15"/>
<polygon fill="red" stroke="red" points="260.9,-827.54 264.01,-818.04 265.91,-818.66 262.8,-828.17 260.9,-827.54"/>
<polyline fill="none" stroke="red" points="261.51,-822.48 266.26,-824.04 "/>
</g>
<!-- SNAI1 -->
<g id="node37" class="node">
<title>SNAI1</title>
<ellipse fill="lightgray" stroke="black" cx="1009.3" cy="-594" rx="40.09" ry="18"/>
<text text-anchor="middle" x="1009.3" y="-590.3" font-family="Times,serif" font-size="14.00">SNAI1</text>
</g>
<!-- LATS2&#45;&gt;SNAI1 -->
<g id="edge56" class="edge">
<title>LATS2&#45;&gt;SNAI1</title>
<path fill="none" stroke="green" d="M477.32,-878.89C575.67,-873.33 826.86,-856.66 905.3,-828 959.48,-808.2 986.08,-806.86 1013.3,-756 1035.92,-713.74 1026.44,-655.87 1017.72,-622.26"/>
<polygon fill="green" stroke="green" points="1020.99,-620.95 1014.96,-612.25 1014.24,-622.82 1020.99,-620.95"/>
</g>
<!-- LATS2&#45;&gt;VEPH1 -->
<g id="edge61" class="edge">
<title>LATS2&#45;&gt;VEPH1</title>
<path fill="none" stroke="red" d="M412.88,-896.49C387.51,-908.72 347.79,-926.66 318.74,-939.04"/>
<polygon fill="red" stroke="red" points="316.68,-945.34 312.78,-936.13 314.62,-935.35 318.52,-944.56 316.68,-945.34"/>
<polyline fill="none" stroke="red" points="313.81,-941.13 318.41,-939.17 "/>
</g>
<!-- ABL1&#45;&gt;PPARG -->
<g id="edge79" class="edge">
<title>ABL1&#45;&gt;PPARG</title>
<path fill="none" stroke="green" d="M833.27,-798.06C804.67,-786.49 759.28,-768.13 726.7,-754.94"/>
<polygon fill="green" stroke="green" points="727.62,-751.54 717.04,-751.03 724.99,-758.03 727.62,-751.54"/>
</g>
<!-- PDGFRB -->
<g id="node17" class="node">
<title>PDGFRB</title>
<ellipse fill="lightgray" stroke="black" cx="952.3" cy="-738" rx="51.99" ry="18"/>
<text text-anchor="middle" x="952.3" y="-734.3" font-family="Times,serif" font-size="14.00">PDGFRB</text>
</g>
<!-- ABL1&#45;&gt;PDGFRB -->
<g id="edge18" class="edge">
<title>ABL1&#45;&gt;PDGFRB</title>
<path fill="none" stroke="purple" d="M874.99,-793.46C886.42,-783.91 902.51,-771.51 917.11,-760.96"/>
<polygon fill="purple" stroke="purple" points="917.12,-760.96 919.7,-754.22 926.91,-754.01 924.33,-760.75 917.12,-760.96"/>
</g>
<!-- PLK1 -->
<g id="node31" class="node">
<title>PLK1</title>
<ellipse fill="lightgray" stroke="black" cx="660.3" cy="-162" rx="36" ry="18"/>
<text text-anchor="middle" x="660.3" y="-158.3" font-family="Times,serif" font-size="14.00">PLK1</text>
</g>
<!-- ABL1&#45;&gt;PLK1 -->
<g id="edge42" class="edge">
<title>ABL1&#45;&gt;PLK1</title>
<path fill="none" stroke="green" d="M861.96,-791.89C870.4,-704.38 907.55,-310.11 894.3,-288 852.83,-218.83 758.61,-185.8 703.21,-171.84"/>
<polygon fill="green" stroke="green" points="703.88,-168.4 693.33,-169.45 702.23,-175.2 703.88,-168.4"/>
</g>
<!-- CRK -->
<g id="node35" class="node">
<title>CRK</title>
<ellipse fill="lightgray" stroke="black" cx="952.3" cy="-666" rx="31.4" ry="18"/>
<text text-anchor="middle" x="952.3" y="-662.3" font-family="Times,serif" font-size="14.00">CRK</text>
</g>
<!-- ABL1&#45;&gt;CRK -->
<g id="edge50" class="edge">
<title>ABL1&#45;&gt;CRK</title>
<path fill="none" stroke="red" d="M863.52,-791.73C867.66,-772.86 876.16,-742.35 891.3,-720 901.12,-705.49 915.88,-692.53 928.41,-683.05"/>
<polygon fill="red" stroke="red" points="928.79,-676.55 934.74,-684.59 933.13,-685.78 927.18,-677.74 928.79,-676.55"/>
<polyline fill="none" stroke="red" points="932.57,-679.97 928.55,-682.95 "/>
</g>
<!-- PDGFRB&#45;&gt;SRC -->
<g id="edge19" class="edge">
<title>PDGFRB&#45;&gt;SRC</title>
<path fill="none" stroke="green" d="M965.97,-755.75C985.3,-781.18 1018.3,-831.79 1018.3,-881 1018.3,-1171 1018.3,-1171 1018.3,-1171 1018.3,-1283.57 842.85,-1306.99 761.19,-1311.8"/>
<polygon fill="green" stroke="green" points="760.59,-1308.32 750.79,-1312.34 760.96,-1315.32 760.59,-1308.32"/>
</g>
<!-- PDGFRB&#45;&gt;PTK2 -->
<g id="edge73" class="edge">
<title>PDGFRB&#45;&gt;PTK2</title>
<path fill="none" stroke="green" d="M945.47,-756.16C937.52,-774.94 923.16,-805.37 905.3,-828 823.38,-931.82 682.3,-892.75 682.3,-1025 682.3,-1099 682.3,-1099 682.3,-1099 682.3,-1139.36 674.66,-1185.61 669.07,-1214.06"/>
<polygon fill="green" stroke="green" points="665.6,-1213.55 667.05,-1224.05 672.47,-1214.94 665.6,-1213.55"/>
</g>
<!-- PDGFRB&#45;&gt;ABL1 -->
<g id="edge88" class="edge">
<title>PDGFRB&#45;&gt;ABL1</title>
<path fill="none" stroke="green" d="M936.67,-755.31C924.27,-765.62 906.8,-778.98 891.63,-789.8"/>
<polygon fill="green" stroke="green" points="889.2,-787.23 883.01,-795.83 893.21,-792.96 889.2,-787.23"/>
</g>
<!-- PDGFRB&#45;&gt;CRK -->
<g id="edge89" class="edge">
<title>PDGFRB&#45;&gt;CRK</title>
<path fill="none" stroke="green" d="M952.3,-719.7C952.3,-711.98 952.3,-702.71 952.3,-694.11"/>
<polygon fill="green" stroke="green" points="955.8,-694.1 952.3,-684.1 948.8,-694.1 955.8,-694.1"/>
</g>
<!-- SIGNOR&#45;PH18 -->
<g id="node19" class="node">
<title>SIGNOR&#45;PH18</title>
<ellipse fill="lightgray" stroke="black" cx="285.3" cy="-1098" rx="78.79" ry="18"/>
<text text-anchor="middle" x="285.3" y="-1094.3" font-family="Times,serif" font-size="14.00">SIGNOR&#45;PH18</text>
</g>
<!-- GSN&#45;&gt;SIGNOR&#45;PH18 -->
<g id="edge21" class="edge">
<title>GSN&#45;&gt;SIGNOR&#45;PH18</title>
<path fill="none" stroke="red" d="M293.63,-1152.05C292.18,-1142.82 290.37,-1131.28 288.8,-1121.32"/>
<polygon fill="red" stroke="red" points="283.23,-1118.04 293.11,-1116.49 293.42,-1118.46 283.54,-1120.02 283.23,-1118.04"/>
<polyline fill="none" stroke="red" points="288.01,-1116.28 288.79,-1121.21 "/>
</g>
<!-- SIGNOR&#45;PH18&#45;&gt;LATS1 -->
<g id="edge49" class="edge">
<title>SIGNOR&#45;PH18&#45;&gt;LATS1</title>
<path fill="none" stroke="red" d="M275.86,-1080.05C270.54,-1070.51 263.85,-1058.5 258.18,-1048.32"/>
<polygon fill="red" stroke="red" points="251.77,-1047.1 260.5,-1042.23 261.48,-1043.98 252.74,-1048.84 251.77,-1047.1"/>
<polyline fill="none" stroke="red" points="255.65,-1043.79 258.08,-1048.16 "/>
</g>
<!-- SIGNOR&#45;PH18&#45;&gt;LATS2 -->
<g id="edge22" class="edge">
<title>SIGNOR&#45;PH18&#45;&gt;LATS2</title>
<path fill="none" stroke="red" d="M297.22,-1080.21C324.76,-1041.44 392.7,-945.78 422.68,-903.58"/>
<polygon fill="red" stroke="red" points="420.98,-897.34 429.13,-903.13 427.97,-904.76 419.82,-898.97 420.98,-897.34"/>
<polyline fill="none" stroke="red" points="425.63,-899.42 422.74,-903.5 "/>
</g>
<!-- ERBB2&#45;&gt;PTK2 -->
<g id="edge24" class="edge">
<title>ERBB2&#45;&gt;PTK2</title>
<path fill="none" stroke="green" d="M251.11,-323.94C224.67,-374.3 150.3,-528.13 150.3,-665 150.3,-739 150.3,-739 150.3,-739 150.3,-876.16 102.71,-944.68 197.3,-1044 252.36,-1101.82 296.9,-1056.78 373.3,-1080 454.16,-1104.58 476.19,-1109.6 549.3,-1152 582.76,-1171.41 617.24,-1199.7 639.39,-1219.14"/>
<polygon fill="green" stroke="green" points="637.17,-1221.85 646.97,-1225.87 641.81,-1216.61 637.17,-1221.85"/>
</g>
<!-- CDK1 -->
<g id="node25" class="node">
<title>CDK1</title>
<ellipse fill="lightgray" stroke="black" cx="263.3" cy="-234" rx="37.89" ry="18"/>
<text text-anchor="middle" x="263.3" y="-230.3" font-family="Times,serif" font-size="14.00">CDK1</text>
</g>
<!-- ERBB2&#45;&gt;CDK1 -->
<g id="edge33" class="edge">
<title>ERBB2&#45;&gt;CDK1</title>
<path fill="none" stroke="red" d="M261.04,-287.7C261.43,-278.46 261.93,-266.98 262.35,-257.11"/>
<polygon fill="red" stroke="red" points="257.53,-252.89 267.52,-253.32 267.43,-255.32 257.44,-254.89 257.53,-252.89"/>
<polyline fill="none" stroke="red" points="262.56,-252.1 262.35,-257.1 "/>
</g>
<!-- CTNNB1&#45;&gt;NOTCH1 -->
<g id="edge26" class="edge">
<title>CTNNB1&#45;&gt;NOTCH1</title>
<path fill="none" stroke="green" d="M668.58,-433.12C680,-423.72 694.63,-411.67 707.19,-401.33"/>
<polygon fill="green" stroke="green" points="709.59,-403.88 715.08,-394.82 705.14,-398.48 709.59,-403.88"/>
</g>
<!-- CTNNB1&#45;&gt;PPARG -->
<g id="edge81" class="edge">
<title>CTNNB1&#45;&gt;PPARG</title>
<path fill="none" stroke="red" d="M654.95,-467.94C665.8,-517.11 684.9,-659.8 688.18,-714.91"/>
<polygon fill="red" stroke="red" points="693.39,-718.7 683.4,-719.23 683.29,-717.23 693.28,-716.71 693.39,-718.7"/>
<polyline fill="none" stroke="red" points="688.45,-719.97 688.18,-714.97 "/>
</g>
<!-- RUNX2 -->
<g id="node28" class="node">
<title>RUNX2</title>
<ellipse fill="lightgray" stroke="black" cx="363.3" cy="-162" rx="45.49" ry="18"/>
<text text-anchor="middle" x="363.3" y="-158.3" font-family="Times,serif" font-size="14.00">RUNX2</text>
</g>
<!-- CTNNB1&#45;&gt;RUNX2 -->
<g id="edge90" class="edge">
<title>CTNNB1&#45;&gt;RUNX2</title>
<path fill="none" stroke="green" d="M615.6,-436.02C594.36,-426.83 567.11,-413.12 546.3,-396 470.47,-333.65 405.99,-234.77 378.09,-188.48"/>
<polygon fill="green" stroke="green" points="380.98,-186.48 372.85,-179.69 374.96,-190.07 380.98,-186.48"/>
</g>
<!-- CTNNB1&#45;&gt;SIGNOR&#45;PF72 -->
<g id="edge52" class="edge">
<title>CTNNB1&#45;&gt;SIGNOR&#45;PF72</title>
<path fill="none" stroke="green" d="M627.78,-433.58C601.18,-409.09 560.3,-358.78 560.3,-307 560.3,-307 560.3,-307 560.3,-161 560.3,-121 560.3,-74.65 562.59,-46.08"/>
<polygon fill="green" stroke="green" points="566.08,-46.35 563.58,-36.05 559.11,-45.65 566.08,-46.35"/>
</g>
<!-- TCF3&#45;&gt;CDH1 -->
<g id="edge28" class="edge">
<title>TCF3&#45;&gt;CDH1</title>
<path fill="none" stroke="red" d="M756.78,-287.85C757.85,-249.42 760.46,-156.44 761.67,-113.46"/>
<polygon fill="red" stroke="red" points="756.79,-109.09 766.78,-109.37 766.73,-111.37 756.73,-111.09 756.79,-109.09"/>
<polyline fill="none" stroke="red" points="761.81,-108.23 761.67,-113.23 "/>
</g>
<!-- TCF3&#45;&gt;NOTCH1 -->
<g id="edge71" class="edge">
<title>TCF3&#45;&gt;NOTCH1</title>
<path fill="none" stroke="green" d="M756.74,-324.45C755.05,-332.44 752.22,-342.08 749.05,-350.92"/>
<polygon fill="green" stroke="green" points="745.72,-349.82 745.35,-360.41 752.24,-352.36 745.72,-349.82"/>
</g>
<!-- HES1&#45;&gt;PPARG -->
<g id="edge82" class="edge">
<title>HES1&#45;&gt;PPARG</title>
<path fill="none" stroke="red" d="M844.73,-324C840.94,-350.6 834.3,-403.7 834.3,-449 834.3,-523 834.3,-523 834.3,-523 834.3,-608.63 753.34,-685.02 711.59,-718.73"/>
<polygon fill="red" stroke="red" points="711.33,-725.33 705.09,-717.52 706.65,-716.27 712.89,-724.08 711.33,-725.33"/>
<polyline fill="none" stroke="red" points="707.43,-722.05 711.34,-718.93 "/>
</g>
<!-- HES1&#45;&gt;CTNND2 -->
<g id="edge31" class="edge">
<title>HES1&#45;&gt;CTNND2</title>
<path fill="none" stroke="red" d="M876.05,-294.06C907.45,-282.11 957.92,-262.92 992.74,-249.67"/>
<polygon fill="red" stroke="red" points="995.05,-243.44 998.61,-252.79 996.74,-253.5 993.18,-244.15 995.05,-243.44"/>
<polyline fill="none" stroke="red" points="997.76,-247.76 993.09,-249.54 "/>
</g>
<!-- CTNND2&#45;&gt;CDH1 -->
<g id="edge75" class="edge">
<title>CTNND2&#45;&gt;CDH1</title>
<path fill="none" stroke="green" d="M1023.32,-216.17C1012.85,-195.94 992.56,-162.41 965.3,-144 918.49,-112.39 853.9,-99.62 810.25,-94.48"/>
<polygon fill="green" stroke="green" points="810.5,-90.98 800.18,-93.38 809.74,-97.94 810.5,-90.98"/>
</g>
<!-- CTNND2&#45;&gt;CDH2 -->
<g id="edge32" class="edge">
<title>CTNND2&#45;&gt;CDH2</title>
<path fill="none" stroke="green" d="M1049.45,-217.12C1060.31,-207.61 1074.28,-195.39 1086.18,-184.97"/>
<polygon fill="green" stroke="green" points="1088.82,-187.32 1094.04,-178.1 1084.21,-182.05 1088.82,-187.32"/>
</g>
<!-- CDK1&#45;&gt;VIM -->
<g id="edge34" class="edge">
<title>CDK1&#45;&gt;VIM</title>
<path fill="none" stroke="red" d="M268.04,-215.95C274.38,-196.13 287.42,-163.63 309.3,-144 338.63,-117.67 382.48,-103.82 412.63,-96.97"/>
<polygon fill="red" stroke="red" points="415.67,-91.18 417.81,-100.95 415.86,-101.38 413.71,-91.61 415.67,-91.18"/>
<polyline fill="none" stroke="red" points="417.72,-95.85 412.83,-96.92 "/>
</g>
<!-- CDK1&#45;&gt;LATS1 -->
<g id="edge41" class="edge">
<title>CDK1&#45;&gt;LATS1</title>
<path fill="none" stroke="green" d="M239.85,-248.34C224.75,-257.86 205.54,-271.8 192.3,-288 164.62,-321.87 150.3,-333.26 150.3,-377 150.3,-451 150.3,-451 150.3,-451 150.3,-547.6 112.3,-568.4 112.3,-665 112.3,-739 112.3,-739 112.3,-739 112.3,-845.04 188.77,-954.08 226.17,-1001.07"/>
<polygon fill="green" stroke="green" points="223.45,-1003.28 232.46,-1008.85 228.9,-998.88 223.45,-1003.28"/>
</g>
<!-- CDK1&#45;&gt;RUNX2 -->
<g id="edge94" class="edge">
<title>CDK1&#45;&gt;RUNX2</title>
<path fill="none" stroke="green" d="M284.02,-218.5C298.3,-208.49 317.52,-195.05 333.45,-183.89"/>
<polygon fill="green" stroke="green" points="335.73,-186.57 341.91,-177.97 331.71,-180.84 335.73,-186.57"/>
</g>
<!-- CDK1&#45;&gt;WWTR1 -->
<g id="edge95" class="edge">
<title>CDK1&#45;&gt;WWTR1</title>
<path fill="none" stroke="red" d="M241.53,-248.83C228.95,-258.19 214.28,-271.77 207.3,-288 166.22,-383.43 226.3,-417.1 226.3,-521 226.3,-667 226.3,-667 226.3,-667 226.3,-709.29 226.3,-758.68 226.3,-786.65"/>
<polygon fill="red" stroke="red" points="231.3,-790.95 221.3,-790.95 221.3,-788.95 231.3,-788.95 231.3,-790.95"/>
<polyline fill="none" stroke="red" points="226.3,-791.95 226.3,-786.95 "/>
</g>
<!-- CDK1&#45;&gt;PLK1 -->
<g id="edge96" class="edge">
<title>CDK1&#45;&gt;PLK1</title>
<path fill="none" stroke="green" d="M298.18,-226.85C370.7,-214.06 537.58,-184.64 616.9,-170.65"/>
<polygon fill="green" stroke="green" points="617.8,-174.05 627.04,-168.86 616.58,-167.15 617.8,-174.05"/>
</g>
<!-- MAP4K4 -->
<g id="node26" class="node">
<title>MAP4K4</title>
<ellipse fill="lightyellow" stroke="black" cx="327.3" cy="-882" rx="51.19" ry="18"/>
<text text-anchor="middle" x="327.3" y="-878.3" font-family="Times,serif" font-size="14.00">MAP4K4</text>
</g>
<!-- SMAD1 -->
<g id="node27" class="node">
<title>SMAD1</title>
<ellipse fill="lightgray" stroke="black" cx="414.3" cy="-810" rx="46.29" ry="18"/>
<text text-anchor="middle" x="414.3" y="-806.3" font-family="Times,serif" font-size="14.00">SMAD1</text>
</g>
<!-- MAP4K4&#45;&gt;SMAD1 -->
<g id="edge35" class="edge">
<title>MAP4K4&#45;&gt;SMAD1</title>
<path fill="none" stroke="red" d="M347.04,-865.12C360.03,-854.66 377.11,-840.92 390.8,-829.91"/>
<polygon fill="red" stroke="red" points="391.02,-823.31 397.29,-831.1 395.73,-832.36 389.46,-824.57 391.02,-823.31"/>
<polyline fill="none" stroke="red" points="394.93,-826.58 391.04,-829.71 "/>
</g>
<!-- MAP4K4&#45;&gt;PIK3CA -->
<g id="edge44" class="edge">
<title>MAP4K4&#45;&gt;PIK3CA</title>
<path fill="none" stroke="red" d="M332.48,-863.97C347.47,-814.69 390.87,-672 407.61,-616.99"/>
<polygon fill="red" stroke="red" points="404.07,-611.45 413.63,-614.36 413.05,-616.27 403.49,-613.36 404.07,-611.45"/>
<polyline fill="none" stroke="red" points="409.14,-611.94 407.69,-616.73 "/>
</g>
<!-- SMAD1&#45;&gt;PPARG -->
<g id="edge83" class="edge">
<title>SMAD1&#45;&gt;PPARG</title>
<path fill="none" stroke="green" d="M451.68,-799.41C501.21,-786.71 588.5,-764.33 641.8,-750.67"/>
<polygon fill="green" stroke="green" points="642.84,-754.01 651.66,-748.14 641.1,-747.23 642.84,-754.01"/>
</g>
<!-- SMAD1&#45;&gt;RUNX2 -->
<g id="edge36" class="edge">
<title>SMAD1&#45;&gt;RUNX2</title>
<path fill="none" stroke="green" d="M407.59,-792.17C388,-741.5 332.3,-585.54 332.3,-451 332.3,-451 332.3,-451 332.3,-305 332.3,-264.1 344.72,-218.06 353.84,-189.79"/>
<polygon fill="green" stroke="green" points="357.19,-190.82 357.02,-180.22 350.55,-188.61 357.19,-190.82"/>
</g>
<!-- RUNX2&#45;&gt;NOTCH1 -->
<g id="edge37" class="edge">
<title>RUNX2&#45;&gt;NOTCH1</title>
<path fill="none" stroke="red" d="M388,-177.25C453.73,-215.16 632.78,-318.44 704.25,-359.67"/>
<polygon fill="red" stroke="red" points="710.43,-357.46 705.43,-366.12 703.7,-365.12 708.7,-356.46 710.43,-357.46"/>
<polyline fill="none" stroke="red" points="708.8,-362.29 704.46,-359.79 "/>
</g>
<!-- WWTR1&#45;&gt;PPARG -->
<g id="edge84" class="edge">
<title>WWTR1&#45;&gt;PPARG</title>
<path fill="none" stroke="red" d="M270.08,-802.35C357.79,-789.03 554.16,-759.22 642.6,-745.79"/>
<polygon fill="red" stroke="red" points="646.02,-740.21 647.52,-750.1 645.54,-750.4 644.04,-740.51 646.02,-740.21"/>
<polyline fill="none" stroke="red" points="647.76,-745 642.82,-745.75 "/>
</g>
<!-- WWTR1&#45;&gt;RUNX2 -->
<g id="edge97" class="edge">
<title>WWTR1&#45;&gt;RUNX2</title>
<path fill="none" stroke="green" d="M216.77,-792.11C189.37,-741.86 112.3,-588.3 112.3,-451 112.3,-451 112.3,-451 112.3,-305 112.3,-214.86 236.43,-181.28 310.11,-169.28"/>
<polygon fill="green" stroke="green" points="310.8,-172.71 320.15,-167.73 309.73,-165.8 310.8,-172.71"/>
</g>
<!-- SMAD3 -->
<g id="node30" class="node">
<title>SMAD3</title>
<ellipse fill="lightgray" stroke="black" cx="494.3" cy="-450" rx="46.29" ry="18"/>
<text text-anchor="middle" x="494.3" y="-446.3" font-family="Times,serif" font-size="14.00">SMAD3</text>
</g>
<!-- WWTR1&#45;&gt;SMAD3 -->
<g id="edge39" class="edge">
<title>WWTR1&#45;&gt;SMAD3</title>
<path fill="none" stroke="green" d="M233.99,-791.91C245.09,-765.62 264.3,-713.45 264.3,-667 264.3,-667 264.3,-667 264.3,-593 264.3,-509.98 374.14,-473.89 442.01,-459.51"/>
<polygon fill="green" stroke="green" points="443,-462.88 452.11,-457.47 441.62,-456.02 443,-462.88"/>
</g>
<!-- SMAD3&#45;&gt;NOTCH1 -->
<g id="edge40" class="edge">
<title>SMAD3&#45;&gt;NOTCH1</title>
<path fill="none" stroke="green" d="M530.23,-438.52C571.65,-426.44 639.92,-406.53 685.97,-393.09"/>
<polygon fill="green" stroke="green" points="687.11,-396.41 695.73,-390.25 685.15,-389.69 687.11,-396.41"/>
</g>
<!-- SMAD3&#45;&gt;RUNX2 -->
<g id="edge98" class="edge">
<title>SMAD3&#45;&gt;RUNX2</title>
<path fill="none" stroke="red" d="M457.56,-438.91C435.63,-430.92 409.22,-417.45 394.3,-396 348.83,-330.66 354.66,-229.61 360,-185.21"/>
<polygon fill="red" stroke="red" points="355.56,-180.45 365.48,-181.7 365.23,-183.68 355.31,-182.43 355.56,-180.45"/>
<polyline fill="none" stroke="red" points="360.65,-180.08 360.02,-185.04 "/>
</g>
<!-- PLK1&#45;&gt;CDH1 -->
<g id="edge76" class="edge">
<title>PLK1&#45;&gt;CDH1</title>
<path fill="none" stroke="red" d="M680.94,-146.83C697.14,-135.71 719.78,-120.18 737.06,-108.32"/>
<polygon fill="red" stroke="red" points="737.68,-101.83 743.34,-110.07 741.69,-111.2 736.03,-102.96 737.68,-101.83"/>
<polyline fill="none" stroke="red" points="741.34,-105.38 737.21,-108.21 "/>
</g>
<!-- PLK1&#45;&gt;NOTCH1 -->
<g id="edge43" class="edge">
<title>PLK1&#45;&gt;NOTCH1</title>
<path fill="none" stroke="red" d="M665.09,-180.12C673.53,-209.75 691.98,-272.37 711.3,-324 715.19,-334.4 720.02,-345.72 724.24,-355.21"/>
<polygon fill="red" stroke="red" points="730.54,-357.04 721.42,-361.13 720.6,-359.31 729.72,-355.21 730.54,-357.04"/>
<polyline fill="none" stroke="red" points="726.39,-360 724.34,-355.43 "/>
</g>
<!-- PLK1&#45;&gt;VIM -->
<g id="edge60" class="edge">
<title>PLK1&#45;&gt;VIM</title>
<path fill="none" stroke="green" d="M630.99,-151.41C592.07,-138.68 523.41,-116.22 481.66,-102.57"/>
<polygon fill="green" stroke="green" points="482.5,-99.16 471.91,-99.38 480.33,-105.81 482.5,-99.16"/>
</g>
<!-- PIK3CA&#45;&gt;AKT1 -->
<g id="edge45" class="edge">
<title>PIK3CA&#45;&gt;AKT1</title>
<path fill="none" stroke="green" d="M443.26,-579.83C468.83,-568.21 506.15,-551.25 533.36,-538.88"/>
<polygon fill="green" stroke="green" points="534.88,-542.04 542.53,-534.71 531.98,-535.66 534.88,-542.04"/>
</g>
<!-- PIK3CA&#45;&gt;SIGNOR&#45;PF24 -->
<g id="edge58" class="edge">
<title>PIK3CA&#45;&gt;SIGNOR&#45;PF24</title>
<path fill="none" stroke="green" d="M419.86,-576.05C422.45,-568.18 425.59,-558.62 428.49,-549.79"/>
<polygon fill="green" stroke="green" points="431.82,-550.87 431.62,-540.28 425.17,-548.68 431.82,-550.87"/>
</g>
<!-- AKT1&#45;&gt;PTK2 -->
<g id="edge46" class="edge">
<title>AKT1&#45;&gt;PTK2</title>
<path fill="none" stroke="green" d="M570.4,-540.4C573.98,-569.93 581.54,-631.76 588.3,-684 614.61,-887.32 648.25,-1132.11 659.47,-1213.33"/>
<polygon fill="green" stroke="green" points="656.06,-1214.26 660.9,-1223.68 663,-1213.3 656.06,-1214.26"/>
</g>
<!-- AKT1&#45;&gt;VIM -->
<g id="edge77" class="edge">
<title>AKT1&#45;&gt;VIM</title>
<path fill="none" stroke="green" d="M564.67,-503.94C560.85,-486.02 554.67,-457.02 549.3,-432 537.36,-376.43 522.3,-363.84 522.3,-307 522.3,-307 522.3,-307 522.3,-233 522.3,-186.37 490.05,-140.24 467.57,-113.74"/>
<polygon fill="green" stroke="green" points="470.17,-111.4 460.95,-106.17 464.9,-116 470.17,-111.4"/>
</g>
<!-- AKT1&#45;&gt;CTNNB1 -->
<g id="edge91" class="edge">
<title>AKT1&#45;&gt;CTNNB1</title>
<path fill="none" stroke="green" d="M585.47,-506.15C596.37,-496.74 610.68,-484.37 622.99,-473.73"/>
<polygon fill="green" stroke="green" points="625.45,-476.23 630.73,-467.04 620.88,-470.93 625.45,-476.23"/>
</g>
<!-- AKT1&#45;&gt;SMAD3 -->
<g id="edge99" class="edge">
<title>AKT1&#45;&gt;SMAD3</title>
<path fill="none" stroke="red" d="M552.24,-505.81C541.32,-495.48 526.76,-481.71 514.98,-470.56"/>
<polygon fill="red" stroke="red" points="508.38,-471.21 515.26,-463.94 516.71,-465.32 509.84,-472.58 508.38,-471.21"/>
<polyline fill="none" stroke="red" points="511.09,-466.89 514.72,-470.32 "/>
</g>
<!-- ACTN1&#45;&gt;PTK2 -->
<g id="edge74" class="edge">
<title>ACTN1&#45;&gt;PTK2</title>
<path fill="none" stroke="red" d="M528.39,-1182.3C559.14,-1194.36 604.9,-1213.47 634.51,-1226.59"/>
<polygon fill="red" stroke="red" points="640.24,-1223.67 636.17,-1232.81 634.34,-1231.99 638.41,-1222.86 640.24,-1223.67"/>
<polyline fill="none" stroke="red" points="639.12,-1228.65 634.55,-1226.61 "/>
</g>
<!-- ACTN1&#45;&gt;SIGNOR&#45;PH18 -->
<g id="edge48" class="edge">
<title>ACTN1&#45;&gt;SIGNOR&#45;PH18</title>
<path fill="none" stroke="green" d="M463.33,-1158.06C429.78,-1146.93 377.26,-1129.51 337.94,-1116.47"/>
<polygon fill="green" stroke="green" points="338.84,-1113.08 328.25,-1113.25 336.64,-1119.72 338.84,-1113.08"/>
</g>
<!-- CRK&#45;&gt;PTK2 -->
<g id="edge51" class="edge">
<title>CRK&#45;&gt;PTK2</title>
<path fill="none" stroke="green" d="M974.11,-679.17C988.17,-688.36 1005.27,-702.38 1013.3,-720 1019.93,-734.56 1018.53,-740.88 1013.3,-756 966.74,-890.61 898.29,-892.24 815.3,-1008 762.47,-1081.69 705.38,-1172.6 678.69,-1215.85"/>
<polygon fill="green" stroke="green" points="675.58,-1214.22 673.32,-1224.57 681.54,-1217.89 675.58,-1214.22"/>
</g>
<!-- SIGNOR&#45;PF72&#45;&gt;CDH1 -->
<g id="edge53" class="edge">
<title>SIGNOR&#45;PF72&#45;&gt;CDH1</title>
<path fill="none" stroke="green" d="M613.02,-32.86C646.91,-44.58 693.23,-61.35 725.31,-73.51"/>
<polygon fill="green" stroke="green" points="724.18,-76.83 734.77,-77.13 726.68,-70.29 724.18,-76.83"/>
</g>
<!-- SIGNOR&#45;PF72&#45;&gt;SIGNOR&#45;PH18 -->
<g id="edge55" class="edge">
<title>SIGNOR&#45;PF72&#45;&gt;SIGNOR&#45;PH18</title>
<path fill="none" stroke="green" d="M495.19,-23.28C348.73,-33.77 36.3,-67.15 36.3,-161 36.3,-451 36.3,-451 36.3,-451 36.3,-547.6 74.3,-568.4 74.3,-665 74.3,-955 74.3,-955 74.3,-955 74.3,-1026.25 158.13,-1064.1 220.11,-1082.34"/>
<polygon fill="green" stroke="green" points="219.28,-1085.74 229.86,-1085.1 221.19,-1079.01 219.28,-1085.74"/>
</g>
<!-- SIGNOR&#45;PF72&#45;&gt;CTNNB1 -->
<g id="edge92" class="edge">
<title>SIGNOR&#45;PF72&#45;&gt;CTNNB1</title>
<path fill="none" stroke="green" d="M575.01,-36.05C578.3,-62.71 578.3,-115.89 578.3,-161 578.3,-307 578.3,-307 578.3,-307 578.3,-352.96 610.5,-397.76 631.74,-424.37"/>
<polygon fill="green" stroke="green" points="629.19,-426.78 638.2,-432.35 634.63,-422.38 629.19,-426.78"/>
</g>
<!-- SNAI1&#45;&gt;CDH1 -->
<g id="edge57" class="edge">
<title>SNAI1&#45;&gt;CDH1</title>
<path fill="none" stroke="red" d="M1005.35,-576.06C999.52,-549.55 989.3,-496.56 989.3,-451 989.3,-451 989.3,-451 989.3,-377 989.3,-300.32 973.4,-277.27 927.3,-216 890.08,-166.53 828.23,-127.04 791.76,-106.49"/>
<polygon fill="red" stroke="red" points="785.44,-108.7 790.31,-99.96 792.06,-100.94 787.19,-109.67 785.44,-108.7"/>
<polyline fill="none" stroke="red" points="787.01,-103.84 791.37,-106.28 "/>
</g>
<!-- SIGNOR&#45;PF24&#45;&gt;VIM -->
<g id="edge59" class="edge">
<title>SIGNOR&#45;PF24&#45;&gt;VIM</title>
<path fill="none" stroke="green" d="M437.51,-503.93C437.77,-486.01 438.32,-457.02 439.3,-432 441.48,-376.4 446.3,-362.64 446.3,-307 446.3,-307 446.3,-307 446.3,-233 446.3,-193 446.3,-146.65 446.3,-118.08"/>
<polygon fill="green" stroke="green" points="449.8,-118.05 446.3,-108.05 442.8,-118.05 449.8,-118.05"/>
</g>
<!-- SIGNOR&#45;PF24&#45;&gt;CTNNB1 -->
<g id="edge93" class="edge">
<title>SIGNOR&#45;PF24&#45;&gt;CTNNB1</title>
<path fill="none" stroke="green" d="M479.94,-506.92C515.64,-495.13 566.48,-478.34 603.13,-466.24"/>
<polygon fill="green" stroke="green" points="604.67,-469.42 613.07,-462.96 602.48,-462.77 604.67,-469.42"/>
</g>
<!-- SIGNOR&#45;PF24&#45;&gt;SMAD3 -->
<g id="edge100" class="edge">
<title>SIGNOR&#45;PF24&#45;&gt;SMAD3</title>
<path fill="none" stroke="red" d="M451.09,-504.05C459.12,-494.2 469.29,-481.71 477.75,-471.32"/>
<polygon fill="red" stroke="red" points="476.51,-464.93 484.26,-471.24 483,-472.79 475.25,-466.48 476.51,-464.93"/>
<polyline fill="none" stroke="red" points="481.02,-467.31 477.86,-471.18 "/>
</g>
<!-- VEPH1&#45;&gt;LATS1 -->
<g id="edge62" class="edge">
<title>VEPH1&#45;&gt;LATS1</title>
<path fill="none" stroke="red" d="M279.39,-972.12C275.38,-981.9 269.15,-994.21 263.05,-1004.49"/>
<polygon fill="red" stroke="red" points="265.24,-1010.51 256.7,-1005.31 257.74,-1003.6 266.28,-1008.8 265.24,-1010.51"/>
<polyline fill="none" stroke="red" points="260.45,-1008.76 263.05,-1004.49 "/>
</g>
<!-- VEPH1&#45;&gt;LATS2 -->
<g id="edge64" class="edge">
<title>VEPH1&#45;&gt;LATS2</title>
<path fill="none" stroke="red" d="M307.42,-939.17C333.33,-926.7 373.68,-908.5 402.6,-896.22"/>
<polygon fill="red" stroke="red" points="404.64,-889.93 408.53,-899.15 406.69,-899.92 402.8,-890.71 404.64,-889.93"/>
<polyline fill="none" stroke="red" points="407.5,-894.15 402.9,-896.1 "/>
</g>
</g>
</svg>
