<?xml version="1.0" encoding="UTF-8" standalone="no"?>
<!DOCTYPE svg PUBLIC "-//W3C//DTD SVG 1.1//EN"
 "http://www.w3.org/Graphics/SVG/1.1/DTD/svg11.dtd">
<!-- Generated by graphviz version 2.43.0 (0)
 -->
<!-- Title: %3 Pages: 1 -->
<svg width="837pt" height="116pt"
 viewBox="0.00 0.00 836.99 116.00" xmlns="http://www.w3.org/2000/svg" xmlns:xlink="http://www.w3.org/1999/xlink">
<g id="graph0" class="graph" transform="scale(1 1) rotate(0) translate(4 112)">
<title>%3</title>
<polygon fill="white" stroke="transparent" points="-4,4 -4,-112 832.99,-112 832.99,4 -4,4"/>
<!-- SRC -->
<g id="node1" class="node">
<title>SRC</title>
<ellipse fill="lightgray" stroke="black" cx="81.75" cy="-90" rx="30.59" ry="18"/>
<text text-anchor="middle" x="81.75" y="-86.3" font-family="Times,serif" font-size="14.00">SRC</text>
</g>
<!-- PTK2 -->
<g id="node2" class="node">
<title>PTK2</title>
<ellipse fill="lightgray" stroke="black" cx="35.75" cy="-18" rx="36" ry="18"/>
<text text-anchor="middle" x="35.75" y="-14.3" font-family="Times,serif" font-size="14.00">PTK2</text>
</g>
<!-- SRC&#45;&gt;PTK2 -->
<g id="edge1" class="edge">
<title>SRC&#45;&gt;PTK2</title>
<path fill="none" stroke="green" d="M71.08,-72.76C65.47,-64.23 58.47,-53.58 52.19,-44.02"/>
<polygon fill="green" stroke="green" points="55.09,-42.07 46.68,-35.63 49.24,-45.91 55.09,-42.07"/>
</g>
<!-- CDH2 -->
<g id="node3" class="node">
<title>CDH2</title>
<ellipse fill="lightgray" stroke="black" cx="127.75" cy="-18" rx="38.19" ry="18"/>
<text text-anchor="middle" x="127.75" y="-14.3" font-family="Times,serif" font-size="14.00">CDH2</text>
</g>
<!-- SRC&#45;&gt;CDH2 -->
<g id="edge2" class="edge">
<title>SRC&#45;&gt;CDH2</title>
<path fill="none" stroke="red" d="M92.42,-72.76C98.83,-63.01 107.05,-50.5 113.95,-40"/>
<polygon fill="red" stroke="red" points="112.09,-33.72 120.45,-39.22 119.35,-40.89 110.99,-35.39 112.09,-33.72"/>
<polyline fill="none" stroke="red" points="116.82,-35.63 114.07,-39.81 "/>
</g>
<!-- NOTCH1 -->
<g id="node4" class="node">
<title>NOTCH1</title>
<ellipse fill="lightgray" stroke="black" cx="182.75" cy="-90" rx="51.99" ry="18"/>
<text text-anchor="middle" x="182.75" y="-86.3" font-family="Times,serif" font-size="14.00">NOTCH1</text>
</g>
<!-- CDH1 -->
<g id="node5" class="node">
<title>CDH1</title>
<ellipse fill="lightgray" stroke="black" cx="290.75" cy="-90" rx="38.19" ry="18"/>
<text text-anchor="middle" x="290.75" y="-86.3" font-family="Times,serif" font-size="14.00">CDH1</text>
</g>
<!-- VIM -->
<g id="node6" class="node">
<title>VIM</title>
<ellipse fill="lightgray" stroke="black" cx="376.75" cy="-90" rx="29.8" ry="18"/>
<text text-anchor="middle" x="376.75" y="-86.3" font-family="Times,serif" font-size="14.00">VIM</text>
</g>
<!-- MAP4K4 -->
<g id="node7" class="node">
<title>MAP4K4</title>
<ellipse fill="lightgray" stroke="black" cx="475.75" cy="-90" rx="51.19" ry="18"/>
<text text-anchor="middle" x="475.75" y="-86.3" font-family="Times,serif" font-size="14.00">MAP4K4</text>
</g>
<!-- LATS1 -->
<g id="node8" class="node">
<title>LATS1</title>
<ellipse fill="lightgray" stroke="black" cx="585.75" cy="-90" rx="40.89" ry="18"/>
<text text-anchor="middle" x="585.75" y="-86.3" font-family="Times,serif" font-size="14.00">LATS1</text>
</g>
<!-- LATS2 -->
<g id="node9" class="node">
<title>LATS2</title>
<ellipse fill="lightgray" stroke="black" cx="685.75" cy="-90" rx="40.89" ry="18"/>
<text text-anchor="middle" x="685.75" y="-86.3" font-family="Times,serif" font-size="14.00">LATS2</text>
</g>
<!-- PTK2B -->
<g id="node10" class="node">
<title>PTK2B</title>
<ellipse fill="lightgray" stroke="black" cx="786.75" cy="-90" rx="42.49" ry="18"/>
<text text-anchor="middle" x="786.75" y="-86.3" font-family="Times,serif" font-size="14.00">PTK2B</text>
</g>
</g>
</svg>
