<?xml version="1.0" encoding="UTF-8" standalone="no"?>
<!DOCTYPE svg PUBLIC "-//W3C//DTD SVG 1.1//EN"
 "http://www.w3.org/Graphics/SVG/1.1/DTD/svg11.dtd">
<!-- Generated by graphviz version 2.43.0 (0)
 -->
<!-- Title: %3 Pages: 1 -->
<svg width="1463pt" height="1196pt"
 viewBox="0.00 0.00 1463.05 1196.00" xmlns="http://www.w3.org/2000/svg" xmlns:xlink="http://www.w3.org/1999/xlink">
<g id="graph0" class="graph" transform="scale(1 1) rotate(0) translate(4 1192)">
<title>%3</title>
<polygon fill="white" stroke="transparent" points="-4,4 -4,-1192 1459.05,-1192 1459.05,4 -4,4"/>
<!-- SRC -->
<g id="node1" class="node">
<title>SRC</title>
<ellipse fill="lightgray" stroke="black" cx="775" cy="-1170" rx="30.59" ry="18"/>
<text text-anchor="middle" x="775" y="-1166.3" font-family="Times,serif" font-size="14.00">SRC</text>
</g>
<!-- PTK2 -->
<g id="node2" class="node">
<title>PTK2</title>
<ellipse fill="lightgray" stroke="black" cx="1074" cy="-1098" rx="36" ry="18"/>
<text text-anchor="middle" x="1074" y="-1094.3" font-family="Times,serif" font-size="14.00">PTK2</text>
</g>
<!-- SRC&#45;&gt;PTK2 -->
<g id="edge1" class="edge">
<title>SRC&#45;&gt;PTK2</title>
<path fill="none" stroke="green" d="M802.09,-1161.64C854.39,-1148.67 969.04,-1121.81 1031.53,-1107.85"/>
<polygon fill="green" stroke="green" points="1032.46,-1111.23 1041.46,-1105.64 1030.94,-1104.39 1032.46,-1111.23"/>
</g>
<!-- CDH2 -->
<g id="node3" class="node">
<title>CDH2</title>
<ellipse fill="lightgray" stroke="black" cx="292" cy="-1098" rx="38.19" ry="18"/>
<text text-anchor="middle" x="292" y="-1094.3" font-family="Times,serif" font-size="14.00">CDH2</text>
</g>
<!-- SRC&#45;&gt;CDH2 -->
<g id="edge2" class="edge">
<title>SRC&#45;&gt;CDH2</title>
<path fill="none" stroke="red" d="M744.61,-1167.29C673.7,-1162.86 492.09,-1148.99 344,-1116 338.21,-1114.71 332.14,-1113.04 326.28,-1111.24"/>
<polygon fill="red" stroke="red" points="320.88,-1114.78 323.88,-1105.24 325.78,-1105.84 322.79,-1115.38 320.88,-1114.78"/>
<polyline fill="none" stroke="red" points="321.42,-1109.71 326.19,-1111.21 "/>
</g>
<!-- PTK2B -->
<g id="node4" class="node">
<title>PTK2B</title>
<ellipse fill="lightgray" stroke="black" cx="1209" cy="-1026" rx="42.49" ry="18"/>
<text text-anchor="middle" x="1209" y="-1022.3" font-family="Times,serif" font-size="14.00">PTK2B</text>
</g>
<!-- SRC&#45;&gt;PTK2B -->
<g id="edge3" class="edge">
<title>SRC&#45;&gt;PTK2B</title>
<path fill="none" stroke="green" d="M804.99,-1166.38C876.87,-1160.19 1056.09,-1143.14 1110,-1116 1140.5,-1100.65 1167.13,-1071.15 1185.36,-1050.33"/>
<polygon fill="green" stroke="green" points="1188.22,-1052.38 1192.17,-1042.55 1182.95,-1047.77 1188.22,-1052.38"/>
</g>
<!-- DAB1 -->
<g id="node5" class="node">
<title>DAB1</title>
<ellipse fill="lightgray" stroke="black" cx="1418" cy="-954" rx="37.09" ry="18"/>
<text text-anchor="middle" x="1418" y="-950.3" font-family="Times,serif" font-size="14.00">DAB1</text>
</g>
<!-- SRC&#45;&gt;DAB1 -->
<g id="edge5" class="edge">
<title>SRC&#45;&gt;DAB1</title>
<path fill="none" stroke="green" d="M805.76,-1168.22C921.03,-1165.01 1322.95,-1151.38 1367,-1116 1407.47,-1083.5 1416.36,-1018.96 1417.99,-982.23"/>
<polygon fill="green" stroke="green" points="1421.49,-982.33 1418.28,-972.23 1414.49,-982.12 1421.49,-982.33"/>
</g>
<!-- CSK -->
<g id="node7" class="node">
<title>CSK</title>
<ellipse fill="lightgray" stroke="black" cx="1164" cy="-378" rx="30.59" ry="18"/>
<text text-anchor="middle" x="1164" y="-374.3" font-family="Times,serif" font-size="14.00">CSK</text>
</g>
<!-- SRC&#45;&gt;CSK -->
<g id="edge7" class="edge">
<title>SRC&#45;&gt;CSK</title>
<path fill="none" stroke="darkorange" d="M805.66,-1169.91C872.32,-1170.47 1033.55,-1165.66 1157,-1116 1219.27,-1090.95 1279,-1094.12 1279,-1027 1279,-1027 1279,-1027 1279,-521 1279,-466.02 1225.61,-422.05 1191.43,-398.32"/>
<polygon fill="darkorange" stroke="darkorange" points="1180.54,-395.75 1185.03,-389.13 1191.65,-393.63 1187.16,-400.25 1180.54,-395.75"/>
<polyline fill="none" stroke="darkorange" points="1189.4,-396.94 1191.06,-398.06 "/>
</g>
<!-- CTNNB1 -->
<g id="node8" class="node">
<title>CTNNB1</title>
<ellipse fill="lightgray" stroke="black" cx="196" cy="-234" rx="51.99" ry="18"/>
<text text-anchor="middle" x="196" y="-230.3" font-family="Times,serif" font-size="14.00">CTNNB1</text>
</g>
<!-- SRC&#45;&gt;CTNNB1 -->
<g id="edge9" class="edge">
<title>SRC&#45;&gt;CTNNB1</title>
<path fill="none" stroke="darkorange" d="M744.42,-1168.07C617.4,-1164.04 135.21,-1146.82 75,-1116 28.95,-1092.43 0,-1078.73 0,-1027 0,-1027 0,-1027 0,-377 0,-330.73 18.36,-317.5 54,-288 79.21,-267.14 113.43,-254.04 141.96,-246.08"/>
<polygon fill="darkorange" stroke="darkorange" points="150.76,-239.61 152.81,-247.35 145.08,-249.39 143.03,-241.66 150.76,-239.61"/>
<polyline fill="none" stroke="darkorange" points="144.05,-245.53 142.12,-246.04 "/>
</g>
<!-- CDH1 -->
<g id="node9" class="node">
<title>CDH1</title>
<ellipse fill="lightgray" stroke="black" cx="292" cy="-738" rx="38.19" ry="18"/>
<text text-anchor="middle" x="292" y="-734.3" font-family="Times,serif" font-size="14.00">CDH1</text>
</g>
<!-- SRC&#45;&gt;CDH1 -->
<g id="edge12" class="edge">
<title>SRC&#45;&gt;CDH1</title>
<path fill="none" stroke="green" d="M744.35,-1167.84C701.14,-1164.83 621.53,-1154.09 567,-1116 519.3,-1082.68 528.36,-1054.21 493,-1008 454.68,-957.92 439.47,-949.96 401,-900 377.23,-869.13 372.88,-860.24 351,-828 336.46,-806.58 320.23,-782.04 308.47,-764.16"/>
<polygon fill="green" stroke="green" points="311.18,-761.91 302.77,-755.47 305.33,-765.75 311.18,-761.91"/>
</g>
<!-- ITGB7 -->
<g id="node10" class="node">
<title>ITGB7</title>
<ellipse fill="lightgray" stroke="black" cx="1220" cy="-306" rx="40.09" ry="18"/>
<text text-anchor="middle" x="1220" y="-302.3" font-family="Times,serif" font-size="14.00">ITGB7</text>
</g>
<!-- SRC&#45;&gt;ITGB7 -->
<g id="edge22" class="edge">
<title>SRC&#45;&gt;ITGB7</title>
<path fill="none" stroke="green" d="M805.4,-1167.62C894.36,-1163.46 1151.7,-1149.25 1229,-1116 1285.51,-1091.69 1335,-1088.52 1335,-1027 1335,-1027 1335,-1027 1335,-449 1335,-394.69 1282.9,-351.12 1248.69,-327.19"/>
<polygon fill="green" stroke="green" points="1250.66,-324.29 1240.43,-321.54 1246.7,-330.07 1250.66,-324.29"/>
</g>
<!-- ABL1 -->
<g id="node12" class="node">
<title>ABL1</title>
<ellipse fill="lightgray" stroke="black" cx="775" cy="-954" rx="36" ry="18"/>
<text text-anchor="middle" x="775" y="-950.3" font-family="Times,serif" font-size="14.00">ABL1</text>
</g>
<!-- SRC&#45;&gt;ABL1 -->
<g id="edge30" class="edge">
<title>SRC&#45;&gt;ABL1</title>
<path fill="none" stroke="green" d="M771.12,-1151.85C767.58,-1114.74 767.31,-1026.75 770.33,-982.05"/>
<polygon fill="green" stroke="green" points="773.83,-982.18 771.14,-971.94 766.85,-981.62 773.83,-982.18"/>
</g>
<!-- PRKCA -->
<g id="node14" class="node">
<title>PRKCA</title>
<ellipse fill="lightgray" stroke="black" cx="955" cy="-1026" rx="44.39" ry="18"/>
<text text-anchor="middle" x="955" y="-1022.3" font-family="Times,serif" font-size="14.00">PRKCA</text>
</g>
<!-- SRC&#45;&gt;PRKCA -->
<g id="edge34" class="edge">
<title>SRC&#45;&gt;PRKCA</title>
<path fill="none" stroke="green" d="M795.7,-1156.57C814.37,-1146.99 841.63,-1132.59 863,-1116 888.08,-1096.53 912.32,-1069.24 929.88,-1050.03"/>
<polygon fill="green" stroke="green" points="932.54,-1052.32 936.75,-1042.59 927.39,-1047.57 932.54,-1052.32"/>
</g>
<!-- PRKACA -->
<g id="node15" class="node">
<title>PRKACA</title>
<ellipse fill="lightgray" stroke="black" cx="417" cy="-450" rx="50.09" ry="18"/>
<text text-anchor="middle" x="417" y="-446.3" font-family="Times,serif" font-size="14.00">PRKACA</text>
</g>
<!-- SRC&#45;&gt;PRKACA -->
<g id="edge40" class="edge">
<title>SRC&#45;&gt;PRKACA</title>
<path fill="none" stroke="green" d="M744.13,-1169.43C637.76,-1170.54 289.08,-1170.33 195,-1116 153.03,-1091.77 132,-1075.46 132,-1027 132,-1027 132,-1027 132,-881 132,-734.5 160.52,-686.24 257,-576 294.19,-533.51 346.61,-493.58 381.34,-470.75"/>
<polygon fill="green" stroke="green" points="383.26,-473.68 389.77,-465.32 379.47,-467.79 383.26,-473.68"/>
</g>
<!-- AKT1 -->
<g id="node16" class="node">
<title>AKT1</title>
<ellipse fill="lightgray" stroke="black" cx="410" cy="-522" rx="36" ry="18"/>
<text text-anchor="middle" x="410" y="-518.3" font-family="Times,serif" font-size="14.00">AKT1</text>
</g>
<!-- SRC&#45;&gt;AKT1 -->
<g id="edge42" class="edge">
<title>SRC&#45;&gt;AKT1</title>
<path fill="none" stroke="green" d="M744.14,-1169.56C642.25,-1171.04 319.49,-1171.65 236,-1116 198.6,-1091.07 188,-1071.94 188,-1027 188,-1027 188,-1027 188,-881 188,-737.92 194.17,-681.34 291,-576 311.07,-554.16 342.07,-540.36 367.51,-532.34"/>
<polygon fill="green" stroke="green" points="368.72,-535.63 377.32,-529.44 366.74,-528.92 368.72,-535.63"/>
</g>
<!-- PAK2 -->
<g id="node17" class="node">
<title>PAK2</title>
<ellipse fill="lightgray" stroke="black" cx="877" cy="-882" rx="36" ry="18"/>
<text text-anchor="middle" x="877" y="-878.3" font-family="Times,serif" font-size="14.00">PAK2</text>
</g>
<!-- SRC&#45;&gt;PAK2 -->
<g id="edge44" class="edge">
<title>SRC&#45;&gt;PAK2</title>
<path fill="none" stroke="green" d="M782.61,-1152.44C787.27,-1142.06 793.23,-1128.35 798,-1116 826.47,-1042.18 855.1,-953.21 868.75,-909.65"/>
<polygon fill="green" stroke="green" points="872.18,-910.43 871.82,-899.84 865.5,-908.34 872.18,-910.43"/>
</g>
<!-- STAT3 -->
<g id="node24" class="node">
<title>STAT3</title>
<ellipse fill="lightgray" stroke="black" cx="768" cy="-522" rx="40.09" ry="18"/>
<text text-anchor="middle" x="768" y="-518.3" font-family="Times,serif" font-size="14.00">STAT3</text>
</g>
<!-- SRC&#45;&gt;STAT3 -->
<g id="edge64" class="edge">
<title>SRC&#45;&gt;STAT3</title>
<path fill="none" stroke="green" d="M745.3,-1165.7C649.81,-1153.61 358,-1108.19 358,-1027 358,-1027 358,-1027 358,-809 358,-679.22 424.48,-645.62 534,-576 564.01,-556.92 660.33,-538.85 719.73,-529.54"/>
<polygon fill="green" stroke="green" points="720.3,-533 729.65,-528.02 719.23,-526.08 720.3,-533"/>
</g>
<!-- PRKCD -->
<g id="node26" class="node">
<title>PRKCD</title>
<ellipse fill="lightgray" stroke="black" cx="455" cy="-882" rx="44.69" ry="18"/>
<text text-anchor="middle" x="455" y="-878.3" font-family="Times,serif" font-size="14.00">PRKCD</text>
</g>
<!-- SRC&#45;&gt;PRKCD -->
<g id="edge74" class="edge">
<title>SRC&#45;&gt;PRKCD</title>
<path fill="none" stroke="green" d="M744.46,-1167.56C703.37,-1164.2 630.67,-1153.04 583,-1116 578.33,-1112.37 495.92,-969.72 465.62,-909.45"/>
<polygon fill="green" stroke="green" points="468.62,-907.62 461.06,-900.19 462.33,-910.71 468.62,-907.62"/>
</g>
<!-- PTK2&#45;&gt;SRC -->
<g id="edge11" class="edge">
<title>PTK2&#45;&gt;SRC</title>
<path fill="none" stroke="green" d="M1043.29,-1107.25C988.23,-1120.84 873.3,-1147.74 813.23,-1161.09"/>
<polygon fill="green" stroke="green" points="812.39,-1157.7 803.38,-1163.27 813.9,-1164.53 812.39,-1157.7"/>
</g>
<!-- PTK2&#45;&gt;PTK2B -->
<g id="edge15" class="edge">
<title>PTK2&#45;&gt;PTK2B</title>
<path fill="none" stroke="green" d="M1094.87,-1083.34C1115.22,-1071.98 1146.36,-1055.77 1171.04,-1043.65"/>
<polygon fill="green" stroke="green" points="1172.69,-1046.74 1180.15,-1039.22 1169.63,-1040.45 1172.69,-1046.74"/>
</g>
<!-- PTK2&#45;&gt;CSK -->
<g id="edge16" class="edge">
<title>PTK2&#45;&gt;CSK</title>
<path fill="none" stroke="green" d="M1072.58,-1079.86C1076.1,-1061.64 1086.27,-1032.17 1098,-1008 1125.71,-950.91 1167,-946.46 1167,-883 1167,-883 1167,-883 1167,-521 1167,-480.85 1162.18,-434.55 1160.94,-406.02"/>
<polygon fill="green" stroke="green" points="1164.44,-405.91 1160.66,-396.01 1157.44,-406.1 1164.44,-405.91"/>
</g>
<!-- PTK2&#45;&gt;ITGB7 -->
<g id="edge23" class="edge">
<title>PTK2&#45;&gt;ITGB7</title>
<path fill="none" stroke="green" d="M1085.67,-1080.84C1121.19,-1039.62 1223,-930.45 1223,-883 1223,-883 1223,-883 1223,-449 1223,-408.85 1218.18,-362.55 1216.94,-334.02"/>
<polygon fill="green" stroke="green" points="1220.44,-333.91 1216.66,-324.01 1213.44,-334.1 1220.44,-333.91"/>
</g>
<!-- PTK2&#45;&gt;PRKCA -->
<g id="edge35" class="edge">
<title>PTK2&#45;&gt;PRKCA</title>
<path fill="none" stroke="green" d="M1048.6,-1085.13C1029.48,-1074.84 1003.48,-1059.74 983.65,-1047.5"/>
<polygon fill="green" stroke="green" points="985.36,-1044.44 975.02,-1042.11 981.65,-1050.38 985.36,-1044.44"/>
</g>
<!-- CDH2&#45;&gt;CTNNB1 -->
<g id="edge19" class="edge">
<title>CDH2&#45;&gt;CTNNB1</title>
<path fill="none" stroke="green" d="M274.54,-1081.79C217.16,-1030.01 38,-853.41 38,-667 38,-667 38,-667 38,-377 38,-315.07 105.99,-273.28 152.77,-251.86"/>
<polygon fill="green" stroke="green" points="154.38,-254.98 162.11,-247.73 151.54,-248.58 154.38,-254.98"/>
</g>
<!-- CDON -->
<g id="node11" class="node">
<title>CDON</title>
<ellipse fill="lightgray" stroke="black" cx="444" cy="-1026" rx="40.09" ry="18"/>
<text text-anchor="middle" x="444" y="-1022.3" font-family="Times,serif" font-size="14.00">CDON</text>
</g>
<!-- CDH2&#45;&gt;CDON -->
<g id="edge27" class="edge">
<title>CDH2&#45;&gt;CDON</title>
<path fill="none" stroke="green" d="M318.48,-1084.81C343.2,-1073.42 380.32,-1056.33 407.79,-1043.68"/>
<polygon fill="green" stroke="green" points="409.44,-1046.77 417.06,-1039.41 406.51,-1040.41 409.44,-1046.77"/>
</g>
<!-- PTK2B&#45;&gt;SRC -->
<g id="edge13" class="edge">
<title>PTK2B&#45;&gt;SRC</title>
<path fill="none" stroke="green" d="M1203.46,-1043.97C1190.78,-1064.67 1161.76,-1099.01 1128,-1116 1074.34,-1143.01 896.53,-1160.03 815.57,-1166.29"/>
<polygon fill="green" stroke="green" points="814.98,-1162.83 805.27,-1167.07 815.5,-1169.81 814.98,-1162.83"/>
</g>
<!-- PTK2B&#45;&gt;PTK2 -->
<g id="edge4" class="edge">
<title>PTK2B&#45;&gt;PTK2</title>
<path fill="none" stroke="green" d="M1186.86,-1041.37C1165.89,-1053.03 1134.32,-1069.43 1109.81,-1081.4"/>
<polygon fill="green" stroke="green" points="1108.29,-1078.25 1100.8,-1085.75 1111.33,-1084.55 1108.29,-1078.25"/>
</g>
<!-- NOTCH1 -->
<g id="node6" class="node">
<title>NOTCH1</title>
<ellipse fill="lightgray" stroke="black" cx="774" cy="-90" rx="51.99" ry="18"/>
<text text-anchor="middle" x="774" y="-86.3" font-family="Times,serif" font-size="14.00">NOTCH1</text>
</g>
<!-- DAB1&#45;&gt;NOTCH1 -->
<g id="edge6" class="edge">
<title>DAB1&#45;&gt;NOTCH1</title>
<path fill="none" stroke="green" d="M1415.23,-936C1411.15,-909.42 1404,-856.33 1404,-811 1404,-811 1404,-811 1404,-233 1404,-117.32 994.7,-95.87 835.91,-91.9"/>
<polygon fill="green" stroke="green" points="835.9,-88.4 825.82,-91.66 835.74,-95.4 835.9,-88.4"/>
</g>
<!-- HIF1A -->
<g id="node28" class="node">
<title>HIF1A</title>
<ellipse fill="lightgray" stroke="black" cx="1093" cy="-18" rx="40.09" ry="18"/>
<text text-anchor="middle" x="1093" y="-14.3" font-family="Times,serif" font-size="14.00">HIF1A</text>
</g>
<!-- NOTCH1&#45;&gt;HIF1A -->
<g id="edge87" class="edge">
<title>NOTCH1&#45;&gt;HIF1A</title>
<path fill="none" stroke="green" d="M816.69,-79.63C876.84,-66.43 986.04,-42.47 1047.62,-28.96"/>
<polygon fill="green" stroke="green" points="1048.42,-32.37 1057.44,-26.8 1046.92,-25.53 1048.42,-32.37"/>
</g>
<!-- CSK&#45;&gt;SRC -->
<g id="edge14" class="edge">
<title>CSK&#45;&gt;SRC</title>
<path fill="none" stroke="darkorange" d="M1188.28,-389.25C1226.89,-409.45 1297,-458 1297,-521 1297,-1027 1297,-1027 1297,-1027 1297,-1094.12 1237.27,-1090.95 1175,-1116 1051.73,-1165.59 890.8,-1170.46 816.13,-1169.91"/>
<polygon fill="darkorange" stroke="darkorange" points="805.7,-1173.79 805.79,-1165.79 813.79,-1165.88 813.7,-1173.88 805.7,-1173.79"/>
<polyline fill="none" stroke="darkorange" points="813.75,-1169.88 815.75,-1169.9 "/>
</g>
<!-- CSK&#45;&gt;PTK2 -->
<g id="edge17" class="edge">
<title>CSK&#45;&gt;PTK2</title>
<path fill="none" stroke="green" d="M1171.97,-395.58C1178.8,-422.04 1185,-475.48 1185,-521 1185,-883 1185,-883 1185,-883 1185,-946.46 1143.71,-950.91 1116,-1008 1105.92,-1028.77 1096.99,-1053.45 1089.5,-1071.55"/>
<polygon fill="green" stroke="green" points="1086.23,-1070.29 1085.49,-1080.86 1092.66,-1073.06 1086.23,-1070.29"/>
</g>
<!-- CSK&#45;&gt;NOTCH1 -->
<g id="edge8" class="edge">
<title>CSK&#45;&gt;NOTCH1</title>
<path fill="none" stroke="green" d="M1145.45,-363.4C1083.07,-317.65 880.45,-169.06 803.77,-112.83"/>
<polygon fill="green" stroke="green" points="805.62,-109.84 795.48,-106.75 801.48,-115.49 805.62,-109.84"/>
</g>
<!-- CSK&#45;&gt;ITGB7 -->
<g id="edge25" class="edge">
<title>CSK&#45;&gt;ITGB7</title>
<path fill="none" stroke="green" d="M1171.43,-360.41C1177.69,-351.35 1186.6,-339.99 1195.15,-330.08"/>
<polygon fill="green" stroke="green" points="1197.85,-332.31 1201.87,-322.51 1192.61,-327.66 1197.85,-332.31"/>
</g>
<!-- CSK&#45;&gt;PRKACA -->
<g id="edge50" class="edge">
<title>CSK&#45;&gt;PRKACA</title>
<path fill="none" stroke="green" d="M1135.26,-384.38C1111.53,-387.99 1077.28,-392.67 1047,-396 837.88,-419.02 588.2,-437.64 476.25,-445.27"/>
<polygon fill="green" stroke="green" points="475.92,-441.79 466.18,-445.95 476.39,-448.77 475.92,-441.79"/>
</g>
<!-- ITCH -->
<g id="node34" class="node">
<title>ITCH</title>
<ellipse fill="lightgray" stroke="black" cx="774" cy="-234" rx="34.39" ry="18"/>
<text text-anchor="middle" x="774" y="-230.3" font-family="Times,serif" font-size="14.00">ITCH</text>
</g>
<!-- CSK&#45;&gt;ITCH -->
<g id="edge107" class="edge">
<title>CSK&#45;&gt;ITCH</title>
<path fill="none" stroke="red" d="M1138.71,-367.79C1070.42,-342.93 882.29,-274.43 806.39,-246.79"/>
<polygon fill="red" stroke="red" points="800.78,-250.07 804.2,-240.68 806.08,-241.36 802.66,-250.76 800.78,-250.07"/>
<polyline fill="none" stroke="red" points="801.55,-245.03 806.25,-246.74 "/>
</g>
<!-- CTNNB1&#45;&gt;NOTCH1 -->
<g id="edge10" class="edge">
<title>CTNNB1&#45;&gt;NOTCH1</title>
<path fill="none" stroke="green" d="M237.1,-222.9C340.25,-197.56 609.84,-131.33 722.92,-103.55"/>
<polygon fill="green" stroke="green" points="723.84,-106.93 732.72,-101.14 722.17,-100.13 723.84,-106.93"/>
</g>
<!-- CDH1&#45;&gt;CTNNB1 -->
<g id="edge18" class="edge">
<title>CDH1&#45;&gt;CTNNB1</title>
<path fill="none" stroke="darkorange" d="M288.75,-720.01C274.64,-646.2 218.56,-352.99 201.17,-262.05"/>
<polygon fill="darkorange" stroke="darkorange" points="195.32,-252.74 203.18,-251.23 204.68,-259.09 196.82,-260.59 195.32,-252.74"/>
<polyline fill="none" stroke="darkorange" points="200.75,-259.84 201.13,-261.81 "/>
</g>
<!-- CDH1&#45;&gt;ITGB7 -->
<g id="edge20" class="edge">
<title>CDH1&#45;&gt;ITGB7</title>
<path fill="none" stroke="green" d="M290.31,-719.85C288.11,-687.3 288.28,-616.21 326,-576 366.72,-532.58 398.65,-559.19 455,-540 667.53,-467.62 709.94,-417.36 927,-360 1011.86,-337.57 1113.06,-321.58 1171.58,-313.35"/>
<polygon fill="green" stroke="green" points="1172.22,-316.8 1181.65,-311.95 1171.26,-309.86 1172.22,-316.8"/>
</g>
<!-- ITGB7&#45;&gt;SRC -->
<g id="edge21" class="edge">
<title>ITGB7&#45;&gt;SRC</title>
<path fill="none" stroke="green" d="M1247.98,-319.22C1287.19,-340.49 1353,-387.96 1353,-449 1353,-1027 1353,-1027 1353,-1027 1353,-1088.52 1303.51,-1091.69 1247,-1116 1170.19,-1149.04 915.61,-1163.28 815.64,-1167.54"/>
<polygon fill="green" stroke="green" points="815.47,-1164.04 805.62,-1167.95 815.76,-1171.03 815.47,-1164.04"/>
</g>
<!-- ITGB7&#45;&gt;PTK2 -->
<g id="edge24" class="edge">
<title>ITGB7&#45;&gt;PTK2</title>
<path fill="none" stroke="green" d="M1228.08,-324.01C1234.87,-350.62 1241,-403.72 1241,-449 1241,-883 1241,-883 1241,-883 1241,-928.5 1147.41,-1030.73 1100.18,-1075.41"/>
<polygon fill="green" stroke="green" points="1097.7,-1072.94 1092.75,-1082.32 1102.46,-1078.07 1097.7,-1072.94"/>
</g>
<!-- ITGB7&#45;&gt;CSK -->
<g id="edge26" class="edge">
<title>ITGB7&#45;&gt;CSK</title>
<path fill="none" stroke="green" d="M1212.38,-323.86C1205.86,-333.26 1196.56,-345.08 1187.76,-355.18"/>
<polygon fill="green" stroke="green" points="1184.96,-353.06 1180.88,-362.83 1190.17,-357.74 1184.96,-353.06"/>
</g>
<!-- CDON&#45;&gt;ABL1 -->
<g id="edge28" class="edge">
<title>CDON&#45;&gt;ABL1</title>
<path fill="none" stroke="green" d="M479.74,-1017.44C541.15,-1004.46 666.43,-977.96 732.32,-964.03"/>
<polygon fill="green" stroke="green" points="733.3,-967.4 742.36,-961.9 731.86,-960.55 733.3,-967.4"/>
</g>
<!-- ABL1&#45;&gt;SRC -->
<g id="edge29" class="edge">
<title>ABL1&#45;&gt;SRC</title>
<path fill="none" stroke="green" d="M778.86,-971.94C782.41,-1008.85 782.69,-1096.83 779.69,-1141.69"/>
<polygon fill="green" stroke="green" points="776.18,-1141.6 778.88,-1151.85 783.16,-1142.16 776.18,-1141.6"/>
</g>
<!-- ABL1&#45;&gt;CTNNB1 -->
<g id="edge31" class="edge">
<title>ABL1&#45;&gt;CTNNB1</title>
<path fill="none" stroke="darkorange" d="M752.43,-940C717.11,-919.05 647.58,-875.36 597,-828 477.01,-715.67 456.73,-676.39 365,-540 347.46,-513.91 247.11,-329.34 209.89,-260.66"/>
<polygon fill="darkorange" stroke="darkorange" points="201.55,-253.67 208.59,-249.86 212.4,-256.9 205.36,-260.71 201.55,-253.67"/>
<polyline fill="none" stroke="darkorange" points="208.88,-258.8 209.83,-260.56 "/>
</g>
<!-- ABL1&#45;&gt;PRKCA -->
<g id="edge38" class="edge">
<title>ABL1&#45;&gt;PRKCA</title>
<path fill="none" stroke="green" d="M804.11,-964.46C835.01,-975.63 883.68,-994.42 917.43,-1008.1"/>
<polygon fill="green" stroke="green" points="916.37,-1011.45 926.95,-1012 919.02,-1004.97 916.37,-1011.45"/>
</g>
<!-- ABL1&#45;&gt;PAK2 -->
<g id="edge54" class="edge">
<title>ABL1&#45;&gt;PAK2</title>
<path fill="none" stroke="red" d="M791.45,-937.81C807,-926.17 830.3,-910.17 848.75,-898.47"/>
<polygon fill="red" stroke="red" points="849.83,-891.89 855.15,-900.35 853.45,-901.42 848.13,-892.95 849.83,-891.89"/>
<polyline fill="none" stroke="red" points="853.33,-895.59 849.1,-898.25 "/>
</g>
<!-- MAP3K1 -->
<g id="node23" class="node">
<title>MAP3K1</title>
<ellipse fill="lightgray" stroke="black" cx="748" cy="-666" rx="51.19" ry="18"/>
<text text-anchor="middle" x="748" y="-662.3" font-family="Times,serif" font-size="14.00">MAP3K1</text>
</g>
<!-- ABL1&#45;&gt;MAP3K1 -->
<g id="edge65" class="edge">
<title>ABL1&#45;&gt;MAP3K1</title>
<path fill="none" stroke="green" d="M769.57,-936C766.51,-925.7 762.93,-912.22 761,-900 749.32,-826.22 747.72,-737.86 747.74,-694.19"/>
<polygon fill="green" stroke="green" points="751.24,-694.09 747.78,-684.08 744.24,-694.07 751.24,-694.09"/>
</g>
<!-- ABL1&#45;&gt;STAT3 -->
<g id="edge66" class="edge">
<title>ABL1&#45;&gt;STAT3</title>
<path fill="none" stroke="green" d="M780.16,-936.03C793.54,-889.63 827.05,-756.86 808,-648 805.07,-631.24 800.36,-628.14 795,-612 788.11,-591.25 780.95,-567.55 775.74,-549.82"/>
<polygon fill="green" stroke="green" points="779.08,-548.76 772.91,-540.15 772.36,-550.73 779.08,-548.76"/>
</g>
<!-- ABL1&#45;&gt;PRKCD -->
<g id="edge80" class="edge">
<title>ABL1&#45;&gt;PRKCD</title>
<path fill="none" stroke="green" d="M741.85,-947.15C692.1,-938.17 595.28,-919.93 514,-900 509.33,-898.85 504.47,-897.58 499.64,-896.27"/>
<polygon fill="green" stroke="green" points="500.39,-892.85 489.82,-893.53 498.51,-899.59 500.39,-892.85"/>
</g>
<!-- YAP1 -->
<g id="node33" class="node">
<title>YAP1</title>
<ellipse fill="lightgray" stroke="black" cx="607" cy="-306" rx="35.19" ry="18"/>
<text text-anchor="middle" x="607" y="-302.3" font-family="Times,serif" font-size="14.00">YAP1</text>
</g>
<!-- ABL1&#45;&gt;YAP1 -->
<g id="edge108" class="edge">
<title>ABL1&#45;&gt;YAP1</title>
<path fill="none" stroke="green" d="M785.47,-936.61C816.04,-887.17 903,-734.27 903,-595 903,-595 903,-595 903,-449 903,-339.14 735.19,-314.21 652.27,-308.6"/>
<polygon fill="green" stroke="green" points="652.31,-305.1 642.12,-307.98 651.89,-312.09 652.31,-305.1"/>
</g>
<!-- VIM -->
<g id="node13" class="node">
<title>VIM</title>
<ellipse fill="lightgray" stroke="black" cx="999" cy="-378" rx="29.8" ry="18"/>
<text text-anchor="middle" x="999" y="-374.3" font-family="Times,serif" font-size="14.00">VIM</text>
</g>
<!-- VIM&#45;&gt;PRKCA -->
<g id="edge32" class="edge">
<title>VIM&#45;&gt;PRKCA</title>
<path fill="none" stroke="green" d="M1018.88,-391.89C1044.15,-412.85 1085.35,-456.75 1101,-504 1143.64,-632.75 1091,-673.37 1091,-809 1091,-883 1091,-883 1091,-883 1091,-939.88 1033.68,-984.43 993.32,-1007.54"/>
<polygon fill="green" stroke="green" points="991.56,-1004.52 984.49,-1012.41 994.94,-1010.65 991.56,-1004.52"/>
</g>
<!-- PRKCA&#45;&gt;SRC -->
<g id="edge33" class="edge">
<title>PRKCA&#45;&gt;SRC</title>
<path fill="none" stroke="darkorange" d="M948.49,-1043.95C935.7,-1063.08 908.87,-1094.36 881,-1116 859.61,-1132.61 832.33,-1147.01 810.64,-1156.59"/>
<polygon fill="darkorange" stroke="darkorange" points="802.98,-1164.2 799.85,-1156.84 807.21,-1153.71 810.34,-1161.07 802.98,-1164.2"/>
<polyline fill="none" stroke="darkorange" points="808.78,-1157.39 810.62,-1156.6 "/>
</g>
<!-- PRKCA&#45;&gt;PTK2 -->
<g id="edge36" class="edge">
<title>PRKCA&#45;&gt;PTK2</title>
<path fill="none" stroke="green" d="M982.73,-1040.13C1002.01,-1050.59 1027.41,-1065.39 1046.6,-1077.27"/>
<polygon fill="green" stroke="green" points="1044.87,-1080.32 1055.2,-1082.67 1048.59,-1074.39 1044.87,-1080.32"/>
</g>
<!-- PRKCA&#45;&gt;ABL1 -->
<g id="edge39" class="edge">
<title>PRKCA&#45;&gt;ABL1</title>
<path fill="none" stroke="green" d="M921.81,-1014.06C889.98,-1002.46 842.33,-984.01 809.94,-970.83"/>
<polygon fill="green" stroke="green" points="810.99,-967.47 800.41,-966.91 808.33,-973.95 810.99,-967.47"/>
</g>
<!-- PRKCA&#45;&gt;VIM -->
<g id="edge37" class="edge">
<title>PRKCA&#45;&gt;VIM</title>
<path fill="none" stroke="darkorange" d="M976.63,-1010.26C1010.91,-988.04 1073,-942.2 1073,-883 1073,-883 1073,-883 1073,-809 1073,-673.37 1125.64,-632.75 1083,-504 1069.61,-463.57 1037.52,-425.59 1016.88,-402.34"/>
<polygon fill="darkorange" stroke="darkorange" points="1007.12,-397.41 1013.09,-392.09 1018.42,-398.06 1012.45,-403.38 1007.12,-397.41"/>
<polyline fill="none" stroke="darkorange" points="1015.44,-400.72 1016.77,-402.21 "/>
</g>
<!-- PRKCA&#45;&gt;STAT3 -->
<g id="edge67" class="edge">
<title>PRKCA&#45;&gt;STAT3</title>
<path fill="none" stroke="green" d="M955.91,-1007.81C962.32,-981.4 979,-929.06 979,-883 979,-883 979,-883 979,-809 979,-687.74 853.23,-586.35 795.77,-544.1"/>
<polygon fill="green" stroke="green" points="797.63,-541.13 787.48,-538.07 793.51,-546.78 797.63,-541.13"/>
</g>
<!-- PEBP1 -->
<g id="node25" class="node">
<title>PEBP1</title>
<ellipse fill="lightgray" stroke="black" cx="649" cy="-810" rx="42.79" ry="18"/>
<text text-anchor="middle" x="649" y="-806.3" font-family="Times,serif" font-size="14.00">PEBP1</text>
</g>
<!-- PRKCA&#45;&gt;PEBP1 -->
<g id="edge72" class="edge">
<title>PRKCA&#45;&gt;PEBP1</title>
<path fill="none" stroke="green" d="M957.08,-1007.84C960.02,-974.95 961.24,-902.84 922,-864 891.46,-833.78 771.41,-819.96 701.09,-814.34"/>
<polygon fill="green" stroke="green" points="701.33,-810.85 691.09,-813.58 700.79,-817.83 701.33,-810.85"/>
</g>
<!-- TP53 -->
<g id="node29" class="node">
<title>TP53</title>
<ellipse fill="lightgray" stroke="black" cx="1049" cy="-522" rx="34.39" ry="18"/>
<text text-anchor="middle" x="1049" y="-518.3" font-family="Times,serif" font-size="14.00">TP53</text>
</g>
<!-- PRKCA&#45;&gt;TP53 -->
<g id="edge91" class="edge">
<title>PRKCA&#45;&gt;TP53</title>
<path fill="none" stroke="green" d="M975.86,-1009.98C987.78,-1000.38 1002.08,-986.94 1011,-972 1032,-936.82 1035,-923.97 1035,-883 1035,-883 1035,-883 1035,-665 1035,-624.8 1040.62,-578.51 1044.74,-550"/>
<polygon fill="green" stroke="green" points="1048.22,-550.4 1046.23,-540 1041.3,-549.37 1048.22,-550.4"/>
</g>
<!-- PRKACA&#45;&gt;SRC -->
<g id="edge46" class="edge">
<title>PRKACA&#45;&gt;SRC</title>
<path fill="none" stroke="green" d="M399.12,-467.16C370.38,-489.23 314.22,-531.18 275,-576 178.52,-686.24 150,-734.5 150,-881 150,-1027 150,-1027 150,-1027 150,-1075.46 171.03,-1091.77 213,-1116 302.25,-1167.54 620.61,-1170.38 734.36,-1169.58"/>
<polygon fill="green" stroke="green" points="734.43,-1173.08 744.4,-1169.5 734.37,-1166.08 734.43,-1173.08"/>
</g>
<!-- PRKACA&#45;&gt;CSK -->
<g id="edge51" class="edge">
<title>PRKACA&#45;&gt;CSK</title>
<path fill="none" stroke="green" d="M465.63,-445.31C569.38,-437.7 819.54,-419.05 1029,-396 1060.77,-392.5 1096.9,-387.52 1123.93,-383.86"/>
<polygon fill="green" stroke="green" points="1124.74,-387.28 1134.19,-382.47 1123.81,-380.34 1124.74,-387.28"/>
</g>
<!-- PRKACA&#45;&gt;CTNNB1 -->
<g id="edge52" class="edge">
<title>PRKACA&#45;&gt;CTNNB1</title>
<path fill="none" stroke="green" d="M400.39,-432.92C361.67,-395.43 265.3,-302.11 220.11,-258.35"/>
<polygon fill="green" stroke="green" points="222.42,-255.71 212.8,-251.27 217.55,-260.74 222.42,-255.71"/>
</g>
<!-- PRKACA&#45;&gt;VIM -->
<g id="edge41" class="edge">
<title>PRKACA&#45;&gt;VIM</title>
<path fill="none" stroke="red" d="M463.64,-443.39C577.06,-429.75 865.26,-395.09 964.67,-383.13"/>
<polygon fill="red" stroke="red" points="968.23,-377.66 969.43,-387.59 967.44,-387.83 966.25,-377.9 968.23,-377.66"/>
<polyline fill="none" stroke="red" points="969.82,-382.51 964.86,-383.11 "/>
</g>
<!-- LATS1 -->
<g id="node18" class="node">
<title>LATS1</title>
<ellipse fill="lightgray" stroke="black" cx="517" cy="-378" rx="40.89" ry="18"/>
<text text-anchor="middle" x="517" y="-374.3" font-family="Times,serif" font-size="14.00">LATS1</text>
</g>
<!-- PRKACA&#45;&gt;LATS1 -->
<g id="edge48" class="edge">
<title>PRKACA&#45;&gt;LATS1</title>
<path fill="none" stroke="green" d="M439.19,-433.46C453.56,-423.41 472.43,-410.2 487.98,-399.31"/>
<polygon fill="green" stroke="green" points="490.05,-402.14 496.23,-393.54 486.03,-396.4 490.05,-402.14"/>
</g>
<!-- LATS2 -->
<g id="node19" class="node">
<title>LATS2</title>
<ellipse fill="lightgray" stroke="black" cx="417" cy="-378" rx="40.89" ry="18"/>
<text text-anchor="middle" x="417" y="-374.3" font-family="Times,serif" font-size="14.00">LATS2</text>
</g>
<!-- PRKACA&#45;&gt;LATS2 -->
<g id="edge49" class="edge">
<title>PRKACA&#45;&gt;LATS2</title>
<path fill="none" stroke="green" d="M417,-431.7C417,-423.98 417,-414.71 417,-406.11"/>
<polygon fill="green" stroke="green" points="420.5,-406.1 417,-396.1 413.5,-406.1 420.5,-406.1"/>
</g>
<!-- AKT1&#45;&gt;SRC -->
<g id="edge47" class="edge">
<title>AKT1&#45;&gt;SRC</title>
<path fill="none" stroke="green" d="M381.15,-532.85C358.77,-540.94 328.65,-554.62 309,-576 212.17,-681.34 206,-737.92 206,-881 206,-1027 206,-1027 206,-1027 206,-1071.94 216.6,-1091.07 254,-1116 332.84,-1168.55 625.08,-1170.93 733.93,-1169.79"/>
<polygon fill="green" stroke="green" points="734.22,-1173.29 744.18,-1169.66 734.14,-1166.29 734.22,-1173.29"/>
</g>
<!-- AKT1&#45;&gt;CTNNB1 -->
<g id="edge53" class="edge">
<title>AKT1&#45;&gt;CTNNB1</title>
<path fill="none" stroke="green" d="M380.28,-511.52C355.96,-502.8 321.53,-488.15 296,-468 231.93,-417.43 208.82,-401.1 182,-324 174.92,-303.65 179.51,-279.44 185.26,-261.41"/>
<polygon fill="green" stroke="green" points="188.61,-262.43 188.61,-251.83 182.01,-260.12 188.61,-262.43"/>
</g>
<!-- AKT1&#45;&gt;VIM -->
<g id="edge43" class="edge">
<title>AKT1&#45;&gt;VIM</title>
<path fill="none" stroke="green" d="M441.67,-513.37C542.25,-489.12 854.13,-413.93 961.91,-387.94"/>
<polygon fill="green" stroke="green" points="962.79,-391.33 971.69,-385.58 961.15,-384.52 962.79,-391.33"/>
</g>
<!-- AKT1&#45;&gt;PRKACA -->
<g id="edge56" class="edge">
<title>AKT1&#45;&gt;PRKACA</title>
<path fill="none" stroke="green" d="M411.73,-503.7C412.5,-495.98 413.43,-486.71 414.29,-478.11"/>
<polygon fill="green" stroke="green" points="417.78,-478.4 415.29,-468.1 410.81,-477.71 417.78,-478.4"/>
</g>
<!-- SMAD3 -->
<g id="node31" class="node">
<title>SMAD3</title>
<ellipse fill="lightgray" stroke="black" cx="673" cy="-234" rx="46.29" ry="18"/>
<text text-anchor="middle" x="673" y="-230.3" font-family="Times,serif" font-size="14.00">SMAD3</text>
</g>
<!-- AKT1&#45;&gt;SMAD3 -->
<g id="edge109" class="edge">
<title>AKT1&#45;&gt;SMAD3</title>
<path fill="none" stroke="darkorange" d="M391.08,-506.54C379.75,-496.86 366.03,-483.15 358,-468 320.06,-396.4 276.24,-349.51 329,-288 365.38,-245.59 528.71,-236.8 616.59,-235.18"/>
<polygon fill="darkorange" stroke="darkorange" points="626.6,-231.02 626.73,-239.02 618.73,-239.15 618.6,-231.15 626.6,-231.02"/>
<polyline fill="none" stroke="darkorange" points="618.66,-235.15 616.66,-235.18 "/>
</g>
<!-- AKT1&#45;&gt;YAP1 -->
<g id="edge110" class="edge">
<title>AKT1&#45;&gt;YAP1</title>
<path fill="none" stroke="red" d="M432.57,-507.92C465.85,-487.67 528.32,-445.8 567,-396 582.77,-375.7 593.9,-348.2 600.35,-329.16"/>
<polygon fill="red" stroke="red" points="596.98,-323.41 606.47,-326.55 605.85,-328.45 596.35,-325.31 596.98,-323.41"/>
<polyline fill="none" stroke="red" points="602.04,-324.03 600.47,-328.78 "/>
</g>
<!-- PAK2&#45;&gt;ABL1 -->
<g id="edge55" class="edge">
<title>PAK2&#45;&gt;ABL1</title>
<path fill="none" stroke="darkorange" d="M860.44,-898.27C846.12,-908.99 825.26,-923.38 807.66,-934.71"/>
<polygon fill="darkorange" stroke="darkorange" points="800.95,-943.7 796.67,-936.95 803.43,-932.66 807.71,-939.42 800.95,-943.7"/>
<polyline fill="none" stroke="darkorange" points="805.57,-936.04 807.26,-934.97 "/>
</g>
<!-- PAK2&#45;&gt;VIM -->
<g id="edge45" class="edge">
<title>PAK2&#45;&gt;VIM</title>
<path fill="none" stroke="red" d="M882.87,-863.92C886.32,-853.58 890.65,-840.11 894,-828 938.87,-665.91 980.81,-467.46 994.41,-401.5"/>
<polygon fill="red" stroke="red" points="990.39,-396.23 1000.19,-398.24 999.78,-400.2 989.99,-398.19 990.39,-396.23"/>
<polyline fill="none" stroke="red" points="995.49,-396.25 994.48,-401.15 "/>
</g>
<!-- WWTR1 -->
<g id="node30" class="node">
<title>WWTR1</title>
<ellipse fill="lightgray" stroke="black" cx="506" cy="-306" rx="48.19" ry="18"/>
<text text-anchor="middle" x="506" y="-302.3" font-family="Times,serif" font-size="14.00">WWTR1</text>
</g>
<!-- LATS1&#45;&gt;WWTR1 -->
<g id="edge95" class="edge">
<title>LATS1&#45;&gt;WWTR1</title>
<path fill="none" stroke="red" d="M514.28,-359.7C512.83,-350.46 511.03,-338.98 509.47,-329.11"/>
<polygon fill="red" stroke="red" points="503.9,-325.87 513.78,-324.32 514.09,-326.29 504.21,-327.84 503.9,-325.87"/>
<polyline fill="none" stroke="red" points="508.69,-324.1 509.46,-329.04 "/>
</g>
<!-- LATS1&#45;&gt;YAP1 -->
<g id="edge100" class="edge">
<title>LATS1&#45;&gt;YAP1</title>
<path fill="none" stroke="darkorange" d="M536.53,-361.81C549.41,-351.79 566.44,-338.55 580.53,-327.59"/>
<polygon fill="darkorange" stroke="darkorange" points="585.98,-318.28 590.89,-324.6 584.57,-329.51 579.66,-323.2 585.98,-318.28"/>
<polyline fill="none" stroke="darkorange" points="582.12,-326.35 580.54,-327.58 "/>
</g>
<!-- AMOTL2 -->
<g id="node27" class="node">
<title>AMOTL2</title>
<ellipse fill="lightgray" stroke="black" cx="389" cy="-306" rx="51.19" ry="18"/>
<text text-anchor="middle" x="389" y="-302.3" font-family="Times,serif" font-size="14.00">AMOTL2</text>
</g>
<!-- LATS2&#45;&gt;AMOTL2 -->
<g id="edge84" class="edge">
<title>LATS2&#45;&gt;AMOTL2</title>
<path fill="none" stroke="red" d="M404.71,-360.76C399.87,-351.32 394.89,-339.3 391.49,-329.01"/>
<polygon fill="red" stroke="red" points="385.48,-326.57 395.02,-323.58 395.62,-325.49 386.08,-328.48 385.48,-326.57"/>
<polyline fill="none" stroke="red" points="389.95,-324.12 391.45,-328.89 "/>
</g>
<!-- LATS2&#45;&gt;WWTR1 -->
<g id="edge105" class="edge">
<title>LATS2&#45;&gt;WWTR1</title>
<path fill="none" stroke="red" d="M436.31,-361.81C449.77,-351.23 467.81,-337.04 482.17,-325.75"/>
<polygon fill="red" stroke="red" points="482.23,-319.33 488.41,-327.19 486.84,-328.43 480.66,-320.57 482.23,-319.33"/>
<polyline fill="none" stroke="red" points="486.11,-322.64 482.18,-325.74 "/>
</g>
<!-- LATS2&#45;&gt;YAP1 -->
<g id="edge106" class="edge">
<title>LATS2&#45;&gt;YAP1</title>
<path fill="none" stroke="red" d="M447.83,-366.02C477.42,-355.42 523.35,-338.85 563,-324 566.86,-322.55 570.9,-321.02 574.9,-319.49"/>
<polygon fill="red" stroke="red" points="576.85,-313.39 580.43,-322.72 578.56,-323.44 574.98,-314.1 576.85,-313.39"/>
<polyline fill="none" stroke="red" points="579.57,-317.7 574.9,-319.49 "/>
</g>
<!-- MAP4K4 -->
<g id="node20" class="node">
<title>MAP4K4</title>
<ellipse fill="lightgray" stroke="black" cx="683" cy="-738" rx="51.19" ry="18"/>
<text text-anchor="middle" x="683" y="-734.3" font-family="Times,serif" font-size="14.00">MAP4K4</text>
</g>
<!-- MAP3K7 -->
<g id="node21" class="node">
<title>MAP3K7</title>
<ellipse fill="lightgray" stroke="black" cx="627" cy="-666" rx="51.19" ry="18"/>
<text text-anchor="middle" x="627" y="-662.3" font-family="Times,serif" font-size="14.00">MAP3K7</text>
</g>
<!-- MAP4K4&#45;&gt;MAP3K7 -->
<g id="edge57" class="edge">
<title>MAP4K4&#45;&gt;MAP3K7</title>
<path fill="none" stroke="green" d="M669.73,-720.41C662.82,-711.78 654.25,-701.06 646.6,-691.5"/>
<polygon fill="green" stroke="green" points="649.16,-689.09 640.18,-683.47 643.69,-693.47 649.16,-689.09"/>
</g>
<!-- MAP4K4&#45;&gt;MAP3K1 -->
<g id="edge60" class="edge">
<title>MAP4K4&#45;&gt;MAP3K1</title>
<path fill="none" stroke="green" d="M698.08,-720.76C706.24,-711.97 716.5,-700.93 725.58,-691.14"/>
<polygon fill="green" stroke="green" points="728.31,-693.34 732.55,-683.63 723.19,-688.58 728.31,-693.34"/>
</g>
<!-- MAPK8 -->
<g id="node22" class="node">
<title>MAPK8</title>
<ellipse fill="lightgray" stroke="black" cx="660" cy="-594" rx="45.49" ry="18"/>
<text text-anchor="middle" x="660" y="-590.3" font-family="Times,serif" font-size="14.00">MAPK8</text>
</g>
<!-- MAP3K7&#45;&gt;MAPK8 -->
<g id="edge58" class="edge">
<title>MAP3K7&#45;&gt;MAPK8</title>
<path fill="none" stroke="green" d="M634.99,-648.05C638.8,-639.97 643.44,-630.12 647.69,-621.11"/>
<polygon fill="green" stroke="green" points="650.99,-622.33 652.09,-611.79 644.66,-619.34 650.99,-622.33"/>
</g>
<!-- MAP3K7&#45;&gt;SMAD3 -->
<g id="edge111" class="edge">
<title>MAP3K7&#45;&gt;SMAD3</title>
<path fill="none" stroke="red" d="M661.35,-652.55C727.26,-627.6 865,-569.85 865,-523 865,-523 865,-523 865,-377 865,-337.68 759.61,-278.68 704.99,-250.74"/>
<polygon fill="red" stroke="red" points="699.13,-253.37 703.67,-244.46 705.45,-245.36 700.91,-254.28 699.13,-253.37"/>
<polyline fill="none" stroke="red" points="700.51,-248.46 704.96,-250.73 "/>
</g>
<!-- MAPK8&#45;&gt;SRC -->
<g id="edge59" class="edge">
<title>MAPK8&#45;&gt;SRC</title>
<path fill="none" stroke="green" d="M624.35,-605.33C603.67,-613.36 579.32,-626.79 567,-648 558.96,-661.83 565.36,-668.08 567,-684 573.7,-749.03 575,-766.44 597,-828 641.72,-953.14 724.47,-1089.77 759.1,-1144.41"/>
<polygon fill="green" stroke="green" points="756.29,-1146.51 764.61,-1153.06 762.19,-1142.74 756.29,-1146.51"/>
</g>
<!-- MAPK8&#45;&gt;AKT1 -->
<g id="edge69" class="edge">
<title>MAPK8&#45;&gt;AKT1</title>
<path fill="none" stroke="green" d="M623.91,-582.9C577.84,-569.99 498.34,-547.73 450.32,-534.29"/>
<polygon fill="green" stroke="green" points="451.14,-530.89 440.57,-531.56 449.26,-537.63 451.14,-530.89"/>
</g>
<!-- MAPK8&#45;&gt;STAT3 -->
<g id="edge70" class="edge">
<title>MAPK8&#45;&gt;STAT3</title>
<path fill="none" stroke="green" d="M678.25,-577.46C693.43,-566.8 715.23,-552.61 733.61,-541.38"/>
<polygon fill="green" stroke="green" points="735.56,-544.3 742.32,-536.14 731.95,-538.3 735.56,-544.3"/>
</g>
<!-- MAPK8&#45;&gt;TP53 -->
<g id="edge92" class="edge">
<title>MAPK8&#45;&gt;TP53</title>
<path fill="none" stroke="green" d="M700.53,-585.71C774.68,-572.36 931.49,-544.14 1006.84,-530.59"/>
<polygon fill="green" stroke="green" points="1007.69,-533.99 1016.92,-528.77 1006.45,-527.1 1007.69,-533.99"/>
</g>
<!-- MAPK8&#45;&gt;SMAD3 -->
<g id="edge112" class="edge">
<title>MAPK8&#45;&gt;SMAD3</title>
<path fill="none" stroke="green" d="M660.63,-575.73C662.72,-518.19 669.45,-332.66 672.01,-262.35"/>
<polygon fill="green" stroke="green" points="675.51,-262.21 672.38,-252.09 668.52,-261.96 675.51,-262.21"/>
</g>
<!-- MAPK8&#45;&gt;ITCH -->
<g id="edge113" class="edge">
<title>MAPK8&#45;&gt;ITCH</title>
<path fill="none" stroke="green" d="M665.52,-575.82C668.85,-565.45 673.18,-551.97 677,-540 709.89,-437.03 748.8,-314.44 765.6,-261.5"/>
<polygon fill="green" stroke="green" points="768.96,-262.46 768.65,-251.87 762.29,-260.34 768.96,-262.46"/>
</g>
<!-- MAP3K1&#45;&gt;MAPK8 -->
<g id="edge61" class="edge">
<title>MAP3K1&#45;&gt;MAPK8</title>
<path fill="none" stroke="green" d="M728.03,-649.12C715.94,-639.5 700.35,-627.1 687.14,-616.59"/>
<polygon fill="green" stroke="green" points="689.29,-613.83 679.28,-610.34 684.93,-619.3 689.29,-613.83"/>
</g>
<!-- MAP3K1&#45;&gt;STAT3 -->
<g id="edge62" class="edge">
<title>MAP3K1&#45;&gt;STAT3</title>
<path fill="none" stroke="green" d="M749.2,-647.87C750.59,-629.9 753.17,-600.87 757,-576 758.31,-567.51 760.08,-558.33 761.83,-550.03"/>
<polygon fill="green" stroke="green" points="765.28,-550.62 763.98,-540.1 758.44,-549.13 765.28,-550.62"/>
</g>
<!-- STAT3&#45;&gt;SRC -->
<g id="edge63" class="edge">
<title>STAT3&#45;&gt;SRC</title>
<path fill="none" stroke="green" d="M731.08,-529.66C677.52,-539.01 581.89,-557 552,-576 442.48,-645.62 376,-679.22 376,-809 376,-1027 376,-1027 376,-1027 376,-1103.42 634.55,-1148.16 735.47,-1163.23"/>
<polygon fill="green" stroke="green" points="735.17,-1166.72 745.57,-1164.71 736.19,-1159.79 735.17,-1166.72"/>
</g>
<!-- STAT3&#45;&gt;PRKCA -->
<g id="edge68" class="edge">
<title>STAT3&#45;&gt;PRKCA</title>
<path fill="none" stroke="green" d="M793.34,-536.17C853.16,-572.37 997,-679.33 997,-809 997,-883 997,-883 997,-883 997,-924.66 983.36,-971.45 971.23,-999.55"/>
<polygon fill="green" stroke="green" points="968.03,-998.13 967.02,-1008.67 974.39,-1001.06 968.03,-998.13"/>
</g>
<!-- STAT3&#45;&gt;MAPK8 -->
<g id="edge71" class="edge">
<title>STAT3&#45;&gt;MAPK8</title>
<path fill="none" stroke="green" d="M750.04,-538.33C735.08,-548.85 713.57,-562.88 695.25,-574.09"/>
<polygon fill="green" stroke="green" points="693.31,-571.17 686.56,-579.34 696.93,-577.16 693.31,-571.17"/>
</g>
<!-- PEBP1&#45;&gt;MAP4K4 -->
<g id="edge73" class="edge">
<title>PEBP1&#45;&gt;MAP4K4</title>
<path fill="none" stroke="green" d="M657.23,-792.05C661.2,-783.89 666.04,-773.91 670.46,-764.82"/>
<polygon fill="green" stroke="green" points="673.62,-766.31 674.85,-755.79 667.33,-763.25 673.62,-766.31"/>
</g>
<!-- PEBP1&#45;&gt;MAP3K7 -->
<g id="edge81" class="edge">
<title>PEBP1&#45;&gt;MAP3K7</title>
<path fill="none" stroke="green" d="M638.22,-792.08C632.47,-782.03 625.97,-768.78 623,-756 618.26,-735.57 619.66,-711.8 622.03,-693.98"/>
<polygon fill="green" stroke="green" points="625.51,-694.39 623.54,-683.98 618.59,-693.34 625.51,-694.39"/>
</g>
<!-- PRKCD&#45;&gt;SRC -->
<g id="edge76" class="edge">
<title>PRKCD&#45;&gt;SRC</title>
<path fill="none" stroke="darkorange" d="M468.2,-899.45C503.64,-951.92 596.04,-1112.15 601,-1116 640.39,-1146.61 696.89,-1159.55 734.82,-1165.01"/>
<polygon fill="darkorange" stroke="darkorange" points="745.52,-1162.4 744.47,-1170.33 736.54,-1169.28 737.59,-1161.35 745.52,-1162.4"/>
<polyline fill="none" stroke="darkorange" points="737.06,-1165.31 735.08,-1165.05 "/>
</g>
<!-- PRKCD&#45;&gt;CTNNB1 -->
<g id="edge78" class="edge">
<title>PRKCD&#45;&gt;CTNNB1</title>
<path fill="none" stroke="red" d="M426.68,-867.76C405.47,-857.56 375.94,-842.75 351,-828 203.23,-740.63 114,-694.67 114,-523 114,-523 114,-523 114,-377 114,-327.89 151.24,-280.48 175.53,-254.79"/>
<polygon fill="red" stroke="red" points="174.71,-248.41 181.93,-255.34 180.54,-256.78 173.32,-249.86 174.71,-248.41"/>
<polyline fill="none" stroke="red" points="179.01,-251.15 175.55,-254.76 "/>
</g>
<!-- PRKCD&#45;&gt;CDH1 -->
<g id="edge77" class="edge">
<title>PRKCD&#45;&gt;CDH1</title>
<path fill="none" stroke="red" d="M436.93,-865.26C406.67,-838.89 345.85,-785.91 313.46,-757.69"/>
<polygon fill="red" stroke="red" points="307.12,-758.8 313.69,-751.26 315.2,-752.58 308.63,-760.12 307.12,-758.8"/>
<polyline fill="none" stroke="red" points="309.65,-754.38 313.42,-757.66 "/>
</g>
<!-- PRKCD&#45;&gt;ITGB7 -->
<g id="edge79" class="edge">
<title>PRKCD&#45;&gt;ITGB7</title>
<path fill="none" stroke="green" d="M453.39,-863.92C451.93,-845.99 450.27,-816.99 452,-792 459.18,-688.08 462.63,-642.27 543,-576 563.13,-559.4 935.4,-368.69 960,-360 1031.26,-334.83 1117.97,-320.15 1171.06,-312.86"/>
<polygon fill="green" stroke="green" points="1171.77,-316.29 1181.21,-311.5 1170.84,-309.36 1171.77,-316.29"/>
</g>
<!-- PRKCD&#45;&gt;MAPK8 -->
<g id="edge82" class="edge">
<title>PRKCD&#45;&gt;MAPK8</title>
<path fill="none" stroke="green" d="M458.85,-863.97C470.02,-815.94 503.51,-680.74 534,-648 554.15,-626.36 584.53,-613.23 610.41,-605.45"/>
<polygon fill="green" stroke="green" points="611.4,-608.81 620.07,-602.73 609.5,-602.07 611.4,-608.81"/>
</g>
<!-- PRKCD&#45;&gt;STAT3 -->
<g id="edge83" class="edge">
<title>PRKCD&#45;&gt;STAT3</title>
<path fill="none" stroke="darkorange" d="M454.64,-863.9C454.64,-822.6 459.82,-715.83 510,-648 561.49,-578.4 662.11,-545.67 721.33,-531.84"/>
<polygon fill="darkorange" stroke="darkorange" points="730.3,-525.73 732.06,-533.53 724.25,-535.29 722.5,-527.48 730.3,-525.73"/>
<polyline fill="none" stroke="darkorange" points="723.37,-531.39 721.42,-531.82 "/>
</g>
<!-- PRKCD&#45;&gt;PEBP1 -->
<g id="edge75" class="edge">
<title>PRKCD&#45;&gt;PEBP1</title>
<path fill="none" stroke="green" d="M487.47,-869.28C520.5,-857.37 571.8,-838.86 607.7,-825.9"/>
<polygon fill="green" stroke="green" points="609.17,-829.09 617.39,-822.41 606.8,-822.51 609.17,-829.09"/>
</g>
<!-- PRKCD&#45;&gt;TP53 -->
<g id="edge93" class="edge">
<title>PRKCD&#45;&gt;TP53</title>
<path fill="none" stroke="green" d="M498.98,-878.21C549.98,-873.49 635.43,-860.97 701,-828 847.05,-754.56 980.8,-605.16 1029.52,-546.96"/>
<polygon fill="green" stroke="green" points="1032.39,-548.99 1036.08,-539.06 1027,-544.51 1032.39,-548.99"/>
</g>
<!-- AMOTL2&#45;&gt;SRC -->
<g id="edge85" class="edge">
<title>AMOTL2&#45;&gt;SRC</title>
<path fill="none" stroke="green" d="M354.61,-319.37C273.3,-351.06 76,-443.39 76,-593 76,-667 76,-667 76,-667 76,-762.53 56,-785.47 56,-881 56,-1027 56,-1027 56,-1027 56,-1085.51 99.43,-1092.48 153,-1116 257.76,-1161.99 612.78,-1168.17 734.02,-1168.92"/>
<polygon fill="green" stroke="green" points="734.33,-1172.43 744.35,-1168.98 734.37,-1165.43 734.33,-1172.43"/>
</g>
<!-- AMOTL2&#45;&gt;LATS2 -->
<g id="edge86" class="edge">
<title>AMOTL2&#45;&gt;LATS2</title>
<path fill="none" stroke="green" d="M401.49,-323.62C405.51,-331.53 409.62,-341.17 412.82,-350.08"/>
<polygon fill="green" stroke="green" points="409.54,-351.3 415.99,-359.7 416.18,-349.1 409.54,-351.3"/>
</g>
<!-- HIF1A&#45;&gt;TP53 -->
<g id="edge88" class="edge">
<title>HIF1A&#45;&gt;TP53</title>
<path fill="none" stroke="green" d="M1098.71,-36.05C1102,-62.71 1102,-115.89 1102,-161 1102,-379 1102,-379 1102,-379 1102,-421.9 1083.45,-468.95 1067.98,-496.68"/>
<polygon fill="green" stroke="green" points="1064.95,-494.92 1062.88,-505.31 1070.98,-498.48 1064.95,-494.92"/>
</g>
<!-- TP53&#45;&gt;PTK2 -->
<g id="edge89" class="edge">
<title>TP53&#45;&gt;PTK2</title>
<path fill="none" stroke="red" d="M1057.11,-539.63C1077.45,-582.9 1129,-703.05 1129,-809 1129,-883 1129,-883 1129,-883 1129,-923.97 1128.91,-938.73 1105,-972 1088.17,-995.42 1064.61,-982.57 1051,-1008 1039.41,-1029.66 1050.08,-1057.46 1060.42,-1076.17"/>
<polygon fill="red" stroke="red" points="1066.87,-1077.37 1058.2,-1082.35 1057.2,-1080.61 1065.88,-1075.64 1066.87,-1077.37"/>
<polyline fill="none" stroke="red" points="1063.03,-1080.73 1060.55,-1076.39 "/>
</g>
<!-- TP53&#45;&gt;LATS2 -->
<g id="edge90" class="edge">
<title>TP53&#45;&gt;LATS2</title>
<path fill="none" stroke="green" d="M1016.82,-515.45C928.3,-499.88 673.94,-453.2 467,-396 463.86,-395.13 460.63,-394.18 457.4,-393.18"/>
<polygon fill="green" stroke="green" points="458.36,-389.81 447.77,-390.09 456.22,-396.48 458.36,-389.81"/>
</g>
<!-- TP53&#45;&gt;HIF1A -->
<g id="edge94" class="edge">
<title>TP53&#45;&gt;HIF1A</title>
<path fill="none" stroke="darkorange" d="M1052.14,-504.04C1061.76,-477.93 1084,-425.97 1084,-379 1084,-379 1084,-379 1084,-161 1084,-121 1084,-74.65 1086.29,-46.08"/>
<polygon fill="darkorange" stroke="darkorange" points="1083.31,-35.65 1091.27,-36.44 1090.48,-44.41 1082.52,-43.62 1083.31,-35.65"/>
<polyline fill="none" stroke="darkorange" points="1086.5,-44.01 1086.3,-46 "/>
</g>
<!-- WWTR1&#45;&gt;SMAD3 -->
<g id="edge96" class="edge">
<title>WWTR1&#45;&gt;SMAD3</title>
<path fill="none" stroke="green" d="M537.02,-292C564.14,-280.63 603.68,-264.06 633.14,-251.71"/>
<polygon fill="green" stroke="green" points="634.84,-254.79 642.71,-247.7 632.13,-248.33 634.84,-254.79"/>
</g>
<!-- RUNX2 -->
<g id="node32" class="node">
<title>RUNX2</title>
<ellipse fill="lightgray" stroke="black" cx="614" cy="-162" rx="45.49" ry="18"/>
<text text-anchor="middle" x="614" y="-158.3" font-family="Times,serif" font-size="14.00">RUNX2</text>
</g>
<!-- WWTR1&#45;&gt;RUNX2 -->
<g id="edge98" class="edge">
<title>WWTR1&#45;&gt;RUNX2</title>
<path fill="none" stroke="green" d="M518.6,-288.43C537.54,-263.53 573.46,-216.3 595.42,-187.43"/>
<polygon fill="green" stroke="green" points="598.21,-189.54 601.48,-179.46 592.64,-185.3 598.21,-189.54"/>
</g>
<!-- SMAD3&#45;&gt;NOTCH1 -->
<g id="edge97" class="edge">
<title>SMAD3&#45;&gt;NOTCH1</title>
<path fill="none" stroke="green" d="M684.78,-216.43C702.33,-191.77 735.45,-145.2 756.03,-116.27"/>
<polygon fill="green" stroke="green" points="759.03,-118.08 761.98,-107.9 753.33,-114.02 759.03,-118.08"/>
</g>
<!-- SMAD3&#45;&gt;RUNX2 -->
<g id="edge114" class="edge">
<title>SMAD3&#45;&gt;RUNX2</title>
<path fill="none" stroke="red" d="M659.32,-216.76C651.02,-206.92 640.36,-194.27 631.46,-183.72"/>
<polygon fill="red" stroke="red" points="624.84,-183.62 632.49,-177.18 633.78,-178.7 626.13,-185.15 624.84,-183.62"/>
<polyline fill="none" stroke="red" points="628.02,-179.63 631.24,-183.46 "/>
</g>
<!-- RUNX2&#45;&gt;NOTCH1 -->
<g id="edge99" class="edge">
<title>RUNX2&#45;&gt;NOTCH1</title>
<path fill="none" stroke="red" d="M643.35,-148.16C670.04,-136.48 709.51,-119.21 738.08,-106.71"/>
<polygon fill="red" stroke="red" points="740.01,-100.41 744.02,-109.58 742.18,-110.38 738.18,-101.22 740.01,-100.41"/>
<polyline fill="none" stroke="red" points="742.93,-104.59 738.35,-106.6 "/>
</g>
<!-- YAP1&#45;&gt;CTNNB1 -->
<g id="edge102" class="edge">
<title>YAP1&#45;&gt;CTNNB1</title>
<path fill="none" stroke="green" d="M580.79,-293.77C575.01,-291.6 568.86,-289.53 563,-288 456.98,-260.24 329.67,-245.96 256.27,-239.51"/>
<polygon fill="green" stroke="green" points="256.54,-236.02 246.28,-238.65 255.94,-243 256.54,-236.02"/>
</g>
<!-- YAP1&#45;&gt;RUNX2 -->
<g id="edge101" class="edge">
<title>YAP1&#45;&gt;RUNX2</title>
<path fill="none" stroke="red" d="M607.84,-287.87C609.11,-262.18 611.5,-213.65 612.9,-185.25"/>
<polygon fill="red" stroke="red" points="608.11,-180.94 618.1,-181.43 618,-183.43 608.01,-182.94 608.11,-180.94"/>
<polyline fill="none" stroke="red" points="613.15,-180.19 612.91,-185.18 "/>
</g>
<!-- YAP1&#45;&gt;ITCH -->
<g id="edge103" class="edge">
<title>YAP1&#45;&gt;ITCH</title>
<path fill="none" stroke="red" d="M633.46,-293.91C663.23,-281.43 711.53,-261.19 743.03,-247.98"/>
<polygon fill="red" stroke="red" points="745.08,-241.7 748.95,-250.92 747.1,-251.7 743.24,-242.47 745.08,-241.7"/>
<polyline fill="none" stroke="red" points="747.94,-245.92 743.33,-247.86 "/>
</g>
<!-- ITCH&#45;&gt;NOTCH1 -->
<g id="edge104" class="edge">
<title>ITCH&#45;&gt;NOTCH1</title>
<path fill="none" stroke="darkorange" d="M774,-215.87C774,-191.67 774,-147.21 774,-118.39"/>
<polygon fill="darkorange" stroke="darkorange" points="770,-108.19 778,-108.19 778,-116.19 770,-116.19 770,-108.19"/>
<polyline fill="none" stroke="darkorange" points="774,-116.19 774,-118.19 "/>
</g>
</g>
</svg>
