<?xml version="1.0" encoding="UTF-8" standalone="no"?>
<!DOCTYPE svg PUBLIC "-//W3C//DTD SVG 1.1//EN"
 "http://www.w3.org/Graphics/SVG/1.1/DTD/svg11.dtd">
<!-- Generated by graphviz version 2.43.0 (0)
 -->
<!-- Title: %3 Pages: 1 -->
<svg width="1170pt" height="188pt"
 viewBox="0.00 0.00 1170.49 188.00" xmlns="http://www.w3.org/2000/svg" xmlns:xlink="http://www.w3.org/1999/xlink">
<g id="graph0" class="graph" transform="scale(1 1) rotate(0) translate(4 184)">
<title>%3</title>
<polygon fill="white" stroke="transparent" points="-4,4 -4,-184 1166.49,-184 1166.49,4 -4,4"/>
<!-- SRC -->
<g id="node1" class="node">
<title>SRC</title>
<ellipse fill="lightgray" stroke="black" cx="601.75" cy="-90" rx="30.59" ry="18"/>
<text text-anchor="middle" x="601.75" y="-86.3" font-family="Times,serif" font-size="14.00">SRC</text>
</g>
<!-- PTK2 -->
<g id="node2" class="node">
<title>PTK2</title>
<ellipse fill="none" stroke="black" cx="35.75" cy="-18" rx="36" ry="18"/>
<text text-anchor="middle" x="35.75" y="-14.3" font-family="Times,serif" font-size="14.00">PTK2</text>
</g>
<!-- SRC&#45;&gt;PTK2 -->
<g id="edge1" class="edge">
<title>SRC&#45;&gt;PTK2</title>
<path fill="none" stroke="green" d="M571.05,-88.64C489.87,-87.11 263.27,-78.99 80.75,-36 77.75,-35.3 74.69,-34.44 71.64,-33.5"/>
<polygon fill="green" stroke="green" points="72.63,-30.14 62.04,-30.24 70.38,-36.77 72.63,-30.14"/>
</g>
<!-- CDH2 -->
<g id="node4" class="node">
<title>CDH2</title>
<ellipse fill="none" stroke="black" cx="127.75" cy="-18" rx="38.19" ry="18"/>
<text text-anchor="middle" x="127.75" y="-14.3" font-family="Times,serif" font-size="14.00">CDH2</text>
</g>
<!-- SRC&#45;&gt;CDH2 -->
<g id="edge3" class="edge">
<title>SRC&#45;&gt;CDH2</title>
<path fill="none" stroke="red" d="M571.39,-87.48C501.01,-83.48 321.53,-70.45 175.75,-36 170.91,-34.86 165.88,-33.39 160.97,-31.81"/>
<polygon fill="red" stroke="red" points="155.49,-35.25 158.66,-25.76 160.55,-26.4 157.39,-35.88 155.49,-35.25"/>
<polyline fill="none" stroke="red" points="156.12,-30.19 160.87,-31.77 "/>
</g>
<!-- PTK2B -->
<g id="node5" class="node">
<title>PTK2B</title>
<ellipse fill="none" stroke="black" cx="226.75" cy="-18" rx="42.49" ry="18"/>
<text text-anchor="middle" x="226.75" y="-14.3" font-family="Times,serif" font-size="14.00">PTK2B</text>
</g>
<!-- SRC&#45;&gt;PTK2B -->
<g id="edge4" class="edge">
<title>SRC&#45;&gt;PTK2B</title>
<path fill="none" stroke="green" d="M571.94,-85.74C514.47,-79.1 384.55,-62.36 277.75,-36 274.38,-35.17 270.92,-34.22 267.46,-33.21"/>
<polygon fill="green" stroke="green" points="268.39,-29.83 257.8,-30.23 266.32,-36.52 268.39,-29.83"/>
</g>
<!-- RPS6KA3 -->
<g id="node7" class="node">
<title>RPS6KA3</title>
<ellipse fill="none" stroke="black" cx="341.75" cy="-18" rx="54.69" ry="18"/>
<text text-anchor="middle" x="341.75" y="-14.3" font-family="Times,serif" font-size="14.00">RPS6KA3</text>
</g>
<!-- SRC&#45;&gt;RPS6KA3 -->
<g id="edge6" class="edge">
<title>SRC&#45;&gt;RPS6KA3</title>
<path fill="none" stroke="green" d="M574.41,-81.64C531.33,-70.04 446.95,-47.32 392.52,-32.67"/>
<polygon fill="green" stroke="green" points="393.29,-29.25 382.72,-30.03 391.47,-36.01 393.29,-29.25"/>
</g>
<!-- EGFR -->
<g id="node8" class="node">
<title>EGFR</title>
<ellipse fill="none" stroke="black" cx="452.75" cy="-18" rx="38.19" ry="18"/>
<text text-anchor="middle" x="452.75" y="-14.3" font-family="Times,serif" font-size="14.00">EGFR</text>
</g>
<!-- SRC&#45;&gt;EGFR -->
<g id="edge7" class="edge">
<title>SRC&#45;&gt;EGFR</title>
<path fill="none" stroke="green" d="M578.47,-78.06C554.3,-66.71 516.21,-48.82 488.29,-35.7"/>
<polygon fill="green" stroke="green" points="489.41,-32.36 478.87,-31.27 486.43,-38.69 489.41,-32.36"/>
</g>
<!-- RHOA -->
<g id="node9" class="node">
<title>RHOA</title>
<ellipse fill="none" stroke="black" cx="547.75" cy="-18" rx="38.99" ry="18"/>
<text text-anchor="middle" x="547.75" y="-14.3" font-family="Times,serif" font-size="14.00">RHOA</text>
</g>
<!-- SRC&#45;&gt;RHOA -->
<g id="edge8" class="edge">
<title>SRC&#45;&gt;RHOA</title>
<path fill="none" stroke="purple" d="M589.49,-73.12C583.09,-64.82 575.1,-54.46 567.83,-45.03"/>
<polygon fill="purple" stroke="purple" points="567.66,-44.81 560.82,-42.5 560.33,-35.31 567.16,-37.61 567.66,-44.81"/>
</g>
<!-- CTNNB1 -->
<g id="node10" class="node">
<title>CTNNB1</title>
<ellipse fill="none" stroke="black" cx="656.75" cy="-18" rx="51.99" ry="18"/>
<text text-anchor="middle" x="656.75" y="-14.3" font-family="Times,serif" font-size="14.00">CTNNB1</text>
</g>
<!-- SRC&#45;&gt;CTNNB1 -->
<g id="edge9" class="edge">
<title>SRC&#45;&gt;CTNNB1</title>
<path fill="none" stroke="purple" d="M613.95,-73.46C620.53,-65.09 628.82,-54.55 636.34,-44.97"/>
<polygon fill="purple" stroke="purple" points="636.39,-44.9 636.96,-37.71 643.81,-35.47 643.25,-42.66 636.39,-44.9"/>
</g>
<!-- FLT4 -->
<g id="node11" class="node">
<title>FLT4</title>
<ellipse fill="none" stroke="black" cx="760.75" cy="-18" rx="34.39" ry="18"/>
<text text-anchor="middle" x="760.75" y="-14.3" font-family="Times,serif" font-size="14.00">FLT4</text>
</g>
<!-- SRC&#45;&gt;FLT4 -->
<g id="edge10" class="edge">
<title>SRC&#45;&gt;FLT4</title>
<path fill="none" stroke="green" d="M625.55,-78.52C652.13,-66.82 695.4,-47.77 725.81,-34.38"/>
<polygon fill="green" stroke="green" points="727.46,-37.48 735.2,-30.25 724.64,-31.07 727.46,-37.48"/>
</g>
<!-- ITGB1 -->
<g id="node12" class="node">
<title>ITGB1</title>
<ellipse fill="none" stroke="black" cx="853.75" cy="-18" rx="40.09" ry="18"/>
<text text-anchor="middle" x="853.75" y="-14.3" font-family="Times,serif" font-size="14.00">ITGB1</text>
</g>
<!-- SRC&#45;&gt;ITGB1 -->
<g id="edge11" class="edge">
<title>SRC&#45;&gt;ITGB1</title>
<path fill="none" stroke="green" d="M629.7,-82.33C668.84,-72.85 742.12,-54.54 803.75,-36 806.91,-35.05 810.17,-34.03 813.44,-32.98"/>
<polygon fill="green" stroke="green" points="814.78,-36.22 823.18,-29.78 812.59,-29.57 814.78,-36.22"/>
</g>
<!-- RAC1 -->
<g id="node13" class="node">
<title>RAC1</title>
<ellipse fill="none" stroke="black" cx="948.75" cy="-18" rx="36.29" ry="18"/>
<text text-anchor="middle" x="948.75" y="-14.3" font-family="Times,serif" font-size="14.00">RAC1</text>
</g>
<!-- SRC&#45;&gt;RAC1 -->
<g id="edge12" class="edge">
<title>SRC&#45;&gt;RAC1</title>
<path fill="none" stroke="green" d="M631.61,-85.55C686.14,-78.85 805.17,-62.39 902.75,-36 905.69,-35.2 908.72,-34.3 911.74,-33.33"/>
<polygon fill="green" stroke="green" points="912.95,-36.61 921.28,-30.07 910.68,-29.99 912.95,-36.61"/>
</g>
<!-- PAK1 -->
<g id="node15" class="node">
<title>PAK1</title>
<ellipse fill="none" stroke="black" cx="1037.75" cy="-18" rx="35.19" ry="18"/>
<text text-anchor="middle" x="1037.75" y="-14.3" font-family="Times,serif" font-size="14.00">PAK1</text>
</g>
<!-- SRC&#45;&gt;PAK1 -->
<g id="edge14" class="edge">
<title>SRC&#45;&gt;PAK1</title>
<path fill="none" stroke="green" d="M631.96,-87.33C698.34,-83.14 861.55,-69.97 993.75,-36 996.41,-35.32 999.12,-34.52 1001.84,-33.65"/>
<polygon fill="green" stroke="green" points="1003.26,-36.87 1011.55,-30.27 1000.96,-30.25 1003.26,-36.87"/>
</g>
<!-- ABL1 -->
<g id="node16" class="node">
<title>ABL1</title>
<ellipse fill="none" stroke="black" cx="1126.75" cy="-18" rx="36" ry="18"/>
<text text-anchor="middle" x="1126.75" y="-14.3" font-family="Times,serif" font-size="14.00">ABL1</text>
</g>
<!-- SRC&#45;&gt;ABL1 -->
<g id="edge15" class="edge">
<title>SRC&#45;&gt;ABL1</title>
<path fill="none" stroke="green" d="M632.25,-88.28C708.87,-85.9 915.23,-75.97 1081.75,-36 1084.74,-35.28 1087.8,-34.42 1090.85,-33.47"/>
<polygon fill="green" stroke="green" points="1092.11,-36.74 1100.44,-30.2 1089.85,-30.11 1092.11,-36.74"/>
</g>
<!-- CDH1 -->
<g id="node3" class="node">
<title>CDH1</title>
<ellipse fill="none" stroke="black" cx="501.75" cy="-162" rx="38.19" ry="18"/>
<text text-anchor="middle" x="501.75" y="-158.3" font-family="Times,serif" font-size="14.00">CDH1</text>
</g>
<!-- CDH1&#45;&gt;SRC -->
<g id="edge2" class="edge">
<title>CDH1&#45;&gt;SRC</title>
<path fill="none" stroke="green" d="M522.47,-146.5C537.43,-136.02 557.8,-121.77 574.14,-110.33"/>
<polygon fill="green" stroke="green" points="576.56,-112.9 582.74,-104.3 572.55,-107.17 576.56,-112.9"/>
</g>
<!-- PRKCA -->
<g id="node6" class="node">
<title>PRKCA</title>
<ellipse fill="none" stroke="black" cx="601.75" cy="-162" rx="43.59" ry="18"/>
<text text-anchor="middle" x="601.75" y="-158.3" font-family="Times,serif" font-size="14.00">PRKCA</text>
</g>
<!-- PRKCA&#45;&gt;SRC -->
<g id="edge5" class="edge">
<title>PRKCA&#45;&gt;SRC</title>
<path fill="none" stroke="purple" d="M601.75,-143.7C601.75,-136.58 601.75,-128.13 601.75,-120.11"/>
<polygon fill="purple" stroke="purple" points="601.75,-120.1 597.75,-114.1 601.75,-108.1 605.75,-114.1 601.75,-120.1"/>
</g>
<!-- PRKACA -->
<g id="node14" class="node">
<title>PRKACA</title>
<ellipse fill="none" stroke="black" cx="713.75" cy="-162" rx="50.09" ry="18"/>
<text text-anchor="middle" x="713.75" y="-158.3" font-family="Times,serif" font-size="14.00">PRKACA</text>
</g>
<!-- PRKACA&#45;&gt;SRC -->
<g id="edge13" class="edge">
<title>PRKACA&#45;&gt;SRC</title>
<path fill="none" stroke="green" d="M689.99,-146.15C672.67,-135.33 649.09,-120.59 630.67,-109.08"/>
<polygon fill="green" stroke="green" points="632.42,-106.04 622.09,-103.71 628.71,-111.98 632.42,-106.04"/>
</g>
</g>
</svg>
