<?xml version="1.0" encoding="UTF-8" standalone="no"?>
<!DOCTYPE svg PUBLIC "-//W3C//DTD SVG 1.1//EN"
 "http://www.w3.org/Graphics/SVG/1.1/DTD/svg11.dtd">
<!-- Generated by graphviz version 2.43.0 (0)
 -->
<!-- Title: %3 Pages: 1 -->
<svg width="1124pt" height="1196pt"
 viewBox="0.00 0.00 1124.00 1196.00" xmlns="http://www.w3.org/2000/svg" xmlns:xlink="http://www.w3.org/1999/xlink">
<g id="graph0" class="graph" transform="scale(1 1) rotate(0) translate(4 1192)">
<title>%3</title>
<polygon fill="white" stroke="transparent" points="-4,4 -4,-1192 1120,-1192 1120,4 -4,4"/>
<!-- NOTCH1 -->
<g id="node1" class="node">
<title>NOTCH1</title>
<ellipse fill="lightgray" stroke="black" cx="179" cy="-1170" rx="51.99" ry="18"/>
<text text-anchor="middle" x="179" y="-1166.3" font-family="Times,serif" font-size="14.00">NOTCH1</text>
</g>
<!-- FLT4 -->
<g id="node2" class="node">
<title>FLT4</title>
<ellipse fill="lightgray" stroke="black" cx="326" cy="-1098" rx="34.39" ry="18"/>
<text text-anchor="middle" x="326" y="-1094.3" font-family="Times,serif" font-size="14.00">FLT4</text>
</g>
<!-- NOTCH1&#45;&gt;FLT4 -->
<g id="edge1" class="edge">
<title>NOTCH1&#45;&gt;FLT4</title>
<path fill="none" stroke="green" d="M208.39,-1155C232.47,-1143.54 266.55,-1127.31 291.84,-1115.27"/>
<polygon fill="green" stroke="green" points="293.53,-1118.34 301.06,-1110.88 290.52,-1112.02 293.53,-1118.34"/>
</g>
<!-- TP53 -->
<g id="node17" class="node">
<title>TP53</title>
<ellipse fill="lightgray" stroke="black" cx="373" cy="-378" rx="34.39" ry="18"/>
<text text-anchor="middle" x="373" y="-374.3" font-family="Times,serif" font-size="14.00">TP53</text>
</g>
<!-- NOTCH1&#45;&gt;TP53 -->
<g id="edge36" class="edge">
<title>NOTCH1&#45;&gt;TP53</title>
<path fill="none" stroke="red" d="M140.6,-1157.61C88,-1139.37 0,-1098.2 0,-1027 0,-1027 0,-1027 0,-593 0,-440.07 238.8,-394.86 334.26,-382.9"/>
<polygon fill="red" stroke="red" points="337.64,-377.45 338.86,-387.38 336.87,-387.62 335.65,-377.69 337.64,-377.45"/>
<polyline fill="none" stroke="red" points="339.24,-382.29 334.28,-382.9 "/>
</g>
<!-- FOS -->
<g id="node22" class="node">
<title>FOS</title>
<ellipse fill="lightgray" stroke="black" cx="305" cy="-450" rx="30.59" ry="18"/>
<text text-anchor="middle" x="305" y="-446.3" font-family="Times,serif" font-size="14.00">FOS</text>
</g>
<!-- NOTCH1&#45;&gt;FOS -->
<g id="edge48" class="edge">
<title>NOTCH1&#45;&gt;FOS</title>
<path fill="none" stroke="red" d="M161.39,-1152.97C136.49,-1128.46 94,-1079 94,-1027 94,-1027 94,-1027 94,-593 94,-508.61 211.61,-471.08 271.22,-457.48"/>
<polygon fill="red" stroke="red" points="274.04,-451.72 276.22,-461.48 274.27,-461.92 272.09,-452.16 274.04,-451.72"/>
<polyline fill="none" stroke="red" points="276.1,-456.39 271.22,-457.48 "/>
</g>
<!-- PTK2 -->
<g id="node3" class="node">
<title>PTK2</title>
<ellipse fill="lightgray" stroke="black" cx="741" cy="-1026" rx="36" ry="18"/>
<text text-anchor="middle" x="741" y="-1022.3" font-family="Times,serif" font-size="14.00">PTK2</text>
</g>
<!-- FLT4&#45;&gt;PTK2 -->
<g id="edge2" class="edge">
<title>FLT4&#45;&gt;PTK2</title>
<path fill="none" stroke="green" d="M358.22,-1091.57C432.17,-1079.09 614.12,-1048.4 697.72,-1034.3"/>
<polygon fill="green" stroke="green" points="698.37,-1037.74 707.65,-1032.63 697.21,-1030.84 698.37,-1037.74"/>
</g>
<!-- PRKCA -->
<g id="node11" class="node">
<title>PRKCA</title>
<ellipse fill="lightgray" stroke="black" cx="590" cy="-522" rx="43.59" ry="18"/>
<text text-anchor="middle" x="590" y="-518.3" font-family="Times,serif" font-size="14.00">PRKCA</text>
</g>
<!-- FLT4&#45;&gt;PRKCA -->
<g id="edge18" class="edge">
<title>FLT4&#45;&gt;PRKCA</title>
<path fill="none" stroke="green" d="M336.33,-1080.52C373.63,-1020.29 502.76,-805.5 571,-612 578.13,-591.79 583.03,-568.02 586.07,-550.13"/>
<polygon fill="green" stroke="green" points="589.56,-550.52 587.69,-540.09 582.65,-549.4 589.56,-550.52"/>
</g>
<!-- EPHA2 -->
<g id="node6" class="node">
<title>EPHA2</title>
<ellipse fill="lightgray" stroke="black" cx="649" cy="-90" rx="44.39" ry="18"/>
<text text-anchor="middle" x="649" y="-86.3" font-family="Times,serif" font-size="14.00">EPHA2</text>
</g>
<!-- PTK2&#45;&gt;EPHA2 -->
<g id="edge7" class="edge">
<title>PTK2&#45;&gt;EPHA2</title>
<path fill="none" stroke="green" d="M740.9,-1007.73C745.85,-981.21 760,-928.73 760,-883 760,-883 760,-883 760,-665 760,-450.16 678.46,-199.48 654.85,-118.03"/>
<polygon fill="green" stroke="green" points="658.13,-116.77 652.03,-108.1 651.4,-118.68 658.13,-116.77"/>
</g>
<!-- CDC42 -->
<g id="node7" class="node">
<title>CDC42</title>
<ellipse fill="lightgray" stroke="black" cx="1002" cy="-954" rx="43.59" ry="18"/>
<text text-anchor="middle" x="1002" y="-950.3" font-family="Times,serif" font-size="14.00">CDC42</text>
</g>
<!-- PTK2&#45;&gt;CDC42 -->
<g id="edge8" class="edge">
<title>PTK2&#45;&gt;CDC42</title>
<path fill="none" stroke="green" d="M772.04,-1016.81C811.21,-1006.45 880.63,-988.04 940,-972 945.39,-970.54 951.04,-969.01 956.64,-967.48"/>
<polygon fill="green" stroke="green" points="957.88,-970.77 966.6,-964.75 956.03,-964.02 957.88,-970.77"/>
</g>
<!-- PTK2&#45;&gt;PRKCA -->
<g id="edge16" class="edge">
<title>PTK2&#45;&gt;PRKCA</title>
<path fill="none" stroke="green" d="M729.94,-1008.59C718.46,-982.36 704,-929.23 704,-883 704,-883 704,-883 704,-737 704,-659.31 642.32,-584.34 609.51,-547.19"/>
<polygon fill="green" stroke="green" points="611.86,-544.57 602.6,-539.43 606.63,-549.22 611.86,-544.57"/>
</g>
<!-- INSR -->
<g id="node12" class="node">
<title>INSR</title>
<ellipse fill="lightgray" stroke="black" cx="825" cy="-450" rx="35.19" ry="18"/>
<text text-anchor="middle" x="825" y="-446.3" font-family="Times,serif" font-size="14.00">INSR</text>
</g>
<!-- PTK2&#45;&gt;INSR -->
<g id="edge21" class="edge">
<title>PTK2&#45;&gt;INSR</title>
<path fill="none" stroke="green" d="M752.11,-1008.88C761.56,-999.09 774.31,-985.84 783,-972 805.43,-936.27 816,-925.19 816,-883 816,-883 816,-883 816,-593 816,-553 816,-506.65 818.29,-478.08"/>
<polygon fill="green" stroke="green" points="821.78,-478.35 819.29,-468.05 814.82,-477.65 821.78,-478.35"/>
</g>
<!-- ITGB1 -->
<g id="node13" class="node">
<title>ITGB1</title>
<ellipse fill="lightgray" stroke="black" cx="532" cy="-18" rx="40.09" ry="18"/>
<text text-anchor="middle" x="532" y="-14.3" font-family="Times,serif" font-size="14.00">ITGB1</text>
</g>
<!-- PTK2&#45;&gt;ITGB1 -->
<g id="edge28" class="edge">
<title>PTK2&#45;&gt;ITGB1</title>
<path fill="none" stroke="green" d="M705.25,-1024.49C638.65,-1022.56 492.8,-1013.58 379,-972 292.01,-940.21 38,-746.67 38,-739 38,-739 38,-739 38,-161 38,-69.9 357.14,-33.16 482.46,-22.53"/>
<polygon fill="green" stroke="green" points="482.88,-26.01 492.56,-21.7 482.3,-19.03 482.88,-26.01"/>
</g>
<!-- GSK3B -->
<g id="node4" class="node">
<title>GSK3B</title>
<ellipse fill="lightgray" stroke="black" cx="628" cy="-882" rx="44.39" ry="18"/>
<text text-anchor="middle" x="628" y="-878.3" font-family="Times,serif" font-size="14.00">GSK3B</text>
</g>
<!-- GSK3B&#45;&gt;NOTCH1 -->
<g id="edge3" class="edge">
<title>GSK3B&#45;&gt;NOTCH1</title>
<path fill="none" stroke="green" d="M600.55,-896.42C540.72,-926.16 394.96,-1001.19 283,-1080 254.18,-1100.29 223.85,-1126.94 203.43,-1145.77"/>
<polygon fill="green" stroke="green" points="200.78,-1143.45 195.85,-1152.83 205.55,-1148.58 200.78,-1143.45"/>
</g>
<!-- CDH1 -->
<g id="node5" class="node">
<title>CDH1</title>
<ellipse fill="lightgray" stroke="black" cx="739" cy="-162" rx="38.19" ry="18"/>
<text text-anchor="middle" x="739" y="-158.3" font-family="Times,serif" font-size="14.00">CDH1</text>
</g>
<!-- GSK3B&#45;&gt;CDH1 -->
<g id="edge4" class="edge">
<title>GSK3B&#45;&gt;CDH1</title>
<path fill="none" stroke="green" d="M633.04,-863.93C635.95,-853.6 639.52,-840.12 642,-828 692.16,-582.49 726.43,-280.87 736.17,-190.09"/>
<polygon fill="green" stroke="green" points="739.65,-190.39 737.23,-180.08 732.69,-189.65 739.65,-190.39"/>
</g>
<!-- GSK3B&#45;&gt;TP53 -->
<g id="edge39" class="edge">
<title>GSK3B&#45;&gt;TP53</title>
<path fill="none" stroke="purple" d="M619.11,-864.18C596.96,-822.09 537.89,-708.68 493,-612 456.36,-533.08 460.95,-506.5 416,-432 410.1,-422.23 402.56,-412.31 395.44,-403.73"/>
<polygon fill="purple" stroke="purple" points="395.22,-403.48 388.28,-401.53 387.4,-394.38 394.34,-396.32 395.22,-403.48"/>
</g>
<!-- MAP3K1 -->
<g id="node19" class="node">
<title>MAP3K1</title>
<ellipse fill="lightgray" stroke="black" cx="916" cy="-234" rx="51.19" ry="18"/>
<text text-anchor="middle" x="916" y="-230.3" font-family="Times,serif" font-size="14.00">MAP3K1</text>
</g>
<!-- GSK3B&#45;&gt;MAP3K1 -->
<g id="edge43" class="edge">
<title>GSK3B&#45;&gt;MAP3K1</title>
<path fill="none" stroke="green" d="M670.64,-877.07C744.4,-867.69 888,-836.85 888,-739 888,-739 888,-739 888,-521 888,-423.8 961.34,-418.76 983,-324 986.56,-308.4 989.97,-302.4 983,-288 976.45,-274.46 964.58,-263.34 952.63,-254.83"/>
<polygon fill="green" stroke="green" points="954.26,-251.71 943.99,-249.11 950.39,-257.55 954.26,-251.71"/>
</g>
<!-- CDK1 -->
<g id="node23" class="node">
<title>CDK1</title>
<ellipse fill="lightgray" stroke="black" cx="336" cy="-810" rx="37.89" ry="18"/>
<text text-anchor="middle" x="336" y="-806.3" font-family="Times,serif" font-size="14.00">CDK1</text>
</g>
<!-- GSK3B&#45;&gt;CDK1 -->
<g id="edge52" class="edge">
<title>GSK3B&#45;&gt;CDK1</title>
<path fill="none" stroke="red" d="M591.02,-872.13C535.3,-858.78 430.38,-833.63 374.05,-820.12"/>
<polygon fill="red" stroke="red" points="368.89,-824.03 371.22,-814.3 373.17,-814.77 370.83,-824.49 368.89,-824.03"/>
<polyline fill="none" stroke="red" points="369.08,-818.93 373.95,-820.1 "/>
</g>
<!-- CDH1&#45;&gt;EPHA2 -->
<g id="edge5" class="edge">
<title>CDH1&#45;&gt;EPHA2</title>
<path fill="none" stroke="green" d="M719.91,-146.15C707.32,-136.36 690.61,-123.37 676.58,-112.45"/>
<polygon fill="green" stroke="green" points="678.72,-109.68 668.68,-106.31 674.43,-115.21 678.72,-109.68"/>
</g>
<!-- RAP1A -->
<g id="node25" class="node">
<title>RAP1A</title>
<ellipse fill="lightgray" stroke="black" cx="753" cy="-90" rx="42.49" ry="18"/>
<text text-anchor="middle" x="753" y="-86.3" font-family="Times,serif" font-size="14.00">RAP1A</text>
</g>
<!-- CDH1&#45;&gt;RAP1A -->
<g id="edge63" class="edge">
<title>CDH1&#45;&gt;RAP1A</title>
<path fill="none" stroke="green" d="M736.54,-143.7C737.31,-135.78 739.01,-126.23 741.14,-117.44"/>
<polygon fill="green" stroke="green" points="744.57,-118.19 743.83,-107.62 737.82,-116.34 744.57,-118.19"/>
</g>
<!-- EPHA2&#45;&gt;PTK2 -->
<g id="edge6" class="edge">
<title>EPHA2&#45;&gt;PTK2</title>
<path fill="none" stroke="red" d="M658.33,-107.64C688.57,-175.7 778,-440.01 778,-665 778,-883 778,-883 778,-883 778,-926.53 765.18,-976.16 754.1,-1003.71"/>
<polygon fill="red" stroke="red" points="757.05,-1009.6 747.83,-1005.74 748.6,-1003.89 757.83,-1007.76 757.05,-1009.6"/>
<polyline fill="none" stroke="red" points="752.06,-1008.59 753.99,-1003.98 "/>
</g>
<!-- CDC42&#45;&gt;GSK3B -->
<g id="edge11" class="edge">
<title>CDC42&#45;&gt;GSK3B</title>
<path fill="none" stroke="red" d="M963.03,-945.71C893.06,-932.61 746.53,-905.18 672.63,-891.35"/>
<polygon fill="red" stroke="red" points="667.5,-895.48 669.34,-885.65 671.31,-886.02 669.47,-895.85 667.5,-895.48"/>
<polyline fill="none" stroke="red" points="667.44,-890.38 672.36,-891.3 "/>
</g>
<!-- CDC42&#45;&gt;CDH1 -->
<g id="edge9" class="edge">
<title>CDC42&#45;&gt;CDH1</title>
<path fill="none" stroke="red" d="M994.31,-935.91C983.21,-909.62 964,-857.45 964,-811 964,-811 964,-811 964,-521 964,-443.32 954.26,-411.37 896,-360 851.68,-320.91 807.74,-367.74 768,-324 733.02,-285.49 733.25,-219.64 736.21,-185.31"/>
<polygon fill="red" stroke="red" points="731.64,-180.61 741.59,-181.55 741.4,-183.54 731.45,-182.6 731.64,-180.61"/>
<polyline fill="none" stroke="red" points="736.71,-180.08 736.24,-185.06 "/>
</g>
<!-- CDC42&#45;&gt;MAP3K1 -->
<g id="edge44" class="edge">
<title>CDC42&#45;&gt;MAP3K1</title>
<path fill="none" stroke="green" d="M1009.69,-935.91C1020.79,-909.62 1040,-857.45 1040,-811 1040,-811 1040,-811 1040,-377 1040,-333.45 1027.62,-320.82 999,-288 986.79,-274 969.99,-262.33 954.7,-253.54"/>
<polygon fill="green" stroke="green" points="956.36,-250.46 945.91,-248.7 952.98,-256.59 956.36,-250.46"/>
</g>
<!-- CDH2 -->
<g id="node8" class="node">
<title>CDH2</title>
<ellipse fill="lightgray" stroke="black" cx="936" cy="-306" rx="38.19" ry="18"/>
<text text-anchor="middle" x="936" y="-302.3" font-family="Times,serif" font-size="14.00">CDH2</text>
</g>
<!-- CDH2&#45;&gt;CDC42 -->
<g id="edge10" class="edge">
<title>CDH2&#45;&gt;CDC42</title>
<path fill="none" stroke="red" d="M944.9,-323.66C962.92,-358.97 1002,-444.41 1002,-521 1002,-811 1002,-811 1002,-811 1002,-853.29 1002,-902.68 1002,-930.65"/>
<polygon fill="red" stroke="red" points="1007,-934.95 997,-934.95 997,-932.95 1007,-932.95 1007,-934.95"/>
<polyline fill="none" stroke="red" points="1002,-935.95 1002,-930.95 "/>
</g>
<!-- PTPN1 -->
<g id="node9" class="node">
<title>PTPN1</title>
<ellipse fill="lightgray" stroke="black" cx="844" cy="-378" rx="42.79" ry="18"/>
<text text-anchor="middle" x="844" y="-374.3" font-family="Times,serif" font-size="14.00">PTPN1</text>
</g>
<!-- PTPN1&#45;&gt;PTK2 -->
<g id="edge13" class="edge">
<title>PTPN1&#45;&gt;PTK2</title>
<path fill="none" stroke="red" d="M860.59,-394.75C884.55,-419.27 926,-469.19 926,-521 926,-883 926,-883 926,-883 926,-957.33 830.87,-998.08 777.04,-1015.18"/>
<polygon fill="red" stroke="red" points="774.41,-1021.24 771.43,-1011.69 773.34,-1011.1 776.32,-1020.65 774.41,-1021.24"/>
<polyline fill="none" stroke="red" points="771.96,-1016.76 776.74,-1015.28 "/>
</g>
<!-- PTPN1&#45;&gt;CDH2 -->
<g id="edge12" class="edge">
<title>PTPN1&#45;&gt;CDH2</title>
<path fill="none" stroke="red" d="M863.96,-361.81C878.26,-350.93 897.56,-336.24 912.59,-324.81"/>
<polygon fill="red" stroke="red" points="912.88,-318.31 918.94,-326.26 917.35,-327.48 911.29,-319.52 912.88,-318.31"/>
<polyline fill="none" stroke="red" points="916.71,-321.68 912.73,-324.71 "/>
</g>
<!-- PTPN1&#45;&gt;INSR -->
<g id="edge23" class="edge">
<title>PTPN1&#45;&gt;INSR</title>
<path fill="none" stroke="purple" d="M845.25,-396.12C843.98,-403.71 841.75,-412.84 839.12,-421.35"/>
<polygon fill="purple" stroke="purple" points="839.1,-421.41 840.94,-428.39 835.21,-432.76 833.37,-425.79 839.1,-421.41"/>
</g>
<!-- VIM -->
<g id="node10" class="node">
<title>VIM</title>
<ellipse fill="lightgray" stroke="black" cx="532" cy="-594" rx="29.8" ry="18"/>
<text text-anchor="middle" x="532" y="-590.3" font-family="Times,serif" font-size="14.00">VIM</text>
</g>
<!-- VIM&#45;&gt;PRKCA -->
<g id="edge14" class="edge">
<title>VIM&#45;&gt;PRKCA</title>
<path fill="none" stroke="green" d="M539.91,-576.41C546.42,-567.35 555.65,-555.99 564.49,-546.08"/>
<polygon fill="green" stroke="green" points="567.25,-548.25 571.43,-538.51 562.09,-543.51 567.25,-548.25"/>
</g>
<!-- PRKCA&#45;&gt;PTK2 -->
<g id="edge15" class="edge">
<title>PRKCA&#45;&gt;PTK2</title>
<path fill="none" stroke="green" d="M610.92,-537.91C648.42,-570.54 722,-652.15 722,-737 722,-883 722,-883 722,-883 722,-923.55 733.13,-969.41 739.1,-997.76"/>
<polygon fill="green" stroke="green" points="735.7,-998.61 741.1,-1007.73 742.56,-997.23 735.7,-998.61"/>
</g>
<!-- PRKCA&#45;&gt;GSK3B -->
<g id="edge19" class="edge">
<title>PRKCA&#45;&gt;GSK3B</title>
<path fill="none" stroke="red" d="M597.69,-540.09C608.79,-566.38 628,-618.55 628,-665 628,-739 628,-739 628,-739 628,-781.29 628,-830.68 628,-858.65"/>
<polygon fill="red" stroke="red" points="633,-862.95 623,-862.95 623,-860.95 633,-860.95 633,-862.95"/>
<polyline fill="none" stroke="red" points="628,-863.95 628,-858.95 "/>
</g>
<!-- PRKCA&#45;&gt;EPHA2 -->
<g id="edge20" class="edge">
<title>PRKCA&#45;&gt;EPHA2</title>
<path fill="none" stroke="red" d="M595.46,-503.71C603.35,-477.18 617,-424.67 617,-379 617,-379 617,-379 617,-233 617,-189.7 631.33,-140.75 640.82,-113.11"/>
<polygon fill="red" stroke="red" points="637.47,-107.51 646.92,-110.8 646.26,-112.68 636.82,-109.39 637.47,-107.51"/>
<polyline fill="none" stroke="red" points="642.52,-108.21 640.88,-112.93 "/>
</g>
<!-- PRKCA&#45;&gt;VIM -->
<g id="edge17" class="edge">
<title>PRKCA&#45;&gt;VIM</title>
<path fill="none" stroke="purple" d="M581.97,-539.76C575.39,-548.89 566.09,-560.32 557.23,-570.24"/>
<polygon fill="purple" stroke="purple" points="557.11,-570.36 555.97,-577.48 548.96,-579.17 550.1,-572.05 557.11,-570.36"/>
</g>
<!-- PRKCA&#45;&gt;INSR -->
<g id="edge25" class="edge">
<title>PRKCA&#45;&gt;INSR</title>
<path fill="none" stroke="green" d="M622.64,-509.75C664.94,-496.5 738.39,-474.63 784.27,-461.64"/>
<polygon fill="green" stroke="green" points="785.51,-464.93 794.19,-458.85 783.61,-458.19 785.51,-464.93"/>
</g>
<!-- PRKCA&#45;&gt;ITGB1 -->
<g id="edge30" class="edge">
<title>PRKCA&#45;&gt;ITGB1</title>
<path fill="none" stroke="green" d="M585.39,-504.01C571.62,-430.28 537.6,-137.65 531.88,-46.35"/>
<polygon fill="green" stroke="green" points="535.37,-46.04 531.32,-36.24 528.38,-46.42 535.37,-46.04"/>
</g>
<!-- PRKCA&#45;&gt;TP53 -->
<g id="edge41" class="edge">
<title>PRKCA&#45;&gt;TP53</title>
<path fill="none" stroke="green" d="M574.55,-504.97C555.51,-485.84 521.54,-453.72 488,-432 463.46,-416.11 433.38,-402.42 410.14,-392.94"/>
<polygon fill="green" stroke="green" points="411.22,-389.6 400.63,-389.14 408.62,-396.1 411.22,-389.6"/>
</g>
<!-- PRKCA&#45;&gt;FOS -->
<g id="edge53" class="edge">
<title>PRKCA&#45;&gt;FOS</title>
<path fill="none" stroke="green" d="M553.62,-512.06C499.34,-498.73 397.68,-473.76 342.67,-460.25"/>
<polygon fill="green" stroke="green" points="343.18,-456.77 332.64,-457.79 341.51,-463.57 343.18,-456.77"/>
</g>
<!-- INSR&#45;&gt;PTK2 -->
<g id="edge22" class="edge">
<title>INSR&#45;&gt;PTK2</title>
<path fill="none" stroke="green" d="M830.71,-468.05C834,-494.71 834,-547.89 834,-593 834,-883 834,-883 834,-883 834,-925.19 823.43,-936.27 801,-972 793.32,-984.24 782.46,-996.01 771.96,-1005.34"/>
<polygon fill="green" stroke="green" points="769.48,-1002.86 764.06,-1011.97 773.97,-1008.22 769.48,-1002.86"/>
</g>
<!-- INSR&#45;&gt;PTPN1 -->
<g id="edge24" class="edge">
<title>INSR&#45;&gt;PTPN1</title>
<path fill="none" stroke="purple" d="M823.78,-431.7C825.03,-424.3 827.18,-415.47 829.72,-407.17"/>
<polygon fill="purple" stroke="purple" points="829.78,-406.98 827.93,-400.02 833.64,-395.62 835.5,-402.59 829.78,-406.98"/>
</g>
<!-- INSR&#45;&gt;PRKCA -->
<g id="edge26" class="edge">
<title>INSR&#45;&gt;PRKCA</title>
<path fill="none" stroke="green" d="M796.64,-460.9C756.62,-473.53 683.48,-495.35 635.74,-508.94"/>
<polygon fill="green" stroke="green" points="634.63,-505.61 625.97,-511.7 636.54,-512.35 634.63,-505.61"/>
</g>
<!-- ITGB1&#45;&gt;PTK2 -->
<g id="edge27" class="edge">
<title>ITGB1&#45;&gt;PTK2</title>
<path fill="none" stroke="green" d="M492.65,-22.37C378.49,-32.78 56,-69.43 56,-161 56,-739 56,-739 56,-739 56,-746.67 310.01,-940.21 397,-972 499.35,-1009.4 627.65,-1020.43 695.04,-1023.67"/>
<polygon fill="green" stroke="green" points="695.17,-1027.18 705.31,-1024.12 695.48,-1020.18 695.17,-1027.18"/>
</g>
<!-- ITGB1&#45;&gt;CDC42 -->
<g id="edge29" class="edge">
<title>ITGB1&#45;&gt;CDC42</title>
<path fill="none" stroke="green" d="M572.14,-20.13C704.08,-24.91 1116,-48.83 1116,-161 1116,-811 1116,-811 1116,-811 1116,-864.04 1067.03,-908.55 1033.28,-932.93"/>
<polygon fill="green" stroke="green" points="1031.25,-930.08 1025.07,-938.69 1035.27,-935.81 1031.25,-930.08"/>
</g>
<!-- ITGB1&#45;&gt;PRKCA -->
<g id="edge31" class="edge">
<title>ITGB1&#45;&gt;PRKCA</title>
<path fill="none" stroke="green" d="M536.61,-35.95C550.36,-109.6 584.39,-402.24 590.12,-493.6"/>
<polygon fill="green" stroke="green" points="586.63,-493.93 590.67,-503.72 593.62,-493.54 586.63,-493.93"/>
</g>
<!-- NF2 -->
<g id="node14" class="node">
<title>NF2</title>
<ellipse fill="lightgray" stroke="black" cx="191" cy="-378" rx="30.59" ry="18"/>
<text text-anchor="middle" x="191" y="-374.3" font-family="Times,serif" font-size="14.00">NF2</text>
</g>
<!-- LATS1 -->
<g id="node15" class="node">
<title>LATS1</title>
<ellipse fill="lightgray" stroke="black" cx="216" cy="-162" rx="40.09" ry="18"/>
<text text-anchor="middle" x="216" y="-158.3" font-family="Times,serif" font-size="14.00">LATS1</text>
</g>
<!-- NF2&#45;&gt;LATS1 -->
<g id="edge32" class="edge">
<title>NF2&#45;&gt;LATS1</title>
<path fill="none" stroke="green" d="M193,-359.85C197.33,-322.83 207.57,-235.18 212.8,-190.39"/>
<polygon fill="green" stroke="green" points="216.3,-190.57 213.99,-180.23 209.35,-189.76 216.3,-190.57"/>
</g>
<!-- LATS2 -->
<g id="node16" class="node">
<title>LATS2</title>
<ellipse fill="lightgray" stroke="black" cx="258" cy="-306" rx="40.09" ry="18"/>
<text text-anchor="middle" x="258" y="-302.3" font-family="Times,serif" font-size="14.00">LATS2</text>
</g>
<!-- NF2&#45;&gt;LATS2 -->
<g id="edge33" class="edge">
<title>NF2&#45;&gt;LATS2</title>
<path fill="none" stroke="green" d="M205.54,-361.81C214.25,-352.71 225.51,-340.95 235.36,-330.65"/>
<polygon fill="green" stroke="green" points="238.17,-332.78 242.56,-323.13 233.11,-327.94 238.17,-332.78"/>
</g>
<!-- GADD45A -->
<g id="node26" class="node">
<title>GADD45A</title>
<ellipse fill="lightgray" stroke="black" cx="373" cy="-306" rx="57.39" ry="18"/>
<text text-anchor="middle" x="373" y="-302.3" font-family="Times,serif" font-size="14.00">GADD45A</text>
</g>
<!-- LATS1&#45;&gt;GADD45A -->
<g id="edge69" class="edge">
<title>LATS1&#45;&gt;GADD45A</title>
<path fill="none" stroke="green" d="M224.63,-179.79C235.17,-199.08 254.54,-230.77 278,-252 293.36,-265.9 313,-277.62 330.43,-286.47"/>
<polygon fill="green" stroke="green" points="329.32,-289.83 339.84,-291.09 332.41,-283.55 329.32,-289.83"/>
</g>
<!-- LATS2&#45;&gt;TP53 -->
<g id="edge34" class="edge">
<title>LATS2&#45;&gt;TP53</title>
<path fill="none" stroke="green" d="M284.45,-319.84C303,-330.2 327.53,-344.97 346.15,-356.9"/>
<polygon fill="green" stroke="green" points="344.47,-359.98 354.76,-362.5 348.29,-354.11 344.47,-359.98"/>
</g>
<!-- TP53&#45;&gt;PTK2 -->
<g id="edge35" class="edge">
<title>TP53&#45;&gt;PTK2</title>
<path fill="none" stroke="red" d="M342.61,-386.51C318.24,-394.06 284.93,-408.1 265,-432 220.27,-485.66 150.73,-692.85 184,-756 288.21,-953.81 591.32,-1007.79 700.89,-1021.06"/>
<polygon fill="red" stroke="red" points="705.55,-1016.57 704.37,-1026.5 702.39,-1026.27 703.57,-1016.34 705.55,-1016.57"/>
<polyline fill="none" stroke="red" points="705.96,-1021.66 700.99,-1021.07 "/>
</g>
<!-- TP53&#45;&gt;EPHA2 -->
<g id="edge40" class="edge">
<title>TP53&#45;&gt;EPHA2</title>
<path fill="none" stroke="green" d="M392.16,-362.92C405.71,-352.65 424.04,-338.13 439,-324 478.36,-286.82 583.29,-166.8 628.17,-115.08"/>
<polygon fill="green" stroke="green" points="630.93,-117.24 634.84,-107.39 625.64,-112.66 630.93,-117.24"/>
</g>
<!-- TP53&#45;&gt;LATS2 -->
<g id="edge38" class="edge">
<title>TP53&#45;&gt;LATS2</title>
<path fill="none" stroke="green" d="M348.56,-365.28C330.02,-355 304.73,-339.81 285.51,-327.52"/>
<polygon fill="green" stroke="green" points="287.17,-324.43 276.88,-321.93 283.37,-330.31 287.17,-324.43"/>
</g>
<!-- MAP4K4 -->
<g id="node18" class="node">
<title>MAP4K4</title>
<ellipse fill="lightgray" stroke="black" cx="828" cy="-306" rx="51.19" ry="18"/>
<text text-anchor="middle" x="828" y="-302.3" font-family="Times,serif" font-size="14.00">MAP4K4</text>
</g>
<!-- TP53&#45;&gt;MAP4K4 -->
<g id="edge37" class="edge">
<title>TP53&#45;&gt;MAP4K4</title>
<path fill="none" stroke="green" d="M405.72,-371.97C482.59,-360.14 675.44,-330.47 771.62,-315.67"/>
<polygon fill="green" stroke="green" points="772.39,-319.1 781.74,-314.12 771.33,-312.18 772.39,-319.1"/>
</g>
<!-- TP53&#45;&gt;CDK1 -->
<g id="edge55" class="edge">
<title>TP53&#45;&gt;CDK1</title>
<path fill="none" stroke="green" d="M373.48,-396.28C368.27,-446.18 339.48,-594.9 330,-720 328.79,-735.95 327.8,-740.15 330,-756 331.18,-764.52 333.39,-773.61 335.36,-781.8"/>
<polygon fill="green" stroke="green" points="331.96,-782.65 337.64,-791.59 338.78,-781.06 331.96,-782.65"/>
</g>
<!-- TP53&#45;&gt;GADD45A -->
<g id="edge73" class="edge">
<title>TP53&#45;&gt;GADD45A</title>
<path fill="none" stroke="green" d="M373,-359.7C373,-351.98 373,-342.71 373,-334.11"/>
<polygon fill="green" stroke="green" points="376.5,-334.1 373,-324.1 369.5,-334.1 376.5,-334.1"/>
</g>
<!-- MAP4K4&#45;&gt;MAP3K1 -->
<g id="edge42" class="edge">
<title>MAP4K4&#45;&gt;MAP3K1</title>
<path fill="none" stroke="green" d="M847.97,-289.12C859.78,-279.72 874.93,-267.67 887.93,-257.33"/>
<polygon fill="green" stroke="green" points="890.46,-259.79 896.11,-250.82 886.11,-254.31 890.46,-259.79"/>
</g>
<!-- MAP3K7 -->
<g id="node24" class="node">
<title>MAP3K7</title>
<ellipse fill="lightgray" stroke="black" cx="847" cy="-162" rx="51.19" ry="18"/>
<text text-anchor="middle" x="847" y="-158.3" font-family="Times,serif" font-size="14.00">MAP3K7</text>
</g>
<!-- MAP4K4&#45;&gt;MAP3K7 -->
<g id="edge60" class="edge">
<title>MAP4K4&#45;&gt;MAP3K7</title>
<path fill="none" stroke="green" d="M825.71,-287.87C826.39,-263.56 832.09,-218.82 837.95,-190.01"/>
<polygon fill="green" stroke="green" points="841.38,-190.71 840.11,-180.19 834.55,-189.21 841.38,-190.71"/>
</g>
<!-- MAP3K1&#45;&gt;MAP3K7 -->
<g id="edge67" class="edge">
<title>MAP3K1&#45;&gt;MAP3K7</title>
<path fill="none" stroke="green" d="M894.97,-217.46C885.28,-208.69 874.02,-197.53 864.77,-187.6"/>
<polygon fill="green" stroke="green" points="867.15,-185.02 857.84,-179.96 861.97,-189.72 867.15,-185.02"/>
</g>
<!-- INCENP -->
<g id="node20" class="node">
<title>INCENP</title>
<ellipse fill="lightgray" stroke="black" cx="380" cy="-738" rx="50.09" ry="18"/>
<text text-anchor="middle" x="380" y="-734.3" font-family="Times,serif" font-size="14.00">INCENP</text>
</g>
<!-- PLK1 -->
<g id="node21" class="node">
<title>PLK1</title>
<ellipse fill="lightgray" stroke="black" cx="450" cy="-666" rx="36" ry="18"/>
<text text-anchor="middle" x="450" y="-662.3" font-family="Times,serif" font-size="14.00">PLK1</text>
</g>
<!-- INCENP&#45;&gt;PLK1 -->
<g id="edge45" class="edge">
<title>INCENP&#45;&gt;PLK1</title>
<path fill="none" stroke="green" d="M396.24,-720.76C405.38,-711.62 416.94,-700.06 427,-690"/>
<polygon fill="green" stroke="green" points="429.74,-692.21 434.33,-682.67 424.79,-687.26 429.74,-692.21"/>
</g>
<!-- PLK1&#45;&gt;VIM -->
<g id="edge46" class="edge">
<title>PLK1&#45;&gt;VIM</title>
<path fill="none" stroke="green" d="M467.39,-650.15C479.15,-640.12 494.83,-626.73 507.81,-615.65"/>
<polygon fill="green" stroke="green" points="510.14,-618.26 515.47,-609.11 505.6,-612.94 510.14,-618.26"/>
</g>
<!-- PLK1&#45;&gt;TP53 -->
<g id="edge47" class="edge">
<title>PLK1&#45;&gt;TP53</title>
<path fill="none" stroke="red" d="M447.16,-648.04C440.43,-609.21 422.08,-511.07 396,-432 392.52,-421.45 387.75,-410.12 383.46,-400.65"/>
<polygon fill="red" stroke="red" points="377.14,-398.88 386.22,-394.7 387.06,-396.52 377.97,-400.69 377.14,-398.88"/>
<polyline fill="none" stroke="red" points="381.26,-395.88 383.35,-400.42 "/>
</g>
<!-- PLK1&#45;&gt;CDK1 -->
<g id="edge58" class="edge">
<title>PLK1&#45;&gt;CDK1</title>
<path fill="none" stroke="green" d="M458.76,-683.72C463.03,-702.92 462.97,-734.55 448,-756 432.42,-778.32 404.52,-791.86 380.36,-799.65"/>
<polygon fill="green" stroke="green" points="379.21,-796.35 370.62,-802.56 381.21,-803.05 379.21,-796.35"/>
</g>
<!-- FOS&#45;&gt;TP53 -->
<g id="edge54" class="edge">
<title>FOS&#45;&gt;TP53</title>
<path fill="none" stroke="red" d="M319.75,-433.81C329.86,-423.41 343.35,-409.52 354.22,-398.33"/>
<polygon fill="red" stroke="red" points="353.52,-391.88 360.69,-398.85 359.3,-400.28 352.13,-393.31 353.52,-391.88"/>
<polyline fill="none" stroke="red" points="357.8,-394.64 354.32,-398.23 "/>
</g>
<!-- FOS&#45;&gt;CDK1 -->
<g id="edge49" class="edge">
<title>FOS&#45;&gt;CDK1</title>
<path fill="none" stroke="green" d="M293.62,-466.72C276.48,-492.01 246,-543.88 246,-593 246,-667 246,-667 246,-667 246,-707.97 247.59,-721.7 270,-756 278.75,-769.39 292,-780.98 304.33,-789.88"/>
<polygon fill="green" stroke="green" points="302.43,-792.82 312.66,-795.59 306.4,-787.05 302.43,-792.82"/>
</g>
<!-- CDK1&#45;&gt;VIM -->
<g id="edge51" class="edge">
<title>CDK1&#45;&gt;VIM</title>
<path fill="none" stroke="purple" d="M371.12,-803.07C400.75,-796.37 442.46,-782.71 469,-756 505.37,-719.4 521.3,-659.37 527.84,-623.87"/>
<polygon fill="purple" stroke="purple" points="527.85,-623.82 524.91,-617.24 529.85,-611.99 532.8,-618.57 527.85,-623.82"/>
</g>
<!-- CDK1&#45;&gt;LATS1 -->
<g id="edge50" class="edge">
<title>CDK1&#45;&gt;LATS1</title>
<path fill="none" stroke="green" d="M301.7,-802.29C274.68,-795.25 238.02,-781.52 216,-756 124.16,-649.54 132,-591.6 132,-451 132,-451 132,-451 132,-305 132,-257.55 167.17,-212.05 192,-185.85"/>
<polygon fill="green" stroke="green" points="194.52,-188.27 199,-178.67 189.51,-183.38 194.52,-188.27"/>
</g>
<!-- CDK1&#45;&gt;TP53 -->
<g id="edge56" class="edge">
<title>CDK1&#45;&gt;TP53</title>
<path fill="none" stroke="green" d="M322.52,-793.01C317.79,-782.62 313.76,-768.69 312,-756 309.8,-740.15 310.79,-735.95 312,-720 320.95,-601.95 347.09,-462.87 362.67,-405.64"/>
<polygon fill="green" stroke="green" points="366.07,-406.5 365.46,-395.93 359.34,-404.58 366.07,-406.5"/>
</g>
<!-- CDK1&#45;&gt;INCENP -->
<g id="edge57" class="edge">
<title>CDK1&#45;&gt;INCENP</title>
<path fill="none" stroke="green" d="M346.43,-792.41C351.67,-784.08 358.13,-773.8 363.98,-764.49"/>
<polygon fill="green" stroke="green" points="366.98,-766.29 369.34,-755.96 361.06,-762.56 366.98,-766.29"/>
</g>
<!-- CDK1&#45;&gt;PLK1 -->
<g id="edge59" class="edge">
<title>CDK1&#45;&gt;PLK1</title>
<path fill="none" stroke="green" d="M366.63,-799.06C387.9,-791.18 414.81,-777.77 430,-756 442.5,-738.09 444.6,-713.09 445.43,-694.15"/>
<polygon fill="green" stroke="green" points="448.93,-694.19 445.83,-684.06 441.94,-693.91 448.93,-694.19"/>
</g>
<!-- MAP3K7&#45;&gt;MAP4K4 -->
<g id="edge64" class="edge">
<title>MAP3K7&#45;&gt;MAP4K4</title>
<path fill="none" stroke="green" d="M849.29,-180.27C848.58,-204.71 842.84,-249.63 836.97,-278.37"/>
<polygon fill="green" stroke="green" points="833.55,-277.63 834.81,-288.15 840.38,-279.14 833.55,-277.63"/>
</g>
<!-- MAP3K7&#45;&gt;MAP3K1 -->
<g id="edge68" class="edge">
<title>MAP3K7&#45;&gt;MAP3K1</title>
<path fill="none" stroke="green" d="M868.1,-178.59C877.78,-187.36 889.02,-198.51 898.26,-208.43"/>
<polygon fill="green" stroke="green" points="895.86,-211 905.18,-216.05 901.05,-206.3 895.86,-211"/>
</g>
<!-- MAP3K7&#45;&gt;RAP1A -->
<g id="edge61" class="edge">
<title>MAP3K7&#45;&gt;RAP1A</title>
<path fill="none" stroke="green" d="M826.14,-145.46C812.94,-135.63 795.7,-122.8 781.27,-112.06"/>
<polygon fill="green" stroke="green" points="783.27,-109.18 773.16,-106.01 779.09,-114.79 783.27,-109.18"/>
</g>
<!-- RAP1A&#45;&gt;CDH1 -->
<g id="edge62" class="edge">
<title>RAP1A&#45;&gt;CDH1</title>
<path fill="none" stroke="green" d="M755.44,-108.45C754.67,-116.36 752.97,-125.88 750.84,-134.63"/>
<polygon fill="green" stroke="green" points="747.43,-133.84 748.16,-144.41 754.18,-135.69 747.43,-133.84"/>
</g>
<!-- RAP1A&#45;&gt;CDC42 -->
<g id="edge65" class="edge">
<title>RAP1A&#45;&gt;CDC42</title>
<path fill="none" stroke="green" d="M795.49,-90.79C883.58,-92.81 1078,-111.08 1078,-233 1078,-811 1078,-811 1078,-811 1078,-857.12 1046.45,-902.76 1024.01,-929.39"/>
<polygon fill="green" stroke="green" points="1021.29,-927.18 1017.38,-937.02 1026.58,-931.76 1021.29,-927.18"/>
</g>
<!-- RAP1A&#45;&gt;ITGB1 -->
<g id="edge66" class="edge">
<title>RAP1A&#45;&gt;ITGB1</title>
<path fill="none" stroke="green" d="M720.93,-78.2C714.66,-76.12 708.13,-73.98 702,-72 658.48,-57.97 608.51,-42.46 574.06,-31.86"/>
<polygon fill="green" stroke="green" points="574.92,-28.47 564.33,-28.87 572.86,-35.16 574.92,-28.47"/>
</g>
<!-- GADD45A&#45;&gt;CDK1 -->
<g id="edge74" class="edge">
<title>GADD45A&#45;&gt;CDK1</title>
<path fill="none" stroke="red" d="M348.65,-322.56C302.76,-354.02 208,-429.99 208,-521 208,-667 208,-667 208,-667 208,-710.37 219.22,-723.56 248,-756 263.27,-773.22 285.51,-786.55 303.81,-795.53"/>
<polygon fill="red" stroke="red" points="309.64,-792.78 305.31,-801.8 303.51,-800.93 307.83,-791.92 309.64,-792.78"/>
<polyline fill="none" stroke="red" points="308.37,-797.72 303.87,-795.56 "/>
</g>
<!-- P06493_P14635 -->
<g id="node27" class="node">
<title>P06493_P14635</title>
<ellipse fill="lightgray" stroke="black" cx="373" cy="-234" rx="86.38" ry="18"/>
<text text-anchor="middle" x="373" y="-230.3" font-family="Times,serif" font-size="14.00">P06493_P14635</text>
</g>
<!-- GADD45A&#45;&gt;P06493_P14635 -->
<g id="edge70" class="edge">
<title>GADD45A&#45;&gt;P06493_P14635</title>
<path fill="none" stroke="red" d="M373,-287.7C373,-278.46 373,-266.98 373,-257.11"/>
<polygon fill="red" stroke="red" points="368,-253.1 378,-253.1 378,-255.1 368,-255.1 368,-253.1"/>
<polyline fill="none" stroke="red" points="373,-252.1 373,-257.1 "/>
</g>
<!-- P06493_P14635&#45;&gt;CDH1 -->
<g id="edge71" class="edge">
<title>P06493_P14635&#45;&gt;CDH1</title>
<path fill="none" stroke="green" d="M434.26,-221.28C507.66,-207.24 628.89,-184.06 694.12,-171.58"/>
<polygon fill="green" stroke="green" points="694.93,-174.99 704.1,-169.68 693.62,-168.12 694.93,-174.99"/>
</g>
<!-- P06493_P14635&#45;&gt;LATS1 -->
<g id="edge72" class="edge">
<title>P06493_P14635&#45;&gt;LATS1</title>
<path fill="none" stroke="green" d="M338.16,-217.46C312.84,-206.18 278.65,-190.93 252.88,-179.44"/>
<polygon fill="green" stroke="green" points="254.01,-176.11 243.45,-175.24 251.16,-182.51 254.01,-176.11"/>
</g>
<!-- SRC -->
<g id="node28" class="node">
<title>SRC</title>
<ellipse fill="lightgray" stroke="black" cx="280" cy="-1170" rx="30.59" ry="18"/>
<text text-anchor="middle" x="280" y="-1166.3" font-family="Times,serif" font-size="14.00">SRC</text>
</g>
</g>
</svg>
