<?xml version="1.0" encoding="UTF-8" standalone="no"?>
<!DOCTYPE svg PUBLIC "-//W3C//DTD SVG 1.1//EN"
 "http://www.w3.org/Graphics/SVG/1.1/DTD/svg11.dtd">
<!-- Generated by graphviz version 2.43.0 (0)
 -->
<!-- Title: %3 Pages: 1 -->
<svg width="1463pt" height="188pt"
 viewBox="0.00 0.00 1462.59 188.00" xmlns="http://www.w3.org/2000/svg" xmlns:xlink="http://www.w3.org/1999/xlink">
<g id="graph0" class="graph" transform="scale(1 1) rotate(0) translate(4 184)">
<title>%3</title>
<polygon fill="white" stroke="transparent" points="-4,4 -4,-184 1458.59,-184 1458.59,4 -4,4"/>
<!-- SRC -->
<g id="node1" class="node">
<title>SRC</title>
<ellipse fill="lightgray" stroke="black" cx="809.75" cy="-90" rx="30.59" ry="18"/>
<text text-anchor="middle" x="809.75" y="-86.3" font-family="Times,serif" font-size="14.00">SRC</text>
</g>
<!-- PTK2 -->
<g id="node2" class="node">
<title>PTK2</title>
<ellipse fill="none" stroke="black" cx="35.75" cy="-18" rx="36" ry="18"/>
<text text-anchor="middle" x="35.75" y="-14.3" font-family="Times,serif" font-size="14.00">PTK2</text>
</g>
<!-- SRC&#45;&gt;PTK2 -->
<g id="edge1" class="edge">
<title>SRC&#45;&gt;PTK2</title>
<path fill="none" stroke="green" d="M779.15,-88.06C657.51,-83.95 209.46,-66.35 71.75,-36 70.65,-35.76 69.54,-35.49 68.42,-35.21"/>
<polygon fill="green" stroke="green" points="69.03,-31.74 58.44,-32.24 67.03,-38.45 69.03,-31.74"/>
</g>
<!-- CDH2 -->
<g id="node3" class="node">
<title>CDH2</title>
<ellipse fill="none" stroke="black" cx="127.75" cy="-18" rx="38.19" ry="18"/>
<text text-anchor="middle" x="127.75" y="-14.3" font-family="Times,serif" font-size="14.00">CDH2</text>
</g>
<!-- SRC&#45;&gt;CDH2 -->
<g id="edge2" class="edge">
<title>SRC&#45;&gt;CDH2</title>
<path fill="none" stroke="red" d="M778.98,-89.21C686.55,-89.24 403.59,-85.01 175.75,-36 170.82,-34.94 165.71,-33.51 160.74,-31.93"/>
<polygon fill="red" stroke="red" points="155.2,-35.36 158.35,-25.87 160.25,-26.5 157.1,-35.99 155.2,-35.36"/>
<polyline fill="none" stroke="red" points="155.83,-30.3 160.57,-31.87 "/>
</g>
<!-- PTK2B -->
<g id="node4" class="node">
<title>PTK2B</title>
<ellipse fill="none" stroke="black" cx="226.75" cy="-18" rx="42.49" ry="18"/>
<text text-anchor="middle" x="226.75" y="-14.3" font-family="Times,serif" font-size="14.00">PTK2B</text>
</g>
<!-- SRC&#45;&gt;PTK2B -->
<g id="edge3" class="edge">
<title>SRC&#45;&gt;PTK2B</title>
<path fill="none" stroke="green" d="M779.12,-88.43C695.8,-86.33 459.59,-76.78 268.75,-36 267.02,-35.63 265.27,-35.22 263.52,-34.79"/>
<polygon fill="green" stroke="green" points="264.07,-31.31 253.5,-32 262.2,-38.05 264.07,-31.31"/>
</g>
<!-- DAB1 -->
<g id="node5" class="node">
<title>DAB1</title>
<ellipse fill="none" stroke="black" cx="323.75" cy="-18" rx="37.09" ry="18"/>
<text text-anchor="middle" x="323.75" y="-14.3" font-family="Times,serif" font-size="14.00">DAB1</text>
</g>
<!-- SRC&#45;&gt;DAB1 -->
<g id="edge4" class="edge">
<title>SRC&#45;&gt;DAB1</title>
<path fill="none" stroke="green" d="M779.17,-87.78C706.97,-84.36 520.64,-72.44 369.75,-36 366.78,-35.28 363.74,-34.43 360.71,-33.5"/>
<polygon fill="green" stroke="green" points="361.75,-30.16 351.15,-30.32 359.53,-36.8 361.75,-30.16"/>
</g>
<!-- CSK -->
<g id="node6" class="node">
<title>CSK</title>
<ellipse fill="none" stroke="black" cx="409.75" cy="-18" rx="30.59" ry="18"/>
<text text-anchor="middle" x="409.75" y="-14.3" font-family="Times,serif" font-size="14.00">CSK</text>
</g>
<!-- SRC&#45;&gt;CSK -->
<g id="edge5" class="edge">
<title>SRC&#45;&gt;CSK</title>
<path fill="none" stroke="darkorange" d="M779.32,-87.47C715.2,-83.44 562.99,-70.36 440.75,-36 440.16,-35.83 439.56,-35.66 438.97,-35.48"/>
<polygon fill="darkorange" stroke="darkorange" points="428.04,-35.94 430.65,-28.38 438.21,-30.99 435.6,-38.55 428.04,-35.94"/>
<polyline fill="none" stroke="darkorange" points="436.91,-34.77 438.8,-35.42 "/>
</g>
<!-- CTNNB1 -->
<g id="node7" class="node">
<title>CTNNB1</title>
<ellipse fill="none" stroke="black" cx="510.75" cy="-18" rx="51.99" ry="18"/>
<text text-anchor="middle" x="510.75" y="-14.3" font-family="Times,serif" font-size="14.00">CTNNB1</text>
</g>
<!-- SRC&#45;&gt;CTNNB1 -->
<g id="edge6" class="edge">
<title>SRC&#45;&gt;CTNNB1</title>
<path fill="none" stroke="darkorange" d="M781.42,-83.2C736.71,-73.92 647.1,-54.88 571.75,-36 567.67,-34.98 563.45,-33.88 559.21,-32.76"/>
<polygon fill="darkorange" stroke="darkorange" points="548.34,-33.96 550.43,-26.24 558.16,-28.33 556.07,-36.05 548.34,-33.96"/>
<polyline fill="none" stroke="darkorange" points="557.11,-32.19 559.04,-32.71 "/>
</g>
<!-- CDH1 -->
<g id="node8" class="node">
<title>CDH1</title>
<ellipse fill="none" stroke="black" cx="618.75" cy="-18" rx="38.19" ry="18"/>
<text text-anchor="middle" x="618.75" y="-14.3" font-family="Times,serif" font-size="14.00">CDH1</text>
</g>
<!-- SRC&#45;&gt;CDH1 -->
<g id="edge8" class="edge">
<title>SRC&#45;&gt;CDH1</title>
<path fill="none" stroke="green" d="M784.38,-79.7C751.97,-67.82 695.52,-47.14 657.65,-33.26"/>
<polygon fill="green" stroke="green" points="658.57,-29.87 647.97,-29.71 656.16,-36.44 658.57,-29.87"/>
</g>
<!-- ITGB7 -->
<g id="node9" class="node">
<title>ITGB7</title>
<ellipse fill="none" stroke="black" cx="715.75" cy="-18" rx="40.09" ry="18"/>
<text text-anchor="middle" x="715.75" y="-14.3" font-family="Times,serif" font-size="14.00">ITGB7</text>
</g>
<!-- SRC&#45;&gt;ITGB7 -->
<g id="edge12" class="edge">
<title>SRC&#45;&gt;ITGB7</title>
<path fill="none" stroke="green" d="M788.11,-76.81C773.36,-66.96 754.05,-52.84 739,-41.02"/>
<polygon fill="green" stroke="green" points="741.13,-38.25 731.14,-34.74 736.76,-43.71 741.13,-38.25"/>
</g>
<!-- ABL1 -->
<g id="node10" class="node">
<title>ABL1</title>
<ellipse fill="none" stroke="black" cx="809.75" cy="-18" rx="36" ry="18"/>
<text text-anchor="middle" x="809.75" y="-14.3" font-family="Times,serif" font-size="14.00">ABL1</text>
</g>
<!-- SRC&#45;&gt;ABL1 -->
<g id="edge14" class="edge">
<title>SRC&#45;&gt;ABL1</title>
<path fill="none" stroke="green" d="M803.87,-72.05C803.04,-64.23 802.8,-54.75 803.16,-45.98"/>
<polygon fill="green" stroke="green" points="806.66,-46.01 803.89,-35.79 799.68,-45.51 806.66,-46.01"/>
</g>
<!-- PRKCA -->
<g id="node11" class="node">
<title>PRKCA</title>
<ellipse fill="none" stroke="black" cx="907.75" cy="-18" rx="44.39" ry="18"/>
<text text-anchor="middle" x="907.75" y="-14.3" font-family="Times,serif" font-size="14.00">PRKCA</text>
</g>
<!-- SRC&#45;&gt;PRKCA -->
<g id="edge16" class="edge">
<title>SRC&#45;&gt;PRKCA</title>
<path fill="none" stroke="green" d="M824.89,-74.15C838.14,-63.77 857.55,-49.78 874.33,-38.49"/>
<polygon fill="green" stroke="green" points="876.41,-41.31 882.82,-32.87 872.55,-35.48 876.41,-41.31"/>
</g>
<!-- PRKACA -->
<g id="node12" class="node">
<title>PRKACA</title>
<ellipse fill="none" stroke="black" cx="1019.75" cy="-18" rx="50.09" ry="18"/>
<text text-anchor="middle" x="1019.75" y="-14.3" font-family="Times,serif" font-size="14.00">PRKACA</text>
</g>
<!-- SRC&#45;&gt;PRKACA -->
<g id="edge17" class="edge">
<title>SRC&#45;&gt;PRKACA</title>
<path fill="none" stroke="green" d="M834.52,-79.12C868.44,-67.06 929.65,-46.58 972.45,-32.93"/>
<polygon fill="green" stroke="green" points="973.63,-36.23 982.1,-29.87 971.51,-29.55 973.63,-36.23"/>
</g>
<!-- AKT1 -->
<g id="node13" class="node">
<title>AKT1</title>
<ellipse fill="none" stroke="black" cx="1123.75" cy="-18" rx="36" ry="18"/>
<text text-anchor="middle" x="1123.75" y="-14.3" font-family="Times,serif" font-size="14.00">AKT1</text>
</g>
<!-- SRC&#45;&gt;AKT1 -->
<g id="edge18" class="edge">
<title>SRC&#45;&gt;AKT1</title>
<path fill="none" stroke="green" d="M838.73,-84.04C887.28,-76.25 987.13,-59.57 1069.75,-36 1074.32,-34.69 1079.09,-33.13 1083.84,-31.48"/>
<polygon fill="green" stroke="green" points="1085.25,-34.7 1093.49,-28.04 1082.9,-28.1 1085.25,-34.7"/>
</g>
<!-- PAK2 -->
<g id="node14" class="node">
<title>PAK2</title>
<ellipse fill="none" stroke="black" cx="1212.75" cy="-18" rx="36" ry="18"/>
<text text-anchor="middle" x="1212.75" y="-14.3" font-family="Times,serif" font-size="14.00">PAK2</text>
</g>
<!-- SRC&#45;&gt;PAK2 -->
<g id="edge19" class="edge">
<title>SRC&#45;&gt;PAK2</title>
<path fill="none" stroke="green" d="M839.99,-86.82C902.33,-81.82 1049.34,-67.46 1168.75,-36 1171.33,-35.32 1173.97,-34.54 1176.61,-33.69"/>
<polygon fill="green" stroke="green" points="1177.77,-36.99 1186.07,-30.39 1175.47,-30.38 1177.77,-36.99"/>
</g>
<!-- STAT3 -->
<g id="node16" class="node">
<title>STAT3</title>
<ellipse fill="none" stroke="black" cx="1306.75" cy="-18" rx="40.09" ry="18"/>
<text text-anchor="middle" x="1306.75" y="-14.3" font-family="Times,serif" font-size="14.00">STAT3</text>
</g>
<!-- SRC&#45;&gt;STAT3 -->
<g id="edge24" class="edge">
<title>SRC&#45;&gt;STAT3</title>
<path fill="none" stroke="green" d="M840.21,-87.42C912.27,-83.44 1097.61,-70.73 1248.75,-36 1253.72,-34.86 1258.89,-33.39 1264.03,-31.79"/>
<polygon fill="green" stroke="green" points="1265.37,-35.03 1273.81,-28.62 1263.21,-28.38 1265.37,-35.03"/>
</g>
<!-- PRKCD -->
<g id="node17" class="node">
<title>PRKCD</title>
<ellipse fill="none" stroke="black" cx="1409.75" cy="-18" rx="44.69" ry="18"/>
<text text-anchor="middle" x="1409.75" y="-14.3" font-family="Times,serif" font-size="14.00">PRKCD</text>
</g>
<!-- SRC&#45;&gt;PRKCD -->
<g id="edge25" class="edge">
<title>SRC&#45;&gt;PRKCD</title>
<path fill="none" stroke="green" d="M840.17,-88.13C922.69,-85.4 1156.37,-74.77 1346.75,-36 1352.36,-34.86 1358.22,-33.35 1364.02,-31.71"/>
<polygon fill="green" stroke="green" points="1365.09,-35.05 1373.69,-28.86 1363.11,-28.33 1365.09,-35.05"/>
</g>
<!-- PTK2&#45;&gt;SRC -->
<g id="edge7" class="edge">
<title>PTK2&#45;&gt;SRC</title>
<path fill="none" stroke="green" d="M65.37,-28.42C73.29,-31.33 81.75,-34.24 89.75,-36 221.41,-65.01 636.78,-82.38 769,-87.44"/>
<polygon fill="green" stroke="green" points="768.99,-90.94 779.11,-87.83 769.25,-83.95 768.99,-90.94"/>
</g>
<!-- PTK2B&#45;&gt;SRC -->
<g id="edge9" class="edge">
<title>PTK2B&#45;&gt;SRC</title>
<path fill="none" stroke="green" d="M260.97,-28.78C269.4,-31.51 278.35,-34.21 286.75,-36 464.03,-73.88 680.46,-84.81 769.12,-87.86"/>
<polygon fill="green" stroke="green" points="769.18,-91.37 779.29,-88.2 769.41,-84.37 769.18,-91.37"/>
</g>
<!-- CSK&#45;&gt;SRC -->
<g id="edge10" class="edge">
<title>CSK&#45;&gt;SRC</title>
<path fill="none" stroke="darkorange" d="M435.71,-27.62C443.17,-30.67 451.19,-33.88 458.75,-36 569.01,-66.99 703.65,-80.67 769.65,-86.01"/>
<polygon fill="darkorange" stroke="darkorange" points="779.95,-82.81 779.32,-90.79 771.35,-90.16 771.97,-82.18 779.95,-82.81"/>
<polyline fill="none" stroke="darkorange" points="771.66,-86.17 769.67,-86.01 "/>
</g>
<!-- ITGB7&#45;&gt;SRC -->
<g id="edge11" class="edge">
<title>ITGB7&#45;&gt;SRC</title>
<path fill="none" stroke="green" d="M739.68,-32.74C754.3,-42.62 772.72,-56.14 787.1,-67.45"/>
<polygon fill="green" stroke="green" points="785.04,-70.29 795.03,-73.81 789.42,-64.83 785.04,-70.29"/>
</g>
<!-- ABL1&#45;&gt;SRC -->
<g id="edge13" class="edge">
<title>ABL1&#45;&gt;SRC</title>
<path fill="none" stroke="green" d="M815.61,-35.79C816.45,-43.59 816.69,-53.07 816.34,-61.85"/>
<polygon fill="green" stroke="green" points="812.84,-61.83 815.63,-72.05 819.82,-62.33 812.84,-61.83"/>
</g>
<!-- PRKCA&#45;&gt;SRC -->
<g id="edge15" class="edge">
<title>PRKCA&#45;&gt;SRC</title>
<path fill="none" stroke="darkorange" d="M891.27,-34.88C877.23,-45.81 856.96,-60.33 840.07,-71.58"/>
<polygon fill="darkorange" stroke="darkorange" points="833.78,-80.47 829.4,-73.78 836.09,-69.4 840.47,-76.09 833.78,-80.47"/>
<polyline fill="none" stroke="darkorange" points="838.28,-72.74 839.96,-71.65 "/>
</g>
<!-- PRKACA&#45;&gt;SRC -->
<g id="edge20" class="edge">
<title>PRKACA&#45;&gt;SRC</title>
<path fill="none" stroke="green" d="M987.01,-31.69C948.9,-45.06 886.39,-65.86 846.62,-78.38"/>
<polygon fill="green" stroke="green" points="845.52,-75.05 837.02,-81.38 847.61,-81.74 845.52,-75.05"/>
</g>
<!-- AKT1&#45;&gt;SRC -->
<g id="edge21" class="edge">
<title>AKT1&#45;&gt;SRC</title>
<path fill="none" stroke="green" d="M1100.44,-31.91C1096.26,-33.4 1091.92,-34.81 1087.75,-36 1004.75,-59.67 904.38,-76.4 849.68,-84.14"/>
<polygon fill="green" stroke="green" points="849.12,-80.69 839.69,-85.53 850.08,-87.62 849.12,-80.69"/>
</g>
<!-- MAPK8 -->
<g id="node15" class="node">
<title>MAPK8</title>
<ellipse fill="none" stroke="black" cx="752.75" cy="-162" rx="45.49" ry="18"/>
<text text-anchor="middle" x="752.75" y="-158.3" font-family="Times,serif" font-size="14.00">MAPK8</text>
</g>
<!-- MAPK8&#45;&gt;SRC -->
<g id="edge22" class="edge">
<title>MAPK8&#45;&gt;SRC</title>
<path fill="none" stroke="green" d="M765.97,-144.76C773.26,-135.8 782.46,-124.51 790.53,-114.59"/>
<polygon fill="green" stroke="green" points="793.39,-116.63 796.99,-106.67 787.96,-112.21 793.39,-116.63"/>
</g>
<!-- STAT3&#45;&gt;SRC -->
<g id="edge23" class="edge">
<title>STAT3&#45;&gt;SRC</title>
<path fill="none" stroke="green" d="M1281.13,-32.02C1276.41,-33.53 1271.49,-34.91 1266.75,-36 1115.9,-70.66 930.97,-83.39 850.33,-87.4"/>
<polygon fill="green" stroke="green" points="849.94,-83.91 840.12,-87.88 850.27,-90.9 849.94,-83.91"/>
</g>
<!-- PRKCD&#45;&gt;SRC -->
<g id="edge26" class="edge">
<title>PRKCD&#45;&gt;SRC</title>
<path fill="none" stroke="darkorange" d="M1381.15,-31.9C1375.76,-33.47 1370.14,-34.9 1364.75,-36 1175.37,-74.56 943.14,-85.29 850.51,-88.08"/>
<polygon fill="darkorange" stroke="darkorange" points="840.55,-92.37 840.32,-84.37 848.32,-84.14 848.55,-92.14 840.55,-92.37"/>
<polyline fill="none" stroke="darkorange" points="848.43,-88.14 850.43,-88.09 "/>
</g>
<!-- AMOTL2 -->
<g id="node18" class="node">
<title>AMOTL2</title>
<ellipse fill="none" stroke="black" cx="867.75" cy="-162" rx="51.19" ry="18"/>
<text text-anchor="middle" x="867.75" y="-158.3" font-family="Times,serif" font-size="14.00">AMOTL2</text>
</g>
<!-- AMOTL2&#45;&gt;SRC -->
<g id="edge27" class="edge">
<title>AMOTL2&#45;&gt;SRC</title>
<path fill="none" stroke="green" d="M854,-144.41C846.57,-135.44 837.27,-124.21 829.11,-114.37"/>
<polygon fill="green" stroke="green" points="831.67,-111.98 822.6,-106.51 826.28,-116.44 831.67,-111.98"/>
</g>
</g>
</svg>
