<?xml version="1.0" encoding="UTF-8" standalone="no"?>
<!DOCTYPE svg PUBLIC "-//W3C//DTD SVG 1.1//EN"
 "http://www.w3.org/Graphics/SVG/1.1/DTD/svg11.dtd">
<!-- Generated by graphviz version 2.43.0 (0)
 -->
<!-- Title: %3 Pages: 1 -->
<svg width="1062pt" height="188pt"
 viewBox="0.00 0.00 1061.99 188.00" xmlns="http://www.w3.org/2000/svg" xmlns:xlink="http://www.w3.org/1999/xlink">
<g id="graph0" class="graph" transform="scale(1 1) rotate(0) translate(4 184)">
<title>%3</title>
<polygon fill="white" stroke="transparent" points="-4,4 -4,-184 1057.99,-184 1057.99,4 -4,4"/>
<!-- MAPK1 -->
<g id="node1" class="node">
<title>MAPK1</title>
<ellipse fill="none" stroke="black" cx="45.5" cy="-162" rx="45.49" ry="18"/>
<text text-anchor="middle" x="45.5" y="-158.3" font-family="Times,serif" font-size="14.00">MAPK1</text>
</g>
<!-- MYC -->
<g id="node2" class="node">
<title>MYC</title>
<ellipse fill="lightgray" stroke="black" cx="528.5" cy="-90" rx="32.49" ry="18"/>
<text text-anchor="middle" x="528.5" y="-86.3" font-family="Times,serif" font-size="14.00">MYC</text>
</g>
<!-- MAPK1&#45;&gt;MYC -->
<g id="edge1" class="edge">
<title>MAPK1&#45;&gt;MYC</title>
<path fill="none" stroke="green" d="M78.99,-149.62C86.03,-147.52 93.46,-145.51 100.5,-144 239.8,-114.09 408.5,-99.36 485.92,-93.77"/>
<polygon fill="green" stroke="green" points="486.5,-97.24 496.23,-93.04 486,-90.26 486.5,-97.24"/>
</g>
<!-- CCND1 -->
<g id="node10" class="node">
<title>CCND1</title>
<ellipse fill="none" stroke="black" cx="528.5" cy="-18" rx="45.49" ry="18"/>
<text text-anchor="middle" x="528.5" y="-14.3" font-family="Times,serif" font-size="14.00">CCND1</text>
</g>
<!-- MYC&#45;&gt;CCND1 -->
<g id="edge9" class="edge">
<title>MYC&#45;&gt;CCND1</title>
<path fill="none" stroke="green" d="M528.5,-71.7C528.5,-63.98 528.5,-54.71 528.5,-46.11"/>
<polygon fill="green" stroke="green" points="532,-46.1 528.5,-36.1 525,-46.1 532,-46.1"/>
</g>
<!-- MAPK3 -->
<g id="node3" class="node">
<title>MAPK3</title>
<ellipse fill="none" stroke="black" cx="154.5" cy="-162" rx="45.49" ry="18"/>
<text text-anchor="middle" x="154.5" y="-158.3" font-family="Times,serif" font-size="14.00">MAPK3</text>
</g>
<!-- MAPK3&#45;&gt;MYC -->
<g id="edge2" class="edge">
<title>MAPK3&#45;&gt;MYC</title>
<path fill="none" stroke="green" d="M188.33,-149.76C195.28,-147.67 202.59,-145.63 209.5,-144 307.88,-120.73 425.7,-103.97 486.93,-96.08"/>
<polygon fill="green" stroke="green" points="487.5,-99.54 496.97,-94.8 486.61,-92.59 487.5,-99.54"/>
</g>
<!-- GSK3B -->
<g id="node4" class="node">
<title>GSK3B</title>
<ellipse fill="none" stroke="black" cx="262.5" cy="-162" rx="44.39" ry="18"/>
<text text-anchor="middle" x="262.5" y="-158.3" font-family="Times,serif" font-size="14.00">GSK3B</text>
</g>
<!-- GSK3B&#45;&gt;MYC -->
<g id="edge3" class="edge">
<title>GSK3B&#45;&gt;MYC</title>
<path fill="none" stroke="red" d="M295.82,-150.17C302.64,-148.05 309.78,-145.89 316.5,-144 378.6,-126.48 451.76,-108.84 493.87,-98.98"/>
<polygon fill="red" stroke="red" points="496.74,-93.18 499.02,-102.91 497.07,-103.37 494.79,-93.63 496.74,-93.18"/>
<polyline fill="none" stroke="red" points="498.85,-97.82 493.98,-98.96 "/>
</g>
<!-- SIGNOR&#45;PF4 -->
<g id="node5" class="node">
<title>SIGNOR&#45;PF4</title>
<ellipse fill="none" stroke="black" cx="396.5" cy="-162" rx="71.49" ry="18"/>
<text text-anchor="middle" x="396.5" y="-158.3" font-family="Times,serif" font-size="14.00">SIGNOR&#45;PF4</text>
</g>
<!-- SIGNOR&#45;PF4&#45;&gt;MYC -->
<g id="edge4" class="edge">
<title>SIGNOR&#45;PF4&#45;&gt;MYC</title>
<path fill="none" stroke="green" d="M425.79,-145.46C446.83,-134.31 475.17,-119.28 496.75,-107.84"/>
<polygon fill="green" stroke="green" points="498.64,-110.79 505.84,-103.02 495.36,-104.61 498.64,-110.79"/>
</g>
<!-- TRAF6 -->
<g id="node6" class="node">
<title>TRAF6</title>
<ellipse fill="none" stroke="black" cx="528.5" cy="-162" rx="42.49" ry="18"/>
<text text-anchor="middle" x="528.5" y="-158.3" font-family="Times,serif" font-size="14.00">TRAF6</text>
</g>
<!-- TRAF6&#45;&gt;MYC -->
<g id="edge5" class="edge">
<title>TRAF6&#45;&gt;MYC</title>
<path fill="none" stroke="red" d="M528.5,-143.7C528.5,-134.46 528.5,-122.98 528.5,-113.11"/>
<polygon fill="red" stroke="red" points="523.5,-109.1 533.5,-109.1 533.5,-111.1 523.5,-111.1 523.5,-109.1"/>
<polyline fill="none" stroke="red" points="528.5,-108.1 528.5,-113.1 "/>
</g>
<!-- EGFR -->
<g id="node7" class="node">
<title>EGFR</title>
<ellipse fill="none" stroke="black" cx="627.5" cy="-162" rx="38.19" ry="18"/>
<text text-anchor="middle" x="627.5" y="-158.3" font-family="Times,serif" font-size="14.00">EGFR</text>
</g>
<!-- EGFR&#45;&gt;MYC -->
<g id="edge6" class="edge">
<title>EGFR&#45;&gt;MYC</title>
<path fill="none" stroke="green" d="M606.98,-146.5C592.36,-136.16 572.53,-122.13 556.46,-110.77"/>
<polygon fill="green" stroke="green" points="558.16,-107.69 547.97,-104.77 554.12,-113.4 558.16,-107.69"/>
</g>
<!-- CTNNB1 -->
<g id="node8" class="node">
<title>CTNNB1</title>
<ellipse fill="none" stroke="black" cx="735.5" cy="-162" rx="51.99" ry="18"/>
<text text-anchor="middle" x="735.5" y="-158.3" font-family="Times,serif" font-size="14.00">CTNNB1</text>
</g>
<!-- CTNNB1&#45;&gt;MYC -->
<g id="edge7" class="edge">
<title>CTNNB1&#45;&gt;MYC</title>
<path fill="none" stroke="green" d="M699.44,-148.81C661.8,-136.08 603.08,-116.22 565.2,-103.41"/>
<polygon fill="green" stroke="green" points="566.17,-100.04 555.57,-100.16 563.92,-106.67 566.17,-100.04"/>
</g>
<!-- GSK3A -->
<g id="node9" class="node">
<title>GSK3A</title>
<ellipse fill="none" stroke="black" cx="849.5" cy="-162" rx="43.59" ry="18"/>
<text text-anchor="middle" x="849.5" y="-158.3" font-family="Times,serif" font-size="14.00">GSK3A</text>
</g>
<!-- GSK3A&#45;&gt;MYC -->
<g id="edge8" class="edge">
<title>GSK3A&#45;&gt;MYC</title>
<path fill="none" stroke="red" d="M816.87,-149.89C810.17,-147.79 803.14,-145.72 796.5,-144 714.36,-122.78 616.18,-105.34 564.46,-96.76"/>
<polygon fill="red" stroke="red" points="559.47,-101 561.1,-91.13 563.08,-91.46 561.45,-101.33 559.47,-101"/>
<polyline fill="none" stroke="red" points="559.3,-95.9 564.23,-96.72 "/>
</g>
<!-- SIGNOR&#45;PF1 -->
<g id="node11" class="node">
<title>SIGNOR&#45;PF1</title>
<ellipse fill="none" stroke="black" cx="982.5" cy="-162" rx="71.49" ry="18"/>
<text text-anchor="middle" x="982.5" y="-158.3" font-family="Times,serif" font-size="14.00">SIGNOR&#45;PF1</text>
</g>
<!-- SIGNOR&#45;PF1&#45;&gt;MYC -->
<g id="edge10" class="edge">
<title>SIGNOR&#45;PF1&#45;&gt;MYC</title>
<path fill="none" stroke="green" d="M930.96,-149.5C921.51,-147.55 911.72,-145.63 902.5,-144 782.41,-122.76 639.45,-104.41 570.2,-95.96"/>
<polygon fill="green" stroke="green" points="570.48,-92.47 560.13,-94.74 569.64,-99.42 570.48,-92.47"/>
</g>
</g>
</svg>
