<?xml version="1.0" encoding="UTF-8" standalone="no"?>
<!DOCTYPE svg PUBLIC "-//W3C//DTD SVG 1.1//EN"
 "http://www.w3.org/Graphics/SVG/1.1/DTD/svg11.dtd">
<!-- Generated by graphviz version 2.43.0 (0)
 -->
<!-- Title: %3 Pages: 1 -->
<svg width="4015pt" height="836pt"
 viewBox="0.00 0.00 4014.90 836.00" xmlns="http://www.w3.org/2000/svg" xmlns:xlink="http://www.w3.org/1999/xlink">
<g id="graph0" class="graph" transform="scale(1 1) rotate(0) translate(4 832)">
<title>%3</title>
<polygon fill="white" stroke="transparent" points="-4,4 -4,-832 4010.9,-832 4010.9,4 -4,4"/>
<!-- MAPK14 -->
<g id="node1" class="node">
<title>MAPK14</title>
<ellipse fill="lightyellow" stroke="black" cx="3355" cy="-810" rx="51.19" ry="18"/>
<text text-anchor="middle" x="3355" y="-806.3" font-family="Times,serif" font-size="14.00">MAPK14</text>
</g>
<!-- SIGNOR&#45;PF24 -->
<g id="node2" class="node">
<title>SIGNOR&#45;PF24</title>
<ellipse fill="lightgray" stroke="black" cx="3103" cy="-738" rx="77.19" ry="18"/>
<text text-anchor="middle" x="3103" y="-734.3" font-family="Times,serif" font-size="14.00">SIGNOR&#45;PF24</text>
</g>
<!-- MAPK14&#45;&gt;SIGNOR&#45;PF24 -->
<g id="edge1" class="edge">
<title>MAPK14&#45;&gt;SIGNOR&#45;PF24</title>
<path fill="none" stroke="purple" d="M3313.99,-798.97C3271.87,-787.84 3206.17,-769.69 3159.23,-756.26"/>
<polygon fill="purple" stroke="purple" points="3158.96,-756.18 3152.09,-758.37 3147.43,-752.87 3154.3,-750.68 3158.96,-756.18"/>
</g>
<!-- NR3C1 -->
<g id="node3" class="node">
<title>NR3C1</title>
<ellipse fill="lightgray" stroke="black" cx="110" cy="-162" rx="44.39" ry="18"/>
<text text-anchor="middle" x="110" y="-158.3" font-family="Times,serif" font-size="14.00">NR3C1</text>
</g>
<!-- MAPK14&#45;&gt;NR3C1 -->
<g id="edge2" class="edge">
<title>MAPK14&#45;&gt;NR3C1</title>
<path fill="none" stroke="green" d="M3303.58,-808.67C2921.76,-806.14 539.61,-788.75 392,-756 297.02,-734.93 192,-764.29 192,-667 192,-667 192,-667 192,-305 192,-257.24 155.05,-212.69 130.57,-186.65"/>
<polygon fill="green" stroke="green" points="132.87,-183.99 123.43,-179.18 127.81,-188.83 132.87,-183.99"/>
</g>
<!-- FGFR1 -->
<g id="node4" class="node">
<title>FGFR1</title>
<ellipse fill="lightgray" stroke="black" cx="648" cy="-666" rx="43.59" ry="18"/>
<text text-anchor="middle" x="648" y="-662.3" font-family="Times,serif" font-size="14.00">FGFR1</text>
</g>
<!-- MAPK14&#45;&gt;FGFR1 -->
<g id="edge3" class="edge">
<title>MAPK14&#45;&gt;FGFR1</title>
<path fill="none" stroke="red" d="M3303.62,-808.64C2939.8,-805.98 764.96,-788.72 706,-756 680.06,-741.61 663.82,-710.17 655.33,-688.79"/>
<polygon fill="red" stroke="red" points="649.23,-686.85 658.57,-683.26 659.28,-685.12 649.95,-688.71 649.23,-686.85"/>
<polyline fill="none" stroke="red" points="653.54,-684.12 655.33,-688.78 "/>
</g>
<!-- TAB1 -->
<g id="node5" class="node">
<title>TAB1</title>
<ellipse fill="lightgray" stroke="black" cx="3463" cy="-18" rx="35.19" ry="18"/>
<text text-anchor="middle" x="3463" y="-14.3" font-family="Times,serif" font-size="14.00">TAB1</text>
</g>
<!-- MAPK14&#45;&gt;TAB1 -->
<g id="edge4" class="edge">
<title>MAPK14&#45;&gt;TAB1</title>
<path fill="none" stroke="red" d="M3399.3,-800.67C3429.64,-793.38 3469.11,-780.03 3497,-756 3530.89,-726.8 3544,-711.73 3544,-667 3544,-667 3544,-667 3544,-521 3544,-332.88 3482.01,-111.24 3466.07,-41.29"/>
<polygon fill="red" stroke="red" points="3460.26,-38.21 3470.02,-36.03 3470.45,-37.98 3460.69,-40.16 3460.26,-38.21"/>
<polyline fill="none" stroke="red" points="3464.92,-36.14 3466.01,-41.02 "/>
</g>
<!-- GSK3B -->
<g id="node6" class="node">
<title>GSK3B</title>
<ellipse fill="lightyellow" stroke="black" cx="1472" cy="-234" rx="44.39" ry="18"/>
<text text-anchor="middle" x="1472" y="-230.3" font-family="Times,serif" font-size="14.00">GSK3B</text>
</g>
<!-- MAPK14&#45;&gt;GSK3B -->
<g id="edge5" class="edge">
<title>MAPK14&#45;&gt;GSK3B</title>
<path fill="none" stroke="red" d="M3303.65,-809.17C2934.11,-810.27 692.42,-814.69 563,-756 514.29,-733.91 482,-720.48 482,-667 482,-667 482,-667 482,-449 482,-351.75 1227.36,-261.44 1424.64,-239.86"/>
<polygon fill="red" stroke="red" points="1428.22,-234.44 1429.3,-244.39 1427.31,-244.6 1426.23,-234.66 1428.22,-234.44"/>
<polyline fill="none" stroke="red" points="1429.75,-239.31 1424.78,-239.85 "/>
</g>
<!-- RPS6KA5 -->
<g id="node7" class="node">
<title>RPS6KA5</title>
<ellipse fill="lightgray" stroke="black" cx="3253" cy="-738" rx="54.69" ry="18"/>
<text text-anchor="middle" x="3253" y="-734.3" font-family="Times,serif" font-size="14.00">RPS6KA5</text>
</g>
<!-- MAPK14&#45;&gt;RPS6KA5 -->
<g id="edge6" class="edge">
<title>MAPK14&#45;&gt;RPS6KA5</title>
<path fill="none" stroke="green" d="M3332.62,-793.64C3318.37,-783.86 3299.71,-771.05 3284.04,-760.3"/>
<polygon fill="green" stroke="green" points="3285.91,-757.34 3275.68,-754.57 3281.95,-763.11 3285.91,-757.34"/>
</g>
<!-- PPARG -->
<g id="node8" class="node">
<title>PPARG</title>
<ellipse fill="lightgray" stroke="black" cx="761" cy="-594" rx="42.79" ry="18"/>
<text text-anchor="middle" x="761" y="-590.3" font-family="Times,serif" font-size="14.00">PPARG</text>
</g>
<!-- MAPK14&#45;&gt;PPARG -->
<g id="edge7" class="edge">
<title>MAPK14&#45;&gt;PPARG</title>
<path fill="none" stroke="green" d="M3303.46,-808.56C3048.96,-806.23 1924.67,-793.92 1577,-756 1235.67,-718.77 1151.62,-693.17 818,-612 813.53,-610.91 808.9,-609.69 804.28,-608.41"/>
<polygon fill="green" stroke="green" points="804.88,-604.94 794.3,-605.55 802.95,-611.67 804.88,-604.94"/>
</g>
<!-- EGFR -->
<g id="node9" class="node">
<title>EGFR</title>
<ellipse fill="lightgray" stroke="black" cx="1624" cy="-738" rx="38.19" ry="18"/>
<text text-anchor="middle" x="1624" y="-734.3" font-family="Times,serif" font-size="14.00">EGFR</text>
</g>
<!-- MAPK14&#45;&gt;EGFR -->
<g id="edge8" class="edge">
<title>MAPK14&#45;&gt;EGFR</title>
<path fill="none" stroke="red" d="M3304.13,-806.94C3048.3,-796.6 1905.16,-750.37 1667.4,-740.76"/>
<polygon fill="red" stroke="red" points="1663.09,-745.58 1663.49,-735.59 1665.49,-735.67 1665.08,-745.67 1663.09,-745.58"/>
<polyline fill="none" stroke="red" points="1662.29,-740.55 1667.29,-740.75 "/>
</g>
<!-- AKT2 -->
<g id="node10" class="node">
<title>AKT2</title>
<ellipse fill="lightgray" stroke="black" cx="2786" cy="-18" rx="36" ry="18"/>
<text text-anchor="middle" x="2786" y="-14.3" font-family="Times,serif" font-size="14.00">AKT2</text>
</g>
<!-- MAPK14&#45;&gt;AKT2 -->
<g id="edge9" class="edge">
<title>MAPK14&#45;&gt;AKT2</title>
<path fill="none" stroke="purple" d="M3363.13,-791.82C3379.37,-766.26 3412,-715.93 3412,-667 3412,-667 3412,-667 3412,-521 3412,-475.85 3396.13,-462.68 3363,-432 3264.5,-340.77 3088,-441.26 3088,-307 3088,-307 3088,-307 3088,-233 3088,-167.95 2901.04,-75.13 2821.23,-36.7"/>
<polygon fill="purple" stroke="purple" points="2821.09,-36.63 2813.95,-37.64 2810.27,-31.44 2817.41,-30.43 2821.09,-36.63"/>
</g>
<!-- DUSP1 -->
<g id="node11" class="node">
<title>DUSP1</title>
<ellipse fill="lightgray" stroke="black" cx="3758" cy="-738" rx="44.39" ry="18"/>
<text text-anchor="middle" x="3758" y="-734.3" font-family="Times,serif" font-size="14.00">DUSP1</text>
</g>
<!-- MAPK14&#45;&gt;DUSP1 -->
<g id="edge10" class="edge">
<title>MAPK14&#45;&gt;DUSP1</title>
<path fill="none" stroke="green" d="M3402.35,-803C3467.79,-794.86 3588.96,-778.69 3691,-756 3697.54,-754.55 3704.42,-752.76 3711.21,-750.9"/>
<polygon fill="green" stroke="green" points="3712.35,-754.21 3721.04,-748.15 3710.47,-747.47 3712.35,-754.21"/>
</g>
<!-- ZAP70 -->
<g id="node12" class="node">
<title>ZAP70</title>
<ellipse fill="lightgray" stroke="black" cx="3862" cy="-738" rx="41.69" ry="18"/>
<text text-anchor="middle" x="3862" y="-734.3" font-family="Times,serif" font-size="14.00">ZAP70</text>
</g>
<!-- MAPK14&#45;&gt;ZAP70 -->
<g id="edge11" class="edge">
<title>MAPK14&#45;&gt;ZAP70</title>
<path fill="none" stroke="red" d="M3405.33,-806.21C3488.72,-801.06 3660.01,-787.56 3802,-756 3808.88,-754.47 3816.15,-752.36 3823.2,-750.15"/>
<polygon fill="red" stroke="red" points="3825.57,-744.15 3828.6,-753.68 3826.7,-754.28 3823.66,-744.76 3825.57,-744.15"/>
<polyline fill="none" stroke="red" points="3828.04,-748.61 3823.27,-750.13 "/>
</g>
<!-- PTPN7 -->
<g id="node13" class="node">
<title>PTPN7</title>
<ellipse fill="lightgray" stroke="black" cx="3964" cy="-738" rx="42.79" ry="18"/>
<text text-anchor="middle" x="3964" y="-734.3" font-family="Times,serif" font-size="14.00">PTPN7</text>
</g>
<!-- MAPK14&#45;&gt;PTPN7 -->
<g id="edge12" class="edge">
<title>MAPK14&#45;&gt;PTPN7</title>
<path fill="none" stroke="red" d="M3406.14,-807.86C3503.93,-804.87 3723.34,-794.17 3904,-756 3910.62,-754.6 3917.58,-752.63 3924.37,-750.52"/>
<polygon fill="red" stroke="red" points="3927.05,-744.43 3930.07,-753.96 3928.16,-754.57 3925.14,-745.03 3927.05,-744.43"/>
<polyline fill="none" stroke="red" points="3929.51,-748.89 3924.75,-750.4 "/>
</g>
<!-- CASP3 -->
<g id="node14" class="node">
<title>CASP3</title>
<ellipse fill="lightgray" stroke="black" cx="3304" cy="-666" rx="42.49" ry="18"/>
<text text-anchor="middle" x="3304" y="-662.3" font-family="Times,serif" font-size="14.00">CASP3</text>
</g>
<!-- MAPK14&#45;&gt;CASP3 -->
<g id="edge13" class="edge">
<title>MAPK14&#45;&gt;CASP3</title>
<path fill="none" stroke="red" d="M3348.85,-791.87C3339.58,-766.07 3322.05,-717.25 3311.86,-688.9"/>
<polygon fill="red" stroke="red" points="3305.81,-686.82 3315.22,-683.44 3315.89,-685.32 3306.48,-688.7 3305.81,-686.82"/>
<polyline fill="none" stroke="red" points="3310.17,-684.19 3311.86,-688.89 "/>
</g>
<!-- SIGNOR&#45;PF25 -->
<g id="node15" class="node">
<title>SIGNOR&#45;PF25</title>
<ellipse fill="lightgray" stroke="black" cx="377" cy="-522" rx="77.19" ry="18"/>
<text text-anchor="middle" x="377" y="-518.3" font-family="Times,serif" font-size="14.00">SIGNOR&#45;PF25</text>
</g>
<!-- MAPK14&#45;&gt;SIGNOR&#45;PF25 -->
<g id="edge14" class="edge">
<title>MAPK14&#45;&gt;SIGNOR&#45;PF25</title>
<path fill="none" stroke="red" d="M3303.59,-808.85C2920.84,-807.61 528.55,-798.17 468,-756 397.15,-706.65 381.46,-593.4 377.99,-545.28"/>
<polygon fill="red" stroke="red" points="372.71,-541.35 382.69,-540.68 382.83,-542.68 372.85,-543.34 372.71,-541.35"/>
<polyline fill="none" stroke="red" points="377.64,-540.02 377.97,-545.01 "/>
</g>
<!-- CCND1 -->
<g id="node72" class="node">
<title>CCND1</title>
<ellipse fill="lightgray" stroke="black" cx="421" cy="-18" rx="45.49" ry="18"/>
<text text-anchor="middle" x="421" y="-14.3" font-family="Times,serif" font-size="14.00">CCND1</text>
</g>
<!-- MAPK14&#45;&gt;CCND1 -->
<g id="edge176" class="edge">
<title>MAPK14&#45;&gt;CCND1</title>
<path fill="none" stroke="red" d="M3303.73,-808.68C2909.78,-806.12 374.48,-788.42 217,-756 114.9,-734.98 0,-771.24 0,-667 0,-667 0,-667 0,-161 0,-114.5 16.12,-97.5 55,-72 105.99,-38.55 282.84,-25.56 370.68,-21.08"/>
<polygon fill="red" stroke="red" points="374.58,-15.88 375.08,-25.87 373.08,-25.97 372.58,-15.98 374.58,-15.88"/>
<polyline fill="none" stroke="red" points="375.83,-20.83 370.83,-21.08 "/>
</g>
<!-- SIGNOR&#45;PF24&#45;&gt;MAPK14 -->
<g id="edge89" class="edge">
<title>SIGNOR&#45;PF24&#45;&gt;MAPK14</title>
<path fill="none" stroke="red" d="M3153.74,-751.61C3200.68,-764.13 3269.5,-783.24 3313.33,-795.93"/>
<polygon fill="red" stroke="red" points="3318.72,-792.28 3315.93,-801.89 3314.01,-801.33 3316.8,-791.72 3318.72,-792.28"/>
<polyline fill="none" stroke="red" points="3318.28,-797.36 3313.48,-795.97 "/>
</g>
<!-- SIGNOR&#45;PF24&#45;&gt;GSK3B -->
<g id="edge146" class="edge">
<title>SIGNOR&#45;PF24&#45;&gt;GSK3B</title>
<path fill="none" stroke="red" d="M3025.9,-735.97C2624.5,-730.24 789.25,-699.3 709,-612 698.17,-600.22 698.26,-587.86 709,-576 763.42,-515.92 992.92,-557.83 1072,-540 1106.2,-532.29 1645.03,-352.82 1665,-324 1703.35,-268.65 1588.95,-246.99 1520.08,-239.11"/>
<polygon fill="red" stroke="red" points="1515.24,-243.6 1516.34,-233.66 1518.33,-233.88 1517.23,-243.82 1515.24,-243.6"/>
<polyline fill="none" stroke="red" points="1514.8,-238.52 1519.77,-239.07 "/>
</g>
<!-- CTNNB1 -->
<g id="node24" class="node">
<title>CTNNB1</title>
<ellipse fill="lightyellow" stroke="black" cx="1624" cy="-666" rx="51.99" ry="18"/>
<text text-anchor="middle" x="1624" y="-662.3" font-family="Times,serif" font-size="14.00">CTNNB1</text>
</g>
<!-- SIGNOR&#45;PF24&#45;&gt;CTNNB1 -->
<g id="edge108" class="edge">
<title>SIGNOR&#45;PF24&#45;&gt;CTNNB1</title>
<path fill="none" stroke="green" d="M3028.13,-733.46C2770.22,-721.25 1921.49,-681.08 1685.42,-669.91"/>
<polygon fill="green" stroke="green" points="1685.45,-666.4 1675.3,-669.43 1685.12,-673.4 1685.45,-666.4"/>
</g>
<!-- NR3C1&#45;&gt;MAPK14 -->
<g id="edge94" class="edge">
<title>NR3C1&#45;&gt;MAPK14</title>
<path fill="none" stroke="red" d="M133.2,-177.59C162.99,-201.34 210,-251.12 210,-305 210,-667 210,-667 210,-667 210,-764.29 315.02,-734.93 410,-756 556.45,-788.49 2902.62,-805.86 3298.51,-808.61"/>
<polygon fill="red" stroke="red" points="3302.67,-803.64 3302.6,-813.64 3300.6,-813.63 3300.67,-803.63 3302.67,-803.64"/>
<polyline fill="none" stroke="red" points="3303.64,-808.65 3298.64,-808.61 "/>
</g>
<!-- MAP2K1 -->
<g id="node66" class="node">
<title>MAP2K1</title>
<ellipse fill="lightyellow" stroke="black" cx="1413" cy="-378" rx="51.19" ry="18"/>
<text text-anchor="middle" x="1413" y="-374.3" font-family="Times,serif" font-size="14.00">MAP2K1</text>
</g>
<!-- FGFR1&#45;&gt;MAP2K1 -->
<g id="edge161" class="edge">
<title>FGFR1&#45;&gt;MAP2K1</title>
<path fill="none" stroke="green" d="M648.1,-647.85C649.22,-627.3 654.49,-593.45 676,-576 740.16,-523.96 977.74,-586.53 1046,-540 1090.51,-509.66 1057.6,-463.91 1101,-432 1140.03,-403.3 1273.32,-388.99 1352.5,-382.87"/>
<polygon fill="green" stroke="green" points="1353.11,-386.33 1362.82,-382.09 1352.59,-379.35 1353.11,-386.33"/>
</g>
<!-- TAB1&#45;&gt;MAPK14 -->
<g id="edge88" class="edge">
<title>TAB1&#45;&gt;MAPK14</title>
<path fill="none" stroke="green" d="M3471.63,-35.71C3496.44,-98.62 3562,-327.53 3562,-521 3562,-667 3562,-667 3562,-667 3562,-711.73 3548.89,-726.8 3515,-756 3486.58,-780.49 3446.13,-793.89 3412.93,-801.09"/>
<polygon fill="green" stroke="green" points="3411.98,-797.71 3402.88,-803.13 3413.37,-804.57 3411.98,-797.71"/>
</g>
<!-- MAP3K7 -->
<g id="node44" class="node">
<title>MAP3K7</title>
<ellipse fill="lightyellow" stroke="black" cx="3559" cy="-90" rx="51.19" ry="18"/>
<text text-anchor="middle" x="3559" y="-86.3" font-family="Times,serif" font-size="14.00">MAP3K7</text>
</g>
<!-- TAB1&#45;&gt;MAP3K7 -->
<g id="edge143" class="edge">
<title>TAB1&#45;&gt;MAP3K7</title>
<path fill="none" stroke="green" d="M3486.03,-31.88C3500.64,-41.51 3519.36,-54.92 3534.26,-66.32"/>
<polygon fill="green" stroke="green" points="3532.49,-69.38 3542.54,-72.76 3536.8,-63.86 3532.49,-69.38"/>
</g>
<!-- GSK3B&#45;&gt;MAPK14 -->
<g id="edge71" class="edge">
<title>GSK3B&#45;&gt;MAPK14</title>
<path fill="none" stroke="red" d="M1430.04,-239.94C1243.55,-261.66 500,-351.87 500,-449 500,-667 500,-667 500,-667 500,-720.48 532.29,-733.91 581,-756 709.34,-814.2 2914.87,-810.34 3298.39,-809.2"/>
<polygon fill="red" stroke="red" points="3302.62,-804.18 3302.65,-814.18 3300.65,-814.19 3300.62,-804.19 3302.62,-804.18"/>
<polyline fill="none" stroke="red" points="3303.63,-809.18 3298.63,-809.2 "/>
</g>
<!-- GSK3B&#45;&gt;NR3C1 -->
<g id="edge57" class="edge">
<title>GSK3B&#45;&gt;NR3C1</title>
<path fill="none" stroke="red" d="M1427.95,-232.51C1268.01,-230.42 702.99,-220.47 239,-180 211.27,-177.58 180.34,-173.55 155.72,-170.02"/>
<polygon fill="red" stroke="red" points="150.84,-174.37 152.27,-164.47 154.25,-164.76 152.82,-174.66 150.84,-174.37"/>
<polyline fill="none" stroke="red" points="150.57,-169.28 155.52,-169.99 "/>
</g>
<!-- GSK3B&#45;&gt;CTNNB1 -->
<g id="edge70" class="edge">
<title>GSK3B&#45;&gt;CTNNB1</title>
<path fill="none" stroke="red" d="M1514.96,-238.83C1574.03,-245.08 1675.6,-259.73 1698,-288 1737.89,-338.33 1658.53,-365.52 1602,-396 1560.42,-418.42 1529.16,-393.35 1502,-432 1455.52,-498.13 1480.87,-546.33 1528,-612 1541.1,-630.25 1562.52,-642.94 1581.81,-651.31"/>
<polygon fill="red" stroke="red" points="1587.67,-648.35 1583.8,-657.57 1581.95,-656.8 1585.83,-647.58 1587.67,-648.35"/>
<polyline fill="none" stroke="red" points="1586.66,-653.35 1582.05,-651.41 "/>
</g>
<!-- CREB1 -->
<g id="node28" class="node">
<title>CREB1</title>
<ellipse fill="lightgray" stroke="black" cx="2350" cy="-162" rx="44.39" ry="18"/>
<text text-anchor="middle" x="2350" y="-158.3" font-family="Times,serif" font-size="14.00">CREB1</text>
</g>
<!-- GSK3B&#45;&gt;CREB1 -->
<g id="edge56" class="edge">
<title>GSK3B&#45;&gt;CREB1</title>
<path fill="none" stroke="green" d="M1516.41,-233.55C1640.23,-234.35 1999.44,-231.68 2292,-180 2296.85,-179.14 2301.86,-178.03 2306.83,-176.78"/>
<polygon fill="green" stroke="green" points="2308.13,-180.06 2316.87,-174.07 2306.3,-173.3 2308.13,-180.06"/>
</g>
<!-- MAP3K4 -->
<g id="node45" class="node">
<title>MAP3K4</title>
<ellipse fill="lightgray" stroke="black" cx="3359" cy="-18" rx="51.19" ry="18"/>
<text text-anchor="middle" x="3359" y="-14.3" font-family="Times,serif" font-size="14.00">MAP3K4</text>
</g>
<!-- GSK3B&#45;&gt;MAP3K4 -->
<g id="edge73" class="edge">
<title>GSK3B&#45;&gt;MAP3K4</title>
<path fill="none" stroke="red" d="M1515.95,-231.78C1671.6,-227.2 2190.87,-209.84 2259,-180 2280.31,-170.67 2275.68,-153.32 2297,-144 2408,-95.46 2720.68,-122.21 2841,-108 3015.09,-87.44 3219.62,-47.62 3310.85,-29.02"/>
<polygon fill="red" stroke="red" points="3313.93,-23.29 3315.93,-33.09 3313.97,-33.49 3311.97,-23.69 3313.93,-23.29"/>
<polyline fill="none" stroke="red" points="3315.91,-27.99 3311.01,-28.99 "/>
</g>
<!-- PHLPP1 -->
<g id="node48" class="node">
<title>PHLPP1</title>
<ellipse fill="lightgray" stroke="black" cx="2611" cy="-162" rx="49.29" ry="18"/>
<text text-anchor="middle" x="2611" y="-158.3" font-family="Times,serif" font-size="14.00">PHLPP1</text>
</g>
<!-- GSK3B&#45;&gt;PHLPP1 -->
<g id="edge55" class="edge">
<title>GSK3B&#45;&gt;PHLPP1</title>
<path fill="none" stroke="red" d="M1516.21,-232.22C1692.88,-228.91 2348.49,-214.48 2553,-180 2558.82,-179.02 2564.88,-177.65 2570.8,-176.11"/>
<polygon fill="red" stroke="red" points="2573.46,-170.21 2576.07,-179.86 2574.14,-180.38 2571.53,-170.73 2573.46,-170.21"/>
<polyline fill="none" stroke="red" points="2575.73,-174.78 2570.9,-176.08 "/>
</g>
<!-- CDH1 -->
<g id="node49" class="node">
<title>CDH1</title>
<ellipse fill="lightgray" stroke="black" cx="286" cy="-162" rx="38.19" ry="18"/>
<text text-anchor="middle" x="286" y="-158.3" font-family="Times,serif" font-size="14.00">CDH1</text>
</g>
<!-- GSK3B&#45;&gt;CDH1 -->
<g id="edge58" class="edge">
<title>GSK3B&#45;&gt;CDH1</title>
<path fill="none" stroke="green" d="M1427.96,-231.76C1249.67,-226.6 580.99,-205.91 371,-180 357.43,-178.33 342.79,-175.7 329.54,-173.01"/>
<polygon fill="green" stroke="green" points="330.23,-169.58 319.73,-170.95 328.8,-176.43 330.23,-169.58"/>
</g>
<!-- FRAT1 -->
<g id="node50" class="node">
<title>FRAT1</title>
<ellipse fill="lightgray" stroke="black" cx="1352" cy="-162" rx="41.69" ry="18"/>
<text text-anchor="middle" x="1352" y="-158.3" font-family="Times,serif" font-size="14.00">FRAT1</text>
</g>
<!-- GSK3B&#45;&gt;FRAT1 -->
<g id="edge59" class="edge">
<title>GSK3B&#45;&gt;FRAT1</title>
<path fill="none" stroke="red" d="M1444.02,-219.83C1423.5,-208.79 1396.1,-192.91 1376.46,-180.74"/>
<polygon fill="red" stroke="red" points="1370.34,-182.82 1375.64,-174.34 1377.33,-175.4 1372.04,-183.88 1370.34,-182.82"/>
<polyline fill="none" stroke="red" points="1372.14,-178.05 1376.38,-180.7 "/>
</g>
<!-- RXRA -->
<g id="node51" class="node">
<title>RXRA</title>
<ellipse fill="lightgray" stroke="black" cx="417" cy="-162" rx="37.09" ry="18"/>
<text text-anchor="middle" x="417" y="-158.3" font-family="Times,serif" font-size="14.00">RXRA</text>
</g>
<!-- GSK3B&#45;&gt;RXRA -->
<g id="edge60" class="edge">
<title>GSK3B&#45;&gt;RXRA</title>
<path fill="none" stroke="green" d="M1428.07,-231.47C1246.33,-225.05 558.3,-199.64 463,-180 459.83,-179.35 456.59,-178.51 453.37,-177.57"/>
<polygon fill="green" stroke="green" points="454.44,-174.23 443.85,-174.46 452.26,-180.89 454.44,-174.23"/>
</g>
<!-- PSEN1 -->
<g id="node52" class="node">
<title>PSEN1</title>
<ellipse fill="lightgray" stroke="black" cx="516" cy="-162" rx="44.39" ry="18"/>
<text text-anchor="middle" x="516" y="-158.3" font-family="Times,serif" font-size="14.00">PSEN1</text>
</g>
<!-- GSK3B&#45;&gt;PSEN1 -->
<g id="edge61" class="edge">
<title>GSK3B&#45;&gt;PSEN1</title>
<path fill="none" stroke="red" d="M1427.99,-231.88C1270.7,-227.66 736.79,-211.31 569,-180 563.69,-179.01 558.17,-177.64 552.79,-176.11"/>
<polygon fill="red" stroke="red" points="547.44,-179.74 550.28,-170.15 552.19,-170.72 549.36,-180.3 547.44,-179.74"/>
<polyline fill="none" stroke="red" points="547.9,-174.66 552.69,-176.08 "/>
</g>
<!-- SRC -->
<g id="node53" class="node">
<title>SRC</title>
<ellipse fill="lightgray" stroke="black" cx="2041" cy="-162" rx="30.59" ry="18"/>
<text text-anchor="middle" x="2041" y="-158.3" font-family="Times,serif" font-size="14.00">SRC</text>
</g>
<!-- GSK3B&#45;&gt;SRC -->
<g id="edge62" class="edge">
<title>GSK3B&#45;&gt;SRC</title>
<path fill="none" stroke="green" d="M1515.09,-229.66C1600.1,-222.78 1795.32,-205.47 1958,-180 1972.85,-177.67 1989.07,-174.5 2003.2,-171.52"/>
<polygon fill="green" stroke="green" points="2004.03,-174.92 2013.07,-169.4 2002.56,-168.08 2004.03,-174.92"/>
</g>
<!-- MACF1 -->
<g id="node54" class="node">
<title>MACF1</title>
<ellipse fill="lightgray" stroke="black" cx="1457" cy="-162" rx="45.49" ry="18"/>
<text text-anchor="middle" x="1457" y="-158.3" font-family="Times,serif" font-size="14.00">MACF1</text>
</g>
<!-- GSK3B&#45;&gt;MACF1 -->
<g id="edge63" class="edge">
<title>GSK3B&#45;&gt;MACF1</title>
<path fill="none" stroke="red" d="M1462.61,-216.41C1459.62,-207.18 1456.96,-195.57 1455.47,-185.53"/>
<polygon fill="red" stroke="red" points="1449.98,-182.09 1459.9,-180.79 1460.16,-182.77 1450.24,-184.07 1449.98,-182.09"/>
<polyline fill="none" stroke="red" points="1454.81,-180.45 1455.46,-185.4 "/>
</g>
<!-- TRAF6 -->
<g id="node55" class="node">
<title>TRAF6</title>
<ellipse fill="lightgray" stroke="black" cx="2208" cy="-162" rx="42.49" ry="18"/>
<text text-anchor="middle" x="2208" y="-158.3" font-family="Times,serif" font-size="14.00">TRAF6</text>
</g>
<!-- GSK3B&#45;&gt;TRAF6 -->
<g id="edge64" class="edge">
<title>GSK3B&#45;&gt;TRAF6</title>
<path fill="none" stroke="red" d="M1515.26,-229.93C1615.1,-222.68 1869.23,-203.38 2081,-180 2108.45,-176.97 2139.15,-172.88 2163.49,-169.47"/>
<polygon fill="red" stroke="red" points="2166.9,-163.94 2168.29,-173.84 2166.31,-174.12 2164.92,-164.22 2166.9,-163.94"/>
<polyline fill="none" stroke="red" points="2168.59,-168.75 2163.63,-169.45 "/>
</g>
<!-- LRP6 -->
<g id="node56" class="node">
<title>LRP6</title>
<ellipse fill="lightgray" stroke="black" cx="1556" cy="-162" rx="36" ry="18"/>
<text text-anchor="middle" x="1556" y="-158.3" font-family="Times,serif" font-size="14.00">LRP6</text>
</g>
<!-- GSK3B&#45;&gt;LRP6 -->
<g id="edge65" class="edge">
<title>GSK3B&#45;&gt;LRP6</title>
<path fill="none" stroke="green" d="M1485.68,-216.76C1496.67,-206.66 1512.22,-193.6 1525.98,-182.88"/>
<polygon fill="green" stroke="green" points="1528.44,-185.41 1534.26,-176.56 1524.19,-179.85 1528.44,-185.41"/>
</g>
<!-- AURKA -->
<g id="node57" class="node">
<title>AURKA</title>
<ellipse fill="lightgray" stroke="black" cx="622" cy="-162" rx="44.39" ry="18"/>
<text text-anchor="middle" x="622" y="-158.3" font-family="Times,serif" font-size="14.00">AURKA</text>
</g>
<!-- GSK3B&#45;&gt;AURKA -->
<g id="edge66" class="edge">
<title>GSK3B&#45;&gt;AURKA</title>
<path fill="none" stroke="red" d="M1427.98,-231.49C1282.98,-226.28 821.27,-207.89 675,-180 669.69,-178.99 664.18,-177.61 658.8,-176.07"/>
<polygon fill="red" stroke="red" points="653.44,-179.69 656.29,-170.11 658.21,-170.68 655.36,-180.26 653.44,-179.69"/>
<polyline fill="none" stroke="red" points="653.91,-174.62 658.7,-176.04 "/>
</g>
<!-- PIAS1 -->
<g id="node58" class="node">
<title>PIAS1</title>
<ellipse fill="lightgray" stroke="black" cx="2755" cy="-162" rx="38.99" ry="18"/>
<text text-anchor="middle" x="2755" y="-158.3" font-family="Times,serif" font-size="14.00">PIAS1</text>
</g>
<!-- GSK3B&#45;&gt;PIAS1 -->
<g id="edge67" class="edge">
<title>GSK3B&#45;&gt;PIAS1</title>
<path fill="none" stroke="red" d="M1516.22,-233.44C1673.64,-234.5 2221.35,-233.84 2669,-180 2684.34,-178.15 2701.04,-175.1 2715.61,-172.08"/>
<polygon fill="red" stroke="red" points="2718.87,-166.29 2720.92,-176.08 2718.97,-176.49 2716.91,-166.7 2718.87,-166.29"/>
<polyline fill="none" stroke="red" points="2720.87,-170.98 2715.98,-172.01 "/>
</g>
<!-- FOXM1 -->
<g id="node59" class="node">
<title>FOXM1</title>
<ellipse fill="lightgray" stroke="black" cx="730" cy="-162" rx="46.29" ry="18"/>
<text text-anchor="middle" x="730" y="-158.3" font-family="Times,serif" font-size="14.00">FOXM1</text>
</g>
<!-- GSK3B&#45;&gt;FOXM1 -->
<g id="edge68" class="edge">
<title>GSK3B&#45;&gt;FOXM1</title>
<path fill="none" stroke="red" d="M1428.6,-229.87C1328.45,-222.52 1073.51,-202.99 861,-180 833.43,-177.02 802.69,-173.06 777.91,-169.71"/>
<polygon fill="red" stroke="red" points="773.04,-174.1 774.38,-164.19 776.36,-164.46 775.02,-174.37 773.04,-174.1"/>
<polyline fill="none" stroke="red" points="772.72,-169.01 777.67,-169.68 "/>
</g>
<!-- SIGNOR&#45;C110 -->
<g id="node60" class="node">
<title>SIGNOR&#45;C110</title>
<ellipse fill="lightgray" stroke="black" cx="947" cy="-162" rx="77.19" ry="18"/>
<text text-anchor="middle" x="947" y="-158.3" font-family="Times,serif" font-size="14.00">SIGNOR&#45;C110</text>
</g>
<!-- GSK3B&#45;&gt;SIGNOR&#45;C110 -->
<g id="edge69" class="edge">
<title>GSK3B&#45;&gt;SIGNOR&#45;C110</title>
<path fill="none" stroke="blue" d="M1429.47,-228.94C1350.91,-221.19 1177.81,-203.02 1033,-180 1025.71,-178.84 1018.11,-177.51 1010.56,-176.12"/>
<ellipse fill="blue" stroke="blue" cx="1006.34" cy="-175.33" rx="4" ry="4"/>
</g>
<!-- PTEN -->
<g id="node61" class="node">
<title>PTEN</title>
<ellipse fill="lightgray" stroke="black" cx="2506" cy="-162" rx="37.89" ry="18"/>
<text text-anchor="middle" x="2506" y="-158.3" font-family="Times,serif" font-size="14.00">PTEN</text>
</g>
<!-- GSK3B&#45;&gt;PTEN -->
<g id="edge72" class="edge">
<title>GSK3B&#45;&gt;PTEN</title>
<path fill="none" stroke="red" d="M1516.24,-232.16C1650.2,-229.24 2063.07,-217.62 2403,-180 2424.08,-177.67 2447.4,-173.92 2466.52,-170.53"/>
<polygon fill="red" stroke="red" points="2469.93,-164.84 2471.69,-174.68 2469.72,-175.04 2467.96,-165.19 2469.93,-164.84"/>
<polyline fill="none" stroke="red" points="2471.79,-169.59 2466.87,-170.47 "/>
</g>
<!-- APC -->
<g id="node62" class="node">
<title>APC</title>
<ellipse fill="lightgray" stroke="black" cx="1073" cy="-162" rx="30.59" ry="18"/>
<text text-anchor="middle" x="1073" y="-158.3" font-family="Times,serif" font-size="14.00">APC</text>
</g>
<!-- GSK3B&#45;&gt;APC -->
<g id="edge74" class="edge">
<title>GSK3B&#45;&gt;APC</title>
<path fill="none" stroke="green" d="M1428.71,-230.19C1360.49,-224.96 1224.29,-211.31 1113,-180 1110.52,-179.3 1107.99,-178.49 1105.47,-177.6"/>
<polygon fill="green" stroke="green" points="1106.5,-174.25 1095.91,-173.92 1103.98,-180.78 1106.5,-174.25"/>
</g>
<!-- SIGNOR&#45;PF26 -->
<g id="node63" class="node">
<title>SIGNOR&#45;PF26</title>
<ellipse fill="lightgray" stroke="black" cx="1687" cy="-162" rx="77.19" ry="18"/>
<text text-anchor="middle" x="1687" y="-158.3" font-family="Times,serif" font-size="14.00">SIGNOR&#45;PF26</text>
</g>
<!-- GSK3B&#45;&gt;SIGNOR&#45;PF26 -->
<g id="edge75" class="edge">
<title>GSK3B&#45;&gt;SIGNOR&#45;PF26</title>
<path fill="none" stroke="green" d="M1503.25,-221.13C1536.53,-209.7 1589.68,-192.33 1630.33,-179.55"/>
<polygon fill="green" stroke="green" points="1631.61,-182.82 1640.11,-176.49 1629.52,-176.14 1631.61,-182.82"/>
</g>
<!-- MAML1 -->
<g id="node64" class="node">
<title>MAML1</title>
<ellipse fill="lightgray" stroke="black" cx="1169" cy="-162" rx="47.39" ry="18"/>
<text text-anchor="middle" x="1169" y="-158.3" font-family="Times,serif" font-size="14.00">MAML1</text>
</g>
<!-- GSK3B&#45;&gt;MAML1 -->
<g id="edge76" class="edge">
<title>GSK3B&#45;&gt;MAML1</title>
<path fill="none" stroke="red" d="M1433.28,-225.22C1385.37,-215.43 1301.37,-197.75 1230,-180 1223.71,-178.44 1217.08,-176.69 1210.6,-174.93"/>
<polygon fill="red" stroke="red" points="1205.33,-178.67 1207.97,-169.02 1209.9,-169.55 1207.26,-179.2 1205.33,-178.67"/>
<polyline fill="none" stroke="red" points="1205.68,-173.58 1210.51,-174.9 "/>
</g>
<!-- AKAP11 -->
<g id="node65" class="node">
<title>AKAP11</title>
<ellipse fill="lightgray" stroke="black" cx="1830" cy="-162" rx="48.19" ry="18"/>
<text text-anchor="middle" x="1830" y="-158.3" font-family="Times,serif" font-size="14.00">AKAP11</text>
</g>
<!-- GSK3B&#45;&gt;AKAP11 -->
<g id="edge77" class="edge">
<title>GSK3B&#45;&gt;AKAP11</title>
<path fill="none" stroke="red" d="M1512.5,-226.48C1569.22,-217.8 1674.92,-201.05 1764,-180 1771.1,-178.32 1778.63,-176.27 1785.99,-174.19"/>
<polygon fill="red" stroke="red" points="1788.73,-168.21 1791.47,-177.83 1789.55,-178.37 1786.8,-168.76 1788.73,-168.21"/>
<polyline fill="none" stroke="red" points="1791.06,-172.74 1786.25,-174.11 "/>
</g>
<!-- MYC -->
<g id="node71" class="node">
<title>MYC</title>
<ellipse fill="lightgray" stroke="black" cx="823" cy="-90" rx="32.49" ry="18"/>
<text text-anchor="middle" x="823" y="-86.3" font-family="Times,serif" font-size="14.00">MYC</text>
</g>
<!-- GSK3B&#45;&gt;MYC -->
<g id="edge168" class="edge">
<title>GSK3B&#45;&gt;MYC</title>
<path fill="none" stroke="red" d="M1430.21,-227.67C1387.56,-220.98 1320.38,-206.98 1268,-180 1245.84,-168.59 1247.82,-154.03 1225,-144 1159.84,-115.36 946.78,-98.9 860.14,-93.24"/>
<polygon fill="red" stroke="red" points="855.79,-97.97 856.44,-87.99 858.43,-88.12 857.79,-98.1 855.79,-97.97"/>
<polyline fill="none" stroke="red" points="855.12,-92.92 860.11,-93.24 "/>
</g>
<!-- GSK3B&#45;&gt;CCND1 -->
<g id="edge167" class="edge">
<title>GSK3B&#45;&gt;CCND1</title>
<path fill="none" stroke="red" d="M1432.43,-225.68C1396.51,-217.91 1342.9,-203.47 1301,-180 1279.84,-168.15 1281.83,-154.55 1260,-144 1118.26,-75.49 628.06,-34.23 470.32,-22.49"/>
<polygon fill="red" stroke="red" points="465.92,-27.17 466.66,-17.2 468.66,-17.35 467.92,-27.32 465.92,-27.17"/>
<polyline fill="none" stroke="red" points="465.3,-22.11 470.28,-22.48 "/>
</g>
<!-- RPS6KA5&#45;&gt;CTNNB1 -->
<g id="edge115" class="edge">
<title>RPS6KA5&#45;&gt;CTNNB1</title>
<path fill="none" stroke="green" d="M3214.37,-725.24C3206.07,-723.14 3197.3,-721.23 3189,-720 2891.41,-676.02 1938.77,-668.47 1686.04,-667.23"/>
<polygon fill="green" stroke="green" points="1685.95,-663.73 1675.94,-667.19 1685.92,-670.73 1685.95,-663.73"/>
</g>
<!-- PPARG&#45;&gt;CTNNB1 -->
<g id="edge117" class="edge">
<title>PPARG&#45;&gt;CTNNB1</title>
<path fill="none" stroke="red" d="M796.45,-604.39C806.35,-607.3 817.04,-610.21 827,-612 1100.97,-661.22 1434.66,-665.98 1566.55,-665.63"/>
<polygon fill="red" stroke="red" points="1570.9,-660.62 1570.93,-670.61 1568.93,-670.62 1568.9,-660.62 1570.9,-660.62"/>
<polyline fill="none" stroke="red" points="1571.91,-665.61 1566.91,-665.63 "/>
</g>
<!-- EGFR&#45;&gt;CTNNB1 -->
<g id="edge120" class="edge">
<title>EGFR&#45;&gt;CTNNB1</title>
<path fill="none" stroke="green" d="M1624,-719.7C1624,-711.98 1624,-702.71 1624,-694.11"/>
<polygon fill="green" stroke="green" points="1627.5,-694.1 1624,-684.1 1620.5,-694.1 1627.5,-694.1"/>
</g>
<!-- EGFR&#45;&gt;MYC -->
<g id="edge171" class="edge">
<title>EGFR&#45;&gt;MYC</title>
<path fill="none" stroke="green" d="M1585.5,-736.07C1450.59,-732.56 999.91,-718.46 860,-684 701.47,-644.96 576,-614.27 576,-451 576,-451 576,-451 576,-377 576,-341.3 329.33,-233.11 298,-216 267.3,-199.23 246.22,-209.86 228,-180 219.67,-166.34 217.2,-155.8 228,-144 265.15,-103.39 649.82,-93.69 780.12,-91.56"/>
<polygon fill="green" stroke="green" points="780.55,-95.05 790.49,-91.39 780.44,-88.05 780.55,-95.05"/>
</g>
<!-- AKT2&#45;&gt;MAPK14 -->
<g id="edge98" class="edge">
<title>AKT2&#45;&gt;MAPK14</title>
<path fill="none" stroke="red" d="M2813.74,-29.4C2891.71,-61.88 3106,-163.36 3106,-233 3106,-307 3106,-307 3106,-307 3106,-441.26 3282.5,-340.77 3381,-432 3414.13,-462.68 3430,-475.85 3430,-521 3430,-667 3430,-667 3430,-667 3430,-714.22 3399.61,-762.74 3377.26,-789.05"/>
<polygon fill="red" stroke="red" points="3378.18,-795.61 3370.64,-789.04 3371.95,-787.53 3379.49,-794.11 3378.18,-795.61"/>
<polyline fill="none" stroke="red" points="3373.75,-793.08 3377.04,-789.31 "/>
</g>
<!-- AKT2&#45;&gt;GSK3B -->
<g id="edge157" class="edge">
<title>AKT2&#45;&gt;GSK3B</title>
<path fill="none" stroke="red" d="M2759.75,-30.45C2753.7,-32.66 2747.21,-34.69 2741,-36 2455.74,-96.22 2366.51,7.47 2086,-72 1989.18,-99.43 1982.77,-149.1 1887,-180 1759.5,-221.14 1600.29,-230.51 1521.25,-232.54"/>
<polygon fill="red" stroke="red" points="1517.29,-237.63 1517.04,-227.64 1519.04,-227.59 1519.28,-237.58 1517.29,-237.63"/>
<polyline fill="none" stroke="red" points="1516.16,-232.66 1521.16,-232.54 "/>
</g>
<!-- AKT2&#45;&gt;CTNNB1 -->
<g id="edge124" class="edge">
<title>AKT2&#45;&gt;CTNNB1</title>
<path fill="none" stroke="green" d="M2759.13,-30.04C2753.22,-32.22 2746.95,-34.34 2741,-36 2486.75,-106.92 2383.89,-9.11 2157,-144 2018.78,-226.17 2012.07,-289.27 1938,-432 1897.84,-509.39 1927.17,-556.41 1860,-612 1833.4,-634.02 1743.55,-649.62 1682.72,-657.97"/>
<polygon fill="green" stroke="green" points="1681.91,-654.54 1672.47,-659.34 1682.84,-661.48 1681.91,-654.54"/>
</g>
<!-- DUSP1&#45;&gt;MAPK14 -->
<g id="edge85" class="edge">
<title>DUSP1&#45;&gt;MAPK14</title>
<path fill="none" stroke="red" d="M3727.76,-751.23C3721.6,-752.97 3715.15,-754.63 3709,-756 3604.22,-779.3 3479.26,-795.73 3409.24,-803.64"/>
<polygon fill="red" stroke="red" points="3405.43,-809.1 3404.31,-799.16 3406.3,-798.94 3407.42,-808.88 3405.43,-809.1"/>
<polyline fill="none" stroke="red" points="3403.88,-804.24 3408.85,-803.69 "/>
</g>
<!-- ZAP70&#45;&gt;MAPK14 -->
<g id="edge87" class="edge">
<title>ZAP70&#45;&gt;MAPK14</title>
<path fill="none" stroke="green" d="M3835.23,-751.92C3830.22,-753.47 3825.01,-754.89 3820,-756 3677.48,-787.68 3505.43,-801.16 3415.79,-806.27"/>
<polygon fill="green" stroke="green" points="3415.59,-802.77 3405.8,-806.82 3415.98,-809.76 3415.59,-802.77"/>
</g>
<!-- PTPN7&#45;&gt;MAPK14 -->
<g id="edge95" class="edge">
<title>PTPN7&#45;&gt;MAPK14</title>
<path fill="none" stroke="red" d="M3936.98,-752.1C3932.05,-753.6 3926.93,-754.96 3922,-756 3738.25,-794.82 3514.42,-805.23 3411.52,-808"/>
<polygon fill="red" stroke="red" points="3407.54,-813.11 3407.28,-803.11 3409.28,-803.06 3409.54,-813.06 3407.54,-813.11"/>
<polyline fill="none" stroke="red" points="3406.41,-808.14 3411.41,-808.01 "/>
</g>
<!-- AKT1 -->
<g id="node22" class="node">
<title>AKT1</title>
<ellipse fill="lightyellow" stroke="black" cx="2502" cy="-522" rx="36" ry="18"/>
<text text-anchor="middle" x="2502" y="-518.3" font-family="Times,serif" font-size="14.00">AKT1</text>
</g>
<!-- CASP3&#45;&gt;AKT1 -->
<g id="edge142" class="edge">
<title>CASP3&#45;&gt;AKT1</title>
<path fill="none" stroke="red" d="M3265.86,-658.25C3130.78,-634.33 2676.01,-553.81 2540.45,-529.81"/>
<polygon fill="red" stroke="red" points="2535.49,-534.01 2537.24,-524.16 2539.21,-524.51 2537.46,-534.36 2535.49,-534.01"/>
<polyline fill="none" stroke="red" points="2535.38,-528.91 2540.3,-529.78 "/>
</g>
<!-- SIGNOR&#45;PF25&#45;&gt;GSK3B -->
<g id="edge152" class="edge">
<title>SIGNOR&#45;PF25&#45;&gt;GSK3B</title>
<path fill="none" stroke="green" d="M381.24,-503.96C390.58,-470.28 416.35,-395.38 468,-360 624.54,-252.78 1231.9,-237.51 1417.69,-235.35"/>
<polygon fill="green" stroke="green" points="1417.81,-238.85 1427.77,-235.24 1417.74,-231.85 1417.81,-238.85"/>
</g>
<!-- PIK3CA -->
<g id="node16" class="node">
<title>PIK3CA</title>
<ellipse fill="lightyellow" stroke="black" cx="2786" cy="-90" rx="46.29" ry="18"/>
<text text-anchor="middle" x="2786" y="-86.3" font-family="Times,serif" font-size="14.00">PIK3CA</text>
</g>
<!-- PIK3CA&#45;&gt;SIGNOR&#45;PF24 -->
<g id="edge22" class="edge">
<title>PIK3CA&#45;&gt;SIGNOR&#45;PF24</title>
<path fill="none" stroke="green" d="M2827.11,-98.18C2858.23,-105.36 2900.51,-119.05 2930,-144 3028.48,-227.31 2966.78,-324.28 3074,-396 3126.33,-431 3313.41,-384.74 3355,-432 3401.97,-485.37 3208.18,-651.88 3132.3,-713.64"/>
<polygon fill="green" stroke="green" points="3129.64,-711.29 3124.07,-720.3 3134.05,-716.73 3129.64,-711.29"/>
</g>
<!-- PIK3CA&#45;&gt;AKT2 -->
<g id="edge18" class="edge">
<title>PIK3CA&#45;&gt;AKT2</title>
<path fill="none" stroke="green" d="M2786,-71.7C2786,-63.98 2786,-54.71 2786,-46.11"/>
<polygon fill="green" stroke="green" points="2789.5,-46.1 2786,-36.1 2782.5,-46.1 2789.5,-46.1"/>
</g>
<!-- MTOR -->
<g id="node17" class="node">
<title>MTOR</title>
<ellipse fill="lightgray" stroke="black" cx="2431" cy="-18" rx="40.09" ry="18"/>
<text text-anchor="middle" x="2431" y="-14.3" font-family="Times,serif" font-size="14.00">MTOR</text>
</g>
<!-- PIK3CA&#45;&gt;MTOR -->
<g id="edge15" class="edge">
<title>PIK3CA&#45;&gt;MTOR</title>
<path fill="none" stroke="green" d="M2745.62,-81.04C2679.11,-67.92 2546.92,-41.86 2476.93,-28.06"/>
<polygon fill="green" stroke="green" points="2477.56,-24.61 2467.08,-26.11 2476.21,-31.48 2477.56,-24.61"/>
</g>
<!-- IRS1 -->
<g id="node18" class="node">
<title>IRS1</title>
<ellipse fill="lightgray" stroke="black" cx="2589" cy="-18" rx="33.29" ry="18"/>
<text text-anchor="middle" x="2589" y="-14.3" font-family="Times,serif" font-size="14.00">IRS1</text>
</g>
<!-- PIK3CA&#45;&gt;IRS1 -->
<g id="edge16" class="edge">
<title>PIK3CA&#45;&gt;IRS1</title>
<path fill="none" stroke="red" d="M2748.77,-79.13C2715.15,-68.84 2664.9,-52 2622,-36 2619.93,-35.23 2617.8,-34.42 2615.68,-33.59"/>
<polygon fill="red" stroke="red" points="2609.82,-36.66 2613.49,-27.35 2615.35,-28.09 2611.68,-37.39 2609.82,-36.66"/>
<polyline fill="none" stroke="red" points="2610.73,-31.64 2615.38,-33.47 "/>
</g>
<!-- SIGNOR&#45;C156 -->
<g id="node19" class="node">
<title>SIGNOR&#45;C156</title>
<ellipse fill="lightgray" stroke="black" cx="2917" cy="-18" rx="77.19" ry="18"/>
<text text-anchor="middle" x="2917" y="-14.3" font-family="Times,serif" font-size="14.00">SIGNOR&#45;C156</text>
</g>
<!-- PIK3CA&#45;&gt;SIGNOR&#45;C156 -->
<g id="edge17" class="edge">
<title>PIK3CA&#45;&gt;SIGNOR&#45;C156</title>
<path fill="none" stroke="blue" d="M2812.19,-75C2831.78,-64.54 2858.81,-50.09 2880.52,-38.49"/>
<ellipse fill="blue" stroke="blue" cx="2884.13" cy="-36.57" rx="4" ry="4"/>
</g>
<!-- CHEBI_16618 -->
<g id="node20" class="node">
<title>CHEBI_16618</title>
<ellipse fill="lightgray" stroke="black" cx="3088" cy="-18" rx="76.09" ry="18"/>
<text text-anchor="middle" x="3088" y="-14.3" font-family="Times,serif" font-size="14.00">CHEBI_16618</text>
</g>
<!-- PIK3CA&#45;&gt;CHEBI_16618 -->
<g id="edge19" class="edge">
<title>PIK3CA&#45;&gt;CHEBI_16618</title>
<path fill="none" stroke="green" d="M2824.56,-80.06C2875.39,-68.28 2965.46,-47.4 3025.94,-33.38"/>
<polygon fill="green" stroke="green" points="3026.81,-36.78 3035.76,-31.11 3025.22,-29.96 3026.81,-36.78"/>
</g>
<!-- RAC1 -->
<g id="node21" class="node">
<title>RAC1</title>
<ellipse fill="lightgray" stroke="black" cx="3218" cy="-18" rx="36.29" ry="18"/>
<text text-anchor="middle" x="3218" y="-14.3" font-family="Times,serif" font-size="14.00">RAC1</text>
</g>
<!-- PIK3CA&#45;&gt;RAC1 -->
<g id="edge20" class="edge">
<title>PIK3CA&#45;&gt;RAC1</title>
<path fill="none" stroke="green" d="M2829.86,-84.25C2916.94,-74.62 3108.75,-52.31 3173,-36 3175.81,-35.29 3178.68,-34.46 3181.55,-33.55"/>
<polygon fill="green" stroke="green" points="3182.86,-36.8 3191.19,-30.25 3180.59,-30.18 3182.86,-36.8"/>
</g>
<!-- PIK3CA&#45;&gt;AKT1 -->
<g id="edge21" class="edge">
<title>PIK3CA&#45;&gt;AKT1</title>
<path fill="none" stroke="green" d="M2812.9,-104.78C2827.37,-113.79 2843.87,-127.04 2852,-144 2858.92,-158.43 2854.51,-164.2 2852,-180 2830.85,-312.97 2858.36,-378.24 2758,-468 2727.41,-495.36 2612.31,-510.51 2547.35,-517.05"/>
<polygon fill="green" stroke="green" points="2546.98,-513.57 2537.37,-518.03 2547.67,-520.54 2546.98,-513.57"/>
</g>
<!-- PIK3R1 -->
<g id="node23" class="node">
<title>PIK3R1</title>
<ellipse fill="lightgray" stroke="black" cx="2686" cy="-18" rx="46.29" ry="18"/>
<text text-anchor="middle" x="2686" y="-14.3" font-family="Times,serif" font-size="14.00">PIK3R1</text>
</g>
<!-- PIK3CA&#45;&gt;PIK3R1 -->
<g id="edge23" class="edge">
<title>PIK3CA&#45;&gt;PIK3R1</title>
<path fill="none" stroke="green" d="M2760.48,-75C2745.37,-65.33 2726.43,-52.26 2711.36,-41.18"/>
<polygon fill="green" stroke="green" points="2713.1,-38.11 2702.99,-34.93 2708.91,-43.72 2713.1,-38.11"/>
</g>
<!-- MTOR&#45;&gt;AKT1 -->
<g id="edge141" class="edge">
<title>MTOR&#45;&gt;AKT1</title>
<path fill="none" stroke="green" d="M2434.37,-36.11C2434.16,-65.73 2425.29,-128.34 2412,-180 2397.36,-236.9 2369,-246.25 2369,-305 2369,-379 2369,-379 2369,-379 2369,-437.74 2430.51,-480.67 2470,-503.16"/>
<polygon fill="green" stroke="green" points="2468.59,-506.38 2479.03,-508.17 2471.99,-500.26 2468.59,-506.38"/>
</g>
<!-- IRS1&#45;&gt;PIK3CA -->
<g id="edge106" class="edge">
<title>IRS1&#45;&gt;PIK3CA</title>
<path fill="none" stroke="green" d="M2617.49,-27.35C2624.93,-30.18 2632.78,-33.31 2640,-36 2675.43,-49.22 2715.87,-63 2745.3,-73.2"/>
<polygon fill="green" stroke="green" points="2744.24,-76.54 2754.83,-76.51 2746.54,-69.92 2744.24,-76.54"/>
</g>
<!-- SIGNOR&#45;C156&#45;&gt;AKT1 -->
<g id="edge132" class="edge">
<title>SIGNOR&#45;C156&#45;&gt;AKT1</title>
<path fill="none" stroke="green" d="M2921.48,-36.23C2930.06,-70.28 2948.57,-148.73 2955,-216 2966.77,-339.11 2939.79,-399.24 2837,-468 2790.45,-499.14 2628.14,-513.26 2547.78,-518.47"/>
<polygon fill="green" stroke="green" points="2547.23,-514.99 2537.47,-519.12 2547.67,-521.98 2547.23,-514.99"/>
</g>
<!-- CHEBI_16618&#45;&gt;AKT1 -->
<g id="edge136" class="edge">
<title>CHEBI_16618&#45;&gt;AKT1</title>
<path fill="none" stroke="green" d="M3086.7,-36.02C3080.24,-107.1 3044.56,-380.48 2874,-468 2817.81,-496.83 2633.8,-512.37 2547.48,-518.23"/>
<polygon fill="green" stroke="green" points="2547.2,-514.74 2537.45,-518.9 2547.66,-521.73 2547.2,-514.74"/>
</g>
<!-- RAC1&#45;&gt;MAPK14 -->
<g id="edge97" class="edge">
<title>RAC1&#45;&gt;MAPK14</title>
<path fill="none" stroke="green" d="M3232.89,-34.87C3286.71,-93.96 3468,-308.75 3468,-521 3468,-667 3468,-667 3468,-667 3468,-707.97 3468.75,-723.35 3444,-756 3432.27,-771.48 3414.6,-783.33 3398.08,-791.86"/>
<polygon fill="green" stroke="green" points="3396.52,-788.73 3389.07,-796.26 3399.59,-795.02 3396.52,-788.73"/>
</g>
<!-- AKT1&#45;&gt;NR3C1 -->
<g id="edge32" class="edge">
<title>AKT1&#45;&gt;NR3C1</title>
<path fill="none" stroke="red" d="M2465.93,-521.2C2335.49,-521.48 1876.3,-518.58 1502,-468 960.23,-394.79 316.59,-220.71 150.61,-174.45"/>
<polygon fill="red" stroke="red" points="145,-178.08 147.68,-168.45 149.61,-168.98 146.92,-178.61 145,-178.08"/>
<polyline fill="none" stroke="red" points="145.38,-172.99 150.19,-174.34 "/>
</g>
<!-- AKT1&#45;&gt;GSK3B -->
<g id="edge36" class="edge">
<title>AKT1&#45;&gt;GSK3B</title>
<path fill="none" stroke="red" d="M2466.66,-518.7C2383.63,-512.9 2178.46,-496.09 2116,-468 2093.58,-457.92 2094.72,-445.24 2074,-432 1944.29,-349.1 1905.8,-334.33 1759,-288 1676.68,-262.02 1576.83,-247.15 1519.23,-240.1"/>
<polygon fill="red" stroke="red" points="1514.53,-244.57 1515.73,-234.64 1517.71,-234.88 1516.51,-244.81 1514.53,-244.57"/>
<polyline fill="none" stroke="red" points="1514.13,-239.49 1519.1,-240.09 "/>
</g>
<!-- AKT1&#45;&gt;MTOR -->
<g id="edge49" class="edge">
<title>AKT1&#45;&gt;MTOR</title>
<path fill="none" stroke="green" d="M2473.58,-510.91C2429.63,-491.62 2351,-445.42 2351,-379 2351,-379 2351,-379 2351,-305 2351,-246.25 2379.36,-236.9 2394,-180 2405.94,-133.59 2414.31,-78.33 2421.21,-46.11"/>
<polygon fill="green" stroke="green" points="2424.68,-46.64 2423.5,-36.11 2417.86,-45.08 2424.68,-46.64"/>
</g>
<!-- AKT1&#45;&gt;RAC1 -->
<g id="edge35" class="edge">
<title>AKT1&#45;&gt;RAC1</title>
<path fill="none" stroke="red" d="M2537.19,-518.62C2623.66,-512.44 2844.46,-494.46 2913,-468 2916.65,-466.59 3144,-310.91 3144,-307 3144,-307 3144,-307 3144,-161 3144,-112.71 3178.07,-64.57 3199.98,-38.62"/>
<polygon fill="red" stroke="red" points="3198.93,-32.15 3206.53,-38.66 3205.22,-40.18 3197.63,-33.67 3198.93,-32.15"/>
<polyline fill="none" stroke="red" points="3203.38,-34.64 3200.13,-38.44 "/>
</g>
<!-- AKT1&#45;&gt;CTNNB1 -->
<g id="edge42" class="edge">
<title>AKT1&#45;&gt;CTNNB1</title>
<path fill="none" stroke="green" d="M2503.88,-540.09C2505.07,-560.58 2503.47,-594.37 2483,-612 2423.04,-663.65 1873.96,-666.11 1686.43,-665.42"/>
<polygon fill="green" stroke="green" points="1686.2,-661.92 1676.19,-665.38 1686.18,-668.92 1686.2,-661.92"/>
</g>
<!-- POU5F1 -->
<g id="node26" class="node">
<title>POU5F1</title>
<ellipse fill="lightgray" stroke="black" cx="2424" cy="-594" rx="50.09" ry="18"/>
<text text-anchor="middle" x="2424" y="-590.3" font-family="Times,serif" font-size="14.00">POU5F1</text>
</g>
<!-- AKT1&#45;&gt;POU5F1 -->
<g id="edge48" class="edge">
<title>AKT1&#45;&gt;POU5F1</title>
<path fill="none" stroke="green" d="M2489.81,-539.13C2480.25,-548.68 2466.8,-560.91 2454.48,-571.3"/>
<polygon fill="green" stroke="green" points="2452.08,-568.74 2446.6,-577.81 2456.54,-574.14 2452.08,-568.74"/>
</g>
<!-- TTC3 -->
<g id="node27" class="node">
<title>TTC3</title>
<ellipse fill="lightgray" stroke="black" cx="2585" cy="-450" rx="36" ry="18"/>
<text text-anchor="middle" x="2585" y="-446.3" font-family="Times,serif" font-size="14.00">TTC3</text>
</g>
<!-- AKT1&#45;&gt;TTC3 -->
<g id="edge27" class="edge">
<title>AKT1&#45;&gt;TTC3</title>
<path fill="none" stroke="green" d="M2515.07,-505.12C2525.94,-494.96 2541.52,-481.71 2555.3,-470.86"/>
<polygon fill="green" stroke="green" points="2557.8,-473.35 2563.58,-464.47 2553.53,-467.81 2557.8,-473.35"/>
</g>
<!-- AKT1&#45;&gt;CREB1 -->
<g id="edge28" class="edge">
<title>AKT1&#45;&gt;CREB1</title>
<path fill="none" stroke="green" d="M2466.58,-519.22C2429.19,-515.42 2371.05,-503.71 2337,-468 2308.73,-438.35 2313,-419.97 2313,-379 2313,-379 2313,-379 2313,-305 2313,-263.71 2327.83,-217.77 2338.72,-189.63"/>
<polygon fill="green" stroke="green" points="2342.06,-190.7 2342.51,-180.11 2335.56,-188.11 2342.06,-190.7"/>
</g>
<!-- STK4 -->
<g id="node29" class="node">
<title>STK4</title>
<ellipse fill="lightgray" stroke="black" cx="2910" cy="-234" rx="36" ry="18"/>
<text text-anchor="middle" x="2910" y="-230.3" font-family="Times,serif" font-size="14.00">STK4</text>
</g>
<!-- AKT1&#45;&gt;STK4 -->
<g id="edge29" class="edge">
<title>AKT1&#45;&gt;STK4</title>
<path fill="none" stroke="red" d="M2537.44,-518.95C2608.39,-514.19 2764.58,-500.26 2806,-468 2875.15,-414.13 2899.54,-304.33 2907.04,-257.25"/>
<polygon fill="red" stroke="red" points="2902.75,-252.32 2912.63,-253.84 2912.32,-255.82 2902.44,-254.3 2902.75,-252.32"/>
<polyline fill="none" stroke="red" points="2907.84,-252.09 2907.08,-257.03 "/>
</g>
<!-- DAB2IP -->
<g id="node30" class="node">
<title>DAB2IP</title>
<ellipse fill="lightgray" stroke="black" cx="2094" cy="-378" rx="46.59" ry="18"/>
<text text-anchor="middle" x="2094" y="-374.3" font-family="Times,serif" font-size="14.00">DAB2IP</text>
</g>
<!-- AKT1&#45;&gt;DAB2IP -->
<g id="edge30" class="edge">
<title>AKT1&#45;&gt;DAB2IP</title>
<path fill="none" stroke="red" d="M2466.57,-519.14C2388.91,-514.49 2206.54,-500.37 2155,-468 2129.74,-452.14 2112.3,-421.57 2102.73,-400.74"/>
<polygon fill="red" stroke="red" points="2096.42,-398.88 2105.55,-394.8 2106.37,-396.62 2097.24,-400.7 2096.42,-398.88"/>
<polyline fill="none" stroke="red" points="2100.58,-395.92 2102.62,-400.49 "/>
</g>
<!-- STK3 -->
<g id="node31" class="node">
<title>STK3</title>
<ellipse fill="lightgray" stroke="black" cx="2637" cy="-378" rx="36" ry="18"/>
<text text-anchor="middle" x="2637" y="-374.3" font-family="Times,serif" font-size="14.00">STK3</text>
</g>
<!-- AKT1&#45;&gt;STK3 -->
<g id="edge31" class="edge">
<title>AKT1&#45;&gt;STK3</title>
<path fill="none" stroke="red" d="M2505.66,-504.09C2510.59,-484.7 2521.03,-452.9 2540,-432 2557.2,-413.06 2582.79,-399.47 2603.37,-390.8"/>
<polygon fill="red" stroke="red" points="2605.39,-384.56 2609.19,-393.81 2607.34,-394.57 2603.54,-385.32 2605.39,-384.56"/>
<polyline fill="none" stroke="red" points="2608.21,-388.81 2603.59,-390.71 "/>
</g>
<!-- RAF1 -->
<g id="node32" class="node">
<title>RAF1</title>
<ellipse fill="lightgray" stroke="black" cx="1547" cy="-450" rx="36.29" ry="18"/>
<text text-anchor="middle" x="1547" y="-446.3" font-family="Times,serif" font-size="14.00">RAF1</text>
</g>
<!-- AKT1&#45;&gt;RAF1 -->
<g id="edge33" class="edge">
<title>AKT1&#45;&gt;RAF1</title>
<path fill="none" stroke="red" d="M2466.21,-520.36C2319.46,-517.51 1763.43,-504.48 1592,-468 1587.56,-467.06 1582.98,-465.75 1578.51,-464.27"/>
<polygon fill="red" stroke="red" points="1573.04,-467.66 1576.31,-458.21 1578.2,-458.87 1574.92,-468.32 1573.04,-467.66"/>
<polyline fill="none" stroke="red" points="1573.73,-462.61 1578.45,-464.25 "/>
</g>
<!-- MAP3K8 -->
<g id="node33" class="node">
<title>MAP3K8</title>
<ellipse fill="lightgray" stroke="black" cx="1808" cy="-450" rx="51.19" ry="18"/>
<text text-anchor="middle" x="1808" y="-446.3" font-family="Times,serif" font-size="14.00">MAP3K8</text>
</g>
<!-- AKT1&#45;&gt;MAP3K8 -->
<g id="edge34" class="edge">
<title>AKT1&#45;&gt;MAP3K8</title>
<path fill="none" stroke="green" d="M2467.11,-517.48C2355.56,-506.23 2006.72,-471.04 1866.87,-456.94"/>
<polygon fill="green" stroke="green" points="1867.07,-453.44 1856.77,-455.92 1866.36,-460.4 1867.07,-453.44"/>
</g>
<!-- YAP1 -->
<g id="node34" class="node">
<title>YAP1</title>
<ellipse fill="lightgray" stroke="black" cx="3044" cy="-450" rx="34.39" ry="18"/>
<text text-anchor="middle" x="3044" y="-446.3" font-family="Times,serif" font-size="14.00">YAP1</text>
</g>
<!-- AKT1&#45;&gt;YAP1 -->
<g id="edge37" class="edge">
<title>AKT1&#45;&gt;YAP1</title>
<path fill="none" stroke="red" d="M2537.81,-520.01C2619.86,-517.14 2827.36,-506.35 2996,-468 3001.41,-466.77 3007.06,-465.12 3012.49,-463.33"/>
<polygon fill="red" stroke="red" points="3014.86,-457.24 3018.08,-466.71 3016.19,-467.36 3012.97,-457.89 3014.86,-457.24"/>
<polyline fill="none" stroke="red" points="3017.42,-461.66 3012.68,-463.27 "/>
</g>
<!-- RARA -->
<g id="node35" class="node">
<title>RARA</title>
<ellipse fill="lightgray" stroke="black" cx="3133" cy="-450" rx="37.09" ry="18"/>
<text text-anchor="middle" x="3133" y="-446.3" font-family="Times,serif" font-size="14.00">RARA</text>
</g>
<!-- AKT1&#45;&gt;RARA -->
<g id="edge38" class="edge">
<title>AKT1&#45;&gt;RARA</title>
<path fill="none" stroke="red" d="M2537.78,-521.01C2630,-520.36 2882.83,-514.12 3087,-468 3091.51,-466.98 3096.18,-465.63 3100.74,-464.13"/>
<polygon fill="red" stroke="red" points="3103.06,-458.05 3106.3,-467.51 3104.41,-468.16 3101.17,-458.7 3103.06,-458.05"/>
<polyline fill="none" stroke="red" points="3105.63,-462.45 3100.9,-464.08 "/>
</g>
<!-- PRKACA -->
<g id="node36" class="node">
<title>PRKACA</title>
<ellipse fill="lightgray" stroke="black" cx="1651" cy="-450" rx="50.09" ry="18"/>
<text text-anchor="middle" x="1651" y="-446.3" font-family="Times,serif" font-size="14.00">PRKACA</text>
</g>
<!-- AKT1&#45;&gt;PRKACA -->
<g id="edge39" class="edge">
<title>AKT1&#45;&gt;PRKACA</title>
<path fill="none" stroke="green" d="M2466.16,-519.8C2357.63,-515.87 2023.16,-501.69 1748,-468 1733.66,-466.24 1718.22,-463.8 1703.97,-461.3"/>
<polygon fill="green" stroke="green" points="1704.29,-457.81 1693.83,-459.49 1703.06,-464.7 1704.29,-457.81"/>
</g>
<!-- BRAF -->
<g id="node37" class="node">
<title>BRAF</title>
<ellipse fill="lightgray" stroke="black" cx="2028" cy="-450" rx="37.09" ry="18"/>
<text text-anchor="middle" x="2028" y="-446.3" font-family="Times,serif" font-size="14.00">BRAF</text>
</g>
<!-- AKT1&#45;&gt;BRAF -->
<g id="edge40" class="edge">
<title>AKT1&#45;&gt;BRAF</title>
<path fill="none" stroke="red" d="M2466.5,-518.92C2393.27,-514.12 2220.46,-500.11 2079,-468 2073.24,-466.69 2067.21,-464.99 2061.4,-463.17"/>
<polygon fill="red" stroke="red" points="2056,-466.69 2059.06,-457.17 2060.96,-457.78 2057.9,-467.3 2056,-466.69"/>
<polyline fill="none" stroke="red" points="2056.58,-461.63 2061.34,-463.16 "/>
</g>
<!-- GAB2 -->
<g id="node38" class="node">
<title>GAB2</title>
<ellipse fill="lightgray" stroke="black" cx="2781" cy="-234" rx="37.09" ry="18"/>
<text text-anchor="middle" x="2781" y="-230.3" font-family="Times,serif" font-size="14.00">GAB2</text>
</g>
<!-- AKT1&#45;&gt;GAB2 -->
<g id="edge41" class="edge">
<title>AKT1&#45;&gt;GAB2</title>
<path fill="none" stroke="red" d="M2536.83,-517.69C2594.9,-511.44 2707.83,-495.97 2735,-468 2764.1,-438.05 2775.95,-309.64 2779.63,-257.32"/>
<polygon fill="red" stroke="red" points="2774.92,-252.86 2784.9,-253.54 2784.76,-255.54 2774.78,-254.85 2774.92,-252.86"/>
<polyline fill="none" stroke="red" points="2779.98,-252.2 2779.64,-257.19 "/>
</g>
<!-- GSK3A -->
<g id="node39" class="node">
<title>GSK3A</title>
<ellipse fill="lightgray" stroke="black" cx="2241" cy="-450" rx="43.59" ry="18"/>
<text text-anchor="middle" x="2241" y="-446.3" font-family="Times,serif" font-size="14.00">GSK3A</text>
</g>
<!-- AKT1&#45;&gt;GSK3A -->
<g id="edge43" class="edge">
<title>AKT1&#45;&gt;GSK3A</title>
<path fill="none" stroke="red" d="M2469.43,-514.31C2427.46,-504.49 2353.01,-485.46 2290,-468 2285.62,-466.79 2281.06,-465.5 2276.55,-464.19"/>
<polygon fill="red" stroke="red" points="2271.25,-467.85 2274.05,-458.25 2275.97,-458.81 2273.17,-468.41 2271.25,-467.85"/>
<polyline fill="none" stroke="red" points="2271.69,-462.77 2276.49,-464.17 "/>
</g>
<!-- BRCA1 -->
<g id="node40" class="node">
<title>BRCA1</title>
<ellipse fill="lightgray" stroke="black" cx="2682" cy="-450" rx="43.59" ry="18"/>
<text text-anchor="middle" x="2682" y="-446.3" font-family="Times,serif" font-size="14.00">BRCA1</text>
</g>
<!-- AKT1&#45;&gt;BRCA1 -->
<g id="edge44" class="edge">
<title>AKT1&#45;&gt;BRCA1</title>
<path fill="none" stroke="green" d="M2527.32,-509.13C2556.48,-497.04 2604.57,-478.29 2639.46,-465.37"/>
<polygon fill="green" stroke="green" points="2640.75,-468.63 2648.93,-461.89 2638.34,-462.06 2640.75,-468.63"/>
</g>
<!-- AR -->
<g id="node41" class="node">
<title>AR</title>
<ellipse fill="lightgray" stroke="black" cx="3215" cy="-450" rx="27" ry="18"/>
<text text-anchor="middle" x="3215" y="-446.3" font-family="Times,serif" font-size="14.00">AR</text>
</g>
<!-- AKT1&#45;&gt;AR -->
<g id="edge45" class="edge">
<title>AKT1&#45;&gt;AR</title>
<path fill="none" stroke="red" d="M2537.83,-519.9C2659.5,-515.91 3056.08,-500.65 3179,-468 3182.67,-467.02 3186.43,-465.68 3190.07,-464.18"/>
<polygon fill="red" stroke="red" points="3192,-457.87 3196.02,-467.02 3194.19,-467.83 3190.17,-458.67 3192,-457.87"/>
<polyline fill="none" stroke="red" points="3194.93,-462.04 3190.35,-464.05 "/>
</g>
<!-- MAP2K4 -->
<g id="node42" class="node">
<title>MAP2K4</title>
<ellipse fill="lightgray" stroke="black" cx="3809" cy="-18" rx="51.19" ry="18"/>
<text text-anchor="middle" x="3809" y="-14.3" font-family="Times,serif" font-size="14.00">MAP2K4</text>
</g>
<!-- AKT1&#45;&gt;MAP2K4 -->
<g id="edge46" class="edge">
<title>AKT1&#45;&gt;MAP2K4</title>
<path fill="none" stroke="red" d="M2537.49,-519.16C2629.98,-514 2876.44,-497.78 2952,-468 2977.14,-458.09 2977.93,-446.07 3001,-432 3276.91,-263.7 3366.65,-259.75 3652,-108 3696.96,-84.09 3748.1,-54.67 3779.46,-36.38"/>
<polygon fill="red" stroke="red" points="3780.56,-29.94 3785.6,-38.58 3783.88,-39.59 3778.83,-30.95 3780.56,-29.94"/>
<polyline fill="none" stroke="red" points="3783.94,-33.76 3779.63,-36.28 "/>
</g>
<!-- PTPN1 -->
<g id="node43" class="node">
<title>PTPN1</title>
<ellipse fill="lightgray" stroke="black" cx="3303" cy="-450" rx="42.79" ry="18"/>
<text text-anchor="middle" x="3303" y="-446.3" font-family="Times,serif" font-size="14.00">PTPN1</text>
</g>
<!-- AKT1&#45;&gt;PTPN1 -->
<g id="edge47" class="edge">
<title>AKT1&#45;&gt;PTPN1</title>
<path fill="none" stroke="red" d="M2538.1,-521.6C2646.18,-522.53 2975.26,-520.21 3242,-468 3249.04,-466.62 3256.46,-464.58 3263.65,-462.38"/>
<polygon fill="red" stroke="red" points="3266.13,-456.36 3269.11,-465.91 3267.2,-466.5 3264.22,-456.96 3266.13,-456.36"/>
<polyline fill="none" stroke="red" points="3268.58,-460.84 3263.8,-462.33 "/>
</g>
<!-- PIK3R1&#45;&gt;PIK3CA -->
<g id="edge101" class="edge">
<title>PIK3R1&#45;&gt;PIK3CA</title>
<path fill="none" stroke="green" d="M2711.77,-33.16C2726.88,-42.84 2745.74,-55.86 2760.74,-66.89"/>
<polygon fill="green" stroke="green" points="2758.96,-69.93 2769.07,-73.12 2763.15,-64.33 2758.96,-69.93"/>
</g>
<!-- CTNNB1&#45;&gt;PPARG -->
<g id="edge26" class="edge">
<title>CTNNB1&#45;&gt;PPARG</title>
<path fill="none" stroke="red" d="M1572,-665.57C1441.97,-666.27 1093.33,-663.08 809,-612 804.3,-611.16 799.43,-610.06 794.67,-608.83"/>
<polygon fill="red" stroke="red" points="789.22,-612.54 791.82,-602.89 793.76,-603.41 791.16,-613.06 789.22,-612.54"/>
<polyline fill="none" stroke="red" points="789.56,-607.46 794.39,-608.76 "/>
</g>
<!-- SIGNOR&#45;PF72 -->
<g id="node25" class="node">
<title>SIGNOR&#45;PF72</title>
<ellipse fill="lightgray" stroke="black" cx="1624" cy="-594" rx="77.19" ry="18"/>
<text text-anchor="middle" x="1624" y="-590.3" font-family="Times,serif" font-size="14.00">SIGNOR&#45;PF72</text>
</g>
<!-- CTNNB1&#45;&gt;SIGNOR&#45;PF72 -->
<g id="edge24" class="edge">
<title>CTNNB1&#45;&gt;SIGNOR&#45;PF72</title>
<path fill="none" stroke="green" d="M1618.12,-648.05C1617.3,-640.35 1617.06,-631.03 1617.39,-622.36"/>
<polygon fill="green" stroke="green" points="1620.89,-622.49 1618.09,-612.28 1613.91,-622.01 1620.89,-622.49"/>
</g>
<!-- CTNNB1&#45;&gt;POU5F1 -->
<g id="edge25" class="edge">
<title>CTNNB1&#45;&gt;POU5F1</title>
<path fill="none" stroke="green" d="M1673.74,-660.65C1814.56,-648.33 2215.5,-613.24 2365.99,-600.08"/>
<polygon fill="green" stroke="green" points="2366.3,-603.56 2375.96,-599.2 2365.69,-596.59 2366.3,-603.56"/>
</g>
<!-- CTNNB1&#45;&gt;MYC -->
<g id="edge174" class="edge">
<title>CTNNB1&#45;&gt;MYC</title>
<path fill="none" stroke="green" d="M1572.31,-663.31C1414.61,-657.87 946.58,-639.57 884,-612 862.71,-602.62 864.58,-590 846,-576 820.86,-557.05 808.61,-560.82 785,-540 678.78,-446.33 705.56,-369.86 590,-288 507.08,-229.26 470.33,-245.19 373,-216 313.93,-198.28 276.52,-228.94 239,-180 229.26,-167.3 228.21,-155.81 239,-144 275.35,-104.2 651.29,-93.98 780.03,-91.63"/>
<polygon fill="green" stroke="green" points="780.35,-95.13 790.29,-91.46 780.23,-88.13 780.35,-95.13"/>
</g>
<!-- CTNNB1&#45;&gt;CCND1 -->
<g id="edge172" class="edge">
<title>CTNNB1&#45;&gt;CCND1</title>
<path fill="none" stroke="green" d="M1572.18,-663.69C1408.74,-659.27 911.12,-643.33 846,-612 826.44,-602.59 830.2,-589.23 813,-576 803.6,-568.77 63.14,-190.14 57,-180 -14.44,-61.92 247.14,-30.09 365.6,-21.8"/>
<polygon fill="green" stroke="green" points="366.18,-25.27 375.92,-21.11 365.71,-18.29 366.18,-25.27"/>
</g>
<!-- TCF7L2 -->
<g id="node73" class="node">
<title>TCF7L2</title>
<ellipse fill="lightgray" stroke="black" cx="1804" cy="-594" rx="47.39" ry="18"/>
<text text-anchor="middle" x="1804" y="-590.3" font-family="Times,serif" font-size="14.00">TCF7L2</text>
</g>
<!-- CTNNB1&#45;&gt;TCF7L2 -->
<g id="edge173" class="edge">
<title>CTNNB1&#45;&gt;TCF7L2</title>
<path fill="none" stroke="green" d="M1657.43,-652C1687.1,-640.46 1730.56,-623.56 1762.46,-611.16"/>
<polygon fill="green" stroke="green" points="1763.9,-614.35 1771.95,-607.46 1761.37,-607.82 1763.9,-614.35"/>
</g>
<!-- SIGNOR&#45;PF72&#45;&gt;CTNNB1 -->
<g id="edge127" class="edge">
<title>SIGNOR&#45;PF72&#45;&gt;CTNNB1</title>
<path fill="none" stroke="green" d="M1629.91,-612.28C1630.71,-620.03 1630.94,-629.36 1630.59,-638.01"/>
<polygon fill="green" stroke="green" points="1627.09,-637.83 1629.88,-648.05 1634.08,-638.33 1627.09,-637.83"/>
</g>
<!-- POU5F1&#45;&gt;AKT1 -->
<g id="edge140" class="edge">
<title>POU5F1&#45;&gt;AKT1</title>
<path fill="none" stroke="red" d="M2436.64,-576.41C2447.62,-565.49 2463.49,-551.23 2476.94,-540.19"/>
<polygon fill="red" stroke="red" points="2477.1,-533.62 2483.4,-541.39 2481.84,-542.65 2475.55,-534.88 2477.1,-533.62"/>
<polyline fill="none" stroke="red" points="2481.03,-536.88 2477.14,-540.03 "/>
</g>
<!-- TTC3&#45;&gt;AKT1 -->
<g id="edge130" class="edge">
<title>TTC3&#45;&gt;AKT1</title>
<path fill="none" stroke="red" d="M2571.9,-466.91C2559.92,-478.1 2542.21,-493.06 2527.52,-504.4"/>
<polygon fill="red" stroke="red" points="2527.29,-510.87 2521.22,-502.92 2522.81,-501.71 2528.88,-509.66 2527.29,-510.87"/>
<polyline fill="none" stroke="red" points="2523.46,-507.5 2527.43,-504.47 "/>
</g>
<!-- CREB1&#45;&gt;CTNNB1 -->
<g id="edge109" class="edge">
<title>CREB1&#45;&gt;CTNNB1</title>
<path fill="none" stroke="green" d="M2318.3,-174.73C2242.33,-204.61 2049.5,-291.34 1959,-432 1913.52,-502.68 1963.96,-556.32 1901,-612 1869.58,-639.78 1756.15,-654.12 1684.56,-660.56"/>
<polygon fill="green" stroke="green" points="1683.97,-657.1 1674.31,-661.45 1684.58,-664.07 1683.97,-657.1"/>
</g>
<!-- STK4&#45;&gt;PIK3CA -->
<g id="edge102" class="edge">
<title>STK4&#45;&gt;PIK3CA</title>
<path fill="none" stroke="red" d="M2915.74,-216C2921.08,-196.82 2926.28,-165.5 2912,-144 2894.69,-117.95 2861.81,-104.67 2833.98,-97.92"/>
<polygon fill="red" stroke="red" points="2828.69,-101.83 2830.94,-92.09 2832.89,-92.54 2830.64,-102.28 2828.69,-101.83"/>
<polyline fill="none" stroke="red" points="2828.84,-96.74 2833.72,-97.86 "/>
</g>
<!-- DAB2IP&#45;&gt;GSK3B -->
<g id="edge148" class="edge">
<title>DAB2IP&#45;&gt;GSK3B</title>
<path fill="none" stroke="green" d="M2081.35,-360.46C2064.29,-339.54 2031.77,-304.27 1995,-288 1912.06,-251.3 1642.67,-239.64 1526.32,-236.26"/>
<polygon fill="green" stroke="green" points="1526.31,-232.76 1516.22,-235.98 1526.12,-239.76 1526.31,-232.76"/>
</g>
<!-- DAB2IP&#45;&gt;PIK3CA -->
<g id="edge103" class="edge">
<title>DAB2IP&#45;&gt;PIK3CA</title>
<path fill="none" stroke="red" d="M2123.5,-363.69C2190.5,-333.86 2359.74,-260.78 2507,-216 2577.57,-194.54 2603.87,-214.62 2669,-180 2689.54,-169.08 2688.83,-158.53 2707,-144 2723.15,-131.08 2742.4,-118.12 2757.86,-108.25"/>
<polygon fill="red" stroke="red" points="2758.59,-101.86 2763.95,-110.31 2762.26,-111.38 2756.9,-102.93 2758.59,-101.86"/>
<polyline fill="none" stroke="red" points="2762.11,-105.55 2757.89,-108.23 "/>
</g>
<!-- DAB2IP&#45;&gt;CTNNB1 -->
<g id="edge110" class="edge">
<title>DAB2IP&#45;&gt;CTNNB1</title>
<path fill="none" stroke="red" d="M2055.12,-388.13C2030.67,-395.84 2000.37,-409.37 1982,-432 1930.18,-495.87 1999.1,-555.84 1939,-612 1902.47,-646.13 1761.16,-658.47 1680.77,-662.79"/>
<polygon fill="red" stroke="red" points="1676.83,-668 1676.3,-658.02 1678.3,-657.91 1678.82,-667.9 1676.83,-668"/>
<polyline fill="none" stroke="red" points="1675.57,-663.06 1680.56,-662.8 "/>
</g>
<!-- STK3&#45;&gt;PIK3CA -->
<g id="edge104" class="edge">
<title>STK3&#45;&gt;PIK3CA</title>
<path fill="none" stroke="red" d="M2643.74,-359.92C2657.01,-328.1 2689.26,-259.08 2735,-216 2759.89,-192.55 2785.36,-209.3 2803,-180 2815.49,-159.25 2806.81,-131.27 2797.91,-112.26"/>
<polygon fill="red" stroke="red" points="2791.59,-110.72 2800.58,-106.34 2801.46,-108.14 2792.47,-112.52 2791.59,-110.72"/>
<polyline fill="none" stroke="red" points="2795.65,-107.63 2797.84,-112.13 "/>
</g>
<!-- RAF1&#45;&gt;MAP2K1 -->
<g id="edge162" class="edge">
<title>RAF1&#45;&gt;MAP2K1</title>
<path fill="none" stroke="green" d="M1522.73,-436.32C1502.23,-425.61 1472.55,-410.11 1449.23,-397.93"/>
<polygon fill="green" stroke="green" points="1450.8,-394.8 1440.32,-393.27 1447.56,-401 1450.8,-394.8"/>
</g>
<!-- MAP3K8&#45;&gt;MAP2K1 -->
<g id="edge163" class="edge">
<title>MAP3K8&#45;&gt;MAP2K1</title>
<path fill="none" stroke="green" d="M1763.07,-441.04C1690.31,-428.14 1546.91,-402.73 1468.1,-388.76"/>
<polygon fill="green" stroke="green" points="1468.34,-385.25 1457.88,-386.95 1467.12,-392.15 1468.34,-385.25"/>
</g>
<!-- YAP1&#45;&gt;CTNNB1 -->
<g id="edge116" class="edge">
<title>YAP1&#45;&gt;CTNNB1</title>
<path fill="none" stroke="green" d="M3017.11,-461.53C2939.4,-491.41 2707.21,-576.86 2506,-612 2347.92,-639.61 1859.09,-657.49 1685.74,-663.1"/>
<polygon fill="green" stroke="green" points="1685.4,-659.61 1675.52,-663.43 1685.62,-666.61 1685.4,-659.61"/>
</g>
<!-- RARA&#45;&gt;CTNNB1 -->
<g id="edge119" class="edge">
<title>RARA&#45;&gt;CTNNB1</title>
<path fill="none" stroke="red" d="M3104.37,-461.84C3098.64,-463.94 3092.64,-466.08 3087,-468 2985.2,-502.65 2959.18,-509.7 2856,-540 2740.54,-573.91 2713.76,-592.61 2595,-612 2417.22,-641.03 1861.13,-658.49 1680.96,-663.5"/>
<polygon fill="red" stroke="red" points="1676.88,-668.61 1676.6,-658.62 1678.6,-658.56 1678.87,-668.56 1676.88,-668.61"/>
<polyline fill="none" stroke="red" points="1675.74,-663.64 1680.74,-663.5 "/>
</g>
<!-- PRKACA&#45;&gt;GSK3B -->
<g id="edge147" class="edge">
<title>PRKACA&#45;&gt;GSK3B</title>
<path fill="none" stroke="red" d="M1685.83,-436.9C1704.28,-428.51 1725.28,-415.31 1736,-396 1759.29,-354.03 1766.42,-325.13 1736,-288 1709.33,-255.44 1589.57,-242.46 1520.87,-237.63"/>
<polygon fill="red" stroke="red" points="1516.26,-242.33 1516.95,-232.35 1518.94,-232.49 1518.26,-242.46 1516.26,-242.33"/>
<polyline fill="none" stroke="red" points="1515.61,-237.27 1520.6,-237.61 "/>
</g>
<!-- PRKACA&#45;&gt;CTNNB1 -->
<g id="edge121" class="edge">
<title>PRKACA&#45;&gt;CTNNB1</title>
<path fill="none" stroke="green" d="M1629.28,-466.64C1601.92,-487.82 1556.29,-528.5 1538,-576 1532.25,-590.93 1530.2,-598.03 1538,-612 1547.01,-628.13 1563.16,-639.96 1579.05,-648.29"/>
<polygon fill="green" stroke="green" points="1577.8,-651.58 1588.33,-652.81 1580.87,-645.28 1577.8,-651.58"/>
</g>
<!-- BRAF&#45;&gt;MAP2K1 -->
<g id="edge159" class="edge">
<title>BRAF&#45;&gt;MAP2K1</title>
<path fill="none" stroke="green" d="M1992.28,-444.93C1890.29,-433.33 1597.08,-399.95 1471.36,-385.64"/>
<polygon fill="green" stroke="green" points="1471.5,-382.14 1461.17,-384.48 1470.71,-389.09 1471.5,-382.14"/>
</g>
<!-- GAB2&#45;&gt;PIK3CA -->
<g id="edge105" class="edge">
<title>GAB2&#45;&gt;PIK3CA</title>
<path fill="none" stroke="green" d="M2802.39,-219.08C2814.74,-209.7 2829.15,-196.11 2836,-180 2842.26,-165.28 2841.91,-158.87 2836,-144 2831.38,-132.36 2822.85,-121.8 2814.13,-113.22"/>
<polygon fill="green" stroke="green" points="2816.25,-110.41 2806.52,-106.21 2811.51,-115.56 2816.25,-110.41"/>
</g>
<!-- GSK3A&#45;&gt;AKT1 -->
<g id="edge135" class="edge">
<title>GSK3A&#45;&gt;AKT1</title>
<path fill="none" stroke="red" d="M2278.11,-459.56C2287.93,-462.31 2298.39,-465.34 2308,-468 2363.6,-483.4 2428.11,-500.03 2467.08,-510.48"/>
<polygon fill="red" stroke="red" points="2472.51,-506.76 2469.91,-516.42 2467.98,-515.9 2470.58,-506.24 2472.51,-506.76"/>
<polyline fill="none" stroke="red" points="2472.18,-511.85 2467.35,-510.55 "/>
</g>
<!-- GSK3A&#45;&gt;MYC -->
<g id="edge175" class="edge">
<title>GSK3A&#45;&gt;MYC</title>
<path fill="none" stroke="red" d="M2238.08,-431.85C2227.9,-378.05 2188.58,-212.18 2081,-144 2028.18,-110.53 1064.52,-94.55 860.68,-91.53"/>
<polygon fill="red" stroke="red" points="856.36,-96.47 856.51,-86.47 858.51,-86.5 858.36,-96.5 856.36,-96.47"/>
<polyline fill="none" stroke="red" points="855.43,-91.46 860.43,-91.53 "/>
</g>
<!-- BRCA1&#45;&gt;AKT1 -->
<g id="edge137" class="edge">
<title>BRCA1&#45;&gt;AKT1</title>
<path fill="none" stroke="red" d="M2654.16,-463.92C2622.38,-477.02 2570.66,-497.1 2536.39,-509.62"/>
<polygon fill="red" stroke="red" points="2534.12,-515.77 2530.7,-506.37 2532.58,-505.69 2536,-515.09 2534.12,-515.77"/>
<polyline fill="none" stroke="red" points="2531.47,-511.41 2536.17,-509.7 "/>
</g>
<!-- AR&#45;&gt;CTNNB1 -->
<g id="edge125" class="edge">
<title>AR&#45;&gt;CTNNB1</title>
<path fill="none" stroke="red" d="M3193.92,-461.64C3189.08,-463.89 3183.91,-466.14 3179,-468 2963.9,-549.36 2908.81,-573.99 2682,-612 2486.8,-644.71 1871.96,-659.88 1681.09,-663.88"/>
<polygon fill="red" stroke="red" points="1676.95,-668.97 1676.74,-658.97 1678.74,-658.93 1678.95,-668.93 1676.95,-668.97"/>
<polyline fill="none" stroke="red" points="1675.84,-663.99 1680.84,-663.89 "/>
</g>
<!-- MAP2K4&#45;&gt;MAPK14 -->
<g id="edge86" class="edge">
<title>MAP2K4&#45;&gt;MAPK14</title>
<path fill="none" stroke="green" d="M3808.48,-36.19C3805.49,-114.79 3786.23,-446.41 3670,-684 3651.94,-720.91 3647.07,-734.59 3612,-756 3552.18,-792.51 3471.45,-804.28 3416.54,-807.86"/>
<polygon fill="green" stroke="green" points="3416.04,-804.38 3406.26,-808.45 3416.45,-811.37 3416.04,-804.38"/>
</g>
<!-- PTPN1&#45;&gt;MAPK14 -->
<g id="edge92" class="edge">
<title>PTPN1&#45;&gt;MAPK14</title>
<path fill="none" stroke="red" d="M3317.37,-467.16C3338.11,-492.23 3374,-542.84 3374,-593 3374,-667 3374,-667 3374,-667 3374,-709.62 3365.49,-758.79 3359.86,-786.66"/>
<polygon fill="red" stroke="red" points="3363.94,-791.64 3354.15,-789.63 3354.55,-787.67 3364.35,-789.68 3363.94,-791.64"/>
<polyline fill="none" stroke="red" points="3358.84,-791.61 3359.85,-786.71 "/>
</g>
<!-- PTPN1&#45;&gt;AKT1 -->
<g id="edge139" class="edge">
<title>PTPN1&#45;&gt;AKT1</title>
<path fill="none" stroke="red" d="M3275.84,-464.04C3270.64,-465.59 3265.22,-466.98 3260,-468 2990.82,-520.69 2658.14,-522.57 2543.19,-521.57"/>
<polygon fill="red" stroke="red" points="2538.84,-526.53 2538.93,-516.53 2540.93,-516.55 2540.84,-526.55 2538.84,-526.53"/>
<polyline fill="none" stroke="red" points="2537.89,-521.52 2542.89,-521.57 "/>
</g>
<!-- PTPN1&#45;&gt;CTNNB1 -->
<g id="edge126" class="edge">
<title>PTPN1&#45;&gt;CTNNB1</title>
<path fill="none" stroke="green" d="M3271.82,-462.66C3224,-480.37 3129.49,-514.66 3048,-540 2932.28,-575.99 2904.71,-593.12 2785,-612 2570.26,-645.87 1894.42,-660.27 1685.89,-663.98"/>
<polygon fill="green" stroke="green" points="1685.67,-660.49 1675.73,-664.16 1685.79,-667.48 1685.67,-660.49"/>
</g>
<!-- MAP3K7&#45;&gt;TAB1 -->
<g id="edge51" class="edge">
<title>MAP3K7&#45;&gt;TAB1</title>
<path fill="none" stroke="green" d="M3533.26,-74.33C3518.6,-64.54 3500.51,-51.51 3486.27,-40.55"/>
<polygon fill="green" stroke="green" points="3488.42,-37.79 3478.39,-34.38 3484.11,-43.3 3488.42,-37.79"/>
</g>
<!-- MAP3K7&#45;&gt;MAP2K4 -->
<g id="edge50" class="edge">
<title>MAP3K7&#45;&gt;MAP2K4</title>
<path fill="none" stroke="green" d="M3597.79,-78.14C3641.58,-65.88 3712.89,-45.91 3760.37,-32.62"/>
<polygon fill="green" stroke="green" points="3761.43,-35.95 3770.12,-29.89 3759.55,-29.21 3761.43,-35.95"/>
</g>
<!-- MAP3K7&#45;&gt;MAP3K4 -->
<g id="edge52" class="edge">
<title>MAP3K7&#45;&gt;MAP3K4</title>
<path fill="none" stroke="green" d="M3523.7,-76.65C3490.29,-64.95 3439.98,-47.34 3403.76,-34.67"/>
<polygon fill="green" stroke="green" points="3404.54,-31.23 3393.94,-31.23 3402.23,-37.84 3404.54,-31.23"/>
</g>
<!-- MAP2K6 -->
<g id="node46" class="node">
<title>MAP2K6</title>
<ellipse fill="lightgray" stroke="black" cx="3567" cy="-18" rx="51.19" ry="18"/>
<text text-anchor="middle" x="3567" y="-14.3" font-family="Times,serif" font-size="14.00">MAP2K6</text>
</g>
<!-- MAP3K7&#45;&gt;MAP2K6 -->
<g id="edge53" class="edge">
<title>MAP3K7&#45;&gt;MAP2K6</title>
<path fill="none" stroke="green" d="M3560.98,-71.7C3561.86,-63.98 3562.92,-54.71 3563.9,-46.11"/>
<polygon fill="green" stroke="green" points="3567.39,-46.44 3565.05,-36.1 3560.43,-45.64 3567.39,-46.44"/>
</g>
<!-- MAP2K3 -->
<g id="node47" class="node">
<title>MAP2K3</title>
<ellipse fill="lightgray" stroke="black" cx="3688" cy="-18" rx="51.19" ry="18"/>
<text text-anchor="middle" x="3688" y="-14.3" font-family="Times,serif" font-size="14.00">MAP2K3</text>
</g>
<!-- MAP3K7&#45;&gt;MAP2K3 -->
<g id="edge54" class="edge">
<title>MAP3K7&#45;&gt;MAP2K3</title>
<path fill="none" stroke="green" d="M3585.73,-74.5C3605.01,-64.03 3631.26,-49.79 3652.33,-38.36"/>
<polygon fill="green" stroke="green" points="3654.19,-41.33 3661.31,-33.49 3650.85,-35.18 3654.19,-41.33"/>
</g>
<!-- MAP3K4&#45;&gt;MAPK14 -->
<g id="edge90" class="edge">
<title>MAP3K4&#45;&gt;MAPK14</title>
<path fill="none" stroke="green" d="M3374.69,-35.42C3383.34,-45.31 3393.59,-58.56 3400,-72 3488.29,-257.06 3506,-315.96 3506,-521 3506,-667 3506,-667 3506,-667 3506,-707.97 3509,-725.18 3482,-756 3463.31,-777.34 3434.63,-790.28 3409.26,-798.03"/>
<polygon fill="green" stroke="green" points="3408.02,-794.75 3399.36,-800.85 3409.93,-801.48 3408.02,-794.75"/>
</g>
<!-- MAP2K6&#45;&gt;MAPK14 -->
<g id="edge91" class="edge">
<title>MAP2K6&#45;&gt;MAPK14</title>
<path fill="none" stroke="green" d="M3588.86,-34.49C3600.16,-43.89 3612.86,-56.96 3619,-72 3646.26,-138.7 3600,-160.95 3600,-233 3600,-667 3600,-667 3600,-667 3600,-713.27 3582.89,-728.07 3546,-756 3508.06,-784.72 3455.38,-797.88 3414.95,-803.91"/>
<polygon fill="green" stroke="green" points="3414.38,-800.45 3404.95,-805.29 3415.34,-807.39 3414.38,-800.45"/>
</g>
<!-- MAP2K3&#45;&gt;MAPK14 -->
<g id="edge93" class="edge">
<title>MAP2K3&#45;&gt;MAPK14</title>
<path fill="none" stroke="green" d="M3685.63,-36.01C3682.13,-62.62 3676,-115.72 3676,-161 3676,-235 3676,-235 3676,-235 3676,-651.39 3694.76,-662.2 3579,-756 3533.05,-793.23 3465.38,-805.13 3416.45,-808.54"/>
<polygon fill="green" stroke="green" points="3416.08,-805.06 3406.31,-809.15 3416.5,-812.04 3416.08,-805.06"/>
</g>
<!-- PHLPP1&#45;&gt;AKT1 -->
<g id="edge131" class="edge">
<title>PHLPP1&#45;&gt;AKT1</title>
<path fill="none" stroke="red" d="M2572.12,-173.3C2549.65,-181.28 2522.79,-194.66 2507,-216 2466.22,-271.14 2457.92,-429.24 2469,-468 2472.36,-479.75 2479.16,-491.43 2485.72,-500.82"/>
<polygon fill="red" stroke="red" points="2492.18,-501.24 2484.06,-507.08 2482.89,-505.45 2491.01,-499.61 2492.18,-501.24"/>
<polyline fill="none" stroke="red" points="2488.7,-504.97 2485.78,-500.91 "/>
</g>
<!-- CDH1&#45;&gt;CTNNB1 -->
<g id="edge111" class="edge">
<title>CDH1&#45;&gt;CTNNB1</title>
<path fill="none" stroke="green" d="M319.36,-171.12C331.78,-174.05 346,-177.3 359,-180 446.15,-198.1 477.18,-174.66 556,-216 721.49,-302.81 684.13,-416.06 824,-540 847.28,-560.62 859.23,-557.19 884,-576 902.53,-590.07 900.73,-602.58 922,-612 1035.64,-662.32 1411.75,-666.14 1561.6,-665.58"/>
<polygon fill="green" stroke="green" points="1562,-669.08 1571.99,-665.53 1561.97,-662.08 1562,-669.08"/>
</g>
<!-- FRAT1&#45;&gt;GSK3B -->
<g id="edge154" class="edge">
<title>FRAT1&#45;&gt;GSK3B</title>
<path fill="none" stroke="green" d="M1379.33,-175.81C1398.35,-186.04 1423.53,-200.56 1442.91,-212.41"/>
<polygon fill="green" stroke="green" points="1441.3,-215.52 1451.64,-217.81 1444.98,-209.57 1441.3,-215.52"/>
</g>
<!-- RXRA&#45;&gt;CTNNB1 -->
<g id="edge112" class="edge">
<title>RXRA&#45;&gt;CTNNB1</title>
<path fill="none" stroke="red" d="M444.96,-174.24C450.86,-176.35 457.08,-178.4 463,-180 551.44,-203.98 590.85,-163.57 666,-216 734.36,-263.69 795.04,-482.1 855,-540 879.32,-563.48 894.6,-556.2 922,-576 940.86,-589.63 938.75,-602.53 960,-612 1067.82,-660.02 1425.86,-665.16 1566.54,-665.27"/>
<polygon fill="red" stroke="red" points="1570.86,-660.27 1570.85,-670.27 1568.85,-670.27 1568.86,-660.27 1570.86,-660.27"/>
<polyline fill="none" stroke="red" points="1571.86,-665.27 1566.86,-665.27 "/>
</g>
<!-- PSEN1&#45;&gt;CTNNB1 -->
<g id="edge113" class="edge">
<title>PSEN1&#45;&gt;CTNNB1</title>
<path fill="none" stroke="red" d="M549.28,-173.95C555.8,-176.02 562.6,-178.12 569,-180 628.58,-197.49 655.56,-177.15 704,-216 834.22,-320.45 765.45,-433.51 894,-540 919.73,-561.32 932.61,-556.86 960,-576 979.88,-589.89 978.69,-602.5 1001,-612 1102.06,-655.05 1432.74,-663.16 1566.79,-664.66"/>
<polygon fill="red" stroke="red" points="1570.92,-659.71 1570.81,-669.71 1568.81,-669.69 1568.92,-659.69 1570.92,-659.71"/>
<polyline fill="none" stroke="red" points="1571.86,-664.72 1566.86,-664.67 "/>
</g>
<!-- SRC&#45;&gt;AKT1 -->
<g id="edge133" class="edge">
<title>SRC&#45;&gt;AKT1</title>
<path fill="none" stroke="green" d="M2051.14,-179.13C2071.64,-212.16 2118.71,-290.28 2150,-360 2170.83,-406.42 2149.08,-435.23 2188,-468 2227.83,-501.54 2379.09,-514.42 2456.2,-518.88"/>
<polygon fill="green" stroke="green" points="2456.39,-522.4 2466.57,-519.46 2456.78,-515.41 2456.39,-522.4"/>
</g>
<!-- SRC&#45;&gt;CTNNB1 -->
<g id="edge114" class="edge">
<title>SRC&#45;&gt;CTNNB1</title>
<path fill="none" stroke="green" d="M2020.29,-175.39C1965.95,-209.06 1818.61,-308.11 1748,-432 1707.51,-503.03 1757.06,-545.14 1710,-612 1699.28,-627.23 1682.67,-638.94 1666.88,-647.43"/>
<polygon fill="green" stroke="green" points="1665.08,-644.42 1657.74,-652.06 1668.24,-650.67 1665.08,-644.42"/>
</g>
<!-- MACF1&#45;&gt;GSK3B -->
<g id="edge149" class="edge">
<title>MACF1&#45;&gt;GSK3B</title>
<path fill="none" stroke="red" d="M1466.41,-179.62C1469.4,-188.89 1472.06,-200.55 1473.55,-210.6"/>
<polygon fill="red" stroke="red" points="1479.04,-214.06 1469.12,-215.35 1468.86,-213.37 1478.78,-212.08 1479.04,-214.06"/>
<polyline fill="none" stroke="red" points="1474.21,-215.7 1473.56,-210.74 "/>
</g>
<!-- TRAF6&#45;&gt;PIK3CA -->
<g id="edge107" class="edge">
<title>TRAF6&#45;&gt;PIK3CA</title>
<path fill="none" stroke="green" d="M2240.01,-150.12C2247.78,-147.8 2256.13,-145.58 2264,-144 2431.6,-110.38 2633.99,-97.57 2730.1,-93.13"/>
<polygon fill="green" stroke="green" points="2730.34,-96.62 2740.17,-92.67 2730.03,-89.63 2730.34,-96.62"/>
</g>
<!-- TRAF6&#45;&gt;MAP3K7 -->
<g id="edge144" class="edge">
<title>TRAF6&#45;&gt;MAP3K7</title>
<path fill="none" stroke="green" d="M2244.62,-152.75C2260.62,-149.47 2279.65,-146.01 2297,-144 2533.81,-116.56 3278.69,-97.5 3497.8,-92.38"/>
<polygon fill="green" stroke="green" points="3497.92,-95.88 3507.83,-92.15 3497.75,-88.88 3497.92,-95.88"/>
</g>
<!-- TRAF6&#45;&gt;MYC -->
<g id="edge170" class="edge">
<title>TRAF6&#45;&gt;MYC</title>
<path fill="none" stroke="red" d="M2176.35,-149.86C2168.49,-147.52 2160.01,-145.35 2152,-144 1893.71,-100.38 1049.42,-92.45 860.66,-91.21"/>
<polygon fill="red" stroke="red" points="856.5,-96.18 856.56,-86.18 858.56,-86.19 858.5,-96.19 856.5,-96.18"/>
<polyline fill="none" stroke="red" points="855.53,-91.18 860.53,-91.21 "/>
</g>
<!-- LRP6&#45;&gt;GSK3B -->
<g id="edge156" class="edge">
<title>LRP6&#45;&gt;GSK3B</title>
<path fill="none" stroke="green" d="M1542.63,-178.95C1531.94,-188.8 1516.8,-201.55 1503.21,-212.19"/>
<polygon fill="green" stroke="green" points="1500.79,-209.63 1495,-218.5 1505.06,-215.18 1500.79,-209.63"/>
</g>
<!-- AURKA&#45;&gt;CTNNB1 -->
<g id="edge118" class="edge">
<title>AURKA&#45;&gt;CTNNB1</title>
<path fill="none" stroke="green" d="M654.43,-174.44C685.28,-185.82 728.87,-203.36 742,-216 831.79,-302.43 784.23,-373.09 865,-468 950.36,-568.3 996.99,-577.15 1124,-612 1277.51,-654.12 1466.02,-663.13 1561.78,-664.82"/>
<polygon fill="green" stroke="green" points="1561.82,-668.32 1571.88,-664.98 1561.93,-661.32 1561.82,-668.32"/>
</g>
<!-- PIAS1&#45;&gt;AKT1 -->
<g id="edge134" class="edge">
<title>PIAS1&#45;&gt;AKT1</title>
<path fill="none" stroke="green" d="M2735.19,-177.56C2687.22,-214.11 2564.92,-315.18 2513,-432 2504.37,-451.41 2501.82,-475.42 2501.31,-493.6"/>
<polygon fill="green" stroke="green" points="2497.81,-493.79 2501.22,-503.82 2504.81,-493.85 2497.81,-493.79"/>
</g>
<!-- FOXM1&#45;&gt;CTNNB1 -->
<g id="edge122" class="edge">
<title>FOXM1&#45;&gt;CTNNB1</title>
<path fill="none" stroke="green" d="M753.21,-177.79C786.01,-200.72 842,-248.17 842,-305 842,-379 842,-379 842,-379 842,-478.81 1131.86,-578.82 1226,-612 1339.72,-652.09 1481.48,-662.2 1561.46,-664.54"/>
<polygon fill="green" stroke="green" points="1561.76,-668.05 1571.85,-664.81 1561.95,-661.05 1561.76,-668.05"/>
</g>
<!-- SIGNOR&#45;C110&#45;&gt;CTNNB1 -->
<g id="edge123" class="edge">
<title>SIGNOR&#45;C110&#45;&gt;CTNNB1</title>
<path fill="none" stroke="red" d="M953.02,-180.12C979.24,-251.59 1091.28,-526.33 1292,-612 1382.91,-650.8 1498.82,-661.46 1566.87,-664.23"/>
<polygon fill="red" stroke="red" points="1571.29,-659.4 1570.9,-669.39 1568.9,-669.31 1569.29,-659.32 1571.29,-659.4"/>
<polyline fill="none" stroke="red" points="1572.09,-664.43 1567.1,-664.24 "/>
</g>
<!-- PTEN&#45;&gt;PIK3CA -->
<g id="edge100" class="edge">
<title>PTEN&#45;&gt;PIK3CA</title>
<path fill="none" stroke="red" d="M2534.65,-150C2540.66,-147.87 2547.01,-145.76 2553,-144 2617.14,-125.18 2692.84,-109.06 2740.15,-99.69"/>
<polygon fill="red" stroke="red" points="2743.25,-93.98 2745.19,-103.79 2743.23,-104.18 2741.29,-94.37 2743.25,-93.98"/>
<polyline fill="none" stroke="red" points="2745.2,-98.69 2740.3,-99.66 "/>
</g>
<!-- PTEN&#45;&gt;AKT1 -->
<g id="edge138" class="edge">
<title>PTEN&#45;&gt;AKT1</title>
<path fill="none" stroke="red" d="M2491.98,-179.08C2484.02,-189.06 2474.57,-202.52 2469,-216 2431.78,-306.09 2439.48,-334.89 2431,-432 2429.61,-447.94 2423.83,-453.7 2431,-468 2439.5,-484.95 2456.27,-497.86 2471.38,-506.7"/>
<polygon fill="red" stroke="red" points="2477.59,-504.46 2472.68,-513.17 2470.93,-512.19 2475.85,-503.48 2477.59,-504.46"/>
<polyline fill="none" stroke="red" points="2476,-509.31 2471.65,-506.85 "/>
</g>
<!-- APC&#45;&gt;CTNNB1 -->
<g id="edge128" class="edge">
<title>APC&#45;&gt;CTNNB1</title>
<path fill="none" stroke="red" d="M1071.32,-180.18C1068.87,-209.89 1065.75,-272.65 1077,-324 1093.05,-397.27 1112.39,-414.54 1165,-468 1244.89,-549.19 1270.75,-570.95 1377,-612 1441.07,-636.76 1519.2,-651.06 1570.2,-658.43"/>
<polygon fill="red" stroke="red" points="1575.07,-654.08 1573.66,-663.98 1571.68,-663.69 1573.09,-653.79 1575.07,-654.08"/>
<polyline fill="none" stroke="red" points="1575.36,-659.17 1570.41,-658.46 "/>
</g>
<!-- SIGNOR&#45;PF26&#45;&gt;GSK3B -->
<g id="edge151" class="edge">
<title>SIGNOR&#45;PF26&#45;&gt;GSK3B</title>
<path fill="none" stroke="red" d="M1647.82,-177.58C1609.37,-190.64 1551.18,-209.54 1512.33,-221.54"/>
<polygon fill="red" stroke="red" points="1509.65,-227.6 1506.71,-218.05 1508.62,-217.46 1511.56,-227.01 1509.65,-227.6"/>
<polyline fill="none" stroke="red" points="1507.22,-223.12 1512,-221.65 "/>
</g>
<!-- MAML1&#45;&gt;CTNNB1 -->
<g id="edge129" class="edge">
<title>MAML1&#45;&gt;CTNNB1</title>
<path fill="none" stroke="green" d="M1150.82,-178.64C1119.56,-207.52 1061.48,-271.12 1089,-324 1191.04,-520.09 1461.89,-618.3 1574.16,-651.59"/>
<polygon fill="green" stroke="green" points="1573.31,-654.98 1583.89,-654.42 1575.27,-648.26 1573.31,-654.98"/>
</g>
<!-- AKAP11&#45;&gt;GSK3B -->
<g id="edge155" class="edge">
<title>AKAP11&#45;&gt;GSK3B</title>
<path fill="none" stroke="red" d="M1798.59,-175.65C1793.1,-177.22 1787.43,-178.72 1782,-180 1690.09,-201.72 1580.47,-218.86 1519.18,-227.29"/>
<polygon fill="red" stroke="red" points="1515.8,-232.8 1514.44,-222.89 1516.42,-222.62 1517.78,-232.52 1515.8,-232.8"/>
<polyline fill="none" stroke="red" points="1514.13,-227.98 1519.08,-227.3 "/>
</g>
<!-- MAP2K1&#45;&gt;MAPK14 -->
<g id="edge80" class="edge">
<title>MAP2K1&#45;&gt;MAPK14</title>
<path fill="none" stroke="red" d="M1364.34,-383.9C1297.86,-391.2 1175.24,-406.83 1073,-432 1048.9,-437.93 670.16,-561.51 650,-576 606.26,-607.44 574.21,-634.31 595,-684 612.58,-726.04 626.01,-738.29 668,-756 793.4,-808.89 2922.75,-809.39 3298.56,-809.07"/>
<polygon fill="red" stroke="red" points="3302.7,-804.07 3302.71,-814.07 3300.71,-814.07 3300.7,-804.07 3302.7,-804.07"/>
<polyline fill="none" stroke="red" points="3303.7,-809.07 3298.7,-809.07 "/>
</g>
<!-- MAP2K1&#45;&gt;GSK3B -->
<g id="edge84" class="edge">
<title>MAP2K1&#45;&gt;GSK3B</title>
<path fill="none" stroke="green" d="M1435.35,-361.54C1446.98,-352.15 1460.17,-339.08 1467,-324 1475.76,-304.67 1476.57,-280.52 1475.43,-262.26"/>
<polygon fill="green" stroke="green" points="1478.92,-261.93 1474.59,-252.26 1471.94,-262.52 1478.92,-261.93"/>
</g>
<!-- MAP2K1&#45;&gt;IRS1 -->
<g id="edge79" class="edge">
<title>MAP2K1&#45;&gt;IRS1</title>
<path fill="none" stroke="red" d="M1458.53,-369.4C1509.36,-360.47 1593.83,-344.25 1665,-324 1755.46,-298.26 1782.11,-298.26 1864,-252 1974.6,-189.52 1968.33,-119.85 2086,-72 2248.89,-5.76 2305.49,-57.56 2480,-36 2504.28,-33 2531.48,-28.76 2552.63,-25.27"/>
<polygon fill="red" stroke="red" points="2555.79,-19.67 2557.43,-29.54 2555.45,-29.86 2553.81,-20 2555.79,-19.67"/>
<polyline fill="none" stroke="red" points="2557.59,-24.44 2552.66,-25.26 "/>
</g>
<!-- SIGNOR&#45;PF1 -->
<g id="node67" class="node">
<title>SIGNOR&#45;PF1</title>
<ellipse fill="lightgray" stroke="black" cx="1278" cy="-306" rx="71.49" ry="18"/>
<text text-anchor="middle" x="1278" y="-302.3" font-family="Times,serif" font-size="14.00">SIGNOR&#45;PF1</text>
</g>
<!-- MAP2K1&#45;&gt;SIGNOR&#45;PF1 -->
<g id="edge78" class="edge">
<title>MAP2K1&#45;&gt;SIGNOR&#45;PF1</title>
<path fill="none" stroke="green" d="M1381.85,-363.67C1360.88,-353.53 1333.36,-339.4 1311.86,-327.79"/>
<polygon fill="green" stroke="green" points="1313.5,-324.7 1303.05,-322.98 1310.15,-330.84 1313.5,-324.7"/>
</g>
<!-- SIGNOR&#45;PF4 -->
<g id="node68" class="node">
<title>SIGNOR&#45;PF4</title>
<ellipse fill="lightgray" stroke="black" cx="1585" cy="-306" rx="71.49" ry="18"/>
<text text-anchor="middle" x="1585" y="-302.3" font-family="Times,serif" font-size="14.00">SIGNOR&#45;PF4</text>
</g>
<!-- MAP2K1&#45;&gt;SIGNOR&#45;PF4 -->
<g id="edge81" class="edge">
<title>MAP2K1&#45;&gt;SIGNOR&#45;PF4</title>
<path fill="none" stroke="green" d="M1445.35,-363.83C1471.96,-353.01 1509.97,-337.54 1539.62,-325.47"/>
<polygon fill="green" stroke="green" points="1540.99,-328.69 1548.93,-321.68 1538.35,-322.21 1540.99,-328.69"/>
</g>
<!-- MAPK3 -->
<g id="node69" class="node">
<title>MAPK3</title>
<ellipse fill="lightgray" stroke="black" cx="1413" cy="-306" rx="45.49" ry="18"/>
<text text-anchor="middle" x="1413" y="-302.3" font-family="Times,serif" font-size="14.00">MAPK3</text>
</g>
<!-- MAP2K1&#45;&gt;MAPK3 -->
<g id="edge82" class="edge">
<title>MAP2K1&#45;&gt;MAPK3</title>
<path fill="none" stroke="green" d="M1413,-359.7C1413,-351.98 1413,-342.71 1413,-334.11"/>
<polygon fill="green" stroke="green" points="1416.5,-334.1 1413,-324.1 1409.5,-334.1 1416.5,-334.1"/>
</g>
<!-- MAPK1 -->
<g id="node70" class="node">
<title>MAPK1</title>
<ellipse fill="lightgray" stroke="black" cx="1143" cy="-306" rx="45.49" ry="18"/>
<text text-anchor="middle" x="1143" y="-302.3" font-family="Times,serif" font-size="14.00">MAPK1</text>
</g>
<!-- MAP2K1&#45;&gt;MAPK1 -->
<g id="edge83" class="edge">
<title>MAP2K1&#45;&gt;MAPK1</title>
<path fill="none" stroke="green" d="M1369.04,-368.46C1323.51,-358.49 1250.86,-341.17 1189,-324 1187.09,-323.47 1185.14,-322.92 1183.18,-322.35"/>
<polygon fill="green" stroke="green" points="1183.94,-318.93 1173.36,-319.44 1181.95,-325.64 1183.94,-318.93"/>
</g>
<!-- SIGNOR&#45;PF1&#45;&gt;MAPK14 -->
<g id="edge99" class="edge">
<title>SIGNOR&#45;PF1&#45;&gt;MAPK14</title>
<path fill="none" stroke="red" d="M1237.33,-320.82C1175.79,-342.19 1055.83,-385.66 958,-432 928.51,-445.97 924.41,-456.15 894,-468 828.91,-493.37 806.48,-479.65 741,-504 676.16,-528.11 646.17,-521.95 603,-576 553.04,-638.56 544.92,-709.37 610,-756 666.66,-796.6 2912.59,-807.26 3298.76,-808.79"/>
<polygon fill="red" stroke="red" points="3302.78,-803.81 3302.75,-813.81 3300.75,-813.8 3300.78,-803.8 3302.78,-803.81"/>
<polyline fill="none" stroke="red" points="3303.76,-808.81 3298.76,-808.79 "/>
</g>
<!-- SIGNOR&#45;PF1&#45;&gt;GSK3B -->
<g id="edge158" class="edge">
<title>SIGNOR&#45;PF1&#45;&gt;GSK3B</title>
<path fill="none" stroke="red" d="M1317.26,-290.83C1351.66,-278.42 1401.3,-260.51 1435.01,-248.35"/>
<polygon fill="red" stroke="red" points="1437.23,-242.23 1440.62,-251.64 1438.74,-252.32 1435.34,-242.91 1437.23,-242.23"/>
<polyline fill="none" stroke="red" points="1439.86,-246.6 1435.16,-248.29 "/>
</g>
<!-- SIGNOR&#45;PF1&#45;&gt;MAP2K1 -->
<g id="edge164" class="edge">
<title>SIGNOR&#45;PF1&#45;&gt;MAP2K1</title>
<path fill="none" stroke="red" d="M1312.42,-321.92C1334.94,-332.89 1363.88,-347.84 1385,-359.4"/>
<polygon fill="red" stroke="red" points="1390.92,-356.95 1386.1,-365.71 1384.35,-364.75 1389.17,-355.98 1390.92,-356.95"/>
<polyline fill="none" stroke="red" points="1389.39,-361.81 1385,-359.4 "/>
</g>
<!-- SIGNOR&#45;PF1&#45;&gt;MYC -->
<g id="edge178" class="edge">
<title>SIGNOR&#45;PF1&#45;&gt;MYC</title>
<path fill="none" stroke="green" d="M1225.78,-293.7C1216.22,-291.73 1206.32,-289.75 1197,-288 1100.92,-269.96 1073.3,-281.21 980,-252 971.08,-249.21 833.22,-187.75 828,-180 815.88,-161.99 815.54,-137 817.71,-118.09"/>
<polygon fill="green" stroke="green" points="821.2,-118.41 819.16,-108.02 814.27,-117.42 821.2,-118.41"/>
</g>
<!-- SIGNOR&#45;PF4&#45;&gt;GSK3B -->
<g id="edge150" class="edge">
<title>SIGNOR&#45;PF4&#45;&gt;GSK3B</title>
<path fill="none" stroke="red" d="M1559.36,-289.12C1541.59,-278.11 1517.95,-263.46 1499.74,-252.18"/>
<polygon fill="red" stroke="red" points="1493.45,-254.17 1498.72,-245.67 1500.42,-246.72 1495.15,-255.22 1493.45,-254.17"/>
<polyline fill="none" stroke="red" points="1495.23,-249.39 1499.48,-252.03 "/>
</g>
<!-- SIGNOR&#45;PF4&#45;&gt;MYC -->
<g id="edge169" class="edge">
<title>SIGNOR&#45;PF4&#45;&gt;MYC</title>
<path fill="none" stroke="green" d="M1644.38,-295.79C1753.16,-276.65 1966.25,-227.29 1887,-144 1851.23,-106.4 1059.97,-93.99 865.75,-91.5"/>
<polygon fill="green" stroke="green" points="865.69,-88 855.65,-91.37 865.6,-95 865.69,-88"/>
</g>
<!-- MAPK3&#45;&gt;GSK3B -->
<g id="edge145" class="edge">
<title>MAPK3&#45;&gt;GSK3B</title>
<path fill="none" stroke="red" d="M1426.68,-288.76C1435.17,-278.69 1446.14,-265.68 1455.16,-254.98"/>
<polygon fill="red" stroke="red" points="1453.92,-248.69 1461.57,-255.13 1460.28,-256.66 1452.63,-250.22 1453.92,-248.69"/>
<polyline fill="none" stroke="red" points="1458.39,-251.15 1455.17,-254.97 "/>
</g>
<!-- MAPK3&#45;&gt;MYC -->
<g id="edge166" class="edge">
<title>MAPK3&#45;&gt;MYC</title>
<path fill="none" stroke="green" d="M1378.8,-293.93C1371.94,-291.85 1364.77,-289.78 1358,-288 1303.34,-273.64 904.56,-216 861,-180 842.25,-164.51 832.56,-138.08 827.67,-118.03"/>
<polygon fill="green" stroke="green" points="831.08,-117.25 825.53,-108.22 824.24,-118.74 831.08,-117.25"/>
</g>
<!-- MAPK1&#45;&gt;MAPK14 -->
<g id="edge96" class="edge">
<title>MAPK1&#45;&gt;MAPK14</title>
<path fill="none" stroke="red" d="M1103.42,-314.95C923.31,-352.66 199.64,-521.43 430,-756 482.19,-809.14 2896.2,-809.39 3298.46,-809.06"/>
<polygon fill="red" stroke="red" points="3302.66,-804.06 3302.67,-814.06 3300.67,-814.06 3300.66,-804.06 3302.66,-804.06"/>
<polyline fill="none" stroke="red" points="3303.67,-809.06 3298.67,-809.06 "/>
</g>
<!-- MAPK1&#45;&gt;GSK3B -->
<g id="edge153" class="edge">
<title>MAPK1&#45;&gt;GSK3B</title>
<path fill="none" stroke="red" d="M1176.87,-293.9C1183.82,-291.8 1191.12,-289.72 1198,-288 1277.45,-268.1 1371.45,-251.37 1426.14,-242.3"/>
<polygon fill="red" stroke="red" points="1429.51,-236.68 1431.14,-246.54 1429.16,-246.87 1427.53,-237 1429.51,-236.68"/>
<polyline fill="none" stroke="red" points="1431.31,-241.45 1426.37,-242.26 "/>
</g>
<!-- MAPK1&#45;&gt;MAP2K1 -->
<g id="edge160" class="edge">
<title>MAPK1&#45;&gt;MAP2K1</title>
<path fill="none" stroke="red" d="M1180.66,-316.32C1189.38,-318.9 1198.53,-321.65 1207,-324 1262.53,-339.41 1326.75,-354.95 1368.63,-365.18"/>
<polygon fill="red" stroke="red" points="1373.84,-361.3 1371.47,-371.02 1369.53,-370.54 1371.9,-360.83 1373.84,-361.3"/>
<polyline fill="none" stroke="red" points="1373.63,-366.4 1368.77,-365.21 "/>
</g>
<!-- MAPK1&#45;&gt;MYC -->
<g id="edge165" class="edge">
<title>MAPK1&#45;&gt;MYC</title>
<path fill="none" stroke="green" d="M1105.88,-295.51C1065.49,-285.11 999.04,-267.8 942,-252 886.7,-236.68 874.44,-226.36 818,-216 768.99,-207.01 404.79,-216.62 371,-180 360.15,-168.24 360.37,-155.95 371,-144 398,-113.65 673.31,-97.86 780.56,-92.82"/>
<polygon fill="green" stroke="green" points="780.87,-96.31 790.7,-92.35 780.55,-89.32 780.87,-96.31"/>
</g>
<!-- MYC&#45;&gt;CCND1 -->
<g id="edge177" class="edge">
<title>MYC&#45;&gt;CCND1</title>
<path fill="none" stroke="green" d="M792.45,-83.68C723.7,-71.71 556.2,-42.54 471.63,-27.82"/>
<polygon fill="green" stroke="green" points="472.19,-24.36 461.74,-26.09 470.99,-31.26 472.19,-24.36"/>
</g>
</g>
</svg>
