<?xml version="1.0" encoding="UTF-8" standalone="no"?>
<!DOCTYPE svg PUBLIC "-//W3C//DTD SVG 1.1//EN"
 "http://www.w3.org/Graphics/SVG/1.1/DTD/svg11.dtd">
<!-- Generated by graphviz version 2.43.0 (0)
 -->
<!-- Title: %3 Pages: 1 -->
<svg width="378pt" height="188pt"
 viewBox="0.00 0.00 378.47 188.00" xmlns="http://www.w3.org/2000/svg" xmlns:xlink="http://www.w3.org/1999/xlink">
<g id="graph0" class="graph" transform="scale(1 1) rotate(0) translate(4 184)">
<title>%3</title>
<polygon fill="white" stroke="transparent" points="-4,4 -4,-184 374.47,-184 374.47,4 -4,4"/>
<!-- SRC -->
<g id="node1" class="node">
<title>SRC</title>
<ellipse fill="lightgray" stroke="black" cx="153.23" cy="-162" rx="30.59" ry="18"/>
<text text-anchor="middle" x="153.23" y="-158.3" font-family="Times,serif" font-size="14.00">SRC</text>
</g>
<!-- PTK2 -->
<g id="node2" class="node">
<title>PTK2</title>
<ellipse fill="lightgray" stroke="black" cx="121.23" cy="-90" rx="36" ry="18"/>
<text text-anchor="middle" x="121.23" y="-86.3" font-family="Times,serif" font-size="14.00">PTK2</text>
</g>
<!-- SRC&#45;&gt;PTK2 -->
<g id="edge1" class="edge">
<title>SRC&#45;&gt;PTK2</title>
<path fill="none" stroke="green" d="M145.65,-144.41C141.92,-136.25 137.33,-126.22 133.15,-117.07"/>
<polygon fill="green" stroke="green" points="136.33,-115.6 128.98,-107.96 129.96,-118.51 136.33,-115.6"/>
</g>
<!-- epithelial_to_mesenchymal_transition -->
<g id="node3" class="node">
<title>epithelial_to_mesenchymal_transition</title>
<ellipse fill="lightgray" stroke="black" cx="185.23" cy="-18" rx="185.47" ry="18"/>
<text text-anchor="middle" x="185.23" y="-14.3" font-family="Times,serif" font-size="14.00">epithelial_to_mesenchymal_transition</text>
</g>
<!-- SRC&#45;&gt;epithelial_to_mesenchymal_transition -->
<g id="edge2" class="edge">
<title>SRC&#45;&gt;epithelial_to_mesenchymal_transition</title>
<path fill="none" stroke="red" d="M157.58,-143.85C160.17,-133.48 163.48,-120 166.23,-108 171.42,-85.39 176.91,-59.44 180.64,-41.42"/>
<polygon fill="red" stroke="red" points="176.64,-36.06 186.44,-38.09 186.03,-40.05 176.24,-38.02 176.64,-36.06"/>
<polyline fill="none" stroke="red" points="181.74,-36.1 180.73,-40.99 "/>
</g>
<!-- PTK2&#45;&gt;epithelial_to_mesenchymal_transition -->
<g id="edge4" class="edge">
<title>PTK2&#45;&gt;epithelial_to_mesenchymal_transition</title>
<path fill="none" stroke="green" d="M135.44,-73.46C143.46,-64.69 153.66,-53.53 162.75,-43.6"/>
<polygon fill="green" stroke="green" points="165.56,-45.7 169.73,-35.96 160.39,-40.98 165.56,-45.7"/>
</g>
<!-- NOTCH1 -->
<g id="node4" class="node">
<title>NOTCH1</title>
<ellipse fill="lightgray" stroke="black" cx="265.23" cy="-90" rx="51.99" ry="18"/>
<text text-anchor="middle" x="265.23" y="-86.3" font-family="Times,serif" font-size="14.00">NOTCH1</text>
</g>
<!-- NOTCH1&#45;&gt;epithelial_to_mesenchymal_transition -->
<g id="edge3" class="edge">
<title>NOTCH1&#45;&gt;epithelial_to_mesenchymal_transition</title>
<path fill="none" stroke="green" d="M247.08,-73.12C236.82,-64.14 223.79,-52.73 212.33,-42.71"/>
<polygon fill="green" stroke="green" points="214.54,-40 204.71,-36.04 209.93,-45.26 214.54,-40"/>
</g>
</g>
</svg>
