<?xml version="1.0" encoding="UTF-8" standalone="no"?>
<!DOCTYPE svg PUBLIC "-//W3C//DTD SVG 1.1//EN"
 "http://www.w3.org/Graphics/SVG/1.1/DTD/svg11.dtd">
<!-- Generated by graphviz version 2.43.0 (0)
 -->
<!-- Title: %3 Pages: 1 -->
<svg width="3108pt" height="1772pt"
 viewBox="0.00 0.00 3107.80 1772.00" xmlns="http://www.w3.org/2000/svg" xmlns:xlink="http://www.w3.org/1999/xlink">
<g id="graph0" class="graph" transform="scale(1 1) rotate(0) translate(4 1768)">
<title>%3</title>
<polygon fill="white" stroke="transparent" points="-4,4 -4,-1768 3103.8,-1768 3103.8,4 -4,4"/>
<!-- SRC -->
<g id="node1" class="node">
<title>SRC</title>
<ellipse fill="lightyellow" stroke="black" cx="1773.8" cy="-1674" rx="30.59" ry="18"/>
<text text-anchor="middle" x="1773.8" y="-1670.3" font-family="Times,serif" font-size="14.00">SRC</text>
</g>
<!-- PTK2 -->
<g id="node2" class="node">
<title>PTK2</title>
<ellipse fill="lightgray" stroke="black" cx="2789.8" cy="-1602" rx="36" ry="18"/>
<text text-anchor="middle" x="2789.8" y="-1598.3" font-family="Times,serif" font-size="14.00">PTK2</text>
</g>
<!-- SRC&#45;&gt;PTK2 -->
<g id="edge1" class="edge">
<title>SRC&#45;&gt;PTK2</title>
<path fill="none" stroke="green" d="M1804.32,-1671.82C1958.3,-1665.81 2646.17,-1638.13 2739.8,-1620 2744.05,-1619.18 2748.44,-1618.08 2752.76,-1616.83"/>
<polygon fill="green" stroke="green" points="2754.16,-1620.06 2762.65,-1613.73 2752.06,-1613.38 2754.16,-1620.06"/>
</g>
<!-- CDH2 -->
<g id="node4" class="node">
<title>CDH2</title>
<ellipse fill="lightyellow" stroke="black" cx="2368.8" cy="-162" rx="38.19" ry="18"/>
<text text-anchor="middle" x="2368.8" y="-158.3" font-family="Times,serif" font-size="14.00">CDH2</text>
</g>
<!-- SRC&#45;&gt;CDH2 -->
<g id="edge3" class="edge">
<title>SRC&#45;&gt;CDH2</title>
<path fill="none" stroke="red" d="M1804.41,-1672.16C1978.6,-1667.33 2838.73,-1642.41 2889.8,-1620 2941.31,-1597.39 2979.8,-1587.26 2979.8,-1531 2979.8,-1531 2979.8,-1531 2979.8,-1241 2979.8,-1112.39 3023.8,-1083.61 3023.8,-955 3023.8,-955 3023.8,-955 3023.8,-881 3023.8,-784.4 2985.8,-763.6 2985.8,-667 2985.8,-667 2985.8,-667 2985.8,-449 2985.8,-408.55 2996.49,-387.46 2966.8,-360 2922.19,-318.76 2753.93,-341.65 2695.8,-324 2634.45,-305.37 2465.34,-215.36 2397.5,-178.64"/>
<polygon fill="red" stroke="red" points="2391.29,-180.97 2396.06,-172.17 2397.82,-173.13 2393.05,-181.92 2391.29,-180.97"/>
<polyline fill="none" stroke="red" points="2392.8,-176.09 2397.19,-178.47 "/>
</g>
<!-- PTK2B -->
<g id="node5" class="node">
<title>PTK2B</title>
<ellipse fill="lightyellow" stroke="black" cx="2098.8" cy="-378" rx="42.49" ry="18"/>
<text text-anchor="middle" x="2098.8" y="-374.3" font-family="Times,serif" font-size="14.00">PTK2B</text>
</g>
<!-- SRC&#45;&gt;PTK2B -->
<g id="edge4" class="edge">
<title>SRC&#45;&gt;PTK2B</title>
<path fill="none" stroke="green" d="M1795.83,-1661.25C1800.35,-1659.23 1805.15,-1657.35 1809.8,-1656 1935.83,-1619.53 1973.48,-1642.13 2102.8,-1620 2249.48,-1594.9 2294.38,-1609.72 2429.8,-1548 2611.85,-1465.03 2675.8,-1371.07 2675.8,-1171 2675.8,-1171 2675.8,-1171 2675.8,-1097 2675.8,-969.62 2519.29,-673.06 2436.8,-576 2405.39,-539.04 2394.42,-531.97 2354.8,-504 2284.58,-454.42 2191.71,-414.54 2139.31,-394.05"/>
<polygon fill="green" stroke="green" points="2140.29,-390.68 2129.7,-390.33 2137.76,-397.21 2140.29,-390.68"/>
</g>
<!-- EGFR -->
<g id="node7" class="node">
<title>EGFR</title>
<ellipse fill="lightgray" stroke="black" cx="1835.8" cy="-1386" rx="38.19" ry="18"/>
<text text-anchor="middle" x="1835.8" y="-1382.3" font-family="Times,serif" font-size="14.00">EGFR</text>
</g>
<!-- SRC&#45;&gt;EGFR -->
<g id="edge53" class="edge">
<title>SRC&#45;&gt;EGFR</title>
<path fill="none" stroke="green" d="M1762.85,-1657.19C1744.09,-1628.03 1709.58,-1564 1728.8,-1512 1744.68,-1469.02 1782.67,-1430.82 1808.82,-1408.29"/>
<polygon fill="green" stroke="green" points="1811.13,-1410.93 1816.52,-1401.81 1806.62,-1405.57 1811.13,-1410.93"/>
</g>
<!-- RHOA -->
<g id="node9" class="node">
<title>RHOA</title>
<ellipse fill="lightgray" stroke="black" cx="1758.8" cy="-18" rx="38.99" ry="18"/>
<text text-anchor="middle" x="1758.8" y="-14.3" font-family="Times,serif" font-size="14.00">RHOA</text>
</g>
<!-- SRC&#45;&gt;RHOA -->
<g id="edge54" class="edge">
<title>SRC&#45;&gt;RHOA</title>
<path fill="none" stroke="purple" d="M1743.31,-1672.4C1568.68,-1668.87 698.95,-1649.9 583.8,-1620 514.54,-1602.01 500.38,-1586.08 439.8,-1548 86.47,-1325.88 114.8,-1084.35 114.8,-667 114.8,-667 114.8,-667 114.8,-233 114.8,-100.84 238.74,-111.7 364.8,-72 429.97,-51.48 1463.87,-25.94 1707.61,-20.19"/>
<polygon fill="purple" stroke="purple" points="1707.93,-20.18 1713.83,-16.04 1719.93,-19.9 1714.02,-24.04 1707.93,-20.18"/>
</g>
<!-- RPS6KA3 -->
<g id="node11" class="node">
<title>RPS6KA3</title>
<ellipse fill="lightgray" stroke="black" cx="2902.8" cy="-378" rx="54.69" ry="18"/>
<text text-anchor="middle" x="2902.8" y="-374.3" font-family="Times,serif" font-size="14.00">RPS6KA3</text>
</g>
<!-- SRC&#45;&gt;RPS6KA3 -->
<g id="edge10" class="edge">
<title>SRC&#45;&gt;RPS6KA3</title>
<path fill="none" stroke="green" d="M1804.5,-1672.62C1968.42,-1670.45 2736.64,-1658.28 2834.8,-1620 2892.43,-1597.52 2941.8,-1592.86 2941.8,-1531 2941.8,-1531 2941.8,-1531 2941.8,-1169 2941.8,-1072.83 2909.8,-1051.17 2909.8,-955 2909.8,-955 2909.8,-955 2909.8,-881 2909.8,-784.4 2947.8,-763.6 2947.8,-667 2947.8,-667 2947.8,-667 2947.8,-521 2947.8,-478.9 2929.6,-432.91 2916.35,-405.02"/>
<polygon fill="green" stroke="green" points="2919.44,-403.38 2911.9,-395.94 2913.16,-406.46 2919.44,-403.38"/>
</g>
<!-- CTNNB1 -->
<g id="node14" class="node">
<title>CTNNB1</title>
<ellipse fill="lightgray" stroke="black" cx="2188.8" cy="-594" rx="51.99" ry="18"/>
<text text-anchor="middle" x="2188.8" y="-590.3" font-family="Times,serif" font-size="14.00">CTNNB1</text>
</g>
<!-- SRC&#45;&gt;CTNNB1 -->
<g id="edge55" class="edge">
<title>SRC&#45;&gt;CTNNB1</title>
<path fill="none" stroke="purple" d="M1796.38,-1661.55C1800.77,-1659.55 1805.38,-1657.6 1809.8,-1656 1869.8,-1634.28 1887.04,-1636.07 1948.8,-1620 2193.76,-1556.27 2301.46,-1633.26 2499.8,-1476 2541.11,-1443.24 2599.8,-1272.3 2599.8,-1243 2599.8,-1243 2599.8,-1243 2599.8,-1169 2599.8,-909.43 2318.51,-686.49 2221.35,-617.23"/>
<polygon fill="purple" stroke="purple" points="2221.29,-617.19 2214.08,-617 2211.48,-610.27 2218.69,-610.46 2221.29,-617.19"/>
</g>
<!-- FLT4 -->
<g id="node15" class="node">
<title>FLT4</title>
<ellipse fill="lightgray" stroke="black" cx="2809.8" cy="-450" rx="34.39" ry="18"/>
<text text-anchor="middle" x="2809.8" y="-446.3" font-family="Times,serif" font-size="14.00">FLT4</text>
</g>
<!-- SRC&#45;&gt;FLT4 -->
<g id="edge56" class="edge">
<title>SRC&#45;&gt;FLT4</title>
<path fill="none" stroke="green" d="M1795.37,-1661.12C1800,-1659.05 1804.96,-1657.19 1809.8,-1656 1904.83,-1632.64 2613.47,-1681.24 2689.8,-1620 2757.4,-1565.76 2789.8,-1329.67 2789.8,-1243 2789.8,-1243 2789.8,-1243 2789.8,-593 2789.8,-552.6 2797.83,-506.36 2803.72,-477.92"/>
<polygon fill="green" stroke="green" points="2807.18,-478.45 2805.85,-467.94 2800.34,-476.99 2807.18,-478.45"/>
</g>
<!-- ITGB1 -->
<g id="node26" class="node">
<title>ITGB1</title>
<ellipse fill="lightgray" stroke="black" cx="1171.8" cy="-1098" rx="40.09" ry="18"/>
<text text-anchor="middle" x="1171.8" y="-1094.3" font-family="Times,serif" font-size="14.00">ITGB1</text>
</g>
<!-- SRC&#45;&gt;ITGB1 -->
<g id="edge57" class="edge">
<title>SRC&#45;&gt;ITGB1</title>
<path fill="none" stroke="green" d="M1743.12,-1672.69C1552.02,-1669.98 532.8,-1643.47 532.8,-1387 532.8,-1387 532.8,-1387 532.8,-1313 532.8,-1188.61 973.69,-1123.21 1123.03,-1104.63"/>
<polygon fill="green" stroke="green" points="1123.77,-1108.07 1133.26,-1103.37 1122.91,-1101.12 1123.77,-1108.07"/>
</g>
<!-- RAC1 -->
<g id="node29" class="node">
<title>RAC1</title>
<ellipse fill="lightgray" stroke="black" cx="1773.8" cy="-1530" rx="36.29" ry="18"/>
<text text-anchor="middle" x="1773.8" y="-1526.3" font-family="Times,serif" font-size="14.00">RAC1</text>
</g>
<!-- SRC&#45;&gt;RAC1 -->
<g id="edge58" class="edge">
<title>SRC&#45;&gt;RAC1</title>
<path fill="none" stroke="green" d="M1773.8,-1655.87C1773.8,-1631.67 1773.8,-1587.21 1773.8,-1558.39"/>
<polygon fill="green" stroke="green" points="1777.3,-1558.19 1773.8,-1548.19 1770.3,-1558.19 1777.3,-1558.19"/>
</g>
<!-- PAK1 -->
<g id="node36" class="node">
<title>PAK1</title>
<ellipse fill="lightgray" stroke="black" cx="1256.8" cy="-1386" rx="35.19" ry="18"/>
<text text-anchor="middle" x="1256.8" y="-1382.3" font-family="Times,serif" font-size="14.00">PAK1</text>
</g>
<!-- SRC&#45;&gt;PAK1 -->
<g id="edge60" class="edge">
<title>SRC&#45;&gt;PAK1</title>
<path fill="none" stroke="green" d="M1747.43,-1664.64C1677.55,-1641.72 1483.44,-1573.06 1344.8,-1476 1318.16,-1457.35 1292.6,-1430.1 1275.96,-1410.67"/>
<polygon fill="green" stroke="green" points="1278.51,-1408.27 1269.39,-1402.87 1273.15,-1412.78 1278.51,-1408.27"/>
</g>
<!-- ABL1 -->
<g id="node37" class="node">
<title>ABL1</title>
<ellipse fill="lightgray" stroke="black" cx="854.8" cy="-234" rx="36" ry="18"/>
<text text-anchor="middle" x="854.8" y="-230.3" font-family="Times,serif" font-size="14.00">ABL1</text>
</g>
<!-- SRC&#45;&gt;ABL1 -->
<g id="edge61" class="edge">
<title>SRC&#45;&gt;ABL1</title>
<path fill="none" stroke="green" d="M1743.35,-1672.32C1604.18,-1669.05 1027.79,-1653.7 850.8,-1620 705.51,-1592.33 641.76,-1592.61 550.8,-1476 449.62,-1346.3 218.09,-948.81 267.8,-792 358.45,-506.03 460.05,-443.17 716.8,-288 747.55,-269.42 785.93,-255.31 814.41,-246.34"/>
<polygon fill="green" stroke="green" points="815.51,-249.66 824.04,-243.38 813.45,-242.97 815.51,-249.66"/>
</g>
<!-- PTK2&#45;&gt;RAC1 -->
<g id="edge66" class="edge">
<title>PTK2&#45;&gt;RAC1</title>
<path fill="none" stroke="green" d="M2754.53,-1598.57C2601.18,-1588 1992.34,-1546.06 1819.67,-1534.16"/>
<polygon fill="green" stroke="green" points="1819.85,-1530.67 1809.64,-1533.47 1819.37,-1537.65 1819.85,-1530.67"/>
</g>
<!-- CDH1 -->
<g id="node3" class="node">
<title>CDH1</title>
<ellipse fill="lightyellow" stroke="black" cx="2305.8" cy="-1458" rx="38.19" ry="18"/>
<text text-anchor="middle" x="2305.8" y="-1454.3" font-family="Times,serif" font-size="14.00">CDH1</text>
</g>
<!-- CDH1&#45;&gt;SRC -->
<g id="edge2" class="edge">
<title>CDH1&#45;&gt;SRC</title>
<path fill="none" stroke="green" d="M2276.74,-1469.81C2199.88,-1498.55 1985.09,-1579.89 1809.8,-1656 1808.45,-1656.58 1807.08,-1657.19 1805.7,-1657.81"/>
<polygon fill="green" stroke="green" points="1804.19,-1654.65 1796.55,-1661.99 1807.1,-1661.01 1804.19,-1654.65"/>
</g>
<!-- CDH1&#45;&gt;EGFR -->
<g id="edge67" class="edge">
<title>CDH1&#45;&gt;EGFR</title>
<path fill="none" stroke="green" d="M2276.37,-1446.31C2269.07,-1443.95 2261.21,-1441.67 2253.8,-1440 2121.63,-1410.3 1961.95,-1395.83 1883.72,-1390.1"/>
<polygon fill="green" stroke="green" points="1883.91,-1386.61 1873.68,-1389.39 1883.41,-1393.59 1883.91,-1386.61"/>
</g>
<!-- CDH1&#45;&gt;RHOA -->
<g id="edge68" class="edge">
<title>CDH1&#45;&gt;RHOA</title>
<path fill="none" stroke="green" d="M2329.02,-1443.41C2343.68,-1433.88 2362.18,-1420.02 2374.8,-1404 2424.9,-1340.37 2484.8,-1167.27 2484.8,-1099 2484.8,-1099 2484.8,-1099 2484.8,-881 2484.8,-521.41 2793.57,-236.46 2473.8,-72 2414.95,-41.74 1960.53,-25.18 1808.31,-20.44"/>
<polygon fill="green" stroke="green" points="1807.98,-16.93 1797.88,-20.12 1807.77,-23.93 1807.98,-16.93"/>
</g>
<!-- CDH1&#45;&gt;CTNNB1 -->
<g id="edge15" class="edge">
<title>CDH1&#45;&gt;CTNNB1</title>
<path fill="none" stroke="purple" d="M2304.9,-1439.87C2302.27,-1388.33 2294.8,-1230.2 2294.8,-1099 2294.8,-1099 2294.8,-1099 2294.8,-953 2294.8,-814.67 2292.56,-772.75 2232.8,-648 2228.04,-638.08 2221.02,-628.44 2213.98,-620.17"/>
<polygon fill="purple" stroke="purple" points="2213.88,-620.05 2206.89,-618.28 2205.84,-611.15 2212.83,-612.92 2213.88,-620.05"/>
</g>
<!-- CDH1&#45;&gt;RAC1 -->
<g id="edge70" class="edge">
<title>CDH1&#45;&gt;RAC1</title>
<path fill="none" stroke="green" d="M2272.67,-1467.46C2258.03,-1470.39 2240.67,-1473.55 2224.8,-1476 2077.38,-1498.73 1901.03,-1517.31 1819.29,-1525.08"/>
<polygon fill="green" stroke="green" points="1818.96,-1521.6 1809.33,-1526.02 1819.62,-1528.57 1818.96,-1521.6"/>
</g>
<!-- RAP1A -->
<g id="node31" class="node">
<title>RAP1A</title>
<ellipse fill="lightgray" stroke="black" cx="2110.8" cy="-1170" rx="42.49" ry="18"/>
<text text-anchor="middle" x="2110.8" y="-1166.3" font-family="Times,serif" font-size="14.00">RAP1A</text>
</g>
<!-- CDH1&#45;&gt;RAP1A -->
<g id="edge71" class="edge">
<title>CDH1&#45;&gt;RAP1A</title>
<path fill="none" stroke="green" d="M2291.73,-1441.22C2255.34,-1394.18 2159.95,-1254.66 2124.25,-1196.7"/>
<polygon fill="green" stroke="green" points="2127.04,-1194.54 2118.86,-1187.8 2121.05,-1198.17 2127.04,-1194.54"/>
</g>
<!-- VASP -->
<g id="node33" class="node">
<title>VASP</title>
<ellipse fill="lightgray" stroke="black" cx="2785.8" cy="-18" rx="36" ry="18"/>
<text text-anchor="middle" x="2785.8" y="-14.3" font-family="Times,serif" font-size="14.00">VASP</text>
</g>
<!-- CDH1&#45;&gt;VASP -->
<g id="edge40" class="edge">
<title>CDH1&#45;&gt;VASP</title>
<path fill="none" stroke="green" d="M2343.26,-1453.74C2378.4,-1448.74 2430.16,-1436.07 2461.8,-1404 2561.88,-1302.54 2560.8,-1241.52 2560.8,-1099 2560.8,-1099 2560.8,-1099 2560.8,-1025 2560.8,-861.5 2656.03,-841.8 2698.8,-684 2749.56,-496.73 2737.08,-444.45 2761.8,-252 2770,-188.13 2771.36,-172.07 2777.8,-108 2779.88,-87.29 2781.98,-63.85 2783.5,-46.22"/>
<polygon fill="green" stroke="green" points="2787,-46.33 2784.37,-36.07 2780.03,-45.74 2787,-46.33"/>
</g>
<!-- CDH2&#45;&gt;RHOA -->
<g id="edge8" class="edge">
<title>CDH2&#45;&gt;RHOA</title>
<path fill="none" stroke="green" d="M2368.51,-143.81C2367.16,-123.22 2361.52,-89.33 2339.8,-72 2298.6,-39.14 1940.41,-24.68 1807.85,-20.42"/>
<polygon fill="green" stroke="green" points="1807.7,-16.91 1797.59,-20.1 1807.48,-23.91 1807.7,-16.91"/>
</g>
<!-- CDH2&#45;&gt;CTNNB1 -->
<g id="edge16" class="edge">
<title>CDH2&#45;&gt;CTNNB1</title>
<path fill="none" stroke="green" d="M2371.36,-180.23C2378.97,-237.93 2395.75,-427.12 2308.8,-540 2292.67,-560.93 2266.52,-573.78 2242.74,-581.57"/>
<polygon fill="green" stroke="green" points="2241.62,-578.25 2233.07,-584.51 2243.66,-584.94 2241.62,-578.25"/>
</g>
<!-- CDH2&#45;&gt;RAC1 -->
<g id="edge33" class="edge">
<title>CDH2&#45;&gt;RAC1</title>
<path fill="none" stroke="green" d="M2387.94,-177.68C2442.15,-220.61 2596.32,-352.56 2650.8,-504 2740.03,-752.06 2637.8,-833.38 2637.8,-1097 2637.8,-1243 2637.8,-1243 2637.8,-1243 2637.8,-1303.18 2550.96,-1444.32 2499.8,-1476 2442.22,-1511.66 1972.06,-1524.76 1820.61,-1528.08"/>
<polygon fill="green" stroke="green" points="1820.19,-1524.59 1810.27,-1528.3 1820.34,-1531.59 1820.19,-1524.59"/>
</g>
<!-- PTK2B&#45;&gt;PTK2 -->
<g id="edge5" class="edge">
<title>PTK2B&#45;&gt;PTK2</title>
<path fill="none" stroke="green" d="M2139.6,-383.25C2189.84,-389.49 2277.08,-403.59 2346.8,-432 2402.29,-454.61 2413.49,-467.22 2460.8,-504 2670.19,-666.79 2751.8,-759.77 2751.8,-1025 2751.8,-1243 2751.8,-1243 2751.8,-1243 2751.8,-1367.15 2774.68,-1514.18 2784.93,-1573.83"/>
<polygon fill="green" stroke="green" points="2781.52,-1574.68 2786.69,-1583.93 2788.42,-1573.48 2781.52,-1574.68"/>
</g>
<!-- PTK2B&#45;&gt;EGFR -->
<g id="edge79" class="edge">
<title>PTK2B&#45;&gt;EGFR</title>
<path fill="none" stroke="green" d="M2099.41,-396.08C2100.93,-440.44 2104.8,-562.94 2104.8,-665 2104.8,-955 2104.8,-955 2104.8,-955 2104.8,-998.86 2019.54,-1301.73 1987.8,-1332 1959.21,-1359.27 1915.84,-1372.58 1882.73,-1379.04"/>
<polygon fill="green" stroke="green" points="1882.03,-1375.61 1872.82,-1380.83 1883.28,-1382.5 1882.03,-1375.61"/>
</g>
<!-- TP53 -->
<g id="node12" class="node">
<title>TP53</title>
<ellipse fill="lightgray" stroke="black" cx="1204.8" cy="-810" rx="34.39" ry="18"/>
<text text-anchor="middle" x="1204.8" y="-806.3" font-family="Times,serif" font-size="14.00">TP53</text>
</g>
<!-- PTK2B&#45;&gt;TP53 -->
<g id="edge80" class="edge">
<title>PTK2B&#45;&gt;TP53</title>
<path fill="none" stroke="green" d="M2056.36,-380.11C1917.41,-384.04 1481.98,-398.89 1428.8,-432 1295.09,-515.24 1231.2,-710.15 1211.6,-781.88"/>
<polygon fill="green" stroke="green" points="1208.12,-781.36 1208.93,-791.92 1214.89,-783.16 1208.12,-781.36"/>
</g>
<!-- LCK -->
<g id="node24" class="node">
<title>LCK</title>
<ellipse fill="lightgray" stroke="black" cx="1872.8" cy="-306" rx="30.59" ry="18"/>
<text text-anchor="middle" x="1872.8" y="-302.3" font-family="Times,serif" font-size="14.00">LCK</text>
</g>
<!-- PTK2B&#45;&gt;LCK -->
<g id="edge26" class="edge">
<title>PTK2B&#45;&gt;LCK</title>
<path fill="none" stroke="green" d="M2065.45,-366.67C2023.62,-353.71 1952.16,-331.58 1909.02,-318.22"/>
<polygon fill="green" stroke="green" points="1909.81,-314.8 1899.22,-315.18 1907.74,-321.49 1909.81,-314.8"/>
</g>
<!-- PTK2B&#45;&gt;RAC1 -->
<g id="edge82" class="edge">
<title>PTK2B&#45;&gt;RAC1</title>
<path fill="none" stroke="green" d="M2124.42,-392.47C2184.62,-425.88 2333.4,-519.27 2378.8,-648 2423.9,-775.88 2370.8,-817.4 2370.8,-953 2370.8,-1099 2370.8,-1099 2370.8,-1099 2370.8,-1342.65 2193.74,-1373.28 1972.8,-1476 1922.29,-1499.48 1859.55,-1514.01 1818.18,-1521.79"/>
<polygon fill="green" stroke="green" points="1817.35,-1518.38 1808.14,-1523.62 1818.61,-1525.27 1817.35,-1518.38"/>
</g>
<!-- FOXO3 -->
<g id="node41" class="node">
<title>FOXO3</title>
<ellipse fill="lightgray" stroke="black" cx="937.8" cy="-1026" rx="44.39" ry="18"/>
<text text-anchor="middle" x="937.8" y="-1022.3" font-family="Times,serif" font-size="14.00">FOXO3</text>
</g>
<!-- PTK2B&#45;&gt;FOXO3 -->
<g id="edge51" class="edge">
<title>PTK2B&#45;&gt;FOXO3</title>
<path fill="none" stroke="green" d="M2056.74,-380.22C1911.9,-384.69 1439.35,-401.49 1378.8,-432 1128.42,-558.14 984.16,-901 947.29,-998.7"/>
<polygon fill="green" stroke="green" points="943.99,-997.53 943.78,-1008.13 950.55,-999.98 943.99,-997.53"/>
</g>
<!-- NOTCH1 -->
<g id="node6" class="node">
<title>NOTCH1</title>
<ellipse fill="lightyellow" stroke="black" cx="1796.8" cy="-522" rx="51.99" ry="18"/>
<text text-anchor="middle" x="1796.8" y="-518.3" font-family="Times,serif" font-size="14.00">NOTCH1</text>
</g>
<!-- NOTCH1&#45;&gt;EGFR -->
<g id="edge6" class="edge">
<title>NOTCH1&#45;&gt;EGFR</title>
<path fill="none" stroke="green" d="M1829.8,-536.07C1870.61,-554.25 1938.19,-591.45 1966.8,-648 1997.52,-708.73 1956.15,-1193.69 1940.8,-1260 1933.02,-1293.61 1933.28,-1305.01 1911.8,-1332 1900.51,-1346.17 1884.45,-1358.13 1869.99,-1367.09"/>
<polygon fill="green" stroke="green" points="1868.08,-1364.15 1861.26,-1372.26 1871.64,-1370.18 1868.08,-1364.15"/>
</g>
<!-- NOTCH1&#45;&gt;TP53 -->
<g id="edge21" class="edge">
<title>NOTCH1&#45;&gt;TP53</title>
<path fill="none" stroke="red" d="M1771.15,-537.68C1737.71,-556.44 1677.08,-589.22 1622.8,-612 1576.14,-631.58 1561.39,-628.28 1514.8,-648 1406.37,-693.89 1284.11,-762.77 1231.36,-793.38"/>
<polygon fill="red" stroke="red" points="1230.15,-799.86 1225.13,-791.22 1226.86,-790.21 1231.88,-798.86 1230.15,-799.86"/>
<polyline fill="none" stroke="red" points="1226.77,-796.04 1231.1,-793.53 "/>
</g>
<!-- NOTCH1&#45;&gt;FLT4 -->
<g id="edge13" class="edge">
<title>NOTCH1&#45;&gt;FLT4</title>
<path fill="none" stroke="green" d="M1847.38,-517.5C2022.43,-505.41 2600.78,-465.44 2765.6,-454.05"/>
<polygon fill="green" stroke="green" points="2766.12,-457.53 2775.85,-453.35 2765.63,-450.54 2766.12,-457.53"/>
</g>
<!-- SOX2 -->
<g id="node16" class="node">
<title>SOX2</title>
<ellipse fill="lightgray" stroke="black" cx="1941.8" cy="-450" rx="36.29" ry="18"/>
<text text-anchor="middle" x="1941.8" y="-446.3" font-family="Times,serif" font-size="14.00">SOX2</text>
</g>
<!-- NOTCH1&#45;&gt;SOX2 -->
<g id="edge17" class="edge">
<title>NOTCH1&#45;&gt;SOX2</title>
<path fill="none" stroke="green" d="M1825.79,-507C1849.39,-495.61 1882.74,-479.51 1907.64,-467.49"/>
<polygon fill="green" stroke="green" points="1909.24,-470.6 1916.72,-463.11 1906.2,-464.3 1909.24,-470.6"/>
</g>
<!-- CDKN1A -->
<g id="node17" class="node">
<title>CDKN1A</title>
<ellipse fill="lightgray" stroke="black" cx="816.8" cy="-954" rx="51.99" ry="18"/>
<text text-anchor="middle" x="816.8" y="-950.3" font-family="Times,serif" font-size="14.00">CDKN1A</text>
</g>
<!-- NOTCH1&#45;&gt;CDKN1A -->
<g id="edge19" class="edge">
<title>NOTCH1&#45;&gt;CDKN1A</title>
<path fill="none" stroke="green" d="M1757.85,-534.04C1722.43,-544.27 1668.81,-560.25 1622.8,-576 1329.23,-676.5 1242.15,-687.7 986.8,-864 967.65,-877.22 968.38,-887.44 948.8,-900 922.9,-916.6 890.94,-929.6 864.96,-938.57"/>
<polygon fill="green" stroke="green" points="863.69,-935.3 855.32,-941.8 865.92,-941.94 863.69,-935.3"/>
</g>
<!-- IFNG -->
<g id="node22" class="node">
<title>IFNG</title>
<ellipse fill="lightgray" stroke="black" cx="1506.8" cy="-450" rx="36" ry="18"/>
<text text-anchor="middle" x="1506.8" y="-446.3" font-family="Times,serif" font-size="14.00">IFNG</text>
</g>
<!-- NOTCH1&#45;&gt;IFNG -->
<g id="edge24" class="edge">
<title>NOTCH1&#45;&gt;IFNG</title>
<path fill="none" stroke="green" d="M1755.25,-510.97C1700.1,-497.66 1603.31,-474.3 1548.23,-461"/>
<polygon fill="green" stroke="green" points="1548.99,-457.58 1538.45,-458.64 1547.35,-464.39 1548.99,-457.58"/>
</g>
<!-- MYC -->
<g id="node25" class="node">
<title>MYC</title>
<ellipse fill="lightgray" stroke="black" cx="2028.8" cy="-450" rx="32.49" ry="18"/>
<text text-anchor="middle" x="2028.8" y="-446.3" font-family="Times,serif" font-size="14.00">MYC</text>
</g>
<!-- NOTCH1&#45;&gt;MYC -->
<g id="edge28" class="edge">
<title>NOTCH1&#45;&gt;MYC</title>
<path fill="none" stroke="purple" d="M1836.97,-510.36C1884.06,-497.8 1959.16,-477.41 1986.8,-468 1988.61,-467.38 1990.45,-466.73 1992.3,-466.06"/>
<polygon fill="purple" stroke="purple" points="1992.44,-466 1996.62,-460.12 2003.65,-461.71 1999.48,-467.59 1992.44,-466"/>
</g>
<!-- EGFR&#45;&gt;PTK2 -->
<g id="edge62" class="edge">
<title>EGFR&#45;&gt;PTK2</title>
<path fill="none" stroke="green" d="M1869.59,-1394.58C2015.02,-1427.2 2587.44,-1555.61 2747.82,-1591.58"/>
<polygon fill="green" stroke="green" points="2747.26,-1595.04 2757.78,-1593.82 2748.79,-1588.21 2747.26,-1595.04"/>
</g>
<!-- EGFR&#45;&gt;RHOA -->
<g id="edge83" class="edge">
<title>EGFR&#45;&gt;RHOA</title>
<path fill="none" stroke="green" d="M1845.5,-1368.33C1851.04,-1358.14 1857.68,-1344.67 1861.8,-1332 1934.51,-1108.47 1952.8,-1046.06 1952.8,-811 1952.8,-811 1952.8,-811 1952.8,-737 1952.8,-606.74 1800.34,-653.14 1735.8,-540 1684.44,-449.97 1725.8,-410.65 1725.8,-307 1725.8,-307 1725.8,-307 1725.8,-161 1725.8,-119.75 1739.17,-73.47 1748.89,-45.28"/>
<polygon fill="green" stroke="green" points="1752.23,-46.35 1752.28,-35.76 1745.63,-44.01 1752.23,-46.35"/>
</g>
<!-- EGFR&#45;&gt;CTNNB1 -->
<g id="edge86" class="edge">
<title>EGFR&#45;&gt;CTNNB1</title>
<path fill="none" stroke="purple" d="M1874.29,-1384.41C1922.55,-1381.92 2005.97,-1371.63 2063.8,-1332 2071.78,-1326.53 2158.72,-1197.17 2161.8,-1188 2215.2,-1028.96 2180.8,-978.77 2180.8,-811 2180.8,-811 2180.8,-811 2180.8,-737 2180.8,-697.99 2183.84,-653.05 2186.18,-624.36"/>
<polygon fill="purple" stroke="purple" points="2186.21,-623.99 2182.73,-617.67 2187.22,-612.03 2190.7,-618.35 2186.21,-623.99"/>
</g>
<!-- MAP3K1 -->
<g id="node19" class="node">
<title>MAP3K1</title>
<ellipse fill="lightgray" stroke="black" cx="1654.8" cy="-1314" rx="51.19" ry="18"/>
<text text-anchor="middle" x="1654.8" y="-1310.3" font-family="Times,serif" font-size="14.00">MAP3K1</text>
</g>
<!-- EGFR&#45;&gt;MAP3K1 -->
<g id="edge87" class="edge">
<title>EGFR&#45;&gt;MAP3K1</title>
<path fill="none" stroke="green" d="M1807.12,-1373.91C1777.63,-1362.5 1731.37,-1344.62 1697.57,-1331.54"/>
<polygon fill="green" stroke="green" points="1698.54,-1328.16 1687.95,-1327.82 1696.01,-1334.69 1698.54,-1328.16"/>
</g>
<!-- EGFR&#45;&gt;RAC1 -->
<g id="edge92" class="edge">
<title>EGFR&#45;&gt;RAC1</title>
<path fill="none" stroke="green" d="M1828.45,-1403.82C1817.78,-1428.26 1797.9,-1473.79 1785.29,-1502.69"/>
<polygon fill="green" stroke="green" points="1781.95,-1501.59 1781.15,-1512.15 1788.36,-1504.39 1781.95,-1501.59"/>
</g>
<!-- DVL2 -->
<g id="node8" class="node">
<title>DVL2</title>
<ellipse fill="lightgray" stroke="black" cx="2294.8" cy="-90" rx="36.29" ry="18"/>
<text text-anchor="middle" x="2294.8" y="-86.3" font-family="Times,serif" font-size="14.00">DVL2</text>
</g>
<!-- DVL2&#45;&gt;NOTCH1 -->
<g id="edge7" class="edge">
<title>DVL2&#45;&gt;NOTCH1</title>
<path fill="none" stroke="red" d="M2261.18,-96.95C2144.45,-118.56 1763.8,-197.28 1763.8,-305 1763.8,-379 1763.8,-379 1763.8,-379 1763.8,-422.36 1778.58,-471.29 1788.36,-498.91"/>
<polygon fill="red" stroke="red" points="1794.49,-501.18 1785.08,-504.56 1784.4,-502.68 1793.81,-499.3 1794.49,-501.18"/>
<polyline fill="none" stroke="red" points="1790.12,-503.81 1788.43,-499.11 "/>
</g>
<!-- DVL2&#45;&gt;CTNNB1 -->
<g id="edge95" class="edge">
<title>DVL2&#45;&gt;CTNNB1</title>
<path fill="none" stroke="red" d="M2294.8,-108.05C2294.8,-134.71 2294.8,-187.89 2294.8,-233 2294.8,-451 2294.8,-451 2294.8,-451 2294.8,-491.97 2294.94,-506.9 2270.8,-540 2259.11,-556.02 2240.98,-568.47 2224.73,-577.26"/>
<polygon fill="red" stroke="red" points="2223.42,-583.6 2218.76,-574.76 2220.53,-573.83 2225.19,-582.67 2223.42,-583.6"/>
<polyline fill="none" stroke="red" points="2220.21,-579.65 2224.63,-577.32 "/>
</g>
<!-- DVL2&#45;&gt;RAC1 -->
<g id="edge97" class="edge">
<title>DVL2&#45;&gt;RAC1</title>
<path fill="none" stroke="green" d="M2328.94,-96.53C2356.88,-102.94 2395.05,-116.41 2415.8,-144 2470.29,-216.47 2522.8,-862.33 2522.8,-953 2522.8,-1099 2522.8,-1099 2522.8,-1099 2522.8,-1235.3 2567.45,-1291.29 2490.8,-1404 2414.99,-1515.47 1967.42,-1527.96 1820.5,-1529.03"/>
<polygon fill="green" stroke="green" points="1820.43,-1525.53 1810.45,-1529.09 1820.47,-1532.53 1820.43,-1525.53"/>
</g>
<!-- RHOA&#45;&gt;PTK2 -->
<g id="edge63" class="edge">
<title>RHOA&#45;&gt;PTK2</title>
<path fill="none" stroke="green" d="M1798.14,-19.12C1939.26,-19.91 2419.39,-26.02 2564.8,-72 2829.14,-155.6 3061.8,-171.75 3061.8,-449 3061.8,-595 3061.8,-595 3061.8,-595 3061.8,-726.52 2985.8,-749.48 2985.8,-881 2985.8,-955 2985.8,-955 2985.8,-955 2985.8,-1056.85 2903.8,-1067.15 2903.8,-1169 2903.8,-1459 2903.8,-1459 2903.8,-1459 2903.8,-1512.54 2853.9,-1557.39 2820.13,-1581.62"/>
<polygon fill="green" stroke="green" points="2817.72,-1579.03 2811.51,-1587.61 2821.72,-1584.77 2817.72,-1579.03"/>
</g>
<!-- RHOA&#45;&gt;CDKN1A -->
<g id="edge100" class="edge">
<title>RHOA&#45;&gt;CDKN1A</title>
<path fill="none" stroke="red" d="M1719.71,-19.1C1496,-20.07 384.59,-30.6 290.8,-144 140.08,-326.23 398.8,-428.52 398.8,-665 398.8,-739 398.8,-739 398.8,-739 398.8,-899.87 647.12,-939.89 760.97,-949.78"/>
<polygon fill="red" stroke="red" points="765.38,-945.13 764.54,-955.1 762.55,-954.93 763.39,-944.97 765.38,-945.13"/>
<polyline fill="none" stroke="red" points="765.96,-950.2 760.98,-949.78 "/>
</g>
<!-- RHOA&#45;&gt;LCK -->
<g id="edge101" class="edge">
<title>RHOA&#45;&gt;LCK</title>
<path fill="none" stroke="green" d="M1768.78,-35.59C1791.97,-83.13 1846.85,-220.2 1866.31,-278.38"/>
<polygon fill="green" stroke="green" points="1863.01,-279.53 1869.42,-287.97 1869.67,-277.37 1863.01,-279.53"/>
</g>
<!-- RHOA&#45;&gt;ITGB1 -->
<g id="edge103" class="edge">
<title>RHOA&#45;&gt;ITGB1</title>
<path fill="none" stroke="green" d="M1724.63,-26.84C1692.4,-34.59 1643.96,-48.73 1606.8,-72 1356.26,-228.89 1252,-291.2 1172.8,-576 1121.98,-758.71 1159.76,-991.56 1170.16,-1069.91"/>
<polygon fill="green" stroke="green" points="1166.7,-1070.44 1171.44,-1079.91 1173.65,-1069.55 1166.7,-1070.44"/>
</g>
<!-- PRKCA -->
<g id="node10" class="node">
<title>PRKCA</title>
<ellipse fill="lightgray" stroke="black" cx="494.8" cy="-1746" rx="43.59" ry="18"/>
<text text-anchor="middle" x="494.8" y="-1742.3" font-family="Times,serif" font-size="14.00">PRKCA</text>
</g>
<!-- PRKCA&#45;&gt;SRC -->
<g id="edge9" class="edge">
<title>PRKCA&#45;&gt;SRC</title>
<path fill="none" stroke="purple" d="M537.72,-1742.65C733.06,-1731.96 1536.95,-1687.96 1731.33,-1677.32"/>
<polygon fill="purple" stroke="purple" points="1731.52,-1677.31 1737.29,-1672.99 1743.5,-1676.66 1737.73,-1680.98 1731.52,-1677.31"/>
</g>
<!-- PRKCA&#45;&gt;PTK2 -->
<g id="edge64" class="edge">
<title>PRKCA&#45;&gt;PTK2</title>
<path fill="none" stroke="green" d="M538.09,-1743.85C703.69,-1739.32 1312.77,-1721.53 1813.8,-1692 2225.88,-1667.71 2335.45,-1703.09 2739.8,-1620 2743.99,-1619.14 2748.32,-1618.03 2752.59,-1616.78"/>
<polygon fill="green" stroke="green" points="2753.88,-1620.04 2762.37,-1613.7 2751.78,-1613.37 2753.88,-1620.04"/>
</g>
<!-- PRKCA&#45;&gt;PTK2B -->
<g id="edge49" class="edge">
<title>PRKCA&#45;&gt;PTK2B</title>
<path fill="none" stroke="green" d="M538.32,-1744.91C872.48,-1743.91 3017.8,-1732.45 3017.8,-1603 3017.8,-1603 3017.8,-1603 3017.8,-1241 3017.8,-1110.14 2947.8,-1085.86 2947.8,-955 2947.8,-955 2947.8,-955 2947.8,-881 2947.8,-784.4 2909.8,-763.6 2909.8,-667 2909.8,-667 2909.8,-667 2909.8,-521 2909.8,-474.03 2893.19,-455.98 2852.8,-432 2792.79,-396.38 2311.97,-383.36 2151.05,-379.98"/>
<polygon fill="green" stroke="green" points="2150.99,-376.48 2140.92,-379.77 2150.85,-383.48 2150.99,-376.48"/>
</g>
<!-- PRKCA&#45;&gt;EGFR -->
<g id="edge84" class="edge">
<title>PRKCA&#45;&gt;EGFR</title>
<path fill="none" stroke="red" d="M529.79,-1735.1C588.6,-1718.5 710.99,-1684.11 814.8,-1656 1198.24,-1552.17 1664.16,-1431.36 1798.13,-1396.73"/>
<polygon fill="red" stroke="red" points="1800.91,-1390.84 1803.42,-1400.52 1801.48,-1401.02 1798.98,-1391.34 1800.91,-1390.84"/>
<polyline fill="none" stroke="red" points="1803.13,-1395.43 1798.29,-1396.68 "/>
</g>
<!-- PRKCA&#45;&gt;DVL2 -->
<g id="edge94" class="edge">
<title>PRKCA&#45;&gt;DVL2</title>
<path fill="none" stroke="green" d="M538.63,-1745.12C809.89,-1745.68 2262.58,-1746.09 2703.8,-1692 2866.53,-1672.05 3061.8,-1766.95 3061.8,-1603 3061.8,-1603 3061.8,-1603 3061.8,-809 3061.8,-712.4 3023.8,-691.6 3023.8,-595 3023.8,-595 3023.8,-595 3023.8,-449 3023.8,-406.81 3020.38,-390.08 2990.8,-360 2805.49,-171.58 2683.71,-238.21 2436.8,-144 2401.61,-130.57 2361.38,-115.59 2332.75,-104.99"/>
<polygon fill="green" stroke="green" points="2333.73,-101.62 2323.13,-101.44 2331.3,-108.19 2333.73,-101.62"/>
</g>
<!-- PRKCA&#45;&gt;RHOA -->
<g id="edge98" class="edge">
<title>PRKCA&#45;&gt;RHOA</title>
<path fill="none" stroke="green" d="M452.72,-1740.99C339.83,-1729.08 38.8,-1689.23 38.8,-1603 38.8,-1603 38.8,-1603 38.8,-737 38.8,-640.4 76.8,-619.6 76.8,-523 76.8,-523 76.8,-523 76.8,-161 76.8,-86.52 147.58,-93.81 218.8,-72 291.65,-49.69 1454.68,-25.11 1709.65,-19.97"/>
<polygon fill="green" stroke="green" points="1709.79,-23.47 1719.72,-19.77 1709.65,-16.47 1709.79,-23.47"/>
</g>
<!-- PRKCA&#45;&gt;TP53 -->
<g id="edge109" class="edge">
<title>PRKCA&#45;&gt;TP53</title>
<path fill="none" stroke="green" d="M471.73,-1730.69C438.42,-1708.04 380.8,-1660.54 380.8,-1603 380.8,-1603 380.8,-1603 380.8,-1241 380.8,-1177.77 434.71,-1179.19 491.8,-1152 696.66,-1054.43 793.94,-1156.85 990.8,-1044 1083.24,-991.01 1158.47,-884.53 1189.49,-836.06"/>
<polygon fill="green" stroke="green" points="1192.55,-837.76 1194.92,-827.44 1186.63,-834.03 1192.55,-837.76"/>
</g>
<!-- PRKCA&#45;&gt;CDKN1A -->
<g id="edge110" class="edge">
<title>PRKCA&#45;&gt;CDKN1A</title>
<path fill="none" stroke="green" d="M454.82,-1738.77C389.43,-1726.06 266.8,-1690.55 266.8,-1603 266.8,-1603 266.8,-1603 266.8,-1529 266.8,-1355.65 262.6,-1290.54 366.8,-1152 462.97,-1024.13 659.86,-977.87 758.2,-962.29"/>
<polygon fill="green" stroke="green" points="758.91,-965.72 768.26,-960.75 757.85,-958.8 758.91,-965.72"/>
</g>
<!-- PRKCA&#45;&gt;ITGB1 -->
<g id="edge111" class="edge">
<title>PRKCA&#45;&gt;ITGB1</title>
<path fill="none" stroke="green" d="M490.94,-1728.02C481.28,-1683.9 456.8,-1561.93 456.8,-1459 456.8,-1459 456.8,-1459 456.8,-1241 456.8,-1105.4 957.81,-1097.32 1121.05,-1098.28"/>
<polygon fill="green" stroke="green" points="1121.28,-1101.78 1131.31,-1098.36 1121.33,-1094.78 1121.28,-1101.78"/>
</g>
<!-- PRKCA&#45;&gt;RAC1 -->
<g id="edge112" class="edge">
<title>PRKCA&#45;&gt;RAC1</title>
<path fill="none" stroke="green" d="M534.48,-1738.36C723.47,-1706.74 1531.38,-1571.56 1729.71,-1538.38"/>
<polygon fill="green" stroke="green" points="1730.47,-1541.8 1739.76,-1536.7 1729.32,-1534.89 1730.47,-1541.8"/>
</g>
<!-- PRKCA&#45;&gt;VASP -->
<g id="edge113" class="edge">
<title>PRKCA&#45;&gt;VASP</title>
<path fill="none" stroke="green" d="M538.57,-1744.95C844.04,-1744.5 2651.87,-1739.82 2890.8,-1692 2989.79,-1672.18 3099.8,-1703.96 3099.8,-1603 3099.8,-1603 3099.8,-1603 3099.8,-161 3099.8,-44.72 2918.82,-23.15 2831.66,-19.51"/>
<polygon fill="green" stroke="green" points="2831.63,-16.01 2821.51,-19.15 2831.38,-23 2831.63,-16.01"/>
</g>
<!-- PRKCA&#45;&gt;ABL1 -->
<g id="edge114" class="edge">
<title>PRKCA&#45;&gt;ABL1</title>
<path fill="none" stroke="green" d="M451.24,-1744C367.18,-1739.52 190.8,-1716.59 190.8,-1603 190.8,-1603 190.8,-1603 190.8,-665 190.8,-368.59 662.72,-266.34 810.86,-241.55"/>
<polygon fill="green" stroke="green" points="811.65,-244.96 820.96,-239.89 810.52,-238.06 811.65,-244.96"/>
</g>
<!-- VIM -->
<g id="node39" class="node">
<title>VIM</title>
<ellipse fill="lightyellow" stroke="black" cx="152.8" cy="-18" rx="29.8" ry="18"/>
<text text-anchor="middle" x="152.8" y="-14.3" font-family="Times,serif" font-size="14.00">VIM</text>
</g>
<!-- PRKCA&#45;&gt;VIM -->
<g id="edge72" class="edge">
<title>PRKCA&#45;&gt;VIM</title>
<path fill="none" stroke="purple" d="M451.68,-1742.88C341.66,-1737.08 56.87,-1719.56 24.8,-1692 -6.28,-1665.3 0.8,-1643.97 0.8,-1603 0.8,-1603 0.8,-1603 0.8,-161 0.8,-117.81 9.65,-102.93 39.8,-72 59.98,-51.29 89.83,-37.77 113.78,-29.57"/>
<polygon fill="purple" stroke="purple" points="113.92,-29.53 118.41,-23.89 125.34,-25.86 120.85,-31.5 113.92,-29.53"/>
</g>
<!-- TP53&#45;&gt;PTK2 -->
<g id="edge32" class="edge">
<title>TP53&#45;&gt;PTK2</title>
<path fill="none" stroke="red" d="M1234.29,-819.6C1322.93,-845.64 1594.45,-926.85 1814.8,-1008 1971.48,-1065.7 2015.83,-1070.92 2161.8,-1152 2416.18,-1293.3 2690.79,-1517.88 2768.34,-1582.85"/>
<polygon fill="red" stroke="red" points="2774.76,-1581.71 2768.33,-1589.37 2766.8,-1588.08 2773.23,-1580.42 2774.76,-1581.71"/>
<polyline fill="none" stroke="red" points="2772.31,-1586.18 2768.48,-1582.97 "/>
</g>
<!-- TP53&#45;&gt;EGFR -->
<g id="edge85" class="edge">
<title>TP53&#45;&gt;EGFR</title>
<path fill="none" stroke="green" d="M1219.11,-826.8C1240.08,-850.16 1280.1,-895.51 1311.8,-936 1378.47,-1021.17 1504.53,-1272.42 1594.8,-1332 1653.33,-1370.64 1735.57,-1381.53 1787.25,-1384.37"/>
<polygon fill="green" stroke="green" points="1787.32,-1387.87 1797.48,-1384.84 1787.65,-1380.88 1787.32,-1387.87"/>
</g>
<!-- LATS2 -->
<g id="node13" class="node">
<title>LATS2</title>
<ellipse fill="lightyellow" stroke="black" cx="986.8" cy="-738" rx="40.09" ry="18"/>
<text text-anchor="middle" x="986.8" y="-734.3" font-family="Times,serif" font-size="14.00">LATS2</text>
</g>
<!-- TP53&#45;&gt;LATS2 -->
<g id="edge11" class="edge">
<title>TP53&#45;&gt;LATS2</title>
<path fill="none" stroke="green" d="M1176.3,-799.85C1138.5,-787.71 1071.53,-766.21 1028.16,-752.28"/>
<polygon fill="green" stroke="green" points="1029.08,-748.9 1018.49,-749.18 1026.94,-755.56 1029.08,-748.9"/>
</g>
<!-- TP53&#45;&gt;CDKN1A -->
<g id="edge116" class="edge">
<title>TP53&#45;&gt;CDKN1A</title>
<path fill="none" stroke="purple" d="M1178.2,-821.55C1151.51,-832.16 1109.24,-849.06 1072.8,-864 1034.46,-879.72 1025.73,-885.82 986.8,-900 947.04,-914.48 901.2,-928.63 867.15,-938.66"/>
<polygon fill="purple" stroke="purple" points="867.15,-938.66 862.51,-944.18 855.63,-942.03 860.26,-936.5 867.15,-938.66"/>
</g>
<!-- MAP4K4 -->
<g id="node18" class="node">
<title>MAP4K4</title>
<ellipse fill="lightyellow" stroke="black" cx="1759.8" cy="-738" rx="51.19" ry="18"/>
<text text-anchor="middle" x="1759.8" y="-734.3" font-family="Times,serif" font-size="14.00">MAP4K4</text>
</g>
<!-- TP53&#45;&gt;MAP4K4 -->
<g id="edge22" class="edge">
<title>TP53&#45;&gt;MAP4K4</title>
<path fill="none" stroke="green" d="M1237.85,-804.83C1329.26,-793.3 1586.27,-760.89 1702.01,-746.29"/>
<polygon fill="green" stroke="green" points="1702.62,-749.74 1712.1,-745.02 1701.74,-742.79 1702.62,-749.74"/>
</g>
<!-- TP53&#45;&gt;RAC1 -->
<g id="edge120" class="edge">
<title>TP53&#45;&gt;RAC1</title>
<path fill="none" stroke="red" d="M1213.28,-827.69C1241.73,-896.73 1335.89,-1164.17 1487.8,-1332 1566.18,-1418.6 1690.35,-1485.02 1745.77,-1513.62"/>
<polygon fill="red" stroke="red" points="1751.68,-1511.04 1747.1,-1519.93 1745.32,-1519.01 1749.9,-1510.12 1751.68,-1511.04"/>
<polyline fill="none" stroke="red" points="1750.28,-1515.94 1745.83,-1513.65 "/>
</g>
<!-- YAP1 -->
<g id="node32" class="node">
<title>YAP1</title>
<ellipse fill="lightgray" stroke="black" cx="992.8" cy="-666" rx="34.39" ry="18"/>
<text text-anchor="middle" x="992.8" y="-662.3" font-family="Times,serif" font-size="14.00">YAP1</text>
</g>
<!-- LATS2&#45;&gt;YAP1 -->
<g id="edge76" class="edge">
<title>LATS2&#45;&gt;YAP1</title>
<path fill="none" stroke="red" d="M988.28,-719.7C989.07,-710.46 990.06,-698.98 990.9,-689.11"/>
<polygon fill="red" stroke="red" points="986.26,-684.67 996.23,-685.53 996.06,-687.52 986.09,-686.67 986.26,-684.67"/>
<polyline fill="none" stroke="red" points="991.33,-684.1 990.9,-689.09 "/>
</g>
<!-- SNAI1 -->
<g id="node35" class="node">
<title>SNAI1</title>
<ellipse fill="lightgray" stroke="black" cx="1581.8" cy="-378" rx="40.09" ry="18"/>
<text text-anchor="middle" x="1581.8" y="-374.3" font-family="Times,serif" font-size="14.00">SNAI1</text>
</g>
<!-- LATS2&#45;&gt;SNAI1 -->
<g id="edge42" class="edge">
<title>LATS2&#45;&gt;SNAI1</title>
<path fill="none" stroke="green" d="M1001.85,-721.15C1060.12,-659.86 1268.6,-441.28 1286.8,-432 1365.68,-391.79 1470.03,-381.62 1531.14,-379.32"/>
<polygon fill="green" stroke="green" points="1531.42,-382.81 1541.3,-378.99 1531.19,-375.82 1531.42,-382.81"/>
</g>
<!-- CTNNB1&#45;&gt;NOTCH1 -->
<g id="edge12" class="edge">
<title>CTNNB1&#45;&gt;NOTCH1</title>
<path fill="none" stroke="green" d="M2143.45,-584.9C2071.21,-572 1930.24,-546.83 1852.17,-532.89"/>
<polygon fill="green" stroke="green" points="1852.5,-529.39 1842.04,-531.08 1851.27,-536.28 1852.5,-529.39"/>
</g>
<!-- CTNNB1&#45;&gt;RHOA -->
<g id="edge99" class="edge">
<title>CTNNB1&#45;&gt;RHOA</title>
<path fill="none" stroke="green" d="M2234.65,-585.38C2265.51,-578.21 2305.41,-564.73 2332.8,-540 2444.76,-438.88 2481.8,-385.87 2481.8,-235 2481.8,-235 2481.8,-235 2481.8,-161 2481.8,-23.39 1971.12,-16.79 1808.15,-18.18"/>
<polygon fill="green" stroke="green" points="1807.89,-14.68 1797.93,-18.28 1807.96,-21.68 1807.89,-14.68"/>
</g>
<!-- CTNNB1&#45;&gt;SOX2 -->
<g id="edge123" class="edge">
<title>CTNNB1&#45;&gt;SOX2</title>
<path fill="none" stroke="purple" d="M2151.66,-581.38C2124.25,-572.06 2086.52,-557.63 2055.8,-540 2022.98,-521.16 1989.29,-493.66 1967.14,-474.23"/>
<polygon fill="purple" stroke="purple" points="1967.06,-474.16 1959.92,-473.16 1958.1,-466.18 1965.24,-467.18 1967.06,-474.16"/>
</g>
<!-- CTNNB1&#45;&gt;MYC -->
<g id="edge124" class="edge">
<title>CTNNB1&#45;&gt;MYC</title>
<path fill="none" stroke="green" d="M2155.95,-579.92C2135.69,-570.77 2109.98,-557.14 2090.8,-540 2070.4,-521.78 2053.19,-495.59 2042.12,-476.33"/>
<polygon fill="green" stroke="green" points="2045.12,-474.53 2037.19,-467.5 2039.01,-477.94 2045.12,-474.53"/>
</g>
<!-- CTNNB1&#45;&gt;VASP -->
<g id="edge128" class="edge">
<title>CTNNB1&#45;&gt;VASP</title>
<path fill="none" stroke="green" d="M2233.98,-585.09C2270.88,-577.33 2323.48,-563.21 2364.8,-540 2531.9,-446.12 2574.04,-407.72 2685.8,-252 2733.89,-184.98 2765.16,-91.22 2778.47,-45.79"/>
<polygon fill="green" stroke="green" points="2781.86,-46.66 2781.25,-36.08 2775.13,-44.73 2781.86,-46.66"/>
</g>
<!-- CTNNB1&#45;&gt;FOXO3 -->
<g id="edge132" class="edge">
<title>CTNNB1&#45;&gt;FOXO3</title>
<path fill="none" stroke="green" d="M2137.41,-596.77C2023.25,-601.24 1751.86,-615.1 1666.8,-648 1591.52,-677.11 1439.53,-815.79 1374.8,-864 1353.41,-879.93 1350.48,-887.75 1326.8,-900 1211.55,-959.59 1062.42,-997.84 986.65,-1014.82"/>
<polygon fill="green" stroke="green" points="985.46,-1011.5 976.46,-1017.08 986.98,-1018.33 985.46,-1011.5"/>
</g>
<!-- FLT4&#45;&gt;PTK2 -->
<g id="edge14" class="edge">
<title>FLT4&#45;&gt;PTK2</title>
<path fill="none" stroke="green" d="M2813.35,-467.96C2818.6,-494.5 2827.8,-547.52 2827.8,-593 2827.8,-1459 2827.8,-1459 2827.8,-1459 2827.8,-1500.59 2812.39,-1546.78 2801.2,-1574.86"/>
<polygon fill="green" stroke="green" points="2797.87,-1573.76 2797.3,-1584.34 2804.34,-1576.42 2797.87,-1573.76"/>
</g>
<!-- FLT4&#45;&gt;RPS6KA3 -->
<g id="edge115" class="edge">
<title>FLT4&#45;&gt;RPS6KA3</title>
<path fill="none" stroke="red" d="M2828.62,-434.83C2842.69,-424.24 2862.07,-409.65 2877.5,-398.04"/>
<polygon fill="red" stroke="red" points="2877.93,-391.46 2883.94,-399.45 2882.34,-400.65 2876.33,-392.66 2877.93,-391.46"/>
<polyline fill="none" stroke="red" points="2881.73,-394.85 2877.74,-397.86 "/>
</g>
<!-- SOX2&#45;&gt;CDH2 -->
<g id="edge18" class="edge">
<title>SOX2&#45;&gt;CDH2</title>
<path fill="none" stroke="green" d="M1958.43,-433.7C1978.79,-415.29 2014.66,-383.88 2047.8,-360 2148.51,-287.43 2276.38,-214.15 2335.74,-181.13"/>
<polygon fill="green" stroke="green" points="2337.62,-184.09 2344.67,-176.18 2334.22,-177.97 2337.62,-184.09"/>
</g>
<!-- CDK1 -->
<g id="node27" class="node">
<title>CDK1</title>
<ellipse fill="lightgray" stroke="black" cx="816.8" cy="-882" rx="37.89" ry="18"/>
<text text-anchor="middle" x="816.8" y="-878.3" font-family="Times,serif" font-size="14.00">CDK1</text>
</g>
<!-- CDKN1A&#45;&gt;CDK1 -->
<g id="edge136" class="edge">
<title>CDKN1A&#45;&gt;CDK1</title>
<path fill="none" stroke="red" d="M816.8,-935.7C816.8,-926.46 816.8,-914.98 816.8,-905.11"/>
<polygon fill="red" stroke="red" points="811.8,-901.1 821.8,-901.1 821.8,-903.1 811.8,-903.1 811.8,-901.1"/>
<polyline fill="none" stroke="red" points="816.8,-900.1 816.8,-905.1 "/>
</g>
<!-- CDKN1A&#45;&gt;RAC1 -->
<g id="edge137" class="edge">
<title>CDKN1A&#45;&gt;RAC1</title>
<path fill="none" stroke="green" d="M785.91,-968.55C741.33,-988.64 664.8,-1031.22 664.8,-1097 664.8,-1171 664.8,-1171 664.8,-1171 664.8,-1249.2 677.14,-1280.28 735.8,-1332 903.82,-1480.14 998.9,-1433.32 1218.8,-1476 1405.15,-1512.17 1631.11,-1523.93 1727.16,-1527.52"/>
<polygon fill="green" stroke="green" points="1727.28,-1531.03 1737.4,-1527.89 1727.54,-1524.03 1727.28,-1531.03"/>
</g>
<!-- MAP4K4&#45;&gt;MAP3K1 -->
<g id="edge20" class="edge">
<title>MAP4K4&#45;&gt;MAP3K1</title>
<path fill="none" stroke="green" d="M1729.12,-752.64C1687.1,-773.65 1616.8,-818.2 1616.8,-881 1616.8,-1171 1616.8,-1171 1616.8,-1171 1616.8,-1212.37 1632.03,-1258.28 1643.21,-1286.39"/>
<polygon fill="green" stroke="green" points="1640.08,-1287.98 1647.11,-1295.91 1646.55,-1285.33 1640.08,-1287.98"/>
</g>
<!-- MAP3K7 -->
<g id="node30" class="node">
<title>MAP3K7</title>
<ellipse fill="lightgray" stroke="black" cx="1733.8" cy="-1242" rx="51.19" ry="18"/>
<text text-anchor="middle" x="1733.8" y="-1238.3" font-family="Times,serif" font-size="14.00">MAP3K7</text>
</g>
<!-- MAP4K4&#45;&gt;MAP3K7 -->
<g id="edge35" class="edge">
<title>MAP4K4&#45;&gt;MAP3K7</title>
<path fill="none" stroke="green" d="M1768.09,-756.03C1780.07,-782.23 1800.8,-834.3 1800.8,-881 1800.8,-1099 1800.8,-1099 1800.8,-1099 1800.8,-1139.97 1795.44,-1151.52 1776.8,-1188 1771.57,-1198.23 1764.13,-1208.32 1756.9,-1216.9"/>
<polygon fill="green" stroke="green" points="1754.09,-1214.8 1750.12,-1224.63 1759.35,-1219.42 1754.09,-1214.8"/>
</g>
<!-- MAP3K3 -->
<g id="node38" class="node">
<title>MAP3K3</title>
<ellipse fill="lightgray" stroke="black" cx="1759.8" cy="-666" rx="51.19" ry="18"/>
<text text-anchor="middle" x="1759.8" y="-662.3" font-family="Times,serif" font-size="14.00">MAP3K3</text>
</g>
<!-- MAP4K4&#45;&gt;MAP3K3 -->
<g id="edge46" class="edge">
<title>MAP4K4&#45;&gt;MAP3K3</title>
<path fill="none" stroke="green" d="M1759.8,-719.7C1759.8,-711.98 1759.8,-702.71 1759.8,-694.11"/>
<polygon fill="green" stroke="green" points="1763.3,-694.1 1759.8,-684.1 1756.3,-694.1 1763.3,-694.1"/>
</g>
<!-- MAP3K1&#45;&gt;MAP3K7 -->
<g id="edge142" class="edge">
<title>MAP3K1&#45;&gt;MAP3K7</title>
<path fill="none" stroke="green" d="M1672.72,-1297.12C1683.15,-1287.87 1696.48,-1276.07 1708.02,-1265.84"/>
<polygon fill="green" stroke="green" points="1710.51,-1268.32 1715.67,-1259.06 1705.86,-1263.08 1710.51,-1268.32"/>
</g>
<!-- PPP1R12A -->
<g id="node20" class="node">
<title>PPP1R12A</title>
<ellipse fill="lightgray" stroke="black" cx="638.8" cy="-234" rx="60.39" ry="18"/>
<text text-anchor="middle" x="638.8" y="-230.3" font-family="Times,serif" font-size="14.00">PPP1R12A</text>
</g>
<!-- PLK1 -->
<g id="node21" class="node">
<title>PLK1</title>
<ellipse fill="lightgray" stroke="black" cx="726.8" cy="-162" rx="36" ry="18"/>
<text text-anchor="middle" x="726.8" y="-158.3" font-family="Times,serif" font-size="14.00">PLK1</text>
</g>
<!-- PPP1R12A&#45;&gt;PLK1 -->
<g id="edge23" class="edge">
<title>PPP1R12A&#45;&gt;PLK1</title>
<path fill="none" stroke="red" d="M659.21,-216.76C672.64,-206.08 690.25,-192.07 704.12,-181.04"/>
<polygon fill="red" stroke="red" points="704.4,-174.43 710.63,-182.25 709.06,-183.5 702.84,-175.67 704.4,-174.43"/>
<polyline fill="none" stroke="red" points="708.3,-177.72 704.38,-180.83 "/>
</g>
<!-- PLK1&#45;&gt;DVL2 -->
<g id="edge96" class="edge">
<title>PLK1&#45;&gt;DVL2</title>
<path fill="none" stroke="green" d="M760.6,-155.82C787.43,-151.92 825.93,-146.78 859.8,-144 1404.57,-99.22 2068.82,-92.27 2248.27,-91.19"/>
<polygon fill="green" stroke="green" points="2248.43,-94.69 2258.41,-91.14 2248.39,-87.69 2248.43,-94.69"/>
</g>
<!-- PLK1&#45;&gt;TP53 -->
<g id="edge117" class="edge">
<title>PLK1&#45;&gt;TP53</title>
<path fill="none" stroke="red" d="M737.27,-179.39C767.84,-228.83 854.8,-381.73 854.8,-521 854.8,-667 854.8,-667 854.8,-667 854.8,-721.09 890.54,-729.69 937.8,-756 1010.79,-796.65 1110.31,-806.43 1164.9,-808.59"/>
<polygon fill="red" stroke="red" points="1169.22,-803.75 1168.86,-813.74 1166.86,-813.67 1167.22,-803.67 1169.22,-803.75"/>
<polyline fill="none" stroke="red" points="1170.04,-808.78 1165.04,-808.6 "/>
</g>
<!-- MDM2 -->
<g id="node23" class="node">
<title>MDM2</title>
<ellipse fill="lightgray" stroke="black" cx="836.8" cy="-90" rx="42.49" ry="18"/>
<text text-anchor="middle" x="836.8" y="-86.3" font-family="Times,serif" font-size="14.00">MDM2</text>
</g>
<!-- PLK1&#45;&gt;MDM2 -->
<g id="edge145" class="edge">
<title>PLK1&#45;&gt;MDM2</title>
<path fill="none" stroke="green" d="M748.01,-147.5C764.32,-137.12 787.1,-122.63 805.5,-110.91"/>
<polygon fill="green" stroke="green" points="807.58,-113.74 814.14,-105.42 803.82,-107.84 807.58,-113.74"/>
</g>
<!-- PLK1&#45;&gt;MYC -->
<g id="edge146" class="edge">
<title>PLK1&#45;&gt;MYC</title>
<path fill="none" stroke="green" d="M760.99,-167.75C865.22,-182.48 1187.98,-229.88 1451.8,-288 1692.27,-340.98 1753.35,-353.66 1986.8,-432 1989.21,-432.81 1991.69,-433.69 1994.17,-434.6"/>
<polygon fill="green" stroke="green" points="1993.07,-437.93 2003.66,-438.25 1995.58,-431.4 1993.07,-437.93"/>
</g>
<!-- PRKACA -->
<g id="node34" class="node">
<title>PRKACA</title>
<ellipse fill="lightgray" stroke="black" cx="726.8" cy="-90" rx="50.09" ry="18"/>
<text text-anchor="middle" x="726.8" y="-86.3" font-family="Times,serif" font-size="14.00">PRKACA</text>
</g>
<!-- PLK1&#45;&gt;PRKACA -->
<g id="edge148" class="edge">
<title>PLK1&#45;&gt;PRKACA</title>
<path fill="none" stroke="green" d="M726.8,-143.7C726.8,-135.98 726.8,-126.71 726.8,-118.11"/>
<polygon fill="green" stroke="green" points="730.3,-118.1 726.8,-108.1 723.3,-118.1 730.3,-118.1"/>
</g>
<!-- PLK1&#45;&gt;VIM -->
<g id="edge73" class="edge">
<title>PLK1&#45;&gt;VIM</title>
<path fill="none" stroke="green" d="M695.53,-153.26C597.38,-128.98 295.68,-54.35 189.91,-28.18"/>
<polygon fill="green" stroke="green" points="190.56,-24.74 180.01,-25.73 188.87,-31.53 190.56,-24.74"/>
</g>
<!-- IFNG&#45;&gt;CDKN1A -->
<g id="edge133" class="edge">
<title>IFNG&#45;&gt;CDKN1A</title>
<path fill="none" stroke="green" d="M1487.31,-465.18C1390.7,-535.47 963.19,-846.49 846.38,-931.48"/>
<polygon fill="green" stroke="green" points="844.23,-928.71 838.2,-937.43 848.35,-934.37 844.23,-928.71"/>
</g>
<!-- IFNG&#45;&gt;MAP3K1 -->
<g id="edge140" class="edge">
<title>IFNG&#45;&gt;MAP3K1</title>
<path fill="none" stroke="green" d="M1506.55,-468.04C1507.07,-501.38 1513.36,-575.2 1556.8,-612 1646.81,-688.26 1742.24,-559.1 1819.8,-648 1910.46,-751.91 1762.8,-815.1 1762.8,-953 1762.8,-1099 1762.8,-1099 1762.8,-1099 1762.8,-1167.2 1701.26,-1161.58 1673.8,-1224 1665.11,-1243.73 1660.29,-1267.72 1657.68,-1285.81"/>
<polygon fill="green" stroke="green" points="1654.18,-1285.6 1656.35,-1295.97 1661.12,-1286.5 1654.18,-1285.6"/>
</g>
<!-- MDM2&#45;&gt;NOTCH1 -->
<g id="edge25" class="edge">
<title>MDM2&#45;&gt;NOTCH1</title>
<path fill="none" stroke="green" d="M879.07,-91.35C1005.53,-92.87 1379.08,-100.98 1491.8,-144 1584.62,-179.43 1601.32,-209.95 1662.8,-288 1666.45,-292.64 1748.3,-435.95 1782.24,-495.47"/>
<polygon fill="green" stroke="green" points="1779.27,-497.32 1787.26,-504.27 1785.35,-493.85 1779.27,-497.32"/>
</g>
<!-- MDM2&#45;&gt;EGFR -->
<g id="edge88" class="edge">
<title>MDM2&#45;&gt;EGFR</title>
<path fill="none" stroke="red" d="M876.33,-96.35C923.71,-103.56 1004.94,-118.55 1070.8,-144 1131.41,-167.43 1534.94,-384.99 1579.8,-432 1641.68,-496.85 1598.89,-558.47 1670.8,-612 1743.59,-666.2 1799.49,-593.15 1871.8,-648 1906.8,-674.55 1914.8,-693.07 1914.8,-737 1914.8,-811 1914.8,-811 1914.8,-811 1914.8,-840.2 1850.42,-1303.17 1845.8,-1332 1844.17,-1342.14 1842.1,-1353.32 1840.27,-1362.79"/>
<polygon fill="red" stroke="red" points="1844.38,-1367.83 1834.56,-1365.92 1834.95,-1363.95 1844.76,-1365.87 1844.38,-1367.83"/>
<polyline fill="none" stroke="red" points="1839.28,-1367.86 1840.24,-1362.95 "/>
</g>
<!-- MDM2&#45;&gt;TP53 -->
<g id="edge118" class="edge">
<title>MDM2&#45;&gt;TP53</title>
<path fill="none" stroke="purple" d="M877.64,-95C949.92,-104.58 1092.8,-135.8 1092.8,-233 1092.8,-379 1092.8,-379 1092.8,-379 1092.8,-535.14 1162.81,-713.17 1192.12,-780.88"/>
<polygon fill="purple" stroke="purple" points="1192.27,-781.22 1198.35,-785.11 1197.1,-792.21 1191.02,-788.32 1192.27,-781.22"/>
</g>
<!-- MDM2&#45;&gt;CDKN1A -->
<g id="edge134" class="edge">
<title>MDM2&#45;&gt;CDKN1A</title>
<path fill="none" stroke="red" d="M805.46,-102.26C799.01,-104.35 792.22,-106.38 785.8,-108 610.55,-152.26 398.8,-52.25 398.8,-233 398.8,-451 398.8,-451 398.8,-451 398.8,-566.63 563.05,-839.83 661.8,-900 694.99,-920.23 736.93,-933.96 768.81,-942.37"/>
<polygon fill="red" stroke="red" points="774.12,-938.59 771.61,-948.27 769.67,-947.77 772.19,-938.09 774.12,-938.59"/>
<polyline fill="none" stroke="red" points="773.83,-943.68 768.99,-942.42 "/>
</g>
<!-- LCK&#45;&gt;PTK2 -->
<g id="edge65" class="edge">
<title>LCK&#45;&gt;PTK2</title>
<path fill="none" stroke="green" d="M1903.05,-308.55C2061.12,-316.98 2787.28,-359.44 2852.8,-432 2930.41,-517.96 2865.8,-837.19 2865.8,-953 2865.8,-1459 2865.8,-1459 2865.8,-1459 2865.8,-1505.37 2833.9,-1551.26 2811.44,-1577.82"/>
<polygon fill="green" stroke="green" points="2808.74,-1575.59 2804.81,-1585.43 2814.02,-1580.19 2808.74,-1575.59"/>
</g>
<!-- LCK&#45;&gt;NOTCH1 -->
<g id="edge27" class="edge">
<title>LCK&#45;&gt;NOTCH1</title>
<path fill="none" stroke="green" d="M1866.78,-323.94C1853.62,-361 1822.16,-449.57 1806.3,-494.25"/>
<polygon fill="green" stroke="green" points="1802.94,-493.25 1802.89,-503.85 1809.53,-495.6 1802.94,-493.25"/>
</g>
<!-- LCK&#45;&gt;EGFR -->
<g id="edge89" class="edge">
<title>LCK&#45;&gt;EGFR</title>
<path fill="none" stroke="green" d="M1872.29,-324.33C1872.06,-354.83 1874.53,-419.45 1896.8,-468 1945,-573.12 2066.8,-549.35 2066.8,-665 2066.8,-955 2066.8,-955 2066.8,-955 2066.8,-1043.69 1993.54,-1264.68 1935.8,-1332 1920.23,-1350.15 1896.86,-1363.03 1876.62,-1371.54"/>
<polygon fill="green" stroke="green" points="1875.28,-1368.3 1867.29,-1375.25 1877.87,-1374.81 1875.28,-1368.3"/>
</g>
<!-- LCK&#45;&gt;RHOA -->
<g id="edge102" class="edge">
<title>LCK&#45;&gt;RHOA</title>
<path fill="none" stroke="green" d="M1863,-288.8C1839.94,-241.65 1784.85,-104.11 1765.31,-45.72"/>
<polygon fill="green" stroke="green" points="1768.61,-44.53 1762.19,-36.09 1761.95,-46.68 1768.61,-44.53"/>
</g>
<!-- LCK&#45;&gt;MYC -->
<g id="edge155" class="edge">
<title>LCK&#45;&gt;MYC</title>
<path fill="none" stroke="green" d="M1889.05,-321.79C1916.71,-346.97 1973.04,-398.25 2005.1,-427.43"/>
<polygon fill="green" stroke="green" points="2002.94,-430.2 2012.69,-434.34 2007.65,-425.02 2002.94,-430.2"/>
</g>
<!-- LCK&#45;&gt;ABL1 -->
<g id="edge156" class="edge">
<title>LCK&#45;&gt;ABL1</title>
<path fill="none" stroke="green" d="M1842.61,-302.92C1697.81,-292.97 1074.35,-250.1 900.16,-238.12"/>
<polygon fill="green" stroke="green" points="900.27,-234.62 890.05,-237.42 899.79,-241.6 900.27,-234.62"/>
</g>
<!-- MYC&#45;&gt;CDH1 -->
<g id="edge69" class="edge">
<title>MYC&#45;&gt;CDH1</title>
<path fill="none" stroke="green" d="M2051.04,-463.18C2069.51,-473.52 2096.31,-489.02 2118.8,-504 2140.99,-518.79 2142.95,-528.06 2166.8,-540 2217.73,-565.5 2247.71,-537.62 2289.8,-576 2419.63,-694.39 2408.8,-777.3 2408.8,-953 2408.8,-1099 2408.8,-1099 2408.8,-1099 2408.8,-1228 2346.27,-1373.31 2318.65,-1431.2"/>
<polygon fill="green" stroke="green" points="2315.43,-1429.83 2314.23,-1440.35 2321.73,-1432.87 2315.43,-1429.83"/>
</g>
<!-- MYC&#45;&gt;PTK2B -->
<g id="edge29" class="edge">
<title>MYC&#45;&gt;PTK2B</title>
<path fill="none" stroke="red" d="M2043.99,-433.81C2054.25,-423.55 2067.89,-409.9 2079,-398.8"/>
<polygon fill="red" stroke="red" points="2078.42,-392.31 2085.49,-399.38 2084.08,-400.79 2077.01,-393.72 2078.42,-392.31"/>
<polyline fill="none" stroke="red" points="2082.66,-395.13 2079.13,-398.67 "/>
</g>
<!-- MYC&#45;&gt;CDKN1A -->
<g id="edge135" class="edge">
<title>MYC&#45;&gt;CDKN1A</title>
<path fill="none" stroke="red" d="M2006.73,-463.35C1974.47,-481.21 1912.35,-514.84 1857.8,-540 1741.56,-593.61 1706.95,-594.19 1590.8,-648 1434.58,-720.37 1405.6,-759.17 1247.8,-828 1159.67,-866.44 1136.08,-873.03 1043.8,-900 983.08,-917.74 911.88,-933.58 865.64,-943.22"/>
<polygon fill="red" stroke="red" points="862.68,-948.94 860.65,-939.15 862.61,-938.74 864.64,-948.53 862.68,-948.94"/>
<polyline fill="none" stroke="red" points="860.68,-944.25 865.58,-943.23 "/>
</g>
<!-- MYC&#45;&gt;ITGB1 -->
<g id="edge157" class="edge">
<title>MYC&#45;&gt;ITGB1</title>
<path fill="none" stroke="red" d="M2011.57,-465.51C1988.81,-484.25 1947,-517.15 1907.8,-540 1857.09,-569.55 1716.81,-617.29 1666.8,-648 1449.28,-781.59 1445.63,-879.08 1250.8,-1044 1234.78,-1057.56 1215.2,-1070.71 1199.54,-1080.53"/>
<polygon fill="red" stroke="red" points="1198.73,-1086.92 1193.45,-1078.43 1195.15,-1077.37 1200.43,-1085.86 1198.73,-1086.92"/>
<polyline fill="none" stroke="red" points="1195.24,-1083.2 1199.48,-1080.56 "/>
</g>
<!-- MYC&#45;&gt;SNAI1 -->
<g id="edge159" class="edge">
<title>MYC&#45;&gt;SNAI1</title>
<path fill="none" stroke="green" d="M2004.28,-437.86C1998.63,-435.64 1992.58,-433.52 1986.8,-432 1861.86,-399.12 1709.64,-386.19 1632.24,-381.48"/>
<polygon fill="green" stroke="green" points="1632.01,-377.96 1621.82,-380.86 1631.6,-384.95 1632.01,-377.96"/>
</g>
<!-- ITGB1&#45;&gt;PTK2 -->
<g id="edge30" class="edge">
<title>ITGB1&#45;&gt;PTK2</title>
<path fill="none" stroke="green" d="M1209.82,-1104.42C1307.82,-1118.87 1576.53,-1161.5 1793.8,-1224 2179.54,-1334.96 2627.31,-1528.84 2754.5,-1585.21"/>
<polygon fill="green" stroke="green" points="2753.23,-1588.47 2763.79,-1589.33 2756.07,-1582.08 2753.23,-1588.47"/>
</g>
<!-- ITGB1&#45;&gt;PTK2B -->
<g id="edge81" class="edge">
<title>ITGB1&#45;&gt;PTK2B</title>
<path fill="none" stroke="green" d="M1179.06,-1080.26C1223.79,-977.23 1459.94,-433.33 1461.8,-432 1508.84,-398.32 1901.91,-384.34 2046.07,-380.32"/>
<polygon fill="green" stroke="green" points="2046.51,-383.81 2056.41,-380.03 2046.32,-376.81 2046.51,-383.81"/>
</g>
<!-- ITGB1&#45;&gt;EGFR -->
<g id="edge90" class="edge">
<title>ITGB1&#45;&gt;EGFR</title>
<path fill="none" stroke="green" d="M1187.21,-1114.77C1230.31,-1157.8 1357.54,-1277.63 1488.8,-1332 1589.34,-1373.65 1718.47,-1382.98 1787.37,-1384.82"/>
<polygon fill="green" stroke="green" points="1787.42,-1388.32 1797.5,-1385.04 1787.58,-1381.32 1787.42,-1388.32"/>
</g>
<!-- ITGB1&#45;&gt;RHOA -->
<g id="edge104" class="edge">
<title>ITGB1&#45;&gt;RHOA</title>
<path fill="none" stroke="green" d="M1164.78,-1079.91C1145.51,-1013.58 1101.59,-767.3 1154.8,-576 1234,-291.2 1338.26,-228.89 1588.8,-72 1626.59,-48.33 1676.06,-34.11 1712,-26.45"/>
<polygon fill="green" stroke="green" points="1713.12,-29.79 1722.22,-24.37 1711.73,-22.93 1713.12,-29.79"/>
</g>
<!-- ITGB1&#45;&gt;RAC1 -->
<g id="edge160" class="edge">
<title>ITGB1&#45;&gt;RAC1</title>
<path fill="none" stroke="green" d="M1177.51,-1116.05C1180.8,-1142.71 1180.8,-1195.89 1180.8,-1241 1180.8,-1387 1180.8,-1387 1180.8,-1387 1180.8,-1499.9 1586.94,-1523.13 1727.05,-1527.83"/>
<polygon fill="green" stroke="green" points="1727.34,-1531.34 1737.44,-1528.16 1727.56,-1524.35 1727.34,-1531.34"/>
</g>
<!-- ITGB1&#45;&gt;PRKACA -->
<g id="edge163" class="edge">
<title>ITGB1&#45;&gt;PRKACA</title>
<path fill="none" stroke="green" d="M1133.17,-1092.4C1076.05,-1084.58 966.6,-1067.26 875.8,-1044 611.4,-976.26 342.8,-1011.93 342.8,-739 342.8,-739 342.8,-739 342.8,-665 342.8,-432.29 213.6,-290.01 394.8,-144 435.26,-111.4 582.74,-98.33 666.97,-93.52"/>
<polygon fill="green" stroke="green" points="667.38,-97.01 677.17,-92.96 666.99,-90.02 667.38,-97.01"/>
</g>
<!-- ITGB1&#45;&gt;FOXO3 -->
<g id="edge165" class="edge">
<title>ITGB1&#45;&gt;FOXO3</title>
<path fill="none" stroke="green" d="M1139.26,-1087.27C1098.31,-1075.02 1027.81,-1053.93 982,-1040.22"/>
<polygon fill="green" stroke="green" points="982.92,-1036.85 972.34,-1037.33 980.92,-1043.55 982.92,-1036.85"/>
</g>
<!-- CDK1&#45;&gt;EGFR -->
<g id="edge91" class="edge">
<title>CDK1&#45;&gt;EGFR</title>
<path fill="none" stroke="red" d="M844.94,-894.02C912.45,-921.02 1087.87,-994.55 1220.8,-1080 1239.32,-1091.91 1506.77,-1322.83 1526.8,-1332 1615.12,-1372.44 1730.49,-1382.26 1792.26,-1384.49"/>
<polygon fill="red" stroke="red" points="1796.5,-1379.63 1796.17,-1389.62 1794.17,-1389.56 1794.51,-1379.56 1796.5,-1379.63"/>
<polyline fill="none" stroke="red" points="1797.34,-1384.66 1792.34,-1384.49 "/>
</g>
<!-- CDK1&#45;&gt;TP53 -->
<g id="edge119" class="edge">
<title>CDK1&#45;&gt;TP53</title>
<path fill="none" stroke="green" d="M851.57,-874.73C922.95,-861.85 1085.78,-832.47 1162.86,-818.57"/>
<polygon fill="green" stroke="green" points="1163.49,-822.01 1172.71,-816.79 1162.24,-815.12 1163.49,-822.01"/>
</g>
<!-- CDK1&#45;&gt;CTNNB1 -->
<g id="edge125" class="edge">
<title>CDK1&#45;&gt;CTNNB1</title>
<path fill="none" stroke="green" d="M846.18,-870.41C950.92,-833.14 1316.45,-707.07 1628.8,-648 1807.61,-614.19 2022.83,-601.52 2126.7,-597.13"/>
<polygon fill="green" stroke="green" points="2127.16,-600.61 2137.01,-596.7 2126.87,-593.62 2127.16,-600.61"/>
</g>
<!-- CDK1&#45;&gt;PLK1 -->
<g id="edge147" class="edge">
<title>CDK1&#45;&gt;PLK1</title>
<path fill="none" stroke="green" d="M809.29,-864.34C798.22,-838.2 778.8,-785.7 778.8,-739 778.8,-739 778.8,-739 778.8,-593 778.8,-439.54 745.75,-257.48 732.35,-189.95"/>
<polygon fill="green" stroke="green" points="735.77,-189.23 730.37,-180.11 728.91,-190.61 735.77,-189.23"/>
</g>
<!-- LATS1 -->
<g id="node28" class="node">
<title>LATS1</title>
<ellipse fill="lightyellow" stroke="black" cx="816.8" cy="-18" rx="40.09" ry="18"/>
<text text-anchor="middle" x="816.8" y="-14.3" font-family="Times,serif" font-size="14.00">LATS1</text>
</g>
<!-- CDK1&#45;&gt;LATS1 -->
<g id="edge31" class="edge">
<title>CDK1&#45;&gt;LATS1</title>
<path fill="none" stroke="green" d="M801.42,-865.35C770.31,-831.95 702.8,-749.93 702.8,-667 702.8,-667 702.8,-667 702.8,-521 702.8,-369.34 498.76,-358.81 549.8,-216 577.64,-138.08 600.12,-119.61 667.8,-72 698.8,-50.19 739.7,-36.49 770.8,-28.5"/>
<polygon fill="green" stroke="green" points="771.66,-31.89 780.53,-26.1 769.98,-25.09 771.66,-31.89"/>
</g>
<!-- CDK1&#45;&gt;ABL1 -->
<g id="edge166" class="edge">
<title>CDK1&#45;&gt;ABL1</title>
<path fill="none" stroke="green" d="M816.8,-863.95C816.8,-837.29 816.8,-784.11 816.8,-739 816.8,-739 816.8,-739 816.8,-521 816.8,-424.9 838.14,-312.21 848.84,-261.77"/>
<polygon fill="green" stroke="green" points="852.26,-262.49 850.94,-251.98 845.42,-261.02 852.26,-262.49"/>
</g>
<!-- CDK1&#45;&gt;VIM -->
<g id="edge47" class="edge">
<title>CDK1&#45;&gt;VIM</title>
<path fill="none" stroke="purple" d="M792.69,-868.08C720.79,-827.62 512.8,-695.66 512.8,-523 512.8,-523 512.8,-523 512.8,-449 512.8,-257.7 272.15,-345.84 176.8,-180 153.17,-138.91 150.2,-82.55 150.96,-48.56"/>
<polygon fill="purple" stroke="purple" points="150.97,-48.3 147.2,-42.15 151.42,-36.3 155.19,-42.45 150.97,-48.3"/>
</g>
<!-- LATS1&#45;&gt;YAP1 -->
<g id="edge38" class="edge">
<title>LATS1&#45;&gt;YAP1</title>
<path fill="none" stroke="purple" d="M855.84,-22.61C920.99,-30.99 1050.3,-58.12 1106.8,-144 1134.52,-186.14 1032.45,-534.04 1001.46,-636.63"/>
<polygon fill="purple" stroke="purple" points="1001.45,-636.66 1003.54,-643.57 997.97,-648.15 995.88,-641.24 1001.45,-636.66"/>
</g>
<!-- RAC1&#45;&gt;CDH1 -->
<g id="edge34" class="edge">
<title>RAC1&#45;&gt;CDH1</title>
<path fill="none" stroke="red" d="M1809,-1525.08C1883.02,-1517.31 2059.38,-1498.73 2206.8,-1476 2225.9,-1473.05 2247.16,-1469.07 2265.18,-1465.7"/>
<polygon fill="red" stroke="red" points="2268.27,-1460.04 2270.11,-1469.87 2268.14,-1470.24 2266.3,-1460.41 2268.27,-1460.04"/>
<polyline fill="none" stroke="red" points="2270.17,-1464.77 2265.26,-1465.69 "/>
</g>
<!-- RAC1&#45;&gt;RHOA -->
<g id="edge105" class="edge">
<title>RAC1&#45;&gt;RHOA</title>
<path fill="none" stroke="purple" d="M1810.3,-1528.16C1952.97,-1524.63 2468.32,-1509.66 2532.8,-1476 2567.73,-1457.76 2713.8,-1210.41 2713.8,-1171 2713.8,-1171 2713.8,-1171 2713.8,-1025 2713.8,-928.48 2750.8,-907.52 2750.8,-811 2750.8,-811 2750.8,-811 2750.8,-593 2750.8,-338.98 2749.94,-170.52 2515.8,-72 2388.07,-18.26 1959.08,-17.05 1810.2,-18.33"/>
<polygon fill="purple" stroke="purple" points="1809.91,-18.33 1803.95,-22.39 1797.91,-18.45 1803.88,-14.39 1809.91,-18.33"/>
</g>
<!-- RAC1&#45;&gt;TP53 -->
<g id="edge121" class="edge">
<title>RAC1&#45;&gt;TP53</title>
<path fill="none" stroke="green" d="M1745.66,-1518.34C1687.35,-1492.88 1552.86,-1423.78 1469.8,-1332 1324.6,-1171.58 1232.16,-920.15 1209.61,-837.97"/>
<polygon fill="green" stroke="green" points="1212.97,-836.95 1207.05,-828.16 1206.19,-838.72 1212.97,-836.95"/>
</g>
<!-- RAC1&#45;&gt;CTNNB1 -->
<g id="edge126" class="edge">
<title>RAC1&#45;&gt;CTNNB1</title>
<path fill="none" stroke="purple" d="M1800.04,-1517.26C1857.62,-1490.6 1997.33,-1420.83 2090.8,-1332 2263.64,-1167.75 2218.8,-1049.44 2218.8,-811 2218.8,-811 2218.8,-811 2218.8,-737 2218.8,-697.05 2207.29,-652.12 2198.53,-623.7"/>
<polygon fill="purple" stroke="purple" points="2198.52,-623.67 2192.88,-619.17 2194.87,-612.24 2200.5,-616.74 2198.52,-623.67"/>
</g>
<!-- RAC1&#45;&gt;CDKN1A -->
<g id="edge138" class="edge">
<title>RAC1&#45;&gt;CDKN1A</title>
<path fill="none" stroke="green" d="M1737.44,-1528.18C1646.06,-1525.5 1400.65,-1514.79 1200.8,-1476 980.9,-1433.32 885.82,-1480.14 717.8,-1332 659.14,-1280.28 646.8,-1249.2 646.8,-1171 646.8,-1171 646.8,-1171 646.8,-1097 646.8,-1033.1 719.01,-991.1 769.42,-970.33"/>
<polygon fill="green" stroke="green" points="770.86,-973.52 778.86,-966.57 768.28,-967.01 770.86,-973.52"/>
</g>
<!-- RAC1&#45;&gt;MAP3K1 -->
<g id="edge141" class="edge">
<title>RAC1&#45;&gt;MAP3K1</title>
<path fill="none" stroke="green" d="M1764.66,-1512.56C1744.03,-1475.47 1693.73,-1385.02 1669,-1340.54"/>
<polygon fill="green" stroke="green" points="1672.05,-1338.83 1664.13,-1331.79 1665.93,-1342.23 1672.05,-1338.83"/>
</g>
<!-- RAC1&#45;&gt;MYC -->
<g id="edge158" class="edge">
<title>RAC1&#45;&gt;MYC</title>
<path fill="none" stroke="green" d="M1805.07,-1520.68C1836.83,-1511.67 1887,-1495.88 1927.8,-1476 1980.66,-1450.24 1991.91,-1439.49 2038.8,-1404 2113.85,-1347.18 2332.8,-1193.14 2332.8,-1099 2332.8,-1099 2332.8,-1099 2332.8,-809 2332.8,-699.07 2330.35,-650.8 2249.8,-576 2205.55,-534.91 2169.56,-572.69 2118.8,-540 2101.29,-528.72 2103.31,-518.94 2088.8,-504 2077.89,-492.77 2064.96,-481.16 2053.9,-471.68"/>
<polygon fill="green" stroke="green" points="2056.13,-468.98 2046.24,-465.19 2051.61,-474.32 2056.13,-468.98"/>
</g>
<!-- RAC1&#45;&gt;ITGB1 -->
<g id="edge161" class="edge">
<title>RAC1&#45;&gt;ITGB1</title>
<path fill="none" stroke="green" d="M1737.25,-1528.35C1605.37,-1525 1162.8,-1504.85 1162.8,-1387 1162.8,-1387 1162.8,-1387 1162.8,-1241 1162.8,-1201 1162.8,-1154.65 1165.09,-1126.08"/>
<polygon fill="green" stroke="green" points="1168.58,-1126.35 1166.08,-1116.05 1161.61,-1125.65 1168.58,-1126.35"/>
</g>
<!-- RAC1&#45;&gt;PAK1 -->
<g id="edge167" class="edge">
<title>RAC1&#45;&gt;PAK1</title>
<path fill="none" stroke="green" d="M1737.85,-1527.12C1674.73,-1523 1540.45,-1510.63 1432.8,-1476 1378.87,-1458.65 1321.14,-1426.56 1287.04,-1406.02"/>
<polygon fill="green" stroke="green" points="1288.43,-1402.77 1278.07,-1400.55 1284.79,-1408.75 1288.43,-1402.77"/>
</g>
<!-- MAP3K7&#45;&gt;RAP1A -->
<g id="edge36" class="edge">
<title>MAP3K7&#45;&gt;RAP1A</title>
<path fill="none" stroke="green" d="M1778.15,-1232.76C1849.54,-1219.51 1989.33,-1193.55 2062.91,-1179.89"/>
<polygon fill="green" stroke="green" points="2063.64,-1183.32 2072.84,-1178.05 2062.36,-1176.43 2063.64,-1183.32"/>
</g>
<!-- RAP1A&#45;&gt;CDH1 -->
<g id="edge37" class="edge">
<title>RAP1A&#45;&gt;CDH1</title>
<path fill="none" stroke="green" d="M2125.26,-1187.3C2162,-1234.9 2257.05,-1373.95 2292.5,-1431.55"/>
<polygon fill="green" stroke="green" points="2289.67,-1433.64 2297.85,-1440.39 2295.66,-1430.02 2289.67,-1433.64"/>
</g>
<!-- RAP1A&#45;&gt;RHOA -->
<g id="edge106" class="edge">
<title>RAP1A&#45;&gt;RHOA</title>
<path fill="none" stroke="red" d="M2123.37,-1152.59C2179.4,-1078.47 2407.5,-765.55 2498.8,-468 2529.3,-368.6 2519.8,-338.98 2519.8,-235 2519.8,-235 2519.8,-235 2519.8,-161 2519.8,-102.82 2477.07,-95.38 2423.8,-72 2312,-22.94 1933.32,-18.74 1803.16,-18.79"/>
<polygon fill="red" stroke="red" points="1798.9,-23.79 1798.89,-13.79 1800.89,-13.79 1800.9,-23.79 1798.9,-23.79"/>
<polyline fill="none" stroke="red" points="1797.9,-18.79 1802.9,-18.79 "/>
</g>
<!-- RAP1A&#45;&gt;CTNNB1 -->
<g id="edge127" class="edge">
<title>RAP1A&#45;&gt;CTNNB1</title>
<path fill="none" stroke="green" d="M2114.04,-1151.81C2122.18,-1108.13 2142.8,-993.6 2142.8,-955 2142.8,-955 2142.8,-955 2142.8,-737 2142.8,-694.81 2161.4,-648.85 2174.95,-620.98"/>
<polygon fill="green" stroke="green" points="2178.14,-622.42 2179.49,-611.91 2171.88,-619.29 2178.14,-622.42"/>
</g>
<!-- RAP1A&#45;&gt;ITGB1 -->
<g id="edge162" class="edge">
<title>RAP1A&#45;&gt;ITGB1</title>
<path fill="none" stroke="green" d="M2069.54,-1165.92C1917.32,-1154.58 1387.43,-1115.08 1221.72,-1102.72"/>
<polygon fill="green" stroke="green" points="1221.58,-1099.2 1211.34,-1101.95 1221.06,-1106.18 1221.58,-1099.2"/>
</g>
<!-- YAP1&#45;&gt;CTNNB1 -->
<g id="edge39" class="edge">
<title>YAP1&#45;&gt;CTNNB1</title>
<path fill="none" stroke="green" d="M1026.98,-663C1192.64,-653.3 1912.69,-611.16 2127.86,-598.57"/>
<polygon fill="green" stroke="green" points="2128.24,-602.05 2138.02,-597.97 2127.83,-595.06 2128.24,-602.05"/>
</g>
<!-- PRKACA&#45;&gt;SRC -->
<g id="edge59" class="edge">
<title>PRKACA&#45;&gt;SRC</title>
<path fill="none" stroke="green" d="M677.27,-92.87C584.12,-97.16 386.97,-110.06 328.8,-144 216.7,-209.4 152.8,-247.22 152.8,-377 152.8,-667 152.8,-667 152.8,-667 152.8,-829.66 228.8,-862.34 228.8,-1025 228.8,-1099 228.8,-1099 228.8,-1099 228.8,-1406.72 392.96,-1522.43 684.8,-1620 785.56,-1653.69 1547.2,-1669.05 1733.01,-1672.32"/>
<polygon fill="green" stroke="green" points="1733.11,-1675.82 1743.17,-1672.5 1733.23,-1668.82 1733.11,-1675.82"/>
</g>
<!-- PRKACA&#45;&gt;RHOA -->
<g id="edge107" class="edge">
<title>PRKACA&#45;&gt;RHOA</title>
<path fill="none" stroke="purple" d="M762.69,-77.26C770.25,-75.18 778.23,-73.28 785.8,-72 965.81,-41.57 1533.92,-24.78 1707.75,-20.26"/>
<polygon fill="purple" stroke="purple" points="1707.82,-20.26 1713.71,-16.1 1719.81,-19.95 1713.92,-24.1 1707.82,-20.26"/>
</g>
<!-- PRKACA&#45;&gt;LATS2 -->
<g id="edge77" class="edge">
<title>PRKACA&#45;&gt;LATS2</title>
<path fill="none" stroke="green" d="M764.15,-102.16C771.31,-104.18 778.77,-106.22 785.8,-108 858.13,-126.34 897.18,-91.08 949.8,-144 978.32,-172.68 968.8,-192.55 968.8,-233 968.8,-307 968.8,-307 968.8,-307 968.8,-403.6 930.8,-424.4 930.8,-521 930.8,-595 930.8,-595 930.8,-595 930.8,-635.45 933.68,-646.9 949.8,-684 954.16,-694.03 960.56,-704.11 966.82,-712.75"/>
<polygon fill="green" stroke="green" points="964.13,-714.99 972.96,-720.84 969.71,-710.76 964.13,-714.99"/>
</g>
<!-- PRKACA&#45;&gt;CTNNB1 -->
<g id="edge129" class="edge">
<title>PRKACA&#45;&gt;CTNNB1</title>
<path fill="none" stroke="green" d="M762.37,-102.67C770.03,-104.78 778.12,-106.72 785.8,-108 1095.68,-159.84 1181.83,-92.67 1491.8,-144 1722.47,-182.2 1776.73,-211.84 1997.8,-288 2078.09,-315.66 2115.21,-299.49 2174.8,-360 2231.92,-418.01 2223.41,-459.91 2208.8,-540 2207.19,-548.8 2204.2,-558.05 2201.01,-566.3"/>
<polygon fill="green" stroke="green" points="2197.68,-565.21 2197.1,-575.79 2204.15,-567.88 2197.68,-565.21"/>
</g>
<!-- PRKACA&#45;&gt;ITGB1 -->
<g id="edge164" class="edge">
<title>PRKACA&#45;&gt;ITGB1</title>
<path fill="none" stroke="green" d="M677.61,-93.57C599.73,-98.42 453.12,-111.51 412.8,-144 231.6,-290.01 360.8,-432.29 360.8,-665 360.8,-739 360.8,-739 360.8,-739 360.8,-1011.93 629.4,-976.26 893.8,-1044 973.97,-1064.54 1068.67,-1080.44 1124.38,-1089.27"/>
<polygon fill="green" stroke="green" points="1123.9,-1092.73 1134.32,-1090.83 1124.99,-1085.82 1123.9,-1092.73"/>
</g>
<!-- PRKACA&#45;&gt;LATS1 -->
<g id="edge41" class="edge">
<title>PRKACA&#45;&gt;LATS1</title>
<path fill="none" stroke="green" d="M746.77,-73.46C759.29,-63.72 775.61,-51.04 789.34,-40.36"/>
<polygon fill="green" stroke="green" points="791.75,-42.91 797.5,-34.01 787.45,-37.39 791.75,-42.91"/>
</g>
<!-- PRKACA&#45;&gt;RAP1A -->
<g id="edge169" class="edge">
<title>PRKACA&#45;&gt;RAP1A</title>
<path fill="none" stroke="purple" d="M763.8,-102.22C771.06,-104.26 778.64,-106.29 785.8,-108 868.54,-127.8 890.98,-124.55 973.8,-144 1093.43,-172.1 1489.46,-226.35 1630.8,-360 1698.09,-423.63 1667.4,-477.55 1735.8,-540 1746.26,-549.55 1957.65,-637.18 1966.8,-648 1983.35,-667.59 2076.64,-1033.66 2103.54,-1140.16"/>
<polygon fill="purple" stroke="purple" points="2103.55,-1140.19 2108.89,-1145.03 2106.48,-1151.82 2101.13,-1146.98 2103.55,-1140.19"/>
</g>
<!-- PRKACA&#45;&gt;VASP -->
<g id="edge171" class="edge">
<title>PRKACA&#45;&gt;VASP</title>
<path fill="none" stroke="green" d="M762.35,-77.18C770.01,-75.08 778.11,-73.19 785.8,-72 885.45,-56.58 2450.47,-25.52 2739.94,-19.89"/>
<polygon fill="green" stroke="green" points="2740.15,-23.38 2750.08,-19.69 2740.02,-16.38 2740.15,-23.38"/>
</g>
<!-- PRKACA&#45;&gt;VIM -->
<g id="edge74" class="edge">
<title>PRKACA&#45;&gt;VIM</title>
<path fill="none" stroke="red" d="M680.31,-83.33C568.22,-69.66 285.08,-35.13 186.93,-23.16"/>
<polygon fill="red" stroke="red" points="182.22,-27.63 183.43,-17.7 185.42,-17.94 184.21,-27.87 182.22,-27.63"/>
<polyline fill="none" stroke="red" points="181.84,-22.54 186.8,-23.15 "/>
</g>
<!-- SNAI1&#45;&gt;CDH1 -->
<g id="edge43" class="edge">
<title>SNAI1&#45;&gt;CDH1</title>
<path fill="none" stroke="red" d="M1621.53,-381.29C1722.4,-387.43 1986.31,-405.58 2069.8,-432 2259.08,-491.89 2359.91,-477.01 2460.8,-648 2513.51,-737.35 2446.8,-777.26 2446.8,-881 2446.8,-1099 2446.8,-1099 2446.8,-1099 2446.8,-1138.19 2398.08,-1329.83 2352.8,-1404 2345.33,-1416.23 2334.92,-1428.31 2325.8,-1437.84"/>
<polygon fill="red" stroke="red" points="2326.52,-1444.26 2319.35,-1437.29 2320.75,-1435.86 2327.92,-1442.83 2326.52,-1444.26"/>
<polyline fill="none" stroke="red" points="2322.24,-1441.49 2325.73,-1437.91 "/>
</g>
<!-- PAK1&#45;&gt;RHOA -->
<g id="edge108" class="edge">
<title>PAK1&#45;&gt;RHOA</title>
<path fill="none" stroke="red" d="M1256.8,-1367.95C1256.8,-1341.29 1256.8,-1288.11 1256.8,-1243 1256.8,-1243 1256.8,-1243 1256.8,-1169 1256.8,-1111.97 1273.81,-1099.76 1285.8,-1044 1344.29,-771.96 1281.43,-674.55 1417.8,-432 1513.22,-262.28 1680.7,-93.88 1738.5,-38.2"/>
<polygon fill="red" stroke="red" points="1737.96,-31.78 1744.89,-38.99 1743.45,-40.38 1736.52,-33.17 1737.96,-31.78"/>
<polyline fill="none" stroke="red" points="1742.15,-34.7 1738.54,-38.16 "/>
</g>
<!-- PAK1&#45;&gt;CTNNB1 -->
<g id="edge130" class="edge">
<title>PAK1&#45;&gt;CTNNB1</title>
<path fill="none" stroke="green" d="M1283.53,-1374.17C1303.02,-1365.2 1329.01,-1350.87 1346.8,-1332 1451.21,-1221.19 1502.8,-1179.26 1502.8,-1027 1502.8,-1027 1502.8,-1027 1502.8,-881 1502.8,-847.1 1669.86,-663.91 1699.8,-648 1772.36,-609.44 2012.16,-598.9 2126.76,-596.05"/>
<polygon fill="green" stroke="green" points="2126.87,-599.55 2136.78,-595.81 2126.7,-592.55 2126.87,-599.55"/>
</g>
<!-- PAK1&#45;&gt;MAP3K1 -->
<g id="edge143" class="edge">
<title>PAK1&#45;&gt;MAP3K1</title>
<path fill="none" stroke="green" d="M1289.37,-1379.27C1357.52,-1367.29 1515.78,-1339.45 1599.92,-1324.65"/>
<polygon fill="green" stroke="green" points="1600.56,-1328.09 1609.8,-1322.91 1599.35,-1321.2 1600.56,-1328.09"/>
</g>
<!-- PAK1&#45;&gt;PLK1 -->
<g id="edge149" class="edge">
<title>PAK1&#45;&gt;PLK1</title>
<path fill="none" stroke="green" d="M1223.95,-1379.02C1088.96,-1352.48 574.72,-1231.65 375.8,-900 251.89,-693.4 313.23,-574.55 422.8,-360 457.45,-292.15 453.87,-260.37 515.8,-216 564.93,-180.79 635.09,-168.89 680.79,-164.92"/>
<polygon fill="green" stroke="green" points="681.3,-168.39 691,-164.13 680.76,-161.41 681.3,-168.39"/>
</g>
<!-- PAK1&#45;&gt;PRKACA -->
<g id="edge48" class="edge">
<title>PAK1&#45;&gt;PRKACA</title>
<path fill="none" stroke="green" d="M1222.25,-1382.33C1161.21,-1376.99 1030.74,-1362.77 924.8,-1332 642.09,-1249.89 530.08,-1218.27 368.8,-972 184.31,-690.3 193.27,-528.46 318.8,-216 332.86,-180.98 332.2,-164.64 363.8,-144 412.64,-112.1 577.46,-98.71 667.26,-93.68"/>
<polygon fill="green" stroke="green" points="667.5,-97.17 677.3,-93.14 667.12,-90.18 667.5,-97.17"/>
</g>
<!-- PAK1&#45;&gt;SNAI1 -->
<g id="edge172" class="edge">
<title>PAK1&#45;&gt;SNAI1</title>
<path fill="none" stroke="green" d="M1271.81,-1369.43C1293.96,-1344.74 1332.8,-1294.17 1332.8,-1243 1332.8,-1243 1332.8,-1243 1332.8,-1169 1332.8,-1105.33 1373.31,-1100.43 1402.8,-1044 1419.27,-1012.46 1429.1,-1006.5 1437.8,-972 1496.49,-739.28 1306.21,-629.35 1442.8,-432 1448.67,-423.51 1501.47,-404.94 1540.26,-392.2"/>
<polygon fill="green" stroke="green" points="1541.36,-395.52 1549.78,-389.1 1539.19,-388.87 1541.36,-395.52"/>
</g>
<!-- PAK1&#45;&gt;ABL1 -->
<g id="edge44" class="edge">
<title>PAK1&#45;&gt;ABL1</title>
<path fill="none" stroke="green" d="M1230.62,-1373.91C1132.64,-1330.76 786.88,-1163.33 661.8,-900 654.93,-885.55 661.71,-880 661.8,-864 662.46,-744.44 664.8,-714.56 664.8,-595 664.8,-595 664.8,-595 664.8,-521 664.8,-404.44 775.65,-299.08 828.01,-255.82"/>
<polygon fill="green" stroke="green" points="830.33,-258.44 835.88,-249.42 825.92,-253.01 830.33,-258.44"/>
</g>
<!-- PAK1&#45;&gt;MAP3K3 -->
<g id="edge173" class="edge">
<title>PAK1&#45;&gt;MAP3K3</title>
<path fill="none" stroke="green" d="M1287.53,-1377.16C1315,-1369.07 1355.34,-1354.45 1384.8,-1332 1505.9,-1239.71 1540.8,-1179.26 1540.8,-1027 1540.8,-1027 1540.8,-1027 1540.8,-881 1540.8,-855.86 1681.53,-737.28 1699.8,-720 1710.58,-709.8 1722.81,-698.89 1733.4,-689.63"/>
<polygon fill="green" stroke="green" points="1735.87,-692.12 1741.12,-682.92 1731.28,-686.84 1735.87,-692.12"/>
</g>
<!-- PAK1&#45;&gt;VIM -->
<g id="edge75" class="edge">
<title>PAK1&#45;&gt;VIM</title>
<path fill="none" stroke="green" d="M1222.14,-1382.68C1046.92,-1370.03 266.8,-1302.28 266.8,-1099 266.8,-1099 266.8,-1099 266.8,-1025 266.8,-779.96 38.8,-768.04 38.8,-523 38.8,-523 38.8,-523 38.8,-161 38.8,-120.03 37.97,-104.59 62.8,-72 76.8,-53.61 99.17,-40.4 118.11,-31.76"/>
<polygon fill="green" stroke="green" points="119.56,-34.95 127.35,-27.77 116.78,-28.52 119.56,-34.95"/>
</g>
<!-- ABL1&#45;&gt;CDH2 -->
<g id="edge45" class="edge">
<title>ABL1&#45;&gt;CDH2</title>
<path fill="none" stroke="green" d="M890.36,-231.36C1091.82,-222.04 2088.97,-175.94 2320.65,-165.23"/>
<polygon fill="green" stroke="green" points="2320.96,-168.72 2330.79,-164.76 2320.63,-161.72 2320.96,-168.72"/>
</g>
<!-- ABL1&#45;&gt;EGFR -->
<g id="edge93" class="edge">
<title>ABL1&#45;&gt;EGFR</title>
<path fill="none" stroke="green" d="M886.12,-243.06C1018.35,-277.21 1525.31,-409.16 1551.8,-432 1618.23,-489.3 1563.39,-558.35 1632.8,-612 1708.41,-670.45 1771.51,-586.66 1844.8,-648 1877.03,-674.98 1876.8,-694.97 1876.8,-737 1876.8,-811 1876.8,-811 1876.8,-811 1876.8,-907.6 1838.8,-928.4 1838.8,-1025 1838.8,-1099 1838.8,-1099 1838.8,-1099 1838.8,-1194.07 1837.12,-1306.9 1836.27,-1357.75"/>
<polygon fill="green" stroke="green" points="1832.77,-1357.86 1836.1,-1367.92 1839.77,-1357.98 1832.77,-1357.86"/>
</g>
<!-- ABL1&#45;&gt;CTNNB1 -->
<g id="edge131" class="edge">
<title>ABL1&#45;&gt;CTNNB1</title>
<path fill="none" stroke="purple" d="M890.48,-235.62C1051.3,-238.57 1709.76,-252.63 1912.8,-288 1939.91,-292.72 2131.63,-339.32 2149.8,-360 2200.38,-417.58 2197.9,-515.25 2192.87,-563.8"/>
<polygon fill="purple" stroke="purple" points="2192.85,-563.93 2196.13,-570.35 2191.46,-575.85 2188.18,-569.42 2192.85,-563.93"/>
</g>
<!-- ABL1&#45;&gt;MAP3K1 -->
<g id="edge144" class="edge">
<title>ABL1&#45;&gt;MAP3K1</title>
<path fill="none" stroke="green" d="M876.86,-248.36C998.2,-322.6 1578.8,-687.91 1578.8,-881 1578.8,-1171 1578.8,-1171 1578.8,-1171 1578.8,-1216.87 1610,-1262.25 1632.42,-1288.95"/>
<polygon fill="green" stroke="green" points="1629.86,-1291.34 1639.05,-1296.61 1635.15,-1286.76 1629.86,-1291.34"/>
</g>
<!-- ABL1&#45;&gt;PLK1 -->
<g id="edge150" class="edge">
<title>ABL1&#45;&gt;PLK1</title>
<path fill="none" stroke="green" d="M831.32,-220.16C811.02,-209.06 781.48,-192.91 758.98,-180.6"/>
<polygon fill="green" stroke="green" points="760.58,-177.49 750.13,-175.76 757.22,-183.63 760.58,-177.49"/>
</g>
<!-- ABL1&#45;&gt;MDM2 -->
<g id="edge153" class="edge">
<title>ABL1&#45;&gt;MDM2</title>
<path fill="none" stroke="purple" d="M852.63,-215.87C849.63,-192.2 844.17,-149.16 840.51,-120.32"/>
<polygon fill="purple" stroke="purple" points="840.49,-120.09 835.76,-114.64 838.98,-108.19 843.7,-113.64 840.49,-120.09"/>
</g>
<!-- ABL1&#45;&gt;RAC1 -->
<g id="edge168" class="edge">
<title>ABL1&#45;&gt;RAC1</title>
<path fill="none" stroke="green" d="M827.15,-245.81C806.09,-254.95 777.16,-269.49 755.8,-288 699.28,-336.96 696.2,-362.43 668.8,-432 532.74,-777.46 353.72,-949.82 557.8,-1260 662.88,-1419.72 744.33,-1429.6 929.8,-1476 1082.77,-1514.27 1573.3,-1525.63 1727.17,-1528.3"/>
<polygon fill="green" stroke="green" points="1727.18,-1531.8 1737.23,-1528.47 1727.29,-1524.8 1727.18,-1531.8"/>
</g>
<!-- ABL1&#45;&gt;YAP1 -->
<g id="edge170" class="edge">
<title>ABL1&#45;&gt;YAP1</title>
<path fill="none" stroke="green" d="M860.32,-252.21C881.6,-318.5 958.36,-557.69 984.22,-638.28"/>
<polygon fill="green" stroke="green" points="981,-639.69 987.39,-648.14 987.66,-637.55 981,-639.69"/>
</g>
<!-- STK3 -->
<g id="node40" class="node">
<title>STK3</title>
<ellipse fill="lightgray" stroke="black" cx="904.8" cy="-162" rx="36" ry="18"/>
<text text-anchor="middle" x="904.8" y="-158.3" font-family="Times,serif" font-size="14.00">STK3</text>
</g>
<!-- ABL1&#45;&gt;STK3 -->
<g id="edge174" class="edge">
<title>ABL1&#45;&gt;STK3</title>
<path fill="none" stroke="green" d="M866.39,-216.76C872.64,-208.02 880.47,-197.05 887.43,-187.31"/>
<polygon fill="green" stroke="green" points="890.3,-189.32 893.26,-179.15 884.6,-185.25 890.3,-189.32"/>
</g>
<!-- STK3&#45;&gt;LATS2 -->
<g id="edge78" class="edge">
<title>STK3&#45;&gt;LATS2</title>
<path fill="none" stroke="green" d="M903.82,-180.13C900.95,-231.67 892.8,-389.78 892.8,-521 892.8,-595 892.8,-595 892.8,-595 892.8,-635.97 893.9,-650.03 916.8,-684 926,-697.66 939.91,-709.23 952.91,-718.04"/>
<polygon fill="green" stroke="green" points="951.39,-721.23 961.69,-723.69 955.18,-715.34 951.39,-721.23"/>
</g>
<!-- STK3&#45;&gt;LATS1 -->
<g id="edge50" class="edge">
<title>STK3&#45;&gt;LATS1</title>
<path fill="none" stroke="green" d="M905.11,-143.94C904.68,-124.99 901.65,-94.14 887.8,-72 878.9,-57.77 864.69,-46.05 851.31,-37.27"/>
<polygon fill="green" stroke="green" points="853.05,-34.23 842.7,-31.94 849.36,-40.18 853.05,-34.23"/>
</g>
<!-- FOXO3&#45;&gt;CDKN1A -->
<g id="edge139" class="edge">
<title>FOXO3&#45;&gt;CDKN1A</title>
<path fill="none" stroke="purple" d="M913.31,-1010.83C896.03,-1000.84 872.58,-987.27 853.12,-976.02"/>
<polygon fill="purple" stroke="purple" points="852.89,-975.88 845.69,-976.34 842.5,-969.87 849.7,-969.41 852.89,-975.88"/>
</g>
<!-- FOXO3&#45;&gt;PLK1 -->
<g id="edge151" class="edge">
<title>FOXO3&#45;&gt;PLK1</title>
<path fill="none" stroke="green" d="M898.71,-1017.54C834.19,-1003.65 703.79,-968.79 615.8,-900 474.86,-789.83 474.8,-701.89 474.8,-523 474.8,-523 474.8,-523 474.8,-449 474.8,-340.21 472.09,-292.13 549.8,-216 559.66,-206.34 636.29,-185.71 685.44,-173.23"/>
<polygon fill="green" stroke="green" points="686.33,-176.61 695.17,-170.77 684.62,-169.82 686.33,-176.61"/>
</g>
<!-- ATM -->
<g id="node42" class="node">
<title>ATM</title>
<ellipse fill="lightgray" stroke="black" cx="702.8" cy="-882" rx="31.7" ry="18"/>
<text text-anchor="middle" x="702.8" y="-878.3" font-family="Times,serif" font-size="14.00">ATM</text>
</g>
<!-- FOXO3&#45;&gt;ATM -->
<g id="edge52" class="edge">
<title>FOXO3&#45;&gt;ATM</title>
<path fill="none" stroke="green" d="M930.66,-1007.99C921.38,-987.89 903.29,-954.81 877.8,-936 866.62,-927.75 788.91,-906 740.87,-893.07"/>
<polygon fill="green" stroke="green" points="741.67,-889.66 731.11,-890.46 739.86,-896.42 741.67,-889.66"/>
</g>
<!-- ATM&#45;&gt;TP53 -->
<g id="edge122" class="edge">
<title>ATM&#45;&gt;TP53</title>
<path fill="none" stroke="purple" d="M730.66,-873.09C742.63,-869.91 756.82,-866.43 769.8,-864 910.53,-837.68 1079.41,-821.42 1159.02,-814.65"/>
<polygon fill="purple" stroke="purple" points="1159.05,-814.64 1164.7,-810.16 1171.01,-813.64 1165.36,-818.13 1159.05,-814.64"/>
</g>
<!-- ATM&#45;&gt;PLK1 -->
<g id="edge152" class="edge">
<title>ATM&#45;&gt;PLK1</title>
<path fill="none" stroke="red" d="M695.09,-864.33C675.77,-820.95 626.8,-700.58 626.8,-595 626.8,-595 626.8,-595 626.8,-449 626.8,-342.39 507.63,-302.6 569.8,-216 596.02,-179.47 648.75,-167.79 685.85,-164.23"/>
<polygon fill="red" stroke="red" points="689.77,-158.87 690.64,-168.83 688.65,-169.01 687.78,-159.05 689.77,-158.87"/>
<polyline fill="none" stroke="red" points="691.2,-163.77 686.22,-164.2 "/>
</g>
<!-- ATM&#45;&gt;MDM2 -->
<g id="edge154" class="edge">
<title>ATM&#45;&gt;MDM2</title>
<path fill="none" stroke="purple" d="M675.74,-871.99C655.28,-863.76 628.17,-849.55 612.8,-828 532.47,-715.38 550.8,-661.33 550.8,-523 550.8,-523 550.8,-523 550.8,-449 550.8,-345.44 496.94,-305.05 549.8,-216 583.91,-158.54 620.63,-170.91 681.8,-144 687.13,-141.65 749.22,-120.57 793.17,-105.71"/>
<polygon fill="purple" stroke="purple" points="793.38,-105.65 797.78,-99.94 804.75,-101.8 800.34,-107.51 793.38,-105.65"/>
</g>
<!-- ATM&#45;&gt;ABL1 -->
<g id="edge175" class="edge">
<title>ATM&#45;&gt;ABL1</title>
<path fill="none" stroke="green" d="M707.92,-863.98C718.29,-827.99 740.8,-741.34 740.8,-667 740.8,-667 740.8,-667 740.8,-593 740.8,-462.9 810,-318.2 840.57,-260.64"/>
<polygon fill="green" stroke="green" points="843.81,-262 845.47,-251.54 837.65,-258.69 843.81,-262"/>
</g>
</g>
</svg>
