<?xml version="1.0" encoding="UTF-8" standalone="no"?>
<!DOCTYPE svg PUBLIC "-//W3C//DTD SVG 1.1//EN"
 "http://www.w3.org/Graphics/SVG/1.1/DTD/svg11.dtd">
<!-- Generated by graphviz version 2.43.0 (0)
 -->
<!-- Title: %3 Pages: 1 -->
<svg width="639pt" height="116pt"
 viewBox="0.00 0.00 639.04 116.00" xmlns="http://www.w3.org/2000/svg" xmlns:xlink="http://www.w3.org/1999/xlink">
<g id="graph0" class="graph" transform="scale(1 1) rotate(0) translate(4 112)">
<title>%3</title>
<polygon fill="white" stroke="transparent" points="-4,4 -4,-112 635.04,-112 635.04,4 -4,4"/>
<!-- SRC -->
<g id="node1" class="node">
<title>SRC</title>
<ellipse fill="lightyellow" stroke="black" cx="81.75" cy="-90" rx="30.59" ry="18"/>
<text text-anchor="middle" x="81.75" y="-86.3" font-family="Times,serif" font-size="14.00">SRC</text>
</g>
<!-- PTK2 -->
<g id="node2" class="node">
<title>PTK2</title>
<ellipse fill="lightyellow" stroke="black" cx="35.75" cy="-18" rx="36" ry="18"/>
<text text-anchor="middle" x="35.75" y="-14.3" font-family="Times,serif" font-size="14.00">PTK2</text>
</g>
<!-- SRC&#45;&gt;PTK2 -->
<g id="edge1" class="edge">
<title>SRC&#45;&gt;PTK2</title>
<path fill="none" stroke="green" d="M66.36,-74.15C59.67,-65.61 52.16,-54.64 46.12,-44.74"/>
<polygon fill="green" stroke="green" points="49.12,-42.92 41.06,-36.04 43.07,-46.44 49.12,-42.92"/>
</g>
<!-- CDH1 -->
<g id="node3" class="node">
<title>CDH1</title>
<ellipse fill="lightyellow" stroke="black" cx="127.75" cy="-18" rx="38.19" ry="18"/>
<text text-anchor="middle" x="127.75" y="-14.3" font-family="Times,serif" font-size="14.00">CDH1</text>
</g>
<!-- SRC&#45;&gt;CDH1 -->
<g id="edge3" class="edge">
<title>SRC&#45;&gt;CDH1</title>
<path fill="none" stroke="red" d="M92.42,-72.76C98.83,-63.01 107.05,-50.5 113.95,-40"/>
<polygon fill="red" stroke="red" points="112.09,-33.72 120.45,-39.22 119.35,-40.89 110.99,-35.39 112.09,-33.72"/>
<polyline fill="none" stroke="red" points="116.82,-35.63 114.07,-39.81 "/>
</g>
<!-- CDH2 -->
<g id="node4" class="node">
<title>CDH2</title>
<ellipse fill="lightyellow" stroke="black" cx="222.75" cy="-18" rx="38.19" ry="18"/>
<text text-anchor="middle" x="222.75" y="-14.3" font-family="Times,serif" font-size="14.00">CDH2</text>
</g>
<!-- SRC&#45;&gt;CDH2 -->
<g id="edge4" class="edge">
<title>SRC&#45;&gt;CDH2</title>
<path fill="none" stroke="red" d="M104.4,-77.75C128.29,-65.89 166.06,-47.14 192.49,-34.02"/>
<polygon fill="red" stroke="red" points="194.17,-27.61 198.61,-36.56 196.82,-37.45 192.38,-28.5 194.17,-27.61"/>
<polyline fill="none" stroke="red" points="197.29,-31.64 192.81,-33.86 "/>
</g>
<!-- PTK2&#45;&gt;SRC -->
<g id="edge2" class="edge">
<title>PTK2&#45;&gt;SRC</title>
<path fill="none" stroke="green" d="M51.54,-34.36C58.1,-42.8 65.41,-53.5 71.32,-63.18"/>
<polygon fill="green" stroke="green" points="68.43,-65.18 76.49,-72.05 74.48,-61.65 68.43,-65.18"/>
</g>
<!-- NOTCH1 -->
<g id="node5" class="node">
<title>NOTCH1</title>
<ellipse fill="lightyellow" stroke="black" cx="182.75" cy="-90" rx="51.99" ry="18"/>
<text text-anchor="middle" x="182.75" y="-86.3" font-family="Times,serif" font-size="14.00">NOTCH1</text>
</g>
<!-- VIM -->
<g id="node6" class="node">
<title>VIM</title>
<ellipse fill="lightyellow" stroke="black" cx="282.75" cy="-90" rx="29.8" ry="18"/>
<text text-anchor="middle" x="282.75" y="-86.3" font-family="Times,serif" font-size="14.00">VIM</text>
</g>
<!-- MAP4K4 -->
<g id="node7" class="node">
<title>MAP4K4</title>
<ellipse fill="lightyellow" stroke="black" cx="381.75" cy="-90" rx="51.19" ry="18"/>
<text text-anchor="middle" x="381.75" y="-86.3" font-family="Times,serif" font-size="14.00">MAP4K4</text>
</g>
<!-- LATS1 -->
<g id="node8" class="node">
<title>LATS1</title>
<ellipse fill="lightyellow" stroke="black" cx="491.75" cy="-90" rx="40.09" ry="18"/>
<text text-anchor="middle" x="491.75" y="-86.3" font-family="Times,serif" font-size="14.00">LATS1</text>
</g>
<!-- LATS2 -->
<g id="node9" class="node">
<title>LATS2</title>
<ellipse fill="lightyellow" stroke="black" cx="590.75" cy="-90" rx="40.09" ry="18"/>
<text text-anchor="middle" x="590.75" y="-86.3" font-family="Times,serif" font-size="14.00">LATS2</text>
</g>
</g>
</svg>
