<?xml version="1.0" encoding="UTF-8" standalone="no"?>
<!DOCTYPE svg PUBLIC "-//W3C//DTD SVG 1.1//EN"
 "http://www.w3.org/Graphics/SVG/1.1/DTD/svg11.dtd">
<!-- Generated by graphviz version 2.43.0 (0)
 -->
<!-- Title: %3 Pages: 1 -->
<svg width="863pt" height="188pt"
 viewBox="0.00 0.00 862.74 188.00" xmlns="http://www.w3.org/2000/svg" xmlns:xlink="http://www.w3.org/1999/xlink">
<g id="graph0" class="graph" transform="scale(1 1) rotate(0) translate(4 184)">
<title>%3</title>
<polygon fill="white" stroke="transparent" points="-4,4 -4,-184 858.74,-184 858.74,4 -4,4"/>
<!-- GSK3A -->
<g id="node1" class="node">
<title>GSK3A</title>
<ellipse fill="none" stroke="black" cx="43.55" cy="-162" rx="43.59" ry="18"/>
<text text-anchor="middle" x="43.55" y="-158.3" font-family="Times,serif" font-size="14.00">GSK3A</text>
</g>
<!-- MYC -->
<g id="node2" class="node">
<title>MYC</title>
<ellipse fill="lightgray" stroke="black" cx="406.55" cy="-90" rx="32.49" ry="18"/>
<text text-anchor="middle" x="406.55" y="-86.3" font-family="Times,serif" font-size="14.00">MYC</text>
</g>
<!-- GSK3A&#45;&gt;MYC -->
<g id="edge1" class="edge">
<title>GSK3A&#45;&gt;MYC</title>
<path fill="none" stroke="red" d="M75.85,-149.84C82.64,-147.72 89.79,-145.65 96.55,-144 194.11,-120.14 311.52,-103.2 369.88,-95.56"/>
<polygon fill="red" stroke="red" points="373.37,-90.07 374.66,-99.98 372.68,-100.24 371.38,-90.32 373.37,-90.07"/>
<polyline fill="none" stroke="red" points="375,-94.9 370.05,-95.54 "/>
</g>
<!-- CCND1 -->
<g id="node3" class="node">
<title>CCND1</title>
<ellipse fill="none" stroke="black" cx="406.55" cy="-18" rx="45.49" ry="18"/>
<text text-anchor="middle" x="406.55" y="-14.3" font-family="Times,serif" font-size="14.00">CCND1</text>
</g>
<!-- MYC&#45;&gt;CCND1 -->
<g id="edge2" class="edge">
<title>MYC&#45;&gt;CCND1</title>
<path fill="none" stroke="green" d="M406.55,-71.7C406.55,-63.98 406.55,-54.71 406.55,-46.11"/>
<polygon fill="green" stroke="green" points="410.05,-46.1 406.55,-36.1 403.05,-46.1 410.05,-46.1"/>
</g>
<!-- MAPK3 -->
<g id="node4" class="node">
<title>MAPK3</title>
<ellipse fill="none" stroke="black" cx="150.55" cy="-162" rx="45.49" ry="18"/>
<text text-anchor="middle" x="150.55" y="-158.3" font-family="Times,serif" font-size="14.00">MAPK3</text>
</g>
<!-- MAPK3&#45;&gt;MYC -->
<g id="edge3" class="edge">
<title>MAPK3&#45;&gt;MYC</title>
<path fill="none" stroke="green" d="M184.75,-149.96C191.3,-147.92 198.12,-145.85 204.55,-144 260.91,-127.74 326.71,-110.87 367.51,-100.65"/>
<polygon fill="green" stroke="green" points="368.47,-104.01 377.32,-98.2 366.77,-97.22 368.47,-104.01"/>
</g>
<!-- CTNNB1 -->
<g id="node5" class="node">
<title>CTNNB1</title>
<ellipse fill="none" stroke="black" cx="265.55" cy="-162" rx="51.99" ry="18"/>
<text text-anchor="middle" x="265.55" y="-158.3" font-family="Times,serif" font-size="14.00">CTNNB1</text>
</g>
<!-- CTNNB1&#45;&gt;MYC -->
<g id="edge4" class="edge">
<title>CTNNB1&#45;&gt;MYC</title>
<path fill="none" stroke="green" d="M294.08,-146.83C317.24,-135.34 349.9,-119.12 374.06,-107.13"/>
<polygon fill="green" stroke="green" points="375.79,-110.18 383.19,-102.6 372.68,-103.91 375.79,-110.18"/>
</g>
<!-- SIGNOR&#45;PF1 -->
<g id="node6" class="node">
<title>SIGNOR&#45;PF1</title>
<ellipse fill="none" stroke="black" cx="406.55" cy="-162" rx="71.49" ry="18"/>
<text text-anchor="middle" x="406.55" y="-158.3" font-family="Times,serif" font-size="14.00">SIGNOR&#45;PF1</text>
</g>
<!-- SIGNOR&#45;PF1&#45;&gt;MYC -->
<g id="edge5" class="edge">
<title>SIGNOR&#45;PF1&#45;&gt;MYC</title>
<path fill="none" stroke="green" d="M406.55,-143.7C406.55,-135.98 406.55,-126.71 406.55,-118.11"/>
<polygon fill="green" stroke="green" points="410.05,-118.1 406.55,-108.1 403.05,-118.1 410.05,-118.1"/>
</g>
<!-- SIGNOR&#45;PF4 -->
<g id="node7" class="node">
<title>SIGNOR&#45;PF4</title>
<ellipse fill="none" stroke="black" cx="567.55" cy="-162" rx="71.49" ry="18"/>
<text text-anchor="middle" x="567.55" y="-158.3" font-family="Times,serif" font-size="14.00">SIGNOR&#45;PF4</text>
</g>
<!-- SIGNOR&#45;PF4&#45;&gt;MYC -->
<g id="edge6" class="edge">
<title>SIGNOR&#45;PF4&#45;&gt;MYC</title>
<path fill="none" stroke="green" d="M533.4,-146.15C506.15,-134.31 468.16,-117.79 440.86,-105.92"/>
<polygon fill="green" stroke="green" points="442.26,-102.71 431.69,-101.93 439.47,-109.13 442.26,-102.71"/>
</g>
<!-- MAPK1 -->
<g id="node8" class="node">
<title>MAPK1</title>
<ellipse fill="none" stroke="black" cx="702.55" cy="-162" rx="45.49" ry="18"/>
<text text-anchor="middle" x="702.55" y="-158.3" font-family="Times,serif" font-size="14.00">MAPK1</text>
</g>
<!-- MAPK1&#45;&gt;MYC -->
<g id="edge7" class="edge">
<title>MAPK1&#45;&gt;MYC</title>
<path fill="none" stroke="green" d="M668.35,-149.95C661.49,-147.87 654.31,-145.79 647.55,-144 577.51,-125.51 494.85,-108.32 446.8,-98.78"/>
<polygon fill="green" stroke="green" points="447.29,-95.31 436.8,-96.81 445.93,-102.18 447.29,-95.31"/>
</g>
<!-- GSK3B -->
<g id="node9" class="node">
<title>GSK3B</title>
<ellipse fill="none" stroke="black" cx="810.55" cy="-162" rx="44.39" ry="18"/>
<text text-anchor="middle" x="810.55" y="-158.3" font-family="Times,serif" font-size="14.00">GSK3B</text>
</g>
<!-- GSK3B&#45;&gt;MYC -->
<g id="edge8" class="edge">
<title>GSK3B&#45;&gt;MYC</title>
<path fill="none" stroke="red" d="M777.93,-149.84C770.93,-147.7 763.54,-145.62 756.55,-144 643.86,-117.9 507.69,-101.53 443.47,-94.69"/>
<polygon fill="red" stroke="red" points="438.7,-99.21 439.75,-89.27 441.74,-89.48 440.69,-99.42 438.7,-99.21"/>
<polyline fill="none" stroke="red" points="438.23,-94.14 443.2,-94.66 "/>
</g>
</g>
</svg>
