<?xml version="1.0" encoding="UTF-8" standalone="no"?>
<!DOCTYPE svg PUBLIC "-//W3C//DTD SVG 1.1//EN"
 "http://www.w3.org/Graphics/SVG/1.1/DTD/svg11.dtd">
<!-- Generated by graphviz version 2.43.0 (0)
 -->
<!-- Title: %3 Pages: 1 -->
<svg width="2510pt" height="1844pt"
 viewBox="0.00 0.00 2510.00 1844.00" xmlns="http://www.w3.org/2000/svg" xmlns:xlink="http://www.w3.org/1999/xlink">
<g id="graph0" class="graph" transform="scale(1 1) rotate(0) translate(4 1840)">
<title>%3</title>
<polygon fill="white" stroke="transparent" points="-4,4 -4,-1840 2506,-1840 2506,4 -4,4"/>
<!-- NOTCH1 -->
<g id="node1" class="node">
<title>NOTCH1</title>
<ellipse fill="lightgray" stroke="black" cx="266" cy="-1818" rx="51.99" ry="18"/>
<text text-anchor="middle" x="266" y="-1814.3" font-family="Times,serif" font-size="14.00">NOTCH1</text>
</g>
<!-- FLT4 -->
<g id="node2" class="node">
<title>FLT4</title>
<ellipse fill="lightgray" stroke="black" cx="1533" cy="-1746" rx="34.39" ry="18"/>
<text text-anchor="middle" x="1533" y="-1742.3" font-family="Times,serif" font-size="14.00">FLT4</text>
</g>
<!-- NOTCH1&#45;&gt;FLT4 -->
<g id="edge1" class="edge">
<title>NOTCH1&#45;&gt;FLT4</title>
<path fill="none" stroke="green" d="M316.84,-1814.19C523.08,-1802.8 1295.44,-1760.12 1488.87,-1749.44"/>
<polygon fill="green" stroke="green" points="1489.15,-1752.93 1498.95,-1748.88 1488.77,-1745.94 1489.15,-1752.93"/>
</g>
<!-- TP53 -->
<g id="node17" class="node">
<title>TP53</title>
<ellipse fill="lightgray" stroke="black" cx="811" cy="-378" rx="34.39" ry="18"/>
<text text-anchor="middle" x="811" y="-374.3" font-family="Times,serif" font-size="14.00">TP53</text>
</g>
<!-- NOTCH1&#45;&gt;TP53 -->
<g id="edge35" class="edge">
<title>NOTCH1&#45;&gt;TP53</title>
<path fill="none" stroke="red" d="M279.68,-1800.25C299.01,-1774.82 332,-1724.21 332,-1675 332,-1675 332,-1675 332,-1169 332,-954.89 477.78,-944.13 580,-756 622.52,-677.76 623.83,-653.32 668,-576 706.03,-509.42 716.02,-492.59 763,-432 772.13,-420.22 783.26,-407.83 792.5,-398"/>
<polygon fill="red" stroke="red" points="791.75,-391.51 799.01,-398.39 797.64,-399.84 790.37,-392.97 791.75,-391.51"/>
<polyline fill="none" stroke="red" points="796.07,-394.22 792.63,-397.86 "/>
</g>
<!-- FOS -->
<g id="node22" class="node">
<title>FOS</title>
<ellipse fill="lightgray" stroke="black" cx="114" cy="-18" rx="30.59" ry="18"/>
<text text-anchor="middle" x="114" y="-14.3" font-family="Times,serif" font-size="14.00">FOS</text>
</g>
<!-- NOTCH1&#45;&gt;FOS -->
<g id="edge46" class="edge">
<title>NOTCH1&#45;&gt;FOS</title>
<path fill="none" stroke="red" d="M216.28,-1812.68C139.29,-1802.96 0,-1771.98 0,-1675 0,-1675 0,-1675 0,-161 0,-104.42 55.71,-57.55 89.24,-34.47"/>
<polygon fill="red" stroke="red" points="89.99,-27.92 95.6,-36.2 93.94,-37.32 88.33,-29.05 89.99,-27.92"/>
<polyline fill="none" stroke="red" points="93.62,-31.5 89.48,-34.31 "/>
</g>
<!-- PTK2 -->
<g id="node3" class="node">
<title>PTK2</title>
<ellipse fill="lightgray" stroke="black" cx="1533" cy="-1674" rx="36" ry="18"/>
<text text-anchor="middle" x="1533" y="-1670.3" font-family="Times,serif" font-size="14.00">PTK2</text>
</g>
<!-- FLT4&#45;&gt;PTK2 -->
<g id="edge2" class="edge">
<title>FLT4&#45;&gt;PTK2</title>
<path fill="none" stroke="green" d="M1533,-1727.7C1533,-1719.98 1533,-1710.71 1533,-1702.11"/>
<polygon fill="green" stroke="green" points="1536.5,-1702.1 1533,-1692.1 1529.5,-1702.1 1536.5,-1702.1"/>
</g>
<!-- PRKCA -->
<g id="node11" class="node">
<title>PRKCA</title>
<ellipse fill="lightgray" stroke="black" cx="848" cy="-1170" rx="43.59" ry="18"/>
<text text-anchor="middle" x="848" y="-1166.3" font-family="Times,serif" font-size="14.00">PRKCA</text>
</g>
<!-- FLT4&#45;&gt;PRKCA -->
<g id="edge17" class="edge">
<title>FLT4&#45;&gt;PRKCA</title>
<path fill="none" stroke="green" d="M1498.69,-1744.05C1317.91,-1738.62 484,-1707.87 484,-1603 484,-1603 484,-1603 484,-1529 484,-1348.4 714.58,-1228.5 808.7,-1187.08"/>
<polygon fill="green" stroke="green" points="810.12,-1190.28 817.9,-1183.09 807.34,-1183.86 810.12,-1190.28"/>
</g>
<!-- SRC -->
<g id="node29" class="node">
<title>SRC</title>
<ellipse fill="lightgray" stroke="black" cx="1687" cy="-90" rx="30.59" ry="18"/>
<text text-anchor="middle" x="1687" y="-86.3" font-family="Times,serif" font-size="14.00">SRC</text>
</g>
<!-- FLT4&#45;&gt;SRC -->
<g id="edge119" class="edge">
<title>FLT4&#45;&gt;SRC</title>
<path fill="none" stroke="green" d="M1567.36,-1743.85C1693.72,-1739.59 2131.38,-1723.39 2268,-1692 2369.19,-1668.75 2484,-1706.83 2484,-1603 2484,-1603 2484,-1603 2484,-737 2484,-388.8 2291.56,-282.3 1972,-144 1889.78,-108.41 1784.65,-96.72 1727.73,-92.88"/>
<polygon fill="green" stroke="green" points="1727.88,-89.38 1717.68,-92.25 1727.44,-96.37 1727.88,-89.38"/>
</g>
<!-- SHC1 -->
<g id="node32" class="node">
<title>SHC1</title>
<ellipse fill="lightgray" stroke="black" cx="1891" cy="-1098" rx="37.89" ry="18"/>
<text text-anchor="middle" x="1891" y="-1094.3" font-family="Times,serif" font-size="14.00">SHC1</text>
</g>
<!-- FLT4&#45;&gt;SHC1 -->
<g id="edge121" class="edge">
<title>FLT4&#45;&gt;SHC1</title>
<path fill="none" stroke="green" d="M1567,-1742.01C1710.33,-1728.94 2258,-1674.34 2258,-1603 2258,-1603 2258,-1603 2258,-1529 2258,-1432.4 2220,-1411.6 2220,-1315 2220,-1315 2220,-1315 2220,-1241 2220,-1120 2030.08,-1100.89 1938.83,-1098.7"/>
<polygon fill="green" stroke="green" points="1938.8,-1095.2 1928.74,-1098.51 1938.68,-1102.2 1938.8,-1095.2"/>
</g>
<!-- GRB2 -->
<g id="node33" class="node">
<title>GRB2</title>
<ellipse fill="lightgray" stroke="black" cx="2023" cy="-882" rx="37.89" ry="18"/>
<text text-anchor="middle" x="2023" y="-878.3" font-family="Times,serif" font-size="14.00">GRB2</text>
</g>
<!-- FLT4&#45;&gt;GRB2 -->
<g id="edge122" class="edge">
<title>FLT4&#45;&gt;GRB2</title>
<path fill="none" stroke="green" d="M1567.12,-1743.37C1732.87,-1735 2446,-1693.73 2446,-1603 2446,-1603 2446,-1603 2446,-1457 2446,-1358.69 2390,-1341.31 2390,-1243 2390,-1243 2390,-1243 2390,-1097 2390,-950.26 2168.33,-902.35 2069.54,-888.28"/>
<polygon fill="green" stroke="green" points="2069.91,-884.8 2059.53,-886.91 2068.96,-891.74 2069.91,-884.8"/>
</g>
<!-- PLCG1 -->
<g id="node34" class="node">
<title>PLCG1</title>
<ellipse fill="lightgray" stroke="black" cx="1023" cy="-810" rx="42.79" ry="18"/>
<text text-anchor="middle" x="1023" y="-806.3" font-family="Times,serif" font-size="14.00">PLCG1</text>
</g>
<!-- FLT4&#45;&gt;PLCG1 -->
<g id="edge123" class="edge">
<title>FLT4&#45;&gt;PLCG1</title>
<path fill="none" stroke="green" d="M1498.47,-1744.35C1336.71,-1741.11 658.08,-1725.64 570,-1692 522.15,-1673.72 505.32,-1664.53 480,-1620 296.05,-1296.49 529.52,-1069.17 840,-864 880.02,-837.55 933.44,-824.06 972.22,-817.33"/>
<polygon fill="green" stroke="green" points="972.95,-820.76 982.25,-815.69 971.81,-813.85 972.95,-820.76"/>
</g>
<!-- BCAR1 -->
<g id="node35" class="node">
<title>BCAR1</title>
<ellipse fill="lightgray" stroke="black" cx="1376" cy="-1530" rx="43.59" ry="18"/>
<text text-anchor="middle" x="1376" y="-1526.3" font-family="Times,serif" font-size="14.00">BCAR1</text>
</g>
<!-- FLT4&#45;&gt;BCAR1 -->
<g id="edge124" class="edge">
<title>FLT4&#45;&gt;BCAR1</title>
<path fill="none" stroke="green" d="M1507.52,-1733.73C1470.53,-1715.77 1403.38,-1676.81 1376,-1620 1366.75,-1600.8 1367.46,-1576.46 1370.09,-1558.08"/>
<polygon fill="green" stroke="green" points="1373.58,-1558.48 1371.8,-1548.04 1366.68,-1557.31 1373.58,-1558.48"/>
</g>
<!-- EPHA2 -->
<g id="node6" class="node">
<title>EPHA2</title>
<ellipse fill="lightgray" stroke="black" cx="1450" cy="-1602" rx="44.39" ry="18"/>
<text text-anchor="middle" x="1450" y="-1598.3" font-family="Times,serif" font-size="14.00">EPHA2</text>
</g>
<!-- PTK2&#45;&gt;EPHA2 -->
<g id="edge7" class="edge">
<title>PTK2&#45;&gt;EPHA2</title>
<path fill="none" stroke="green" d="M1511.54,-1659.5C1499.02,-1650.05 1483.45,-1637.19 1471.02,-1626.12"/>
<polygon fill="green" stroke="green" points="1473.12,-1623.3 1463.37,-1619.16 1468.41,-1628.48 1473.12,-1623.3"/>
</g>
<!-- CDC42 -->
<g id="node7" class="node">
<title>CDC42</title>
<ellipse fill="lightgray" stroke="black" cx="456" cy="-738" rx="43.59" ry="18"/>
<text text-anchor="middle" x="456" y="-734.3" font-family="Times,serif" font-size="14.00">CDC42</text>
</g>
<!-- PTK2&#45;&gt;CDC42 -->
<g id="edge8" class="edge">
<title>PTK2&#45;&gt;CDC42</title>
<path fill="none" stroke="green" d="M1497.29,-1672.46C1334.75,-1669.78 669.05,-1656.67 584,-1620 357.07,-1522.15 256,-1418.13 256,-1171 256,-1171 256,-1171 256,-1025 256,-907.15 371.47,-803.27 426.93,-760.17"/>
<polygon fill="green" stroke="green" points="429.16,-762.88 434.97,-754.02 424.9,-757.32 429.16,-762.88"/>
</g>
<!-- PTK2&#45;&gt;PRKCA -->
<g id="edge16" class="edge">
<title>PTK2&#45;&gt;PRKCA</title>
<path fill="none" stroke="green" d="M1496.98,-1673.39C1361.48,-1674.55 883.99,-1674.92 745,-1620 686.83,-1597.02 636,-1593.54 636,-1531 636,-1531 636,-1531 636,-1457 636,-1394.79 765.32,-1249.69 822.1,-1193.65"/>
<polygon fill="green" stroke="green" points="824.57,-1196.14 829.29,-1186.66 819.68,-1191.12 824.57,-1196.14"/>
</g>
<!-- INSR -->
<g id="node12" class="node">
<title>INSR</title>
<ellipse fill="lightgray" stroke="black" cx="1549" cy="-1026" rx="35.19" ry="18"/>
<text text-anchor="middle" x="1549" y="-1022.3" font-family="Times,serif" font-size="14.00">INSR</text>
</g>
<!-- PTK2&#45;&gt;INSR -->
<g id="edge20" class="edge">
<title>PTK2&#45;&gt;INSR</title>
<path fill="none" stroke="green" d="M1568.76,-1673C1650.64,-1670.67 1844,-1651.95 1844,-1531 1844,-1531 1844,-1531 1844,-1385 1844,-1220.07 1654.2,-1092.27 1578.98,-1045.89"/>
<polygon fill="green" stroke="green" points="1580.76,-1042.87 1570.4,-1040.64 1577.11,-1048.84 1580.76,-1042.87"/>
</g>
<!-- ITGB1 -->
<g id="node13" class="node">
<title>ITGB1</title>
<ellipse fill="lightgray" stroke="black" cx="1687" cy="-18" rx="40.09" ry="18"/>
<text text-anchor="middle" x="1687" y="-14.3" font-family="Times,serif" font-size="14.00">ITGB1</text>
</g>
<!-- PTK2&#45;&gt;ITGB1 -->
<g id="edge27" class="edge">
<title>PTK2&#45;&gt;ITGB1</title>
<path fill="none" stroke="green" d="M1497.37,-1672.31C1325.97,-1668.72 591.63,-1651.1 495,-1620 103.15,-1493.87 44,-1222.65 44,-811 44,-811 44,-811 44,-593 44,-465.53 177.98,-142.77 284,-72 341.12,-33.87 1391.77,-21.7 1636.43,-19.42"/>
<polygon fill="green" stroke="green" points="1636.5,-22.92 1646.47,-19.33 1636.44,-15.92 1636.5,-22.92"/>
</g>
<!-- RAC1 -->
<g id="node28" class="node">
<title>RAC1</title>
<ellipse fill="lightgray" stroke="black" cx="1665" cy="-306" rx="36.29" ry="18"/>
<text text-anchor="middle" x="1665" y="-302.3" font-family="Times,serif" font-size="14.00">RAC1</text>
</g>
<!-- PTK2&#45;&gt;RAC1 -->
<g id="edge98" class="edge">
<title>PTK2&#45;&gt;RAC1</title>
<path fill="none" stroke="green" d="M1568.53,-1671.7C1688.49,-1667.06 2073.63,-1649.94 2120,-1620 2212.62,-1560.19 2213.97,-1510.63 2242,-1404 2343.88,-1016.46 1844,-995.71 1844,-595 1844,-595 1844,-595 1844,-449 1844,-378.75 1758.35,-337.74 1705.54,-319.14"/>
<polygon fill="green" stroke="green" points="1706.37,-315.72 1695.77,-315.82 1704.11,-322.35 1706.37,-315.72"/>
</g>
<!-- PTK2&#45;&gt;SRC -->
<g id="edge77" class="edge">
<title>PTK2&#45;&gt;SRC</title>
<path fill="none" stroke="green" d="M1568.8,-1671.77C1709.97,-1666.97 2222.73,-1648.3 2290,-1620 2344.84,-1596.93 2390,-1590.5 2390,-1531 2390,-1531 2390,-1531 2390,-1457 2390,-1360.4 2428,-1339.6 2428,-1243 2428,-1243 2428,-1243 2428,-737 2428,-563.91 2071.53,-232.87 1923,-144 1861.29,-107.08 1777.17,-95.74 1727.7,-92.34"/>
<polygon fill="green" stroke="green" points="1727.88,-88.84 1717.69,-91.73 1727.45,-95.83 1727.88,-88.84"/>
</g>
<!-- RHOA -->
<g id="node30" class="node">
<title>RHOA</title>
<ellipse fill="lightgray" stroke="black" cx="1515" cy="-1386" rx="38.99" ry="18"/>
<text text-anchor="middle" x="1515" y="-1382.3" font-family="Times,serif" font-size="14.00">RHOA</text>
</g>
<!-- PTK2&#45;&gt;RHOA -->
<g id="edge99" class="edge">
<title>PTK2&#45;&gt;RHOA</title>
<path fill="none" stroke="green" d="M1528.52,-1655.97C1521.34,-1608.29 1512.58,-1473.18 1512.55,-1414.63"/>
<polygon fill="green" stroke="green" points="1516.05,-1414.34 1512.65,-1404.31 1509.05,-1414.27 1516.05,-1414.34"/>
</g>
<!-- PTK2&#45;&gt;SHC1 -->
<g id="edge101" class="edge">
<title>PTK2&#45;&gt;SHC1</title>
<path fill="none" stroke="green" d="M1569.05,-1672.72C1703.09,-1670.69 2164,-1654.63 2164,-1531 2164,-1531 2164,-1531 2164,-1313 2164,-1196.25 2008.71,-1134.93 1932.28,-1111.06"/>
<polygon fill="green" stroke="green" points="1933.07,-1107.65 1922.48,-1108.07 1931.03,-1114.34 1933.07,-1107.65"/>
</g>
<!-- PTK2&#45;&gt;GRB2 -->
<g id="edge103" class="edge">
<title>PTK2&#45;&gt;GRB2</title>
<path fill="none" stroke="green" d="M1569,-1673.1C1693.45,-1672.95 2103.45,-1668.56 2225,-1620 2283.08,-1596.8 2334,-1593.54 2334,-1531 2334,-1531 2334,-1531 2334,-1169 2334,-1042.11 2277.79,-1001.31 2169,-936 2136.25,-916.34 2095.2,-902.72 2064.87,-894.21"/>
<polygon fill="green" stroke="green" points="2065.59,-890.78 2055.02,-891.52 2063.75,-897.54 2065.59,-890.78"/>
</g>
<!-- PTK2&#45;&gt;PLCG1 -->
<g id="edge105" class="edge">
<title>PTK2&#45;&gt;PLCG1</title>
<path fill="none" stroke="green" d="M1497.89,-1670.26C1347.83,-1658.11 768,-1606.27 768,-1531 768,-1531 768,-1531 768,-1385 768,-1306.97 679.82,-1299.88 698,-1224 739.82,-1049.45 747.12,-983.54 881,-864 907.01,-840.77 944.14,-827.39 973.91,-819.89"/>
<polygon fill="green" stroke="green" points="974.78,-823.28 983.7,-817.56 973.16,-816.47 974.78,-823.28"/>
</g>
<!-- PTK2&#45;&gt;BCAR1 -->
<g id="edge106" class="edge">
<title>PTK2&#45;&gt;BCAR1</title>
<path fill="none" stroke="green" d="M1498.83,-1668.72C1467.76,-1662.99 1422.93,-1649.84 1397,-1620 1382.24,-1603.01 1377.39,-1577.55 1375.99,-1558.21"/>
<polygon fill="green" stroke="green" points="1379.49,-1558.01 1375.54,-1548.18 1372.5,-1558.33 1379.49,-1558.01"/>
</g>
<!-- GSK3B -->
<g id="node4" class="node">
<title>GSK3B</title>
<ellipse fill="lightgray" stroke="black" cx="456" cy="-666" rx="44.39" ry="18"/>
<text text-anchor="middle" x="456" y="-662.3" font-family="Times,serif" font-size="14.00">GSK3B</text>
</g>
<!-- GSK3B&#45;&gt;NOTCH1 -->
<g id="edge3" class="edge">
<title>GSK3B&#45;&gt;NOTCH1</title>
<path fill="none" stroke="green" d="M439.19,-682.7C428.47,-692.97 414.48,-706.88 403,-720 349.96,-780.61 334.08,-794.73 293,-864 140.78,-1120.69 200,-1230.57 200,-1529 200,-1675 200,-1675 200,-1675 200,-1719.4 226.86,-1764.94 246.31,-1792.1"/>
<polygon fill="green" stroke="green" points="243.57,-1794.28 252.32,-1800.25 249.2,-1790.12 243.57,-1794.28"/>
</g>
<!-- CDH1 -->
<g id="node5" class="node">
<title>CDH1</title>
<ellipse fill="lightgray" stroke="black" cx="726" cy="-162" rx="38.19" ry="18"/>
<text text-anchor="middle" x="726" y="-158.3" font-family="Times,serif" font-size="14.00">CDH1</text>
</g>
<!-- GSK3B&#45;&gt;CDH1 -->
<g id="edge4" class="edge">
<title>GSK3B&#45;&gt;CDH1</title>
<path fill="none" stroke="green" d="M459.35,-647.84C474.09,-573.77 535.31,-282.18 598,-216 620.02,-192.75 653.76,-179.35 681.07,-171.84"/>
<polygon fill="green" stroke="green" points="682,-175.21 690.81,-169.33 680.25,-168.44 682,-175.21"/>
</g>
<!-- MAP3K1 -->
<g id="node19" class="node">
<title>MAP3K1</title>
<ellipse fill="lightgray" stroke="black" cx="325" cy="-234" rx="51.19" ry="18"/>
<text text-anchor="middle" x="325" y="-230.3" font-family="Times,serif" font-size="14.00">MAP3K1</text>
</g>
<!-- GSK3B&#45;&gt;MAP3K1 -->
<g id="edge41" class="edge">
<title>GSK3B&#45;&gt;MAP3K1</title>
<path fill="none" stroke="green" d="M450.78,-647.88C430.65,-581.8 357.93,-343.08 333.25,-262.1"/>
<polygon fill="green" stroke="green" points="336.49,-260.72 330.23,-252.17 329.8,-262.76 336.49,-260.72"/>
</g>
<!-- CDK1 -->
<g id="node23" class="node">
<title>CDK1</title>
<ellipse fill="lightgray" stroke="black" cx="934" cy="-594" rx="37.89" ry="18"/>
<text text-anchor="middle" x="934" y="-590.3" font-family="Times,serif" font-size="14.00">CDK1</text>
</g>
<!-- GSK3B&#45;&gt;CDK1 -->
<g id="edge50" class="edge">
<title>GSK3B&#45;&gt;CDK1</title>
<path fill="none" stroke="red" d="M496.75,-659.03C587.05,-645.81 803.07,-614.17 893.31,-600.96"/>
<polygon fill="red" stroke="red" points="896.58,-595.43 898.02,-605.32 896.05,-605.61 894.6,-595.72 896.58,-595.43"/>
<polyline fill="none" stroke="red" points="898.29,-600.23 893.34,-600.95 "/>
</g>
<!-- CDH1&#45;&gt;EPHA2 -->
<g id="edge5" class="edge">
<title>CDH1&#45;&gt;EPHA2</title>
<path fill="none" stroke="green" d="M717.46,-179.99C712.41,-190.3 706.04,-203.77 701,-216 603.88,-451.48 632.89,-533.44 509,-756 434.56,-889.73 294,-871.95 294,-1025 294,-1171 294,-1171 294,-1171 294,-1434.99 497.03,-1483.44 753,-1548 874.54,-1578.65 1253.8,-1594.35 1395.69,-1599.26"/>
<polygon fill="green" stroke="green" points="1395.78,-1602.77 1405.89,-1599.61 1396.02,-1595.77 1395.78,-1602.77"/>
</g>
<!-- RAP1A -->
<g id="node25" class="node">
<title>RAP1A</title>
<ellipse fill="lightgray" stroke="black" cx="696" cy="-90" rx="42.49" ry="18"/>
<text text-anchor="middle" x="696" y="-86.3" font-family="Times,serif" font-size="14.00">RAP1A</text>
</g>
<!-- CDH1&#45;&gt;RAP1A -->
<g id="edge61" class="edge">
<title>CDH1&#45;&gt;RAP1A</title>
<path fill="none" stroke="green" d="M713.24,-144.76C708.88,-136.7 704.35,-126.74 700.83,-117.6"/>
<polygon fill="green" stroke="green" points="704.1,-116.36 697.44,-108.12 697.51,-118.72 704.1,-116.36"/>
</g>
<!-- CDH1&#45;&gt;RAC1 -->
<g id="edge92" class="edge">
<title>CDH1&#45;&gt;RAC1</title>
<path fill="none" stroke="green" d="M762.29,-168.08C909.44,-189.54 1460.66,-272.87 1621.03,-297.87"/>
<polygon fill="green" stroke="green" points="1620.6,-301.35 1631.02,-299.43 1621.68,-294.43 1620.6,-301.35"/>
</g>
<!-- CDH1&#45;&gt;SRC -->
<g id="edge90" class="edge">
<title>CDH1&#45;&gt;SRC</title>
<path fill="none" stroke="green" d="M763.45,-158.06C915.9,-146.58 1488.37,-104.88 1646.42,-93.75"/>
<polygon fill="green" stroke="green" points="1646.92,-97.22 1656.65,-93.03 1646.43,-90.24 1646.92,-97.22"/>
</g>
<!-- CDH1&#45;&gt;RHOA -->
<g id="edge94" class="edge">
<title>CDH1&#45;&gt;RHOA</title>
<path fill="none" stroke="green" d="M721.5,-180.14C710.64,-222.5 683.23,-335.64 674,-432 657.78,-601.36 698.94,-1047.57 795,-1188 847.03,-1264.06 898.4,-1240.54 972,-1296 990.58,-1310 988.87,-1322.27 1010,-1332 1090.39,-1369.01 1355.3,-1380.57 1465.86,-1383.83"/>
<polygon fill="green" stroke="green" points="1465.97,-1387.34 1476.06,-1384.12 1466.17,-1380.34 1465.97,-1387.34"/>
</g>
<!-- EPHA2&#45;&gt;PTK2 -->
<g id="edge6" class="edge">
<title>EPHA2&#45;&gt;PTK2</title>
<path fill="none" stroke="red" d="M1472.95,-1617.63C1486.69,-1628.09 1503.68,-1642.28 1516.2,-1653.68"/>
<polygon fill="red" stroke="red" points="1522.58,-1652.76 1515.8,-1660.11 1514.33,-1658.76 1521.11,-1651.41 1522.58,-1652.76"/>
<polyline fill="none" stroke="red" points="1519.93,-1657.12 1516.25,-1653.73 "/>
</g>
<!-- EPHA2&#45;&gt;RAC1 -->
<g id="edge73" class="edge">
<title>EPHA2&#45;&gt;RAC1</title>
<path fill="none" stroke="red" d="M1492.33,-1596.79C1604.36,-1584.5 1900,-1543.99 1900,-1459 1900,-1459 1900,-1459 1900,-1241 1900,-1180.12 1863.52,-1173.66 1844,-1116 1820.42,-1046.36 1806,-1028.52 1806,-955 1806,-955 1806,-955 1806,-881 1806,-644.43 1783.59,-580.15 1697,-360 1692.57,-348.72 1685.83,-337.1 1679.68,-327.62"/>
<polygon fill="red" stroke="red" points="1673.29,-327.02 1681.63,-321.51 1682.73,-323.17 1674.39,-328.69 1673.29,-327.02"/>
<polyline fill="none" stroke="red" points="1676.91,-323.43 1679.67,-327.6 "/>
</g>
<!-- EPHA2&#45;&gt;RHOA -->
<g id="edge75" class="edge">
<title>EPHA2&#45;&gt;RHOA</title>
<path fill="none" stroke="green" d="M1455.21,-1583.85C1466.5,-1546.66 1493.32,-1458.37 1506.87,-1413.77"/>
<polygon fill="green" stroke="green" points="1510.3,-1414.52 1509.86,-1403.94 1503.6,-1412.49 1510.3,-1414.52"/>
</g>
<!-- RASA1 -->
<g id="node31" class="node">
<title>RASA1</title>
<ellipse fill="lightgray" stroke="black" cx="1548" cy="-954" rx="42.49" ry="18"/>
<text text-anchor="middle" x="1548" y="-950.3" font-family="Times,serif" font-size="14.00">RASA1</text>
</g>
<!-- EPHA2&#45;&gt;RASA1 -->
<g id="edge78" class="edge">
<title>EPHA2&#45;&gt;RASA1</title>
<path fill="none" stroke="green" d="M1449.6,-1583.95C1449.02,-1557.29 1448,-1504.12 1448,-1459 1448,-1459 1448,-1459 1448,-1385 1448,-1288.4 1486,-1267.6 1486,-1171 1486,-1171 1486,-1171 1486,-1097 1486,-1056.55 1487.55,-1044.49 1505,-1008 1510.09,-997.36 1517.72,-986.98 1525.15,-978.27"/>
<polygon fill="green" stroke="green" points="1527.78,-980.57 1531.83,-970.78 1522.56,-975.91 1527.78,-980.57"/>
</g>
<!-- EPHA2&#45;&gt;SHC1 -->
<g id="edge80" class="edge">
<title>EPHA2&#45;&gt;SHC1</title>
<path fill="none" stroke="green" d="M1494.35,-1601.17C1644.75,-1600.57 2126,-1588.52 2126,-1459 2126,-1459 2126,-1459 2126,-1385 2126,-1271.08 2033.97,-1276.31 1962,-1188 1944.29,-1166.27 1924.42,-1141.31 1910.21,-1123.36"/>
<polygon fill="green" stroke="green" points="1912.67,-1120.83 1903.73,-1115.16 1907.18,-1125.17 1912.67,-1120.83"/>
</g>
<!-- EPHA2&#45;&gt;GRB2 -->
<g id="edge82" class="edge">
<title>EPHA2&#45;&gt;GRB2</title>
<path fill="none" stroke="green" d="M1494.45,-1601.31C1619.2,-1601.54 1970.06,-1597.64 2072,-1548 2147.93,-1511.02 2155.21,-1477.96 2196,-1404 2267.33,-1274.66 2324.93,-1217.11 2270,-1080 2237.93,-999.96 2209.62,-986.86 2140,-936 2116.58,-918.89 2086.75,-905.48 2063.07,-896.44"/>
<polygon fill="green" stroke="green" points="2064.26,-893.14 2053.67,-892.95 2061.83,-899.71 2064.26,-893.14"/>
</g>
<!-- EPHA2&#45;&gt;PLCG1 -->
<g id="edge84" class="edge">
<title>EPHA2&#45;&gt;PLCG1</title>
<path fill="none" stroke="green" d="M1406.63,-1598.05C1280.05,-1586.85 920,-1535.61 920,-1315 920,-1315 920,-1315 920,-953 920,-902.33 963.5,-857.55 993.96,-832.4"/>
<polygon fill="green" stroke="green" points="996.54,-834.82 1002.16,-825.84 992.16,-829.36 996.54,-834.82"/>
</g>
<!-- EPHA2&#45;&gt;BCAR1 -->
<g id="edge86" class="edge">
<title>EPHA2&#45;&gt;BCAR1</title>
<path fill="none" stroke="green" d="M1433.21,-1585.12C1423.46,-1575.9 1411.02,-1564.13 1400.23,-1553.92"/>
<polygon fill="green" stroke="green" points="1402.4,-1551.15 1392.73,-1546.82 1397.58,-1556.24 1402.4,-1551.15"/>
</g>
<!-- CDC42&#45;&gt;GSK3B -->
<g id="edge11" class="edge">
<title>CDC42&#45;&gt;GSK3B</title>
<path fill="none" stroke="red" d="M456,-719.7C456,-710.46 456,-698.98 456,-689.11"/>
<polygon fill="red" stroke="red" points="451,-685.1 461,-685.1 461,-687.1 451,-687.1 451,-685.1"/>
<polyline fill="none" stroke="red" points="456,-684.1 456,-689.1 "/>
</g>
<!-- CDC42&#45;&gt;CDH1 -->
<g id="edge9" class="edge">
<title>CDC42&#45;&gt;CDH1</title>
<path fill="none" stroke="red" d="M476.07,-721.95C487.46,-712.34 501,-698.91 509,-684 610.91,-494.1 499.07,-382.43 636,-216 650.76,-198.06 673.3,-184.8 692.12,-176.03"/>
<polygon fill="red" stroke="red" points="693.84,-169.76 697.98,-178.86 696.16,-179.69 692.02,-170.58 693.84,-169.76"/>
<polyline fill="none" stroke="red" points="696.82,-173.9 692.27,-175.96 "/>
</g>
<!-- CDC42&#45;&gt;MAP3K1 -->
<g id="edge42" class="edge">
<title>CDC42&#45;&gt;MAP3K1</title>
<path fill="none" stroke="green" d="M412.46,-735.82C371.68,-732.34 311.8,-720.75 276,-684 238.61,-645.62 214,-504.58 214,-451 214,-451 214,-451 214,-377 214,-325.3 260.24,-281.18 293.03,-256.4"/>
<polygon fill="green" stroke="green" points="295.46,-258.96 301.46,-250.22 291.32,-253.31 295.46,-258.96"/>
</g>
<!-- CDC42&#45;&gt;BCAR1 -->
<g id="edge131" class="edge">
<title>CDC42&#45;&gt;BCAR1</title>
<path fill="none" stroke="green" d="M454.02,-756.02C451.11,-782.64 446,-835.77 446,-881 446,-1171 446,-1171 446,-1171 446,-1361.36 1133.22,-1488.99 1326.16,-1521.07"/>
<polygon fill="green" stroke="green" points="1325.6,-1524.52 1336.04,-1522.7 1326.74,-1517.62 1325.6,-1524.52"/>
</g>
<!-- CDH2 -->
<g id="node8" class="node">
<title>CDH2</title>
<ellipse fill="lightgray" stroke="black" cx="2323" cy="-18" rx="38.19" ry="18"/>
<text text-anchor="middle" x="2323" y="-14.3" font-family="Times,serif" font-size="14.00">CDH2</text>
</g>
<!-- CDH2&#45;&gt;CDC42 -->
<g id="edge10" class="edge">
<title>CDH2&#45;&gt;CDC42</title>
<path fill="none" stroke="red" d="M2321.54,-36C2319.24,-54.9 2313.43,-85.7 2299,-108 2168.93,-308.99 1882,-209.59 1882,-449 1882,-595 1882,-595 1882,-595 1882,-736.54 755.25,-738.65 504.89,-737.37"/>
<polygon fill="red" stroke="red" points="500.82,-742.35 500.87,-732.35 502.87,-732.36 502.82,-742.36 500.82,-742.35"/>
<polyline fill="none" stroke="red" points="499.85,-737.35 504.85,-737.37 "/>
</g>
<!-- CDH2&#45;&gt;RAC1 -->
<g id="edge116" class="edge">
<title>CDH2&#45;&gt;RAC1</title>
<path fill="none" stroke="green" d="M2295.7,-30.87C2191.48,-76.17 1818.69,-238.2 1700.93,-289.39"/>
<polygon fill="green" stroke="green" points="1699.39,-286.24 1691.61,-293.43 1702.18,-292.66 1699.39,-286.24"/>
</g>
<!-- CDH2&#45;&gt;RHOA -->
<g id="edge117" class="edge">
<title>CDH2&#45;&gt;RHOA</title>
<path fill="none" stroke="green" d="M2344.86,-33C2358.02,-42.5 2374.1,-56.19 2384,-72 2405.74,-106.72 2408,-120.03 2408,-161 2408,-379 2408,-379 2408,-379 2408,-538.31 2390,-577.69 2390,-737 2390,-883 2390,-883 2390,-883 2390,-1267.4 1746.79,-1361.67 1563.32,-1380.74"/>
<polygon fill="green" stroke="green" points="1562.76,-1377.28 1553.16,-1381.76 1563.46,-1384.24 1562.76,-1377.28"/>
</g>
<!-- PTPN1 -->
<g id="node9" class="node">
<title>PTPN1</title>
<ellipse fill="lightgray" stroke="black" cx="1613" cy="-1458" rx="42.79" ry="18"/>
<text text-anchor="middle" x="1613" y="-1454.3" font-family="Times,serif" font-size="14.00">PTPN1</text>
</g>
<!-- PTPN1&#45;&gt;PTK2 -->
<g id="edge13" class="edge">
<title>PTPN1&#45;&gt;PTK2</title>
<path fill="none" stroke="red" d="M1607.39,-1476.06C1597.58,-1505.61 1576.41,-1568.13 1556,-1620 1551.93,-1630.33 1547.08,-1641.64 1542.89,-1651.15"/>
<polygon fill="red" stroke="red" points="1545.74,-1657.05 1536.6,-1653 1537.41,-1651.17 1546.55,-1655.23 1545.74,-1657.05"/>
<polyline fill="none" stroke="red" points="1540.76,-1655.94 1542.79,-1651.37 "/>
</g>
<!-- PTPN1&#45;&gt;CDH2 -->
<g id="edge12" class="edge">
<title>PTPN1&#45;&gt;CDH2</title>
<path fill="none" stroke="red" d="M1635.96,-1442.37C1705.77,-1397.45 1920.44,-1256.08 2080,-1116 2367.04,-864.01 2370,-688.96 2370,-307 2370,-307 2370,-307 2370,-161 2370,-116.32 2348.77,-67.56 2334.85,-40.38"/>
<polygon fill="red" stroke="red" points="2328.54,-39.08 2337.41,-34.47 2338.33,-36.24 2329.46,-40.86 2328.54,-39.08"/>
<polyline fill="none" stroke="red" points="2332.51,-35.89 2334.82,-40.32 "/>
</g>
<!-- PTPN1&#45;&gt;INSR -->
<g id="edge22" class="edge">
<title>PTPN1&#45;&gt;INSR</title>
<path fill="none" stroke="purple" d="M1617.96,-1439.81C1630.01,-1413.83 1656,-1362.52 1656,-1315 1656,-1315 1656,-1315 1656,-1241 1656,-1170.13 1586.5,-1180.44 1557,-1116 1548.31,-1097.01 1544.06,-1073.78 1543.24,-1055.81"/>
<polygon fill="purple" stroke="purple" points="1543.24,-1055.8 1539.23,-1049.8 1543.23,-1043.8 1547.23,-1049.79 1543.24,-1055.8"/>
</g>
<!-- PTPN1&#45;&gt;RHOA -->
<g id="edge142" class="edge">
<title>PTPN1&#45;&gt;RHOA</title>
<path fill="none" stroke="red" d="M1588.13,-1443.17C1571.69,-1432.46 1550.59,-1417.52 1535.18,-1405.74"/>
<polygon fill="red" stroke="red" points="1528.73,-1407.08 1534.84,-1399.16 1536.42,-1400.38 1530.31,-1408.3 1528.73,-1407.08"/>
<polyline fill="none" stroke="red" points="1530.99,-1402.51 1534.95,-1405.56 "/>
</g>
<!-- PTPN1&#45;&gt;BCAR1 -->
<g id="edge144" class="edge">
<title>PTPN1&#45;&gt;BCAR1</title>
<path fill="none" stroke="red" d="M1580.92,-1469.97C1538.36,-1483.21 1463.52,-1505.31 1416.95,-1518.38"/>
<polygon fill="red" stroke="red" points="1414.28,-1524.32 1411.59,-1514.69 1413.51,-1514.15 1416.21,-1523.78 1414.28,-1524.32"/>
<polyline fill="none" stroke="red" points="1411.97,-1519.78 1416.79,-1518.43 "/>
</g>
<!-- VIM -->
<g id="node10" class="node">
<title>VIM</title>
<ellipse fill="lightgray" stroke="black" cx="1220" cy="-1242" rx="29.8" ry="18"/>
<text text-anchor="middle" x="1220" y="-1238.3" font-family="Times,serif" font-size="14.00">VIM</text>
</g>
<!-- VIM&#45;&gt;PRKCA -->
<g id="edge14" class="edge">
<title>VIM&#45;&gt;PRKCA</title>
<path fill="none" stroke="green" d="M1191.73,-1235.68C1128.69,-1223.82 975.94,-1195.08 897.02,-1180.22"/>
<polygon fill="green" stroke="green" points="897.33,-1176.72 886.85,-1178.31 896.03,-1183.6 897.33,-1176.72"/>
</g>
<!-- PRKCA&#45;&gt;PTK2 -->
<g id="edge15" class="edge">
<title>PRKCA&#45;&gt;PTK2</title>
<path fill="none" stroke="green" d="M836.26,-1187.36C793.87,-1237.95 654,-1392.31 654,-1457 654,-1531 654,-1531 654,-1531 654,-1593.54 704.83,-1597.02 763,-1620 896.29,-1672.67 1340.89,-1674.49 1486.49,-1673.53"/>
<polygon fill="green" stroke="green" points="1486.88,-1677.03 1496.85,-1673.45 1486.83,-1670.03 1486.88,-1677.03"/>
</g>
<!-- PRKCA&#45;&gt;GSK3B -->
<g id="edge18" class="edge">
<title>PRKCA&#45;&gt;GSK3B</title>
<path fill="none" stroke="red" d="M836.77,-1152.46C795.65,-1092.31 648.45,-880.27 509,-720 498.81,-708.28 486.6,-695.97 476.47,-686.17"/>
<polygon fill="red" stroke="red" points="470.09,-686.97 477.03,-679.77 478.47,-681.15 471.53,-688.36 470.09,-686.97"/>
<polyline fill="none" stroke="red" points="472.84,-682.68 476.44,-686.14 "/>
</g>
<!-- PRKCA&#45;&gt;EPHA2 -->
<g id="edge19" class="edge">
<title>PRKCA&#45;&gt;EPHA2</title>
<path fill="none" stroke="red" d="M844.14,-1188.12C829.58,-1254.64 781.25,-1494.91 830,-1548 868.32,-1589.74 1260.25,-1598.66 1400.46,-1600.52"/>
<polygon fill="red" stroke="red" points="1404.81,-1595.58 1404.68,-1605.58 1402.68,-1605.55 1402.81,-1595.55 1404.81,-1595.58"/>
<polyline fill="none" stroke="red" points="1405.74,-1600.59 1400.74,-1600.53 "/>
</g>
<!-- PRKCA&#45;&gt;INSR -->
<g id="edge24" class="edge">
<title>PRKCA&#45;&gt;INSR</title>
<path fill="none" stroke="green" d="M885.84,-1160.65C1006.23,-1135.35 1379.29,-1059.78 1506.27,-1034.98"/>
<polygon fill="green" stroke="green" points="1507.23,-1038.36 1516.38,-1033.01 1505.9,-1031.49 1507.23,-1038.36"/>
</g>
<!-- PRKCA&#45;&gt;ITGB1 -->
<g id="edge29" class="edge">
<title>PRKCA&#45;&gt;ITGB1</title>
<path fill="none" stroke="green" d="M822.59,-1155.22C807.56,-1144.74 788.82,-1129.83 773,-1116 720.11,-1069.78 328,-737.24 328,-667 328,-667 328,-667 328,-521 328,-400 530.11,-130.54 636,-72 723.7,-23.52 1438.38,-19.25 1636.38,-18.99"/>
<polygon fill="green" stroke="green" points="1636.51,-22.49 1646.5,-18.97 1636.5,-15.49 1636.51,-22.49"/>
</g>
<!-- PRKCA&#45;&gt;TP53 -->
<g id="edge39" class="edge">
<title>PRKCA&#45;&gt;TP53</title>
<path fill="none" stroke="green" d="M846.57,-1151.94C840.07,-1073.69 813.37,-741.3 805,-468 804.51,-452.01 804.1,-447.97 805,-432 805.48,-423.55 806.38,-414.38 807.34,-406.07"/>
<polygon fill="green" stroke="green" points="810.81,-406.5 808.56,-396.14 803.87,-405.64 810.81,-406.5"/>
</g>
<!-- PRKCA&#45;&gt;FOS -->
<g id="edge51" class="edge">
<title>PRKCA&#45;&gt;FOS</title>
<path fill="none" stroke="green" d="M808.3,-1162.23C769.15,-1154.55 708.33,-1139.9 660,-1116 636.1,-1104.18 633.49,-1095.79 612,-1080 507.42,-1003.18 138,-868.76 138,-739 138,-739 138,-739 138,-593 138,-440.51 108.46,-404.26 100,-252 95.56,-172.12 89.7,-151.33 100,-72 101.13,-63.28 103.27,-53.95 105.54,-45.58"/>
<polygon fill="green" stroke="green" points="108.91,-46.54 108.32,-35.96 102.18,-44.6 108.91,-46.54"/>
</g>
<!-- PRKCA&#45;&gt;RAC1 -->
<g id="edge108" class="edge">
<title>PRKCA&#45;&gt;RAC1</title>
<path fill="none" stroke="green" d="M877.97,-1156.76C924.59,-1138.47 1014.75,-1100.06 1075,-1044 1280,-853.28 1291.28,-768.58 1453,-540 1508.53,-461.51 1504.35,-427.31 1573,-360 1588.59,-344.71 1609.29,-331.48 1627.23,-322.07"/>
<polygon fill="green" stroke="green" points="1628.96,-325.12 1636.32,-317.5 1625.82,-318.86 1628.96,-325.12"/>
</g>
<!-- PRKCA&#45;&gt;RHOA -->
<g id="edge110" class="edge">
<title>PRKCA&#45;&gt;RHOA</title>
<path fill="none" stroke="green" d="M870.4,-1185.5C920.33,-1221.65 1038.65,-1314.16 1085,-1332 1154.21,-1358.64 1369.01,-1375.26 1466.35,-1381.81"/>
<polygon fill="green" stroke="green" points="1466.3,-1385.31 1476.51,-1382.48 1466.76,-1378.33 1466.3,-1385.31"/>
</g>
<!-- PRKCA&#45;&gt;SHC1 -->
<g id="edge112" class="edge">
<title>PRKCA&#45;&gt;SHC1</title>
<path fill="none" stroke="green" d="M890.83,-1166.13C1058.37,-1154.88 1668.72,-1113.92 1843.77,-1102.17"/>
<polygon fill="green" stroke="green" points="1844.21,-1105.65 1853.95,-1101.49 1843.74,-1098.66 1844.21,-1105.65"/>
</g>
<!-- PRKCA&#45;&gt;BCAR1 -->
<g id="edge114" class="edge">
<title>PRKCA&#45;&gt;BCAR1</title>
<path fill="none" stroke="green" d="M856.39,-1187.77C866.42,-1206.74 884.58,-1237.87 906,-1260 1035.36,-1393.64 1245.47,-1481.38 1334.27,-1514.35"/>
<polygon fill="green" stroke="green" points="1333.14,-1517.66 1343.73,-1517.82 1335.55,-1511.09 1333.14,-1517.66"/>
</g>
<!-- INSR&#45;&gt;PTK2 -->
<g id="edge21" class="edge">
<title>INSR&#45;&gt;PTK2</title>
<path fill="none" stroke="green" d="M1574.34,-1038.52C1649.07,-1077.27 1862,-1210.3 1862,-1385 1862,-1531 1862,-1531 1862,-1531 1862,-1651.71 1669.42,-1670.59 1578.85,-1672.99"/>
<polygon fill="green" stroke="green" points="1578.78,-1669.49 1568.85,-1673.2 1578.92,-1676.49 1578.78,-1669.49"/>
</g>
<!-- INSR&#45;&gt;PTPN1 -->
<g id="edge23" class="edge">
<title>INSR&#45;&gt;PTPN1</title>
<path fill="none" stroke="purple" d="M1556.41,-1043.8C1560.26,-1062.25 1564.2,-1092.4 1575,-1116 1604.5,-1180.44 1674,-1170.13 1674,-1241 1674,-1315 1674,-1315 1674,-1315 1674,-1357.65 1653.06,-1403.34 1635.46,-1431.05"/>
<polygon fill="purple" stroke="purple" points="1635.4,-1431.14 1635.36,-1438.35 1628.68,-1441.08 1628.73,-1433.87 1635.4,-1431.14"/>
</g>
<!-- INSR&#45;&gt;PRKCA -->
<g id="edge25" class="edge">
<title>INSR&#45;&gt;PRKCA</title>
<path fill="none" stroke="green" d="M1517.33,-1034.05C1405.85,-1057.58 1031.87,-1133.36 896.96,-1159.8"/>
<polygon fill="green" stroke="green" points="896.06,-1156.41 886.91,-1161.76 897.4,-1163.28 896.06,-1156.41"/>
</g>
<!-- INSR&#45;&gt;RASA1 -->
<g id="edge146" class="edge">
<title>INSR&#45;&gt;RASA1</title>
<path fill="none" stroke="green" d="M1542.88,-1008.05C1541.95,-1000.35 1541.58,-991.03 1541.79,-982.36"/>
<polygon fill="green" stroke="green" points="1545.29,-982.45 1542.33,-972.28 1538.3,-982.07 1545.29,-982.45"/>
</g>
<!-- INSR&#45;&gt;SHC1 -->
<g id="edge148" class="edge">
<title>INSR&#45;&gt;SHC1</title>
<path fill="none" stroke="green" d="M1581.7,-1032.88C1643.78,-1044.9 1778.22,-1072.35 1847.67,-1087.14"/>
<polygon fill="green" stroke="green" points="1847.33,-1090.64 1857.84,-1089.31 1848.79,-1083.8 1847.33,-1090.64"/>
</g>
<!-- ITGB1&#45;&gt;PTK2 -->
<g id="edge26" class="edge">
<title>ITGB1&#45;&gt;PTK2</title>
<path fill="none" stroke="green" d="M1646.79,-19.37C1424.96,-21.52 359.54,-33.6 302,-72 195.98,-142.77 62,-465.53 62,-593 62,-811 62,-811 62,-811 62,-1222.65 121.15,-1493.87 513,-1620 606.75,-1650.18 1300.7,-1667.66 1487.09,-1671.95"/>
<polygon fill="green" stroke="green" points="1487.29,-1675.46 1497.37,-1672.19 1487.45,-1668.46 1487.29,-1675.46"/>
</g>
<!-- ITGB1&#45;&gt;CDC42 -->
<g id="edge28" class="edge">
<title>ITGB1&#45;&gt;CDC42</title>
<path fill="none" stroke="green" d="M1646.77,-19.52C1458.31,-22.15 667.61,-35.3 564,-72 513.05,-90.04 501.29,-103.06 466,-144 441.61,-172.29 290,-389.55 290,-521 290,-595 290,-595 290,-595 290,-660.07 364.55,-701.7 413.74,-722.08"/>
<polygon fill="green" stroke="green" points="412.62,-725.4 423.2,-725.88 415.22,-718.91 412.62,-725.4"/>
</g>
<!-- ITGB1&#45;&gt;PRKCA -->
<g id="edge30" class="edge">
<title>ITGB1&#45;&gt;PRKCA</title>
<path fill="none" stroke="green" d="M1646.67,-18.98C1466.65,-19.19 742.33,-23.17 654,-72 548.11,-130.54 346,-400 346,-521 346,-667 346,-667 346,-667 346,-737.24 738.11,-1069.78 791,-1116 802.64,-1126.17 815.86,-1136.93 826.77,-1146.08"/>
<polygon fill="green" stroke="green" points="824.71,-1148.92 834.59,-1152.73 829.24,-1143.59 824.71,-1148.92"/>
</g>
<!-- ITGB1&#45;&gt;RAC1 -->
<g id="edge134" class="edge">
<title>ITGB1&#45;&gt;RAC1</title>
<path fill="none" stroke="green" d="M1709.5,-33.22C1720.04,-43.11 1731.02,-57.13 1736,-72 1741.08,-87.17 1737.75,-92.1 1736,-108 1728.85,-173.17 1727.52,-190.8 1704,-252 1700.13,-262.07 1694.58,-272.53 1688.74,-281.47"/>
<polygon fill="green" stroke="green" points="1685.74,-279.64 1682.85,-289.83 1691.47,-283.67 1685.74,-279.64"/>
</g>
<!-- ITGB1&#45;&gt;SRC -->
<g id="edge132" class="edge">
<title>ITGB1&#45;&gt;SRC</title>
<path fill="none" stroke="green" d="M1692.91,-36.28C1693.71,-44.03 1693.94,-53.36 1693.59,-62.01"/>
<polygon fill="green" stroke="green" points="1690.09,-61.83 1692.88,-72.05 1697.08,-62.33 1690.09,-61.83"/>
</g>
<!-- ITGB1&#45;&gt;RHOA -->
<g id="edge136" class="edge">
<title>ITGB1&#45;&gt;RHOA</title>
<path fill="none" stroke="green" d="M1727.36,-19.94C1861.79,-24.2 2285,-46.87 2285,-161 2285,-235 2285,-235 2285,-235 2285,-396.71 2220,-431.29 2220,-593 2220,-739 2220,-739 2220,-739 2220,-973.01 2139.64,-1058.09 1945,-1188 1841.22,-1257.27 1818.31,-1281.98 1704,-1332 1657.05,-1352.54 1599.84,-1367.85 1560.61,-1376.6"/>
<polygon fill="green" stroke="green" points="1559.82,-1373.19 1550.79,-1378.74 1561.31,-1380.03 1559.82,-1373.19"/>
</g>
<!-- ITGB1&#45;&gt;GRB2 -->
<g id="edge138" class="edge">
<title>ITGB1&#45;&gt;GRB2</title>
<path fill="none" stroke="green" d="M1722.1,-27.31C1778.36,-42.19 1889.56,-78.13 1960,-144 2087.49,-263.21 2070,-346.46 2070,-521 2070,-739 2070,-739 2070,-739 2070,-781.51 2050.78,-827.72 2036.92,-855.51"/>
<polygon fill="green" stroke="green" points="2033.74,-854.04 2032.29,-864.54 2039.97,-857.24 2033.74,-854.04"/>
</g>
<!-- PRKACA -->
<g id="node36" class="node">
<title>PRKACA</title>
<ellipse fill="lightgray" stroke="black" cx="1314" cy="-1314" rx="50.09" ry="18"/>
<text text-anchor="middle" x="1314" y="-1310.3" font-family="Times,serif" font-size="14.00">PRKACA</text>
</g>
<!-- ITGB1&#45;&gt;PRKACA -->
<g id="edge139" class="edge">
<title>ITGB1&#45;&gt;PRKACA</title>
<path fill="none" stroke="green" d="M1725.73,-23.34C1770.47,-29.81 1844.89,-44.32 1903,-72 2086.98,-159.65 2164,-245.21 2164,-449 2164,-739 2164,-739 2164,-739 2164,-921.72 2140.32,-998.96 2000,-1116 1811.69,-1273.06 1503.54,-1304.95 1374.1,-1311.39"/>
<polygon fill="green" stroke="green" points="1373.81,-1307.9 1363.98,-1311.86 1374.14,-1314.89 1373.81,-1307.9"/>
</g>
<!-- NF2 -->
<g id="node14" class="node">
<title>NF2</title>
<ellipse fill="lightgray" stroke="black" cx="1049" cy="-378" rx="30.59" ry="18"/>
<text text-anchor="middle" x="1049" y="-374.3" font-family="Times,serif" font-size="14.00">NF2</text>
</g>
<!-- LATS1 -->
<g id="node15" class="node">
<title>LATS1</title>
<ellipse fill="lightgray" stroke="black" cx="1014" cy="-162" rx="40.09" ry="18"/>
<text text-anchor="middle" x="1014" y="-158.3" font-family="Times,serif" font-size="14.00">LATS1</text>
</g>
<!-- NF2&#45;&gt;LATS1 -->
<g id="edge31" class="edge">
<title>NF2&#45;&gt;LATS1</title>
<path fill="none" stroke="green" d="M1046.19,-359.85C1040.13,-322.75 1025.74,-234.81 1018.43,-190.1"/>
<polygon fill="green" stroke="green" points="1021.89,-189.54 1016.82,-180.23 1014.98,-190.67 1021.89,-189.54"/>
</g>
<!-- LATS2 -->
<g id="node16" class="node">
<title>LATS2</title>
<ellipse fill="lightgray" stroke="black" cx="946" cy="-306" rx="40.09" ry="18"/>
<text text-anchor="middle" x="946" y="-302.3" font-family="Times,serif" font-size="14.00">LATS2</text>
</g>
<!-- NF2&#45;&gt;LATS2 -->
<g id="edge32" class="edge">
<title>NF2&#45;&gt;LATS2</title>
<path fill="none" stroke="green" d="M1029.63,-363.83C1014.54,-353.58 993.33,-339.17 976.05,-327.42"/>
<polygon fill="green" stroke="green" points="977.66,-324.28 967.42,-321.56 973.72,-330.07 977.66,-324.28"/>
</g>
<!-- GADD45A -->
<g id="node26" class="node">
<title>GADD45A</title>
<ellipse fill="lightgray" stroke="black" cx="831" cy="-306" rx="57.39" ry="18"/>
<text text-anchor="middle" x="831" y="-302.3" font-family="Times,serif" font-size="14.00">GADD45A</text>
</g>
<!-- LATS1&#45;&gt;GADD45A -->
<g id="edge67" class="edge">
<title>LATS1&#45;&gt;GADD45A</title>
<path fill="none" stroke="green" d="M1002.4,-179.45C988.2,-198.7 962.62,-230.65 935,-252 916.67,-266.17 893.98,-278.25 874.47,-287.28"/>
<polygon fill="green" stroke="green" points="872.87,-284.17 865.19,-291.47 875.74,-290.55 872.87,-284.17"/>
</g>
<!-- LATS2&#45;&gt;TP53 -->
<g id="edge33" class="edge">
<title>LATS2&#45;&gt;TP53</title>
<path fill="none" stroke="green" d="M924.08,-321.25C902.94,-333.01 870.88,-349.66 846.21,-361.69"/>
<polygon fill="green" stroke="green" points="844.64,-358.56 837.16,-366.06 847.68,-364.87 844.64,-358.56"/>
</g>
<!-- TP53&#45;&gt;PTK2 -->
<g id="edge34" class="edge">
<title>TP53&#45;&gt;PTK2</title>
<path fill="none" stroke="red" d="M802.21,-395.58C796.8,-405.96 789.8,-419.66 784,-432 702.45,-605.5 697.49,-655.91 613,-828 276.3,-1513.78 343.37,-1108.55 394,-1260 457.5,-1449.93 488.61,-1525.18 665,-1620 738.34,-1659.43 1329.85,-1670.26 1492.01,-1672.5"/>
<polygon fill="red" stroke="red" points="1496.21,-1667.56 1496.08,-1677.56 1494.08,-1677.53 1494.21,-1667.53 1496.21,-1667.56"/>
<polyline fill="none" stroke="red" points="1497.14,-1672.57 1492.14,-1672.5 "/>
</g>
<!-- TP53&#45;&gt;EPHA2 -->
<g id="edge38" class="edge">
<title>TP53&#45;&gt;EPHA2</title>
<path fill="none" stroke="green" d="M806.66,-395.98C780.21,-499.9 641.11,-1051.05 622,-1224 620.24,-1239.9 617.44,-1244.66 622,-1260 665.59,-1406.51 678.7,-1469.73 810,-1548 859.74,-1577.65 1250.29,-1594.08 1395.69,-1599.22"/>
<polygon fill="green" stroke="green" points="1395.62,-1602.72 1405.73,-1599.57 1395.86,-1595.73 1395.62,-1602.72"/>
</g>
<!-- TP53&#45;&gt;LATS2 -->
<g id="edge37" class="edge">
<title>TP53&#45;&gt;LATS2</title>
<path fill="none" stroke="green" d="M831.57,-363.5C852,-352.09 883.49,-335.69 908.35,-323.5"/>
<polygon fill="green" stroke="green" points="910.04,-326.57 917.51,-319.05 906.98,-320.27 910.04,-326.57"/>
</g>
<!-- MAP4K4 -->
<g id="node18" class="node">
<title>MAP4K4</title>
<ellipse fill="lightgray" stroke="black" cx="353" cy="-90" rx="51.19" ry="18"/>
<text text-anchor="middle" x="353" y="-86.3" font-family="Times,serif" font-size="14.00">MAP4K4</text>
</g>
<!-- TP53&#45;&gt;MAP4K4 -->
<g id="edge36" class="edge">
<title>TP53&#45;&gt;MAP4K4</title>
<path fill="none" stroke="green" d="M776.97,-374.58C667.82,-366.05 329.85,-333.37 265,-252 229.23,-207.11 287.41,-145.66 325,-113.19"/>
<polygon fill="green" stroke="green" points="327.29,-115.84 332.67,-106.72 322.77,-110.49 327.29,-115.84"/>
</g>
<!-- TP53&#45;&gt;CDK1 -->
<g id="edge53" class="edge">
<title>TP53&#45;&gt;CDK1</title>
<path fill="none" stroke="green" d="M814.7,-396.32C816.49,-427.94 816.64,-495.8 848,-540 859.99,-556.9 879.14,-569.04 896.41,-577.41"/>
<polygon fill="green" stroke="green" points="895.21,-580.71 905.76,-581.67 898.12,-574.34 895.21,-580.71"/>
</g>
<!-- TP53&#45;&gt;GADD45A -->
<g id="edge71" class="edge">
<title>TP53&#45;&gt;GADD45A</title>
<path fill="none" stroke="green" d="M815.84,-360.05C818.07,-352.26 820.77,-342.82 823.26,-334.08"/>
<polygon fill="green" stroke="green" points="826.68,-334.85 826.06,-324.28 819.95,-332.93 826.68,-334.85"/>
</g>
<!-- TP53&#45;&gt;RAC1 -->
<g id="edge150" class="edge">
<title>TP53&#45;&gt;RAC1</title>
<path fill="none" stroke="red" d="M844.35,-373.49C882.19,-370.01 945.33,-364.56 1000,-360 1235.99,-340.34 1519.83,-317.77 1624.14,-309.89"/>
<polygon fill="red" stroke="red" points="1627.9,-304.6 1628.65,-314.57 1626.66,-314.72 1625.91,-304.75 1627.9,-304.6"/>
<polyline fill="none" stroke="red" points="1629.27,-309.51 1624.29,-309.88 "/>
</g>
<!-- MAP4K4&#45;&gt;MAP3K1 -->
<g id="edge40" class="edge">
<title>MAP4K4&#45;&gt;MAP3K1</title>
<path fill="none" stroke="green" d="M331.97,-106.66C321.09,-116.12 308.88,-129.19 303,-144 294.87,-164.47 301.96,-188.81 310.18,-206.86"/>
<polygon fill="green" stroke="green" points="307.22,-208.76 314.78,-216.18 313.5,-205.66 307.22,-208.76"/>
</g>
<!-- MAP3K7 -->
<g id="node24" class="node">
<title>MAP3K7</title>
<ellipse fill="lightgray" stroke="black" cx="363" cy="-162" rx="51.19" ry="18"/>
<text text-anchor="middle" x="363" y="-158.3" font-family="Times,serif" font-size="14.00">MAP3K7</text>
</g>
<!-- MAP4K4&#45;&gt;MAP3K7 -->
<g id="edge58" class="edge">
<title>MAP4K4&#45;&gt;MAP3K7</title>
<path fill="none" stroke="green" d="M361.34,-108.1C363.24,-115.79 364.8,-125.05 365.7,-133.67"/>
<polygon fill="green" stroke="green" points="362.21,-133.98 366.44,-143.7 369.19,-133.46 362.21,-133.98"/>
</g>
<!-- MAP3K1&#45;&gt;MAP3K7 -->
<g id="edge65" class="edge">
<title>MAP3K1&#45;&gt;MAP3K7</title>
<path fill="none" stroke="green" d="M328.48,-215.7C332.11,-207.44 337.36,-197.39 342.75,-188.3"/>
<polygon fill="green" stroke="green" points="345.84,-189.97 348.13,-179.62 339.89,-186.28 345.84,-189.97"/>
</g>
<!-- INCENP -->
<g id="node20" class="node">
<title>INCENP</title>
<ellipse fill="lightgray" stroke="black" cx="898" cy="-522" rx="50.09" ry="18"/>
<text text-anchor="middle" x="898" y="-518.3" font-family="Times,serif" font-size="14.00">INCENP</text>
</g>
<!-- PLK1 -->
<g id="node21" class="node">
<title>PLK1</title>
<ellipse fill="lightgray" stroke="black" cx="968" cy="-450" rx="36" ry="18"/>
<text text-anchor="middle" x="968" y="-446.3" font-family="Times,serif" font-size="14.00">PLK1</text>
</g>
<!-- INCENP&#45;&gt;PLK1 -->
<g id="edge43" class="edge">
<title>INCENP&#45;&gt;PLK1</title>
<path fill="none" stroke="green" d="M914.24,-504.76C923.38,-495.62 934.94,-484.06 945,-474"/>
<polygon fill="green" stroke="green" points="947.74,-476.21 952.33,-466.67 942.79,-471.26 947.74,-476.21"/>
</g>
<!-- PLK1&#45;&gt;VIM -->
<g id="edge44" class="edge">
<title>PLK1&#45;&gt;VIM</title>
<path fill="none" stroke="green" d="M986.27,-465.59C1047.25,-516.06 1240,-690.64 1240,-881 1240,-1099 1240,-1099 1240,-1099 1240,-1139.4 1231.96,-1185.64 1226.08,-1214.08"/>
<polygon fill="green" stroke="green" points="1222.61,-1213.55 1223.95,-1224.06 1229.46,-1215.01 1222.61,-1213.55"/>
</g>
<!-- PLK1&#45;&gt;TP53 -->
<g id="edge45" class="edge">
<title>PLK1&#45;&gt;TP53</title>
<path fill="none" stroke="red" d="M942.07,-437.44C914.41,-425.11 870.63,-405.59 841.37,-392.54"/>
<polygon fill="red" stroke="red" points="835.32,-395.32 839.39,-386.18 841.22,-387 837.15,-396.13 835.32,-395.32"/>
<polyline fill="none" stroke="red" points="836.44,-390.34 841.01,-392.38 "/>
</g>
<!-- PLK1&#45;&gt;CDK1 -->
<g id="edge56" class="edge">
<title>PLK1&#45;&gt;CDK1</title>
<path fill="none" stroke="green" d="M974.02,-468.01C975.31,-486.13 972.68,-515.52 966,-540 963.4,-549.52 959.4,-559.56 954.95,-568.3"/>
<polygon fill="green" stroke="green" points="951.81,-566.76 949.99,-577.2 957.92,-570.17 951.81,-566.76"/>
</g>
<!-- PLK1&#45;&gt;PRKACA -->
<g id="edge88" class="edge">
<title>PLK1&#45;&gt;PRKACA</title>
<path fill="none" stroke="green" d="M996.33,-461.22C1072.86,-490.85 1278,-584.51 1278,-737 1278,-1171 1278,-1171 1278,-1171 1278,-1212.22 1292.43,-1258.17 1303.02,-1286.34"/>
<polygon fill="green" stroke="green" points="1299.84,-1287.81 1306.71,-1295.87 1306.36,-1285.28 1299.84,-1287.81"/>
</g>
<!-- FOS&#45;&gt;TP53 -->
<g id="edge52" class="edge">
<title>FOS&#45;&gt;TP53</title>
<path fill="none" stroke="red" d="M144.65,-19.69C200.39,-21.95 321.08,-31.54 413,-72 579.9,-145.47 740.14,-302.91 792.88,-357.72"/>
<polygon fill="red" stroke="red" points="799.4,-357.3 792.19,-364.22 790.8,-362.78 798.02,-355.86 799.4,-357.3"/>
<polyline fill="none" stroke="red" points="796.49,-361.48 793.03,-357.87 "/>
</g>
<!-- FOS&#45;&gt;CDK1 -->
<g id="edge47" class="edge">
<title>FOS&#45;&gt;CDK1</title>
<path fill="none" stroke="green" d="M120.04,-35.66C139.64,-87.3 206.7,-245.88 317,-324 511.73,-461.92 788.37,-550.97 892.36,-581.36"/>
<polygon fill="green" stroke="green" points="891.58,-584.78 902.16,-584.2 893.53,-578.05 891.58,-584.78"/>
</g>
<!-- CDK1&#45;&gt;VIM -->
<g id="edge49" class="edge">
<title>CDK1&#45;&gt;VIM</title>
<path fill="none" stroke="purple" d="M947.92,-610.75C975.6,-642.79 1038.09,-718.76 1075,-792 1150.46,-941.75 1197.96,-1139.11 1213.96,-1212.18"/>
<polygon fill="purple" stroke="purple" points="1213.97,-1212.24 1219.14,-1217.26 1216.5,-1223.97 1211.32,-1218.94 1213.97,-1212.24"/>
</g>
<!-- CDK1&#45;&gt;LATS1 -->
<g id="edge48" class="edge">
<title>CDK1&#45;&gt;LATS1</title>
<path fill="none" stroke="green" d="M958.81,-580.31C975.41,-570.89 996.89,-556.8 1012,-540 1060.53,-486.04 1071.36,-466.4 1089,-396 1108.29,-319 1059.5,-230.32 1031.71,-188"/>
<polygon fill="green" stroke="green" points="1034.45,-185.8 1025.97,-179.45 1028.64,-189.7 1034.45,-185.8"/>
</g>
<!-- CDK1&#45;&gt;TP53 -->
<g id="edge54" class="edge">
<title>CDK1&#45;&gt;TP53</title>
<path fill="none" stroke="green" d="M900.81,-585.46C876.99,-577.71 846.61,-563.41 830,-540 801.56,-499.91 798.79,-440.35 802.76,-406.03"/>
<polygon fill="green" stroke="green" points="806.27,-406.23 804.26,-395.83 799.34,-405.21 806.27,-406.23"/>
</g>
<!-- CDK1&#45;&gt;INCENP -->
<g id="edge55" class="edge">
<title>CDK1&#45;&gt;INCENP</title>
<path fill="none" stroke="green" d="M925.47,-576.41C921.27,-568.25 916.11,-558.22 911.41,-549.07"/>
<polygon fill="green" stroke="green" points="914.41,-547.25 906.72,-539.96 908.18,-550.45 914.41,-547.25"/>
</g>
<!-- CDK1&#45;&gt;PLK1 -->
<g id="edge57" class="edge">
<title>CDK1&#45;&gt;PLK1</title>
<path fill="none" stroke="green" d="M935.09,-575.79C938.87,-565.64 944.62,-552.39 948,-540 953.59,-519.5 956.34,-495.57 959.06,-477.69"/>
<polygon fill="green" stroke="green" points="962.54,-478.12 960.73,-467.68 955.64,-476.97 962.54,-478.12"/>
</g>
<!-- MAP3K7&#45;&gt;MAP4K4 -->
<g id="edge62" class="edge">
<title>MAP3K7&#45;&gt;MAP4K4</title>
<path fill="none" stroke="green" d="M354.7,-144.05C352.78,-136.35 351.21,-127.03 350.3,-118.36"/>
<polygon fill="green" stroke="green" points="353.79,-117.99 349.56,-108.28 346.81,-118.51 353.79,-117.99"/>
</g>
<!-- MAP3K7&#45;&gt;MAP3K1 -->
<g id="edge66" class="edge">
<title>MAP3K7&#45;&gt;MAP3K1</title>
<path fill="none" stroke="green" d="M359.46,-180.45C355.82,-188.7 350.58,-198.71 345.21,-207.77"/>
<polygon fill="green" stroke="green" points="342.14,-206.07 339.85,-216.41 348.09,-209.76 342.14,-206.07"/>
</g>
<!-- MAP3K7&#45;&gt;RAP1A -->
<g id="edge59" class="edge">
<title>MAP3K7&#45;&gt;RAP1A</title>
<path fill="none" stroke="green" d="M405.85,-151.99C468.38,-138.85 584.21,-114.5 649,-100.88"/>
<polygon fill="green" stroke="green" points="649.88,-104.27 658.94,-98.79 648.44,-97.42 649.88,-104.27"/>
</g>
<!-- RAP1A&#45;&gt;CDH1 -->
<g id="edge60" class="edge">
<title>RAP1A&#45;&gt;CDH1</title>
<path fill="none" stroke="green" d="M708.97,-107.62C713.21,-115.53 717.6,-125.17 721.05,-134.08"/>
<polygon fill="green" stroke="green" points="717.83,-135.47 724.5,-143.7 724.42,-133.1 717.83,-135.47"/>
</g>
<!-- RAP1A&#45;&gt;CDC42 -->
<g id="edge63" class="edge">
<title>RAP1A&#45;&gt;CDC42</title>
<path fill="none" stroke="green" d="M677.03,-106.23C650.67,-128.2 602.71,-171.09 572,-216 455.62,-386.18 440.28,-445.23 403,-648 400.11,-663.74 396.88,-669.22 403,-684 408.02,-696.12 417.3,-706.91 426.71,-715.54"/>
<polygon fill="green" stroke="green" points="424.68,-718.41 434.55,-722.26 429.24,-713.1 424.68,-718.41"/>
</g>
<!-- RAP1A&#45;&gt;ITGB1 -->
<g id="edge64" class="edge">
<title>RAP1A&#45;&gt;ITGB1</title>
<path fill="none" stroke="green" d="M737.32,-86.08C895.9,-74.88 1465.25,-34.66 1637.37,-22.51"/>
<polygon fill="green" stroke="green" points="1637.68,-25.99 1647.41,-21.8 1637.19,-19.01 1637.68,-25.99"/>
</g>
<!-- RAP1A&#45;&gt;RHOA -->
<g id="edge125" class="edge">
<title>RAP1A&#45;&gt;RHOA</title>
<path fill="none" stroke="red" d="M668.77,-103.95C561.78,-156.93 176,-368.51 176,-665 176,-811 176,-811 176,-811 176,-904.78 277.36,-872.1 346,-936 484.46,-1064.89 456.75,-1167.93 622,-1260 714.69,-1311.64 754.66,-1271.95 858,-1296 909.75,-1308.04 919.94,-1321.36 972,-1332 1154.84,-1369.37 1377.88,-1380.61 1470.94,-1383.81"/>
<polygon fill="red" stroke="red" points="1475.24,-1378.95 1474.91,-1388.94 1472.91,-1388.88 1473.24,-1378.88 1475.24,-1378.95"/>
<polyline fill="none" stroke="red" points="1476.07,-1383.98 1471.08,-1383.81 "/>
</g>
<!-- GADD45A&#45;&gt;CDK1 -->
<g id="edge72" class="edge">
<title>GADD45A&#45;&gt;CDK1</title>
<path fill="none" stroke="red" d="M855.96,-322.32C903.77,-351.92 1004.32,-415.51 1013,-432 1039.75,-482.83 986.91,-544.02 955.31,-574.23"/>
<polygon fill="red" stroke="red" points="955.72,-580.71 948.86,-573.44 950.32,-572.07 957.18,-579.34 955.72,-580.71"/>
<polyline fill="none" stroke="red" points="951.56,-577.76 955.2,-574.33 "/>
</g>
<!-- P06493_P14635 -->
<g id="node27" class="node">
<title>P06493_P14635</title>
<ellipse fill="lightgray" stroke="black" cx="840" cy="-234" rx="86.38" ry="18"/>
<text text-anchor="middle" x="840" y="-230.3" font-family="Times,serif" font-size="14.00">P06493_P14635</text>
</g>
<!-- GADD45A&#45;&gt;P06493_P14635 -->
<g id="edge68" class="edge">
<title>GADD45A&#45;&gt;P06493_P14635</title>
<path fill="none" stroke="red" d="M833.22,-287.7C834.41,-278.46 835.89,-266.98 837.16,-257.11"/>
<polygon fill="red" stroke="red" points="832.71,-252.46 842.63,-253.73 842.38,-255.72 832.46,-254.44 832.71,-252.46"/>
<polyline fill="none" stroke="red" points="837.8,-252.1 837.16,-257.06 "/>
</g>
<!-- P06493_P14635&#45;&gt;CDH1 -->
<g id="edge69" class="edge">
<title>P06493_P14635&#45;&gt;CDH1</title>
<path fill="none" stroke="green" d="M813.56,-216.76C796.76,-206.45 774.92,-193.04 757.26,-182.2"/>
<polygon fill="green" stroke="green" points="758.81,-179.04 748.45,-176.79 755.14,-185 758.81,-179.04"/>
</g>
<!-- P06493_P14635&#45;&gt;LATS1 -->
<g id="edge70" class="edge">
<title>P06493_P14635&#45;&gt;LATS1</title>
<path fill="none" stroke="green" d="M878.19,-217.64C907.13,-206 946.72,-190.07 975.69,-178.41"/>
<polygon fill="green" stroke="green" points="977.11,-181.61 985.08,-174.63 974.5,-175.12 977.11,-181.61"/>
</g>
<!-- RAC1&#45;&gt;CDH1 -->
<g id="edge93" class="edge">
<title>RAC1&#45;&gt;CDH1</title>
<path fill="none" stroke="red" d="M1630.29,-300.15C1484.51,-278.91 922.97,-194.01 766.58,-169.6"/>
<polygon fill="red" stroke="red" points="761.84,-173.92 763.39,-164.04 765.36,-164.35 763.82,-174.23 761.84,-173.92"/>
<polyline fill="none" stroke="red" points="761.63,-168.82 766.57,-169.6 "/>
</g>
<!-- RAC1&#45;&gt;PRKCA -->
<g id="edge109" class="edge">
<title>RAC1&#45;&gt;PRKCA</title>
<path fill="none" stroke="green" d="M1644.55,-321.14C1628.68,-330.6 1607.11,-344.2 1591,-360 1522.35,-427.31 1526.53,-461.51 1471,-540 1309.28,-768.58 1298,-853.28 1093,-1044 1033.72,-1099.15 945.5,-1137.22 892.55,-1155.86"/>
<polygon fill="green" stroke="green" points="891.4,-1152.55 883.09,-1159.11 893.68,-1159.17 891.4,-1152.55"/>
</g>
<!-- RAC1&#45;&gt;ITGB1 -->
<g id="edge135" class="edge">
<title>RAC1&#45;&gt;ITGB1</title>
<path fill="none" stroke="green" d="M1668.48,-287.97C1673.65,-277.88 1681.15,-264.63 1686,-252 1709.52,-190.8 1710.85,-173.17 1718,-108 1719.75,-92.1 1723.08,-87.17 1718,-72 1714.63,-61.94 1708.51,-52.26 1702.48,-44"/>
<polygon fill="green" stroke="green" points="1705.18,-41.77 1696.34,-35.93 1699.61,-46.01 1705.18,-41.77"/>
</g>
<!-- RAC1&#45;&gt;TP53 -->
<g id="edge151" class="edge">
<title>RAC1&#45;&gt;TP53</title>
<path fill="none" stroke="green" d="M1629.44,-310.16C1531.67,-318.26 1251.42,-340.55 1018,-360 962.06,-364.66 897.24,-370.26 855.12,-373.73"/>
<polygon fill="green" stroke="green" points="854.6,-370.26 844.92,-374.56 855.17,-377.24 854.6,-370.26"/>
</g>
<!-- RAC1&#45;&gt;MAP3K1 -->
<g id="edge96" class="edge">
<title>RAC1&#45;&gt;MAP3K1</title>
<path fill="none" stroke="green" d="M1628.81,-303.11C1445.38,-293.53 617.97,-250.3 385.76,-238.17"/>
<polygon fill="green" stroke="green" points="385.65,-234.66 375.48,-237.64 385.29,-241.65 385.65,-234.66"/>
</g>
<!-- RAC1&#45;&gt;SRC -->
<g id="edge74" class="edge">
<title>RAC1&#45;&gt;SRC</title>
<path fill="none" stroke="green" d="M1662.89,-287.85C1663.16,-250.66 1671.98,-162.37 1679.6,-117.77"/>
<polygon fill="green" stroke="green" points="1683.04,-118.4 1681.4,-107.94 1676.15,-117.14 1683.04,-118.4"/>
</g>
<!-- RAC1&#45;&gt;BCAR1 -->
<g id="edge163" class="edge">
<title>RAC1&#45;&gt;BCAR1</title>
<path fill="none" stroke="green" d="M1671.83,-323.7C1681.14,-362.01 1694.04,-459.12 1707,-540 1731.35,-692.02 1768,-727.04 1768,-881 1768,-1027 1768,-1027 1768,-1027 1768,-1230.88 1819.96,-1333.65 1674,-1476 1640.43,-1508.74 1506.02,-1521.79 1429.59,-1526.55"/>
<polygon fill="green" stroke="green" points="1428.98,-1523.08 1419.21,-1527.16 1429.4,-1530.06 1428.98,-1523.08"/>
</g>
<!-- SRC&#45;&gt;FLT4 -->
<g id="edge120" class="edge">
<title>SRC&#45;&gt;FLT4</title>
<path fill="none" stroke="green" d="M1717.47,-91.72C1773.93,-94.01 1896.71,-103.62 1990,-144 2309.56,-282.3 2502,-388.8 2502,-737 2502,-1603 2502,-1603 2502,-1603 2502,-1706.83 2387.19,-1668.75 2286,-1692 2150.41,-1723.15 1718.28,-1739.35 1577.62,-1743.75"/>
<polygon fill="green" stroke="green" points="1577.5,-1740.25 1567.61,-1744.06 1577.72,-1747.25 1577.5,-1740.25"/>
</g>
<!-- SRC&#45;&gt;PTK2 -->
<g id="edge97" class="edge">
<title>SRC&#45;&gt;PTK2</title>
<path fill="none" stroke="green" d="M1717.83,-91.26C1768.4,-92.82 1869.67,-101.32 1941,-144 2089.53,-232.87 2446,-563.91 2446,-737 2446,-1243 2446,-1243 2446,-1243 2446,-1339.6 2408,-1360.4 2408,-1457 2408,-1531 2408,-1531 2408,-1531 2408,-1590.5 2362.84,-1596.93 2308,-1620 2241.26,-1648.07 1736.1,-1666.67 1579.23,-1671.65"/>
<polygon fill="green" stroke="green" points="1578.87,-1668.16 1568.98,-1671.98 1579.09,-1675.16 1578.87,-1668.16"/>
</g>
<!-- SRC&#45;&gt;CDH1 -->
<g id="edge91" class="edge">
<title>SRC&#45;&gt;CDH1</title>
<path fill="none" stroke="green" d="M1656.96,-93.38C1518.77,-103.84 944.63,-145.67 773.98,-157.73"/>
<polygon fill="green" stroke="green" points="773.53,-154.25 763.8,-158.45 774.02,-161.23 773.53,-154.25"/>
</g>
<!-- SRC&#45;&gt;CDC42 -->
<g id="edge129" class="edge">
<title>SRC&#45;&gt;CDC42</title>
<path fill="none" stroke="green" d="M1656.29,-90.35C1561.9,-88.95 1278.2,-89.47 1208,-144 1086.48,-238.39 1154.22,-330.08 1086,-468 1069.27,-501.82 1063.13,-509.43 1041,-540 1016.57,-573.74 1016.4,-590.05 981,-612 828.13,-706.76 609.34,-729.69 509.43,-735.24"/>
<polygon fill="green" stroke="green" points="509.08,-731.75 499.28,-735.76 509.45,-738.74 509.08,-731.75"/>
</g>
<!-- SRC&#45;&gt;CDH2 -->
<g id="edge115" class="edge">
<title>SRC&#45;&gt;CDH2</title>
<path fill="none" stroke="red" d="M1716.82,-85.72C1819.79,-74.38 2160.6,-36.87 2280.68,-23.66"/>
<polygon fill="red" stroke="red" points="2284.35,-18.22 2285.44,-28.16 2283.45,-28.38 2282.36,-18.44 2284.35,-18.22"/>
<polyline fill="none" stroke="red" points="2285.89,-23.08 2280.92,-23.63 "/>
</g>
<!-- SRC&#45;&gt;PTPN1 -->
<g id="edge141" class="edge">
<title>SRC&#45;&gt;PTPN1</title>
<path fill="none" stroke="red" d="M1658.63,-97.05C1603.22,-110.71 1486,-149.47 1486,-233 1486,-451 1486,-451 1486,-451 1486,-738.61 1448,-809.39 1448,-1097 1448,-1171 1448,-1171 1448,-1171 1448,-1272.38 1512.61,-1280.02 1563,-1368 1576.24,-1391.11 1591.16,-1417.75 1601.23,-1435.82"/>
<polygon fill="red" stroke="red" points="1607.56,-1436.92 1598.83,-1441.78 1597.85,-1440.03 1606.59,-1435.17 1607.56,-1436.92"/>
<polyline fill="none" stroke="red" points="1603.68,-1440.22 1601.25,-1435.85 "/>
</g>
<!-- SRC&#45;&gt;PRKCA -->
<g id="edge107" class="edge">
<title>SRC&#45;&gt;PRKCA</title>
<path fill="none" stroke="green" d="M1656.68,-93.15C1580.25,-98.93 1381.57,-116.26 1322,-144 1268.06,-169.11 1222,-173.5 1222,-233 1222,-451 1222,-451 1222,-451 1222,-756.3 952.73,-1060.44 871.15,-1145.58"/>
<polygon fill="green" stroke="green" points="868.5,-1143.28 864.07,-1152.91 873.54,-1148.15 868.5,-1143.28"/>
</g>
<!-- SRC&#45;&gt;ITGB1 -->
<g id="edge133" class="edge">
<title>SRC&#45;&gt;ITGB1</title>
<path fill="none" stroke="green" d="M1681.12,-72.05C1680.3,-64.35 1680.06,-55.03 1680.39,-46.36"/>
<polygon fill="green" stroke="green" points="1683.89,-46.49 1681.09,-36.28 1676.91,-46.01 1683.89,-46.49"/>
</g>
<!-- SRC&#45;&gt;FOS -->
<g id="edge126" class="edge">
<title>SRC&#45;&gt;FOS</title>
<path fill="none" stroke="green" d="M1656.63,-87.65C1460.94,-78.94 378.69,-30.78 154.61,-20.81"/>
<polygon fill="green" stroke="green" points="154.45,-17.3 144.3,-20.35 154.14,-24.29 154.45,-17.3"/>
</g>
<!-- SRC&#45;&gt;RAC1 -->
<g id="edge152" class="edge">
<title>SRC&#45;&gt;RAC1</title>
<path fill="none" stroke="green" d="M1689.12,-108.01C1688.87,-145.08 1680.05,-233.39 1672.43,-278.09"/>
<polygon fill="green" stroke="green" points="1668.93,-277.74 1670.57,-288.21 1675.82,-279 1668.93,-277.74"/>
</g>
<!-- SRC&#45;&gt;SHC1 -->
<g id="edge153" class="edge">
<title>SRC&#45;&gt;SHC1</title>
<path fill="none" stroke="green" d="M1709.44,-102.28C1777.59,-141.51 1976,-278.96 1976,-449 1976,-739 1976,-739 1976,-739 1976,-772.45 1924.57,-993.14 1901.31,-1070.37"/>
<polygon fill="green" stroke="green" points="1897.86,-1069.69 1898.23,-1080.28 1904.54,-1071.77 1897.86,-1069.69"/>
</g>
<!-- SRC&#45;&gt;GRB2 -->
<g id="edge154" class="edge">
<title>SRC&#45;&gt;GRB2</title>
<path fill="none" stroke="green" d="M1717.39,-92.56C1757.77,-96.07 1828.72,-107.43 1875,-144 1885.86,-152.58 1993.13,-347.47 1999,-360 2016.9,-398.2 2032,-406.81 2032,-449 2032,-739 2032,-739 2032,-739 2032,-779 2032,-825.35 2029.71,-853.92"/>
<polygon fill="green" stroke="green" points="2026.22,-853.65 2028.71,-863.95 2033.18,-854.35 2026.22,-853.65"/>
</g>
<!-- SRC&#45;&gt;PLCG1 -->
<g id="edge155" class="edge">
<title>SRC&#45;&gt;PLCG1</title>
<path fill="none" stroke="green" d="M1657.07,-93.85C1590.46,-100.13 1433.04,-116.8 1387,-144 1343.44,-169.74 1316,-182.4 1316,-233 1316,-451 1316,-451 1316,-451 1316,-612.43 1136.58,-743.41 1058.44,-790.36"/>
<polygon fill="green" stroke="green" points="1056.27,-787.58 1049.43,-795.67 1059.82,-793.61 1056.27,-787.58"/>
</g>
<!-- SRC&#45;&gt;BCAR1 -->
<g id="edge156" class="edge">
<title>SRC&#45;&gt;BCAR1</title>
<path fill="none" stroke="green" d="M1657.19,-95.01C1601.88,-102.31 1486.82,-119.32 1455,-144 1419.97,-171.16 1410,-188.68 1410,-233 1410,-1387 1410,-1387 1410,-1387 1410,-1427.8 1399.87,-1474.2 1390.18,-1502.54"/>
<polygon fill="green" stroke="green" points="1386.82,-1501.53 1386.65,-1512.12 1393.39,-1503.95 1386.82,-1501.53"/>
</g>
<!-- SRC&#45;&gt;PRKACA -->
<g id="edge157" class="edge">
<title>SRC&#45;&gt;PRKACA</title>
<path fill="none" stroke="green" d="M1698.4,-107.18C1701.99,-117.64 1704.91,-131.58 1707,-144 1723.07,-239.46 1728.76,-263.4 1735,-360 1743.9,-497.95 1674,-526.76 1674,-665 1674,-955 1674,-955 1674,-955 1674,-1029.67 1670.71,-1056.2 1626,-1116 1556.17,-1209.4 1428.02,-1271.02 1359.6,-1297.77"/>
<polygon fill="green" stroke="green" points="1358.04,-1294.62 1349.95,-1301.47 1360.55,-1301.16 1358.04,-1294.62"/>
</g>
<!-- RHOA&#45;&gt;PTK2 -->
<g id="edge100" class="edge">
<title>RHOA&#45;&gt;PTK2</title>
<path fill="none" stroke="green" d="M1519.47,-1403.94C1526.66,-1451.62 1535.45,-1587.25 1535.45,-1645.68"/>
<polygon fill="green" stroke="green" points="1531.95,-1645.93 1535.34,-1655.97 1538.95,-1646 1531.95,-1645.93"/>
</g>
<!-- RHOA&#45;&gt;PTPN1 -->
<g id="edge143" class="edge">
<title>RHOA&#45;&gt;PTPN1</title>
<path fill="none" stroke="red" d="M1538.95,-1400.24C1555.33,-1410.86 1576.62,-1425.9 1592.27,-1437.84"/>
<polygon fill="red" stroke="red" points="1598.78,-1436.54 1592.68,-1444.47 1591.1,-1443.25 1597.2,-1435.32 1598.78,-1436.54"/>
<polyline fill="none" stroke="red" points="1596.52,-1441.12 1592.56,-1438.06 "/>
</g>
<!-- RHOA&#45;&gt;PRKCA -->
<g id="edge111" class="edge">
<title>RHOA&#45;&gt;PRKCA</title>
<path fill="none" stroke="green" d="M1476.47,-1383.04C1381.83,-1377.54 1141.06,-1360.51 1067,-1332 1023.82,-1315.38 918.2,-1233.98 871.05,-1193.68"/>
<polygon fill="green" stroke="green" points="873.33,-1191.02 863.48,-1187.12 868.75,-1196.31 873.33,-1191.02"/>
</g>
<!-- RHOA&#45;&gt;ITGB1 -->
<g id="edge137" class="edge">
<title>RHOA&#45;&gt;ITGB1</title>
<path fill="none" stroke="green" d="M1548,-1376.3C1583.15,-1367.5 1639.59,-1352.31 1686,-1332 1800.31,-1281.98 1823.22,-1257.27 1927,-1188 2121.64,-1058.09 2202,-973.01 2202,-739 2202,-739 2202,-739 2202,-593 2202,-431.29 2267,-396.71 2267,-235 2267,-235 2267,-235 2267,-161 2267,-51.71 1878.92,-26.28 1737.59,-20.58"/>
<polygon fill="green" stroke="green" points="1737.58,-17.08 1727.45,-20.19 1737.31,-24.08 1737.58,-17.08"/>
</g>
<!-- RHOA&#45;&gt;FOS -->
<g id="edge127" class="edge">
<title>RHOA&#45;&gt;FOS</title>
<path fill="none" stroke="green" d="M1476.14,-1383.64C1318.32,-1377.54 726.06,-1349.03 565,-1260 429.19,-1184.92 100,-894.18 100,-739 100,-739 100,-739 100,-593 100,-431.52 38,-396.48 38,-235 38,-235 38,-235 38,-161 38,-114.37 70.25,-68.24 92.73,-41.74"/>
<polygon fill="green" stroke="green" points="95.4,-44 99.35,-34.17 90.13,-39.4 95.4,-44"/>
</g>
<!-- RHOA&#45;&gt;RAC1 -->
<g id="edge159" class="edge">
<title>RHOA&#45;&gt;RAC1</title>
<path fill="none" stroke="red" d="M1522.08,-1368.14C1545.35,-1311.16 1618,-1120.04 1618,-955 1618,-955 1618,-955 1618,-449 1618,-404.08 1639.46,-355.02 1653.38,-327.94"/>
<polygon fill="red" stroke="red" points="1650.82,-322.04 1659.69,-326.66 1658.76,-328.43 1649.89,-323.81 1650.82,-322.04"/>
<polyline fill="none" stroke="red" points="1655.71,-323.46 1653.4,-327.9 "/>
</g>
<!-- RHOA&#45;&gt;SRC -->
<g id="edge76" class="edge">
<title>RHOA&#45;&gt;SRC</title>
<path fill="none" stroke="red" d="M1544.7,-1374.24C1623,-1344.53 1837.78,-1254.35 1965,-1116 1989.78,-1089.05 1988.57,-1076.71 2005,-1044 2020.76,-1012.63 2058.69,-933.24 2070,-900 2093.68,-830.4 2108,-812.52 2108,-739 2108,-739 2108,-739 2108,-521 2108,-425.32 1976.85,-201 1900,-144 1846.95,-104.66 1768.1,-94.29 1722.7,-91.7"/>
<polygon fill="red" stroke="red" points="1718.34,-96.48 1718.86,-86.5 1720.86,-86.6 1720.34,-96.59 1718.34,-96.48"/>
<polyline fill="none" stroke="red" points="1717.6,-91.44 1722.6,-91.7 "/>
</g>
<!-- RHOA&#45;&gt;SHC1 -->
<g id="edge165" class="edge">
<title>RHOA&#45;&gt;SHC1</title>
<path fill="none" stroke="red" d="M1530.96,-1369.51C1561.94,-1339.78 1632.89,-1273.3 1698,-1224 1754.42,-1181.27 1825.26,-1137.77 1863.49,-1115.06"/>
<polygon fill="red" stroke="red" points="1864.58,-1108.61 1869.67,-1117.21 1867.95,-1118.23 1862.86,-1109.63 1864.58,-1108.61"/>
<polyline fill="none" stroke="red" points="1867.99,-1112.4 1863.68,-1114.95 "/>
</g>
<!-- RHOA&#45;&gt;GRB2 -->
<g id="edge166" class="edge">
<title>RHOA&#45;&gt;GRB2</title>
<path fill="none" stroke="red" d="M1538.81,-1371.67C1556.97,-1361.31 1582.43,-1346.33 1604,-1332 1716.25,-1257.43 1730.26,-1217.56 1848,-1152 1885.64,-1131.04 1908.01,-1146.93 1938,-1116 1996.88,-1055.28 2015.45,-950.56 2020.9,-905.11"/>
<polygon fill="red" stroke="red" points="2016.39,-900.55 2026.33,-901.69 2026.1,-903.68 2016.16,-902.54 2016.39,-900.55"/>
<polyline fill="none" stroke="red" points="2021.47,-900.13 2020.9,-905.1 "/>
</g>
<!-- RHOA&#45;&gt;PLCG1 -->
<g id="edge167" class="edge">
<title>RHOA&#45;&gt;PLCG1</title>
<path fill="none" stroke="green" d="M1476.16,-1383.64C1399.64,-1378.84 1229.6,-1357.26 1138,-1260 1022.27,-1137.12 1012.83,-916.12 1018.16,-838.7"/>
<polygon fill="green" stroke="green" points="1021.68,-838.61 1019.05,-828.35 1014.71,-838.01 1021.68,-838.61"/>
</g>
<!-- RHOA&#45;&gt;PRKACA -->
<g id="edge169" class="edge">
<title>RHOA&#45;&gt;PRKACA</title>
<path fill="none" stroke="green" d="M1484.91,-1374.52C1451.43,-1362.86 1397.01,-1343.91 1358.58,-1330.53"/>
<polygon fill="green" stroke="green" points="1359.28,-1327.06 1348.69,-1327.08 1356.98,-1333.68 1359.28,-1327.06"/>
</g>
<!-- RASA1&#45;&gt;INSR -->
<g id="edge147" class="edge">
<title>RASA1&#45;&gt;INSR</title>
<path fill="none" stroke="green" d="M1554.16,-972.28C1555.07,-980.03 1555.43,-989.36 1555.2,-998.01"/>
<polygon fill="green" stroke="green" points="1551.71,-997.87 1554.64,-1008.05 1558.7,-998.27 1551.71,-997.87"/>
</g>
<!-- RASA1&#45;&gt;RAC1 -->
<g id="edge160" class="edge">
<title>RASA1&#45;&gt;RAC1</title>
<path fill="none" stroke="red" d="M1554.48,-935.79C1563.83,-909.36 1580,-856.99 1580,-811 1580,-811 1580,-811 1580,-449 1580,-408.03 1582.26,-394.72 1604,-360 1612.96,-345.68 1626.99,-333.11 1639.33,-323.81"/>
<polygon fill="red" stroke="red" points="1639.67,-317.35 1645.6,-325.4 1643.99,-326.59 1638.06,-318.53 1639.67,-317.35"/>
<polyline fill="none" stroke="red" points="1643.44,-320.78 1639.41,-323.75 "/>
</g>
<!-- RASA1&#45;&gt;SRC -->
<g id="edge79" class="edge">
<title>RASA1&#45;&gt;SRC</title>
<path fill="none" stroke="green" d="M1539.82,-936.33C1515.93,-886.07 1448,-731.16 1448,-595 1448,-595 1448,-595 1448,-233 1448,-192.03 1442.72,-172.65 1472,-144 1496.59,-119.94 1591.87,-103.62 1646.99,-95.97"/>
<polygon fill="green" stroke="green" points="1647.68,-99.41 1657.12,-94.6 1646.74,-92.48 1647.68,-99.41"/>
</g>
<!-- RASA1&#45;&gt;SHC1 -->
<g id="edge170" class="edge">
<title>RASA1&#45;&gt;SHC1</title>
<path fill="none" stroke="green" d="M1577.56,-967.24C1640.05,-993.11 1785.42,-1053.29 1853.97,-1081.67"/>
<polygon fill="green" stroke="green" points="1852.93,-1085.03 1863.51,-1085.62 1855.61,-1078.56 1852.93,-1085.03"/>
</g>
<!-- RASA1&#45;&gt;GRB2 -->
<g id="edge171" class="edge">
<title>RASA1&#45;&gt;GRB2</title>
<path fill="none" stroke="green" d="M1587.28,-947.21C1674.69,-934.33 1884.88,-903.36 1977.67,-889.68"/>
<polygon fill="green" stroke="green" points="1978.21,-893.14 1987.6,-888.22 1977.19,-886.21 1978.21,-893.14"/>
</g>
<!-- RASA1&#45;&gt;PLCG1 -->
<g id="edge172" class="edge">
<title>RASA1&#45;&gt;PLCG1</title>
<path fill="none" stroke="red" d="M1513.15,-943.57C1419.46,-918.23 1162.57,-848.75 1063.09,-821.84"/>
<polygon fill="red" stroke="red" points="1057.84,-825.6 1060.46,-815.95 1062.39,-816.47 1059.78,-826.13 1057.84,-825.6"/>
<polyline fill="none" stroke="red" points="1058.19,-820.52 1063.01,-821.82 "/>
</g>
<!-- SHC1&#45;&gt;PTK2 -->
<g id="edge102" class="edge">
<title>SHC1&#45;&gt;PTK2</title>
<path fill="none" stroke="green" d="M1924.78,-1106.17C2001.61,-1125.72 2182,-1187.16 2182,-1313 2182,-1531 2182,-1531 2182,-1531 2182,-1653.82 1727.13,-1670.48 1578.96,-1672.68"/>
<polygon fill="green" stroke="green" points="1578.78,-1669.18 1568.83,-1672.82 1578.87,-1676.18 1578.78,-1669.18"/>
</g>
<!-- SHC1&#45;&gt;INSR -->
<g id="edge149" class="edge">
<title>SHC1&#45;&gt;INSR</title>
<path fill="none" stroke="green" d="M1856.29,-1090.73C1792.77,-1078.41 1658.56,-1050.99 1590.41,-1036.46"/>
<polygon fill="green" stroke="green" points="1590.97,-1033 1580.46,-1034.33 1589.5,-1039.84 1590.97,-1033"/>
</g>
<!-- SHC1&#45;&gt;RAC1 -->
<g id="edge161" class="edge">
<title>SHC1&#45;&gt;RAC1</title>
<path fill="none" stroke="green" d="M1881.71,-1080.54C1868.02,-1054.66 1844,-1002.52 1844,-955 1844,-955 1844,-955 1844,-881 1844,-752.77 1806,-723.23 1806,-595 1806,-595 1806,-595 1806,-521 1806,-441.1 1774.88,-423.21 1726,-360 1716.61,-347.86 1704.1,-336.41 1692.85,-327.28"/>
<polygon fill="green" stroke="green" points="1694.97,-324.5 1684.95,-321.07 1690.65,-330 1694.97,-324.5"/>
</g>
<!-- SHC1&#45;&gt;SRC -->
<g id="edge81" class="edge">
<title>SHC1&#45;&gt;SRC</title>
<path fill="none" stroke="green" d="M1891.8,-1079.83C1901.87,-1013.22 1958,-773.95 1958,-739 1958,-739 1958,-739 1958,-449 1958,-289.29 1782.95,-158.33 1714.12,-110.5"/>
<polygon fill="green" stroke="green" points="1715.73,-107.36 1705.52,-104.56 1711.76,-113.12 1715.73,-107.36"/>
</g>
<!-- SHC1&#45;&gt;GRB2 -->
<g id="edge173" class="edge">
<title>SHC1&#45;&gt;GRB2</title>
<path fill="none" stroke="green" d="M1893.78,-1079.97C1904.82,-1049.95 1937.25,-986.05 1971,-936 1978.25,-925.26 1987.15,-914.02 1995.67,-904.67"/>
<polygon fill="green" stroke="green" points="1998.32,-906.96 2002.7,-897.31 1993.26,-902.13 1998.32,-906.96"/>
</g>
<!-- GRB2&#45;&gt;PTK2 -->
<g id="edge104" class="edge">
<title>GRB2&#45;&gt;PTK2</title>
<path fill="none" stroke="green" d="M2057.91,-888.9C2092.73,-896.45 2146.28,-911.55 2187,-936 2295.79,-1001.31 2352,-1042.11 2352,-1169 2352,-1531 2352,-1531 2352,-1531 2352,-1593.54 2301.08,-1596.8 2243,-1620 2122.18,-1668.27 1716.42,-1672.9 1578.91,-1673.1"/>
<polygon fill="green" stroke="green" points="1578.71,-1669.6 1568.72,-1673.11 1578.72,-1676.6 1578.71,-1669.6"/>
</g>
<!-- GRB2&#45;&gt;RAC1 -->
<g id="edge162" class="edge">
<title>GRB2&#45;&gt;RAC1</title>
<path fill="none" stroke="green" d="M2002.65,-866.54C1972.63,-843.35 1920,-794.73 1920,-739 1920,-739 1920,-739 1920,-449 1920,-354.34 1784.21,-322.22 1710.81,-311.77"/>
<polygon fill="green" stroke="green" points="1710.83,-308.24 1700.46,-310.38 1709.9,-315.18 1710.83,-308.24"/>
</g>
<!-- GRB2&#45;&gt;SRC -->
<g id="edge83" class="edge">
<title>GRB2&#45;&gt;SRC</title>
<path fill="none" stroke="green" d="M2017.29,-863.95C2014,-837.29 2014,-784.11 2014,-739 2014,-739 2014,-739 2014,-449 2014,-406.81 1998.9,-398.2 1981,-360 1975.13,-347.47 1867.86,-152.58 1857,-144 1818.88,-113.88 1764.03,-100.86 1726.91,-95.24"/>
<polygon fill="green" stroke="green" points="1727.33,-91.77 1716.95,-93.85 1726.36,-98.7 1727.33,-91.77"/>
</g>
<!-- GRB2&#45;&gt;SHC1 -->
<g id="edge174" class="edge">
<title>GRB2&#45;&gt;SHC1</title>
<path fill="none" stroke="green" d="M2015.73,-900.07C2008.23,-910.18 1997.48,-923.43 1989,-936 1957.96,-982.03 1928.04,-1039.79 1909.21,-1072.12"/>
<polygon fill="green" stroke="green" points="1906.08,-1070.53 1903.97,-1080.91 1912.09,-1074.12 1906.08,-1070.53"/>
</g>
<!-- GRB2&#45;&gt;PLCG1 -->
<g id="edge175" class="edge">
<title>GRB2&#45;&gt;PLCG1</title>
<path fill="none" stroke="green" d="M1985.92,-878.4C1833.26,-867.72 1252.96,-827.1 1075.12,-814.65"/>
<polygon fill="green" stroke="green" points="1075.2,-811.15 1064.98,-813.94 1074.71,-818.13 1075.2,-811.15"/>
</g>
<!-- PLCG1&#45;&gt;CDC42 -->
<g id="edge130" class="edge">
<title>PLCG1&#45;&gt;CDC42</title>
<path fill="none" stroke="green" d="M982.22,-803.97C881.02,-791.47 618.51,-759.06 507.15,-745.31"/>
<polygon fill="green" stroke="green" points="507.52,-741.83 497.17,-744.08 506.67,-748.78 507.52,-741.83"/>
</g>
<!-- PLCG1&#45;&gt;PRKCA -->
<g id="edge113" class="edge">
<title>PLCG1&#45;&gt;PRKCA</title>
<path fill="none" stroke="green" d="M985.71,-818.97C959.79,-826.4 926.36,-840.04 906,-864 879.47,-895.22 882,-912.03 882,-953 882,-1027 882,-1027 882,-1027 882,-1068.09 868.37,-1114.08 858.37,-1142.28"/>
<polygon fill="green" stroke="green" points="855.03,-1141.24 854.88,-1151.83 861.6,-1143.64 855.03,-1141.24"/>
</g>
<!-- PLCG1&#45;&gt;SRC -->
<g id="edge85" class="edge">
<title>PLCG1&#45;&gt;SRC</title>
<path fill="none" stroke="green" d="M1044.1,-794C1108.71,-750.5 1298,-616.81 1298,-451 1298,-451 1298,-451 1298,-233 1298,-182.4 1325.44,-169.74 1369,-144 1414.93,-116.86 1571.7,-100.21 1646.68,-93.9"/>
<polygon fill="green" stroke="green" points="1647.01,-97.38 1656.69,-93.07 1646.44,-90.4 1647.01,-97.38"/>
</g>
<!-- PLCG1&#45;&gt;RHOA -->
<g id="edge168" class="edge">
<title>PLCG1&#45;&gt;RHOA</title>
<path fill="none" stroke="green" d="M1025.78,-828.35C1030.15,-894.14 1034.58,-1131.07 1156,-1260 1239.73,-1348.9 1389,-1374.58 1466.11,-1381.99"/>
<polygon fill="green" stroke="green" points="1466.23,-1385.52 1476.5,-1382.92 1466.85,-1378.54 1466.23,-1385.52"/>
</g>
<!-- BCAR1&#45;&gt;PTPN1 -->
<g id="edge145" class="edge">
<title>BCAR1&#45;&gt;PTPN1</title>
<path fill="none" stroke="red" d="M1408.46,-1517.91C1451.18,-1504.63 1525.94,-1482.56 1572.35,-1469.53"/>
<polygon fill="red" stroke="red" points="1575,-1463.6 1577.7,-1473.23 1575.77,-1473.77 1573.08,-1464.14 1575,-1463.6"/>
<polyline fill="none" stroke="red" points="1577.31,-1468.14 1572.5,-1469.49 "/>
</g>
<!-- BCAR1&#45;&gt;RAC1 -->
<g id="edge164" class="edge">
<title>BCAR1&#45;&gt;RAC1</title>
<path fill="none" stroke="green" d="M1418.95,-1526.5C1488.9,-1521.7 1622.54,-1508.63 1656,-1476 1801.96,-1333.65 1750,-1230.88 1750,-1027 1750,-1027 1750,-1027 1750,-881 1750,-727.04 1713.35,-692.02 1689,-540 1677.08,-465.62 1665.21,-377.52 1662.87,-334.04"/>
<polygon fill="green" stroke="green" points="1666.36,-333.85 1662.48,-323.99 1659.37,-334.12 1666.36,-333.85"/>
</g>
<!-- BCAR1&#45;&gt;SRC -->
<g id="edge87" class="edge">
<title>BCAR1&#45;&gt;SRC</title>
<path fill="none" stroke="green" d="M1375.29,-1511.68C1379.36,-1485.11 1392,-1432.56 1392,-1387 1392,-1387 1392,-1387 1392,-233 1392,-188.68 1401.97,-171.16 1437,-144 1468.84,-119.31 1584.02,-102.29 1646.44,-95"/>
<polygon fill="green" stroke="green" points="1647.17,-98.43 1656.71,-93.83 1646.38,-91.48 1647.17,-98.43"/>
</g>
<!-- PRKACA&#45;&gt;VIM -->
<g id="edge118" class="edge">
<title>PRKACA&#45;&gt;VIM</title>
<path fill="none" stroke="red" d="M1293.14,-1297.46C1278.11,-1286.27 1257.85,-1271.19 1242.47,-1259.73"/>
<polygon fill="red" stroke="red" points="1236.08,-1261.21 1242.05,-1253.19 1243.66,-1254.38 1237.68,-1262.4 1236.08,-1261.21"/>
<polyline fill="none" stroke="red" points="1238.26,-1256.6 1242.27,-1259.59 "/>
</g>
<!-- PRKACA&#45;&gt;ITGB1 -->
<g id="edge140" class="edge">
<title>PRKACA&#45;&gt;ITGB1</title>
<path fill="none" stroke="green" d="M1363.96,-1311.43C1484.23,-1305.08 1793.29,-1273.4 1982,-1116 2122.32,-998.96 2146,-921.72 2146,-739 2146,-739 2146,-739 2146,-449 2146,-245.21 2068.98,-159.65 1885,-72 1836.06,-48.69 1775.55,-34.72 1734.3,-27.03"/>
<polygon fill="green" stroke="green" points="1734.71,-23.54 1724.24,-25.2 1733.46,-30.43 1734.71,-23.54"/>
</g>
<!-- PRKACA&#45;&gt;LATS1 -->
<g id="edge89" class="edge">
<title>PRKACA&#45;&gt;LATS1</title>
<path fill="none" stroke="green" d="M1322.09,-1295.95C1333.78,-1269.72 1354,-1217.61 1354,-1171 1354,-1171 1354,-1171 1354,-449 1354,-294.92 1146.98,-207.16 1056.02,-176.03"/>
<polygon fill="green" stroke="green" points="1056.89,-172.64 1046.29,-172.77 1054.66,-179.27 1056.89,-172.64"/>
</g>
<!-- PRKACA&#45;&gt;LATS2 -->
<g id="edge95" class="edge">
<title>PRKACA&#45;&gt;LATS2</title>
<path fill="none" stroke="green" d="M1314.4,-1295.95C1314.98,-1269.29 1316,-1216.12 1316,-1171 1316,-1171 1316,-1171 1316,-665 1316,-608.74 1267.69,-613.77 1226,-576 1133.14,-491.87 1094.15,-487.93 1009,-396 990.65,-376.19 973.19,-350.82 961.32,-332.24"/>
<polygon fill="green" stroke="green" points="964.25,-330.32 955.97,-323.72 958.32,-334.05 964.25,-330.32"/>
</g>
<!-- PRKACA&#45;&gt;FOS -->
<g id="edge128" class="edge">
<title>PRKACA&#45;&gt;FOS</title>
<path fill="none" stroke="green" d="M1264.79,-1310.63C1142.82,-1302.52 821.35,-1267.18 612,-1116 383.7,-951.13 299.29,-884.43 228,-612 171.68,-396.78 130.4,-130.92 117.92,-46.24"/>
<polygon fill="green" stroke="green" points="121.36,-45.55 116.45,-36.17 114.43,-46.57 121.36,-45.55"/>
</g>
<!-- PRKACA&#45;&gt;SRC -->
<g id="edge158" class="edge">
<title>PRKACA&#45;&gt;SRC</title>
<path fill="none" stroke="green" d="M1344.48,-1299.51C1404.29,-1273.75 1536.61,-1211.48 1608,-1116 1652.71,-1056.2 1656,-1029.67 1656,-955 1656,-955 1656,-955 1656,-665 1656,-526.76 1725.9,-497.95 1717,-360 1710.76,-263.4 1705.07,-239.46 1689,-144 1687.57,-135.53 1685.76,-126.35 1684.44,-118.05"/>
<polygon fill="green" stroke="green" points="1687.9,-117.56 1683.08,-108.12 1680.97,-118.51 1687.9,-117.56"/>
</g>
<!-- PRKACA&#45;&gt;PLCG1 -->
<g id="edge176" class="edge">
<title>PRKACA&#45;&gt;PLCG1</title>
<path fill="none" stroke="red" d="M1270.03,-1305.37C1241.17,-1298.22 1204.55,-1284.77 1181,-1260 1052.89,-1125.23 1113.07,-1037.43 1046,-864 1042,-853.64 1037.15,-842.33 1032.95,-832.83"/>
<polygon fill="red" stroke="red" points="1026.65,-830.99 1035.79,-826.92 1036.6,-828.75 1027.47,-832.82 1026.65,-830.99"/>
<polyline fill="none" stroke="red" points="1030.81,-828.04 1032.85,-832.61 "/>
</g>
</g>
</svg>
