<?xml version="1.0" encoding="UTF-8" standalone="no"?>
<!DOCTYPE svg PUBLIC "-//W3C//DTD SVG 1.1//EN"
 "http://www.w3.org/Graphics/SVG/1.1/DTD/svg11.dtd">
<!-- Generated by graphviz version 2.43.0 (0)
 -->
<!-- Title: %3 Pages: 1 -->
<svg width="685pt" height="116pt"
 viewBox="0.00 0.00 685.04 116.00" xmlns="http://www.w3.org/2000/svg" xmlns:xlink="http://www.w3.org/1999/xlink">
<g id="graph0" class="graph" transform="scale(1 1) rotate(0) translate(4 112)">
<title>%3</title>
<polygon fill="white" stroke="transparent" points="-4,4 -4,-112 681.04,-112 681.04,4 -4,4"/>
<!-- SRC -->
<g id="node1" class="node">
<title>SRC</title>
<ellipse fill="lightyellow" stroke="black" cx="127.75" cy="-90" rx="30.59" ry="18"/>
<text text-anchor="middle" x="127.75" y="-86.3" font-family="Times,serif" font-size="14.00">SRC</text>
</g>
<!-- PTK2 -->
<g id="node2" class="node">
<title>PTK2</title>
<ellipse fill="lightyellow" stroke="black" cx="35.75" cy="-18" rx="36" ry="18"/>
<text text-anchor="middle" x="35.75" y="-14.3" font-family="Times,serif" font-size="14.00">PTK2</text>
</g>
<!-- SRC&#45;&gt;PTK2 -->
<g id="edge1" class="edge">
<title>SRC&#45;&gt;PTK2</title>
<path fill="none" stroke="green" d="M109.57,-75.17C96.23,-65.02 77.88,-51.06 62.81,-39.6"/>
<polygon fill="green" stroke="green" points="64.91,-36.79 54.84,-33.52 60.67,-42.36 64.91,-36.79"/>
</g>
<!-- CDH1 -->
<g id="node3" class="node">
<title>CDH1</title>
<ellipse fill="lightyellow" stroke="black" cx="127.75" cy="-18" rx="38.19" ry="18"/>
<text text-anchor="middle" x="127.75" y="-14.3" font-family="Times,serif" font-size="14.00">CDH1</text>
</g>
<!-- SRC&#45;&gt;CDH1 -->
<g id="edge2" class="edge">
<title>SRC&#45;&gt;CDH1</title>
<path fill="none" stroke="red" d="M127.75,-71.7C127.75,-62.46 127.75,-50.98 127.75,-41.11"/>
<polygon fill="red" stroke="red" points="122.75,-37.1 132.75,-37.1 132.75,-39.1 122.75,-39.1 122.75,-37.1"/>
<polyline fill="none" stroke="red" points="127.75,-36.1 127.75,-41.1 "/>
</g>
<!-- CDH2 -->
<g id="node4" class="node">
<title>CDH2</title>
<ellipse fill="lightyellow" stroke="black" cx="222.75" cy="-18" rx="38.19" ry="18"/>
<text text-anchor="middle" x="222.75" y="-14.3" font-family="Times,serif" font-size="14.00">CDH2</text>
</g>
<!-- SRC&#45;&gt;CDH2 -->
<g id="edge3" class="edge">
<title>SRC&#45;&gt;CDH2</title>
<path fill="none" stroke="red" d="M146.06,-75.5C161.07,-64.44 182.43,-48.7 198.8,-36.65"/>
<polygon fill="red" stroke="red" points="199.08,-30.23 205.01,-38.28 203.4,-39.47 197.46,-31.42 199.08,-30.23"/>
<polyline fill="none" stroke="red" points="202.85,-33.66 198.82,-36.63 "/>
</g>
<!-- NOTCH1 -->
<g id="node5" class="node">
<title>NOTCH1</title>
<ellipse fill="lightyellow" stroke="black" cx="228.75" cy="-90" rx="51.99" ry="18"/>
<text text-anchor="middle" x="228.75" y="-86.3" font-family="Times,serif" font-size="14.00">NOTCH1</text>
</g>
<!-- VIM -->
<g id="node6" class="node">
<title>VIM</title>
<ellipse fill="lightyellow" stroke="black" cx="328.75" cy="-90" rx="29.8" ry="18"/>
<text text-anchor="middle" x="328.75" y="-86.3" font-family="Times,serif" font-size="14.00">VIM</text>
</g>
<!-- MAP4K4 -->
<g id="node7" class="node">
<title>MAP4K4</title>
<ellipse fill="lightyellow" stroke="black" cx="427.75" cy="-90" rx="51.19" ry="18"/>
<text text-anchor="middle" x="427.75" y="-86.3" font-family="Times,serif" font-size="14.00">MAP4K4</text>
</g>
<!-- LATS1 -->
<g id="node8" class="node">
<title>LATS1</title>
<ellipse fill="lightyellow" stroke="black" cx="537.75" cy="-90" rx="40.09" ry="18"/>
<text text-anchor="middle" x="537.75" y="-86.3" font-family="Times,serif" font-size="14.00">LATS1</text>
</g>
<!-- LATS2 -->
<g id="node9" class="node">
<title>LATS2</title>
<ellipse fill="lightyellow" stroke="black" cx="636.75" cy="-90" rx="40.09" ry="18"/>
<text text-anchor="middle" x="636.75" y="-86.3" font-family="Times,serif" font-size="14.00">LATS2</text>
</g>
</g>
</svg>
